M48
; DRILL file KiCad 10.0.0 date 2026-08-31T16:22:33
; FORMAT={-:-/ absolute / metric / decimal}
; #@! TF.CreationDate,2026-08-31T16:22:33-05:00
; #@! TF.GenerationSoftware,Kicad,Pcbnew,10.0.0
; #@! TF.FileFunction,MixedPlating,1,2
FMAT,2
METRIC
; #@! TA.AperFunction,Plated,PTH,ComponentDrill
T1C0.750
; #@! TA.AperFunction,Plated,PTH,ComponentDrill
T2C0.800
; #@! TA.AperFunction,Plated,PTH,ComponentDrill
T3C0.900
; #@! TA.AperFunction,Plated,PTH,ComponentDrill
T4C1.000
; #@! TA.AperFunction,Plated,PTH,ComponentDrill
T5C1.016
; #@! TA.AperFunction,Plated,PTH,ComponentDrill
T6C1.100
; #@! TA.AperFunction,Plated,PTH,ComponentDrill
T7C1.200
; #@! TA.AperFunction,NonPlated,NPTH,ComponentDrill
T8C3.200
%
G90
G05
T1
X194.93Y-73.1
X196.2Y-73.1
X197.47Y-73.1
T2
X175.42Y-99.0
X175.92Y-108.5
X182.42Y-111.5
X183.92Y-116.5
X184.42Y-121.0
X185.58Y-99.0
X185.9Y-53.72
X185.9Y-63.88
X186.08Y-108.5
X189.3Y-66.42
X189.3Y-76.58
X189.89Y-55.29
X189.89Y-57.83
X189.89Y-60.37
X189.89Y-62.91
X192.58Y-111.5
X194.08Y-116.5
X194.58Y-121.0
X197.51Y-55.29
X197.51Y-57.83
X197.51Y-60.37
X197.51Y-62.91
X200.9Y-54.42
X200.9Y-64.58
X204.105Y-56.1
X204.5Y-63.42
X204.5Y-73.58
X206.605Y-56.1
X209.1Y-63.42
X209.1Y-73.58
T3
X177.6Y-66.46
X177.6Y-69.0
T4
X176.125Y-74.33
X178.665Y-74.33
X182.11Y-128.0
X184.65Y-128.0
X187.19Y-128.0
X189.73Y-128.0
X192.27Y-128.0
X193.0Y-41.19
X193.0Y-43.73
X193.0Y-46.27
X193.0Y-48.81
X194.81Y-128.0
X197.35Y-128.0
X199.89Y-128.0
X202.38Y-77.0
X204.92Y-77.0
X207.46Y-77.0
X210.0Y-77.0
T5
X165.9Y-66.47
X165.9Y-69.01
X165.9Y-71.55
X165.9Y-74.09
X165.9Y-76.63
X165.9Y-79.17
X165.9Y-81.71
X165.9Y-84.25
X165.9Y-89.33
X165.9Y-91.87
X165.9Y-94.41
X165.9Y-96.95
X165.9Y-99.49
X165.9Y-102.03
X165.9Y-104.57
X165.9Y-107.11
X165.9Y-112.19
X165.9Y-114.73
X165.9Y-117.27
X165.9Y-119.81
X165.9Y-122.35
X165.9Y-124.89
X165.9Y-127.43
X165.9Y-129.97
X170.98Y-132.51
X170.98Y-135.05
X173.52Y-132.51
X173.52Y-135.05
X176.06Y-132.51
X176.06Y-135.05
X178.6Y-132.51
X178.6Y-135.05
X181.14Y-132.51
X181.14Y-135.05
X183.68Y-132.51
X183.68Y-135.05
X186.22Y-132.51
X186.22Y-135.05
X188.76Y-102.157
X188.76Y-104.697
X188.76Y-132.51
X188.76Y-135.05
X191.3Y-102.157
X191.3Y-104.697
X191.3Y-132.51
X191.3Y-135.05
X193.84Y-102.157
X193.84Y-104.697
X193.84Y-132.51
X193.84Y-135.05
X196.38Y-132.51
X196.38Y-135.05
X198.92Y-132.51
X198.92Y-135.05
X201.46Y-132.51
X201.46Y-135.05
X204.0Y-132.51
X204.0Y-135.05
X206.54Y-132.51
X206.54Y-135.05
X209.08Y-132.51
X209.08Y-135.05
X211.62Y-132.51
X211.62Y-135.05
X214.16Y-57.326
X214.16Y-59.866
X214.16Y-62.406
X214.16Y-64.946
X214.16Y-67.486
X214.16Y-70.026
X214.16Y-72.566
X214.16Y-75.106
X214.16Y-77.646
X214.16Y-80.186
X214.16Y-84.25
X214.16Y-86.79
X214.16Y-89.33
X214.16Y-91.87
X214.16Y-94.41
X214.16Y-96.95
X214.16Y-99.49
X214.16Y-102.03
X214.16Y-107.11
X214.16Y-109.65
X214.16Y-112.19
X214.16Y-114.73
X214.16Y-117.27
X214.16Y-119.81
X214.16Y-122.35
X214.16Y-124.89
X214.16Y-132.51
X214.16Y-135.05
T6
X182.5Y-42.5
X182.5Y-49.0
X187.0Y-42.5
X187.0Y-49.0
T7
X171.0Y-47.0
X171.0Y-52.0
X171.0Y-57.0
T8
X165.9Y-52.5
X165.9Y-135.05
X170.98Y-104.57
X198.92Y-104.57
X214.16Y-53.77
X214.16Y-128.7
M30
