%TF.GenerationSoftware,KiCad,Pcbnew,10.0.0*%
%TF.CreationDate,2026-08-31T16:22:33-05:00*%
%TF.ProjectId,shield_arduino,73686965-6c64-45f6-9172-6475696e6f2e,rev?*%
%TF.SameCoordinates,Original*%
%TF.FileFunction,Drillmap*%
%TF.FilePolarity,Positive*%
%FSLAX45Y45*%
G04 Gerber Fmt 4.5, Leading zero omitted, Abs format (unit mm)*
G04 Created by KiCad (PCBNEW 10.0.0) date 2026-08-31 16:22:33*
%MOMM*%
%LPD*%
G01*
G04 APERTURE LIST*
%ADD10C,0.050000*%
%ADD11C,0.200000*%
%ADD12C,0.100000*%
%ADD13C,0.101600*%
%ADD14C,0.110000*%
%ADD15C,0.120000*%
%ADD16C,0.320000*%
G04 APERTURE END LIST*
D10*
X16340000Y-3820000D02*
X21720000Y-3820000D01*
X21720000Y-13690000D01*
X16340000Y-13690000D01*
X16340000Y-3820000D01*
D11*
D12*
X19455500Y-7272500D02*
X19530500Y-7347500D01*
X19530500Y-7272500D02*
X19455500Y-7347500D01*
X19582500Y-7272500D02*
X19657500Y-7347500D01*
X19657500Y-7272500D02*
X19582500Y-7347500D01*
X19709500Y-7272500D02*
X19784500Y-7347500D01*
X19784500Y-7272500D02*
X19709500Y-7347500D01*
X17582000Y-9900000D02*
G75*
G02*
X17502000Y-9900000I-40000J0D01*
G01*
X17502000Y-9900000D02*
G75*
G02*
X17582000Y-9900000I40000J0D01*
G01*
X17632000Y-10850000D02*
G75*
G02*
X17552000Y-10850000I-40000J0D01*
G01*
X17552000Y-10850000D02*
G75*
G02*
X17632000Y-10850000I40000J0D01*
G01*
X18282000Y-11150000D02*
G75*
G02*
X18202000Y-11150000I-40000J0D01*
G01*
X18202000Y-11150000D02*
G75*
G02*
X18282000Y-11150000I40000J0D01*
G01*
X18432000Y-11650000D02*
G75*
G02*
X18352000Y-11650000I-40000J0D01*
G01*
X18352000Y-11650000D02*
G75*
G02*
X18432000Y-11650000I40000J0D01*
G01*
X18482000Y-12100000D02*
G75*
G02*
X18402000Y-12100000I-40000J0D01*
G01*
X18402000Y-12100000D02*
G75*
G02*
X18482000Y-12100000I40000J0D01*
G01*
X18598000Y-9900000D02*
G75*
G02*
X18518000Y-9900000I-40000J0D01*
G01*
X18518000Y-9900000D02*
G75*
G02*
X18598000Y-9900000I40000J0D01*
G01*
X18630000Y-5372000D02*
G75*
G02*
X18550000Y-5372000I-40000J0D01*
G01*
X18550000Y-5372000D02*
G75*
G02*
X18630000Y-5372000I40000J0D01*
G01*
X18630000Y-6388000D02*
G75*
G02*
X18550000Y-6388000I-40000J0D01*
G01*
X18550000Y-6388000D02*
G75*
G02*
X18630000Y-6388000I40000J0D01*
G01*
X18648000Y-10850000D02*
G75*
G02*
X18568000Y-10850000I-40000J0D01*
G01*
X18568000Y-10850000D02*
G75*
G02*
X18648000Y-10850000I40000J0D01*
G01*
X18970000Y-6642000D02*
G75*
G02*
X18890000Y-6642000I-40000J0D01*
G01*
X18890000Y-6642000D02*
G75*
G02*
X18970000Y-6642000I40000J0D01*
G01*
X18970000Y-7658000D02*
G75*
G02*
X18890000Y-7658000I-40000J0D01*
G01*
X18890000Y-7658000D02*
G75*
G02*
X18970000Y-7658000I40000J0D01*
G01*
X19029000Y-5529000D02*
G75*
G02*
X18949000Y-5529000I-40000J0D01*
G01*
X18949000Y-5529000D02*
G75*
G02*
X19029000Y-5529000I40000J0D01*
G01*
X19029000Y-5783000D02*
G75*
G02*
X18949000Y-5783000I-40000J0D01*
G01*
X18949000Y-5783000D02*
G75*
G02*
X19029000Y-5783000I40000J0D01*
G01*
X19029000Y-6037000D02*
G75*
G02*
X18949000Y-6037000I-40000J0D01*
G01*
X18949000Y-6037000D02*
G75*
G02*
X19029000Y-6037000I40000J0D01*
G01*
X19029000Y-6291000D02*
G75*
G02*
X18949000Y-6291000I-40000J0D01*
G01*
X18949000Y-6291000D02*
G75*
G02*
X19029000Y-6291000I40000J0D01*
G01*
X19298000Y-11150000D02*
G75*
G02*
X19218000Y-11150000I-40000J0D01*
G01*
X19218000Y-11150000D02*
G75*
G02*
X19298000Y-11150000I40000J0D01*
G01*
X19448000Y-11650000D02*
G75*
G02*
X19368000Y-11650000I-40000J0D01*
G01*
X19368000Y-11650000D02*
G75*
G02*
X19448000Y-11650000I40000J0D01*
G01*
X19498000Y-12100000D02*
G75*
G02*
X19418000Y-12100000I-40000J0D01*
G01*
X19418000Y-12100000D02*
G75*
G02*
X19498000Y-12100000I40000J0D01*
G01*
X19791000Y-5529000D02*
G75*
G02*
X19711000Y-5529000I-40000J0D01*
G01*
X19711000Y-5529000D02*
G75*
G02*
X19791000Y-5529000I40000J0D01*
G01*
X19791000Y-5783000D02*
G75*
G02*
X19711000Y-5783000I-40000J0D01*
G01*
X19711000Y-5783000D02*
G75*
G02*
X19791000Y-5783000I40000J0D01*
G01*
X19791000Y-6037000D02*
G75*
G02*
X19711000Y-6037000I-40000J0D01*
G01*
X19711000Y-6037000D02*
G75*
G02*
X19791000Y-6037000I40000J0D01*
G01*
X19791000Y-6291000D02*
G75*
G02*
X19711000Y-6291000I-40000J0D01*
G01*
X19711000Y-6291000D02*
G75*
G02*
X19791000Y-6291000I40000J0D01*
G01*
X20130000Y-5442000D02*
G75*
G02*
X20050000Y-5442000I-40000J0D01*
G01*
X20050000Y-5442000D02*
G75*
G02*
X20130000Y-5442000I40000J0D01*
G01*
X20130000Y-6458000D02*
G75*
G02*
X20050000Y-6458000I-40000J0D01*
G01*
X20050000Y-6458000D02*
G75*
G02*
X20130000Y-6458000I40000J0D01*
G01*
X20450511Y-5610000D02*
G75*
G02*
X20370511Y-5610000I-40000J0D01*
G01*
X20370511Y-5610000D02*
G75*
G02*
X20450511Y-5610000I40000J0D01*
G01*
X20490000Y-6342000D02*
G75*
G02*
X20410000Y-6342000I-40000J0D01*
G01*
X20410000Y-6342000D02*
G75*
G02*
X20490000Y-6342000I40000J0D01*
G01*
X20490000Y-7358000D02*
G75*
G02*
X20410000Y-7358000I-40000J0D01*
G01*
X20410000Y-7358000D02*
G75*
G02*
X20490000Y-7358000I40000J0D01*
G01*
X20700511Y-5610000D02*
G75*
G02*
X20620511Y-5610000I-40000J0D01*
G01*
X20620511Y-5610000D02*
G75*
G02*
X20700511Y-5610000I40000J0D01*
G01*
X20950000Y-6342000D02*
G75*
G02*
X20870000Y-6342000I-40000J0D01*
G01*
X20870000Y-6342000D02*
G75*
G02*
X20950000Y-6342000I40000J0D01*
G01*
X20950000Y-7358000D02*
G75*
G02*
X20870000Y-7358000I-40000J0D01*
G01*
X20870000Y-7358000D02*
G75*
G02*
X20950000Y-7358000I40000J0D01*
G01*
X17760000Y-6601000D02*
X17760000Y-6691000D01*
X17715000Y-6646000D02*
X17805000Y-6646000D01*
X17760000Y-6855000D02*
X17760000Y-6945000D01*
X17715000Y-6900000D02*
X17805000Y-6900000D01*
X17647856Y-7468356D02*
X17647856Y-7397644D01*
X17577144Y-7397644D01*
X17577144Y-7468356D01*
X17647856Y-7468356D01*
X17901856Y-7468356D02*
X17901856Y-7397644D01*
X17831144Y-7397644D01*
X17831144Y-7468356D01*
X17901856Y-7468356D01*
X18246356Y-12835356D02*
X18246356Y-12764644D01*
X18175644Y-12764644D01*
X18175644Y-12835356D01*
X18246356Y-12835356D01*
X18500356Y-12835356D02*
X18500356Y-12764644D01*
X18429644Y-12764644D01*
X18429644Y-12835356D01*
X18500356Y-12835356D01*
X18754356Y-12835356D02*
X18754356Y-12764644D01*
X18683644Y-12764644D01*
X18683644Y-12835356D01*
X18754356Y-12835356D01*
X19008356Y-12835356D02*
X19008356Y-12764644D01*
X18937644Y-12764644D01*
X18937644Y-12835356D01*
X19008356Y-12835356D01*
X19262356Y-12835356D02*
X19262356Y-12764644D01*
X19191644Y-12764644D01*
X19191644Y-12835356D01*
X19262356Y-12835356D01*
X19335356Y-4154356D02*
X19335356Y-4083644D01*
X19264644Y-4083644D01*
X19264644Y-4154356D01*
X19335356Y-4154356D01*
X19335356Y-4408356D02*
X19335356Y-4337644D01*
X19264644Y-4337644D01*
X19264644Y-4408356D01*
X19335356Y-4408356D01*
X19335356Y-4662356D02*
X19335356Y-4591644D01*
X19264644Y-4591644D01*
X19264644Y-4662356D01*
X19335356Y-4662356D01*
X19335356Y-4916356D02*
X19335356Y-4845644D01*
X19264644Y-4845644D01*
X19264644Y-4916356D01*
X19335356Y-4916356D01*
X19516356Y-12835356D02*
X19516356Y-12764644D01*
X19445644Y-12764644D01*
X19445644Y-12835356D01*
X19516356Y-12835356D01*
X19770356Y-12835356D02*
X19770356Y-12764644D01*
X19699644Y-12764644D01*
X19699644Y-12835356D01*
X19770356Y-12835356D01*
X20024356Y-12835356D02*
X20024356Y-12764644D01*
X19953644Y-12764644D01*
X19953644Y-12835356D01*
X20024356Y-12835356D01*
X20273356Y-7735356D02*
X20273356Y-7664644D01*
X20202644Y-7664644D01*
X20202644Y-7735356D01*
X20273356Y-7735356D01*
X20527356Y-7735356D02*
X20527356Y-7664644D01*
X20456644Y-7664644D01*
X20456644Y-7735356D01*
X20527356Y-7735356D01*
X20781356Y-7735356D02*
X20781356Y-7664644D01*
X20710644Y-7664644D01*
X20710644Y-7735356D01*
X20781356Y-7735356D01*
X21035356Y-7735356D02*
X21035356Y-7664644D01*
X20964644Y-7664644D01*
X20964644Y-7735356D01*
X21035356Y-7735356D01*
D13*
X16590000Y-6697800D02*
X16640800Y-6647000D01*
X16590000Y-6596200D01*
X16539200Y-6647000D01*
X16590000Y-6697800D01*
X16590000Y-6951800D02*
X16640800Y-6901000D01*
X16590000Y-6850200D01*
X16539200Y-6901000D01*
X16590000Y-6951800D01*
X16590000Y-7205800D02*
X16640800Y-7155000D01*
X16590000Y-7104200D01*
X16539200Y-7155000D01*
X16590000Y-7205800D01*
X16590000Y-7459800D02*
X16640800Y-7409000D01*
X16590000Y-7358200D01*
X16539200Y-7409000D01*
X16590000Y-7459800D01*
X16590000Y-7713800D02*
X16640800Y-7663000D01*
X16590000Y-7612200D01*
X16539200Y-7663000D01*
X16590000Y-7713800D01*
X16590000Y-7967800D02*
X16640800Y-7917000D01*
X16590000Y-7866200D01*
X16539200Y-7917000D01*
X16590000Y-7967800D01*
X16590000Y-8221800D02*
X16640800Y-8171000D01*
X16590000Y-8120200D01*
X16539200Y-8171000D01*
X16590000Y-8221800D01*
X16590000Y-8475800D02*
X16640800Y-8425000D01*
X16590000Y-8374200D01*
X16539200Y-8425000D01*
X16590000Y-8475800D01*
X16590000Y-8983800D02*
X16640800Y-8933000D01*
X16590000Y-8882200D01*
X16539200Y-8933000D01*
X16590000Y-8983800D01*
X16590000Y-9237800D02*
X16640800Y-9187000D01*
X16590000Y-9136200D01*
X16539200Y-9187000D01*
X16590000Y-9237800D01*
X16590000Y-9491800D02*
X16640800Y-9441000D01*
X16590000Y-9390200D01*
X16539200Y-9441000D01*
X16590000Y-9491800D01*
X16590000Y-9745800D02*
X16640800Y-9695000D01*
X16590000Y-9644200D01*
X16539200Y-9695000D01*
X16590000Y-9745800D01*
X16590000Y-9999800D02*
X16640800Y-9949000D01*
X16590000Y-9898200D01*
X16539200Y-9949000D01*
X16590000Y-9999800D01*
X16590000Y-10253800D02*
X16640800Y-10203000D01*
X16590000Y-10152200D01*
X16539200Y-10203000D01*
X16590000Y-10253800D01*
X16590000Y-10507800D02*
X16640800Y-10457000D01*
X16590000Y-10406200D01*
X16539200Y-10457000D01*
X16590000Y-10507800D01*
X16590000Y-10761800D02*
X16640800Y-10711000D01*
X16590000Y-10660200D01*
X16539200Y-10711000D01*
X16590000Y-10761800D01*
X16590000Y-11269800D02*
X16640800Y-11219000D01*
X16590000Y-11168200D01*
X16539200Y-11219000D01*
X16590000Y-11269800D01*
X16590000Y-11523800D02*
X16640800Y-11473000D01*
X16590000Y-11422200D01*
X16539200Y-11473000D01*
X16590000Y-11523800D01*
X16590000Y-11777800D02*
X16640800Y-11727000D01*
X16590000Y-11676200D01*
X16539200Y-11727000D01*
X16590000Y-11777800D01*
X16590000Y-12031800D02*
X16640800Y-11981000D01*
X16590000Y-11930200D01*
X16539200Y-11981000D01*
X16590000Y-12031800D01*
X16590000Y-12285800D02*
X16640800Y-12235000D01*
X16590000Y-12184200D01*
X16539200Y-12235000D01*
X16590000Y-12285800D01*
X16590000Y-12539800D02*
X16640800Y-12489000D01*
X16590000Y-12438200D01*
X16539200Y-12489000D01*
X16590000Y-12539800D01*
X16590000Y-12793800D02*
X16640800Y-12743000D01*
X16590000Y-12692200D01*
X16539200Y-12743000D01*
X16590000Y-12793800D01*
X16590000Y-13047800D02*
X16640800Y-12997000D01*
X16590000Y-12946200D01*
X16539200Y-12997000D01*
X16590000Y-13047800D01*
X17098000Y-13301800D02*
X17148800Y-13251000D01*
X17098000Y-13200200D01*
X17047200Y-13251000D01*
X17098000Y-13301800D01*
X17098000Y-13555800D02*
X17148800Y-13505000D01*
X17098000Y-13454200D01*
X17047200Y-13505000D01*
X17098000Y-13555800D01*
X17352000Y-13301800D02*
X17402800Y-13251000D01*
X17352000Y-13200200D01*
X17301200Y-13251000D01*
X17352000Y-13301800D01*
X17352000Y-13555800D02*
X17402800Y-13505000D01*
X17352000Y-13454200D01*
X17301200Y-13505000D01*
X17352000Y-13555800D01*
X17606000Y-13301800D02*
X17656800Y-13251000D01*
X17606000Y-13200200D01*
X17555200Y-13251000D01*
X17606000Y-13301800D01*
X17606000Y-13555800D02*
X17656800Y-13505000D01*
X17606000Y-13454200D01*
X17555200Y-13505000D01*
X17606000Y-13555800D01*
X17860000Y-13301800D02*
X17910800Y-13251000D01*
X17860000Y-13200200D01*
X17809200Y-13251000D01*
X17860000Y-13301800D01*
X17860000Y-13555800D02*
X17910800Y-13505000D01*
X17860000Y-13454200D01*
X17809200Y-13505000D01*
X17860000Y-13555800D01*
X18114000Y-13301800D02*
X18164800Y-13251000D01*
X18114000Y-13200200D01*
X18063200Y-13251000D01*
X18114000Y-13301800D01*
X18114000Y-13555800D02*
X18164800Y-13505000D01*
X18114000Y-13454200D01*
X18063200Y-13505000D01*
X18114000Y-13555800D01*
X18368000Y-13301800D02*
X18418800Y-13251000D01*
X18368000Y-13200200D01*
X18317200Y-13251000D01*
X18368000Y-13301800D01*
X18368000Y-13555800D02*
X18418800Y-13505000D01*
X18368000Y-13454200D01*
X18317200Y-13505000D01*
X18368000Y-13555800D01*
X18622000Y-13301800D02*
X18672800Y-13251000D01*
X18622000Y-13200200D01*
X18571200Y-13251000D01*
X18622000Y-13301800D01*
X18622000Y-13555800D02*
X18672800Y-13505000D01*
X18622000Y-13454200D01*
X18571200Y-13505000D01*
X18622000Y-13555800D01*
X18876000Y-10266500D02*
X18926800Y-10215700D01*
X18876000Y-10164900D01*
X18825200Y-10215700D01*
X18876000Y-10266500D01*
X18876000Y-10520500D02*
X18926800Y-10469700D01*
X18876000Y-10418900D01*
X18825200Y-10469700D01*
X18876000Y-10520500D01*
X18876000Y-13301800D02*
X18926800Y-13251000D01*
X18876000Y-13200200D01*
X18825200Y-13251000D01*
X18876000Y-13301800D01*
X18876000Y-13555800D02*
X18926800Y-13505000D01*
X18876000Y-13454200D01*
X18825200Y-13505000D01*
X18876000Y-13555800D01*
X19130000Y-10266500D02*
X19180800Y-10215700D01*
X19130000Y-10164900D01*
X19079200Y-10215700D01*
X19130000Y-10266500D01*
X19130000Y-10520500D02*
X19180800Y-10469700D01*
X19130000Y-10418900D01*
X19079200Y-10469700D01*
X19130000Y-10520500D01*
X19130000Y-13301800D02*
X19180800Y-13251000D01*
X19130000Y-13200200D01*
X19079200Y-13251000D01*
X19130000Y-13301800D01*
X19130000Y-13555800D02*
X19180800Y-13505000D01*
X19130000Y-13454200D01*
X19079200Y-13505000D01*
X19130000Y-13555800D01*
X19384000Y-10266500D02*
X19434800Y-10215700D01*
X19384000Y-10164900D01*
X19333200Y-10215700D01*
X19384000Y-10266500D01*
X19384000Y-10520500D02*
X19434800Y-10469700D01*
X19384000Y-10418900D01*
X19333200Y-10469700D01*
X19384000Y-10520500D01*
X19384000Y-13301800D02*
X19434800Y-13251000D01*
X19384000Y-13200200D01*
X19333200Y-13251000D01*
X19384000Y-13301800D01*
X19384000Y-13555800D02*
X19434800Y-13505000D01*
X19384000Y-13454200D01*
X19333200Y-13505000D01*
X19384000Y-13555800D01*
X19638000Y-13301800D02*
X19688800Y-13251000D01*
X19638000Y-13200200D01*
X19587200Y-13251000D01*
X19638000Y-13301800D01*
X19638000Y-13555800D02*
X19688800Y-13505000D01*
X19638000Y-13454200D01*
X19587200Y-13505000D01*
X19638000Y-13555800D01*
X19892000Y-13301800D02*
X19942800Y-13251000D01*
X19892000Y-13200200D01*
X19841200Y-13251000D01*
X19892000Y-13301800D01*
X19892000Y-13555800D02*
X19942800Y-13505000D01*
X19892000Y-13454200D01*
X19841200Y-13505000D01*
X19892000Y-13555800D01*
X20146000Y-13301800D02*
X20196800Y-13251000D01*
X20146000Y-13200200D01*
X20095200Y-13251000D01*
X20146000Y-13301800D01*
X20146000Y-13555800D02*
X20196800Y-13505000D01*
X20146000Y-13454200D01*
X20095200Y-13505000D01*
X20146000Y-13555800D01*
X20400000Y-13301800D02*
X20450800Y-13251000D01*
X20400000Y-13200200D01*
X20349200Y-13251000D01*
X20400000Y-13301800D01*
X20400000Y-13555800D02*
X20450800Y-13505000D01*
X20400000Y-13454200D01*
X20349200Y-13505000D01*
X20400000Y-13555800D01*
X20654000Y-13301800D02*
X20704800Y-13251000D01*
X20654000Y-13200200D01*
X20603200Y-13251000D01*
X20654000Y-13301800D01*
X20654000Y-13555800D02*
X20704800Y-13505000D01*
X20654000Y-13454200D01*
X20603200Y-13505000D01*
X20654000Y-13555800D01*
X20908000Y-13301800D02*
X20958800Y-13251000D01*
X20908000Y-13200200D01*
X20857200Y-13251000D01*
X20908000Y-13301800D01*
X20908000Y-13555800D02*
X20958800Y-13505000D01*
X20908000Y-13454200D01*
X20857200Y-13505000D01*
X20908000Y-13555800D01*
X21162000Y-13301800D02*
X21212800Y-13251000D01*
X21162000Y-13200200D01*
X21111200Y-13251000D01*
X21162000Y-13301800D01*
X21162000Y-13555800D02*
X21212800Y-13505000D01*
X21162000Y-13454200D01*
X21111200Y-13505000D01*
X21162000Y-13555800D01*
X21416000Y-5783400D02*
X21466800Y-5732600D01*
X21416000Y-5681800D01*
X21365200Y-5732600D01*
X21416000Y-5783400D01*
X21416000Y-6037400D02*
X21466800Y-5986600D01*
X21416000Y-5935800D01*
X21365200Y-5986600D01*
X21416000Y-6037400D01*
X21416000Y-6291400D02*
X21466800Y-6240600D01*
X21416000Y-6189800D01*
X21365200Y-6240600D01*
X21416000Y-6291400D01*
X21416000Y-6545400D02*
X21466800Y-6494600D01*
X21416000Y-6443800D01*
X21365200Y-6494600D01*
X21416000Y-6545400D01*
X21416000Y-6799400D02*
X21466800Y-6748600D01*
X21416000Y-6697800D01*
X21365200Y-6748600D01*
X21416000Y-6799400D01*
X21416000Y-7053400D02*
X21466800Y-7002600D01*
X21416000Y-6951800D01*
X21365200Y-7002600D01*
X21416000Y-7053400D01*
X21416000Y-7307400D02*
X21466800Y-7256600D01*
X21416000Y-7205800D01*
X21365200Y-7256600D01*
X21416000Y-7307400D01*
X21416000Y-7561400D02*
X21466800Y-7510600D01*
X21416000Y-7459800D01*
X21365200Y-7510600D01*
X21416000Y-7561400D01*
X21416000Y-7815400D02*
X21466800Y-7764600D01*
X21416000Y-7713800D01*
X21365200Y-7764600D01*
X21416000Y-7815400D01*
X21416000Y-8069400D02*
X21466800Y-8018600D01*
X21416000Y-7967800D01*
X21365200Y-8018600D01*
X21416000Y-8069400D01*
X21416000Y-8475800D02*
X21466800Y-8425000D01*
X21416000Y-8374200D01*
X21365200Y-8425000D01*
X21416000Y-8475800D01*
X21416000Y-8729800D02*
X21466800Y-8679000D01*
X21416000Y-8628200D01*
X21365200Y-8679000D01*
X21416000Y-8729800D01*
X21416000Y-8983800D02*
X21466800Y-8933000D01*
X21416000Y-8882200D01*
X21365200Y-8933000D01*
X21416000Y-8983800D01*
X21416000Y-9237800D02*
X21466800Y-9187000D01*
X21416000Y-9136200D01*
X21365200Y-9187000D01*
X21416000Y-9237800D01*
X21416000Y-9491800D02*
X21466800Y-9441000D01*
X21416000Y-9390200D01*
X21365200Y-9441000D01*
X21416000Y-9491800D01*
X21416000Y-9745800D02*
X21466800Y-9695000D01*
X21416000Y-9644200D01*
X21365200Y-9695000D01*
X21416000Y-9745800D01*
X21416000Y-9999800D02*
X21466800Y-9949000D01*
X21416000Y-9898200D01*
X21365200Y-9949000D01*
X21416000Y-9999800D01*
X21416000Y-10253800D02*
X21466800Y-10203000D01*
X21416000Y-10152200D01*
X21365200Y-10203000D01*
X21416000Y-10253800D01*
X21416000Y-10761800D02*
X21466800Y-10711000D01*
X21416000Y-10660200D01*
X21365200Y-10711000D01*
X21416000Y-10761800D01*
X21416000Y-11015800D02*
X21466800Y-10965000D01*
X21416000Y-10914200D01*
X21365200Y-10965000D01*
X21416000Y-11015800D01*
X21416000Y-11269800D02*
X21466800Y-11219000D01*
X21416000Y-11168200D01*
X21365200Y-11219000D01*
X21416000Y-11269800D01*
X21416000Y-11523800D02*
X21466800Y-11473000D01*
X21416000Y-11422200D01*
X21365200Y-11473000D01*
X21416000Y-11523800D01*
X21416000Y-11777800D02*
X21466800Y-11727000D01*
X21416000Y-11676200D01*
X21365200Y-11727000D01*
X21416000Y-11777800D01*
X21416000Y-12031800D02*
X21466800Y-11981000D01*
X21416000Y-11930200D01*
X21365200Y-11981000D01*
X21416000Y-12031800D01*
X21416000Y-12285800D02*
X21466800Y-12235000D01*
X21416000Y-12184200D01*
X21365200Y-12235000D01*
X21416000Y-12285800D01*
X21416000Y-12539800D02*
X21466800Y-12489000D01*
X21416000Y-12438200D01*
X21365200Y-12489000D01*
X21416000Y-12539800D01*
X21416000Y-13301800D02*
X21466800Y-13251000D01*
X21416000Y-13200200D01*
X21365200Y-13251000D01*
X21416000Y-13301800D01*
X21416000Y-13555800D02*
X21466800Y-13505000D01*
X21416000Y-13454200D01*
X21365200Y-13505000D01*
X21416000Y-13555800D01*
D14*
X18195000Y-4195000D02*
X18305000Y-4305000D01*
X18305000Y-4195000D02*
X18195000Y-4305000D01*
X18305000Y-4250000D02*
G75*
G02*
X18195000Y-4250000I-55000J0D01*
G01*
X18195000Y-4250000D02*
G75*
G02*
X18305000Y-4250000I55000J0D01*
G01*
X18195000Y-4845000D02*
X18305000Y-4955000D01*
X18305000Y-4845000D02*
X18195000Y-4955000D01*
X18305000Y-4900000D02*
G75*
G02*
X18195000Y-4900000I-55000J0D01*
G01*
X18195000Y-4900000D02*
G75*
G02*
X18305000Y-4900000I55000J0D01*
G01*
X18645000Y-4195000D02*
X18755000Y-4305000D01*
X18755000Y-4195000D02*
X18645000Y-4305000D01*
X18755000Y-4250000D02*
G75*
G02*
X18645000Y-4250000I-55000J0D01*
G01*
X18645000Y-4250000D02*
G75*
G02*
X18755000Y-4250000I55000J0D01*
G01*
X18645000Y-4845000D02*
X18755000Y-4955000D01*
X18755000Y-4845000D02*
X18645000Y-4955000D01*
X18755000Y-4900000D02*
G75*
G02*
X18645000Y-4900000I-55000J0D01*
G01*
X18645000Y-4900000D02*
G75*
G02*
X18755000Y-4900000I55000J0D01*
G01*
D15*
X17040000Y-4640000D02*
X17160000Y-4760000D01*
X17160000Y-4640000D02*
X17040000Y-4760000D01*
X17100000Y-4640000D02*
X17100000Y-4760000D01*
X17040000Y-4700000D02*
X17160000Y-4700000D01*
X17040000Y-5140000D02*
X17160000Y-5260000D01*
X17160000Y-5140000D02*
X17040000Y-5260000D01*
X17100000Y-5140000D02*
X17100000Y-5260000D01*
X17040000Y-5200000D02*
X17160000Y-5200000D01*
X17040000Y-5640000D02*
X17160000Y-5760000D01*
X17160000Y-5640000D02*
X17040000Y-5760000D01*
X17100000Y-5640000D02*
X17100000Y-5760000D01*
X17040000Y-5700000D02*
X17160000Y-5700000D01*
D16*
X16430000Y-5090000D02*
X16750000Y-5410000D01*
X16750000Y-5090000D02*
X16430000Y-5410000D01*
X16703138Y-5363138D02*
X16703138Y-5136862D01*
X16476862Y-5136862D01*
X16476862Y-5363138D01*
X16703138Y-5363138D01*
X16430000Y-13345000D02*
X16750000Y-13665000D01*
X16750000Y-13345000D02*
X16430000Y-13665000D01*
X16703138Y-13618138D02*
X16703138Y-13391862D01*
X16476862Y-13391862D01*
X16476862Y-13618138D01*
X16703138Y-13618138D01*
X16938000Y-10297000D02*
X17258000Y-10617000D01*
X17258000Y-10297000D02*
X16938000Y-10617000D01*
X17211138Y-10570138D02*
X17211138Y-10343862D01*
X16984862Y-10343862D01*
X16984862Y-10570138D01*
X17211138Y-10570138D01*
X19732000Y-10297000D02*
X20052000Y-10617000D01*
X20052000Y-10297000D02*
X19732000Y-10617000D01*
X20005138Y-10570138D02*
X20005138Y-10343862D01*
X19778862Y-10343862D01*
X19778862Y-10570138D01*
X20005138Y-10570138D01*
X21256000Y-5217000D02*
X21576000Y-5537000D01*
X21576000Y-5217000D02*
X21256000Y-5537000D01*
X21529138Y-5490138D02*
X21529138Y-5263862D01*
X21302862Y-5263862D01*
X21302862Y-5490138D01*
X21529138Y-5490138D01*
X21256000Y-12710000D02*
X21576000Y-13030000D01*
X21576000Y-12710000D02*
X21256000Y-13030000D01*
X21529138Y-12983138D02*
X21529138Y-12756862D01*
X21302862Y-12756862D01*
X21302862Y-12983138D01*
X21529138Y-12983138D01*
D11*
X16598277Y-14003984D02*
X16598277Y-13803984D01*
X16598277Y-13803984D02*
X16645896Y-13803984D01*
X16645896Y-13803984D02*
X16674467Y-13813508D01*
X16674467Y-13813508D02*
X16693515Y-13832555D01*
X16693515Y-13832555D02*
X16703039Y-13851603D01*
X16703039Y-13851603D02*
X16712562Y-13889698D01*
X16712562Y-13889698D02*
X16712562Y-13918269D01*
X16712562Y-13918269D02*
X16703039Y-13956365D01*
X16703039Y-13956365D02*
X16693515Y-13975412D01*
X16693515Y-13975412D02*
X16674467Y-13994460D01*
X16674467Y-13994460D02*
X16645896Y-14003984D01*
X16645896Y-14003984D02*
X16598277Y-14003984D01*
X16798277Y-14003984D02*
X16798277Y-13870650D01*
X16798277Y-13908746D02*
X16807801Y-13889698D01*
X16807801Y-13889698D02*
X16817324Y-13880174D01*
X16817324Y-13880174D02*
X16836372Y-13870650D01*
X16836372Y-13870650D02*
X16855420Y-13870650D01*
X16922086Y-14003984D02*
X16922086Y-13870650D01*
X16922086Y-13803984D02*
X16912563Y-13813508D01*
X16912563Y-13813508D02*
X16922086Y-13823031D01*
X16922086Y-13823031D02*
X16931610Y-13813508D01*
X16931610Y-13813508D02*
X16922086Y-13803984D01*
X16922086Y-13803984D02*
X16922086Y-13823031D01*
X17045896Y-14003984D02*
X17026848Y-13994460D01*
X17026848Y-13994460D02*
X17017324Y-13975412D01*
X17017324Y-13975412D02*
X17017324Y-13803984D01*
X17150658Y-14003984D02*
X17131610Y-13994460D01*
X17131610Y-13994460D02*
X17122086Y-13975412D01*
X17122086Y-13975412D02*
X17122086Y-13803984D01*
X17379229Y-14003984D02*
X17379229Y-13803984D01*
X17379229Y-13803984D02*
X17445896Y-13946841D01*
X17445896Y-13946841D02*
X17512563Y-13803984D01*
X17512563Y-13803984D02*
X17512563Y-14003984D01*
X17693515Y-14003984D02*
X17693515Y-13899222D01*
X17693515Y-13899222D02*
X17683991Y-13880174D01*
X17683991Y-13880174D02*
X17664944Y-13870650D01*
X17664944Y-13870650D02*
X17626848Y-13870650D01*
X17626848Y-13870650D02*
X17607801Y-13880174D01*
X17693515Y-13994460D02*
X17674467Y-14003984D01*
X17674467Y-14003984D02*
X17626848Y-14003984D01*
X17626848Y-14003984D02*
X17607801Y-13994460D01*
X17607801Y-13994460D02*
X17598277Y-13975412D01*
X17598277Y-13975412D02*
X17598277Y-13956365D01*
X17598277Y-13956365D02*
X17607801Y-13937317D01*
X17607801Y-13937317D02*
X17626848Y-13927793D01*
X17626848Y-13927793D02*
X17674467Y-13927793D01*
X17674467Y-13927793D02*
X17693515Y-13918269D01*
X17788753Y-13870650D02*
X17788753Y-14070650D01*
X17788753Y-13880174D02*
X17807801Y-13870650D01*
X17807801Y-13870650D02*
X17845896Y-13870650D01*
X17845896Y-13870650D02*
X17864944Y-13880174D01*
X17864944Y-13880174D02*
X17874467Y-13889698D01*
X17874467Y-13889698D02*
X17883991Y-13908746D01*
X17883991Y-13908746D02*
X17883991Y-13965888D01*
X17883991Y-13965888D02*
X17874467Y-13984936D01*
X17874467Y-13984936D02*
X17864944Y-13994460D01*
X17864944Y-13994460D02*
X17845896Y-14003984D01*
X17845896Y-14003984D02*
X17807801Y-14003984D01*
X17807801Y-14003984D02*
X17788753Y-13994460D01*
X17969705Y-13984936D02*
X17979229Y-13994460D01*
X17979229Y-13994460D02*
X17969705Y-14003984D01*
X17969705Y-14003984D02*
X17960182Y-13994460D01*
X17960182Y-13994460D02*
X17969705Y-13984936D01*
X17969705Y-13984936D02*
X17969705Y-14003984D01*
X17969705Y-13880174D02*
X17979229Y-13889698D01*
X17979229Y-13889698D02*
X17969705Y-13899222D01*
X17969705Y-13899222D02*
X17960182Y-13889698D01*
X17960182Y-13889698D02*
X17969705Y-13880174D01*
X17969705Y-13880174D02*
X17969705Y-13899222D01*
D12*
X16262500Y-14295000D02*
X16337500Y-14370000D01*
X16337500Y-14295000D02*
X16262500Y-14370000D01*
D11*
X16636372Y-14223984D02*
X16655420Y-14223984D01*
X16655420Y-14223984D02*
X16674467Y-14233508D01*
X16674467Y-14233508D02*
X16683991Y-14243031D01*
X16683991Y-14243031D02*
X16693515Y-14262079D01*
X16693515Y-14262079D02*
X16703039Y-14300174D01*
X16703039Y-14300174D02*
X16703039Y-14347793D01*
X16703039Y-14347793D02*
X16693515Y-14385888D01*
X16693515Y-14385888D02*
X16683991Y-14404936D01*
X16683991Y-14404936D02*
X16674467Y-14414460D01*
X16674467Y-14414460D02*
X16655420Y-14423984D01*
X16655420Y-14423984D02*
X16636372Y-14423984D01*
X16636372Y-14423984D02*
X16617324Y-14414460D01*
X16617324Y-14414460D02*
X16607801Y-14404936D01*
X16607801Y-14404936D02*
X16598277Y-14385888D01*
X16598277Y-14385888D02*
X16588753Y-14347793D01*
X16588753Y-14347793D02*
X16588753Y-14300174D01*
X16588753Y-14300174D02*
X16598277Y-14262079D01*
X16598277Y-14262079D02*
X16607801Y-14243031D01*
X16607801Y-14243031D02*
X16617324Y-14233508D01*
X16617324Y-14233508D02*
X16636372Y-14223984D01*
X16788753Y-14404936D02*
X16798277Y-14414460D01*
X16798277Y-14414460D02*
X16788753Y-14423984D01*
X16788753Y-14423984D02*
X16779229Y-14414460D01*
X16779229Y-14414460D02*
X16788753Y-14404936D01*
X16788753Y-14404936D02*
X16788753Y-14423984D01*
X16864944Y-14223984D02*
X16998277Y-14223984D01*
X16998277Y-14223984D02*
X16912563Y-14423984D01*
X17169705Y-14223984D02*
X17074467Y-14223984D01*
X17074467Y-14223984D02*
X17064944Y-14319222D01*
X17064944Y-14319222D02*
X17074467Y-14309698D01*
X17074467Y-14309698D02*
X17093515Y-14300174D01*
X17093515Y-14300174D02*
X17141134Y-14300174D01*
X17141134Y-14300174D02*
X17160182Y-14309698D01*
X17160182Y-14309698D02*
X17169705Y-14319222D01*
X17169705Y-14319222D02*
X17179229Y-14338269D01*
X17179229Y-14338269D02*
X17179229Y-14385888D01*
X17179229Y-14385888D02*
X17169705Y-14404936D01*
X17169705Y-14404936D02*
X17160182Y-14414460D01*
X17160182Y-14414460D02*
X17141134Y-14423984D01*
X17141134Y-14423984D02*
X17093515Y-14423984D01*
X17093515Y-14423984D02*
X17074467Y-14414460D01*
X17074467Y-14414460D02*
X17064944Y-14404936D01*
X17303039Y-14223984D02*
X17322086Y-14223984D01*
X17322086Y-14223984D02*
X17341134Y-14233508D01*
X17341134Y-14233508D02*
X17350658Y-14243031D01*
X17350658Y-14243031D02*
X17360182Y-14262079D01*
X17360182Y-14262079D02*
X17369705Y-14300174D01*
X17369705Y-14300174D02*
X17369705Y-14347793D01*
X17369705Y-14347793D02*
X17360182Y-14385888D01*
X17360182Y-14385888D02*
X17350658Y-14404936D01*
X17350658Y-14404936D02*
X17341134Y-14414460D01*
X17341134Y-14414460D02*
X17322086Y-14423984D01*
X17322086Y-14423984D02*
X17303039Y-14423984D01*
X17303039Y-14423984D02*
X17283991Y-14414460D01*
X17283991Y-14414460D02*
X17274467Y-14404936D01*
X17274467Y-14404936D02*
X17264944Y-14385888D01*
X17264944Y-14385888D02*
X17255420Y-14347793D01*
X17255420Y-14347793D02*
X17255420Y-14300174D01*
X17255420Y-14300174D02*
X17264944Y-14262079D01*
X17264944Y-14262079D02*
X17274467Y-14243031D01*
X17274467Y-14243031D02*
X17283991Y-14233508D01*
X17283991Y-14233508D02*
X17303039Y-14223984D01*
X17455420Y-14423984D02*
X17455420Y-14290650D01*
X17455420Y-14309698D02*
X17464944Y-14300174D01*
X17464944Y-14300174D02*
X17483991Y-14290650D01*
X17483991Y-14290650D02*
X17512563Y-14290650D01*
X17512563Y-14290650D02*
X17531610Y-14300174D01*
X17531610Y-14300174D02*
X17541134Y-14319222D01*
X17541134Y-14319222D02*
X17541134Y-14423984D01*
X17541134Y-14319222D02*
X17550658Y-14300174D01*
X17550658Y-14300174D02*
X17569705Y-14290650D01*
X17569705Y-14290650D02*
X17598277Y-14290650D01*
X17598277Y-14290650D02*
X17617325Y-14300174D01*
X17617325Y-14300174D02*
X17626848Y-14319222D01*
X17626848Y-14319222D02*
X17626848Y-14423984D01*
X17722086Y-14423984D02*
X17722086Y-14290650D01*
X17722086Y-14309698D02*
X17731610Y-14300174D01*
X17731610Y-14300174D02*
X17750658Y-14290650D01*
X17750658Y-14290650D02*
X17779229Y-14290650D01*
X17779229Y-14290650D02*
X17798277Y-14300174D01*
X17798277Y-14300174D02*
X17807801Y-14319222D01*
X17807801Y-14319222D02*
X17807801Y-14423984D01*
X17807801Y-14319222D02*
X17817325Y-14300174D01*
X17817325Y-14300174D02*
X17836372Y-14290650D01*
X17836372Y-14290650D02*
X17864944Y-14290650D01*
X17864944Y-14290650D02*
X17883991Y-14300174D01*
X17883991Y-14300174D02*
X17893515Y-14319222D01*
X17893515Y-14319222D02*
X17893515Y-14423984D01*
X18283991Y-14214460D02*
X18112563Y-14471603D01*
X18541134Y-14223984D02*
X18560182Y-14223984D01*
X18560182Y-14223984D02*
X18579229Y-14233508D01*
X18579229Y-14233508D02*
X18588753Y-14243031D01*
X18588753Y-14243031D02*
X18598277Y-14262079D01*
X18598277Y-14262079D02*
X18607801Y-14300174D01*
X18607801Y-14300174D02*
X18607801Y-14347793D01*
X18607801Y-14347793D02*
X18598277Y-14385888D01*
X18598277Y-14385888D02*
X18588753Y-14404936D01*
X18588753Y-14404936D02*
X18579229Y-14414460D01*
X18579229Y-14414460D02*
X18560182Y-14423984D01*
X18560182Y-14423984D02*
X18541134Y-14423984D01*
X18541134Y-14423984D02*
X18522087Y-14414460D01*
X18522087Y-14414460D02*
X18512563Y-14404936D01*
X18512563Y-14404936D02*
X18503039Y-14385888D01*
X18503039Y-14385888D02*
X18493515Y-14347793D01*
X18493515Y-14347793D02*
X18493515Y-14300174D01*
X18493515Y-14300174D02*
X18503039Y-14262079D01*
X18503039Y-14262079D02*
X18512563Y-14243031D01*
X18512563Y-14243031D02*
X18522087Y-14233508D01*
X18522087Y-14233508D02*
X18541134Y-14223984D01*
X18693515Y-14404936D02*
X18703039Y-14414460D01*
X18703039Y-14414460D02*
X18693515Y-14423984D01*
X18693515Y-14423984D02*
X18683991Y-14414460D01*
X18683991Y-14414460D02*
X18693515Y-14404936D01*
X18693515Y-14404936D02*
X18693515Y-14423984D01*
X18826848Y-14223984D02*
X18845896Y-14223984D01*
X18845896Y-14223984D02*
X18864944Y-14233508D01*
X18864944Y-14233508D02*
X18874468Y-14243031D01*
X18874468Y-14243031D02*
X18883991Y-14262079D01*
X18883991Y-14262079D02*
X18893515Y-14300174D01*
X18893515Y-14300174D02*
X18893515Y-14347793D01*
X18893515Y-14347793D02*
X18883991Y-14385888D01*
X18883991Y-14385888D02*
X18874468Y-14404936D01*
X18874468Y-14404936D02*
X18864944Y-14414460D01*
X18864944Y-14414460D02*
X18845896Y-14423984D01*
X18845896Y-14423984D02*
X18826848Y-14423984D01*
X18826848Y-14423984D02*
X18807801Y-14414460D01*
X18807801Y-14414460D02*
X18798277Y-14404936D01*
X18798277Y-14404936D02*
X18788753Y-14385888D01*
X18788753Y-14385888D02*
X18779229Y-14347793D01*
X18779229Y-14347793D02*
X18779229Y-14300174D01*
X18779229Y-14300174D02*
X18788753Y-14262079D01*
X18788753Y-14262079D02*
X18798277Y-14243031D01*
X18798277Y-14243031D02*
X18807801Y-14233508D01*
X18807801Y-14233508D02*
X18826848Y-14223984D01*
X18969706Y-14243031D02*
X18979229Y-14233508D01*
X18979229Y-14233508D02*
X18998277Y-14223984D01*
X18998277Y-14223984D02*
X19045896Y-14223984D01*
X19045896Y-14223984D02*
X19064944Y-14233508D01*
X19064944Y-14233508D02*
X19074468Y-14243031D01*
X19074468Y-14243031D02*
X19083991Y-14262079D01*
X19083991Y-14262079D02*
X19083991Y-14281127D01*
X19083991Y-14281127D02*
X19074468Y-14309698D01*
X19074468Y-14309698D02*
X18960182Y-14423984D01*
X18960182Y-14423984D02*
X19083991Y-14423984D01*
X19179229Y-14423984D02*
X19217325Y-14423984D01*
X19217325Y-14423984D02*
X19236372Y-14414460D01*
X19236372Y-14414460D02*
X19245896Y-14404936D01*
X19245896Y-14404936D02*
X19264944Y-14376365D01*
X19264944Y-14376365D02*
X19274468Y-14338269D01*
X19274468Y-14338269D02*
X19274468Y-14262079D01*
X19274468Y-14262079D02*
X19264944Y-14243031D01*
X19264944Y-14243031D02*
X19255420Y-14233508D01*
X19255420Y-14233508D02*
X19236372Y-14223984D01*
X19236372Y-14223984D02*
X19198277Y-14223984D01*
X19198277Y-14223984D02*
X19179229Y-14233508D01*
X19179229Y-14233508D02*
X19169706Y-14243031D01*
X19169706Y-14243031D02*
X19160182Y-14262079D01*
X19160182Y-14262079D02*
X19160182Y-14309698D01*
X19160182Y-14309698D02*
X19169706Y-14328746D01*
X19169706Y-14328746D02*
X19179229Y-14338269D01*
X19179229Y-14338269D02*
X19198277Y-14347793D01*
X19198277Y-14347793D02*
X19236372Y-14347793D01*
X19236372Y-14347793D02*
X19255420Y-14338269D01*
X19255420Y-14338269D02*
X19264944Y-14328746D01*
X19264944Y-14328746D02*
X19274468Y-14309698D01*
X19455420Y-14223984D02*
X19360182Y-14223984D01*
X19360182Y-14223984D02*
X19350658Y-14319222D01*
X19350658Y-14319222D02*
X19360182Y-14309698D01*
X19360182Y-14309698D02*
X19379229Y-14300174D01*
X19379229Y-14300174D02*
X19426849Y-14300174D01*
X19426849Y-14300174D02*
X19445896Y-14309698D01*
X19445896Y-14309698D02*
X19455420Y-14319222D01*
X19455420Y-14319222D02*
X19464944Y-14338269D01*
X19464944Y-14338269D02*
X19464944Y-14385888D01*
X19464944Y-14385888D02*
X19455420Y-14404936D01*
X19455420Y-14404936D02*
X19445896Y-14414460D01*
X19445896Y-14414460D02*
X19426849Y-14423984D01*
X19426849Y-14423984D02*
X19379229Y-14423984D01*
X19379229Y-14423984D02*
X19360182Y-14414460D01*
X19360182Y-14414460D02*
X19350658Y-14404936D01*
X19541134Y-14223984D02*
X19541134Y-14262079D01*
X19617325Y-14223984D02*
X19617325Y-14262079D01*
X19912563Y-14500174D02*
X19903039Y-14490650D01*
X19903039Y-14490650D02*
X19883991Y-14462079D01*
X19883991Y-14462079D02*
X19874468Y-14443031D01*
X19874468Y-14443031D02*
X19864944Y-14414460D01*
X19864944Y-14414460D02*
X19855420Y-14366841D01*
X19855420Y-14366841D02*
X19855420Y-14328746D01*
X19855420Y-14328746D02*
X19864944Y-14281127D01*
X19864944Y-14281127D02*
X19874468Y-14252555D01*
X19874468Y-14252555D02*
X19883991Y-14233508D01*
X19883991Y-14233508D02*
X19903039Y-14204936D01*
X19903039Y-14204936D02*
X19912563Y-14195412D01*
X19969706Y-14223984D02*
X20093515Y-14223984D01*
X20093515Y-14223984D02*
X20026849Y-14300174D01*
X20026849Y-14300174D02*
X20055420Y-14300174D01*
X20055420Y-14300174D02*
X20074468Y-14309698D01*
X20074468Y-14309698D02*
X20083991Y-14319222D01*
X20083991Y-14319222D02*
X20093515Y-14338269D01*
X20093515Y-14338269D02*
X20093515Y-14385888D01*
X20093515Y-14385888D02*
X20083991Y-14404936D01*
X20083991Y-14404936D02*
X20074468Y-14414460D01*
X20074468Y-14414460D02*
X20055420Y-14423984D01*
X20055420Y-14423984D02*
X19998277Y-14423984D01*
X19998277Y-14423984D02*
X19979230Y-14414460D01*
X19979230Y-14414460D02*
X19969706Y-14404936D01*
X20331611Y-14423984D02*
X20331611Y-14223984D01*
X20417325Y-14423984D02*
X20417325Y-14319222D01*
X20417325Y-14319222D02*
X20407801Y-14300174D01*
X20407801Y-14300174D02*
X20388753Y-14290650D01*
X20388753Y-14290650D02*
X20360182Y-14290650D01*
X20360182Y-14290650D02*
X20341134Y-14300174D01*
X20341134Y-14300174D02*
X20331611Y-14309698D01*
X20541134Y-14423984D02*
X20522087Y-14414460D01*
X20522087Y-14414460D02*
X20512563Y-14404936D01*
X20512563Y-14404936D02*
X20503039Y-14385888D01*
X20503039Y-14385888D02*
X20503039Y-14328746D01*
X20503039Y-14328746D02*
X20512563Y-14309698D01*
X20512563Y-14309698D02*
X20522087Y-14300174D01*
X20522087Y-14300174D02*
X20541134Y-14290650D01*
X20541134Y-14290650D02*
X20569706Y-14290650D01*
X20569706Y-14290650D02*
X20588753Y-14300174D01*
X20588753Y-14300174D02*
X20598277Y-14309698D01*
X20598277Y-14309698D02*
X20607801Y-14328746D01*
X20607801Y-14328746D02*
X20607801Y-14385888D01*
X20607801Y-14385888D02*
X20598277Y-14404936D01*
X20598277Y-14404936D02*
X20588753Y-14414460D01*
X20588753Y-14414460D02*
X20569706Y-14423984D01*
X20569706Y-14423984D02*
X20541134Y-14423984D01*
X20722087Y-14423984D02*
X20703039Y-14414460D01*
X20703039Y-14414460D02*
X20693515Y-14395412D01*
X20693515Y-14395412D02*
X20693515Y-14223984D01*
X20874468Y-14414460D02*
X20855420Y-14423984D01*
X20855420Y-14423984D02*
X20817325Y-14423984D01*
X20817325Y-14423984D02*
X20798277Y-14414460D01*
X20798277Y-14414460D02*
X20788753Y-14395412D01*
X20788753Y-14395412D02*
X20788753Y-14319222D01*
X20788753Y-14319222D02*
X20798277Y-14300174D01*
X20798277Y-14300174D02*
X20817325Y-14290650D01*
X20817325Y-14290650D02*
X20855420Y-14290650D01*
X20855420Y-14290650D02*
X20874468Y-14300174D01*
X20874468Y-14300174D02*
X20883992Y-14319222D01*
X20883992Y-14319222D02*
X20883992Y-14338269D01*
X20883992Y-14338269D02*
X20788753Y-14357317D01*
X20960182Y-14414460D02*
X20979230Y-14423984D01*
X20979230Y-14423984D02*
X21017325Y-14423984D01*
X21017325Y-14423984D02*
X21036373Y-14414460D01*
X21036373Y-14414460D02*
X21045896Y-14395412D01*
X21045896Y-14395412D02*
X21045896Y-14385888D01*
X21045896Y-14385888D02*
X21036373Y-14366841D01*
X21036373Y-14366841D02*
X21017325Y-14357317D01*
X21017325Y-14357317D02*
X20988753Y-14357317D01*
X20988753Y-14357317D02*
X20969706Y-14347793D01*
X20969706Y-14347793D02*
X20960182Y-14328746D01*
X20960182Y-14328746D02*
X20960182Y-14319222D01*
X20960182Y-14319222D02*
X20969706Y-14300174D01*
X20969706Y-14300174D02*
X20988753Y-14290650D01*
X20988753Y-14290650D02*
X21017325Y-14290650D01*
X21017325Y-14290650D02*
X21036373Y-14300174D01*
X21112563Y-14500174D02*
X21122087Y-14490650D01*
X21122087Y-14490650D02*
X21141134Y-14462079D01*
X21141134Y-14462079D02*
X21150658Y-14443031D01*
X21150658Y-14443031D02*
X21160182Y-14414460D01*
X21160182Y-14414460D02*
X21169706Y-14366841D01*
X21169706Y-14366841D02*
X21169706Y-14328746D01*
X21169706Y-14328746D02*
X21160182Y-14281127D01*
X21160182Y-14281127D02*
X21150658Y-14252555D01*
X21150658Y-14252555D02*
X21141134Y-14233508D01*
X21141134Y-14233508D02*
X21122087Y-14204936D01*
X21122087Y-14204936D02*
X21112563Y-14195412D01*
D12*
X16337500Y-14596500D02*
G75*
G02*
X16257500Y-14596500I-40000J0D01*
G01*
X16257500Y-14596500D02*
G75*
G02*
X16337500Y-14596500I40000J0D01*
G01*
D11*
X16636372Y-14487984D02*
X16655420Y-14487984D01*
X16655420Y-14487984D02*
X16674467Y-14497508D01*
X16674467Y-14497508D02*
X16683991Y-14507031D01*
X16683991Y-14507031D02*
X16693515Y-14526079D01*
X16693515Y-14526079D02*
X16703039Y-14564174D01*
X16703039Y-14564174D02*
X16703039Y-14611793D01*
X16703039Y-14611793D02*
X16693515Y-14649888D01*
X16693515Y-14649888D02*
X16683991Y-14668936D01*
X16683991Y-14668936D02*
X16674467Y-14678460D01*
X16674467Y-14678460D02*
X16655420Y-14687984D01*
X16655420Y-14687984D02*
X16636372Y-14687984D01*
X16636372Y-14687984D02*
X16617324Y-14678460D01*
X16617324Y-14678460D02*
X16607801Y-14668936D01*
X16607801Y-14668936D02*
X16598277Y-14649888D01*
X16598277Y-14649888D02*
X16588753Y-14611793D01*
X16588753Y-14611793D02*
X16588753Y-14564174D01*
X16588753Y-14564174D02*
X16598277Y-14526079D01*
X16598277Y-14526079D02*
X16607801Y-14507031D01*
X16607801Y-14507031D02*
X16617324Y-14497508D01*
X16617324Y-14497508D02*
X16636372Y-14487984D01*
X16788753Y-14668936D02*
X16798277Y-14678460D01*
X16798277Y-14678460D02*
X16788753Y-14687984D01*
X16788753Y-14687984D02*
X16779229Y-14678460D01*
X16779229Y-14678460D02*
X16788753Y-14668936D01*
X16788753Y-14668936D02*
X16788753Y-14687984D01*
X16912563Y-14573698D02*
X16893515Y-14564174D01*
X16893515Y-14564174D02*
X16883991Y-14554650D01*
X16883991Y-14554650D02*
X16874467Y-14535603D01*
X16874467Y-14535603D02*
X16874467Y-14526079D01*
X16874467Y-14526079D02*
X16883991Y-14507031D01*
X16883991Y-14507031D02*
X16893515Y-14497508D01*
X16893515Y-14497508D02*
X16912563Y-14487984D01*
X16912563Y-14487984D02*
X16950658Y-14487984D01*
X16950658Y-14487984D02*
X16969705Y-14497508D01*
X16969705Y-14497508D02*
X16979229Y-14507031D01*
X16979229Y-14507031D02*
X16988753Y-14526079D01*
X16988753Y-14526079D02*
X16988753Y-14535603D01*
X16988753Y-14535603D02*
X16979229Y-14554650D01*
X16979229Y-14554650D02*
X16969705Y-14564174D01*
X16969705Y-14564174D02*
X16950658Y-14573698D01*
X16950658Y-14573698D02*
X16912563Y-14573698D01*
X16912563Y-14573698D02*
X16893515Y-14583222D01*
X16893515Y-14583222D02*
X16883991Y-14592746D01*
X16883991Y-14592746D02*
X16874467Y-14611793D01*
X16874467Y-14611793D02*
X16874467Y-14649888D01*
X16874467Y-14649888D02*
X16883991Y-14668936D01*
X16883991Y-14668936D02*
X16893515Y-14678460D01*
X16893515Y-14678460D02*
X16912563Y-14687984D01*
X16912563Y-14687984D02*
X16950658Y-14687984D01*
X16950658Y-14687984D02*
X16969705Y-14678460D01*
X16969705Y-14678460D02*
X16979229Y-14668936D01*
X16979229Y-14668936D02*
X16988753Y-14649888D01*
X16988753Y-14649888D02*
X16988753Y-14611793D01*
X16988753Y-14611793D02*
X16979229Y-14592746D01*
X16979229Y-14592746D02*
X16969705Y-14583222D01*
X16969705Y-14583222D02*
X16950658Y-14573698D01*
X17112563Y-14487984D02*
X17131610Y-14487984D01*
X17131610Y-14487984D02*
X17150658Y-14497508D01*
X17150658Y-14497508D02*
X17160182Y-14507031D01*
X17160182Y-14507031D02*
X17169705Y-14526079D01*
X17169705Y-14526079D02*
X17179229Y-14564174D01*
X17179229Y-14564174D02*
X17179229Y-14611793D01*
X17179229Y-14611793D02*
X17169705Y-14649888D01*
X17169705Y-14649888D02*
X17160182Y-14668936D01*
X17160182Y-14668936D02*
X17150658Y-14678460D01*
X17150658Y-14678460D02*
X17131610Y-14687984D01*
X17131610Y-14687984D02*
X17112563Y-14687984D01*
X17112563Y-14687984D02*
X17093515Y-14678460D01*
X17093515Y-14678460D02*
X17083991Y-14668936D01*
X17083991Y-14668936D02*
X17074467Y-14649888D01*
X17074467Y-14649888D02*
X17064944Y-14611793D01*
X17064944Y-14611793D02*
X17064944Y-14564174D01*
X17064944Y-14564174D02*
X17074467Y-14526079D01*
X17074467Y-14526079D02*
X17083991Y-14507031D01*
X17083991Y-14507031D02*
X17093515Y-14497508D01*
X17093515Y-14497508D02*
X17112563Y-14487984D01*
X17303039Y-14487984D02*
X17322086Y-14487984D01*
X17322086Y-14487984D02*
X17341134Y-14497508D01*
X17341134Y-14497508D02*
X17350658Y-14507031D01*
X17350658Y-14507031D02*
X17360182Y-14526079D01*
X17360182Y-14526079D02*
X17369705Y-14564174D01*
X17369705Y-14564174D02*
X17369705Y-14611793D01*
X17369705Y-14611793D02*
X17360182Y-14649888D01*
X17360182Y-14649888D02*
X17350658Y-14668936D01*
X17350658Y-14668936D02*
X17341134Y-14678460D01*
X17341134Y-14678460D02*
X17322086Y-14687984D01*
X17322086Y-14687984D02*
X17303039Y-14687984D01*
X17303039Y-14687984D02*
X17283991Y-14678460D01*
X17283991Y-14678460D02*
X17274467Y-14668936D01*
X17274467Y-14668936D02*
X17264944Y-14649888D01*
X17264944Y-14649888D02*
X17255420Y-14611793D01*
X17255420Y-14611793D02*
X17255420Y-14564174D01*
X17255420Y-14564174D02*
X17264944Y-14526079D01*
X17264944Y-14526079D02*
X17274467Y-14507031D01*
X17274467Y-14507031D02*
X17283991Y-14497508D01*
X17283991Y-14497508D02*
X17303039Y-14487984D01*
X17455420Y-14687984D02*
X17455420Y-14554650D01*
X17455420Y-14573698D02*
X17464944Y-14564174D01*
X17464944Y-14564174D02*
X17483991Y-14554650D01*
X17483991Y-14554650D02*
X17512563Y-14554650D01*
X17512563Y-14554650D02*
X17531610Y-14564174D01*
X17531610Y-14564174D02*
X17541134Y-14583222D01*
X17541134Y-14583222D02*
X17541134Y-14687984D01*
X17541134Y-14583222D02*
X17550658Y-14564174D01*
X17550658Y-14564174D02*
X17569705Y-14554650D01*
X17569705Y-14554650D02*
X17598277Y-14554650D01*
X17598277Y-14554650D02*
X17617325Y-14564174D01*
X17617325Y-14564174D02*
X17626848Y-14583222D01*
X17626848Y-14583222D02*
X17626848Y-14687984D01*
X17722086Y-14687984D02*
X17722086Y-14554650D01*
X17722086Y-14573698D02*
X17731610Y-14564174D01*
X17731610Y-14564174D02*
X17750658Y-14554650D01*
X17750658Y-14554650D02*
X17779229Y-14554650D01*
X17779229Y-14554650D02*
X17798277Y-14564174D01*
X17798277Y-14564174D02*
X17807801Y-14583222D01*
X17807801Y-14583222D02*
X17807801Y-14687984D01*
X17807801Y-14583222D02*
X17817325Y-14564174D01*
X17817325Y-14564174D02*
X17836372Y-14554650D01*
X17836372Y-14554650D02*
X17864944Y-14554650D01*
X17864944Y-14554650D02*
X17883991Y-14564174D01*
X17883991Y-14564174D02*
X17893515Y-14583222D01*
X17893515Y-14583222D02*
X17893515Y-14687984D01*
X18283991Y-14478460D02*
X18112563Y-14735603D01*
X18541134Y-14487984D02*
X18560182Y-14487984D01*
X18560182Y-14487984D02*
X18579229Y-14497508D01*
X18579229Y-14497508D02*
X18588753Y-14507031D01*
X18588753Y-14507031D02*
X18598277Y-14526079D01*
X18598277Y-14526079D02*
X18607801Y-14564174D01*
X18607801Y-14564174D02*
X18607801Y-14611793D01*
X18607801Y-14611793D02*
X18598277Y-14649888D01*
X18598277Y-14649888D02*
X18588753Y-14668936D01*
X18588753Y-14668936D02*
X18579229Y-14678460D01*
X18579229Y-14678460D02*
X18560182Y-14687984D01*
X18560182Y-14687984D02*
X18541134Y-14687984D01*
X18541134Y-14687984D02*
X18522087Y-14678460D01*
X18522087Y-14678460D02*
X18512563Y-14668936D01*
X18512563Y-14668936D02*
X18503039Y-14649888D01*
X18503039Y-14649888D02*
X18493515Y-14611793D01*
X18493515Y-14611793D02*
X18493515Y-14564174D01*
X18493515Y-14564174D02*
X18503039Y-14526079D01*
X18503039Y-14526079D02*
X18512563Y-14507031D01*
X18512563Y-14507031D02*
X18522087Y-14497508D01*
X18522087Y-14497508D02*
X18541134Y-14487984D01*
X18693515Y-14668936D02*
X18703039Y-14678460D01*
X18703039Y-14678460D02*
X18693515Y-14687984D01*
X18693515Y-14687984D02*
X18683991Y-14678460D01*
X18683991Y-14678460D02*
X18693515Y-14668936D01*
X18693515Y-14668936D02*
X18693515Y-14687984D01*
X18826848Y-14487984D02*
X18845896Y-14487984D01*
X18845896Y-14487984D02*
X18864944Y-14497508D01*
X18864944Y-14497508D02*
X18874468Y-14507031D01*
X18874468Y-14507031D02*
X18883991Y-14526079D01*
X18883991Y-14526079D02*
X18893515Y-14564174D01*
X18893515Y-14564174D02*
X18893515Y-14611793D01*
X18893515Y-14611793D02*
X18883991Y-14649888D01*
X18883991Y-14649888D02*
X18874468Y-14668936D01*
X18874468Y-14668936D02*
X18864944Y-14678460D01*
X18864944Y-14678460D02*
X18845896Y-14687984D01*
X18845896Y-14687984D02*
X18826848Y-14687984D01*
X18826848Y-14687984D02*
X18807801Y-14678460D01*
X18807801Y-14678460D02*
X18798277Y-14668936D01*
X18798277Y-14668936D02*
X18788753Y-14649888D01*
X18788753Y-14649888D02*
X18779229Y-14611793D01*
X18779229Y-14611793D02*
X18779229Y-14564174D01*
X18779229Y-14564174D02*
X18788753Y-14526079D01*
X18788753Y-14526079D02*
X18798277Y-14507031D01*
X18798277Y-14507031D02*
X18807801Y-14497508D01*
X18807801Y-14497508D02*
X18826848Y-14487984D01*
X18960182Y-14487984D02*
X19083991Y-14487984D01*
X19083991Y-14487984D02*
X19017325Y-14564174D01*
X19017325Y-14564174D02*
X19045896Y-14564174D01*
X19045896Y-14564174D02*
X19064944Y-14573698D01*
X19064944Y-14573698D02*
X19074468Y-14583222D01*
X19074468Y-14583222D02*
X19083991Y-14602269D01*
X19083991Y-14602269D02*
X19083991Y-14649888D01*
X19083991Y-14649888D02*
X19074468Y-14668936D01*
X19074468Y-14668936D02*
X19064944Y-14678460D01*
X19064944Y-14678460D02*
X19045896Y-14687984D01*
X19045896Y-14687984D02*
X18988753Y-14687984D01*
X18988753Y-14687984D02*
X18969706Y-14678460D01*
X18969706Y-14678460D02*
X18960182Y-14668936D01*
X19274468Y-14687984D02*
X19160182Y-14687984D01*
X19217325Y-14687984D02*
X19217325Y-14487984D01*
X19217325Y-14487984D02*
X19198277Y-14516555D01*
X19198277Y-14516555D02*
X19179229Y-14535603D01*
X19179229Y-14535603D02*
X19160182Y-14545127D01*
X19455420Y-14487984D02*
X19360182Y-14487984D01*
X19360182Y-14487984D02*
X19350658Y-14583222D01*
X19350658Y-14583222D02*
X19360182Y-14573698D01*
X19360182Y-14573698D02*
X19379229Y-14564174D01*
X19379229Y-14564174D02*
X19426849Y-14564174D01*
X19426849Y-14564174D02*
X19445896Y-14573698D01*
X19445896Y-14573698D02*
X19455420Y-14583222D01*
X19455420Y-14583222D02*
X19464944Y-14602269D01*
X19464944Y-14602269D02*
X19464944Y-14649888D01*
X19464944Y-14649888D02*
X19455420Y-14668936D01*
X19455420Y-14668936D02*
X19445896Y-14678460D01*
X19445896Y-14678460D02*
X19426849Y-14687984D01*
X19426849Y-14687984D02*
X19379229Y-14687984D01*
X19379229Y-14687984D02*
X19360182Y-14678460D01*
X19360182Y-14678460D02*
X19350658Y-14668936D01*
X19541134Y-14487984D02*
X19541134Y-14526079D01*
X19617325Y-14487984D02*
X19617325Y-14526079D01*
X19912563Y-14764174D02*
X19903039Y-14754650D01*
X19903039Y-14754650D02*
X19883991Y-14726079D01*
X19883991Y-14726079D02*
X19874468Y-14707031D01*
X19874468Y-14707031D02*
X19864944Y-14678460D01*
X19864944Y-14678460D02*
X19855420Y-14630841D01*
X19855420Y-14630841D02*
X19855420Y-14592746D01*
X19855420Y-14592746D02*
X19864944Y-14545127D01*
X19864944Y-14545127D02*
X19874468Y-14516555D01*
X19874468Y-14516555D02*
X19883991Y-14497508D01*
X19883991Y-14497508D02*
X19903039Y-14468936D01*
X19903039Y-14468936D02*
X19912563Y-14459412D01*
X19969706Y-14487984D02*
X20093515Y-14487984D01*
X20093515Y-14487984D02*
X20026849Y-14564174D01*
X20026849Y-14564174D02*
X20055420Y-14564174D01*
X20055420Y-14564174D02*
X20074468Y-14573698D01*
X20074468Y-14573698D02*
X20083991Y-14583222D01*
X20083991Y-14583222D02*
X20093515Y-14602269D01*
X20093515Y-14602269D02*
X20093515Y-14649888D01*
X20093515Y-14649888D02*
X20083991Y-14668936D01*
X20083991Y-14668936D02*
X20074468Y-14678460D01*
X20074468Y-14678460D02*
X20055420Y-14687984D01*
X20055420Y-14687984D02*
X19998277Y-14687984D01*
X19998277Y-14687984D02*
X19979230Y-14678460D01*
X19979230Y-14678460D02*
X19969706Y-14668936D01*
X20217325Y-14487984D02*
X20236372Y-14487984D01*
X20236372Y-14487984D02*
X20255420Y-14497508D01*
X20255420Y-14497508D02*
X20264944Y-14507031D01*
X20264944Y-14507031D02*
X20274468Y-14526079D01*
X20274468Y-14526079D02*
X20283991Y-14564174D01*
X20283991Y-14564174D02*
X20283991Y-14611793D01*
X20283991Y-14611793D02*
X20274468Y-14649888D01*
X20274468Y-14649888D02*
X20264944Y-14668936D01*
X20264944Y-14668936D02*
X20255420Y-14678460D01*
X20255420Y-14678460D02*
X20236372Y-14687984D01*
X20236372Y-14687984D02*
X20217325Y-14687984D01*
X20217325Y-14687984D02*
X20198277Y-14678460D01*
X20198277Y-14678460D02*
X20188753Y-14668936D01*
X20188753Y-14668936D02*
X20179230Y-14649888D01*
X20179230Y-14649888D02*
X20169706Y-14611793D01*
X20169706Y-14611793D02*
X20169706Y-14564174D01*
X20169706Y-14564174D02*
X20179230Y-14526079D01*
X20179230Y-14526079D02*
X20188753Y-14507031D01*
X20188753Y-14507031D02*
X20198277Y-14497508D01*
X20198277Y-14497508D02*
X20217325Y-14487984D01*
X20522087Y-14687984D02*
X20522087Y-14487984D01*
X20607801Y-14687984D02*
X20607801Y-14583222D01*
X20607801Y-14583222D02*
X20598277Y-14564174D01*
X20598277Y-14564174D02*
X20579230Y-14554650D01*
X20579230Y-14554650D02*
X20550658Y-14554650D01*
X20550658Y-14554650D02*
X20531611Y-14564174D01*
X20531611Y-14564174D02*
X20522087Y-14573698D01*
X20731611Y-14687984D02*
X20712563Y-14678460D01*
X20712563Y-14678460D02*
X20703039Y-14668936D01*
X20703039Y-14668936D02*
X20693515Y-14649888D01*
X20693515Y-14649888D02*
X20693515Y-14592746D01*
X20693515Y-14592746D02*
X20703039Y-14573698D01*
X20703039Y-14573698D02*
X20712563Y-14564174D01*
X20712563Y-14564174D02*
X20731611Y-14554650D01*
X20731611Y-14554650D02*
X20760182Y-14554650D01*
X20760182Y-14554650D02*
X20779230Y-14564174D01*
X20779230Y-14564174D02*
X20788753Y-14573698D01*
X20788753Y-14573698D02*
X20798277Y-14592746D01*
X20798277Y-14592746D02*
X20798277Y-14649888D01*
X20798277Y-14649888D02*
X20788753Y-14668936D01*
X20788753Y-14668936D02*
X20779230Y-14678460D01*
X20779230Y-14678460D02*
X20760182Y-14687984D01*
X20760182Y-14687984D02*
X20731611Y-14687984D01*
X20912563Y-14687984D02*
X20893515Y-14678460D01*
X20893515Y-14678460D02*
X20883992Y-14659412D01*
X20883992Y-14659412D02*
X20883992Y-14487984D01*
X21064944Y-14678460D02*
X21045896Y-14687984D01*
X21045896Y-14687984D02*
X21007801Y-14687984D01*
X21007801Y-14687984D02*
X20988753Y-14678460D01*
X20988753Y-14678460D02*
X20979230Y-14659412D01*
X20979230Y-14659412D02*
X20979230Y-14583222D01*
X20979230Y-14583222D02*
X20988753Y-14564174D01*
X20988753Y-14564174D02*
X21007801Y-14554650D01*
X21007801Y-14554650D02*
X21045896Y-14554650D01*
X21045896Y-14554650D02*
X21064944Y-14564174D01*
X21064944Y-14564174D02*
X21074468Y-14583222D01*
X21074468Y-14583222D02*
X21074468Y-14602269D01*
X21074468Y-14602269D02*
X20979230Y-14621317D01*
X21150658Y-14678460D02*
X21169706Y-14687984D01*
X21169706Y-14687984D02*
X21207801Y-14687984D01*
X21207801Y-14687984D02*
X21226849Y-14678460D01*
X21226849Y-14678460D02*
X21236373Y-14659412D01*
X21236373Y-14659412D02*
X21236373Y-14649888D01*
X21236373Y-14649888D02*
X21226849Y-14630841D01*
X21226849Y-14630841D02*
X21207801Y-14621317D01*
X21207801Y-14621317D02*
X21179230Y-14621317D01*
X21179230Y-14621317D02*
X21160182Y-14611793D01*
X21160182Y-14611793D02*
X21150658Y-14592746D01*
X21150658Y-14592746D02*
X21150658Y-14583222D01*
X21150658Y-14583222D02*
X21160182Y-14564174D01*
X21160182Y-14564174D02*
X21179230Y-14554650D01*
X21179230Y-14554650D02*
X21207801Y-14554650D01*
X21207801Y-14554650D02*
X21226849Y-14564174D01*
X21303039Y-14764174D02*
X21312563Y-14754650D01*
X21312563Y-14754650D02*
X21331611Y-14726079D01*
X21331611Y-14726079D02*
X21341134Y-14707031D01*
X21341134Y-14707031D02*
X21350658Y-14678460D01*
X21350658Y-14678460D02*
X21360182Y-14630841D01*
X21360182Y-14630841D02*
X21360182Y-14592746D01*
X21360182Y-14592746D02*
X21350658Y-14545127D01*
X21350658Y-14545127D02*
X21341134Y-14516555D01*
X21341134Y-14516555D02*
X21331611Y-14497508D01*
X21331611Y-14497508D02*
X21312563Y-14468936D01*
X21312563Y-14468936D02*
X21303039Y-14459412D01*
D12*
X16292500Y-14815500D02*
X16292500Y-14905500D01*
X16247500Y-14860500D02*
X16337500Y-14860500D01*
D11*
X16636372Y-14751984D02*
X16655420Y-14751984D01*
X16655420Y-14751984D02*
X16674467Y-14761508D01*
X16674467Y-14761508D02*
X16683991Y-14771031D01*
X16683991Y-14771031D02*
X16693515Y-14790079D01*
X16693515Y-14790079D02*
X16703039Y-14828174D01*
X16703039Y-14828174D02*
X16703039Y-14875793D01*
X16703039Y-14875793D02*
X16693515Y-14913888D01*
X16693515Y-14913888D02*
X16683991Y-14932936D01*
X16683991Y-14932936D02*
X16674467Y-14942460D01*
X16674467Y-14942460D02*
X16655420Y-14951984D01*
X16655420Y-14951984D02*
X16636372Y-14951984D01*
X16636372Y-14951984D02*
X16617324Y-14942460D01*
X16617324Y-14942460D02*
X16607801Y-14932936D01*
X16607801Y-14932936D02*
X16598277Y-14913888D01*
X16598277Y-14913888D02*
X16588753Y-14875793D01*
X16588753Y-14875793D02*
X16588753Y-14828174D01*
X16588753Y-14828174D02*
X16598277Y-14790079D01*
X16598277Y-14790079D02*
X16607801Y-14771031D01*
X16607801Y-14771031D02*
X16617324Y-14761508D01*
X16617324Y-14761508D02*
X16636372Y-14751984D01*
X16788753Y-14932936D02*
X16798277Y-14942460D01*
X16798277Y-14942460D02*
X16788753Y-14951984D01*
X16788753Y-14951984D02*
X16779229Y-14942460D01*
X16779229Y-14942460D02*
X16788753Y-14932936D01*
X16788753Y-14932936D02*
X16788753Y-14951984D01*
X16893515Y-14951984D02*
X16931610Y-14951984D01*
X16931610Y-14951984D02*
X16950658Y-14942460D01*
X16950658Y-14942460D02*
X16960182Y-14932936D01*
X16960182Y-14932936D02*
X16979229Y-14904365D01*
X16979229Y-14904365D02*
X16988753Y-14866269D01*
X16988753Y-14866269D02*
X16988753Y-14790079D01*
X16988753Y-14790079D02*
X16979229Y-14771031D01*
X16979229Y-14771031D02*
X16969705Y-14761508D01*
X16969705Y-14761508D02*
X16950658Y-14751984D01*
X16950658Y-14751984D02*
X16912563Y-14751984D01*
X16912563Y-14751984D02*
X16893515Y-14761508D01*
X16893515Y-14761508D02*
X16883991Y-14771031D01*
X16883991Y-14771031D02*
X16874467Y-14790079D01*
X16874467Y-14790079D02*
X16874467Y-14837698D01*
X16874467Y-14837698D02*
X16883991Y-14856746D01*
X16883991Y-14856746D02*
X16893515Y-14866269D01*
X16893515Y-14866269D02*
X16912563Y-14875793D01*
X16912563Y-14875793D02*
X16950658Y-14875793D01*
X16950658Y-14875793D02*
X16969705Y-14866269D01*
X16969705Y-14866269D02*
X16979229Y-14856746D01*
X16979229Y-14856746D02*
X16988753Y-14837698D01*
X17112563Y-14751984D02*
X17131610Y-14751984D01*
X17131610Y-14751984D02*
X17150658Y-14761508D01*
X17150658Y-14761508D02*
X17160182Y-14771031D01*
X17160182Y-14771031D02*
X17169705Y-14790079D01*
X17169705Y-14790079D02*
X17179229Y-14828174D01*
X17179229Y-14828174D02*
X17179229Y-14875793D01*
X17179229Y-14875793D02*
X17169705Y-14913888D01*
X17169705Y-14913888D02*
X17160182Y-14932936D01*
X17160182Y-14932936D02*
X17150658Y-14942460D01*
X17150658Y-14942460D02*
X17131610Y-14951984D01*
X17131610Y-14951984D02*
X17112563Y-14951984D01*
X17112563Y-14951984D02*
X17093515Y-14942460D01*
X17093515Y-14942460D02*
X17083991Y-14932936D01*
X17083991Y-14932936D02*
X17074467Y-14913888D01*
X17074467Y-14913888D02*
X17064944Y-14875793D01*
X17064944Y-14875793D02*
X17064944Y-14828174D01*
X17064944Y-14828174D02*
X17074467Y-14790079D01*
X17074467Y-14790079D02*
X17083991Y-14771031D01*
X17083991Y-14771031D02*
X17093515Y-14761508D01*
X17093515Y-14761508D02*
X17112563Y-14751984D01*
X17303039Y-14751984D02*
X17322086Y-14751984D01*
X17322086Y-14751984D02*
X17341134Y-14761508D01*
X17341134Y-14761508D02*
X17350658Y-14771031D01*
X17350658Y-14771031D02*
X17360182Y-14790079D01*
X17360182Y-14790079D02*
X17369705Y-14828174D01*
X17369705Y-14828174D02*
X17369705Y-14875793D01*
X17369705Y-14875793D02*
X17360182Y-14913888D01*
X17360182Y-14913888D02*
X17350658Y-14932936D01*
X17350658Y-14932936D02*
X17341134Y-14942460D01*
X17341134Y-14942460D02*
X17322086Y-14951984D01*
X17322086Y-14951984D02*
X17303039Y-14951984D01*
X17303039Y-14951984D02*
X17283991Y-14942460D01*
X17283991Y-14942460D02*
X17274467Y-14932936D01*
X17274467Y-14932936D02*
X17264944Y-14913888D01*
X17264944Y-14913888D02*
X17255420Y-14875793D01*
X17255420Y-14875793D02*
X17255420Y-14828174D01*
X17255420Y-14828174D02*
X17264944Y-14790079D01*
X17264944Y-14790079D02*
X17274467Y-14771031D01*
X17274467Y-14771031D02*
X17283991Y-14761508D01*
X17283991Y-14761508D02*
X17303039Y-14751984D01*
X17455420Y-14951984D02*
X17455420Y-14818650D01*
X17455420Y-14837698D02*
X17464944Y-14828174D01*
X17464944Y-14828174D02*
X17483991Y-14818650D01*
X17483991Y-14818650D02*
X17512563Y-14818650D01*
X17512563Y-14818650D02*
X17531610Y-14828174D01*
X17531610Y-14828174D02*
X17541134Y-14847222D01*
X17541134Y-14847222D02*
X17541134Y-14951984D01*
X17541134Y-14847222D02*
X17550658Y-14828174D01*
X17550658Y-14828174D02*
X17569705Y-14818650D01*
X17569705Y-14818650D02*
X17598277Y-14818650D01*
X17598277Y-14818650D02*
X17617325Y-14828174D01*
X17617325Y-14828174D02*
X17626848Y-14847222D01*
X17626848Y-14847222D02*
X17626848Y-14951984D01*
X17722086Y-14951984D02*
X17722086Y-14818650D01*
X17722086Y-14837698D02*
X17731610Y-14828174D01*
X17731610Y-14828174D02*
X17750658Y-14818650D01*
X17750658Y-14818650D02*
X17779229Y-14818650D01*
X17779229Y-14818650D02*
X17798277Y-14828174D01*
X17798277Y-14828174D02*
X17807801Y-14847222D01*
X17807801Y-14847222D02*
X17807801Y-14951984D01*
X17807801Y-14847222D02*
X17817325Y-14828174D01*
X17817325Y-14828174D02*
X17836372Y-14818650D01*
X17836372Y-14818650D02*
X17864944Y-14818650D01*
X17864944Y-14818650D02*
X17883991Y-14828174D01*
X17883991Y-14828174D02*
X17893515Y-14847222D01*
X17893515Y-14847222D02*
X17893515Y-14951984D01*
X18283991Y-14742460D02*
X18112563Y-14999603D01*
X18541134Y-14751984D02*
X18560182Y-14751984D01*
X18560182Y-14751984D02*
X18579229Y-14761508D01*
X18579229Y-14761508D02*
X18588753Y-14771031D01*
X18588753Y-14771031D02*
X18598277Y-14790079D01*
X18598277Y-14790079D02*
X18607801Y-14828174D01*
X18607801Y-14828174D02*
X18607801Y-14875793D01*
X18607801Y-14875793D02*
X18598277Y-14913888D01*
X18598277Y-14913888D02*
X18588753Y-14932936D01*
X18588753Y-14932936D02*
X18579229Y-14942460D01*
X18579229Y-14942460D02*
X18560182Y-14951984D01*
X18560182Y-14951984D02*
X18541134Y-14951984D01*
X18541134Y-14951984D02*
X18522087Y-14942460D01*
X18522087Y-14942460D02*
X18512563Y-14932936D01*
X18512563Y-14932936D02*
X18503039Y-14913888D01*
X18503039Y-14913888D02*
X18493515Y-14875793D01*
X18493515Y-14875793D02*
X18493515Y-14828174D01*
X18493515Y-14828174D02*
X18503039Y-14790079D01*
X18503039Y-14790079D02*
X18512563Y-14771031D01*
X18512563Y-14771031D02*
X18522087Y-14761508D01*
X18522087Y-14761508D02*
X18541134Y-14751984D01*
X18693515Y-14932936D02*
X18703039Y-14942460D01*
X18703039Y-14942460D02*
X18693515Y-14951984D01*
X18693515Y-14951984D02*
X18683991Y-14942460D01*
X18683991Y-14942460D02*
X18693515Y-14932936D01*
X18693515Y-14932936D02*
X18693515Y-14951984D01*
X18826848Y-14751984D02*
X18845896Y-14751984D01*
X18845896Y-14751984D02*
X18864944Y-14761508D01*
X18864944Y-14761508D02*
X18874468Y-14771031D01*
X18874468Y-14771031D02*
X18883991Y-14790079D01*
X18883991Y-14790079D02*
X18893515Y-14828174D01*
X18893515Y-14828174D02*
X18893515Y-14875793D01*
X18893515Y-14875793D02*
X18883991Y-14913888D01*
X18883991Y-14913888D02*
X18874468Y-14932936D01*
X18874468Y-14932936D02*
X18864944Y-14942460D01*
X18864944Y-14942460D02*
X18845896Y-14951984D01*
X18845896Y-14951984D02*
X18826848Y-14951984D01*
X18826848Y-14951984D02*
X18807801Y-14942460D01*
X18807801Y-14942460D02*
X18798277Y-14932936D01*
X18798277Y-14932936D02*
X18788753Y-14913888D01*
X18788753Y-14913888D02*
X18779229Y-14875793D01*
X18779229Y-14875793D02*
X18779229Y-14828174D01*
X18779229Y-14828174D02*
X18788753Y-14790079D01*
X18788753Y-14790079D02*
X18798277Y-14771031D01*
X18798277Y-14771031D02*
X18807801Y-14761508D01*
X18807801Y-14761508D02*
X18826848Y-14751984D01*
X18960182Y-14751984D02*
X19083991Y-14751984D01*
X19083991Y-14751984D02*
X19017325Y-14828174D01*
X19017325Y-14828174D02*
X19045896Y-14828174D01*
X19045896Y-14828174D02*
X19064944Y-14837698D01*
X19064944Y-14837698D02*
X19074468Y-14847222D01*
X19074468Y-14847222D02*
X19083991Y-14866269D01*
X19083991Y-14866269D02*
X19083991Y-14913888D01*
X19083991Y-14913888D02*
X19074468Y-14932936D01*
X19074468Y-14932936D02*
X19064944Y-14942460D01*
X19064944Y-14942460D02*
X19045896Y-14951984D01*
X19045896Y-14951984D02*
X18988753Y-14951984D01*
X18988753Y-14951984D02*
X18969706Y-14942460D01*
X18969706Y-14942460D02*
X18960182Y-14932936D01*
X19264944Y-14751984D02*
X19169706Y-14751984D01*
X19169706Y-14751984D02*
X19160182Y-14847222D01*
X19160182Y-14847222D02*
X19169706Y-14837698D01*
X19169706Y-14837698D02*
X19188753Y-14828174D01*
X19188753Y-14828174D02*
X19236372Y-14828174D01*
X19236372Y-14828174D02*
X19255420Y-14837698D01*
X19255420Y-14837698D02*
X19264944Y-14847222D01*
X19264944Y-14847222D02*
X19274468Y-14866269D01*
X19274468Y-14866269D02*
X19274468Y-14913888D01*
X19274468Y-14913888D02*
X19264944Y-14932936D01*
X19264944Y-14932936D02*
X19255420Y-14942460D01*
X19255420Y-14942460D02*
X19236372Y-14951984D01*
X19236372Y-14951984D02*
X19188753Y-14951984D01*
X19188753Y-14951984D02*
X19169706Y-14942460D01*
X19169706Y-14942460D02*
X19160182Y-14932936D01*
X19445896Y-14818650D02*
X19445896Y-14951984D01*
X19398277Y-14742460D02*
X19350658Y-14885317D01*
X19350658Y-14885317D02*
X19474468Y-14885317D01*
X19541134Y-14751984D02*
X19541134Y-14790079D01*
X19617325Y-14751984D02*
X19617325Y-14790079D01*
X19912563Y-15028174D02*
X19903039Y-15018650D01*
X19903039Y-15018650D02*
X19883991Y-14990079D01*
X19883991Y-14990079D02*
X19874468Y-14971031D01*
X19874468Y-14971031D02*
X19864944Y-14942460D01*
X19864944Y-14942460D02*
X19855420Y-14894841D01*
X19855420Y-14894841D02*
X19855420Y-14856746D01*
X19855420Y-14856746D02*
X19864944Y-14809127D01*
X19864944Y-14809127D02*
X19874468Y-14780555D01*
X19874468Y-14780555D02*
X19883991Y-14761508D01*
X19883991Y-14761508D02*
X19903039Y-14732936D01*
X19903039Y-14732936D02*
X19912563Y-14723412D01*
X19979230Y-14771031D02*
X19988753Y-14761508D01*
X19988753Y-14761508D02*
X20007801Y-14751984D01*
X20007801Y-14751984D02*
X20055420Y-14751984D01*
X20055420Y-14751984D02*
X20074468Y-14761508D01*
X20074468Y-14761508D02*
X20083991Y-14771031D01*
X20083991Y-14771031D02*
X20093515Y-14790079D01*
X20093515Y-14790079D02*
X20093515Y-14809127D01*
X20093515Y-14809127D02*
X20083991Y-14837698D01*
X20083991Y-14837698D02*
X19969706Y-14951984D01*
X19969706Y-14951984D02*
X20093515Y-14951984D01*
X20331611Y-14951984D02*
X20331611Y-14751984D01*
X20417325Y-14951984D02*
X20417325Y-14847222D01*
X20417325Y-14847222D02*
X20407801Y-14828174D01*
X20407801Y-14828174D02*
X20388753Y-14818650D01*
X20388753Y-14818650D02*
X20360182Y-14818650D01*
X20360182Y-14818650D02*
X20341134Y-14828174D01*
X20341134Y-14828174D02*
X20331611Y-14837698D01*
X20541134Y-14951984D02*
X20522087Y-14942460D01*
X20522087Y-14942460D02*
X20512563Y-14932936D01*
X20512563Y-14932936D02*
X20503039Y-14913888D01*
X20503039Y-14913888D02*
X20503039Y-14856746D01*
X20503039Y-14856746D02*
X20512563Y-14837698D01*
X20512563Y-14837698D02*
X20522087Y-14828174D01*
X20522087Y-14828174D02*
X20541134Y-14818650D01*
X20541134Y-14818650D02*
X20569706Y-14818650D01*
X20569706Y-14818650D02*
X20588753Y-14828174D01*
X20588753Y-14828174D02*
X20598277Y-14837698D01*
X20598277Y-14837698D02*
X20607801Y-14856746D01*
X20607801Y-14856746D02*
X20607801Y-14913888D01*
X20607801Y-14913888D02*
X20598277Y-14932936D01*
X20598277Y-14932936D02*
X20588753Y-14942460D01*
X20588753Y-14942460D02*
X20569706Y-14951984D01*
X20569706Y-14951984D02*
X20541134Y-14951984D01*
X20722087Y-14951984D02*
X20703039Y-14942460D01*
X20703039Y-14942460D02*
X20693515Y-14923412D01*
X20693515Y-14923412D02*
X20693515Y-14751984D01*
X20874468Y-14942460D02*
X20855420Y-14951984D01*
X20855420Y-14951984D02*
X20817325Y-14951984D01*
X20817325Y-14951984D02*
X20798277Y-14942460D01*
X20798277Y-14942460D02*
X20788753Y-14923412D01*
X20788753Y-14923412D02*
X20788753Y-14847222D01*
X20788753Y-14847222D02*
X20798277Y-14828174D01*
X20798277Y-14828174D02*
X20817325Y-14818650D01*
X20817325Y-14818650D02*
X20855420Y-14818650D01*
X20855420Y-14818650D02*
X20874468Y-14828174D01*
X20874468Y-14828174D02*
X20883992Y-14847222D01*
X20883992Y-14847222D02*
X20883992Y-14866269D01*
X20883992Y-14866269D02*
X20788753Y-14885317D01*
X20960182Y-14942460D02*
X20979230Y-14951984D01*
X20979230Y-14951984D02*
X21017325Y-14951984D01*
X21017325Y-14951984D02*
X21036373Y-14942460D01*
X21036373Y-14942460D02*
X21045896Y-14923412D01*
X21045896Y-14923412D02*
X21045896Y-14913888D01*
X21045896Y-14913888D02*
X21036373Y-14894841D01*
X21036373Y-14894841D02*
X21017325Y-14885317D01*
X21017325Y-14885317D02*
X20988753Y-14885317D01*
X20988753Y-14885317D02*
X20969706Y-14875793D01*
X20969706Y-14875793D02*
X20960182Y-14856746D01*
X20960182Y-14856746D02*
X20960182Y-14847222D01*
X20960182Y-14847222D02*
X20969706Y-14828174D01*
X20969706Y-14828174D02*
X20988753Y-14818650D01*
X20988753Y-14818650D02*
X21017325Y-14818650D01*
X21017325Y-14818650D02*
X21036373Y-14828174D01*
X21112563Y-15028174D02*
X21122087Y-15018650D01*
X21122087Y-15018650D02*
X21141134Y-14990079D01*
X21141134Y-14990079D02*
X21150658Y-14971031D01*
X21150658Y-14971031D02*
X21160182Y-14942460D01*
X21160182Y-14942460D02*
X21169706Y-14894841D01*
X21169706Y-14894841D02*
X21169706Y-14856746D01*
X21169706Y-14856746D02*
X21160182Y-14809127D01*
X21160182Y-14809127D02*
X21150658Y-14780555D01*
X21150658Y-14780555D02*
X21141134Y-14761508D01*
X21141134Y-14761508D02*
X21122087Y-14732936D01*
X21122087Y-14732936D02*
X21112563Y-14723412D01*
D12*
X16322856Y-15159856D02*
X16322856Y-15089144D01*
X16252144Y-15089144D01*
X16252144Y-15159856D01*
X16322856Y-15159856D01*
D11*
X16703039Y-15215984D02*
X16588753Y-15215984D01*
X16645896Y-15215984D02*
X16645896Y-15015984D01*
X16645896Y-15015984D02*
X16626848Y-15044555D01*
X16626848Y-15044555D02*
X16607801Y-15063603D01*
X16607801Y-15063603D02*
X16588753Y-15073127D01*
X16788753Y-15196936D02*
X16798277Y-15206460D01*
X16798277Y-15206460D02*
X16788753Y-15215984D01*
X16788753Y-15215984D02*
X16779229Y-15206460D01*
X16779229Y-15206460D02*
X16788753Y-15196936D01*
X16788753Y-15196936D02*
X16788753Y-15215984D01*
X16922086Y-15015984D02*
X16941134Y-15015984D01*
X16941134Y-15015984D02*
X16960182Y-15025508D01*
X16960182Y-15025508D02*
X16969705Y-15035031D01*
X16969705Y-15035031D02*
X16979229Y-15054079D01*
X16979229Y-15054079D02*
X16988753Y-15092174D01*
X16988753Y-15092174D02*
X16988753Y-15139793D01*
X16988753Y-15139793D02*
X16979229Y-15177888D01*
X16979229Y-15177888D02*
X16969705Y-15196936D01*
X16969705Y-15196936D02*
X16960182Y-15206460D01*
X16960182Y-15206460D02*
X16941134Y-15215984D01*
X16941134Y-15215984D02*
X16922086Y-15215984D01*
X16922086Y-15215984D02*
X16903039Y-15206460D01*
X16903039Y-15206460D02*
X16893515Y-15196936D01*
X16893515Y-15196936D02*
X16883991Y-15177888D01*
X16883991Y-15177888D02*
X16874467Y-15139793D01*
X16874467Y-15139793D02*
X16874467Y-15092174D01*
X16874467Y-15092174D02*
X16883991Y-15054079D01*
X16883991Y-15054079D02*
X16893515Y-15035031D01*
X16893515Y-15035031D02*
X16903039Y-15025508D01*
X16903039Y-15025508D02*
X16922086Y-15015984D01*
X17112563Y-15015984D02*
X17131610Y-15015984D01*
X17131610Y-15015984D02*
X17150658Y-15025508D01*
X17150658Y-15025508D02*
X17160182Y-15035031D01*
X17160182Y-15035031D02*
X17169705Y-15054079D01*
X17169705Y-15054079D02*
X17179229Y-15092174D01*
X17179229Y-15092174D02*
X17179229Y-15139793D01*
X17179229Y-15139793D02*
X17169705Y-15177888D01*
X17169705Y-15177888D02*
X17160182Y-15196936D01*
X17160182Y-15196936D02*
X17150658Y-15206460D01*
X17150658Y-15206460D02*
X17131610Y-15215984D01*
X17131610Y-15215984D02*
X17112563Y-15215984D01*
X17112563Y-15215984D02*
X17093515Y-15206460D01*
X17093515Y-15206460D02*
X17083991Y-15196936D01*
X17083991Y-15196936D02*
X17074467Y-15177888D01*
X17074467Y-15177888D02*
X17064944Y-15139793D01*
X17064944Y-15139793D02*
X17064944Y-15092174D01*
X17064944Y-15092174D02*
X17074467Y-15054079D01*
X17074467Y-15054079D02*
X17083991Y-15035031D01*
X17083991Y-15035031D02*
X17093515Y-15025508D01*
X17093515Y-15025508D02*
X17112563Y-15015984D01*
X17303039Y-15015984D02*
X17322086Y-15015984D01*
X17322086Y-15015984D02*
X17341134Y-15025508D01*
X17341134Y-15025508D02*
X17350658Y-15035031D01*
X17350658Y-15035031D02*
X17360182Y-15054079D01*
X17360182Y-15054079D02*
X17369705Y-15092174D01*
X17369705Y-15092174D02*
X17369705Y-15139793D01*
X17369705Y-15139793D02*
X17360182Y-15177888D01*
X17360182Y-15177888D02*
X17350658Y-15196936D01*
X17350658Y-15196936D02*
X17341134Y-15206460D01*
X17341134Y-15206460D02*
X17322086Y-15215984D01*
X17322086Y-15215984D02*
X17303039Y-15215984D01*
X17303039Y-15215984D02*
X17283991Y-15206460D01*
X17283991Y-15206460D02*
X17274467Y-15196936D01*
X17274467Y-15196936D02*
X17264944Y-15177888D01*
X17264944Y-15177888D02*
X17255420Y-15139793D01*
X17255420Y-15139793D02*
X17255420Y-15092174D01*
X17255420Y-15092174D02*
X17264944Y-15054079D01*
X17264944Y-15054079D02*
X17274467Y-15035031D01*
X17274467Y-15035031D02*
X17283991Y-15025508D01*
X17283991Y-15025508D02*
X17303039Y-15015984D01*
X17455420Y-15215984D02*
X17455420Y-15082650D01*
X17455420Y-15101698D02*
X17464944Y-15092174D01*
X17464944Y-15092174D02*
X17483991Y-15082650D01*
X17483991Y-15082650D02*
X17512563Y-15082650D01*
X17512563Y-15082650D02*
X17531610Y-15092174D01*
X17531610Y-15092174D02*
X17541134Y-15111222D01*
X17541134Y-15111222D02*
X17541134Y-15215984D01*
X17541134Y-15111222D02*
X17550658Y-15092174D01*
X17550658Y-15092174D02*
X17569705Y-15082650D01*
X17569705Y-15082650D02*
X17598277Y-15082650D01*
X17598277Y-15082650D02*
X17617325Y-15092174D01*
X17617325Y-15092174D02*
X17626848Y-15111222D01*
X17626848Y-15111222D02*
X17626848Y-15215984D01*
X17722086Y-15215984D02*
X17722086Y-15082650D01*
X17722086Y-15101698D02*
X17731610Y-15092174D01*
X17731610Y-15092174D02*
X17750658Y-15082650D01*
X17750658Y-15082650D02*
X17779229Y-15082650D01*
X17779229Y-15082650D02*
X17798277Y-15092174D01*
X17798277Y-15092174D02*
X17807801Y-15111222D01*
X17807801Y-15111222D02*
X17807801Y-15215984D01*
X17807801Y-15111222D02*
X17817325Y-15092174D01*
X17817325Y-15092174D02*
X17836372Y-15082650D01*
X17836372Y-15082650D02*
X17864944Y-15082650D01*
X17864944Y-15082650D02*
X17883991Y-15092174D01*
X17883991Y-15092174D02*
X17893515Y-15111222D01*
X17893515Y-15111222D02*
X17893515Y-15215984D01*
X18283991Y-15006460D02*
X18112563Y-15263603D01*
X18541134Y-15015984D02*
X18560182Y-15015984D01*
X18560182Y-15015984D02*
X18579229Y-15025508D01*
X18579229Y-15025508D02*
X18588753Y-15035031D01*
X18588753Y-15035031D02*
X18598277Y-15054079D01*
X18598277Y-15054079D02*
X18607801Y-15092174D01*
X18607801Y-15092174D02*
X18607801Y-15139793D01*
X18607801Y-15139793D02*
X18598277Y-15177888D01*
X18598277Y-15177888D02*
X18588753Y-15196936D01*
X18588753Y-15196936D02*
X18579229Y-15206460D01*
X18579229Y-15206460D02*
X18560182Y-15215984D01*
X18560182Y-15215984D02*
X18541134Y-15215984D01*
X18541134Y-15215984D02*
X18522087Y-15206460D01*
X18522087Y-15206460D02*
X18512563Y-15196936D01*
X18512563Y-15196936D02*
X18503039Y-15177888D01*
X18503039Y-15177888D02*
X18493515Y-15139793D01*
X18493515Y-15139793D02*
X18493515Y-15092174D01*
X18493515Y-15092174D02*
X18503039Y-15054079D01*
X18503039Y-15054079D02*
X18512563Y-15035031D01*
X18512563Y-15035031D02*
X18522087Y-15025508D01*
X18522087Y-15025508D02*
X18541134Y-15015984D01*
X18693515Y-15196936D02*
X18703039Y-15206460D01*
X18703039Y-15206460D02*
X18693515Y-15215984D01*
X18693515Y-15215984D02*
X18683991Y-15206460D01*
X18683991Y-15206460D02*
X18693515Y-15196936D01*
X18693515Y-15196936D02*
X18693515Y-15215984D01*
X18826848Y-15015984D02*
X18845896Y-15015984D01*
X18845896Y-15015984D02*
X18864944Y-15025508D01*
X18864944Y-15025508D02*
X18874468Y-15035031D01*
X18874468Y-15035031D02*
X18883991Y-15054079D01*
X18883991Y-15054079D02*
X18893515Y-15092174D01*
X18893515Y-15092174D02*
X18893515Y-15139793D01*
X18893515Y-15139793D02*
X18883991Y-15177888D01*
X18883991Y-15177888D02*
X18874468Y-15196936D01*
X18874468Y-15196936D02*
X18864944Y-15206460D01*
X18864944Y-15206460D02*
X18845896Y-15215984D01*
X18845896Y-15215984D02*
X18826848Y-15215984D01*
X18826848Y-15215984D02*
X18807801Y-15206460D01*
X18807801Y-15206460D02*
X18798277Y-15196936D01*
X18798277Y-15196936D02*
X18788753Y-15177888D01*
X18788753Y-15177888D02*
X18779229Y-15139793D01*
X18779229Y-15139793D02*
X18779229Y-15092174D01*
X18779229Y-15092174D02*
X18788753Y-15054079D01*
X18788753Y-15054079D02*
X18798277Y-15035031D01*
X18798277Y-15035031D02*
X18807801Y-15025508D01*
X18807801Y-15025508D02*
X18826848Y-15015984D01*
X18960182Y-15015984D02*
X19083991Y-15015984D01*
X19083991Y-15015984D02*
X19017325Y-15092174D01*
X19017325Y-15092174D02*
X19045896Y-15092174D01*
X19045896Y-15092174D02*
X19064944Y-15101698D01*
X19064944Y-15101698D02*
X19074468Y-15111222D01*
X19074468Y-15111222D02*
X19083991Y-15130269D01*
X19083991Y-15130269D02*
X19083991Y-15177888D01*
X19083991Y-15177888D02*
X19074468Y-15196936D01*
X19074468Y-15196936D02*
X19064944Y-15206460D01*
X19064944Y-15206460D02*
X19045896Y-15215984D01*
X19045896Y-15215984D02*
X18988753Y-15215984D01*
X18988753Y-15215984D02*
X18969706Y-15206460D01*
X18969706Y-15206460D02*
X18960182Y-15196936D01*
X19179229Y-15215984D02*
X19217325Y-15215984D01*
X19217325Y-15215984D02*
X19236372Y-15206460D01*
X19236372Y-15206460D02*
X19245896Y-15196936D01*
X19245896Y-15196936D02*
X19264944Y-15168365D01*
X19264944Y-15168365D02*
X19274468Y-15130269D01*
X19274468Y-15130269D02*
X19274468Y-15054079D01*
X19274468Y-15054079D02*
X19264944Y-15035031D01*
X19264944Y-15035031D02*
X19255420Y-15025508D01*
X19255420Y-15025508D02*
X19236372Y-15015984D01*
X19236372Y-15015984D02*
X19198277Y-15015984D01*
X19198277Y-15015984D02*
X19179229Y-15025508D01*
X19179229Y-15025508D02*
X19169706Y-15035031D01*
X19169706Y-15035031D02*
X19160182Y-15054079D01*
X19160182Y-15054079D02*
X19160182Y-15101698D01*
X19160182Y-15101698D02*
X19169706Y-15120746D01*
X19169706Y-15120746D02*
X19179229Y-15130269D01*
X19179229Y-15130269D02*
X19198277Y-15139793D01*
X19198277Y-15139793D02*
X19236372Y-15139793D01*
X19236372Y-15139793D02*
X19255420Y-15130269D01*
X19255420Y-15130269D02*
X19264944Y-15120746D01*
X19264944Y-15120746D02*
X19274468Y-15101698D01*
X19445896Y-15082650D02*
X19445896Y-15215984D01*
X19398277Y-15006460D02*
X19350658Y-15149317D01*
X19350658Y-15149317D02*
X19474468Y-15149317D01*
X19541134Y-15015984D02*
X19541134Y-15054079D01*
X19617325Y-15015984D02*
X19617325Y-15054079D01*
X19912563Y-15292174D02*
X19903039Y-15282650D01*
X19903039Y-15282650D02*
X19883991Y-15254079D01*
X19883991Y-15254079D02*
X19874468Y-15235031D01*
X19874468Y-15235031D02*
X19864944Y-15206460D01*
X19864944Y-15206460D02*
X19855420Y-15158841D01*
X19855420Y-15158841D02*
X19855420Y-15120746D01*
X19855420Y-15120746D02*
X19864944Y-15073127D01*
X19864944Y-15073127D02*
X19874468Y-15044555D01*
X19874468Y-15044555D02*
X19883991Y-15025508D01*
X19883991Y-15025508D02*
X19903039Y-14996936D01*
X19903039Y-14996936D02*
X19912563Y-14987412D01*
X20093515Y-15215984D02*
X19979230Y-15215984D01*
X20036372Y-15215984D02*
X20036372Y-15015984D01*
X20036372Y-15015984D02*
X20017325Y-15044555D01*
X20017325Y-15044555D02*
X19998277Y-15063603D01*
X19998277Y-15063603D02*
X19979230Y-15073127D01*
X20207801Y-15101698D02*
X20188753Y-15092174D01*
X20188753Y-15092174D02*
X20179230Y-15082650D01*
X20179230Y-15082650D02*
X20169706Y-15063603D01*
X20169706Y-15063603D02*
X20169706Y-15054079D01*
X20169706Y-15054079D02*
X20179230Y-15035031D01*
X20179230Y-15035031D02*
X20188753Y-15025508D01*
X20188753Y-15025508D02*
X20207801Y-15015984D01*
X20207801Y-15015984D02*
X20245896Y-15015984D01*
X20245896Y-15015984D02*
X20264944Y-15025508D01*
X20264944Y-15025508D02*
X20274468Y-15035031D01*
X20274468Y-15035031D02*
X20283991Y-15054079D01*
X20283991Y-15054079D02*
X20283991Y-15063603D01*
X20283991Y-15063603D02*
X20274468Y-15082650D01*
X20274468Y-15082650D02*
X20264944Y-15092174D01*
X20264944Y-15092174D02*
X20245896Y-15101698D01*
X20245896Y-15101698D02*
X20207801Y-15101698D01*
X20207801Y-15101698D02*
X20188753Y-15111222D01*
X20188753Y-15111222D02*
X20179230Y-15120746D01*
X20179230Y-15120746D02*
X20169706Y-15139793D01*
X20169706Y-15139793D02*
X20169706Y-15177888D01*
X20169706Y-15177888D02*
X20179230Y-15196936D01*
X20179230Y-15196936D02*
X20188753Y-15206460D01*
X20188753Y-15206460D02*
X20207801Y-15215984D01*
X20207801Y-15215984D02*
X20245896Y-15215984D01*
X20245896Y-15215984D02*
X20264944Y-15206460D01*
X20264944Y-15206460D02*
X20274468Y-15196936D01*
X20274468Y-15196936D02*
X20283991Y-15177888D01*
X20283991Y-15177888D02*
X20283991Y-15139793D01*
X20283991Y-15139793D02*
X20274468Y-15120746D01*
X20274468Y-15120746D02*
X20264944Y-15111222D01*
X20264944Y-15111222D02*
X20245896Y-15101698D01*
X20522087Y-15215984D02*
X20522087Y-15015984D01*
X20607801Y-15215984D02*
X20607801Y-15111222D01*
X20607801Y-15111222D02*
X20598277Y-15092174D01*
X20598277Y-15092174D02*
X20579230Y-15082650D01*
X20579230Y-15082650D02*
X20550658Y-15082650D01*
X20550658Y-15082650D02*
X20531611Y-15092174D01*
X20531611Y-15092174D02*
X20522087Y-15101698D01*
X20731611Y-15215984D02*
X20712563Y-15206460D01*
X20712563Y-15206460D02*
X20703039Y-15196936D01*
X20703039Y-15196936D02*
X20693515Y-15177888D01*
X20693515Y-15177888D02*
X20693515Y-15120746D01*
X20693515Y-15120746D02*
X20703039Y-15101698D01*
X20703039Y-15101698D02*
X20712563Y-15092174D01*
X20712563Y-15092174D02*
X20731611Y-15082650D01*
X20731611Y-15082650D02*
X20760182Y-15082650D01*
X20760182Y-15082650D02*
X20779230Y-15092174D01*
X20779230Y-15092174D02*
X20788753Y-15101698D01*
X20788753Y-15101698D02*
X20798277Y-15120746D01*
X20798277Y-15120746D02*
X20798277Y-15177888D01*
X20798277Y-15177888D02*
X20788753Y-15196936D01*
X20788753Y-15196936D02*
X20779230Y-15206460D01*
X20779230Y-15206460D02*
X20760182Y-15215984D01*
X20760182Y-15215984D02*
X20731611Y-15215984D01*
X20912563Y-15215984D02*
X20893515Y-15206460D01*
X20893515Y-15206460D02*
X20883992Y-15187412D01*
X20883992Y-15187412D02*
X20883992Y-15015984D01*
X21064944Y-15206460D02*
X21045896Y-15215984D01*
X21045896Y-15215984D02*
X21007801Y-15215984D01*
X21007801Y-15215984D02*
X20988753Y-15206460D01*
X20988753Y-15206460D02*
X20979230Y-15187412D01*
X20979230Y-15187412D02*
X20979230Y-15111222D01*
X20979230Y-15111222D02*
X20988753Y-15092174D01*
X20988753Y-15092174D02*
X21007801Y-15082650D01*
X21007801Y-15082650D02*
X21045896Y-15082650D01*
X21045896Y-15082650D02*
X21064944Y-15092174D01*
X21064944Y-15092174D02*
X21074468Y-15111222D01*
X21074468Y-15111222D02*
X21074468Y-15130269D01*
X21074468Y-15130269D02*
X20979230Y-15149317D01*
X21150658Y-15206460D02*
X21169706Y-15215984D01*
X21169706Y-15215984D02*
X21207801Y-15215984D01*
X21207801Y-15215984D02*
X21226849Y-15206460D01*
X21226849Y-15206460D02*
X21236373Y-15187412D01*
X21236373Y-15187412D02*
X21236373Y-15177888D01*
X21236373Y-15177888D02*
X21226849Y-15158841D01*
X21226849Y-15158841D02*
X21207801Y-15149317D01*
X21207801Y-15149317D02*
X21179230Y-15149317D01*
X21179230Y-15149317D02*
X21160182Y-15139793D01*
X21160182Y-15139793D02*
X21150658Y-15120746D01*
X21150658Y-15120746D02*
X21150658Y-15111222D01*
X21150658Y-15111222D02*
X21160182Y-15092174D01*
X21160182Y-15092174D02*
X21179230Y-15082650D01*
X21179230Y-15082650D02*
X21207801Y-15082650D01*
X21207801Y-15082650D02*
X21226849Y-15092174D01*
X21303039Y-15292174D02*
X21312563Y-15282650D01*
X21312563Y-15282650D02*
X21331611Y-15254079D01*
X21331611Y-15254079D02*
X21341134Y-15235031D01*
X21341134Y-15235031D02*
X21350658Y-15206460D01*
X21350658Y-15206460D02*
X21360182Y-15158841D01*
X21360182Y-15158841D02*
X21360182Y-15120746D01*
X21360182Y-15120746D02*
X21350658Y-15073127D01*
X21350658Y-15073127D02*
X21341134Y-15044555D01*
X21341134Y-15044555D02*
X21331611Y-15025508D01*
X21331611Y-15025508D02*
X21312563Y-14996936D01*
X21312563Y-14996936D02*
X21303039Y-14987412D01*
D13*
X16286700Y-15439300D02*
X16337500Y-15388500D01*
X16286700Y-15337700D01*
X16235900Y-15388500D01*
X16286700Y-15439300D01*
D11*
X16703039Y-15479984D02*
X16588753Y-15479984D01*
X16645896Y-15479984D02*
X16645896Y-15279984D01*
X16645896Y-15279984D02*
X16626848Y-15308555D01*
X16626848Y-15308555D02*
X16607801Y-15327603D01*
X16607801Y-15327603D02*
X16588753Y-15337127D01*
X16788753Y-15460936D02*
X16798277Y-15470460D01*
X16798277Y-15470460D02*
X16788753Y-15479984D01*
X16788753Y-15479984D02*
X16779229Y-15470460D01*
X16779229Y-15470460D02*
X16788753Y-15460936D01*
X16788753Y-15460936D02*
X16788753Y-15479984D01*
X16922086Y-15279984D02*
X16941134Y-15279984D01*
X16941134Y-15279984D02*
X16960182Y-15289508D01*
X16960182Y-15289508D02*
X16969705Y-15299031D01*
X16969705Y-15299031D02*
X16979229Y-15318079D01*
X16979229Y-15318079D02*
X16988753Y-15356174D01*
X16988753Y-15356174D02*
X16988753Y-15403793D01*
X16988753Y-15403793D02*
X16979229Y-15441888D01*
X16979229Y-15441888D02*
X16969705Y-15460936D01*
X16969705Y-15460936D02*
X16960182Y-15470460D01*
X16960182Y-15470460D02*
X16941134Y-15479984D01*
X16941134Y-15479984D02*
X16922086Y-15479984D01*
X16922086Y-15479984D02*
X16903039Y-15470460D01*
X16903039Y-15470460D02*
X16893515Y-15460936D01*
X16893515Y-15460936D02*
X16883991Y-15441888D01*
X16883991Y-15441888D02*
X16874467Y-15403793D01*
X16874467Y-15403793D02*
X16874467Y-15356174D01*
X16874467Y-15356174D02*
X16883991Y-15318079D01*
X16883991Y-15318079D02*
X16893515Y-15299031D01*
X16893515Y-15299031D02*
X16903039Y-15289508D01*
X16903039Y-15289508D02*
X16922086Y-15279984D01*
X17179229Y-15479984D02*
X17064944Y-15479984D01*
X17122086Y-15479984D02*
X17122086Y-15279984D01*
X17122086Y-15279984D02*
X17103039Y-15308555D01*
X17103039Y-15308555D02*
X17083991Y-15327603D01*
X17083991Y-15327603D02*
X17064944Y-15337127D01*
X17350658Y-15279984D02*
X17312563Y-15279984D01*
X17312563Y-15279984D02*
X17293515Y-15289508D01*
X17293515Y-15289508D02*
X17283991Y-15299031D01*
X17283991Y-15299031D02*
X17264944Y-15327603D01*
X17264944Y-15327603D02*
X17255420Y-15365698D01*
X17255420Y-15365698D02*
X17255420Y-15441888D01*
X17255420Y-15441888D02*
X17264944Y-15460936D01*
X17264944Y-15460936D02*
X17274467Y-15470460D01*
X17274467Y-15470460D02*
X17293515Y-15479984D01*
X17293515Y-15479984D02*
X17331610Y-15479984D01*
X17331610Y-15479984D02*
X17350658Y-15470460D01*
X17350658Y-15470460D02*
X17360182Y-15460936D01*
X17360182Y-15460936D02*
X17369705Y-15441888D01*
X17369705Y-15441888D02*
X17369705Y-15394269D01*
X17369705Y-15394269D02*
X17360182Y-15375222D01*
X17360182Y-15375222D02*
X17350658Y-15365698D01*
X17350658Y-15365698D02*
X17331610Y-15356174D01*
X17331610Y-15356174D02*
X17293515Y-15356174D01*
X17293515Y-15356174D02*
X17274467Y-15365698D01*
X17274467Y-15365698D02*
X17264944Y-15375222D01*
X17264944Y-15375222D02*
X17255420Y-15394269D01*
X17455420Y-15479984D02*
X17455420Y-15346650D01*
X17455420Y-15365698D02*
X17464944Y-15356174D01*
X17464944Y-15356174D02*
X17483991Y-15346650D01*
X17483991Y-15346650D02*
X17512563Y-15346650D01*
X17512563Y-15346650D02*
X17531610Y-15356174D01*
X17531610Y-15356174D02*
X17541134Y-15375222D01*
X17541134Y-15375222D02*
X17541134Y-15479984D01*
X17541134Y-15375222D02*
X17550658Y-15356174D01*
X17550658Y-15356174D02*
X17569705Y-15346650D01*
X17569705Y-15346650D02*
X17598277Y-15346650D01*
X17598277Y-15346650D02*
X17617325Y-15356174D01*
X17617325Y-15356174D02*
X17626848Y-15375222D01*
X17626848Y-15375222D02*
X17626848Y-15479984D01*
X17722086Y-15479984D02*
X17722086Y-15346650D01*
X17722086Y-15365698D02*
X17731610Y-15356174D01*
X17731610Y-15356174D02*
X17750658Y-15346650D01*
X17750658Y-15346650D02*
X17779229Y-15346650D01*
X17779229Y-15346650D02*
X17798277Y-15356174D01*
X17798277Y-15356174D02*
X17807801Y-15375222D01*
X17807801Y-15375222D02*
X17807801Y-15479984D01*
X17807801Y-15375222D02*
X17817325Y-15356174D01*
X17817325Y-15356174D02*
X17836372Y-15346650D01*
X17836372Y-15346650D02*
X17864944Y-15346650D01*
X17864944Y-15346650D02*
X17883991Y-15356174D01*
X17883991Y-15356174D02*
X17893515Y-15375222D01*
X17893515Y-15375222D02*
X17893515Y-15479984D01*
X18283991Y-15270460D02*
X18112563Y-15527603D01*
X18541134Y-15279984D02*
X18560182Y-15279984D01*
X18560182Y-15279984D02*
X18579229Y-15289508D01*
X18579229Y-15289508D02*
X18588753Y-15299031D01*
X18588753Y-15299031D02*
X18598277Y-15318079D01*
X18598277Y-15318079D02*
X18607801Y-15356174D01*
X18607801Y-15356174D02*
X18607801Y-15403793D01*
X18607801Y-15403793D02*
X18598277Y-15441888D01*
X18598277Y-15441888D02*
X18588753Y-15460936D01*
X18588753Y-15460936D02*
X18579229Y-15470460D01*
X18579229Y-15470460D02*
X18560182Y-15479984D01*
X18560182Y-15479984D02*
X18541134Y-15479984D01*
X18541134Y-15479984D02*
X18522087Y-15470460D01*
X18522087Y-15470460D02*
X18512563Y-15460936D01*
X18512563Y-15460936D02*
X18503039Y-15441888D01*
X18503039Y-15441888D02*
X18493515Y-15403793D01*
X18493515Y-15403793D02*
X18493515Y-15356174D01*
X18493515Y-15356174D02*
X18503039Y-15318079D01*
X18503039Y-15318079D02*
X18512563Y-15299031D01*
X18512563Y-15299031D02*
X18522087Y-15289508D01*
X18522087Y-15289508D02*
X18541134Y-15279984D01*
X18693515Y-15460936D02*
X18703039Y-15470460D01*
X18703039Y-15470460D02*
X18693515Y-15479984D01*
X18693515Y-15479984D02*
X18683991Y-15470460D01*
X18683991Y-15470460D02*
X18693515Y-15460936D01*
X18693515Y-15460936D02*
X18693515Y-15479984D01*
X18826848Y-15279984D02*
X18845896Y-15279984D01*
X18845896Y-15279984D02*
X18864944Y-15289508D01*
X18864944Y-15289508D02*
X18874468Y-15299031D01*
X18874468Y-15299031D02*
X18883991Y-15318079D01*
X18883991Y-15318079D02*
X18893515Y-15356174D01*
X18893515Y-15356174D02*
X18893515Y-15403793D01*
X18893515Y-15403793D02*
X18883991Y-15441888D01*
X18883991Y-15441888D02*
X18874468Y-15460936D01*
X18874468Y-15460936D02*
X18864944Y-15470460D01*
X18864944Y-15470460D02*
X18845896Y-15479984D01*
X18845896Y-15479984D02*
X18826848Y-15479984D01*
X18826848Y-15479984D02*
X18807801Y-15470460D01*
X18807801Y-15470460D02*
X18798277Y-15460936D01*
X18798277Y-15460936D02*
X18788753Y-15441888D01*
X18788753Y-15441888D02*
X18779229Y-15403793D01*
X18779229Y-15403793D02*
X18779229Y-15356174D01*
X18779229Y-15356174D02*
X18788753Y-15318079D01*
X18788753Y-15318079D02*
X18798277Y-15299031D01*
X18798277Y-15299031D02*
X18807801Y-15289508D01*
X18807801Y-15289508D02*
X18826848Y-15279984D01*
X19064944Y-15346650D02*
X19064944Y-15479984D01*
X19017325Y-15270460D02*
X18969706Y-15413317D01*
X18969706Y-15413317D02*
X19093515Y-15413317D01*
X19207801Y-15279984D02*
X19226849Y-15279984D01*
X19226849Y-15279984D02*
X19245896Y-15289508D01*
X19245896Y-15289508D02*
X19255420Y-15299031D01*
X19255420Y-15299031D02*
X19264944Y-15318079D01*
X19264944Y-15318079D02*
X19274468Y-15356174D01*
X19274468Y-15356174D02*
X19274468Y-15403793D01*
X19274468Y-15403793D02*
X19264944Y-15441888D01*
X19264944Y-15441888D02*
X19255420Y-15460936D01*
X19255420Y-15460936D02*
X19245896Y-15470460D01*
X19245896Y-15470460D02*
X19226849Y-15479984D01*
X19226849Y-15479984D02*
X19207801Y-15479984D01*
X19207801Y-15479984D02*
X19188753Y-15470460D01*
X19188753Y-15470460D02*
X19179229Y-15460936D01*
X19179229Y-15460936D02*
X19169706Y-15441888D01*
X19169706Y-15441888D02*
X19160182Y-15403793D01*
X19160182Y-15403793D02*
X19160182Y-15356174D01*
X19160182Y-15356174D02*
X19169706Y-15318079D01*
X19169706Y-15318079D02*
X19179229Y-15299031D01*
X19179229Y-15299031D02*
X19188753Y-15289508D01*
X19188753Y-15289508D02*
X19207801Y-15279984D01*
X19398277Y-15279984D02*
X19417325Y-15279984D01*
X19417325Y-15279984D02*
X19436372Y-15289508D01*
X19436372Y-15289508D02*
X19445896Y-15299031D01*
X19445896Y-15299031D02*
X19455420Y-15318079D01*
X19455420Y-15318079D02*
X19464944Y-15356174D01*
X19464944Y-15356174D02*
X19464944Y-15403793D01*
X19464944Y-15403793D02*
X19455420Y-15441888D01*
X19455420Y-15441888D02*
X19445896Y-15460936D01*
X19445896Y-15460936D02*
X19436372Y-15470460D01*
X19436372Y-15470460D02*
X19417325Y-15479984D01*
X19417325Y-15479984D02*
X19398277Y-15479984D01*
X19398277Y-15479984D02*
X19379229Y-15470460D01*
X19379229Y-15470460D02*
X19369706Y-15460936D01*
X19369706Y-15460936D02*
X19360182Y-15441888D01*
X19360182Y-15441888D02*
X19350658Y-15403793D01*
X19350658Y-15403793D02*
X19350658Y-15356174D01*
X19350658Y-15356174D02*
X19360182Y-15318079D01*
X19360182Y-15318079D02*
X19369706Y-15299031D01*
X19369706Y-15299031D02*
X19379229Y-15289508D01*
X19379229Y-15289508D02*
X19398277Y-15279984D01*
X19541134Y-15279984D02*
X19541134Y-15318079D01*
X19617325Y-15279984D02*
X19617325Y-15318079D01*
X19912563Y-15556174D02*
X19903039Y-15546650D01*
X19903039Y-15546650D02*
X19883991Y-15518079D01*
X19883991Y-15518079D02*
X19874468Y-15499031D01*
X19874468Y-15499031D02*
X19864944Y-15470460D01*
X19864944Y-15470460D02*
X19855420Y-15422841D01*
X19855420Y-15422841D02*
X19855420Y-15384746D01*
X19855420Y-15384746D02*
X19864944Y-15337127D01*
X19864944Y-15337127D02*
X19874468Y-15308555D01*
X19874468Y-15308555D02*
X19883991Y-15289508D01*
X19883991Y-15289508D02*
X19903039Y-15260936D01*
X19903039Y-15260936D02*
X19912563Y-15251412D01*
X19998277Y-15479984D02*
X20036372Y-15479984D01*
X20036372Y-15479984D02*
X20055420Y-15470460D01*
X20055420Y-15470460D02*
X20064944Y-15460936D01*
X20064944Y-15460936D02*
X20083991Y-15432365D01*
X20083991Y-15432365D02*
X20093515Y-15394269D01*
X20093515Y-15394269D02*
X20093515Y-15318079D01*
X20093515Y-15318079D02*
X20083991Y-15299031D01*
X20083991Y-15299031D02*
X20074468Y-15289508D01*
X20074468Y-15289508D02*
X20055420Y-15279984D01*
X20055420Y-15279984D02*
X20017325Y-15279984D01*
X20017325Y-15279984D02*
X19998277Y-15289508D01*
X19998277Y-15289508D02*
X19988753Y-15299031D01*
X19988753Y-15299031D02*
X19979230Y-15318079D01*
X19979230Y-15318079D02*
X19979230Y-15365698D01*
X19979230Y-15365698D02*
X19988753Y-15384746D01*
X19988753Y-15384746D02*
X19998277Y-15394269D01*
X19998277Y-15394269D02*
X20017325Y-15403793D01*
X20017325Y-15403793D02*
X20055420Y-15403793D01*
X20055420Y-15403793D02*
X20074468Y-15394269D01*
X20074468Y-15394269D02*
X20083991Y-15384746D01*
X20083991Y-15384746D02*
X20093515Y-15365698D01*
X20169706Y-15299031D02*
X20179230Y-15289508D01*
X20179230Y-15289508D02*
X20198277Y-15279984D01*
X20198277Y-15279984D02*
X20245896Y-15279984D01*
X20245896Y-15279984D02*
X20264944Y-15289508D01*
X20264944Y-15289508D02*
X20274468Y-15299031D01*
X20274468Y-15299031D02*
X20283991Y-15318079D01*
X20283991Y-15318079D02*
X20283991Y-15337127D01*
X20283991Y-15337127D02*
X20274468Y-15365698D01*
X20274468Y-15365698D02*
X20160182Y-15479984D01*
X20160182Y-15479984D02*
X20283991Y-15479984D01*
X20522087Y-15479984D02*
X20522087Y-15279984D01*
X20607801Y-15479984D02*
X20607801Y-15375222D01*
X20607801Y-15375222D02*
X20598277Y-15356174D01*
X20598277Y-15356174D02*
X20579230Y-15346650D01*
X20579230Y-15346650D02*
X20550658Y-15346650D01*
X20550658Y-15346650D02*
X20531611Y-15356174D01*
X20531611Y-15356174D02*
X20522087Y-15365698D01*
X20731611Y-15479984D02*
X20712563Y-15470460D01*
X20712563Y-15470460D02*
X20703039Y-15460936D01*
X20703039Y-15460936D02*
X20693515Y-15441888D01*
X20693515Y-15441888D02*
X20693515Y-15384746D01*
X20693515Y-15384746D02*
X20703039Y-15365698D01*
X20703039Y-15365698D02*
X20712563Y-15356174D01*
X20712563Y-15356174D02*
X20731611Y-15346650D01*
X20731611Y-15346650D02*
X20760182Y-15346650D01*
X20760182Y-15346650D02*
X20779230Y-15356174D01*
X20779230Y-15356174D02*
X20788753Y-15365698D01*
X20788753Y-15365698D02*
X20798277Y-15384746D01*
X20798277Y-15384746D02*
X20798277Y-15441888D01*
X20798277Y-15441888D02*
X20788753Y-15460936D01*
X20788753Y-15460936D02*
X20779230Y-15470460D01*
X20779230Y-15470460D02*
X20760182Y-15479984D01*
X20760182Y-15479984D02*
X20731611Y-15479984D01*
X20912563Y-15479984D02*
X20893515Y-15470460D01*
X20893515Y-15470460D02*
X20883992Y-15451412D01*
X20883992Y-15451412D02*
X20883992Y-15279984D01*
X21064944Y-15470460D02*
X21045896Y-15479984D01*
X21045896Y-15479984D02*
X21007801Y-15479984D01*
X21007801Y-15479984D02*
X20988753Y-15470460D01*
X20988753Y-15470460D02*
X20979230Y-15451412D01*
X20979230Y-15451412D02*
X20979230Y-15375222D01*
X20979230Y-15375222D02*
X20988753Y-15356174D01*
X20988753Y-15356174D02*
X21007801Y-15346650D01*
X21007801Y-15346650D02*
X21045896Y-15346650D01*
X21045896Y-15346650D02*
X21064944Y-15356174D01*
X21064944Y-15356174D02*
X21074468Y-15375222D01*
X21074468Y-15375222D02*
X21074468Y-15394269D01*
X21074468Y-15394269D02*
X20979230Y-15413317D01*
X21150658Y-15470460D02*
X21169706Y-15479984D01*
X21169706Y-15479984D02*
X21207801Y-15479984D01*
X21207801Y-15479984D02*
X21226849Y-15470460D01*
X21226849Y-15470460D02*
X21236373Y-15451412D01*
X21236373Y-15451412D02*
X21236373Y-15441888D01*
X21236373Y-15441888D02*
X21226849Y-15422841D01*
X21226849Y-15422841D02*
X21207801Y-15413317D01*
X21207801Y-15413317D02*
X21179230Y-15413317D01*
X21179230Y-15413317D02*
X21160182Y-15403793D01*
X21160182Y-15403793D02*
X21150658Y-15384746D01*
X21150658Y-15384746D02*
X21150658Y-15375222D01*
X21150658Y-15375222D02*
X21160182Y-15356174D01*
X21160182Y-15356174D02*
X21179230Y-15346650D01*
X21179230Y-15346650D02*
X21207801Y-15346650D01*
X21207801Y-15346650D02*
X21226849Y-15356174D01*
X21303039Y-15556174D02*
X21312563Y-15546650D01*
X21312563Y-15546650D02*
X21331611Y-15518079D01*
X21331611Y-15518079D02*
X21341134Y-15499031D01*
X21341134Y-15499031D02*
X21350658Y-15470460D01*
X21350658Y-15470460D02*
X21360182Y-15422841D01*
X21360182Y-15422841D02*
X21360182Y-15384746D01*
X21360182Y-15384746D02*
X21350658Y-15337127D01*
X21350658Y-15337127D02*
X21341134Y-15308555D01*
X21341134Y-15308555D02*
X21331611Y-15289508D01*
X21331611Y-15289508D02*
X21312563Y-15260936D01*
X21312563Y-15260936D02*
X21303039Y-15251412D01*
D14*
X16227500Y-15597500D02*
X16337500Y-15707500D01*
X16337500Y-15597500D02*
X16227500Y-15707500D01*
X16337500Y-15652500D02*
G75*
G02*
X16227500Y-15652500I-55000J0D01*
G01*
X16227500Y-15652500D02*
G75*
G02*
X16337500Y-15652500I55000J0D01*
G01*
D11*
X16703039Y-15743984D02*
X16588753Y-15743984D01*
X16645896Y-15743984D02*
X16645896Y-15543984D01*
X16645896Y-15543984D02*
X16626848Y-15572555D01*
X16626848Y-15572555D02*
X16607801Y-15591603D01*
X16607801Y-15591603D02*
X16588753Y-15601127D01*
X16788753Y-15724936D02*
X16798277Y-15734460D01*
X16798277Y-15734460D02*
X16788753Y-15743984D01*
X16788753Y-15743984D02*
X16779229Y-15734460D01*
X16779229Y-15734460D02*
X16788753Y-15724936D01*
X16788753Y-15724936D02*
X16788753Y-15743984D01*
X16988753Y-15743984D02*
X16874467Y-15743984D01*
X16931610Y-15743984D02*
X16931610Y-15543984D01*
X16931610Y-15543984D02*
X16912563Y-15572555D01*
X16912563Y-15572555D02*
X16893515Y-15591603D01*
X16893515Y-15591603D02*
X16874467Y-15601127D01*
X17112563Y-15543984D02*
X17131610Y-15543984D01*
X17131610Y-15543984D02*
X17150658Y-15553508D01*
X17150658Y-15553508D02*
X17160182Y-15563031D01*
X17160182Y-15563031D02*
X17169705Y-15582079D01*
X17169705Y-15582079D02*
X17179229Y-15620174D01*
X17179229Y-15620174D02*
X17179229Y-15667793D01*
X17179229Y-15667793D02*
X17169705Y-15705888D01*
X17169705Y-15705888D02*
X17160182Y-15724936D01*
X17160182Y-15724936D02*
X17150658Y-15734460D01*
X17150658Y-15734460D02*
X17131610Y-15743984D01*
X17131610Y-15743984D02*
X17112563Y-15743984D01*
X17112563Y-15743984D02*
X17093515Y-15734460D01*
X17093515Y-15734460D02*
X17083991Y-15724936D01*
X17083991Y-15724936D02*
X17074467Y-15705888D01*
X17074467Y-15705888D02*
X17064944Y-15667793D01*
X17064944Y-15667793D02*
X17064944Y-15620174D01*
X17064944Y-15620174D02*
X17074467Y-15582079D01*
X17074467Y-15582079D02*
X17083991Y-15563031D01*
X17083991Y-15563031D02*
X17093515Y-15553508D01*
X17093515Y-15553508D02*
X17112563Y-15543984D01*
X17303039Y-15543984D02*
X17322086Y-15543984D01*
X17322086Y-15543984D02*
X17341134Y-15553508D01*
X17341134Y-15553508D02*
X17350658Y-15563031D01*
X17350658Y-15563031D02*
X17360182Y-15582079D01*
X17360182Y-15582079D02*
X17369705Y-15620174D01*
X17369705Y-15620174D02*
X17369705Y-15667793D01*
X17369705Y-15667793D02*
X17360182Y-15705888D01*
X17360182Y-15705888D02*
X17350658Y-15724936D01*
X17350658Y-15724936D02*
X17341134Y-15734460D01*
X17341134Y-15734460D02*
X17322086Y-15743984D01*
X17322086Y-15743984D02*
X17303039Y-15743984D01*
X17303039Y-15743984D02*
X17283991Y-15734460D01*
X17283991Y-15734460D02*
X17274467Y-15724936D01*
X17274467Y-15724936D02*
X17264944Y-15705888D01*
X17264944Y-15705888D02*
X17255420Y-15667793D01*
X17255420Y-15667793D02*
X17255420Y-15620174D01*
X17255420Y-15620174D02*
X17264944Y-15582079D01*
X17264944Y-15582079D02*
X17274467Y-15563031D01*
X17274467Y-15563031D02*
X17283991Y-15553508D01*
X17283991Y-15553508D02*
X17303039Y-15543984D01*
X17455420Y-15743984D02*
X17455420Y-15610650D01*
X17455420Y-15629698D02*
X17464944Y-15620174D01*
X17464944Y-15620174D02*
X17483991Y-15610650D01*
X17483991Y-15610650D02*
X17512563Y-15610650D01*
X17512563Y-15610650D02*
X17531610Y-15620174D01*
X17531610Y-15620174D02*
X17541134Y-15639222D01*
X17541134Y-15639222D02*
X17541134Y-15743984D01*
X17541134Y-15639222D02*
X17550658Y-15620174D01*
X17550658Y-15620174D02*
X17569705Y-15610650D01*
X17569705Y-15610650D02*
X17598277Y-15610650D01*
X17598277Y-15610650D02*
X17617325Y-15620174D01*
X17617325Y-15620174D02*
X17626848Y-15639222D01*
X17626848Y-15639222D02*
X17626848Y-15743984D01*
X17722086Y-15743984D02*
X17722086Y-15610650D01*
X17722086Y-15629698D02*
X17731610Y-15620174D01*
X17731610Y-15620174D02*
X17750658Y-15610650D01*
X17750658Y-15610650D02*
X17779229Y-15610650D01*
X17779229Y-15610650D02*
X17798277Y-15620174D01*
X17798277Y-15620174D02*
X17807801Y-15639222D01*
X17807801Y-15639222D02*
X17807801Y-15743984D01*
X17807801Y-15639222D02*
X17817325Y-15620174D01*
X17817325Y-15620174D02*
X17836372Y-15610650D01*
X17836372Y-15610650D02*
X17864944Y-15610650D01*
X17864944Y-15610650D02*
X17883991Y-15620174D01*
X17883991Y-15620174D02*
X17893515Y-15639222D01*
X17893515Y-15639222D02*
X17893515Y-15743984D01*
X18283991Y-15534460D02*
X18112563Y-15791603D01*
X18541134Y-15543984D02*
X18560182Y-15543984D01*
X18560182Y-15543984D02*
X18579229Y-15553508D01*
X18579229Y-15553508D02*
X18588753Y-15563031D01*
X18588753Y-15563031D02*
X18598277Y-15582079D01*
X18598277Y-15582079D02*
X18607801Y-15620174D01*
X18607801Y-15620174D02*
X18607801Y-15667793D01*
X18607801Y-15667793D02*
X18598277Y-15705888D01*
X18598277Y-15705888D02*
X18588753Y-15724936D01*
X18588753Y-15724936D02*
X18579229Y-15734460D01*
X18579229Y-15734460D02*
X18560182Y-15743984D01*
X18560182Y-15743984D02*
X18541134Y-15743984D01*
X18541134Y-15743984D02*
X18522087Y-15734460D01*
X18522087Y-15734460D02*
X18512563Y-15724936D01*
X18512563Y-15724936D02*
X18503039Y-15705888D01*
X18503039Y-15705888D02*
X18493515Y-15667793D01*
X18493515Y-15667793D02*
X18493515Y-15620174D01*
X18493515Y-15620174D02*
X18503039Y-15582079D01*
X18503039Y-15582079D02*
X18512563Y-15563031D01*
X18512563Y-15563031D02*
X18522087Y-15553508D01*
X18522087Y-15553508D02*
X18541134Y-15543984D01*
X18693515Y-15724936D02*
X18703039Y-15734460D01*
X18703039Y-15734460D02*
X18693515Y-15743984D01*
X18693515Y-15743984D02*
X18683991Y-15734460D01*
X18683991Y-15734460D02*
X18693515Y-15724936D01*
X18693515Y-15724936D02*
X18693515Y-15743984D01*
X18826848Y-15543984D02*
X18845896Y-15543984D01*
X18845896Y-15543984D02*
X18864944Y-15553508D01*
X18864944Y-15553508D02*
X18874468Y-15563031D01*
X18874468Y-15563031D02*
X18883991Y-15582079D01*
X18883991Y-15582079D02*
X18893515Y-15620174D01*
X18893515Y-15620174D02*
X18893515Y-15667793D01*
X18893515Y-15667793D02*
X18883991Y-15705888D01*
X18883991Y-15705888D02*
X18874468Y-15724936D01*
X18874468Y-15724936D02*
X18864944Y-15734460D01*
X18864944Y-15734460D02*
X18845896Y-15743984D01*
X18845896Y-15743984D02*
X18826848Y-15743984D01*
X18826848Y-15743984D02*
X18807801Y-15734460D01*
X18807801Y-15734460D02*
X18798277Y-15724936D01*
X18798277Y-15724936D02*
X18788753Y-15705888D01*
X18788753Y-15705888D02*
X18779229Y-15667793D01*
X18779229Y-15667793D02*
X18779229Y-15620174D01*
X18779229Y-15620174D02*
X18788753Y-15582079D01*
X18788753Y-15582079D02*
X18798277Y-15563031D01*
X18798277Y-15563031D02*
X18807801Y-15553508D01*
X18807801Y-15553508D02*
X18826848Y-15543984D01*
X19064944Y-15610650D02*
X19064944Y-15743984D01*
X19017325Y-15534460D02*
X18969706Y-15677317D01*
X18969706Y-15677317D02*
X19093515Y-15677317D01*
X19150658Y-15543984D02*
X19274468Y-15543984D01*
X19274468Y-15543984D02*
X19207801Y-15620174D01*
X19207801Y-15620174D02*
X19236372Y-15620174D01*
X19236372Y-15620174D02*
X19255420Y-15629698D01*
X19255420Y-15629698D02*
X19264944Y-15639222D01*
X19264944Y-15639222D02*
X19274468Y-15658269D01*
X19274468Y-15658269D02*
X19274468Y-15705888D01*
X19274468Y-15705888D02*
X19264944Y-15724936D01*
X19264944Y-15724936D02*
X19255420Y-15734460D01*
X19255420Y-15734460D02*
X19236372Y-15743984D01*
X19236372Y-15743984D02*
X19179229Y-15743984D01*
X19179229Y-15743984D02*
X19160182Y-15734460D01*
X19160182Y-15734460D02*
X19150658Y-15724936D01*
X19341134Y-15543984D02*
X19464944Y-15543984D01*
X19464944Y-15543984D02*
X19398277Y-15620174D01*
X19398277Y-15620174D02*
X19426849Y-15620174D01*
X19426849Y-15620174D02*
X19445896Y-15629698D01*
X19445896Y-15629698D02*
X19455420Y-15639222D01*
X19455420Y-15639222D02*
X19464944Y-15658269D01*
X19464944Y-15658269D02*
X19464944Y-15705888D01*
X19464944Y-15705888D02*
X19455420Y-15724936D01*
X19455420Y-15724936D02*
X19445896Y-15734460D01*
X19445896Y-15734460D02*
X19426849Y-15743984D01*
X19426849Y-15743984D02*
X19369706Y-15743984D01*
X19369706Y-15743984D02*
X19350658Y-15734460D01*
X19350658Y-15734460D02*
X19341134Y-15724936D01*
X19541134Y-15543984D02*
X19541134Y-15582079D01*
X19617325Y-15543984D02*
X19617325Y-15582079D01*
X19912563Y-15820174D02*
X19903039Y-15810650D01*
X19903039Y-15810650D02*
X19883991Y-15782079D01*
X19883991Y-15782079D02*
X19874468Y-15763031D01*
X19874468Y-15763031D02*
X19864944Y-15734460D01*
X19864944Y-15734460D02*
X19855420Y-15686841D01*
X19855420Y-15686841D02*
X19855420Y-15648746D01*
X19855420Y-15648746D02*
X19864944Y-15601127D01*
X19864944Y-15601127D02*
X19874468Y-15572555D01*
X19874468Y-15572555D02*
X19883991Y-15553508D01*
X19883991Y-15553508D02*
X19903039Y-15524936D01*
X19903039Y-15524936D02*
X19912563Y-15515412D01*
X20074468Y-15610650D02*
X20074468Y-15743984D01*
X20026849Y-15534460D02*
X19979230Y-15677317D01*
X19979230Y-15677317D02*
X20103039Y-15677317D01*
X20331611Y-15743984D02*
X20331611Y-15543984D01*
X20417325Y-15743984D02*
X20417325Y-15639222D01*
X20417325Y-15639222D02*
X20407801Y-15620174D01*
X20407801Y-15620174D02*
X20388753Y-15610650D01*
X20388753Y-15610650D02*
X20360182Y-15610650D01*
X20360182Y-15610650D02*
X20341134Y-15620174D01*
X20341134Y-15620174D02*
X20331611Y-15629698D01*
X20541134Y-15743984D02*
X20522087Y-15734460D01*
X20522087Y-15734460D02*
X20512563Y-15724936D01*
X20512563Y-15724936D02*
X20503039Y-15705888D01*
X20503039Y-15705888D02*
X20503039Y-15648746D01*
X20503039Y-15648746D02*
X20512563Y-15629698D01*
X20512563Y-15629698D02*
X20522087Y-15620174D01*
X20522087Y-15620174D02*
X20541134Y-15610650D01*
X20541134Y-15610650D02*
X20569706Y-15610650D01*
X20569706Y-15610650D02*
X20588753Y-15620174D01*
X20588753Y-15620174D02*
X20598277Y-15629698D01*
X20598277Y-15629698D02*
X20607801Y-15648746D01*
X20607801Y-15648746D02*
X20607801Y-15705888D01*
X20607801Y-15705888D02*
X20598277Y-15724936D01*
X20598277Y-15724936D02*
X20588753Y-15734460D01*
X20588753Y-15734460D02*
X20569706Y-15743984D01*
X20569706Y-15743984D02*
X20541134Y-15743984D01*
X20722087Y-15743984D02*
X20703039Y-15734460D01*
X20703039Y-15734460D02*
X20693515Y-15715412D01*
X20693515Y-15715412D02*
X20693515Y-15543984D01*
X20874468Y-15734460D02*
X20855420Y-15743984D01*
X20855420Y-15743984D02*
X20817325Y-15743984D01*
X20817325Y-15743984D02*
X20798277Y-15734460D01*
X20798277Y-15734460D02*
X20788753Y-15715412D01*
X20788753Y-15715412D02*
X20788753Y-15639222D01*
X20788753Y-15639222D02*
X20798277Y-15620174D01*
X20798277Y-15620174D02*
X20817325Y-15610650D01*
X20817325Y-15610650D02*
X20855420Y-15610650D01*
X20855420Y-15610650D02*
X20874468Y-15620174D01*
X20874468Y-15620174D02*
X20883992Y-15639222D01*
X20883992Y-15639222D02*
X20883992Y-15658269D01*
X20883992Y-15658269D02*
X20788753Y-15677317D01*
X20960182Y-15734460D02*
X20979230Y-15743984D01*
X20979230Y-15743984D02*
X21017325Y-15743984D01*
X21017325Y-15743984D02*
X21036373Y-15734460D01*
X21036373Y-15734460D02*
X21045896Y-15715412D01*
X21045896Y-15715412D02*
X21045896Y-15705888D01*
X21045896Y-15705888D02*
X21036373Y-15686841D01*
X21036373Y-15686841D02*
X21017325Y-15677317D01*
X21017325Y-15677317D02*
X20988753Y-15677317D01*
X20988753Y-15677317D02*
X20969706Y-15667793D01*
X20969706Y-15667793D02*
X20960182Y-15648746D01*
X20960182Y-15648746D02*
X20960182Y-15639222D01*
X20960182Y-15639222D02*
X20969706Y-15620174D01*
X20969706Y-15620174D02*
X20988753Y-15610650D01*
X20988753Y-15610650D02*
X21017325Y-15610650D01*
X21017325Y-15610650D02*
X21036373Y-15620174D01*
X21112563Y-15820174D02*
X21122087Y-15810650D01*
X21122087Y-15810650D02*
X21141134Y-15782079D01*
X21141134Y-15782079D02*
X21150658Y-15763031D01*
X21150658Y-15763031D02*
X21160182Y-15734460D01*
X21160182Y-15734460D02*
X21169706Y-15686841D01*
X21169706Y-15686841D02*
X21169706Y-15648746D01*
X21169706Y-15648746D02*
X21160182Y-15601127D01*
X21160182Y-15601127D02*
X21150658Y-15572555D01*
X21150658Y-15572555D02*
X21141134Y-15553508D01*
X21141134Y-15553508D02*
X21122087Y-15524936D01*
X21122087Y-15524936D02*
X21112563Y-15515412D01*
D15*
X16217500Y-15856500D02*
X16337500Y-15976500D01*
X16337500Y-15856500D02*
X16217500Y-15976500D01*
X16277500Y-15856500D02*
X16277500Y-15976500D01*
X16217500Y-15916500D02*
X16337500Y-15916500D01*
D11*
X16703039Y-16007984D02*
X16588753Y-16007984D01*
X16645896Y-16007984D02*
X16645896Y-15807984D01*
X16645896Y-15807984D02*
X16626848Y-15836555D01*
X16626848Y-15836555D02*
X16607801Y-15855603D01*
X16607801Y-15855603D02*
X16588753Y-15865127D01*
X16788753Y-15988936D02*
X16798277Y-15998460D01*
X16798277Y-15998460D02*
X16788753Y-16007984D01*
X16788753Y-16007984D02*
X16779229Y-15998460D01*
X16779229Y-15998460D02*
X16788753Y-15988936D01*
X16788753Y-15988936D02*
X16788753Y-16007984D01*
X16874467Y-15827031D02*
X16883991Y-15817508D01*
X16883991Y-15817508D02*
X16903039Y-15807984D01*
X16903039Y-15807984D02*
X16950658Y-15807984D01*
X16950658Y-15807984D02*
X16969705Y-15817508D01*
X16969705Y-15817508D02*
X16979229Y-15827031D01*
X16979229Y-15827031D02*
X16988753Y-15846079D01*
X16988753Y-15846079D02*
X16988753Y-15865127D01*
X16988753Y-15865127D02*
X16979229Y-15893698D01*
X16979229Y-15893698D02*
X16864944Y-16007984D01*
X16864944Y-16007984D02*
X16988753Y-16007984D01*
X17112563Y-15807984D02*
X17131610Y-15807984D01*
X17131610Y-15807984D02*
X17150658Y-15817508D01*
X17150658Y-15817508D02*
X17160182Y-15827031D01*
X17160182Y-15827031D02*
X17169705Y-15846079D01*
X17169705Y-15846079D02*
X17179229Y-15884174D01*
X17179229Y-15884174D02*
X17179229Y-15931793D01*
X17179229Y-15931793D02*
X17169705Y-15969888D01*
X17169705Y-15969888D02*
X17160182Y-15988936D01*
X17160182Y-15988936D02*
X17150658Y-15998460D01*
X17150658Y-15998460D02*
X17131610Y-16007984D01*
X17131610Y-16007984D02*
X17112563Y-16007984D01*
X17112563Y-16007984D02*
X17093515Y-15998460D01*
X17093515Y-15998460D02*
X17083991Y-15988936D01*
X17083991Y-15988936D02*
X17074467Y-15969888D01*
X17074467Y-15969888D02*
X17064944Y-15931793D01*
X17064944Y-15931793D02*
X17064944Y-15884174D01*
X17064944Y-15884174D02*
X17074467Y-15846079D01*
X17074467Y-15846079D02*
X17083991Y-15827031D01*
X17083991Y-15827031D02*
X17093515Y-15817508D01*
X17093515Y-15817508D02*
X17112563Y-15807984D01*
X17303039Y-15807984D02*
X17322086Y-15807984D01*
X17322086Y-15807984D02*
X17341134Y-15817508D01*
X17341134Y-15817508D02*
X17350658Y-15827031D01*
X17350658Y-15827031D02*
X17360182Y-15846079D01*
X17360182Y-15846079D02*
X17369705Y-15884174D01*
X17369705Y-15884174D02*
X17369705Y-15931793D01*
X17369705Y-15931793D02*
X17360182Y-15969888D01*
X17360182Y-15969888D02*
X17350658Y-15988936D01*
X17350658Y-15988936D02*
X17341134Y-15998460D01*
X17341134Y-15998460D02*
X17322086Y-16007984D01*
X17322086Y-16007984D02*
X17303039Y-16007984D01*
X17303039Y-16007984D02*
X17283991Y-15998460D01*
X17283991Y-15998460D02*
X17274467Y-15988936D01*
X17274467Y-15988936D02*
X17264944Y-15969888D01*
X17264944Y-15969888D02*
X17255420Y-15931793D01*
X17255420Y-15931793D02*
X17255420Y-15884174D01*
X17255420Y-15884174D02*
X17264944Y-15846079D01*
X17264944Y-15846079D02*
X17274467Y-15827031D01*
X17274467Y-15827031D02*
X17283991Y-15817508D01*
X17283991Y-15817508D02*
X17303039Y-15807984D01*
X17455420Y-16007984D02*
X17455420Y-15874650D01*
X17455420Y-15893698D02*
X17464944Y-15884174D01*
X17464944Y-15884174D02*
X17483991Y-15874650D01*
X17483991Y-15874650D02*
X17512563Y-15874650D01*
X17512563Y-15874650D02*
X17531610Y-15884174D01*
X17531610Y-15884174D02*
X17541134Y-15903222D01*
X17541134Y-15903222D02*
X17541134Y-16007984D01*
X17541134Y-15903222D02*
X17550658Y-15884174D01*
X17550658Y-15884174D02*
X17569705Y-15874650D01*
X17569705Y-15874650D02*
X17598277Y-15874650D01*
X17598277Y-15874650D02*
X17617325Y-15884174D01*
X17617325Y-15884174D02*
X17626848Y-15903222D01*
X17626848Y-15903222D02*
X17626848Y-16007984D01*
X17722086Y-16007984D02*
X17722086Y-15874650D01*
X17722086Y-15893698D02*
X17731610Y-15884174D01*
X17731610Y-15884174D02*
X17750658Y-15874650D01*
X17750658Y-15874650D02*
X17779229Y-15874650D01*
X17779229Y-15874650D02*
X17798277Y-15884174D01*
X17798277Y-15884174D02*
X17807801Y-15903222D01*
X17807801Y-15903222D02*
X17807801Y-16007984D01*
X17807801Y-15903222D02*
X17817325Y-15884174D01*
X17817325Y-15884174D02*
X17836372Y-15874650D01*
X17836372Y-15874650D02*
X17864944Y-15874650D01*
X17864944Y-15874650D02*
X17883991Y-15884174D01*
X17883991Y-15884174D02*
X17893515Y-15903222D01*
X17893515Y-15903222D02*
X17893515Y-16007984D01*
X18283991Y-15798460D02*
X18112563Y-16055603D01*
X18541134Y-15807984D02*
X18560182Y-15807984D01*
X18560182Y-15807984D02*
X18579229Y-15817508D01*
X18579229Y-15817508D02*
X18588753Y-15827031D01*
X18588753Y-15827031D02*
X18598277Y-15846079D01*
X18598277Y-15846079D02*
X18607801Y-15884174D01*
X18607801Y-15884174D02*
X18607801Y-15931793D01*
X18607801Y-15931793D02*
X18598277Y-15969888D01*
X18598277Y-15969888D02*
X18588753Y-15988936D01*
X18588753Y-15988936D02*
X18579229Y-15998460D01*
X18579229Y-15998460D02*
X18560182Y-16007984D01*
X18560182Y-16007984D02*
X18541134Y-16007984D01*
X18541134Y-16007984D02*
X18522087Y-15998460D01*
X18522087Y-15998460D02*
X18512563Y-15988936D01*
X18512563Y-15988936D02*
X18503039Y-15969888D01*
X18503039Y-15969888D02*
X18493515Y-15931793D01*
X18493515Y-15931793D02*
X18493515Y-15884174D01*
X18493515Y-15884174D02*
X18503039Y-15846079D01*
X18503039Y-15846079D02*
X18512563Y-15827031D01*
X18512563Y-15827031D02*
X18522087Y-15817508D01*
X18522087Y-15817508D02*
X18541134Y-15807984D01*
X18693515Y-15988936D02*
X18703039Y-15998460D01*
X18703039Y-15998460D02*
X18693515Y-16007984D01*
X18693515Y-16007984D02*
X18683991Y-15998460D01*
X18683991Y-15998460D02*
X18693515Y-15988936D01*
X18693515Y-15988936D02*
X18693515Y-16007984D01*
X18826848Y-15807984D02*
X18845896Y-15807984D01*
X18845896Y-15807984D02*
X18864944Y-15817508D01*
X18864944Y-15817508D02*
X18874468Y-15827031D01*
X18874468Y-15827031D02*
X18883991Y-15846079D01*
X18883991Y-15846079D02*
X18893515Y-15884174D01*
X18893515Y-15884174D02*
X18893515Y-15931793D01*
X18893515Y-15931793D02*
X18883991Y-15969888D01*
X18883991Y-15969888D02*
X18874468Y-15988936D01*
X18874468Y-15988936D02*
X18864944Y-15998460D01*
X18864944Y-15998460D02*
X18845896Y-16007984D01*
X18845896Y-16007984D02*
X18826848Y-16007984D01*
X18826848Y-16007984D02*
X18807801Y-15998460D01*
X18807801Y-15998460D02*
X18798277Y-15988936D01*
X18798277Y-15988936D02*
X18788753Y-15969888D01*
X18788753Y-15969888D02*
X18779229Y-15931793D01*
X18779229Y-15931793D02*
X18779229Y-15884174D01*
X18779229Y-15884174D02*
X18788753Y-15846079D01*
X18788753Y-15846079D02*
X18798277Y-15827031D01*
X18798277Y-15827031D02*
X18807801Y-15817508D01*
X18807801Y-15817508D02*
X18826848Y-15807984D01*
X19064944Y-15874650D02*
X19064944Y-16007984D01*
X19017325Y-15798460D02*
X18969706Y-15941317D01*
X18969706Y-15941317D02*
X19093515Y-15941317D01*
X19150658Y-15807984D02*
X19283991Y-15807984D01*
X19283991Y-15807984D02*
X19198277Y-16007984D01*
X19350658Y-15827031D02*
X19360182Y-15817508D01*
X19360182Y-15817508D02*
X19379229Y-15807984D01*
X19379229Y-15807984D02*
X19426849Y-15807984D01*
X19426849Y-15807984D02*
X19445896Y-15817508D01*
X19445896Y-15817508D02*
X19455420Y-15827031D01*
X19455420Y-15827031D02*
X19464944Y-15846079D01*
X19464944Y-15846079D02*
X19464944Y-15865127D01*
X19464944Y-15865127D02*
X19455420Y-15893698D01*
X19455420Y-15893698D02*
X19341134Y-16007984D01*
X19341134Y-16007984D02*
X19464944Y-16007984D01*
X19541134Y-15807984D02*
X19541134Y-15846079D01*
X19617325Y-15807984D02*
X19617325Y-15846079D01*
X19912563Y-16084174D02*
X19903039Y-16074650D01*
X19903039Y-16074650D02*
X19883991Y-16046079D01*
X19883991Y-16046079D02*
X19874468Y-16027031D01*
X19874468Y-16027031D02*
X19864944Y-15998460D01*
X19864944Y-15998460D02*
X19855420Y-15950841D01*
X19855420Y-15950841D02*
X19855420Y-15912746D01*
X19855420Y-15912746D02*
X19864944Y-15865127D01*
X19864944Y-15865127D02*
X19874468Y-15836555D01*
X19874468Y-15836555D02*
X19883991Y-15817508D01*
X19883991Y-15817508D02*
X19903039Y-15788936D01*
X19903039Y-15788936D02*
X19912563Y-15779412D01*
X19969706Y-15807984D02*
X20093515Y-15807984D01*
X20093515Y-15807984D02*
X20026849Y-15884174D01*
X20026849Y-15884174D02*
X20055420Y-15884174D01*
X20055420Y-15884174D02*
X20074468Y-15893698D01*
X20074468Y-15893698D02*
X20083991Y-15903222D01*
X20083991Y-15903222D02*
X20093515Y-15922269D01*
X20093515Y-15922269D02*
X20093515Y-15969888D01*
X20093515Y-15969888D02*
X20083991Y-15988936D01*
X20083991Y-15988936D02*
X20074468Y-15998460D01*
X20074468Y-15998460D02*
X20055420Y-16007984D01*
X20055420Y-16007984D02*
X19998277Y-16007984D01*
X19998277Y-16007984D02*
X19979230Y-15998460D01*
X19979230Y-15998460D02*
X19969706Y-15988936D01*
X20331611Y-16007984D02*
X20331611Y-15807984D01*
X20417325Y-16007984D02*
X20417325Y-15903222D01*
X20417325Y-15903222D02*
X20407801Y-15884174D01*
X20407801Y-15884174D02*
X20388753Y-15874650D01*
X20388753Y-15874650D02*
X20360182Y-15874650D01*
X20360182Y-15874650D02*
X20341134Y-15884174D01*
X20341134Y-15884174D02*
X20331611Y-15893698D01*
X20541134Y-16007984D02*
X20522087Y-15998460D01*
X20522087Y-15998460D02*
X20512563Y-15988936D01*
X20512563Y-15988936D02*
X20503039Y-15969888D01*
X20503039Y-15969888D02*
X20503039Y-15912746D01*
X20503039Y-15912746D02*
X20512563Y-15893698D01*
X20512563Y-15893698D02*
X20522087Y-15884174D01*
X20522087Y-15884174D02*
X20541134Y-15874650D01*
X20541134Y-15874650D02*
X20569706Y-15874650D01*
X20569706Y-15874650D02*
X20588753Y-15884174D01*
X20588753Y-15884174D02*
X20598277Y-15893698D01*
X20598277Y-15893698D02*
X20607801Y-15912746D01*
X20607801Y-15912746D02*
X20607801Y-15969888D01*
X20607801Y-15969888D02*
X20598277Y-15988936D01*
X20598277Y-15988936D02*
X20588753Y-15998460D01*
X20588753Y-15998460D02*
X20569706Y-16007984D01*
X20569706Y-16007984D02*
X20541134Y-16007984D01*
X20722087Y-16007984D02*
X20703039Y-15998460D01*
X20703039Y-15998460D02*
X20693515Y-15979412D01*
X20693515Y-15979412D02*
X20693515Y-15807984D01*
X20874468Y-15998460D02*
X20855420Y-16007984D01*
X20855420Y-16007984D02*
X20817325Y-16007984D01*
X20817325Y-16007984D02*
X20798277Y-15998460D01*
X20798277Y-15998460D02*
X20788753Y-15979412D01*
X20788753Y-15979412D02*
X20788753Y-15903222D01*
X20788753Y-15903222D02*
X20798277Y-15884174D01*
X20798277Y-15884174D02*
X20817325Y-15874650D01*
X20817325Y-15874650D02*
X20855420Y-15874650D01*
X20855420Y-15874650D02*
X20874468Y-15884174D01*
X20874468Y-15884174D02*
X20883992Y-15903222D01*
X20883992Y-15903222D02*
X20883992Y-15922269D01*
X20883992Y-15922269D02*
X20788753Y-15941317D01*
X20960182Y-15998460D02*
X20979230Y-16007984D01*
X20979230Y-16007984D02*
X21017325Y-16007984D01*
X21017325Y-16007984D02*
X21036373Y-15998460D01*
X21036373Y-15998460D02*
X21045896Y-15979412D01*
X21045896Y-15979412D02*
X21045896Y-15969888D01*
X21045896Y-15969888D02*
X21036373Y-15950841D01*
X21036373Y-15950841D02*
X21017325Y-15941317D01*
X21017325Y-15941317D02*
X20988753Y-15941317D01*
X20988753Y-15941317D02*
X20969706Y-15931793D01*
X20969706Y-15931793D02*
X20960182Y-15912746D01*
X20960182Y-15912746D02*
X20960182Y-15903222D01*
X20960182Y-15903222D02*
X20969706Y-15884174D01*
X20969706Y-15884174D02*
X20988753Y-15874650D01*
X20988753Y-15874650D02*
X21017325Y-15874650D01*
X21017325Y-15874650D02*
X21036373Y-15884174D01*
X21112563Y-16084174D02*
X21122087Y-16074650D01*
X21122087Y-16074650D02*
X21141134Y-16046079D01*
X21141134Y-16046079D02*
X21150658Y-16027031D01*
X21150658Y-16027031D02*
X21160182Y-15998460D01*
X21160182Y-15998460D02*
X21169706Y-15950841D01*
X21169706Y-15950841D02*
X21169706Y-15912746D01*
X21169706Y-15912746D02*
X21160182Y-15865127D01*
X21160182Y-15865127D02*
X21150658Y-15836555D01*
X21150658Y-15836555D02*
X21141134Y-15817508D01*
X21141134Y-15817508D02*
X21122087Y-15788936D01*
X21122087Y-15788936D02*
X21112563Y-15779412D01*
X16137500Y-16080500D02*
X16337500Y-16280500D01*
X16337500Y-16080500D02*
X16137500Y-16280500D01*
X16308211Y-16251211D02*
X16308211Y-16109789D01*
X16166789Y-16109789D01*
X16166789Y-16251211D01*
X16308211Y-16251211D01*
X16579229Y-16071984D02*
X16703039Y-16071984D01*
X16703039Y-16071984D02*
X16636372Y-16148174D01*
X16636372Y-16148174D02*
X16664943Y-16148174D01*
X16664943Y-16148174D02*
X16683991Y-16157698D01*
X16683991Y-16157698D02*
X16693515Y-16167222D01*
X16693515Y-16167222D02*
X16703039Y-16186269D01*
X16703039Y-16186269D02*
X16703039Y-16233888D01*
X16703039Y-16233888D02*
X16693515Y-16252936D01*
X16693515Y-16252936D02*
X16683991Y-16262460D01*
X16683991Y-16262460D02*
X16664943Y-16271984D01*
X16664943Y-16271984D02*
X16607801Y-16271984D01*
X16607801Y-16271984D02*
X16588753Y-16262460D01*
X16588753Y-16262460D02*
X16579229Y-16252936D01*
X16788753Y-16252936D02*
X16798277Y-16262460D01*
X16798277Y-16262460D02*
X16788753Y-16271984D01*
X16788753Y-16271984D02*
X16779229Y-16262460D01*
X16779229Y-16262460D02*
X16788753Y-16252936D01*
X16788753Y-16252936D02*
X16788753Y-16271984D01*
X16874467Y-16091031D02*
X16883991Y-16081508D01*
X16883991Y-16081508D02*
X16903039Y-16071984D01*
X16903039Y-16071984D02*
X16950658Y-16071984D01*
X16950658Y-16071984D02*
X16969705Y-16081508D01*
X16969705Y-16081508D02*
X16979229Y-16091031D01*
X16979229Y-16091031D02*
X16988753Y-16110079D01*
X16988753Y-16110079D02*
X16988753Y-16129127D01*
X16988753Y-16129127D02*
X16979229Y-16157698D01*
X16979229Y-16157698D02*
X16864944Y-16271984D01*
X16864944Y-16271984D02*
X16988753Y-16271984D01*
X17112563Y-16071984D02*
X17131610Y-16071984D01*
X17131610Y-16071984D02*
X17150658Y-16081508D01*
X17150658Y-16081508D02*
X17160182Y-16091031D01*
X17160182Y-16091031D02*
X17169705Y-16110079D01*
X17169705Y-16110079D02*
X17179229Y-16148174D01*
X17179229Y-16148174D02*
X17179229Y-16195793D01*
X17179229Y-16195793D02*
X17169705Y-16233888D01*
X17169705Y-16233888D02*
X17160182Y-16252936D01*
X17160182Y-16252936D02*
X17150658Y-16262460D01*
X17150658Y-16262460D02*
X17131610Y-16271984D01*
X17131610Y-16271984D02*
X17112563Y-16271984D01*
X17112563Y-16271984D02*
X17093515Y-16262460D01*
X17093515Y-16262460D02*
X17083991Y-16252936D01*
X17083991Y-16252936D02*
X17074467Y-16233888D01*
X17074467Y-16233888D02*
X17064944Y-16195793D01*
X17064944Y-16195793D02*
X17064944Y-16148174D01*
X17064944Y-16148174D02*
X17074467Y-16110079D01*
X17074467Y-16110079D02*
X17083991Y-16091031D01*
X17083991Y-16091031D02*
X17093515Y-16081508D01*
X17093515Y-16081508D02*
X17112563Y-16071984D01*
X17303039Y-16071984D02*
X17322086Y-16071984D01*
X17322086Y-16071984D02*
X17341134Y-16081508D01*
X17341134Y-16081508D02*
X17350658Y-16091031D01*
X17350658Y-16091031D02*
X17360182Y-16110079D01*
X17360182Y-16110079D02*
X17369705Y-16148174D01*
X17369705Y-16148174D02*
X17369705Y-16195793D01*
X17369705Y-16195793D02*
X17360182Y-16233888D01*
X17360182Y-16233888D02*
X17350658Y-16252936D01*
X17350658Y-16252936D02*
X17341134Y-16262460D01*
X17341134Y-16262460D02*
X17322086Y-16271984D01*
X17322086Y-16271984D02*
X17303039Y-16271984D01*
X17303039Y-16271984D02*
X17283991Y-16262460D01*
X17283991Y-16262460D02*
X17274467Y-16252936D01*
X17274467Y-16252936D02*
X17264944Y-16233888D01*
X17264944Y-16233888D02*
X17255420Y-16195793D01*
X17255420Y-16195793D02*
X17255420Y-16148174D01*
X17255420Y-16148174D02*
X17264944Y-16110079D01*
X17264944Y-16110079D02*
X17274467Y-16091031D01*
X17274467Y-16091031D02*
X17283991Y-16081508D01*
X17283991Y-16081508D02*
X17303039Y-16071984D01*
X17455420Y-16271984D02*
X17455420Y-16138650D01*
X17455420Y-16157698D02*
X17464944Y-16148174D01*
X17464944Y-16148174D02*
X17483991Y-16138650D01*
X17483991Y-16138650D02*
X17512563Y-16138650D01*
X17512563Y-16138650D02*
X17531610Y-16148174D01*
X17531610Y-16148174D02*
X17541134Y-16167222D01*
X17541134Y-16167222D02*
X17541134Y-16271984D01*
X17541134Y-16167222D02*
X17550658Y-16148174D01*
X17550658Y-16148174D02*
X17569705Y-16138650D01*
X17569705Y-16138650D02*
X17598277Y-16138650D01*
X17598277Y-16138650D02*
X17617325Y-16148174D01*
X17617325Y-16148174D02*
X17626848Y-16167222D01*
X17626848Y-16167222D02*
X17626848Y-16271984D01*
X17722086Y-16271984D02*
X17722086Y-16138650D01*
X17722086Y-16157698D02*
X17731610Y-16148174D01*
X17731610Y-16148174D02*
X17750658Y-16138650D01*
X17750658Y-16138650D02*
X17779229Y-16138650D01*
X17779229Y-16138650D02*
X17798277Y-16148174D01*
X17798277Y-16148174D02*
X17807801Y-16167222D01*
X17807801Y-16167222D02*
X17807801Y-16271984D01*
X17807801Y-16167222D02*
X17817325Y-16148174D01*
X17817325Y-16148174D02*
X17836372Y-16138650D01*
X17836372Y-16138650D02*
X17864944Y-16138650D01*
X17864944Y-16138650D02*
X17883991Y-16148174D01*
X17883991Y-16148174D02*
X17893515Y-16167222D01*
X17893515Y-16167222D02*
X17893515Y-16271984D01*
X18283991Y-16062460D02*
X18112563Y-16319603D01*
X18541134Y-16071984D02*
X18560182Y-16071984D01*
X18560182Y-16071984D02*
X18579229Y-16081508D01*
X18579229Y-16081508D02*
X18588753Y-16091031D01*
X18588753Y-16091031D02*
X18598277Y-16110079D01*
X18598277Y-16110079D02*
X18607801Y-16148174D01*
X18607801Y-16148174D02*
X18607801Y-16195793D01*
X18607801Y-16195793D02*
X18598277Y-16233888D01*
X18598277Y-16233888D02*
X18588753Y-16252936D01*
X18588753Y-16252936D02*
X18579229Y-16262460D01*
X18579229Y-16262460D02*
X18560182Y-16271984D01*
X18560182Y-16271984D02*
X18541134Y-16271984D01*
X18541134Y-16271984D02*
X18522087Y-16262460D01*
X18522087Y-16262460D02*
X18512563Y-16252936D01*
X18512563Y-16252936D02*
X18503039Y-16233888D01*
X18503039Y-16233888D02*
X18493515Y-16195793D01*
X18493515Y-16195793D02*
X18493515Y-16148174D01*
X18493515Y-16148174D02*
X18503039Y-16110079D01*
X18503039Y-16110079D02*
X18512563Y-16091031D01*
X18512563Y-16091031D02*
X18522087Y-16081508D01*
X18522087Y-16081508D02*
X18541134Y-16071984D01*
X18693515Y-16252936D02*
X18703039Y-16262460D01*
X18703039Y-16262460D02*
X18693515Y-16271984D01*
X18693515Y-16271984D02*
X18683991Y-16262460D01*
X18683991Y-16262460D02*
X18693515Y-16252936D01*
X18693515Y-16252936D02*
X18693515Y-16271984D01*
X18893515Y-16271984D02*
X18779229Y-16271984D01*
X18836372Y-16271984D02*
X18836372Y-16071984D01*
X18836372Y-16071984D02*
X18817325Y-16100555D01*
X18817325Y-16100555D02*
X18798277Y-16119603D01*
X18798277Y-16119603D02*
X18779229Y-16129127D01*
X18969706Y-16091031D02*
X18979229Y-16081508D01*
X18979229Y-16081508D02*
X18998277Y-16071984D01*
X18998277Y-16071984D02*
X19045896Y-16071984D01*
X19045896Y-16071984D02*
X19064944Y-16081508D01*
X19064944Y-16081508D02*
X19074468Y-16091031D01*
X19074468Y-16091031D02*
X19083991Y-16110079D01*
X19083991Y-16110079D02*
X19083991Y-16129127D01*
X19083991Y-16129127D02*
X19074468Y-16157698D01*
X19074468Y-16157698D02*
X18960182Y-16271984D01*
X18960182Y-16271984D02*
X19083991Y-16271984D01*
X19255420Y-16071984D02*
X19217325Y-16071984D01*
X19217325Y-16071984D02*
X19198277Y-16081508D01*
X19198277Y-16081508D02*
X19188753Y-16091031D01*
X19188753Y-16091031D02*
X19169706Y-16119603D01*
X19169706Y-16119603D02*
X19160182Y-16157698D01*
X19160182Y-16157698D02*
X19160182Y-16233888D01*
X19160182Y-16233888D02*
X19169706Y-16252936D01*
X19169706Y-16252936D02*
X19179229Y-16262460D01*
X19179229Y-16262460D02*
X19198277Y-16271984D01*
X19198277Y-16271984D02*
X19236372Y-16271984D01*
X19236372Y-16271984D02*
X19255420Y-16262460D01*
X19255420Y-16262460D02*
X19264944Y-16252936D01*
X19264944Y-16252936D02*
X19274468Y-16233888D01*
X19274468Y-16233888D02*
X19274468Y-16186269D01*
X19274468Y-16186269D02*
X19264944Y-16167222D01*
X19264944Y-16167222D02*
X19255420Y-16157698D01*
X19255420Y-16157698D02*
X19236372Y-16148174D01*
X19236372Y-16148174D02*
X19198277Y-16148174D01*
X19198277Y-16148174D02*
X19179229Y-16157698D01*
X19179229Y-16157698D02*
X19169706Y-16167222D01*
X19169706Y-16167222D02*
X19160182Y-16186269D01*
X19398277Y-16071984D02*
X19417325Y-16071984D01*
X19417325Y-16071984D02*
X19436372Y-16081508D01*
X19436372Y-16081508D02*
X19445896Y-16091031D01*
X19445896Y-16091031D02*
X19455420Y-16110079D01*
X19455420Y-16110079D02*
X19464944Y-16148174D01*
X19464944Y-16148174D02*
X19464944Y-16195793D01*
X19464944Y-16195793D02*
X19455420Y-16233888D01*
X19455420Y-16233888D02*
X19445896Y-16252936D01*
X19445896Y-16252936D02*
X19436372Y-16262460D01*
X19436372Y-16262460D02*
X19417325Y-16271984D01*
X19417325Y-16271984D02*
X19398277Y-16271984D01*
X19398277Y-16271984D02*
X19379229Y-16262460D01*
X19379229Y-16262460D02*
X19369706Y-16252936D01*
X19369706Y-16252936D02*
X19360182Y-16233888D01*
X19360182Y-16233888D02*
X19350658Y-16195793D01*
X19350658Y-16195793D02*
X19350658Y-16148174D01*
X19350658Y-16148174D02*
X19360182Y-16110079D01*
X19360182Y-16110079D02*
X19369706Y-16091031D01*
X19369706Y-16091031D02*
X19379229Y-16081508D01*
X19379229Y-16081508D02*
X19398277Y-16071984D01*
X19541134Y-16071984D02*
X19541134Y-16110079D01*
X19617325Y-16071984D02*
X19617325Y-16110079D01*
X19912563Y-16348174D02*
X19903039Y-16338650D01*
X19903039Y-16338650D02*
X19883991Y-16310079D01*
X19883991Y-16310079D02*
X19874468Y-16291031D01*
X19874468Y-16291031D02*
X19864944Y-16262460D01*
X19864944Y-16262460D02*
X19855420Y-16214841D01*
X19855420Y-16214841D02*
X19855420Y-16176746D01*
X19855420Y-16176746D02*
X19864944Y-16129127D01*
X19864944Y-16129127D02*
X19874468Y-16100555D01*
X19874468Y-16100555D02*
X19883991Y-16081508D01*
X19883991Y-16081508D02*
X19903039Y-16052936D01*
X19903039Y-16052936D02*
X19912563Y-16043412D01*
X20074468Y-16071984D02*
X20036372Y-16071984D01*
X20036372Y-16071984D02*
X20017325Y-16081508D01*
X20017325Y-16081508D02*
X20007801Y-16091031D01*
X20007801Y-16091031D02*
X19988753Y-16119603D01*
X19988753Y-16119603D02*
X19979230Y-16157698D01*
X19979230Y-16157698D02*
X19979230Y-16233888D01*
X19979230Y-16233888D02*
X19988753Y-16252936D01*
X19988753Y-16252936D02*
X19998277Y-16262460D01*
X19998277Y-16262460D02*
X20017325Y-16271984D01*
X20017325Y-16271984D02*
X20055420Y-16271984D01*
X20055420Y-16271984D02*
X20074468Y-16262460D01*
X20074468Y-16262460D02*
X20083991Y-16252936D01*
X20083991Y-16252936D02*
X20093515Y-16233888D01*
X20093515Y-16233888D02*
X20093515Y-16186269D01*
X20093515Y-16186269D02*
X20083991Y-16167222D01*
X20083991Y-16167222D02*
X20074468Y-16157698D01*
X20074468Y-16157698D02*
X20055420Y-16148174D01*
X20055420Y-16148174D02*
X20017325Y-16148174D01*
X20017325Y-16148174D02*
X19998277Y-16157698D01*
X19998277Y-16157698D02*
X19988753Y-16167222D01*
X19988753Y-16167222D02*
X19979230Y-16186269D01*
X20331611Y-16271984D02*
X20331611Y-16071984D01*
X20417325Y-16271984D02*
X20417325Y-16167222D01*
X20417325Y-16167222D02*
X20407801Y-16148174D01*
X20407801Y-16148174D02*
X20388753Y-16138650D01*
X20388753Y-16138650D02*
X20360182Y-16138650D01*
X20360182Y-16138650D02*
X20341134Y-16148174D01*
X20341134Y-16148174D02*
X20331611Y-16157698D01*
X20541134Y-16271984D02*
X20522087Y-16262460D01*
X20522087Y-16262460D02*
X20512563Y-16252936D01*
X20512563Y-16252936D02*
X20503039Y-16233888D01*
X20503039Y-16233888D02*
X20503039Y-16176746D01*
X20503039Y-16176746D02*
X20512563Y-16157698D01*
X20512563Y-16157698D02*
X20522087Y-16148174D01*
X20522087Y-16148174D02*
X20541134Y-16138650D01*
X20541134Y-16138650D02*
X20569706Y-16138650D01*
X20569706Y-16138650D02*
X20588753Y-16148174D01*
X20588753Y-16148174D02*
X20598277Y-16157698D01*
X20598277Y-16157698D02*
X20607801Y-16176746D01*
X20607801Y-16176746D02*
X20607801Y-16233888D01*
X20607801Y-16233888D02*
X20598277Y-16252936D01*
X20598277Y-16252936D02*
X20588753Y-16262460D01*
X20588753Y-16262460D02*
X20569706Y-16271984D01*
X20569706Y-16271984D02*
X20541134Y-16271984D01*
X20722087Y-16271984D02*
X20703039Y-16262460D01*
X20703039Y-16262460D02*
X20693515Y-16243412D01*
X20693515Y-16243412D02*
X20693515Y-16071984D01*
X20874468Y-16262460D02*
X20855420Y-16271984D01*
X20855420Y-16271984D02*
X20817325Y-16271984D01*
X20817325Y-16271984D02*
X20798277Y-16262460D01*
X20798277Y-16262460D02*
X20788753Y-16243412D01*
X20788753Y-16243412D02*
X20788753Y-16167222D01*
X20788753Y-16167222D02*
X20798277Y-16148174D01*
X20798277Y-16148174D02*
X20817325Y-16138650D01*
X20817325Y-16138650D02*
X20855420Y-16138650D01*
X20855420Y-16138650D02*
X20874468Y-16148174D01*
X20874468Y-16148174D02*
X20883992Y-16167222D01*
X20883992Y-16167222D02*
X20883992Y-16186269D01*
X20883992Y-16186269D02*
X20788753Y-16205317D01*
X20960182Y-16262460D02*
X20979230Y-16271984D01*
X20979230Y-16271984D02*
X21017325Y-16271984D01*
X21017325Y-16271984D02*
X21036373Y-16262460D01*
X21036373Y-16262460D02*
X21045896Y-16243412D01*
X21045896Y-16243412D02*
X21045896Y-16233888D01*
X21045896Y-16233888D02*
X21036373Y-16214841D01*
X21036373Y-16214841D02*
X21017325Y-16205317D01*
X21017325Y-16205317D02*
X20988753Y-16205317D01*
X20988753Y-16205317D02*
X20969706Y-16195793D01*
X20969706Y-16195793D02*
X20960182Y-16176746D01*
X20960182Y-16176746D02*
X20960182Y-16167222D01*
X20960182Y-16167222D02*
X20969706Y-16148174D01*
X20969706Y-16148174D02*
X20988753Y-16138650D01*
X20988753Y-16138650D02*
X21017325Y-16138650D01*
X21017325Y-16138650D02*
X21036373Y-16148174D01*
X21112563Y-16348174D02*
X21122087Y-16338650D01*
X21122087Y-16338650D02*
X21141134Y-16310079D01*
X21141134Y-16310079D02*
X21150658Y-16291031D01*
X21150658Y-16291031D02*
X21160182Y-16262460D01*
X21160182Y-16262460D02*
X21169706Y-16214841D01*
X21169706Y-16214841D02*
X21169706Y-16176746D01*
X21169706Y-16176746D02*
X21160182Y-16129127D01*
X21160182Y-16129127D02*
X21150658Y-16100555D01*
X21150658Y-16100555D02*
X21141134Y-16081508D01*
X21141134Y-16081508D02*
X21122087Y-16052936D01*
X21122087Y-16052936D02*
X21112563Y-16043412D01*
X21474468Y-16348174D02*
X21464944Y-16338650D01*
X21464944Y-16338650D02*
X21445896Y-16310079D01*
X21445896Y-16310079D02*
X21436373Y-16291031D01*
X21436373Y-16291031D02*
X21426849Y-16262460D01*
X21426849Y-16262460D02*
X21417325Y-16214841D01*
X21417325Y-16214841D02*
X21417325Y-16176746D01*
X21417325Y-16176746D02*
X21426849Y-16129127D01*
X21426849Y-16129127D02*
X21436373Y-16100555D01*
X21436373Y-16100555D02*
X21445896Y-16081508D01*
X21445896Y-16081508D02*
X21464944Y-16052936D01*
X21464944Y-16052936D02*
X21474468Y-16043412D01*
X21550658Y-16138650D02*
X21550658Y-16271984D01*
X21550658Y-16157698D02*
X21560182Y-16148174D01*
X21560182Y-16148174D02*
X21579230Y-16138650D01*
X21579230Y-16138650D02*
X21607801Y-16138650D01*
X21607801Y-16138650D02*
X21626849Y-16148174D01*
X21626849Y-16148174D02*
X21636373Y-16167222D01*
X21636373Y-16167222D02*
X21636373Y-16271984D01*
X21760182Y-16271984D02*
X21741134Y-16262460D01*
X21741134Y-16262460D02*
X21731611Y-16252936D01*
X21731611Y-16252936D02*
X21722087Y-16233888D01*
X21722087Y-16233888D02*
X21722087Y-16176746D01*
X21722087Y-16176746D02*
X21731611Y-16157698D01*
X21731611Y-16157698D02*
X21741134Y-16148174D01*
X21741134Y-16148174D02*
X21760182Y-16138650D01*
X21760182Y-16138650D02*
X21788754Y-16138650D01*
X21788754Y-16138650D02*
X21807801Y-16148174D01*
X21807801Y-16148174D02*
X21817325Y-16157698D01*
X21817325Y-16157698D02*
X21826849Y-16176746D01*
X21826849Y-16176746D02*
X21826849Y-16233888D01*
X21826849Y-16233888D02*
X21817325Y-16252936D01*
X21817325Y-16252936D02*
X21807801Y-16262460D01*
X21807801Y-16262460D02*
X21788754Y-16271984D01*
X21788754Y-16271984D02*
X21760182Y-16271984D01*
X21883992Y-16138650D02*
X21960182Y-16138650D01*
X21912563Y-16071984D02*
X21912563Y-16243412D01*
X21912563Y-16243412D02*
X21922087Y-16262460D01*
X21922087Y-16262460D02*
X21941134Y-16271984D01*
X21941134Y-16271984D02*
X21960182Y-16271984D01*
X22179230Y-16138650D02*
X22179230Y-16338650D01*
X22179230Y-16148174D02*
X22198277Y-16138650D01*
X22198277Y-16138650D02*
X22236373Y-16138650D01*
X22236373Y-16138650D02*
X22255420Y-16148174D01*
X22255420Y-16148174D02*
X22264944Y-16157698D01*
X22264944Y-16157698D02*
X22274468Y-16176746D01*
X22274468Y-16176746D02*
X22274468Y-16233888D01*
X22274468Y-16233888D02*
X22264944Y-16252936D01*
X22264944Y-16252936D02*
X22255420Y-16262460D01*
X22255420Y-16262460D02*
X22236373Y-16271984D01*
X22236373Y-16271984D02*
X22198277Y-16271984D01*
X22198277Y-16271984D02*
X22179230Y-16262460D01*
X22388753Y-16271984D02*
X22369706Y-16262460D01*
X22369706Y-16262460D02*
X22360182Y-16243412D01*
X22360182Y-16243412D02*
X22360182Y-16071984D01*
X22550658Y-16271984D02*
X22550658Y-16167222D01*
X22550658Y-16167222D02*
X22541134Y-16148174D01*
X22541134Y-16148174D02*
X22522087Y-16138650D01*
X22522087Y-16138650D02*
X22483992Y-16138650D01*
X22483992Y-16138650D02*
X22464944Y-16148174D01*
X22550658Y-16262460D02*
X22531611Y-16271984D01*
X22531611Y-16271984D02*
X22483992Y-16271984D01*
X22483992Y-16271984D02*
X22464944Y-16262460D01*
X22464944Y-16262460D02*
X22455420Y-16243412D01*
X22455420Y-16243412D02*
X22455420Y-16224365D01*
X22455420Y-16224365D02*
X22464944Y-16205317D01*
X22464944Y-16205317D02*
X22483992Y-16195793D01*
X22483992Y-16195793D02*
X22531611Y-16195793D01*
X22531611Y-16195793D02*
X22550658Y-16186269D01*
X22617325Y-16138650D02*
X22693515Y-16138650D01*
X22645896Y-16071984D02*
X22645896Y-16243412D01*
X22645896Y-16243412D02*
X22655420Y-16262460D01*
X22655420Y-16262460D02*
X22674468Y-16271984D01*
X22674468Y-16271984D02*
X22693515Y-16271984D01*
X22836373Y-16262460D02*
X22817325Y-16271984D01*
X22817325Y-16271984D02*
X22779230Y-16271984D01*
X22779230Y-16271984D02*
X22760182Y-16262460D01*
X22760182Y-16262460D02*
X22750658Y-16243412D01*
X22750658Y-16243412D02*
X22750658Y-16167222D01*
X22750658Y-16167222D02*
X22760182Y-16148174D01*
X22760182Y-16148174D02*
X22779230Y-16138650D01*
X22779230Y-16138650D02*
X22817325Y-16138650D01*
X22817325Y-16138650D02*
X22836373Y-16148174D01*
X22836373Y-16148174D02*
X22845896Y-16167222D01*
X22845896Y-16167222D02*
X22845896Y-16186269D01*
X22845896Y-16186269D02*
X22750658Y-16205317D01*
X23017325Y-16271984D02*
X23017325Y-16071984D01*
X23017325Y-16262460D02*
X22998277Y-16271984D01*
X22998277Y-16271984D02*
X22960182Y-16271984D01*
X22960182Y-16271984D02*
X22941134Y-16262460D01*
X22941134Y-16262460D02*
X22931611Y-16252936D01*
X22931611Y-16252936D02*
X22922087Y-16233888D01*
X22922087Y-16233888D02*
X22922087Y-16176746D01*
X22922087Y-16176746D02*
X22931611Y-16157698D01*
X22931611Y-16157698D02*
X22941134Y-16148174D01*
X22941134Y-16148174D02*
X22960182Y-16138650D01*
X22960182Y-16138650D02*
X22998277Y-16138650D01*
X22998277Y-16138650D02*
X23017325Y-16148174D01*
X23093515Y-16348174D02*
X23103039Y-16338650D01*
X23103039Y-16338650D02*
X23122087Y-16310079D01*
X23122087Y-16310079D02*
X23131611Y-16291031D01*
X23131611Y-16291031D02*
X23141134Y-16262460D01*
X23141134Y-16262460D02*
X23150658Y-16214841D01*
X23150658Y-16214841D02*
X23150658Y-16176746D01*
X23150658Y-16176746D02*
X23141134Y-16129127D01*
X23141134Y-16129127D02*
X23131611Y-16100555D01*
X23131611Y-16100555D02*
X23122087Y-16081508D01*
X23122087Y-16081508D02*
X23103039Y-16052936D01*
X23103039Y-16052936D02*
X23093515Y-16043412D01*
M02*
