%TF.GenerationSoftware,KiCad,Pcbnew,10.0.0*%
%TF.CreationDate,2026-08-31T15:54:59-05:00*%
%TF.ProjectId,shield_arduino,73686965-6c64-45f6-9172-6475696e6f2e,rev?*%
%TF.SameCoordinates,Original*%
%TF.FileFunction,Copper,L2,Bot*%
%TF.FilePolarity,Positive*%
%FSLAX46Y46*%
G04 Gerber Fmt 4.6, Leading zero omitted, Abs format (unit mm)*
G04 Created by KiCad (PCBNEW 10.0.0) date 2026-08-31 15:54:59*
%MOMM*%
%LPD*%
G01*
G04 APERTURE LIST*
G04 Aperture macros list*
%AMRoundRect*
0 Rectangle with rounded corners*
0 $1 Rounding radius*
0 $2 $3 $4 $5 $6 $7 $8 $9 X,Y pos of 4 corners*
0 Add a 4 corners polygon primitive as box body*
4,1,4,$2,$3,$4,$5,$6,$7,$8,$9,$2,$3,0*
0 Add four circle primitives for the rounded corners*
1,1,$1+$1,$2,$3*
1,1,$1+$1,$4,$5*
1,1,$1+$1,$6,$7*
1,1,$1+$1,$8,$9*
0 Add four rect primitives between the rounded corners*
20,1,$1+$1,$2,$3,$4,$5,0*
20,1,$1+$1,$4,$5,$6,$7,0*
20,1,$1+$1,$6,$7,$8,$9,0*
20,1,$1+$1,$8,$9,$2,$3,0*%
G04 Aperture macros list end*
%TA.AperFunction,ComponentPad*%
%ADD10O,1.727200X1.727200*%
%TD*%
%TA.AperFunction,ComponentPad*%
%ADD11R,1.727200X1.727200*%
%TD*%
%TA.AperFunction,ComponentPad*%
%ADD12R,1.700000X1.700000*%
%TD*%
%TA.AperFunction,ComponentPad*%
%ADD13C,1.700000*%
%TD*%
%TA.AperFunction,ComponentPad*%
%ADD14C,1.600000*%
%TD*%
%TA.AperFunction,ComponentPad*%
%ADD15RoundRect,0.250000X0.550000X0.550000X-0.550000X0.550000X-0.550000X-0.550000X0.550000X-0.550000X0*%
%TD*%
%TA.AperFunction,ComponentPad*%
%ADD16R,1.050000X1.500000*%
%TD*%
%TA.AperFunction,ComponentPad*%
%ADD17O,1.050000X1.500000*%
%TD*%
%TA.AperFunction,ComponentPad*%
%ADD18C,2.000000*%
%TD*%
%TA.AperFunction,ComponentPad*%
%ADD19R,3.000000X3.000000*%
%TD*%
%TA.AperFunction,ComponentPad*%
%ADD20C,3.000000*%
%TD*%
%TA.AperFunction,ComponentPad*%
%ADD21R,1.800000X1.800000*%
%TD*%
%TA.AperFunction,ComponentPad*%
%ADD22C,1.800000*%
%TD*%
%TA.AperFunction,Conductor*%
%ADD23C,0.500000*%
%TD*%
%TA.AperFunction,Conductor*%
%ADD24C,0.800000*%
%TD*%
G04 APERTURE END LIST*
D10*
%TO.P,A1,VIN,VIN_VIN*%
%TO.N,unconnected-(A1-PadVIN)*%
X165900000Y-84250000D03*
%TO.P,A1,SDA,SDA_SDA*%
%TO.N,Net-(J1-Pin_3)*%
X214160000Y-59866000D03*
%TO.P,A1,SCL,SCL_SCL*%
%TO.N,Net-(J1-Pin_4)*%
X214160000Y-57326000D03*
%TO.P,A1,SCK,SPI_SCK_SCK*%
%TO.N,/CLK*%
X191300000Y-102157000D03*
%TO.P,A1,RST2,SPI_RESET_RST2*%
%TO.N,unconnected-(A1-SPI_RESET-PadRST2)*%
X188760000Y-102157000D03*
%TO.P,A1,RST1,RESET_RST1*%
%TO.N,Net-(A1-RESET)*%
X165900000Y-71550000D03*
%TO.P,A1,MOSI,SPI_MOSI_MOSI*%
%TO.N,/DIN*%
X191300000Y-104697000D03*
%TO.P,A1,MISO,SPI_MISO_MISO*%
%TO.N,unconnected-(A1-SPI_MISO-PadMISO)*%
X193840000Y-102157000D03*
%TO.P,A1,IORF,IOREF_IORF*%
%TO.N,unconnected-(A1-IOREF-PadIORF)*%
X165900000Y-69010000D03*
D11*
%TO.P,A1,GND6,GND_GND6*%
%TO.N,unconnected-(A1-GND-PadGND6)*%
X170980000Y-135050000D03*
%TO.P,A1,GND5,GND_GND5*%
%TO.N,unconnected-(A1-GND-PadGND5)*%
X170980000Y-132510000D03*
%TO.P,A1,GND4,SPI_GND_GND4*%
%TO.N,GND*%
X188760000Y-104697000D03*
%TO.P,A1,GND3,GND_GND3*%
%TO.N,unconnected-(A1-GND-PadGND3)*%
X165900000Y-81710000D03*
%TO.P,A1,GND2,GND_GND2*%
%TO.N,GND*%
X165900000Y-79170000D03*
%TO.P,A1,GND1,GND_GND1*%
X214160000Y-64946000D03*
D10*
%TO.P,A1,D53,D53_CS_D53*%
%TO.N,unconnected-(A1-D53_CS-PadD53)*%
X173520000Y-135050000D03*
%TO.P,A1,D52,D52_SCK_D52*%
%TO.N,unconnected-(A1-D52_SCK-PadD52)*%
X173520000Y-132510000D03*
%TO.P,A1,D51,D51_MOSI_D51*%
%TO.N,unconnected-(A1-D51_MOSI-PadD51)*%
X176060000Y-135050000D03*
%TO.P,A1,D50,D50_MISO_D50*%
%TO.N,unconnected-(A1-D50_MISO-PadD50)*%
X176060000Y-132510000D03*
%TO.P,A1,D49,D49_D49*%
%TO.N,unconnected-(A1-PadD49)*%
X178600000Y-135050000D03*
%TO.P,A1,D48,D48_D48*%
%TO.N,unconnected-(A1-PadD48)*%
X178600000Y-132510000D03*
%TO.P,A1,D47,D47_D47*%
%TO.N,unconnected-(A1-PadD47)*%
X181140000Y-135050000D03*
%TO.P,A1,D46,D46_D46*%
%TO.N,unconnected-(A1-PadD46)*%
X181140000Y-132510000D03*
%TO.P,A1,D45,D45_D45*%
%TO.N,unconnected-(A1-PadD45)*%
X183680000Y-135050000D03*
%TO.P,A1,D44,D44_D44*%
%TO.N,unconnected-(A1-PadD44)*%
X183680000Y-132510000D03*
%TO.P,A1,D43,D43_D43*%
%TO.N,unconnected-(A1-PadD43)*%
X186220000Y-135050000D03*
%TO.P,A1,D42,D42_D42*%
%TO.N,unconnected-(A1-PadD42)*%
X186220000Y-132510000D03*
%TO.P,A1,D41,D41_D41*%
%TO.N,unconnected-(A1-PadD41)*%
X188760000Y-135050000D03*
%TO.P,A1,D40,D40_D40*%
%TO.N,unconnected-(A1-PadD40)*%
X188760000Y-132510000D03*
%TO.P,A1,D39,D39_D39*%
%TO.N,unconnected-(A1-PadD39)*%
X191300000Y-135050000D03*
%TO.P,A1,D38,D38_D38*%
%TO.N,unconnected-(A1-PadD38)*%
X191300000Y-132510000D03*
%TO.P,A1,D37,D37_D37*%
%TO.N,unconnected-(A1-PadD37)*%
X193840000Y-135050000D03*
%TO.P,A1,D36,D36_D36*%
%TO.N,unconnected-(A1-PadD36)*%
X193840000Y-132510000D03*
%TO.P,A1,D35,D35_D35*%
%TO.N,unconnected-(A1-PadD35)*%
X196380000Y-135050000D03*
%TO.P,A1,D34,D34_D34*%
%TO.N,unconnected-(A1-PadD34)*%
X196380000Y-132510000D03*
%TO.P,A1,D33,D33_D33*%
%TO.N,unconnected-(A1-PadD33)*%
X198920000Y-135050000D03*
%TO.P,A1,D32,D32_D32*%
%TO.N,unconnected-(A1-PadD32)*%
X198920000Y-132510000D03*
%TO.P,A1,D31,D31_D31*%
%TO.N,unconnected-(A1-PadD31)*%
X201460000Y-135050000D03*
%TO.P,A1,D30,D30_D30*%
%TO.N,unconnected-(A1-PadD30)*%
X201460000Y-132510000D03*
%TO.P,A1,D29,D29_D29*%
%TO.N,unconnected-(A1-PadD29)*%
X204000000Y-135050000D03*
%TO.P,A1,D28,D28_D28*%
%TO.N,unconnected-(A1-PadD28)*%
X204000000Y-132510000D03*
%TO.P,A1,D27,D27_D27*%
%TO.N,unconnected-(A1-PadD27)*%
X206540000Y-135050000D03*
%TO.P,A1,D26,D26_D26*%
%TO.N,unconnected-(A1-PadD26)*%
X206540000Y-132510000D03*
%TO.P,A1,D25,D25_D25*%
%TO.N,unconnected-(A1-PadD25)*%
X209080000Y-135050000D03*
%TO.P,A1,D24,D24_D24*%
%TO.N,unconnected-(A1-PadD24)*%
X209080000Y-132510000D03*
%TO.P,A1,D23,D23_D23*%
%TO.N,unconnected-(A1-PadD23)*%
X211620000Y-135050000D03*
%TO.P,A1,D22,D22_D22*%
%TO.N,unconnected-(A1-PadD22)*%
X211620000Y-132510000D03*
%TO.P,A1,D21,D21/SCL_D21*%
%TO.N,unconnected-(A1-D21{slash}SCL-PadD21)*%
X214160000Y-124890000D03*
%TO.P,A1,D20,D20/SDA_D20*%
%TO.N,unconnected-(A1-D20{slash}SDA-PadD20)*%
X214160000Y-122350000D03*
%TO.P,A1,D19,D19/RX1_D19*%
%TO.N,unconnected-(A1-D19{slash}RX1-PadD19)*%
X214160000Y-119810000D03*
%TO.P,A1,D18,D18/TX1_D18*%
%TO.N,unconnected-(A1-D18{slash}TX1-PadD18)*%
X214160000Y-117270000D03*
%TO.P,A1,D17,D17/RX2_D17*%
%TO.N,unconnected-(A1-D17{slash}RX2-PadD17)*%
X214160000Y-114730000D03*
%TO.P,A1,D16,D16/TX2_D16*%
%TO.N,unconnected-(A1-D16{slash}TX2-PadD16)*%
X214160000Y-112190000D03*
%TO.P,A1,D15,D15/RX3_D15*%
%TO.N,unconnected-(A1-D15{slash}RX3-PadD15)*%
X214160000Y-109650000D03*
%TO.P,A1,D14,D14/TX3_D14*%
%TO.N,unconnected-(A1-D14{slash}TX3-PadD14)*%
X214160000Y-107110000D03*
%TO.P,A1,D13,D13_D13*%
%TO.N,unconnected-(A1-PadD13)*%
X214160000Y-67486000D03*
%TO.P,A1,D12,D12_D12*%
%TO.N,unconnected-(A1-PadD12)*%
X214160000Y-70026000D03*
%TO.P,A1,D11,D11_D11*%
%TO.N,Net-(A1-PadD11)*%
X214160000Y-72566000D03*
%TO.P,A1,D10,D10_D10*%
%TO.N,unconnected-(A1-PadD10)*%
X214160000Y-75106000D03*
%TO.P,A1,D9,D9_D9*%
%TO.N,unconnected-(A1-PadD9)*%
X214160000Y-77646000D03*
%TO.P,A1,D8,D8_D8*%
%TO.N,Net-(J4-Pin_4)*%
X214160000Y-80186000D03*
%TO.P,A1,D7,D7_D7*%
%TO.N,Net-(J4-Pin_3)*%
X214160000Y-84250000D03*
%TO.P,A1,D6,D6_D6*%
%TO.N,unconnected-(A1-PadD6)*%
X214160000Y-86790000D03*
%TO.P,A1,D5,D5_D5*%
%TO.N,/DC*%
X214160000Y-89330000D03*
%TO.P,A1,D4,D4_D4*%
%TO.N,/CE*%
X214160000Y-91870000D03*
%TO.P,A1,D3,D3_INT1_D3*%
%TO.N,/RST*%
X214160000Y-94410000D03*
%TO.P,A1,D2,D2_INT0_D2*%
%TO.N,unconnected-(A1-D2_INT0-PadD2)*%
X214160000Y-96950000D03*
%TO.P,A1,D1,D1/TX0_D1*%
%TO.N,unconnected-(A1-D1{slash}TX0-PadD1)*%
X214160000Y-99490000D03*
%TO.P,A1,D0,D0/RX0_D0*%
%TO.N,unconnected-(A1-D0{slash}RX0-PadD0)*%
X214160000Y-102030000D03*
%TO.P,A1,AREF,AREF_AREF*%
%TO.N,unconnected-(A1-PadAREF)*%
X214160000Y-62406000D03*
%TO.P,A1,A15,A15_A15*%
%TO.N,unconnected-(A1-PadA15)*%
X165900000Y-129970000D03*
%TO.P,A1,A14,A14_A14*%
%TO.N,unconnected-(A1-PadA14)*%
X165900000Y-127430000D03*
%TO.P,A1,A13,A13_A13*%
%TO.N,unconnected-(A1-PadA13)*%
X165900000Y-124890000D03*
%TO.P,A1,A12,A12_A12*%
%TO.N,unconnected-(A1-PadA12)*%
X165900000Y-122350000D03*
%TO.P,A1,A11,A11_A11*%
%TO.N,unconnected-(A1-PadA11)*%
X165900000Y-119810000D03*
%TO.P,A1,A10,A10_A10*%
%TO.N,unconnected-(A1-PadA10)*%
X165900000Y-117270000D03*
%TO.P,A1,A9,A9_A9*%
%TO.N,unconnected-(A1-PadA9)*%
X165900000Y-114730000D03*
%TO.P,A1,A8,A8_A8*%
%TO.N,unconnected-(A1-PadA8)*%
X165900000Y-112190000D03*
%TO.P,A1,A7,A7_A7*%
%TO.N,unconnected-(A1-PadA7)*%
X165900000Y-107110000D03*
%TO.P,A1,A6,A6_A6*%
%TO.N,unconnected-(A1-PadA6)*%
X165900000Y-104570000D03*
%TO.P,A1,A5,A5_A5*%
%TO.N,unconnected-(A1-PadA5)*%
X165900000Y-102030000D03*
%TO.P,A1,A4,A4_A4*%
%TO.N,unconnected-(A1-PadA4)*%
X165900000Y-99490000D03*
%TO.P,A1,A3,A3_A3*%
%TO.N,unconnected-(A1-PadA3)*%
X165900000Y-96950000D03*
%TO.P,A1,A2,A2_A2*%
%TO.N,unconnected-(A1-PadA2)*%
X165900000Y-94410000D03*
%TO.P,A1,A1,A1_A1*%
%TO.N,unconnected-(A1-PadA1)*%
X165900000Y-91870000D03*
%TO.P,A1,A0,A0_A0*%
%TO.N,Net-(A1-PadA0)*%
X165900000Y-89330000D03*
%TO.P,A1,5V4,5V_5V4*%
%TO.N,unconnected-(A1-5V-Pad5V4)*%
X214160000Y-135050000D03*
%TO.P,A1,5V3,5V_5V3*%
%TO.N,unconnected-(A1-5V-Pad5V3)*%
X214160000Y-132510000D03*
%TO.P,A1,5V2,SPI_5V_5V2*%
%TO.N,+5V*%
X193840000Y-104697000D03*
%TO.P,A1,5V1,5V_5V1*%
X165900000Y-76630000D03*
%TO.P,A1,3V3,3.3V_3V3*%
%TO.N,unconnected-(A1-3.3V-Pad3V3)*%
X165900000Y-74090000D03*
%TO.P,A1,*%
%TO.N,*%
X165900000Y-66470000D03*
%TD*%
D12*
%TO.P,J4,1,Pin_1_1*%
%TO.N,GND*%
X202380000Y-77000000D03*
D13*
%TO.P,J4,2,Pin_2_2*%
%TO.N,+5V*%
X204920000Y-77000000D03*
%TO.P,J4,3,Pin_3_3*%
%TO.N,Net-(J4-Pin_3)*%
X207460000Y-77000000D03*
%TO.P,J4,4,Pin_4_4*%
%TO.N,Net-(J4-Pin_4)*%
X210000000Y-77000000D03*
%TD*%
D12*
%TO.P,J1,1,Pin_1_1*%
%TO.N,GND*%
X193000000Y-48810000D03*
D13*
%TO.P,J1,2,Pin_2_2*%
%TO.N,+5V*%
X193000000Y-46270000D03*
%TO.P,J1,3,Pin_3_3*%
%TO.N,Net-(J1-Pin_3)*%
X193000000Y-43730000D03*
%TO.P,J1,4,Pin_4_4*%
%TO.N,Net-(J1-Pin_4)*%
X193000000Y-41190000D03*
%TD*%
D14*
%TO.P,R1,1*%
%TO.N,Net-(Q1-B)*%
X189300000Y-76580000D03*
%TO.P,R1,2*%
%TO.N,Net-(R1-Pad2)*%
X189300000Y-66420000D03*
%TD*%
D15*
%TO.P,C1,1*%
%TO.N,Net-(U1A-+)*%
X206605113Y-56100000D03*
D14*
%TO.P,C1,2*%
%TO.N,GND*%
X204105113Y-56100000D03*
%TD*%
D12*
%TO.P,J3,1,Pin_1_1*%
%TO.N,Net-(J3-Pin_1)*%
X182110000Y-128000000D03*
D13*
%TO.P,J3,2,Pin_2_2*%
%TO.N,Net-(J3-Pin_2)*%
X184650000Y-128000000D03*
%TO.P,J3,3,Pin_3_3*%
%TO.N,Net-(J3-Pin_3)*%
X187190000Y-128000000D03*
%TO.P,J3,4,Pin_4_4*%
%TO.N,Net-(J3-Pin_4)*%
X189730000Y-128000000D03*
%TO.P,J3,5,Pin_5_5*%
%TO.N,Net-(J3-Pin_5)*%
X192270000Y-128000000D03*
%TO.P,J3,6,Pin_6_6*%
%TO.N,+5V*%
X194810000Y-128000000D03*
%TO.P,J3,7,Pin_7_7*%
%TO.N,GND*%
X197350000Y-128000000D03*
%TO.P,J3,8,Pin_8_8*%
X199890000Y-128000000D03*
%TD*%
D14*
%TO.P,R7,1*%
%TO.N,/DC*%
X194080000Y-116500000D03*
%TO.P,R7,2*%
%TO.N,Net-(J3-Pin_3)*%
X183920000Y-116500000D03*
%TD*%
D16*
%TO.P,Q1,1,E_1*%
%TO.N,Net-(Q1-E)*%
X197470000Y-73100000D03*
D17*
%TO.P,Q1,2,B_2*%
%TO.N,Net-(Q1-B)*%
X196200000Y-73100000D03*
%TO.P,Q1,3,C_3*%
%TO.N,Net-(D1-K)*%
X194930000Y-73100000D03*
%TD*%
D14*
%TO.P,R4,1*%
%TO.N,Net-(U1A--)*%
X200900000Y-64580000D03*
%TO.P,R4,2*%
%TO.N,Net-(U1B-+)*%
X200900000Y-54420000D03*
%TD*%
%TO.P,R10,1*%
%TO.N,/CE*%
X194580000Y-121000000D03*
%TO.P,R10,2*%
%TO.N,Net-(J3-Pin_2)*%
X184420000Y-121000000D03*
%TD*%
%TO.P,R5,1*%
%TO.N,Net-(U1B-+)*%
X185900000Y-53720000D03*
%TO.P,R5,2*%
%TO.N,GND*%
X185900000Y-63880000D03*
%TD*%
%TO.P,R3,1*%
%TO.N,Net-(Q1-E)*%
X204500000Y-73580000D03*
%TO.P,R3,2*%
%TO.N,GND*%
X204500000Y-63420000D03*
%TD*%
D18*
%TO.P,SW1,2,2_2*%
%TO.N,Net-(A1-RESET)*%
X182500000Y-49000000D03*
X182500000Y-42500000D03*
%TO.P,SW1,1,1_1*%
%TO.N,GND*%
X187000000Y-49000000D03*
X187000000Y-42500000D03*
%TD*%
D19*
%TO.P,RV1,1,1_1*%
%TO.N,+5V*%
X171000000Y-47000000D03*
D20*
%TO.P,RV1,2,2_2*%
%TO.N,Net-(A1-PadA0)*%
X171000000Y-52000000D03*
%TO.P,RV1,3,3_3*%
%TO.N,GND*%
X171000000Y-57000000D03*
%TD*%
D15*
%TO.P,U1,1*%
%TO.N,Net-(U1A--)*%
X197510000Y-62910000D03*
D14*
%TO.P,U1,2,-_2*%
X197510000Y-60370000D03*
%TO.P,U1,3,+_3*%
%TO.N,Net-(U1A-+)*%
X197510000Y-57830000D03*
%TO.P,U1,4,V-_4*%
%TO.N,GND*%
X197510000Y-55290000D03*
%TO.P,U1,5,+_5*%
%TO.N,Net-(U1B-+)*%
X189890000Y-55290000D03*
%TO.P,U1,6,-_6*%
%TO.N,Net-(Q1-E)*%
X189890000Y-57830000D03*
%TO.P,U1,7*%
%TO.N,Net-(R1-Pad2)*%
X189890000Y-60370000D03*
%TO.P,U1,8,V+_8*%
%TO.N,+5V*%
X189890000Y-62910000D03*
%TD*%
D12*
%TO.P,J2,1,Pin_1_1*%
%TO.N,+5V*%
X176125000Y-74330000D03*
D13*
%TO.P,J2,2,Pin_2_2*%
%TO.N,Net-(D1-K)*%
X178665000Y-74330000D03*
%TD*%
D14*
%TO.P,R8,1*%
%TO.N,/DIN*%
X186080000Y-108500000D03*
%TO.P,R8,2*%
%TO.N,Net-(J3-Pin_4)*%
X175920000Y-108500000D03*
%TD*%
%TO.P,R9,1*%
%TO.N,/CLK*%
X185580000Y-99000000D03*
%TO.P,R9,2*%
%TO.N,Net-(J3-Pin_5)*%
X175420000Y-99000000D03*
%TD*%
D21*
%TO.P,D1,1,K_1*%
%TO.N,Net-(D1-K)*%
X177600000Y-69000000D03*
D22*
%TO.P,D1,2,A_2*%
%TO.N,+5V*%
X177600000Y-66460000D03*
%TD*%
D14*
%TO.P,R2,1*%
%TO.N,Net-(U1A-+)*%
X209100000Y-63420000D03*
%TO.P,R2,2*%
%TO.N,Net-(A1-PadD11)*%
X209100000Y-73580000D03*
%TD*%
%TO.P,R6,1*%
%TO.N,/RST*%
X192580000Y-111500000D03*
%TO.P,R6,2*%
%TO.N,Net-(J3-Pin_1)*%
X182420000Y-111500000D03*
%TD*%
%TO.N,+5V*%
D23*
X173200000Y-73005000D02*
X174525000Y-74330000D01*
X173200000Y-68330000D02*
X173200000Y-73005000D01*
X175070000Y-66460000D02*
X173200000Y-68330000D01*
X174525000Y-74330000D02*
X176125000Y-74330000D01*
X177600000Y-66460000D02*
X175070000Y-66460000D01*
X186300000Y-66500000D02*
X189890000Y-62910000D01*
X179870000Y-66460000D02*
X179910000Y-66500000D01*
X177600000Y-66460000D02*
X179870000Y-66460000D01*
X179910000Y-66500000D02*
X186300000Y-66500000D01*
%TO.N,Net-(D1-K)*%
X179805000Y-75470000D02*
X178665000Y-74330000D01*
X185330000Y-75470000D02*
X179805000Y-75470000D01*
%TO.N,+5V*%
X176125000Y-95125000D02*
X176125000Y-74330000D01*
X177750000Y-96750000D02*
X176125000Y-95125000D01*
%TO.N,Net-(J4-Pin_4)*%
X213186000Y-80186000D02*
X214160000Y-80186000D01*
X210000000Y-77000000D02*
X213186000Y-80186000D01*
%TO.N,Net-(J4-Pin_3)*%
X209750000Y-84250000D02*
X207460000Y-81960000D01*
X207460000Y-81960000D02*
X207460000Y-77000000D01*
X214160000Y-84250000D02*
X209750000Y-84250000D01*
%TO.N,+5V*%
X204920000Y-95580000D02*
X204920000Y-77000000D01*
X200500000Y-100000000D02*
X204920000Y-95580000D01*
X194500000Y-100000000D02*
X200500000Y-100000000D01*
%TO.N,GND*%
X206500000Y-74000000D02*
X206500000Y-66820000D01*
X205500000Y-75000000D02*
X206500000Y-74000000D01*
X203000000Y-75000000D02*
X205500000Y-75000000D01*
X202380000Y-75620000D02*
X203000000Y-75000000D01*
X202380000Y-77000000D02*
X202380000Y-75620000D01*
X206500000Y-66820000D02*
X205980000Y-66300000D01*
%TO.N,Net-(J4-Pin_4)*%
X213679000Y-79705000D02*
X214160000Y-80186000D01*
%TO.N,Net-(U1A-+)*%
X208500000Y-57994886D02*
X208002557Y-57497443D01*
X208500000Y-62820000D02*
X208500000Y-57994886D01*
X209100000Y-63420000D02*
X208500000Y-62820000D01*
%TO.N,GND*%
X210900000Y-66300000D02*
X212254000Y-64946000D01*
X212254000Y-64946000D02*
X214160000Y-64946000D01*
X205980000Y-66300000D02*
X210900000Y-66300000D01*
X205000000Y-65320000D02*
X205980000Y-66300000D01*
X205000000Y-64920000D02*
X205000000Y-65320000D01*
X204500000Y-64420000D02*
X205000000Y-64920000D01*
X204500000Y-63420000D02*
X204500000Y-64420000D01*
%TO.N,Net-(A1-PadD11)*%
X210114000Y-72566000D02*
X214160000Y-72566000D01*
X209100000Y-73580000D02*
X210114000Y-72566000D01*
%TO.N,Net-(U1A-+)*%
X208002557Y-57497443D02*
X206605113Y-56100000D01*
%TO.N,Net-(Q1-E)*%
X202980000Y-73580000D02*
X204500000Y-73580000D01*
X202500000Y-73100000D02*
X202980000Y-73580000D01*
X202500000Y-73100000D02*
X202620000Y-73100000D01*
%TO.N,GND*%
X184000000Y-108500000D02*
X189000000Y-113500000D01*
X184000000Y-106500000D02*
X184000000Y-108500000D01*
X185803000Y-104697000D02*
X184000000Y-106500000D01*
X188760000Y-104697000D02*
X185803000Y-104697000D01*
%TO.N,/CLK*%
X191300000Y-101800000D02*
X191300000Y-102157000D01*
X188500000Y-99000000D02*
X191300000Y-101800000D01*
X185580000Y-99000000D02*
X188500000Y-99000000D01*
%TO.N,+5V*%
X187750000Y-96750000D02*
X177750000Y-96750000D01*
X191000000Y-100000000D02*
X187750000Y-96750000D01*
X194500000Y-100000000D02*
X191000000Y-100000000D01*
X195500000Y-101000000D02*
X194500000Y-100000000D01*
X195500000Y-104000000D02*
X195500000Y-101000000D01*
X194803000Y-104697000D02*
X195500000Y-104000000D01*
X193840000Y-104697000D02*
X194803000Y-104697000D01*
X177750000Y-96750000D02*
X179000000Y-98000000D01*
%TO.N,Net-(J3-Pin_5)*%
X192270000Y-129230000D02*
X192270000Y-128000000D01*
X191000000Y-130500000D02*
X192270000Y-129230000D01*
X190500000Y-130500000D02*
X191000000Y-130500000D01*
X178000000Y-116500000D02*
X178000000Y-129500000D01*
X173500000Y-112000000D02*
X178000000Y-116500000D01*
X173500000Y-108500000D02*
X173500000Y-112000000D01*
X179200000Y-130700000D02*
X190300000Y-130700000D01*
X178000000Y-129500000D02*
X179200000Y-130700000D01*
X190300000Y-130700000D02*
X190500000Y-130500000D01*
X175420000Y-106580000D02*
X173500000Y-108500000D01*
X175420000Y-99000000D02*
X175420000Y-106580000D01*
%TO.N,+5V*%
X194810000Y-126310000D02*
X194810000Y-128000000D01*
X194500000Y-126000000D02*
X194810000Y-126310000D01*
X192000000Y-126000000D02*
X194500000Y-126000000D01*
X188300000Y-122300000D02*
X192000000Y-126000000D01*
X182500000Y-108500000D02*
X188300000Y-114300000D01*
X188300000Y-114300000D02*
X188300000Y-122300000D01*
X182500000Y-104500000D02*
X182500000Y-108500000D01*
X179000000Y-101000000D02*
X182500000Y-104500000D01*
X179000000Y-98000000D02*
X179000000Y-101000000D01*
%TO.N,GND*%
X169000000Y-55000000D02*
X171000000Y-57000000D01*
X170000000Y-49500000D02*
X169000000Y-50500000D01*
X169000000Y-50500000D02*
X169000000Y-55000000D01*
X176500000Y-49500000D02*
X170000000Y-49500000D01*
X185000000Y-58000000D02*
X176500000Y-49500000D01*
X185000000Y-62980000D02*
X185000000Y-58000000D01*
X185900000Y-63880000D02*
X185000000Y-62980000D01*
%TO.N,/DIN*%
X190000000Y-108500000D02*
X191300000Y-107200000D01*
X191300000Y-107200000D02*
X191300000Y-104697000D01*
X186080000Y-108500000D02*
X190000000Y-108500000D01*
%TO.N,Net-(J3-Pin_4)*%
X179000000Y-114500000D02*
X175920000Y-111420000D01*
X179000000Y-129000000D02*
X179000000Y-114500000D01*
X180000000Y-130000000D02*
X179000000Y-129000000D01*
X189730000Y-129270000D02*
X189000000Y-130000000D01*
X175920000Y-111420000D02*
X175920000Y-108500000D01*
X189730000Y-128000000D02*
X189730000Y-129270000D01*
X189000000Y-130000000D02*
X180000000Y-130000000D01*
%TO.N,GND*%
X193000000Y-124500000D02*
X189000000Y-120500000D01*
X196000000Y-124500000D02*
X193000000Y-124500000D01*
X197000000Y-125500000D02*
X196000000Y-124500000D01*
X197000000Y-126500000D02*
X197000000Y-125500000D01*
X197350000Y-126850000D02*
X197000000Y-126500000D01*
X189000000Y-120500000D02*
X189000000Y-113500000D01*
X197350000Y-128000000D02*
X197350000Y-126850000D01*
%TO.N,/RST*%
X212090000Y-94410000D02*
X214160000Y-94410000D01*
X211000000Y-95500000D02*
X212090000Y-94410000D01*
X211000000Y-117500000D02*
X211000000Y-95500000D01*
X205000000Y-123500000D02*
X211000000Y-117500000D01*
X194000000Y-123500000D02*
X205000000Y-123500000D01*
X190500000Y-120000000D02*
X194000000Y-123500000D01*
X190500000Y-113580000D02*
X190500000Y-120000000D01*
X192580000Y-111500000D02*
X190500000Y-113580000D01*
%TO.N,/DC*%
X210170000Y-89330000D02*
X214160000Y-89330000D01*
X207500000Y-92000000D02*
X210170000Y-89330000D01*
X207500000Y-112500000D02*
X207500000Y-92000000D01*
X203500000Y-116500000D02*
X207500000Y-112500000D01*
X194080000Y-116500000D02*
X203500000Y-116500000D01*
%TO.N,/CE*%
X211130000Y-91870000D02*
X214160000Y-91870000D01*
X202000000Y-121000000D02*
X209500000Y-113500000D01*
X209500000Y-113500000D02*
X209500000Y-93500000D01*
X209500000Y-93500000D02*
X211130000Y-91870000D01*
X194580000Y-121000000D02*
X202000000Y-121000000D01*
%TO.N,GND*%
X197350000Y-128000000D02*
X199890000Y-128000000D01*
%TO.N,Net-(J3-Pin_3)*%
X187000000Y-122000000D02*
X187190000Y-122190000D01*
X187000000Y-120000000D02*
X187000000Y-122000000D01*
X186000000Y-118580000D02*
X186000000Y-119000000D01*
X186000000Y-119000000D02*
X187000000Y-120000000D01*
X187190000Y-122190000D02*
X187190000Y-128000000D01*
X183920000Y-116500000D02*
X186000000Y-118580000D01*
%TO.N,Net-(J3-Pin_2)*%
X184420000Y-127770000D02*
X184650000Y-128000000D01*
X184420000Y-121000000D02*
X184420000Y-127770000D01*
%TO.N,Net-(J3-Pin_1)*%
X180500000Y-126390000D02*
X182110000Y-128000000D01*
X182420000Y-111500000D02*
X180500000Y-113420000D01*
X180500000Y-113420000D02*
X180500000Y-126390000D01*
%TO.N,Net-(A1-RESET)*%
D24*
X179500000Y-42500000D02*
X182500000Y-42500000D01*
X179000000Y-42000000D02*
X179500000Y-42500000D01*
X168000000Y-44000000D02*
X170000000Y-42000000D01*
D23*
X168150000Y-53431981D02*
X168150000Y-51568019D01*
X168000000Y-53581981D02*
X168150000Y-53431981D01*
D24*
X170000000Y-42000000D02*
X179000000Y-42000000D01*
D23*
X168000000Y-71000000D02*
X168000000Y-53581981D01*
X168000000Y-51418019D02*
X168000000Y-44000000D01*
D24*
X167450000Y-71550000D02*
X168000000Y-71000000D01*
X165900000Y-71550000D02*
X167450000Y-71550000D01*
D23*
X168150000Y-51568019D02*
X168000000Y-51418019D01*
%TO.N,Net-(A1-PadA0)*%
D24*
X168670000Y-89330000D02*
X165900000Y-89330000D01*
X174000000Y-64000000D02*
X170500000Y-67500000D01*
X174000000Y-53000000D02*
X174000000Y-64000000D01*
X170500000Y-67500000D02*
X170500000Y-87500000D01*
X173000000Y-52000000D02*
X174000000Y-53000000D01*
X171000000Y-52000000D02*
X173000000Y-52000000D01*
X170500000Y-87500000D02*
X168670000Y-89330000D01*
%TO.N,GND*%
X171000000Y-60000000D02*
X171000000Y-57000000D01*
X168830000Y-79170000D02*
X169500000Y-78500000D01*
X169500000Y-61500000D02*
X171000000Y-60000000D01*
X165900000Y-79170000D02*
X168830000Y-79170000D01*
X169500000Y-78500000D02*
X169500000Y-61500000D01*
%TO.N,+5V*%
X183200000Y-52000000D02*
X184100000Y-52900000D01*
X181000000Y-52000000D02*
X183200000Y-52000000D01*
X176000000Y-47000000D02*
X181000000Y-52000000D01*
X171000000Y-47000000D02*
X176000000Y-47000000D01*
D23*
X190270000Y-46270000D02*
X193000000Y-46270000D01*
X190000000Y-46000000D02*
X190270000Y-46270000D01*
X190000000Y-42000000D02*
X190000000Y-46000000D01*
X188000000Y-40000000D02*
X190000000Y-42000000D01*
X187000000Y-40000000D02*
X188000000Y-40000000D01*
X185000000Y-42000000D02*
X187000000Y-40000000D01*
X184100000Y-52900000D02*
X185000000Y-52000000D01*
X185900000Y-57200000D02*
X184100000Y-55400000D01*
X184100000Y-55400000D02*
X184100000Y-52900000D01*
X185900000Y-60700000D02*
X185900000Y-57200000D01*
X185000000Y-52000000D02*
X185000000Y-42000000D01*
X189890000Y-62910000D02*
X188110000Y-62910000D01*
X188110000Y-62910000D02*
X185900000Y-60700000D01*
%TO.N,GND*%
D24*
X192810000Y-49000000D02*
X193000000Y-48810000D01*
X187000000Y-49000000D02*
X192810000Y-49000000D01*
D23*
X199010000Y-48810000D02*
X193000000Y-48810000D01*
X203800000Y-53600000D02*
X199010000Y-48810000D01*
X203800000Y-54200000D02*
X203800000Y-53600000D01*
%TO.N,Net-(J1-Pin_3)*%
X201730000Y-43730000D02*
X193000000Y-43730000D01*
X204000000Y-46000000D02*
X201730000Y-43730000D01*
X204000000Y-49970050D02*
X204000000Y-46000000D01*
X209900000Y-57500000D02*
X209900000Y-56010050D01*
X212266000Y-59866000D02*
X209900000Y-57500000D01*
X206300000Y-52410050D02*
X206370000Y-52340050D01*
X214160000Y-59866000D02*
X212266000Y-59866000D01*
X209900000Y-56010050D02*
X206300000Y-52410050D01*
X206370000Y-52340050D02*
X204000000Y-49970050D01*
%TO.N,Net-(J1-Pin_4)*%
X210000000Y-55000000D02*
X210000000Y-44000000D01*
X207000000Y-41000000D02*
X206810000Y-41190000D01*
X210000000Y-44000000D02*
X207000000Y-41000000D01*
X210000000Y-55000000D02*
X212326000Y-57326000D01*
X206810000Y-41190000D02*
X193000000Y-41190000D01*
X212326000Y-57326000D02*
X214160000Y-57326000D01*
X209900000Y-54900000D02*
X210000000Y-55000000D01*
%TO.N,Net-(U1A-+)*%
X204075113Y-58630000D02*
X206605113Y-56100000D01*
X198905000Y-58630000D02*
X204075113Y-58630000D01*
X198309999Y-58629999D02*
X197510000Y-57830000D01*
X208200000Y-57694887D02*
X208002557Y-57497443D01*
X198905000Y-58630000D02*
X198309999Y-58629999D01*
%TO.N,GND*%
X203305113Y-56900000D02*
X204105113Y-56100000D01*
X204105113Y-54505113D02*
X203800000Y-54200000D01*
X214160000Y-64946000D02*
X213146000Y-64946000D01*
X199500000Y-56000000D02*
X199500000Y-56200000D01*
X207100000Y-54200000D02*
X203800000Y-54200000D01*
X213146000Y-64946000D02*
X209200000Y-61000000D01*
X204105113Y-56100000D02*
X204105113Y-54505113D01*
X200200000Y-56900000D02*
X203305113Y-56900000D01*
X199500000Y-56200000D02*
X200200000Y-56900000D01*
X198790000Y-55290000D02*
X199500000Y-56000000D01*
X209200000Y-56300000D02*
X207100000Y-54200000D01*
X209200000Y-61000000D02*
X209200000Y-56300000D01*
X197510000Y-55290000D02*
X198790000Y-55290000D01*
%TO.N,Net-(D1-K)*%
X177600000Y-69000000D02*
X177600000Y-69430000D01*
X185330000Y-75470000D02*
X187700000Y-73100000D01*
X179425000Y-71255000D02*
X179425000Y-73630000D01*
X187700000Y-73100000D02*
X194930000Y-73100000D01*
X177600000Y-69430000D02*
X179425000Y-71255000D01*
X179425000Y-73630000D02*
X179365000Y-73630000D01*
X179365000Y-73630000D02*
X178665000Y-74330000D01*
%TO.N,Net-(Q1-B)*%
X194420000Y-76580000D02*
X196200000Y-74800000D01*
X189300000Y-76580000D02*
X194420000Y-76580000D01*
X196200000Y-74800000D02*
X196200000Y-73100000D01*
%TO.N,Net-(Q1-E)*%
X193600000Y-58300000D02*
X193100000Y-57800000D01*
X197470000Y-73100000D02*
X197470000Y-69970000D01*
X197470000Y-73100000D02*
X202500000Y-73100000D01*
X193100000Y-57800000D02*
X193100000Y-57700000D01*
X193100000Y-57700000D02*
X192970000Y-57830000D01*
X197470000Y-69970000D02*
X193600000Y-66100000D01*
X192970000Y-57830000D02*
X189890000Y-57830000D01*
X193600000Y-66100000D02*
X193600000Y-58300000D01*
%TO.N,Net-(R1-Pad2)*%
X192400000Y-66000000D02*
X192500000Y-66100000D01*
X192180000Y-66420000D02*
X189300000Y-66420000D01*
X192400000Y-61300000D02*
X192400000Y-66000000D01*
X191470000Y-60370000D02*
X192400000Y-61300000D01*
X189890000Y-60370000D02*
X191470000Y-60370000D01*
X192500000Y-66100000D02*
X192180000Y-66420000D01*
%TO.N,Net-(U1B-+)*%
X189890000Y-55290000D02*
X187470000Y-55290000D01*
X200900000Y-54420000D02*
X198780000Y-52300000D01*
X187470000Y-55290000D02*
X185900000Y-53720000D01*
X189890000Y-54610000D02*
X189890000Y-55290000D01*
X192200000Y-52300000D02*
X189890000Y-54610000D01*
X198780000Y-52300000D02*
X192200000Y-52300000D01*
%TO.N,Net-(U1A--)*%
X197510000Y-60370000D02*
X197510000Y-62910000D01*
X200900000Y-64580000D02*
X199180000Y-64580000D01*
X199180000Y-64580000D02*
X197510000Y-62910000D01*
%TD*%
M02*
