%TF.GenerationSoftware,KiCad,Pcbnew,10.0.0*%
%TF.CreationDate,2026-08-31T15:54:59-05:00*%
%TF.ProjectId,shield_arduino,73686965-6c64-45f6-9172-6475696e6f2e,rev?*%
%TF.SameCoordinates,Original*%
%TF.FileFunction,Legend,Bot*%
%TF.FilePolarity,Positive*%
%FSLAX46Y46*%
G04 Gerber Fmt 4.6, Leading zero omitted, Abs format (unit mm)*
G04 Created by KiCad (PCBNEW 10.0.0) date 2026-08-31 15:54:59*
%MOMM*%
%LPD*%
G01*
G04 APERTURE LIST*
%ADD10C,0.150000*%
G04 APERTURE END LIST*
D10*
X165169104Y-42385714D02*
X165169104Y-42861904D01*
X165454819Y-42290476D02*
X164454819Y-42623809D01*
X164454819Y-42623809D02*
X165454819Y-42957142D01*
X165454819Y-43814285D02*
X165454819Y-43242857D01*
X165454819Y-43528571D02*
X164454819Y-43528571D01*
X164454819Y-43528571D02*
X164597676Y-43433333D01*
X164597676Y-43433333D02*
X164692914Y-43338095D01*
X164692914Y-43338095D02*
X164740533Y-43242857D01*
X164345180Y-40938094D02*
X165345180Y-40938094D01*
X165345180Y-40938094D02*
X165345180Y-40699999D01*
X165345180Y-40699999D02*
X165297561Y-40557142D01*
X165297561Y-40557142D02*
X165202323Y-40461904D01*
X165202323Y-40461904D02*
X165107085Y-40414285D01*
X165107085Y-40414285D02*
X164916609Y-40366666D01*
X164916609Y-40366666D02*
X164773752Y-40366666D01*
X164773752Y-40366666D02*
X164583276Y-40414285D01*
X164583276Y-40414285D02*
X164488038Y-40461904D01*
X164488038Y-40461904D02*
X164392800Y-40557142D01*
X164392800Y-40557142D02*
X164345180Y-40699999D01*
X164345180Y-40699999D02*
X164345180Y-40938094D01*
X165345180Y-39747618D02*
X165345180Y-39652380D01*
X165345180Y-39652380D02*
X165297561Y-39557142D01*
X165297561Y-39557142D02*
X165249942Y-39509523D01*
X165249942Y-39509523D02*
X165154704Y-39461904D01*
X165154704Y-39461904D02*
X164964228Y-39414285D01*
X164964228Y-39414285D02*
X164726133Y-39414285D01*
X164726133Y-39414285D02*
X164535657Y-39461904D01*
X164535657Y-39461904D02*
X164440419Y-39509523D01*
X164440419Y-39509523D02*
X164392800Y-39557142D01*
X164392800Y-39557142D02*
X164345180Y-39652380D01*
X164345180Y-39652380D02*
X164345180Y-39747618D01*
X164345180Y-39747618D02*
X164392800Y-39842856D01*
X164392800Y-39842856D02*
X164440419Y-39890475D01*
X164440419Y-39890475D02*
X164535657Y-39938094D01*
X164535657Y-39938094D02*
X164726133Y-39985713D01*
X164726133Y-39985713D02*
X164964228Y-39985713D01*
X164964228Y-39985713D02*
X165154704Y-39938094D01*
X165154704Y-39938094D02*
X165249942Y-39890475D01*
X165249942Y-39890475D02*
X165297561Y-39842856D01*
X165297561Y-39842856D02*
X165345180Y-39747618D01*
X164059580Y-39799999D02*
X164107200Y-39752380D01*
X164107200Y-39752380D02*
X164154819Y-39799999D01*
X164154819Y-39799999D02*
X164107200Y-39847618D01*
X164107200Y-39847618D02*
X164059580Y-39799999D01*
X164059580Y-39799999D02*
X164154819Y-39799999D01*
%TO.C,A1*%
X216700000Y-136066000D02*
X215176000Y-137590000D01*
X216700000Y-38530000D02*
X216700000Y-136066000D01*
X216700000Y-38530000D02*
X163360000Y-38530000D01*
X204000000Y-137590000D02*
X215176000Y-137590000D01*
X201460000Y-140130000D02*
X204000000Y-137590000D01*
X167170000Y-140130000D02*
X201460000Y-140130000D01*
X164630000Y-137590000D02*
X167170000Y-140130000D01*
X163360000Y-137590000D02*
X164630000Y-137590000D01*
X163360000Y-38530000D02*
X163360000Y-137590000D01*
%TD*%
M02*
