  0
SECTION
  2
HEADER
  9
$ACADVER
  1
AC1024
  9
$ACADMAINTVER
 70
6
  9
$DWGCODEPAGE
  3
ANSI_1252
  9
$LASTSAVEDBY
  1
ezdxf
  9
$INSBASE
 10
0.0
 20
0.0
 30
0.0
  9
$EXTMIN
 10
-100
 20
-100
 30
-100
  9
$EXTMAX
 10
100
 20
100
 30
100
  9
$LIMMIN
 10
0.0
 20
0.0
  9
$LIMMAX
 10
420.0
 20
297.0
  9
$ORTHOMODE
 70
0
  9
$REGENMODE
 70
1
  9
$FILLMODE
 70
1
  9
$QTEXTMODE
 70
0
  9
$MIRRTEXT
 70
1
  9
$LTSCALE
 40
1.0
  9
$ATTMODE
 70
1
  9
$TEXTSIZE
 40
2.5
  9
$TRACEWID
 40
1.0
  9
$TEXTSTYLE
  7
Standard
  9
$CLAYER
  8
0
  9
$CELTYPE
  6
ByLayer
  9
$CECOLOR
 62
256
  9
$CELTSCALE
 40
1.0
  9
$DISPSILH
 70
0
  9
$DIMSCALE
 40
1.0
  9
$DIMASZ
 40
2.5
  9
$DIMEXO
 40
0.625
  9
$DIMDLI
 40
3.75
  9
$DIMRND
 40
0.0
  9
$DIMDLE
 40
0.0
  9
$DIMEXE
 40
1.25
  9
$DIMTP
 40
0.0
  9
$DIMTM
 40
0.0
  9
$DIMTXT
 40
2.5
  9
$DIMCEN
 40
2.5
  9
$DIMTSZ
 40
0.0
  9
$DIMTOL
 70
0
  9
$DIMLIM
 70
0
  9
$DIMTIH
 70
0
  9
$DIMTOH
 70
0
  9
$DIMSE1
 70
0
  9
$DIMSE2
 70
0
  9
$DIMTAD
 70
1
  9
$DIMZIN
 70
8
  9
$DIMBLK
  1

  9
$DIMASO
 70
1
  9
$DIMSHO
 70
1
  9
$DIMPOST
  1

  9
$DIMAPOST
  1

  9
$DIMALT
 70
0
  9
$DIMALTD
 70
3
  9
$DIMALTF
 40
0.03937007874
  9
$DIMLFAC
 40
1.0
  9
$DIMTOFL
 70
1
  9
$DIMTVP
 40
0.0
  9
$DIMTIX
 70
0
  9
$DIMSOXD
 70
0
  9
$DIMSAH
 70
0
  9
$DIMBLK1
  1

  9
$DIMBLK2
  1

  9
$DIMSTYLE
  2
ISO-25
  9
$DIMCLRD
 70
0
  9
$DIMCLRE
 70
0
  9
$DIMCLRT
 70
0
  9
$DIMTFAC
 40
1.0
  9
$DIMGAP
 40
0.625
  9
$DIMJUST
 70
0
  9
$DIMSD1
 70
0
  9
$DIMSD2
 70
0
  9
$DIMTOLJ
 70
0
  9
$DIMTZIN
 70
8
  9
$DIMALTZ
 70
0
  9
$DIMALTTZ
 70
0
  9
$DIMUPT
 70
0
  9
$DIMDEC
 70
2
  9
$DIMTDEC
 70
2
  9
$DIMALTU
 70
2
  9
$DIMALTTD
 70
3
  9
$DIMTXSTY
  7
Standard
  9
$DIMAUNIT
 70
0
  9
$DIMADEC
 70
0
  9
$DIMALTRND
 40
0.0
  9
$DIMAZIN
 70
0
  9
$DIMDSEP
 70
44
  9
$DIMATFIT
 70
3
  9
$DIMFRAC
 70
0
  9
$DIMLDRBLK
  1

  9
$DIMLUNIT
 70
2
  9
$DIMLWD
 70
-2
  9
$DIMLWE
 70
-2
  9
$DIMTMOVE
 70
0
  9
$DIMFXL
 40
1.0
  9
$DIMFXLON
 70
0
  9
$DIMJOGANG
 40
0.785398163397
  9
$DIMTFILL
 70
0
  9
$DIMTFILLCLR
 70
0
  9
$DIMARCSYM
 70
0
  9
$DIMLTYPE
  6

  9
$DIMLTEX1
  6

  9
$DIMLTEX2
  6

  9
$DIMTXTDIRECTION
 70
0
  9
$LUNITS
 70
2
  9
$LUPREC
 70
4
  9
$SKETCHINC
 40
1.0
  9
$FILLETRAD
 40
10.0
  9
$AUNITS
 70
0
  9
$AUPREC
 70
2
  9
$MENU
  1
.
  9
$ELEVATION
 40
0.0
  9
$PELEVATION
 40
0.0
  9
$THICKNESS
 40
0.0
  9
$LIMCHECK
 70
0
  9
$CHAMFERA
 40
0.0
  9
$CHAMFERB
 40
0.0
  9
$CHAMFERC
 40
0.0
  9
$CHAMFERD
 40
0.0
  9
$SKPOLY
 70
0
  9
$TDCREATE
 40
2461298.542835648
  9
$TDUCREATE
 40
2458532.153996898
  9
$TDUPDATE
 40
2461298.542835648
  9
$TDUUPDATE
 40
2458532.1544311
  9
$TDINDWG
 40
0.0
  9
$TDUSRTIMER
 40
0.0
  9
$USRTIMER
 70
1
  9
$ANGBASE
 50
0.0
  9
$ANGDIR
 70
0
  9
$PDMODE
 70
0
  9
$PDSIZE
 40
0.0
  9
$PLINEWID
 40
0.0
  9
$SPLFRAME
 70
0
  9
$SPLINETYPE
 70
6
  9
$SPLINESEGS
 70
8
  9
$HANDSEED
  5
33
  9
$SURFTAB1
 70
6
  9
$SURFTAB2
 70
6
  9
$SURFTYPE
 70
6
  9
$SURFU
 70
6
  9
$SURFV
 70
6
  9
$UCSBASE
  2

  9
$UCSNAME
  2

  9
$UCSORG
 10
0.0
 20
0.0
 30
0.0
  9
$UCSXDIR
 10
1.0
 20
0.0
 30
0.0
  9
$UCSYDIR
 10
0.0
 20
1.0
 30
0.0
  9
$UCSORTHOREF
  2

  9
$UCSORTHOVIEW
 70
0
  9
$UCSORGTOP
 10
0.0
 20
0.0
 30
0.0
  9
$UCSORGBOTTOM
 10
0.0
 20
0.0
 30
0.0
  9
$UCSORGLEFT
 10
0.0
 20
0.0
 30
0.0
  9
$UCSORGRIGHT
 10
0.0
 20
0.0
 30
0.0
  9
$UCSORGFRONT
 10
0.0
 20
0.0
 30
0.0
  9
$UCSORGBACK
 10
0.0
 20
0.0
 30
0.0
  9
$PUCSBASE
  2

  9
$PUCSNAME
  2

  9
$PUCSORG
 10
0.0
 20
0.0
 30
0.0
  9
$PUCSXDIR
 10
1.0
 20
0.0
 30
0.0
  9
$PUCSYDIR
 10
0.0
 20
1.0
 30
0.0
  9
$PUCSORTHOREF
  2

  9
$PUCSORTHOVIEW
 70
0
  9
$PUCSORGTOP
 10
0.0
 20
0.0
 30
0.0
  9
$PUCSORGBOTTOM
 10
0.0
 20
0.0
 30
0.0
  9
$PUCSORGLEFT
 10
0.0
 20
0.0
 30
0.0
  9
$PUCSORGRIGHT
 10
0.0
 20
0.0
 30
0.0
  9
$PUCSORGFRONT
 10
0.0
 20
0.0
 30
0.0
  9
$PUCSORGBACK
 10
0.0
 20
0.0
 30
0.0
  9
$USERI1
 70
0
  9
$USERI2
 70
0
  9
$USERI3
 70
0
  9
$USERI4
 70
0
  9
$USERI5
 70
0
  9
$USERR1
 40
0.0
  9
$USERR2
 40
0.0
  9
$USERR3
 40
0.0
  9
$USERR4
 40
0.0
  9
$USERR5
 40
0.0
  9
$WORLDVIEW
 70
1
  9
$SHADEDGE
 70
3
  9
$SHADEDIF
 70
70
  9
$TILEMODE
 70
1
  9
$MAXACTVP
 70
64
  9
$PINSBASE
 10
0.0
 20
0.0
 30
0.0
  9
$PLIMCHECK
 70
0
  9
$PEXTMIN
 10
1e+20
 20
1e+20
 30
1e+20
  9
$PEXTMAX
 10
-1e+20
 20
-1e+20
 30
-1e+20
  9
$PLIMMIN
 10
0.0
 20
0.0
  9
$PLIMMAX
 10
420.0
 20
297.0
  9
$UNITMODE
 70
0
  9
$VISRETAIN
 70
1
  9
$PLINEGEN
 70
0
  9
$PSLTSCALE
 70
1
  9
$TREEDEPTH
 70
3020
  9
$CMLSTYLE
  2
Standard
  9
$CMLJUST
 70
0
  9
$CMLSCALE
 40
20.0
  9
$PROXYGRAPHICS
 70
1
  9
$MEASUREMENT
 70
1
  9
$CELWEIGHT
370
-1
  9
$ENDCAPS
280
0
  9
$JOINSTYLE
280
0
  9
$LWDISPLAY
290
0
  9
$INSUNITS
 70
6
  9
$HYPERLINKBASE
  1

  9
$STYLESHEET
  1

  9
$XEDIT
290
1
  9
$CEPSNTYPE
380
0
  9
$PSTYLEMODE
290
1
  9
$FINGERPRINTGUID
  2
56D2D284-B066-11F1-B804-BCEE7B8C4939
  9
$VERSIONGUID
  2
56D591AD-B066-11F1-B286-BCEE7B8C4939
  9
$EXTNAMES
290
1
  9
$PSVPSCALE
 40
0.0
  9
$OLESTARTUP
290
0
  9
$SORTENTS
280
127
  9
$INDEXCTL
280
0
  9
$HIDETEXT
280
1
  9
$XCLIPFRAME
280
2
  9
$HALOGAP
280
0
  9
$OBSCOLOR
 70
257
  9
$OBSLTYPE
280
0
  9
$INTERSECTIONDISPLAY
280
0
  9
$INTERSECTIONCOLOR
 70
257
  9
$DIMASSOC
280
2
  9
$PROJECTNAME
  1

  9
$CAMERADISPLAY
290
0
  9
$LENSLENGTH
 40
50.0
  9
$CAMERAHEIGHT
 40
0.0
  9
$STEPSPERSEC
 40
24.0
  9
$STEPSIZE
 40
100.0
  9
$3DDWFPREC
 40
2.0
  9
$PSOLWIDTH
 40
0.005
  9
$PSOLHEIGHT
 40
0.08
  9
$LOFTANG1
 40
1.570796326795
  9
$LOFTANG2
 40
1.570796326795
  9
$LOFTMAG1
 40
0.0
  9
$LOFTMAG2
 40
0.0
  9
$LOFTPARAM
 70
7
  9
$LOFTNORMALS
280
1
  9
$LATITUDE
 40
37.795
  9
$LONGITUDE
 40
-122.394
  9
$NORTHDIRECTION
 40
0.0
  9
$TIMEZONE
 70
-8000
  9
$LIGHTGLYPHDISPLAY
280
1
  9
$TILEMODELIGHTSYNCH
280
1
  9
$CMATERIAL
347
20
  9
$SOLIDHIST
280
0
  9
$SHOWHIST
280
1
  9
$DWFFRAME
280
2
  9
$DGNFRAME
280
2
  9
$REALWORLDSCALE
290
1
  9
$INTERFERECOLOR
 62
256
  9
$CSHADOW
280
0
  9
$SHADOWPLANELOCATION
 40
0.0
  0
ENDSEC
  0
SECTION
  2
CLASSES
  0
CLASS
  1
ACDBDICTIONARYWDFLT
  2
AcDbDictionaryWithDefault
  3
ObjectDBX Classes
 90
0
 91
0
280
0
281
0
  0
CLASS
  1
SUN
  2
AcDbSun
  3
SCENEOE
 90
1153
 91
0
280
0
281
0
  0
CLASS
  1
VISUALSTYLE
  2
AcDbVisualStyle
  3
ObjectDBX Classes
 90
4095
 91
0
280
0
281
0
  0
CLASS
  1
MATERIAL
  2
AcDbMaterial
  3
ObjectDBX Classes
 90
1153
 91
0
280
0
281
0
  0
CLASS
  1
SCALE
  2
AcDbScale
  3
ObjectDBX Classes
 90
1153
 91
0
280
0
281
0
  0
CLASS
  1
TABLESTYLE
  2
AcDbTableStyle
  3
ObjectDBX Classes
 90
4095
 91
0
280
0
281
0
  0
CLASS
  1
MLEADERSTYLE
  2
AcDbMLeaderStyle
  3
ACDB_MLEADERSTYLE_CLASS
 90
4095
 91
0
280
0
281
0
  0
CLASS
  1
DICTIONARYVAR
  2
AcDbDictionaryVar
  3
ObjectDBX Classes
 90
0
 91
0
280
0
281
0
  0
CLASS
  1
CELLSTYLEMAP
  2
AcDbCellStyleMap
  3
ObjectDBX Classes
 90
1152
 91
0
280
0
281
0
  0
CLASS
  1
MENTALRAYRENDERSETTINGS
  2
AcDbMentalRayRenderSettings
  3
SCENEOE
 90
1024
 91
0
280
0
281
0
  0
CLASS
  1
ACDBDETAILVIEWSTYLE
  2
AcDbDetailViewStyle
  3
ObjectDBX Classes
 90
1025
 91
0
280
0
281
0
  0
CLASS
  1
ACDBSECTIONVIEWSTYLE
  2
AcDbSectionViewStyle
  3
ObjectDBX Classes
 90
1025
 91
0
280
0
281
0
  0
CLASS
  1
RASTERVARIABLES
  2
AcDbRasterVariables
  3
ISM
 90
0
 91
0
280
0
281
0
  0
CLASS
  1
LAYOUT
  2
AcDbLayout
  3
ObjectDBX Classes
 90
0
 91
0
280
0
281
0
  0
CLASS
  1
ACDBPLACEHOLDER
  2
AcDbPlaceHolder
  3
ObjectDBX Classes
 90
0
 91
0
280
0
281
0
  0
ENDSEC
  0
SECTION
  2
TABLES
  0
TABLE
  2
VPORT
  5
8
330
0
100
AcDbSymbolTable
 70
1
  0
VPORT
  5
23
330
8
100
AcDbSymbolTableRecord
100
AcDbViewportTableRecord
  2
*Active
 70
0
 10
0.0
 20
0.0
 11
1.0
 21
1.0
 12
70.0
 22
50.0
 13
0.0
 23
0.0
 14
0.5
 24
0.5
 15
0.5
 25
0.5
 16
0.0
 26
0.0
 36
1.0
 17
0.0
 27
0.0
 37
0.0
 40
1.0
 41
1.34
 42
50.0
 43
0.0
 44
0.0
 50
0.0
 51
0.0
 71
0
 72
1000
 73
1
 74
3
 75
0
 76
0
 77
0
 78
0
281
0
 65
0
146
0.0
  0
ENDTAB
  0
TABLE
  2
LTYPE
  5
2
330
0
100
AcDbSymbolTable
 70
3
  0
LTYPE
  5
24
330
2
100
AcDbSymbolTableRecord
100
AcDbLinetypeTableRecord
  2
ByBlock
 70
0
  3

 72
65
 73
0
 40
0.0
  0
LTYPE
  5
25
330
2
100
AcDbSymbolTableRecord
100
AcDbLinetypeTableRecord
  2
ByLayer
 70
0
  3

 72
65
 73
0
 40
0.0
  0
LTYPE
  5
26
330
2
100
AcDbSymbolTableRecord
100
AcDbLinetypeTableRecord
  2
Continuous
 70
0
  3

 72
65
 73
0
 40
0.0
  0
ENDTAB
  0
TABLE
  2
LAYER
  5
1
330
0
100
AcDbSymbolTable
 70
2
  0
LAYER
  5
27
330
1
100
AcDbSymbolTableRecord
100
AcDbLayerTableRecord
  2
0
 70
0
 62
7
  6
Continuous
370
-3
390
13
347
21
  0
LAYER
  5
28
330
1
100
AcDbSymbolTableRecord
100
AcDbLayerTableRecord
  2
Defpoints
 70
0
 62
7
  6
Continuous
290
0
370
-3
390
13
347
21
  0
ENDTAB
  0
TABLE
  2
STYLE
  5
5
330
0
100
AcDbSymbolTable
 70
1
  0
STYLE
  5
29
330
5
100
AcDbSymbolTableRecord
100
AcDbTextStyleTableRecord
  2
Standard
 70
0
 40
0.0
 41
1.0
 50
0.0
 71
0
 42
2.5
  3
txt
  4

  0
ENDTAB
  0
TABLE
  2
VIEW
  5
7
330
0
100
AcDbSymbolTable
 70
0
  0
ENDTAB
  0
TABLE
  2
UCS
  5
6
330
0
100
AcDbSymbolTable
 70
0
  0
ENDTAB
  0
TABLE
  2
APPID
  5
3
330
0
100
AcDbSymbolTable
 70
2
  0
APPID
  5
2A
330
3
100
AcDbSymbolTableRecord
100
AcDbRegAppTableRecord
  2
ACAD
 70
0
  0
APPID
  5
32
330
3
100
AcDbSymbolTableRecord
100
AcDbRegAppTableRecord
  2
HATCHBACKGROUNDCOLOR
 70
0
  0
ENDTAB
  0
TABLE
  2
DIMSTYLE
  5
4
330
0
100
AcDbSymbolTable
 70
1
100
AcDbDimStyleTable
  0
DIMSTYLE
105
2B
330
4
100
AcDbSymbolTableRecord
100
AcDbDimStyleTableRecord
  2
Standard
 70
0
 40
1.0
 41
2.5
 42
0.625
 43
3.75
 44
1.25
 45
0.0
 46
0.0
 47
0.0
 48
0.0
 49
2.5
140
2.5
141
2.5
142
0.0
143
0.03937007874
144
1.0
145
0.0
146
1.0
147
0.625
148
0.0
 69
0
 70
0
 71
0
 72
0
 73
0
 74
0
 75
0
 76
0
 77
1
 78
8
 79
0
170
0
171
3
172
1
173
0
174
0
175
0
176
0
177
0
178
0
179
0
271
0
272
2
273
2
274
3
275
0
276
0
277
2
278
44
279
0
280
0
281
0
282
0
283
0
284
8
285
0
286
0
288
0
289
3
290
0
371
-2
372
-2
  0
ENDTAB
  0
TABLE
  2
BLOCK_RECORD
  5
9
330
0
100
AcDbSymbolTable
 70
2
  0
BLOCK_RECORD
  5
17
330
9
100
AcDbSymbolTableRecord
100
AcDbBlockTableRecord
  2
*Model_Space
340
1A
 70
0
280
1
281
0
  0
BLOCK_RECORD
  5
1B
330
9
100
AcDbSymbolTableRecord
100
AcDbBlockTableRecord
  2
*Paper_Space
340
1E
 70
0
280
1
281
0
  0
ENDTAB
  0
ENDSEC
  0
SECTION
  2
BLOCKS
  0
BLOCK
  5
18
330
17
100
AcDbEntity
  8
0
100
AcDbBlockBegin
  2
*Model_Space
 70
0
 10
0.0
 20
0.0
 30
0.0
  3
*Model_Space
  1

  0
ENDBLK
  5
19
330
17
100
AcDbEntity
  8
0
100
AcDbBlockEnd
  0
BLOCK
  5
1C
330
1B
100
AcDbEntity
  8
0
100
AcDbBlockBegin
  2
*Paper_Space
 70
0
 10
0.0
 20
0.0
 30
0.0
  3
*Paper_Space
  1

  0
ENDBLK
  5
1D
330
1B
100
AcDbEntity
  8
0
100
AcDbBlockEnd
  0
ENDSEC
  0
SECTION
  2
ENTITIES
  0
LWPOLYLINE
  5
2D
330
17
100
AcDbEntity
  8
0
100
AcDbPolyline
 90
401
 70
0
 10
121.76897425118979
 20
-55.20578954111313
 10
121.76898178488847
 20
-55.206403392459336
 10
121.76902695345741
 20
-55.20762971442685
 10
121.78125783805531
 20
-55.456593214763046
 10
121.78133308843918
 20
-55.45781805858468
 10
121.78143837531763
 20
-55.45904068677055
 10
121.78167896951639
 20
-55.46148347197653
 10
121.78181422945373
 20
-55.46270314794133
 10
121.78197938098344
 20
-55.463919137119746
 10
121.81855404874437
 20
-55.710484975621995
 10
121.81874899240621
 20
-55.71169654566798
 10
121.81897361075865
 20
-55.712902966657246
 10
121.81945248113219
 20
-55.7153104068518
 10
121.81970663884708
 20
-55.716510951963734
 10
121.81999018285022
 20
-55.7177048981552
 10
121.88055640008278
 20
-55.959498513390415
 10
121.88086915961038
 20
-55.96068514159047
 10
121.88121094624142
 20
-55.961863736901044
 10
121.88192348101106
 20
-55.96421264714368
 10
121.88229408882825
 20
-55.96538249950873
 10
121.88269329462385
 20
-55.96654290437037
 10
121.96666777613139
 20
-56.20123569397795
 10
121.9670953394827
 20
-56.20238595246572
 10
121.96755100280369
 20
-56.20352537159227
 10
121.96849033987706
 20
-56.20579313061605
 10
121.96897382864412
 20
-56.20692102392727
 10
121.96948485166583
 20
-56.2080367121367
 10
122.07605887809612
 20
-56.433368458520285
 10
122.07659712760628
 20
-56.43447126968835
 10
122.07716227933456
 20
-56.43556053941235
 10
122.07831937239149
 20
-56.43772530748054
 10
122.07891108585214
 20
-56.43880037952014
 10
122.07952900467401
 20
-56.43986060640124
 10
122.20767621092156
 20
-56.653661243838656
 10
122.208319962959
 20
-56.65470598702371
 10
122.2089891603802
 20
-56.65573461709321
 10
122.21035286599293
 20
-56.65777554632606
 10
122.21104710562852
 20
-56.65878744357252
 10
122.21176596936023
 20
-56.65978199857062
 10
122.36025222901307
 20
-56.85999251211117
 10
122.3609952838996
 20
-56.86096912587476
 10
122.36176208228282
 20
-56.861927210029265
 10
122.36331926723359
 20
-56.86382464518187
 10
122.36410934714397
 20
-56.86476362252186
 10
122.3649222327421
 20
-56.86568292753879
 10
122.5323175433813
 20
-57.0503751824221
 10
122.53315274509947
 20
-57.051274261449436
 10
122.53400975976463
 20
-57.05215257282426
 10
122.53574542752636
 20
-57.0538882405775
 10
122.53662373881761
 20
-57.054745255154785
 10
122.5375228177572
 20
-57.055580456789336
 10
122.72221507264871
 20
-57.222975767419705
 10
122.72313437775766
 20
-57.22378865309715
 10
122.72407335519353
 20
-57.22457873308228
 10
122.72597079035393
 20
-57.226135918023864
 10
122.72692887441643
 20
-57.226902716327636
 10
122.72790548808428
 20
-57.22764577113938
 10
122.92811600163203
 20
-57.37613203078259
 10
122.92911055672964
 20
-57.37685089458431
 10
122.93012245407898
 20
-57.37754513428498
 10
122.93216338331821
 20
-57.378908839887465
 10
122.9331920132882
 20
-57.37957803723852
 10
122.93423675637051
 20
-57.38022178921081
 10
123.14803739381423
 20
-57.50836899544812
 10
123.14909762080087
 20
-57.508986914329725
 10
123.15017269294889
 20
-57.50957862784487
 10
123.15233746102251
 20
-57.51073572089107
 10
123.15342673064096
 20
-57.511300872559495
 10
123.15452954170074
 20
-57.51183912201508
 10
123.37986128808969
 20
-57.618413148434605
 10
123.38097697641041
 20
-57.61892417150557
 10
123.38210486983526
 20
-57.619407660316405
 10
123.38437262886407
 20
-57.6203469973788
 10
123.38551204787932
 20
-57.6208026606504
 10
123.38666230625357
 20
-57.621230223957845
 10
123.62135509586456
 20
-57.70520470545381
 10
123.6225155008414
 20
-57.705603911287405
 10
123.62368535332345
 20
-57.705974519136916
 10
123.62603426357033
 20
-57.706687053895266
 10
123.62721285876567
 20
-57.70702884048818
 10
123.62839948684882
 20
-57.70734159998337
 10
123.8701931020861
 20
-57.76790781720402
 10
123.87138704839589
 20
-57.76819136123366
 10
123.87258759362737
 20
-57.76844551896924
 10
123.87499503382497
 20
-57.768924389331126
 10
123.87620145469587
 20
-57.76914900765693
 10
123.8774130246224
 20
-57.76934395129798
 10
124.123978863126
 20
-57.805918619046935
 10
124.12519485242493
 20
-57.80608377059145
 10
124.1264145285109
 20
-57.80621903053767
 10
124.12885731371766
 20
-57.806459624724404
 10
124.13007994178295
 20
-57.80656491158792
 10
124.1313047854835
 20
-57.80664016196281
 10
124.38026828582072
 20
-57.81887104654872
 10
124.38149460263921
 20
-57.818916214991205
 10
124.38210846078998
 20
-57.81892374886823
 10
124.38272194145756
 20
-57.8189463446947
 10
124.38394900257744
 20
-57.81896140375313
 10
144.7039489976677
 20
-57.81896140374711
 10
144.70517605363955
 20
-57.81894634481506
 10
144.70578954203359
 20
-57.818923748798916
 10
144.70640339245898
 20
-57.81891621511154
 10
144.7076297144268
 20
-57.81887104654259
 10
144.9565932147634
 20
-57.80664016194466
 10
144.9578180585851
 20
-57.80656491156076
 10
144.9590406867711
 20
-57.806459624682304
 10
144.96148347197698
 20
-57.80621903048355
 10
144.96270314794168
 20
-57.806083770546216
 10
144.96391913712
 20
-57.805918619016516
 10
145.21048497562165
 20
-57.76934395125567
 10
145.2116965456677
 20
-57.769149007593825
 10
145.21290296665705
 20
-57.76892438924136
 10
145.21531040685275
 20
-57.76844551886759
 10
145.2165109519646
 20
-57.76819136115272
 10
145.217704898156
 20
-57.76790781714959
 10
145.45949851339006
 20
-57.70734159991732
 10
145.46068514159026
 20
-57.707028840389675
 10
145.46186373690097
 20
-57.70668705375859
 10
145.46421264714388
 20
-57.70597451898886
 10
145.4653824995088
 20
-57.70560391117171
 10
145.4665429043703
 20
-57.705204705376154
 10
145.70123569397768
 20
-57.62123022386872
 10
145.70238595246525
 20
-57.62080266051749
 10
145.7035253715916
 20
-57.62034699719658
 10
145.70579313061563
 20
-57.61940766012312
 10
145.70692102392704
 20
-57.618924171355985
 10
145.70803671213667
 20
-57.6184131483342
 10
145.9333684585204
 20
-57.51183912190383
 10
145.93447126968837
 20
-57.51130087239372
 10
145.93556053941228
 20
-57.51073572066548
 10
145.93772530747984
 20
-57.509578627608896
 10
145.93880037951953
 20
-57.50898691414822
 10
145.9398606064007
 20
-57.508368995326286
 10
146.15366124383903
 20
-57.380221789078185
 10
146.15470598702396
 20
-57.37957803704083
 10
146.15573461709334
 20
-57.378908839619704
 10
146.1577755463257
 20
-57.37754513400732
 10
146.15878744357227
 20
-57.376850894371664
 10
146.15978199857048
 20
-57.37613203063987
 10
146.35999251211138
 20
-57.227645770986754
 10
146.36096912587496
 20
-57.22690271610023
 10
146.36192721002948
 20
-57.226135917717
 10
146.3638246451817
 20
-57.22457873276655
 10
146.36476362252168
 20
-57.22378865285617
 10
146.36568292753861
 20
-57.222975767258035
 10
146.550375182422
 20
-57.055580456618785
 10
146.55127426144952
 20
-57.054745254900446
 10
146.5521525728245
 20
-57.0538882402351
 10
146.5538882405783
 20
-57.05215257247278
 10
146.5547452551554
 20
-57.05127426118171
 10
146.55558045678978
 20
-57.050375182242284
 10
146.72297576741968
 20
-56.86568292735125
 10
146.72378865309656
 20
-56.86476362224295
 10
146.72457873308116
 20
-56.86382464480776
 10
146.72613591802244
 20
-56.86192720964786
 10
146.72690271632678
 20
-56.860969125584724
 10
146.72764577113904
 20
-56.8599925119162
 10
146.8761320307828
 20
-56.659781998367706
 10
146.8768508945848
 20
-56.65878744326967
 10
146.87754513428578
 20
-56.65777554591989
 10
146.87890883988814
 20
-56.65573461668076
 10
146.8795780372389
 20
-56.65470598671118
 10
146.8802217892109
 20
-56.65366124362932
 10
147.0083689954483
 20
-56.439860606185405
 10
147.00898691432994
 20
-56.43880037919869
 10
147.00957862784512
 20
-56.437725307050606
 10
147.0107357208914
 20
-56.4355605389768
 10
147.0113008725598
 20
-56.434471269358426
 10
147.01183912201535
 20
-56.43336845829872
 10
147.11841314843474
 20
-56.20803671190996
 10
147.11892417150563
 20
-56.20692102358939
 10
147.11940766031643
 20
-56.205793130164686
 10
147.12034699737882
 20
-56.20352537113593
 10
147.12080266065047
 20
-56.20238595212053
 10
147.12123022395798
 20
-56.20123569374614
 10
147.20520470545392
 20
-55.96654290413515
 10
147.2056039112876
 20
-55.965382499158025
 10
147.2059745191372
 20
-55.9642126466757
 10
147.20668705389537
 20
-55.96186373642928
 10
147.2070288404882
 20
-55.96068514123422
 10
147.2073415999833
 20
-55.959498513151345
 10
147.26790781720416
 20
-55.717704897913045
 10
147.26819136123376
 20
-55.71651095160348
 10
147.2684455189693
 20
-55.71531040637221
 10
147.26892438933103
 20
-55.712902966175434
 10
147.2691490076569
 20
-55.711696545304314
 10
147.269343951298
 20
-55.710484975377575
 10
147.30591861904693
 20
-55.463919136873955
 10
147.3060837705914
 20
-55.462703147575176
 10
147.30621903053762
 20
-55.46148347148935
 10
147.30645962472434
 20
-55.4590406862829
 10
147.30656491158788
 20
-55.45781805821745
 10
147.30664016196278
 20
-55.45659321451676
 10
147.3188710465487
 20
-55.20762971417892
 10
147.3189162149912
 20
-55.206403397360425
 10
147.3189237488682
 20
-55.20578953920988
 10
147.3189463446947
 20
-55.205176058541795
 10
147.31896140375312
 20
-55.203948997422195
 10
147.3189614037471
 20
-42.50394900233209
 10
147.31894634481503
 20
-42.50272194635972
 10
147.3189237487989
 20
-42.50210845796681
 10
147.31891621511153
 20
-42.501494607540515
 10
147.31887104654257
 20
-42.50026828557299
 10
147.30664016194464
 20
-42.25130478523679
 10
147.3065649115608
 20
-42.25007994141549
 10
147.3064596246824
 20
-42.24885731322995
 10
147.30621903048367
 20
-42.246414528024076
 10
147.3060837705463
 20
-42.245194852058944
 10
147.30591861901655
 20
-42.243978862880205
 10
147.26934395125565
 20
-41.997413024378154
 10
147.26914900759368
 20
-41.996201454331406
 10
147.26892438924108
 20
-41.99499503334137
 10
147.2684455188672
 20
-41.992587593145494
 10
147.26819136115242
 20
-41.99138704803433
 10
147.26790781714945
 20
-41.99019310184364
 10
147.2073415999172
 20
-41.7483994866096
 10
147.20702884038957
 20
-41.74721285840937
 10
147.2066870537585
 20
-41.746034263098615
 10
147.2059745189886
 20
-41.743685352855195
 10
147.20560391117144
 20
-41.74251550049033
 10
147.2052047053759
 20
-41.741355095628855
 10
147.12123022386885
 20
-41.50666230602264
 10
147.12080266051743
 20
-41.50551204753454
 10
147.12034699719626
 20
-41.50437262840765
 10
147.1194076601223
 20
-41.502104869382556
 10
147.1189241713554
 20
-41.50097697607167
 10
147.11841314833381
 20
-41.49986128786257
 10
147.0118391219034
 20
-41.27452954147877
 10
147.0113008723932
 20
-41.273426730310604
 10
147.01073572066485
 20
-41.27233746058652
 10
147.00957862760853
 20
-41.270172692519495
 10
147.00898691414795
 20
-41.26909762047998
 10
147.00836899532612
 20
-41.26803739359897
 10
146.880221789078
 20
-41.05423675616071
 10
146.87957803704103
 20
-41.05319201297636
 10
146.8789088396203
 20
-41.052163382907544
 10
146.87754513400833
 20
-41.0501224536757
 10
146.8768508943723
 20
-41.049110556428545
 10
146.87613203064012
 20
-41.04811600142976
 10
146.72764577098755
 20
-40.84790548788955
 10
146.7269027161008
 20
-40.84692887412569
 10
146.72613591771736
 20
-40.84597078997091
 10
146.72457873276582
 20
-40.844073354817425
 10
146.72378865285563
 20
-40.84313437747771
 10
146.72297576725774
 20
-40.84221507246104
 10
146.5555804566184
 20
-40.6575228175776
 10
146.55474525490024
 20
-40.656623738550266
 10
146.55388824023507
 20
-40.65574542717544
 10
146.55215257247363
 20
-40.6540097594225
 10
146.55127426118239
 20
-40.653152744845215
 10
146.5503751822428
 20
-40.652317543210664
 10
146.36568292735123
 20
-40.484922232580246
 10
146.36476362224235
 20
-40.48410934690287
 10
146.36382464480658
 20
-40.48331926691782
 10
146.3619272096461
 20
-40.48176208197615
 10
146.36096912558352
 20
-40.4809952836723
 10
146.35999251191558
 20
-40.480252228860486
 10
146.15978199836786
 20
-40.331765969217315
 10
146.1587874432702
 20
-40.33104710541556
 10
146.15777554592077
 20
-40.33035286571484
 10
146.1557346166819
 20
-40.32898916011261
 10
146.15470598671197
 20
-40.3283199627616
 10
146.15366124362976
 20
-40.327676210789356
 10
145.93986060618553
 20
-40.199529004551735
 10
145.93880037919877
 20
-40.19891108567007
 10
145.93772530705064
 20
-40.19831937215486
 10
145.9355605389774
 20
-40.19716227910888
 10
145.93447126935908
 20
-40.19659712744052
 10
145.9333684582994
 20
-40.196058877985
 10
145.70803671191038
 20
-40.08948485156542
 10
145.70692102358984
 20
-40.08897382849453
 10
145.70579313016515
 20
-40.08849033968376
 10
145.7035253711367
 20
-40.08755100262149
 10
145.7023859521213
 20
-40.08709533934982
 10
145.70123569374687
 20
-40.086667776042304
 10
145.46654290413557
 20
-40.002693294546226
 10
145.46538249915872
 20
-40.00229408871264
 10
145.46421264667669
 20
-40.00192348086312
 10
145.46186373642962
 20
-40.00121094610471
 10
145.46068514123425
 20
-40.0008691595118
 10
145.4594985131511
 20
-40.00055640001661
 10
145.21770489791382
 20
-39.93999018279597
 10
145.2165109516039
 20
-39.93970663876628
 10
145.2153104063723
 20
-39.93945248103069
 10
145.21290296617468
 20
-39.93897361066881
 10
145.2116965453039
 20
-39.93874899234304
 10
145.2104849753775
 20
-39.93855404870201
 10
144.96391913687378
 20
-39.901979380953044
 10
144.9627031475749
 20
-39.90181422940854
 10
144.96148347148895
 20
-39.90167896946232
 10
144.95904068628252
 20
-39.90143837527561
 10
144.95781805821719
 20
-39.90133308841209
 10
144.9565932145166
 20
-39.901257838037196
 10
144.70762971417923
 20
-39.88902695345128
 10
144.70640339736073
 20
-39.888981785008795
 10
144.70578953921014
 20
-39.88897425113177
 10
144.7051760585425
 20
-39.8889516553053
 10
144.70394899742257
 20
-39.88893659624687
 10
124.38394900233232
 20
-39.88893659625289
 10
124.38272194636048
 20
-39.88895165518494
 10
124.38210845796642
 20
-39.888974251201084
 10
124.38149460754104
 20
-39.88898178488846
 10
124.38026828557324
 20
-39.88902695345741
 10
124.13130478523654
 20
-39.90125783805534
 10
124.13007994141495
 20
-39.90133308843923
 10
124.1288573132291
 20
-39.901438375317674
 10
124.12641452802353
 20
-39.90167896951639
 10
124.1251948520587
 20
-39.90181422945373
 10
124.12397886288025
 20
-39.90197938098344
 10
123.87741302437843
 20
-39.9385540487443
 10
123.87620145433235
 20
-39.938748992406154
 10
123.87499503334298
 20
-39.938973610758616
 10
123.87258759314737
 20
-39.93945248113238
 10
123.87138704803553
 20
-39.93970663884725
 10
123.87019310184417
 20
-39.939990182850366
 10
123.6283994866099
 20
-40.00055640008269
 10
123.62721285840958
 20
-40.00086915961037
 10
123.62603426309873
 20
-40.00121094624149
 10
123.62368535285546
 20
-40.001923481011346
 10
123.62251550049069
 20
-40.002294088828464
 10
123.62135509562931
 20
-40.002693294623974
 10
123.38666230602239
 20
-40.08666777613126
 10
123.38551204753476
 20
-40.0870953394825
 10
123.38437262840834
 20
-40.08755100280344
 10
123.3821048693841
 20
-40.08849033987699
 10
123.38097697607273
 20
-40.088973828644114
 10
123.37986128786316
 20
-40.08948485166588
 10
123.15452954147958
 20
-40.19605887809618
 10
123.15342673031147
 20
-40.19659712760635
 10
123.15233746058743
 20
-40.197162279334655
 10
123.15017269251967
 20
-40.19831937239136
 10
123.1490976204801
 20
-40.19891108585199
 10
123.14803739359904
 20
-40.19952900467385
 10
122.93423675616123
 20
-40.327676210921645
 10
122.93319201297642
 20
-40.328319962958915
 10
122.93216338290718
 20
-40.32898916037994
 10
122.93012245367441
 20
-40.33035286599258
 10
122.9291105564277
 20
-40.33104710562833
 10
122.92811600142934
 20
-40.33176596936021
 10
122.72790548788893
 20
-40.480252229012976
 10
122.7269288741254
 20
-40.48099528389947
 10
122.72597078997094
 20
-40.48176208228264
 10
122.7240733548183
 20
-40.48331926723343
 10
122.72313437747826
 20
-40.48410934714386
 10
122.72221507246128
 20
-40.484922232742036
 10
122.53752281757798
 20
-40.65231754338121
 10
122.53662373855046
 20
-40.653152745099554
 10
122.53574542717546
 20
-40.65400975976489
 10
122.53400975942198
 20
-40.6557454275269
 10
122.53315274484488
 20
-40.65662373881797
 10
122.5323175432105
 20
-40.65752281775739
 10
122.36492223258011
 20
-40.8422150726489
 10
122.36410934690264
 20
-40.843134377757906
 10
122.36331926691747
 20
-40.844073355193814
 10
122.361762081976
 20
-40.845970790354095
 10
122.36099528367227
 20
-40.84692887441654
 10
122.36025222886056
 20
-40.84790548808434
 10
122.21176596921751
 20
-41.048116001631904
 10
122.21104710541589
 20
-41.04911055672938
 10
122.2103528657153
 20
-41.05012245407859
 10
122.20898916011274
 20
-41.0521633833179
 10
122.20831996276159
 20
-41.053192013288026
 10
122.20767621078922
 20
-41.05423675637046
 10
122.0795290045518
 20
-41.26803739381436
 10
122.07891108567016
 20
-41.26909762080108
 10
122.07831937215497
 20
-41.270172692949174
 10
122.07716227910895
 20
-41.272337461022474
 10
122.07659712744058
 20
-41.27342673064084
 10
122.07605887798503
 20
-41.27452954170054
 10
121.96948485156538
 20
-41.499861288089775
 10
121.96897382849448
 20
-41.500976976410335
 10
121.96849033968371
 20
-41.50210486983503
 10
121.96755100262128
 20
-41.504372628863884
 10
121.96709533934961
 20
-41.50551204787929
 10
121.9666677760421
 20
-41.506662306253695
 10
121.88269329454617
 20
-41.74135509586457
 10
121.88229408871254
 20
-41.74251550084151
 10
121.88192348086301
 20
-41.74368535332366
 10
121.88121094610473
 20
-41.746034263570344
 10
121.88086915951185
 20
-41.747212858765586
 10
121.88055640001669
 20
-41.74839948684864
 10
121.81999018279599
 20
-41.99019310208604
 10
121.81970663876633
 20
-41.991387048395865
 10
121.81945248103075
 20
-41.99258759362739
 10
121.81897361066888
 20
-41.99499503382494
 10
121.81874899234307
 20
-41.9962014546958
 10
121.81855404870204
 20
-41.99741302462228
 10
121.78197938095308
 20
-42.24397886312599
 10
121.78181422940857
 20
-42.2451948524248
 10
121.78167896946236
 20
-42.24641452851066
 10
121.78143837527563
 20
-42.248857313717295
 10
121.7813330884121
 20
-42.25007994178271
 10
121.78125783803719
 20
-42.25130478548337
 10
121.76902695345126
 20
-42.50026828582122
 10
121.76898178500876
 20
-42.50149460264029
 10
121.76897425113175
 20
-42.502108460790524
 10
121.76895165530527
 20
-42.502721941458915
 10
121.76893659624687
 20
-42.50394900257794
 10
121.7689365962529
 20
-55.20394899766776
 10
121.76895165527515
 20
-55.205176057314205
 10
121.76897425118979
 20
-55.20578954111313
  0
LWPOLYLINE
  5
2E
330
17
100
AcDbEntity
  8
0
100
AcDbPolyline
 90
394
 70
0
 10
121.7189893155871
 20
-55.2070166109016
 10
121.71899684941108
 20
-55.20763047245785
 10
121.71908718654672
 20
-55.21008311633157
 10
121.73131807114461
 20
-55.45904661666776
 10
121.73146857190862
 20
-55.46149630424978
 10
121.73167914566025
 20
-55.46394156056039
 10
121.73191973985901
 20
-55.46638434576637
 10
121.73219025972692
 20
-55.46882369763501
 10
121.73252056277809
 20
-55.47125567593103
 10
121.76909523053902
 20
-55.71782151443328
 10
121.76948511785294
 20
-55.720244654464665
 10
121.76993435454659
 20
-55.72265749638289
 10
121.77041322492013
 20
-55.72506493657744
 10
121.7709215403372
 20
-55.72746602674128
 10
121.77148862832931
 20
-55.72985391906451
 10
121.83205484556187
 20
-55.97164753429973
 10
121.83268036460144
 20
-55.9740207906405
 10
121.83336393784643
 20
-55.97637798120272
 10
121.83407647261606
 20
-55.978726891445355
 10
121.83481768823192
 20
-55.98106659611696
 10
121.83561609980315
 20
-55.98338740578223
 10
121.91959058131069
 20
-56.21808019538981
 10
121.92044570799192
 20
-56.22038071230783
 10
121.92135703461113
 20
-56.22265955050397
 10
121.92229637168451
 20
-56.22492730952775
 10
121.92326334919446
 20
-56.227183096093796
 10
121.92428539521231
 20
-56.22941447245687
 10
122.0308594216426
 20
-56.45474621884045
 10
122.031935920636
 20
-56.456951841121445
 10
122.03306622406431
 20
-56.45913038051498
 10
122.03422331712125
 20
-56.46129514858317
 10
122.03540674401295
 20
-56.46344529260862
 10
122.03664258162581
 20
-56.4655657463178
 10
122.16478978787336
 20
-56.679366383755216
 10
122.16607729191603
 20
-56.6814558700731
 10
122.16741568672498
 20
-56.68351313016066
 10
122.16877939233771
 20
-56.68555405939351
 10
122.17016787157417
 20
-56.68757785383583
 10
122.17160559900164
 20
-56.689566963782305
 10
122.32009185865448
 20
-56.88977747732285
 10
122.32157796839039
 20
-56.89173070480119
 10
122.32311156511848
 20
-56.89364687306231
 10
122.32466875006925
 20
-56.895544308214916
 10
122.32624890985052
 20
-56.89742226284795
 10
122.32787468100615
 20
-56.899260872835846
 10
122.49526999164534
 20
-57.083953127719155
 10
122.49694039503993
 20
-57.085751285728875
 10
122.49865442432738
 20
-57.08750790843461
 10
122.50039009208912
 20
-57.08924357618785
 10
122.50214671462768
 20
-57.090957605299565
 10
122.50394487246194
 20
-57.092628008526916
 10
122.68863712735345
 20
-57.260023319157284
 10
122.6904757375254
 20
-57.261649090471536
 10
122.69235369235018
 20
-57.26322925040229
 10
122.69425112751058
 20
-57.26478643534387
 10
122.69616729558767
 20
-57.266320031913075
 10
122.69812052287453
 20
-57.2678061414994
 10
122.89833103642229
 20
-57.41629240114261
 10
122.90032014656778
 20
-57.417730128710105
 10
122.90234394121588
 20
-57.41911860807673
 10
122.9043848704551
 20
-57.420482313679216
 10
122.90644213034366
 20
-57.42182070834787
 10
122.90853161645602
 20
-57.42310821226026
 10
123.12233225389974
 20
-57.551255418497576
 10
123.12445270782001
 20
-57.55249125622988
 10
123.12660285206228
 20
-57.55367468323058
 10
123.1287676201359
 20
-57.554831776276785
 10
123.13094615931834
 20
-57.55596207958538
 10
123.13315178138276
 20
-57.55703857846963
 10
123.35848352777171
 20
-57.66361260488915
 10
123.36071490435734
 20
-57.664634651005535
 10
123.36297069115065
 20
-57.665601628603035
 10
123.36523845017946
 20
-57.66654096566543
 10
123.367517288153
 20
-57.667452292185835
 10
123.36981780484398
 20
-57.668307418779364
 10
123.60451059445496
 20
-57.75228190027533
 10
123.60683140435064
 20
-57.753080311922545
 10
123.60917110925624
 20
-57.75382152760305
 10
123.61152001950312
 20
-57.7545340623614
 10
123.61387720983487
 20
-57.75521763553012
 10
123.61625046594186
 20
-57.75584315450487
 10
123.85804408117914
 20
-57.81640937172552
 10
123.86043197373901
 20
-57.816976459770636
 10
123.86283306414195
 20
-57.817484775229076
 10
123.86524050433955
 20
-57.817963645590964
 10
123.86765334602104
 20
-57.818412882231335
 10
123.8700764858135
 20
-57.81880276950369
 10
124.1166423243171
 20
-57.85537743725265
 10
124.11907430285416
 20
-57.85570774033342
 10
124.12151365496514
 20
-57.85597826021909
 10
124.1239564401719
 20
-57.856218854405824
 10
124.12640169624135
 20
-57.8564294281276
 10
124.12885138358118
 20
-57.85657992887362
 10
124.3778148839184
 20
-57.86881081345953
 10
124.38026754672786
 20
-57.868901151059895
 10
124.38149486145959
 20
-57.86893128017209
 10
124.38394900257745
 20
-57.86896139875313
 10
144.7039489976677
 20
-57.86896139874711
 10
144.7064031387855
 20
-57.86893128016607
 10
144.70763045351723
 20
-57.868901151053876
 10
144.71008311633153
 20
-57.86881081345328
 10
144.95904661666813
 20
-57.856579928855346
 10
144.96149630425032
 20
-57.856429428091324
 10
144.9639415605611
 20
-57.856218854339666
 10
144.96638434576698
 20
-57.85597826014091
 10
144.96882369763546
 20
-57.85570774027302
 10
144.9712556759313
 20
-57.855377437221875
 10
145.21782151443296
 20
-57.81880276946103
 10
145.22024465446447
 20
-57.81841288214708
 10
145.22265749638282
 20
-57.817963645453396
 10
145.22506493657852
 20
-57.81748477507962
 10
145.2274660267422
 20
-57.81697645966258
 10
145.2298539190653
 20
-57.8164093716705
 10
145.47164753429936
 20
-57.75584315443823
 10
145.47402079064042
 20
-57.75521763539859
 10
145.47637798120294
 20
-57.7545340621535
 10
145.47872689144586
 20
-57.75382152738377
 10
145.48106659611716
 20
-57.753080311767995
 10
145.48338740578214
 20
-57.752281900196856
 10
145.71808019538952
 20
-57.66830741868942
 10
145.72038071230716
 20
-57.66745229200834
 10
145.72265955050293
 20
-57.666540965389295
 10
145.72492730952695
 20
-57.66560162831584
 10
145.72718309609337
 20
-57.664634650805745
 10
145.72941447245682
 20
-57.66361260478772
 10
145.95474621884054
 20
-57.55703857835736
 10
145.95695184112137
 20
-57.555962079364036
 10
145.95913038051475
 20
-57.55483177593582
 10
145.9612951485823
 20
-57.55367468287923
 10
145.96344529260793
 20
-57.552491255987455
 10
145.96556574631728
 20
-57.551255418374495
 10
146.1793663837556
 20
-57.423108212126394
 10
146.18145587007325
 20
-57.421820708083864
 10
146.18351313016058
 20
-57.42048231327508
 10
146.18555405939293
 20
-57.419118607662696
 10
146.18757785383548
 20
-57.417730128426086
 10
146.18956696378217
 20
-57.41629240099846
 10
146.38977747732307
 20
-57.26780614134534
 10
146.39173070480143
 20
-57.266320031609425
 10
146.39364687306255
 20
-57.264786434881316
 10
146.39554430821477
 20
-57.263229249930866
 10
146.39742226284778
 20
-57.26164909014961
 10
146.39926087283567
 20
-57.26002331899399
 10
146.58395312771904
 20
-57.09262800835474
 10
146.58575128572915
 20
-57.09095760495981
 10
146.5875079084352
 20
-57.08924357567198
 10
146.589243576189
 20
-57.087507907909654
 10
146.59095760530036
 20
-57.08575128537144
 10
146.59262800852736
 20
-57.08395312753755
 10
146.76002331915726
 20
-56.899260872646515
 10
146.7616490904704
 20
-56.89742226247586
 10
146.7632292504001
 20
-56.895544307652436
 10
146.76478643534136
 20
-56.89364687249254
 10
146.76632003191168
 20
-56.89173070441416
 10
146.76780614149905
 20
-56.889777477125946
 10
146.9162924011428
 20
-56.689566963577455
 10
146.9177301287109
 20
-56.687577853431115
 10
146.9191186080781
 20
-56.68555405878214
 10
146.92048231368045
 20
-56.68351312954301
 10
146.92182070834852
 20
-56.681455869655295
 10
146.92310821226036
 20
-56.679366383543815
 10
147.05125541849776
 20
-56.4655657460999
 10
147.05249125623013
 20
-56.46344529217948
 10
147.05367468323092
 20
-56.461295147937065
 10
147.0548317762772
 20
-56.45913037986326
 10
147.05596207958573
 20
-56.456951840680965
 10
147.0570385784699
 20
-56.4547462186167
 10
147.1636126048893
 20
-56.22941447222794
 10
147.16463465100554
 20
-56.22718309564258
 10
147.16560162860293
 20
-56.224927308849566
 10
147.16654096566532
 20
-56.22265954982081
 10
147.16745229218586
 20
-56.22038071184699
 10
147.16830741877948
 20
-56.21808019515572
 10
147.25228190027542
 20
-55.98338740554473
 10
147.25308031192284
 20
-55.9810665956485
 10
147.2538215276035
 20
-55.97872689074233
 10
147.25453406236167
 20
-55.97637798049591
 10
147.25521763553022
 20
-55.974020790164715
 10
147.25584315450482
 20
-55.9716475340583
 10
147.31640937172568
 20
-55.72985391882
 10
147.3169764597707
 20
-55.727466026260565
 10
147.31748477522905
 20
-55.725064935858065
 10
147.3179636455908
 20
-55.72265749566129
 10
147.31841288223126
 20
-55.72024465397937
 10
147.3188027695037
 20
-55.71782151418647
 10
147.35537743725263
 20
-55.47125567568285
 10
147.35570774033337
 20
-55.4688236971461
 10
147.35597826021902
 20
-55.46638434503543
 10
147.35621885440574
 20
-55.463941559828974
 10
147.35642942812754
 20
-55.46149630375921
 10
147.3565799288736
 20
-55.45904661641907
 10
147.36881081345953
 20
-55.210083116081236
 10
147.3689011510599
 20
-55.207630453271186
 10
147.3689312801721
 20
-55.20640313853946
 10
147.3689613987531
 20
-55.20394899742217
 10
147.36896139874708
 20
-42.503949002332064
 10
147.36893128016607
 20
-42.50149486121486
 10
147.36890115105388
 20
-42.50026754648314
 10
147.36881081345325
 20
-42.49781488366827
 10
147.35657992885533
 20
-42.24885138333207
 10
147.3564294280914
 20
-42.246401695750706
 10
147.35621885433983
 20
-42.243956439440744
 10
147.35597826014111
 20
-42.24151365423487
 10
147.35570774027315
 20
-42.23907430236559
 10
147.3553774372219
 20
-42.23664232406892
 10
147.318802769461
 20
-41.99007648556687
 10
147.31841288214682
 20
-41.98765334553394
 10
147.3179636454528
 20
-41.9852405036142
 10
147.31748477507892
 20
-41.982833063418326
 10
147.31697645966213
 20
-41.98043197325603
 10
147.31640937167037
 20
-41.97804408093433
 10
147.25584315443814
 20
-41.736250465700294
 10
147.25521763539848
 20
-41.733877209359164
 10
147.25453406215337
 20
-41.73152001879659
 10
147.25382152738348
 20
-41.72917110855317
 10
147.25308031176772
 20
-41.72683140388192
 10
147.2522819001966
 20
-41.724510594216994
 10
147.16830741868955
 20
-41.48981780461078
 10
147.16745229200805
 20
-41.487517287692086
 10
147.16654096538855
 20
-41.48523844949529
 10
147.1656016283146
 20
-41.4829706904702
 10
147.1646346508049
 20
-41.48071490390482
 10
147.16361260478735
 20
-41.4784835275424
 10
147.05703857835692
 20
-41.2531517811586
 10
147.0559620793634
 20
-41.25094615887742
 10
147.054831775935
 20
-41.24876761948371
 10
147.0536746828787
 20
-41.24660285141668
 10
147.0524912559871
 20
-41.24445270739142
 10
147.05125541837432
 20
-41.242332253682406
 10
146.9231082121262
 20
-41.028531616244145
 10
146.92182070808443
 20
-41.02644212992767
 10
146.92048231327644
 20
-41.02438486984148
 10
146.91911860766447
 20
-41.02234394060963
 10
146.91773012842714
 20
-41.02032014616591
 10
146.9162924009987
 20
-41.01833103621808
 10
146.76780614134614
 20
-40.818120522677866
 10
146.76632003160978
 20
-40.81616729519897
 10
146.76478643488124
 20
-40.81425112693732
 10
146.7632292499297
 20
-40.812353691783834
 10
146.76164909014886
 20
-40.81047573715135
 10
146.7600233189937
 20
-40.808637127163976
 10
146.59262800835435
 20
-40.62394487228054
 10
146.59095760495975
 20
-40.62214671427082
 10
146.5892435756723
 20
-40.62039009156509
 10
146.58750790791086
 20
-40.61865442381215
 10
146.5857512853723
 20
-40.616940394700435
 10
146.58395312753805
 20
-40.615269991473085
 10
146.3992608726465
 20
-40.447874680842666
 10
146.39742226247472
 20
-40.44624890952858
 10
146.39554430765014
 20
-40.444668749597966
 10
146.39364687248965
 20
-40.4431115646563
 10
146.3917307044124
 20
-40.441577968086946
 10
146.38977747712534
 20
-40.440091858500466
 10
146.18956696357762
 20
-40.291605598857295
 10
146.187577853432
 20
-40.29016787128972
 10
146.18555405878377
 20
-40.28877939192301
 10
146.1835131295449
 20
-40.28741568632078
 10
146.18145586965647
 20
-40.28607729165221
 10
146.17936638354425
 20
-40.2847897877399
 10
145.96556574610003
 20
-40.15664258150228
 10
145.96344529217953
 20
-40.155406743769845
 10
145.96129514793702
 20
-40.15422331676901
 10
145.95913037986378
 20
-40.15306622372303
 10
145.95695184068157
 20
-40.15193592041458
 10
145.9547462186174
 20
-40.15085942153045
 10
145.72941447222837
 20
-40.04428539511087
 10
145.72718309564306
 20
-40.043263348994635
 10
145.72492730885008
 20
-40.04229637139726
 10
145.72265954982163
 20
-40.04135703433499
 10
145.72038071184775
 20
-40.04044570781444
 10
145.71808019515643
 20
-40.039590581220786
 10
145.48338740554513
 20
-39.95561609972471
 10
145.48106659564948
 20
-39.95481768807749
 10
145.4787268907439
 20
-39.954076472397
 10
145.47637798049684
 20
-39.95336393763859
 10
145.47402079016507
 20
-39.95268036446986
 10
145.47164753405806
 20
-39.952054845495105
 10
145.2298539188208
 20
-39.89148862827446
 10
145.2274660262607
 20
-39.890921540229286
 10
145.2250649358575
 20
-39.8904132247708
 10
145.22265749565986
 20
-39.88993435440892
 10
145.22024465397863
 20
-39.8894851177686
 10
145.2178215141864
 20
-39.889095230496295
 10
144.97125567568267
 20
-39.85252056274733
 10
144.9688236971457
 20
-39.85219025966657
 10
144.96638434503478
 20
-39.851919739780904
 10
144.96394155982836
 20
-39.8516791455942
 10
144.96149630375882
 20
-39.85146857187242
 10
144.95904661641893
 20
-39.851318071126386
 10
144.71008311608156
 20
-39.83908718654047
 10
144.7076304532722
 20
-39.838996848940106
 10
144.70640313854054
 20
-39.83896671982791
 10
144.70394899742257
 20
-39.83893660124687
 10
124.3839490023323
 20
-39.83893660125289
 10
124.38149486121443
 20
-39.83896671983393
 10
124.38026754648274
 20
-39.838996848946124
 10
124.37781488366852
 20
-39.83908718654672
 10
124.12885138333182
 20
-39.851318071144654
 10
124.12640169574986
 20
-39.85146857190866
 10
124.12395643943931
 20
-39.851679145660285
 10
124.12151365423374
 20
-39.851919739859
 10
124.11907430236505
 20
-39.85219025972691
 10
124.11664232406896
 20
-39.85252056277808
 10
123.87007648556714
 20
-39.88909523053894
 10
123.86765334553557
 20
-39.8894851178529
 10
123.86524050361716
 20
-39.8899343545466
 10
123.86283306342155
 20
-39.89041322492036
 10
123.8604319732579
 20
-39.89092154033739
 10
123.85804408093486
 20
-39.891488628329455
 10
123.61625046570059
 20
-39.952054845561776
 10
123.61387720935927
 20
-39.95268036460149
 10
123.61152001879653
 20
-39.953363937846646
 10
123.60917110855326
 20
-39.9540764726165
 10
123.6068314038822
 20
-39.95481768823221
 10
123.60451059421746
 20
-39.95561609980327
 10
123.36981780461053
 20
-40.039590581310556
 10
123.3675172876928
 20
-40.04044570799167
 10
123.36523844949694
 20
-40.041357034610755
 10
123.3629706904727
 20
-40.04229637168431
 10
123.36071490390636
 20
-40.043263349194376
 10
123.35848352754299
 20
-40.044285395212356
 10
123.1331517811594
 20
-40.15085942164266
 10
123.13094615887834
 20
-40.1519359206361
 10
123.12876761948475
 20
-40.15306622406444
 10
123.12660285141699
 20
-40.154223317121144
 10
123.12445270739161
 20
-40.15540674401281
 10
123.12233225368249
 20
-40.15664258162563
 10
122.90853161624467
 20
-40.28478978787343
 10
122.9064421299273
 20
-40.28607729191578
 10
122.90438486984023
 20
-40.28741568672438
 10
122.90234394060747
 20
-40.28877939233702
 10
122.90032014616463
 20
-40.290167871573814
 10
122.89833103621766
 20
-40.29160559900163
 10
122.69812052267724
 20
-40.44009185865439
 10
122.696167295199
 20
-40.44157796839023
 10
122.694251126938
 20
-40.44311156511824
 10
122.69235369178536
 20
-40.44466875006903
 10
122.69047573715221
 20
-40.44624890985037
 10
122.68863712716423
 20
-40.447874681006084
 10
122.50394487228093
 20
-40.615269991645256
 10
122.50214671427084
 20
-40.61694039504018
 10
122.50039009156475
 20
-40.618654424328014
 10
122.49865442381127
 20
-40.62039009209003
 10
122.49694039469992
 20
-40.622146714628244
 10
122.49526999147292
 20
-40.623944872462125
 10
122.32787468084254
 20
-40.808637127353634
 10
122.32624890952822
 20
-40.81047573752568
 10
122.3246687495974
 20
-40.81235369235055
 10
122.32311156465592
 20
-40.81425112751083
 10
122.32157796808679
 20
-40.816167295587825
 10
122.32009185850053
 20
-40.8181205228746
 10
122.17160559885748
 20
-41.01833103642216
 10
122.17016787129018
 20
-41.020320146567386
 10
122.16877939192372
 20
-41.02234394121521
 10
122.16741568632116
 20
-41.02438487045452
 10
122.16607729165233
 20
-41.026442130343334
 10
122.16478978773976
 20
-41.028531616455965
 10
122.03664258150235
 20
-41.24233225389987
 10
122.03540674376995
 20
-41.244452707820294
 10
122.03422331676917
 20
-41.24660285206272
 10
122.03306622372315
 20
-41.24876762013602
 10
122.03193592041465
 20
-41.2509461593183
 10
122.03085942153048
 20
-41.25315178138256
 10
121.92428539511083
 20
-41.4784835277718
 10
121.92326334899458
 20
-41.48071490435713
 10
121.92229637139721
 20
-41.48297069115013
 10
121.92135703433478
 20
-41.48523845017898
 10
121.92044570781424
 20
-41.48751728815282
 10
121.91959058122059
 20
-41.48981780484411
 10
121.83561609972466
 20
-41.72451059445498
 10
121.83481768807737
 20
-41.72683140435086
 10
121.83407647239682
 20
-41.72917110925666
 10
121.83336393763854
 20
-41.73152001950334
 10
121.83268036446988
 20
-41.733877209834894
 10
121.83205484549518
 20
-41.73625046594167
 10
121.77148862827448
 20
-41.97804408117907
 10
121.77092154022935
 20
-41.98043197373902
 10
121.77041322477089
 20
-41.98283306414205
 10
121.76993435440902
 20
-41.9852405043396
 10
121.76948511776867
 20
-41.987653346021006
 10
121.76909523049633
 20
-41.99007648581339
 10
121.73252056274737
 20
-42.236642324317096
 10
121.73219025966662
 20
-42.239074302853915
 10
121.73191973978096
 20
-42.241513654964656
 10
121.73167914559423
 20
-42.24395644017129
 10
121.73146857187243
 20
-42.24640169624098
 10
121.73131807112638
 20
-42.248851383581055
 10
121.71908718654045
 20
-42.497814883918906
 10
121.71899684894008
 20
-42.50026754672894
 10
121.71896671982789
 20
-42.501494861460664
 10
121.71893660124687
 20
-42.50394900257797
 10
121.71893660125289
 20
-55.20394899766779
 10
121.71896671929665
 20
-55.20640311689932
 10
121.7189893155871
 20
-55.2070166109016
  0
LWPOLYLINE
  5
2F
330
17
100
AcDbEntity
  8
0
100
AcDbPolyline
 90
394
 70
0
 10
121.66900437998443
 20
-55.20824368069054
 10
121.66901191393372
 20
-55.208857552456365
 10
121.66914741963603
 20
-55.21253651823629
 10
121.68137830423393
 20
-55.46150001857249
 10
121.68160405537806
 20
-55.46517454991489
 10
121.68191991600288
 20
-55.46884243435024
 10
121.68216051020164
 20
-55.47128521955622
 10
121.68256629000011
 20
-55.474944247328686
 10
121.68306174457273
 20
-55.47859221474232
 10
121.71963641233366
 20
-55.72515805324457
 10
121.72022124329968
 20
-55.72879276326135
 10
121.72089509833454
 20
-55.73241202610853
 10
121.72137396870808
 20
-55.73481946630308
 10
121.72213644182733
 20
-55.73842110151883
 10
121.7229870738084
 20
-55.74200293997382
 10
121.78355329104096
 20
-55.98379655520904
 10
121.78449156959249
 20
-55.98735643969053
 10
121.78551692945142
 20
-55.990892225504396
 10
121.78622946422105
 20
-55.993241135747034
 10
121.78734128763558
 20
-55.996750692725186
 10
121.78853890498246
 20
-56.000231907194085
 10
121.87251338649
 20
-56.23492469680166
 10
121.87379607650115
 20
-56.23837547214994
 10
121.87516306641857
 20
-56.24179372941567
 10
121.87610240349194
 20
-56.24406148843945
 10
121.87755286974479
 20
-56.24744516826031
 10
121.87908593875879
 20
-56.25079223277703
 10
121.98565996518909
 20
-56.47612397916061
 10
121.98727471366573
 20
-56.47943241255453
 10
121.98897016879407
 20
-56.4827002216176
 10
121.990127261851
 20
-56.48486498968579
 10
121.99190240217375
 20
-56.48809020569709
 10
121.9937561585776
 20
-56.49127088623436
 10
122.12190336482514
 20
-56.705071523671776
 10
122.12383462087305
 20
-56.70820575312248
 10
122.12584221306975
 20
-56.71129164322811
 10
122.12720591868248
 20
-56.713332572460956
 10
122.12928863751982
 20
-56.716368264099145
 10
122.13144522864306
 20
-56.719351928993994
 10
122.2799314882959
 20
-56.91956244253454
 10
122.28216065288119
 20
-56.922492283727635
 10
122.28446104795415
 20
-56.92536653609535
 10
122.28601823290492
 20
-56.92726397124796
 10
122.28838847255707
 20
-56.93008090317404
 10
122.2908271292702
 20
-56.9328388181329
 10
122.45822243990939
 20
-57.11753107301621
 10
122.46072804498039
 20
-57.120228310008315
 10
122.46329908889014
 20
-57.12286324404495
 10
122.46503475665187
 20
-57.12459891179819
 10
122.46766969043777
 20
-57.127169955444344
 10
122.47036692716668
 20
-57.12967556026449
 10
122.65505918205818
 20
-57.297070870894856
 10
122.65781709729313
 20
-57.29950952784591
 10
122.66063402950682
 20
-57.30187976772229
 10
122.66253146466723
 20
-57.30343695266387
 10
122.6654057167589
 20
-57.30573734749851
 10
122.66833555766478
 20
-57.30796651185942
 10
122.86854607121253
 20
-57.45645277150263
 10
122.8715297364059
 20
-57.458609362835894
 10
122.87456542835275
 20
-57.46069208186849
 10
122.87660635759198
 20
-57.46205578747097
 10
122.8796922473991
 20
-57.46406337945722
 10
122.88282647654152
 20
-57.465994635309706
 10
123.09662711398525
 20
-57.59414184154702
 10
123.09980779483914
 20
-57.59599559813003
 10
123.10303301117567
 20
-57.5977707386163
 10
123.1051977792493
 20
-57.5989278316625
 10
123.10846558799572
 20
-57.60062328661126
 10
123.11177402106478
 20
-57.602238034924184
 10
123.33710576745372
 20
-57.70881206134371
 10
123.34045283230428
 20
-57.7103451305055
 10
123.34383651246605
 20
-57.71179559688966
 10
123.34610427149487
 20
-57.712734933952056
 10
123.34952252842669
 20
-57.71410192372127
 10
123.3529733034344
 20
-57.715384613600875
 10
123.58766609304539
 20
-57.79935909509684
 10
123.59114730785988
 20
-57.80055671255769
 10
123.59465686518904
 20
-57.80166853606918
 10
123.59700577543592
 20
-57.80238107082753
 10
123.60054156090409
 20
-57.80340643057207
 10
123.6041014450349
 20
-57.804344709026374
 10
123.84589506027218
 20
-57.86491092624702
 10
123.84947689908213
 20
-57.86576155830761
 10
123.85307853465652
 20
-57.866524031488915
 10
123.85548597485412
 20
-57.8670029018508
 10
123.85910523734618
 20
-57.86767675680574
 10
123.8627399470046
 20
-57.8682615877094
 10
124.1093057855082
 20
-57.904836255458356
 10
124.11295375328339
 20
-57.90533171007539
 10
124.11661278141938
 20
-57.90573748990051
 10
124.11905556662613
 20
-57.905978084087245
 10
124.12272345069975
 20
-57.906293944667276
 10
124.12639798167888
 20
-57.90651969578443
 10
124.3753614820161
 20
-57.91875058037034
 10
124.37904047619963
 20
-57.91888608676975
 10
124.38026779093136
 20
-57.91891621588195
 10
124.38394900257747
 20
-57.91896139375313
 10
144.70394899766774
 20
-57.91896139374711
 10
144.70763020931375
 20
-57.91891621587593
 10
144.70885752404547
 20
-57.918886086763735
 10
144.71253651823625
 20
-57.91875058036397
 10
144.96150001857285
 20
-57.906519695766036
 10
144.96517454991553
 20
-57.906293944621886
 10
144.96884243435113
 20
-57.90597808399703
 10
144.97128521955702
 20
-57.90573748979827
 10
144.9749442473292
 20
-57.905331709999814
 10
144.97859221474258
 20
-57.904836255427234
 10
145.22515805324423
 20
-57.86826158766639
 10
145.22879276326123
 20
-57.867676756700334
 10
145.2324120261086
 20
-57.86700290166542
 10
145.2348194663043
 20
-57.86652403129165
 10
145.23842110151983
 20
-57.865761558172444
 10
145.2420029399746
 20
-57.86491092619142
 10
145.48379655520867
 20
-57.80434470895915
 10
145.4873564396906
 20
-57.80340643040749
 10
145.4908922255049
 20
-57.80238107054842
 10
145.4932411357478
 20
-57.80166853577869
 10
145.49675069272553
 20
-57.80055671236428
 10
145.50023190719398
 20
-57.79935909501756
 10
145.73492469680136
 20
-57.715384613510125
 10
145.73837547214907
 20
-57.714101923499186
 10
145.74179372941424
 20
-57.71273493358201
 10
145.74406148843826
 20
-57.71179559650856
 10
145.7474451682597
 20
-57.7103451302555
 10
145.750792232777
 20
-57.70881206124124
 10
145.97612397916072
 20
-57.602238034810874
 10
145.9794324125544
 20
-57.60062328633435
 10
145.98270022161722
 20
-57.598927831206154
 10
145.98486498968478
 20
-57.59777073814957
 10
145.98809020569632
 20
-57.59599559782669
 10
145.99127088623385
 20
-57.594141841422704
 10
146.20507152367216
 20
-57.4659946351746
 10
146.2082057531225
 20
-57.464063379126905
 10
146.2112916432278
 20
-57.46205578693045
 10
146.21333257246016
 20
-57.460692081318065
 10
146.2163682640987
 20
-57.45860936248051
 10
146.21935192899386
 20
-57.45645277135704
 10
146.41956244253475
 20
-57.307966511703924
 10
146.42249228372788
 20
-57.30573734711862
 10
146.4253665360956
 20
-57.30343695204564
 10
146.4272639712478
 20
-57.30187976709519
 10
146.4300809031739
 20
-57.29950952744306
 10
146.43283881813272
 20
-57.29707087072994
 10
146.6175310730161
 20
-57.12967556009069
 10
146.62022831000877
 20
-57.12716995501918
 10
146.62286324404593
 20
-57.12459891110886
 10
146.62459891179972
 20
-57.122863243346536
 10
146.6271699554453
 20
-57.12022830956116
 10
146.62967556026493
 20
-57.117531072832804
 10
146.79707087089483
 20
-56.93283881794177
 10
146.7995095278442
 20
-56.930080902708774
 10
146.80187976771902
 20
-56.92726397049711
 10
146.8034369526603
 20
-56.92536653533721
 10
146.8057373474966
 20
-56.92249228324359
 10
146.8079665118591
 20
-56.919562442335696
 10
146.95645277150285
 20
-56.719351928787205
 10
146.958609362837
 20
-56.71636826359256
 10
146.96069208187043
 20
-56.71333257164439
 10
146.9620557874728
 20
-56.711291642405264
 10
146.96406337945814
 20
-56.708205752599405
 10
146.9659946353098
 20
-56.7050715234583
 10
147.0941418415472
 20
-56.491270886014384
 10
147.09599559813034
 20
-56.48809020516027
 10
147.0977707386167
 20
-56.48486498882352
 10
147.098927831663
 20
-56.48270022074971
 10
147.10062328661164
 20
-56.479432412003504
 10
147.10223803492445
 20
-56.47612397893467
 10
147.20881206134385
 20
-56.25079223254591
 10
147.21034513050546
 20
-56.24744516769578
 10
147.21179559688943
 20
-56.24406148753445
 10
147.21273493395182
 20
-56.2417937285057
 10
147.21410192372124
 20
-56.23837547157345
 10
147.215384613601
 20
-56.2349246965653
 10
147.29935909509695
 20
-56.00023190695431
 10
147.30055671255806
 20
-55.99675069213897
 10
147.3016685360698
 20
-55.99324113480896
 10
147.30238107082798
 20
-55.99089222456254
 10
147.30340643057224
 20
-55.987356439095215
 10
147.3043447090263
 20
-55.98379655496526
 10
147.36491092624718
 20
-55.74200293972696
 10
147.3657615583076
 20
-55.738421100917655
 10
147.3665240314888
 20
-55.73481946534392
 10
147.36700290185055
 20
-55.73241202514714
 10
147.36767675680565
 20
-55.72879276265442
 10
147.3682615877094
 20
-55.72515805299536
 10
147.40483625545835
 20
-55.47859221449174
 10
147.40533171007533
 20
-55.474944246717016
 10
147.40573748990042
 20
-55.4712852185815
 10
147.40597808408714
 20
-55.468842433375045
 10
147.40629394466723
 20
-55.46517454930097
 10
147.4065196957844
 20
-55.46150001832138
 10
147.41875058037033
 20
-55.212536517983544
 10
147.41888608676976
 20
-55.208857523799125
 10
147.41891621588195
 20
-55.207630209067396
 10
147.4189613937531
 20
-55.203948997422145
 10
147.41896139374708
 20
-42.50394900233204
 10
147.41891621587592
 20
-42.50026779068691
 10
147.41888608676373
 20
-42.49904047595519
 10
147.41875058036396
 20
-42.495361481763545
 10
147.40651969576604
 20
-42.24639798142734
 10
147.40629394462198
 20
-42.24272345008592
 10
147.40597808399727
 20
-42.23905556565155
 10
147.40573748979855
 20
-42.236612780445675
 10
147.40533171
 20
-42.23295375267224
 10
147.40483625542726
 20
-42.22930578525763
 10
147.36826158766635
 20
-41.98273994675558
 10
147.36767675669995
 20
-41.97910523673649
 10
147.36700290166456
 20
-41.975485973887025
 10
147.36652403129068
 20
-41.97307853369115
 10
147.36576155817184
 20
-41.96947689847772
 10
147.3649109261913
 20
-41.96589506002503
 10
147.30434470895906
 20
-41.72410144479099
 10
147.30340643040736
 20
-41.72054156030896
 10
147.30238107054828
 20
-41.71700577449457
 10
147.3016685357784
 20
-41.71465686425115
 10
147.300556712364
 20
-41.71114730727352
 10
147.2993590950173
 20
-41.707666092805134
 10
147.21538461351025
 20
-41.47297330319892
 10
147.2141019234987
 20
-41.46952252784964
 10
147.21273493358083
 20
-41.46610427058293
 10
147.21179559650687
 20
-41.46383651155784
 10
147.21034513025444
 20
-41.46045283173797
 10
147.20881206124085
 20
-41.45710576722223
 10
147.10223803481043
 20
-41.23177402083843
 10
147.10062328633364
 20
-41.228465587444234
 10
147.09892783120517
 20
-41.225197778380895
 10
147.09777073814885
 20
-41.22303301031387
 10
147.09599559782623
 20
-41.219807794302845
 10
147.09414184142253
 20
-41.21662711376583
 10
146.9659946351744
 20
-41.00282647632757
 10
146.96406337912782
 20
-40.999692246878986
 10
146.96205578693258
 20
-40.99660635677541
 10
146.96069208132062
 20
-40.99456542754356
 10
146.95860936248195
 20
-40.99152973590327
 10
146.95645277135728
 20
-40.98854607100639
 10
146.8079665117047
 20
-40.788335557466176
 10
146.8057373471188
 20
-40.78540571627225
 10
146.80343695204513
 20
-40.78253146390374
 10
146.8018797670936
 20
-40.78063402875025
 10
146.79950952744207
 20
-40.77781709682499
 10
146.7970708707296
 20
-40.77505918186692
 10
146.62967556009028
 20
-40.590366926983485
 10
146.6271699550193
 20
-40.58766968999138
 10
146.62459891110956
 20
-40.58503475595475
 10
146.62286324334812
 20
-40.58329908820181
 10
146.6202283095622
 20
-40.580728044555656
 10
146.61753107283332
 20
-40.57822243973551
 10
146.43283881794176
 20
-40.410827129105094
 10
146.4300809027071
 20
-40.40838847215427
 10
146.42726397049367
 20
-40.40601823227812
 10
146.42536653533318
 20
-40.404461047336454
 10
146.42249228324124
 20
-40.40216065250158
 10
146.41956244233506
 20
-40.39993148814044
 10
146.21935192878735
 20
-40.25144522849727
 10
146.2163682635938
 20
-40.24928863716388
 10
146.21333257164676
 20
-40.24720591813117
 10
146.2112916424079
 20
-40.24584221252894
 10
146.20820575260097
 20
-40.24383462054282
 10
146.20507152345874
 20
-40.24190336469046
 10
145.99127088601452
 20
-40.11375615845284
 10
145.98809020516026
 20
-40.11190240186962
 10
145.98486498882338
 20
-40.11012726138317
 10
145.98270022075013
 20
-40.10897016833719
 10
145.97943241200406
 20
-40.10727471338864
 10
145.9761239789354
 20
-40.1056599650759
 10
145.75079223254636
 20
-39.99908593865632
 10
145.7474451676963
 20
-39.99755286949475
 10
145.74406148753502
 20
-39.996102403110775
 10
145.74179372850656
 20
-39.995163066048505
 10
145.73837547157424
 20
-39.99379607627907
 10
145.73492469656603
 20
-39.992513386399274
 10
145.50023190695472
 20
-39.908538904903196
 10
145.49675069214024
 20
-39.90734128744235
 10
145.49324113481111
 20
-39.90622946393087
 10
145.49089222456405
 20
-39.905516929172464
 10
145.48735643909586
 20
-39.90449156942792
 10
145.48379655496504
 20
-39.903553290973605
 10
145.24200293972777
 20
-39.84298707375296
 10
145.23842110091744
 20
-39.84213644169228
 10
145.23481946534267
 20
-39.841373968510915
 10
145.23241202514504
 20
-39.84089509814903
 10
145.22879276265334
 20
-39.84022124319417
 10
145.2251580529953
 20
-39.83963641229059
 10
144.97859221449158
 20
-39.80306174454162
 10
144.97494424671652
 20
-39.802566289924606
 10
144.97128521858065
 20
-39.80216051009949
 10
144.96884243337422
 20
-39.801919915912784
 10
144.96517454930049
 20
-39.80160405533274
 10
144.96150001832123
 20
-39.801378304215575
 10
144.71253651798386
 20
-39.78914741962966
 10
144.7088575238005
 20
-39.78901191323025
 10
144.70763020906884
 20
-39.78898178411805
 10
144.70394899742254
 20
-39.78893660624687
 10
124.38394900233229
 20
-39.78893660625289
 10
124.38026779068618
 20
-39.78898178412407
 10
124.37904047595448
 20
-39.789011913236266
 10
124.3753614817638
 20
-39.78914741963603
 10
124.1263979814271
 20
-39.801378304233964
 10
124.12272345008478
 20
-39.80160405537809
 10
124.11905556564952
 20
-39.8019199160029
 10
124.11661278044394
 20
-39.80216051020162
 10
124.1129537526714
 20
-39.8025662900001
 10
124.10930578525767
 20
-39.80306174457272
 10
123.86273994675585
 20
-39.83963641233358
 10
123.85910523673878
 20
-39.84022124329965
 10
123.85548597389133
 20
-39.84089509833458
 10
123.85307853369572
 20
-39.84137396870834
 10
123.84947689848026
 20
-39.842136441827535
 10
123.84589506002554
 20
-39.84298707380854
 10
123.60410144479127
 20
-39.90355329104086
 10
123.60054156030898
 20
-39.904491569592615
 10
123.59700577449432
 20
-39.90551692945181
 10
123.59465686425105
 20
-39.90622946422166
 10
123.5911473072737
 20
-39.907341287635965
 10
123.5876660928056
 20
-39.90853890498257
 10
123.35297330319868
 20
-39.992513386489854
 10
123.34952252785084
 20
-39.99379607650085
 10
123.34610427058553
 20
-39.99516306641808
 10
123.34383651156128
 20
-39.99610240349163
 10
123.34045283173997
 20
-39.997552869744645
 10
123.33710576722282
 20
-39.99908593875884
 10
123.11177402083923
 20
-40.10565996518914
 10
123.10846558744521
 20
-40.10727471366584
 10
123.10519777838205
 20
-40.10897016879422
 10
123.10303301031429
 20
-40.11012726185093
 10
123.09980779430309
 20
-40.111902402173634
 10
123.09662711376592
 20
-40.113756158577424
 10
122.8828264763281
 20
-40.24190336482522
 10
122.87969224687816
 20
-40.243834620872654
 10
122.87660635677328
 20
-40.245842213068826
 10
122.87456542754052
 20
-40.247205918681466
 10
122.87152973590156
 20
-40.249288637519285
 10
122.86854607100598
 20
-40.25144522864305
 10
122.66833555746557
 20
-40.39993148829581
 10
122.66540571627262
 20
-40.40216065288098
 10
122.66253146390504
 20
-40.40446104795383
 10
122.6606340287524
 20
-40.40601823290462
 10
122.65781709682618
 20
-40.40838847255688
 10
122.65505918186717
 20
-40.410827129270125
 10
122.47036692698387
 20
-40.5782224399093
 10
122.46766968999121
 20
-40.580728044980816
 10
122.46503475595404
 20
-40.58329908889113
 10
122.46329908820056
 20
-40.585034756653144
 10
122.46072804455497
 20
-40.58766969043851
 10
122.45822243973535
 20
-40.590366927166855
 10
122.29082712910497
 20
-40.775059182058364
 10
122.2883884721538
 20
-40.77781709729345
 10
122.28601823227731
 20
-40.78063402950728
 10
122.28446104733584
 20
-40.782531464667564
 10
122.28216065250132
 20
-40.78540571675911
 10
122.2799314881405
 20
-40.78833555766485
 10
122.13144522849745
 20
-40.98854607121241
 10
122.12928863716448
 20
-40.99152973640539
 10
122.12720591813215
 20
-40.99456542835183
 10
122.12584221252959
 20
-40.99660635759113
 10
122.12383462054306
 20
-40.99969224739865
 10
122.12190336469031
 20
-41.00282647654148
 10
121.9937561584529
 20
-41.21662711398538
 10
121.99190240186975
 20
-41.21980779483951
 10
121.99012726138336
 20
-41.22303301117628
 10
121.98897016833735
 20
-41.22519777924958
 10
121.98727471338873
 20
-41.22846558799577
 10
121.98565996507593
 20
-41.23177402106458
 10
121.87908593865627
 20
-41.45710576745382
 10
121.87755286949468
 20
-41.46045283230392
 10
121.8761024031107
 20
-41.46383651246522
 10
121.87516306604827
 20
-41.466104271494075
 10
121.87379607627885
 20
-41.46952252842635
 10
121.87251338639908
 20
-41.47297330343453
 10
121.78853890490315
 20
-41.707666093045404
 10
121.78734128744219
 20
-41.71114730786021
 10
121.78622946393062
 20
-41.71465686518966
 10
121.78551692917235
 20
-41.71700577543634
 10
121.7844915694279
 20
-41.7205415609042
 10
121.78355329097369
 20
-41.724101445034705
 10
121.72298707375299
 20
-41.9658950602721
 10
121.72213644169237
 20
-41.96947689908218
 10
121.72137396851105
 20
-41.97307853465671
 10
121.72089509814917
 20
-41.97548597485426
 10
121.72022124319425
 20
-41.97910523734621
 10
121.71963641229061
 20
-41.9827399470045
 10
121.68306174454165
 20
-42.2293057855082
 10
121.68256628992467
 20
-42.232953753283034
 10
121.68216051009958
 20
-42.23661278141865
 10
121.68191991591284
 20
-42.23905556662528
 10
121.68160405533276
 20
-42.24272345069925
 10
121.68137830421558
 20
-42.24639798167875
 10
121.66914741962965
 20
-42.4953614820166
 10
121.66901191323021
 20
-42.499040476200996
 10
121.66898178411802
 20
-42.50026779093272
 10
121.66893660624687
 20
-42.50394900257799
 10
121.6689366062529
 20
-55.20394899766781
 10
121.66898178331815
 20
-55.20763017648443
 10
121.66900437998443
 20
-55.20824368069054
  0
LWPOLYLINE
  5
30
330
17
100
AcDbEntity
  8
0
100
AcDbPolyline
 90
394
 70
0
 10
121.61901944438175
 20
-55.2094707504791
 10
121.61902697845635
 20
-55.21008463245489
 10
121.61920765272534
 20
-55.21498992014101
 10
121.63143853732323
 20
-55.4639534204772
 10
121.63173953884748
 20
-55.46885279558
 10
121.6321606863455
 20
-55.473743308140094
 10
121.63240128054426
 20
-55.47618609334607
 10
121.6329423202733
 20
-55.481064797022356
 10
121.63360292636737
 20
-55.48592875355361
 10
121.6701775941283
 20
-55.73249459205586
 10
121.67095736874641
 20
-55.73734087205804
 10
121.67185584212248
 20
-55.74216655583417
 10
121.67233471249602
 20
-55.74457399602872
 10
121.67335134331745
 20
-55.74937617629637
 10
121.67448551928749
 20
-55.75415196088313
 10
121.73505173652005
 20
-55.995945576118345
 10
121.73630277458354
 20
-56.000692088740564
 10
121.73766992105642
 20
-56.005406469806076
 10
121.73838245582606
 20
-56.007755380048714
 10
121.73986488703925
 20
-56.01243478933342
 10
121.74146171016176
 20
-56.017076408605945
 10
121.8254361916693
 20
-56.25176919821352
 10
121.82714644501038
 20
-56.25637023199205
 10
121.82896909822601
 20
-56.26092790832736
 10
121.82990843529939
 20
-56.26319566735114
 10
121.83184239029512
 20
-56.26770724042683
 10
121.83388648230527
 20
-56.272169993097194
 10
121.94046050873557
 20
-56.497501739480775
 10
121.94261350669545
 20
-56.50191298398762
 10
121.94487411352381
 20
-56.506270062720226
 10
121.94603120658074
 20
-56.50843483078842
 10
121.94839806033455
 20
-56.512735118785564
 10
121.95086973552938
 20
-56.51697602615092
 10
122.07901694177693
 20
-56.73077666358834
 10
122.08159194983008
 20
-56.734955636171854
 10
122.08426873941453
 20
-56.739070156295554
 10
122.08563244502726
 20
-56.7411110855284
 10
122.08840940346548
 20
-56.74515867436245
 10
122.09128485828447
 20
-56.74913689420568
 10
122.23977111793731
 20
-56.949347407746224
 10
122.24274333737198
 20
-56.95325386265408
 10
122.24581053078983
 20
-56.9570861991284
 10
122.2473677157406
 20
-56.958983634281005
 10
122.25052803526363
 20
-56.96273954350013
 10
122.25377957753425
 20
-56.966416763429955
 10
122.42117488817344
 20
-57.151109018313264
 10
122.42451569492084
 20
-57.154705334287755
 10
122.42794375345291
 20
-57.1582185796553
 10
122.42967942121464
 20
-57.159954247408535
 10
122.43319266624786
 20
-57.163382305589124
 10
122.43678898187142
 20
-57.16672311200206
 10
122.62148123676292
 20
-57.33411842263243
 10
122.62515845706086
 20
-57.33736996522029
 10
122.62891436666347
 20
-57.34053028504229
 10
122.63081180182387
 20
-57.34208746998387
 10
122.63464413793014
 20
-57.345154663083946
 10
122.63855059245503
 20
-57.34812688221945
 10
122.83876110600279
 20
-57.49661314186266
 10
122.84273932624404
 20
-57.49948859696169
 10
122.84678691548963
 20
-57.50226555566024
 10
122.84882784472886
 20
-57.503629261262724
 10
122.85294236445455
 20
-57.50630605056657
 10
122.85712133662703
 20
-57.50888105835916
 10
123.07092197407076
 20
-57.63702826459647
 10
123.07516288185828
 20
-57.63949994003019
 10
123.07946317028906
 20
-57.64186679400201
 10
123.08162793836269
 20
-57.643023887048216
 10
123.08598501667309
 20
-57.64528449363714
 10
123.09039626074679
 20
-57.64743749137873
 10
123.31572800713573
 20
-57.754011517798254
 10
123.32019076025122
 20
-57.75605561000546
 10
123.32470233378146
 20
-57.75798956517629
 10
123.32697009281027
 20
-57.75892890223869
 10
123.33152776870037
 20
-57.76075155525672
 10
123.33612880202482
 20
-57.76246180842239
 10
123.5708215916358
 20
-57.84643628991835
 10
123.57546321136914
 20
-57.84803311319284
 10
123.58014262112184
 20
-57.84951554453531
 10
123.58249153136872
 20
-57.85022807929366
 10
123.58720591197329
 20
-57.85159522561401
 10
123.59195242412792
 20
-57.852846263547875
 10
123.83374603936521
 20
-57.91341248076852
 10
123.83852182442524
 20
-57.914546656844585
 10
123.8433240051711
 20
-57.91556328774875
 10
123.8457314453687
 20
-57.91604215811064
 10
123.85055712867135
 20
-57.91694063138016
 10
123.85540340819571
 20
-57.91772040591511
 10
124.10196924669931
 20
-57.95429507366407
 10
124.10683320371264
 20
-57.95495567981736
 10
124.11171190787361
 20
-57.95549671958193
 10
124.11415469308037
 20
-57.955737313768665
 10
124.11904520515814
 20
-57.956158461206954
 10
124.12394457977656
 20
-57.956459462695236
 10
124.37290808011379
 20
-57.96869034728115
 10
124.37781340567139
 20
-57.96887102247961
 10
124.37904072040311
 20
-57.96890115159181
 10
124.38394900257748
 20
-57.96896138875313
 10
144.70394899766774
 20
-57.96896138874711
 10
144.708857279842
 20
-57.96890115158579
 10
144.71008459457371
 20
-57.96887102247359
 10
144.71498992014097
 20
-57.96869034727465
 10
144.96395342047757
 20
-57.95645946267672
 10
144.96885279558072
 20
-57.95615846115244
 10
144.97374330814117
 20
-57.955737313654396
 10
144.97618609334705
 20
-57.95549671945564
 10
144.98106479702298
 20
-57.95495567972661
 10
144.98592875355388
 20
-57.954295073632586
 10
145.23249459205553
 20
-57.91772040587174
 10
145.23734087205798
 20
-57.91694063125359
 10
145.24216655583436
 20
-57.916042157877456
 10
145.24457399603006
 20
-57.91556328750368
 10
145.24937617629746
 20
-57.914546656682305
 10
145.25415196088395
 20
-57.91341248071233
 10
145.495945576118
 20
-57.85284626348006
 10
145.5006920887408
 20
-57.851595225416396
 10
145.50540646980687
 20
-57.85022807894333
 10
145.5077553800498
 20
-57.8495155441736
 10
145.5124347893339
 20
-57.84803311296057
 10
145.51707640860585
 20
-57.84643628983826
 10
145.75176919821322
 20
-57.762461808330826
 10
145.75637023199099
 20
-57.76075155499003
 10
145.76092790832556
 20
-57.75892890177473
 10
145.76319566734958
 20
-57.757989564701276
 10
145.76770724042606
 20
-57.75605560970525
 10
145.77216999309718
 20
-57.75401151769476
 10
145.9975017394809
 20
-57.64743749126439
 10
146.0019129839874
 20
-57.64528449330466
 10
146.0062700627197
 20
-57.64302388647649
 10
146.00843483078725
 20
-57.64186679341991
 10
146.01273511878472
 20
-57.63949993966594
 10
146.0169760261504
 20
-57.63702826447091
 10
146.2307766635887
 20
-57.50888105822281
 10
146.23495563617178
 20
-57.506306050169954
 10
146.239070156295
 20
-57.503629260585825
 10
146.24111108552736
 20
-57.50226555497344
 10
146.24515867436187
 20
-57.49948859653494
 10
146.24913689420555
 20
-57.49661314171562
 10
146.44934740774644
 20
-57.3481268820625
 10
146.45325386265432
 20
-57.34515466262782
 10
146.45708619912867
 20
-57.34208746920996
 10
146.45898363428088
 20
-57.34053028425951
 10
146.4627395435
 20
-57.337369964736496
 10
146.46641676342978
 20
-57.33411842246589
 10
146.65110901831315
 20
-57.16672311182664
 10
146.6547053342884
 20
-57.16338230507854
 10
146.65821857965665
 20
-57.15995424654574
 10
146.65995424741044
 20
-57.15821857878341
 10
146.6633823055903
 20
-57.15470533375088
 10
146.66672311200253
 20
-57.15110901812807
 10
146.83411842263243
 20
-56.966416763237035
 10
146.83736996521804
 20
-56.962739542941684
 10
146.84053028503794
 20
-56.95898363334179
 10
146.84208746997922
 20
-56.95708619818189
 10
146.8451546630815
 20
-56.953253862073026
 10
146.8481268822191
 20
-56.949347407545446
 10
146.99661314186287
 20
-56.749136893996955
 10
146.9994885969631
 20
-56.745158673754
 10
147.00226555566277
 20
-56.74111108450665
 10
147.00362926126513
 20
-56.73907015526752
 10
147.0063060505678
 20
-56.734955635543514
 10
147.00888105835926
 20
-56.73077666337279
 10
147.13702826459667
 20
-56.51697602592887
 10
147.13949994003053
 20
-56.51273511814105
 10
147.1418667940025
 20
-56.50843482970997
 10
147.1430238870488
 20
-56.506270061636165
 10
147.14528449363755
 20
-56.501912983326044
 10
147.147437491379
 20
-56.49750173925265
 10
147.2540115177984
 20
-56.27216999286389
 10
147.25605561000535
 20
-56.26770723974897
 10
147.25798956517593
 20
-56.26319566621933
 10
147.25892890223832
 20
-56.26092790719058
 10
147.2607515552566
 20
-56.25637023129991
 10
147.2624618084225
 20
-56.25176919797488
 10
147.34643628991844
 20
-56.01707640836389
 10
147.3480331131933
 20
-56.01243478862944
 10
147.3495155445361
 20
-56.0077553788756
 10
147.35022807929428
 20
-56.00540646862918
 10
147.35159522561426
 20
-56.00069208802572
 10
147.3528462635478
 20
-55.99594557587222
 10
147.41341248076867
 20
-55.75415196063392
 10
147.41454665684455
 20
-55.74937617557475
 10
147.41556328774857
 20
-55.74457399482977
 10
147.41604215811032
 20
-55.742166554632995
 10
147.41694063138002
 20
-55.73734087132948
 10
147.41772040591513
 20
-55.732494591804254
 10
147.45429507366407
 20
-55.485928753300634
 10
147.45495567981726
 20
-55.48106479628793
 10
147.4554967195818
 20
-55.47618609212758
 10
147.4557373137685
 20
-55.47374330692112
 10
147.45615846120688
 20
-55.46885279484273
 10
147.45645946269522
 20
-55.46395342022369
 10
147.46869034728115
 20
-55.21498991988585
 10
147.46887102247965
 20
-55.21008459432707
 10
147.46890115159184
 20
-55.20885727959534
 10
147.46896138875312
 20
-55.203948997422124
 10
147.4689613887471
 20
-42.50394900233202
 10
147.4689011515858
 20
-42.49904072015896
 10
147.46887102247362
 20
-42.49781340542724
 10
147.46869034727465
 20
-42.49290807985882
 10
147.45645946267672
 20
-42.24394457952262
 10
147.45615846115257
 20
-42.23904520442113
 10
147.4557373136547
 20
-42.234154691862344
 10
147.455496719456
 20
-42.23171190665647
 10
147.45495567972685
 20
-42.22683320297889
 10
147.45429507363264
 20
-42.22196924644634
 10
147.41772040587173
 20
-41.97540340794429
 10
147.41694063125308
 20
-41.97055712793903
 10
147.41604215787632
 20
-41.96573144415986
 10
147.41556328750244
 20
-41.96332400396398
 10
147.41454665668155
 20
-41.95852182369942
 10
147.4134124807122
 20
-41.95374603911572
 10
147.35284626347996
 20
-41.711952423881684
 10
147.35159522541628
 20
-41.707205911258754
 10
147.35022807894316
 20
-41.70249153019254
 10
147.34951554417327
 20
-41.70014261994912
 10
147.34803311296028
 20
-41.69546321066512
 10
147.346436289838
 20
-41.69082159139328
 10
147.26246180833095
 20
-41.45612880178707
 10
147.26075155498933
 20
-41.451527768007196
 10
147.25892890177312
 20
-41.44697009167057
 10
147.25798956469916
 20
-41.44470233264548
 10
147.25605560970396
 20
-41.44019075957112
 10
147.25401151769438
 20
-41.43572800690206
 10
147.14743749126396
 20
-41.21039626051826
 10
147.14528449330388
 20
-41.20598501601104
 10
147.1430238864753
 20
-41.20162793727808
 10
147.14186679341898
 20
-41.19946316921106
 10
147.13949993966537
 20
-41.195162881214266
 10
147.13702826447073
 20
-41.190921973849264
 10
147.0088810582226
 20
-40.977121336411
 10
147.00630605017125
 20
-40.9729423638303
 10
147.00362926058872
 20
-40.968827843709335
 10
147.00226555497676
 20
-40.96678691447749
 10
146.99948859653676
 20
-40.962739325640634
 10
146.99661314171587
 20
-40.95876110579471
 10
146.8481268820633
 20
-40.758550592254494
 10
146.84515466262778
 20
-40.75464413734554
 10
146.84208746920902
 20
-40.75081180087015
 10
146.84053028425748
 20
-40.748914365716665
 10
146.8373699647353
 20
-40.745158456498636
 10
146.83411842246556
 20
-40.74148123656987
 10
146.66672311182623
 20
-40.55678898168643
 10
146.66338230507884
 20
-40.55319266571193
 10
146.6599542465468
 20
-40.549679420344404
 10
146.65821857878535
 20
-40.547943752591465
 10
146.65470533375213
 20
-40.544515694410876
 10
146.65110901812858
 20
-40.54117488799794
 10
146.46641676323702
 20
-40.37377957736752
 10
146.46273954293946
 20
-40.37052803477998
 10
146.45898363333723
 20
-40.36736771495827
 10
146.45708619817674
 20
-40.3658105300166
 10
146.45325386207008
 20
-40.36274333691622
 10
146.44934740754482
 20
-40.35977111778042
 10
146.2491368939971
 20
-40.21128485813725
 10
146.2451586737556
 20
-40.20840940303804
 10
146.24111108450975
 20
-40.20563244433934
 10
146.2390701552709
 20
-40.204268738737106
 10
146.23495563554545
 20
-40.20159194943343
 10
146.23077666337323
 20
-40.199016941641005
 10
146.016976025929
 20
-40.070869735403384
 10
146.01273511814102
 20
-40.068398059969404
 10
146.00843482970976
 20
-40.06603120599733
 10
146.0062700616365
 20
-40.064874112951344
 10
146.00191298332658
 20
-40.0626135063627
 10
145.99750173925338
 20
-40.06046050862135
 10
145.77216999286435
 20
-39.95388648220177
 10
145.7677072397495
 20
-39.95184238999485
 10
145.76319566621993
 20
-39.94990843482429
 10
145.76092790719147
 20
-39.94896909776202
 10
145.75637023130074
 20
-39.947146444743694
 10
145.75176919797562
 20
-39.94543619157776
 10
145.51707640836432
 20
-39.861461710081684
 10
145.512434788631
 20
-39.85986488680721
 10
145.50775537887833
 20
-39.85838245546475
 10
145.50540646863126
 20
-39.85766992070634
 10
145.50069208802665
 20
-39.856302774385966
 10
145.49594557587199
 20
-39.855051736452104
 10
145.25415196063472
 20
-39.79448551923146
 10
145.24937617557418
 20
-39.79335134315528
 10
145.24457399482785
 20
-39.79233471225103
 10
145.24216655463022
 20
-39.791855841889145
 10
145.23734087132806
 20
-39.79095736861974
 10
145.2324945918042
 20
-39.790177594084874
 10
144.98592875330047
 20
-39.75360292633591
 10
144.9810647962873
 20
-39.75294232018264
 10
144.97618609212648
 20
-39.75240128041808
 10
144.97374330692006
 20
-39.75216068623137
 10
144.96885279484212
 20
-39.75173953879307
 10
144.96395342022356
 20
-39.75143853730477
 10
144.7149899198862
 20
-39.739207652718854
 10
144.7100845943288
 20
-39.73902697752039
 10
144.70885727959714
 20
-39.73899684840819
 10
144.70394899742254
 20
-39.73893661124687
 10
124.38394900233227
 20
-39.73893661125289
 10
124.3790407201579
 20
-39.73899684841421
 10
124.37781340542621
 20
-39.73902697752641
 10
124.37290807985907
 20
-39.73920765272535
 10
124.12394457952237
 20
-39.75143853732328
 10
124.11904520441969
 20
-39.751739538847524
 10
124.11415469185972
 20
-39.75216068634551
 10
124.11171190665415
 20
-39.75240128054423
 10
124.10683320297775
 20
-39.752942320273284
 10
124.1019692464464
 20
-39.75360292636737
 10
123.85540340794458
 20
-39.79017759412823
 10
123.850557127942
 20
-39.790957368746405
 10
123.8457314441655
 20
-39.79185584212256
 10
123.84332400396988
 20
-39.79233471249632
 10
123.8385218237026
 20
-39.79335134331768
 10
123.83374603911624
 20
-39.794485519287626
 10
123.59195242388196
 20
-39.85505173651995
 10
123.58720591125868
 20
-39.85630277458374
 10
123.58249153019212
 20
-39.85766992105697
 10
123.58014261994884
 20
-39.85838245582682
 10
123.57546321066522
 20
-39.85986488703971
 10
123.57082159139375
 20
-39.861461710161876
 10
123.33612880178683
 20
-39.94543619166916
 10
123.33152776800887
 20
-39.94714644501002
 10
123.32697009167413
 20
-39.9489690982254
 10
123.32470233264988
 20
-39.94990843529895
 10
123.32019075957359
 20
-39.95184239029491
 10
123.31572800690266
 20
-39.95388648230532
 10
123.09039626051907
 20
-40.06046050873562
 10
123.08598501601209
 20
-40.062613506695584
 10
123.08162793727935
 20
-40.06487411352401
 10
123.07946316921159
 20
-40.06603120658072
 10
123.07516288121458
 20
-40.06839806033445
 10
123.07092197384937
 20
-40.070869735529214
 10
122.85712133641155
 20
-40.19901694177701
 10
122.85294236382904
 20
-40.20159194982952
 10
122.84882784370633
 20
-40.204268739413266
 10
122.84678691447357
 20
-40.205632445025905
 10
122.84273932563849
 20
-40.20840940346477
 10
122.83876110579429
 20
-40.211284858284465
 10
122.63855059225388
 20
-40.35977111793723
 10
122.63464413734621
 20
-40.36274333737173
 10
122.6308118008721
 20
-40.365810530789425
 10
122.62891436571945
 20
-40.367367715740215
 10
122.62515845650013
 20
-40.37052803526338
 10
122.62148123657013
 20
-40.37377957753417
 10
122.43678898168683
 20
-40.541174888173344
 10
122.43319266571159
 20
-40.544515694921444
 10
122.42967942034333
 20
-40.547943753454255
 10
122.42794375258985
 20
-40.54967942121627
 10
122.42451569441002
 20
-40.55319266624878
 10
122.42117488799778
 20
-40.55678898187159
 10
122.2537795773674
 20
-40.7414812367631
 10
122.25052803477938
 20
-40.74515845706122
 10
122.24736771495724
 20
-40.74891436666402
 10
122.24581053001576
 20
-40.7508118018243
 10
122.24274333691584
 20
-40.75464413793039
 10
122.23977111778048
 20
-40.75855059245511
 10
122.09128485813743
 20
-40.95876110600267
 10
122.08840940303877
 20
-40.962739326243394
 10
122.08563244434056
 20
-40.96678691548844
 10
122.084268738738
 20
-40.96882784472775
 10
122.08159194943379
 20
-40.972942364453964
 10
122.07901694164086
 20
-40.977121336626986
 10
121.95086973540344
 20
-41.19092197407089
 10
121.94839805996955
 20
-41.19516288185872
 10
121.94603120599757
 20
-41.199463170289825
 10
121.94487411295155
 20
-41.201627938363124
 10
121.9426135063628
 20
-41.205985016673225
 10
121.94046050862137
 20
-41.2103962607466
 10
121.83388648220172
 20
-41.435728007135836
 10
121.83184238999479
 20
-41.440190760250715
 10
121.8299084348242
 20
-41.44470233378031
 10
121.82896909776177
 20
-41.44697009280917
 10
121.82714644474348
 20
-41.451527768699876
 10
121.82543619157757
 20
-41.45612880202494
 10
121.74146171008164
 20
-41.69082159163582
 10
121.73986488680701
 20
-41.69546321136955
 10
121.73838245546443
 20
-41.70014262112266
 10
121.73766992070615
 20
-41.70249153136934
 10
121.73630277438593
 20
-41.70720591197351
 10
121.73505173645218
 20
-41.71195242412773
 10
121.67448551923148
 20
-41.95374603936513
 10
121.67335134315537
 20
-41.95852182442534
 10
121.67233471225119
 20
-41.96332400517137
 10
121.67185584188931
 20
-41.965731445368924
 10
121.67095736861982
 20
-41.97055712867141
 10
121.6701775940849
 20
-41.9754034081956
 10
121.63360292633594
 20
-42.2219692466993
 10
121.6329423201827
 20
-42.22683320371214
 10
121.63240128041818
 20
-42.231711907872636
 10
121.63216068623144
 20
-42.23415469307927
 10
121.6317395387931
 20
-42.239045205157524
 10
121.63143853730477
 20
-42.24394457977644
 10
121.61920765271884
 20
-42.49290808011429
 10
121.61902697752035
 20
-42.49781340567304
 10
121.61899684840816
 20
-42.499040720404764
 10
121.61893661124687
 20
-42.50394900257801
 10
121.61893661125289
 20
-55.20394899766783
 10
121.61899684733966
 20
-55.20885723606954
 10
121.61901944438175
 20
-55.2094707504791
  0
LWPOLYLINE
  5
31
330
17
100
AcDbEntity
  8
0
100
AcDbPolyline
 90
394
 70
0
 10
121.56903450877907
 20
-55.21069782026756
 10
121.56904204297896
 20
-55.2113117124534
 10
121.56926788581465
 20
-55.21744332204573
 10
121.58149877041255
 20
-55.46640682238193
 10
121.58187502231692
 20
-55.472531041245105
 10
121.58240145668812
 20
-55.47864418192994
 10
121.58264205088688
 20
-55.481086967135916
 10
121.58331835054649
 20
-55.48718534671603
 10
121.58414410816202
 20
-55.493265292364896
 10
121.62071877592295
 20
-55.739831130867145
 10
121.62169349419314
 20
-55.74588898085473
 10
121.62281658591043
 20
-55.7519210855598
 10
121.62329545628397
 20
-55.75432852575435
 10
121.62456624480757
 20
-55.760331251073914
 10
121.62598396476656
 20
-55.76630098179244
 10
121.68655018199912
 20
-56.00809459702766
 10
121.6881139795746
 20
-56.01402773779059
 10
121.68982291266143
 20
-56.019920714107755
 10
121.69053544743106
 20
-56.02226962435039
 10
121.69238848644291
 20
-56.02811888594165
 10
121.69438451534106
 20
-56.0339209100178
 10
121.7783589968486
 20
-56.26861369962538
 10
121.7804968135196
 20
-56.27436499183416
 10
121.78277513003344
 20
-56.28006208723906
 10
121.78371446710682
 20
-56.28232984626284
 10
121.78613191084544
 20
-56.287969312593354
 10
121.78868702585176
 20
-56.293547753417364
 10
121.89526105228205
 20
-56.518879499800946
 10
121.89795229972519
 20
-56.52439355542072
 10
121.90077805825356
 20
-56.529839903822854
 10
121.9019351513105
 20
-56.532004671891045
 10
121.90489371849536
 20
-56.537380031874044
 10
121.90798331248118
 20
-56.54268116606748
 10
122.03613051872873
 20
-56.7564818035049
 10
122.03934927878713
 20
-56.761705519221245
 10
122.0426952657593
 20
-56.766848669363
 10
122.04405897137204
 20
-56.76888959859585
 10
122.04753016941113
 20
-56.77394908462577
 10
122.05112448792589
 20
-56.778921859417366
 10
122.19961074757873
 20
-56.97913237295791
 10
122.20332602186278
 20
-56.984015441580524
 10
122.2071600136255
 20
-56.98880586216145
 10
122.20871719857627
 20
-56.990703297314056
 10
122.21266759797018
 20
-56.995398183826225
 10
122.2167320257983
 20
-56.99999470872701
 10
122.38412733643749
 20
-57.18468696361032
 10
122.3883033448613
 20
-57.189182358567194
 10
122.39258841801566
 20
-57.193573915265645
 10
122.3943240857774
 20
-57.19530958301888
 10
122.39871564205795
 20
-57.199594655733904
 10
122.40321103657615
 20
-57.20377066373964
 10
122.58790329146765
 20
-57.37116597437001
 10
122.59249981682859
 20
-57.37523040259467
 10
122.59719470382011
 20
-57.3791808023623
 10
122.59909213898051
 20
-57.38073798730388
 10
122.60388255910136
 20
-57.38457197866938
 10
122.60876562724528
 20
-57.38828725257947
 10
122.80897614079304
 20
-57.53677351222268
 10
122.81394891608218
 20
-57.54036783108749
 10
122.81900840262652
 20
-57.543839029451995
 10
122.82104933186575
 20
-57.54520273505448
 10
122.82619248151
 20
-57.54854872167592
 10
122.83141619671254
 20
-57.55176748140861
 10
123.04521683415626
 20
-57.679914687645926
 10
123.05051796887741
 20
-57.683004281930344
 10
123.05589332940245
 20
-57.68596284938773
 10
123.05805809747608
 20
-57.68711994243393
 10
123.06350444535049
 20
-57.689945700663024
 10
123.06901850042881
 20
-57.692636947833286
 10
123.29435024681776
 20
-57.79921097425281
 10
123.29992868819818
 20
-57.801766089505435
 10
123.30556815509686
 20
-57.80418353346292
 10
123.30783591412568
 20
-57.80512287052532
 10
123.31353300897406
 20
-57.807401186792156
 10
123.31928430061524
 20
-57.8095390032439
 10
123.55397709022623
 20
-57.89351348473986
 10
123.55977911487838
 20
-57.89550951382798
 10
123.56562837705464
 20
-57.897362553001436
 10
123.56797728730152
 20
-57.898075087759786
 10
123.57387026304251
 20
-57.899784020655964
 10
123.57980340322096
 20
-57.901347818069375
 10
123.82159701845825
 20
-57.96191403529002
 10
123.82756674976837
 20
-57.96333175538156
 10
123.83356947568568
 20
-57.964602544008585
 10
123.83597691588328
 20
-57.965081414370474
 10
123.84200901999651
 20
-57.966204505954565
 10
123.84806686938681
 20
-57.96717922412082
 10
124.09463270789041
 20
-58.00375389186978
 10
124.10071265414186
 20
-58.004579649559325
 10
124.10681103432783
 20
-58.00525594926335
 10
124.10925381953459
 20
-58.005496543450086
 10
124.11536695961652
 20
-58.006022977746625
 10
124.12149117787425
 20
-58.006399229606046
 10
124.37045467821147
 20
-58.01863011419196
 10
124.37658633514316
 20
-58.01885595818948
 10
124.37781364987488
 20
-58.018886087301674
 10
124.3839490025775
 20
-58.01896138375313
 10
144.70394899766777
 20
-58.01896138374711
 10
144.71008435037024
 20
-58.018886087295655
 10
144.71131166510196
 20
-58.01885595818346
 10
144.71744332204568
 20
-58.01863011418534
 10
144.96640682238228
 20
-58.00639922958741
 10
144.97253104124593
 20
-58.006022977683
 10
144.9786441819312
 20
-58.00549654331176
 10
144.9810869671371
 20
-58.005255949113
 10
144.98718534671673
 20
-58.00457964945341
 10
144.99326529236515
 20
-58.003753891837945
 10
145.2398311308668
 20
-57.9671792240771
 10
145.24588898085472
 20
-57.96620450580684
 10
145.25192108556013
 20
-57.96508141408948
 10
145.25432852575582
 20
-57.964602543715706
 10
145.26033125107506
 20
-57.963331755192165
 10
145.26630098179325
 20
-57.96191403523324
 10
145.5080945970273
 20
-57.90134781800097
 10
145.51402773779097
 20
-57.89978402042531
 10
145.51992071410882
 20
-57.89807508733825
 10
145.52226962435174
 20
-57.89736255256852
 10
145.52811888594226
 20
-57.89550951355687
 10
145.53392091001768
 20
-57.89351348465896
 10
145.76861369962506
 20
-57.80953900315153
 10
145.7743649918329
 20
-57.80740118648088
 10
145.78006208723687
 20
-57.80512286996745
 10
145.7823298462609
 20
-57.804183532893994
 10
145.78796931259237
 20
-57.801766089155
 10
145.79354775341733
 20
-57.79921097414828
 10
146.01887949980105
 20
-57.692636947717915
 10
146.0243935554204
 20
-57.68994570027498
 10
146.02983990382214
 20
-57.68711994174683
 10
146.0320046718897
 20
-57.685962848690245
 10
146.0373800318731
 20
-57.68300428150518
 10
146.04268116606696
 20
-57.67991468751912
 10
146.25648180350527
 20
-57.55176748127102
 10
146.26170551922104
 20
-57.54854872121299
 10
146.26684866936225
 20
-57.5452027342412
 10
146.2688895985946
 20
-57.54383902862882
 10
146.2739490846251
 20
-57.54036783058936
 10
146.27892185941724
 20
-57.536773512074205
 10
146.47913237295813
 20
-57.38828725242109
 10
146.48401544158077
 20
-57.384571978137025
 10
146.4888058621617
 20
-57.38073798637427
 10
146.49070329731393
 20
-57.37918080142382
 10
146.49539818382607
 20
-57.37523040202994
 10
146.49999470872683
 20
-57.371165974201844
 10
146.6846869636102
 20
-57.203770663562594
 10
146.68918235856802
 20
-57.199594655137915
 10
146.69357391526734
 20
-57.19530958198262
 10
146.69530958302113
 20
-57.193573914220295
 10
146.69959465573524
 20
-57.189182357940616
 10
146.7037706637401
 20
-57.184686963423324
 10
146.87116597437
 20
-56.99999470853229
 10
146.87523040259185
 20
-56.9953981831746
 10
146.87918080235684
 20
-56.99070329618646
 10
146.88073798729812
 20
-56.98880586102656
 10
146.8845719786664
 20
-56.984015440902475
 10
146.88828725257912
 20
-56.97913237275519
 10
147.03677351222288
 20
-56.7789218592067
 10
147.04036783108918
 20
-56.77394908391544
 10
147.04383902945509
 20
-56.7688895973689
 10
147.04520273505744
 20
-56.76684866812977
 10
147.0485487216774
 20
-56.76170551848763
 10
147.05176748140872
 20
-56.75648180328728
 10
147.17991468764612
 20
-56.54268116584336
 10
147.18300428193075
 20
-56.53738003112184
 10
147.18596284938832
 20
-56.53200467059642
 10
147.1871199424346
 20
-56.52983990252262
 10
147.1899457006635
 20
-56.524393554648576
 10
147.19263694783356
 20
-56.51887949957063
 10
147.29921097425296
 20
-56.29354775318187
 10
147.30176608950526
 20
-56.287969311802165
 10
147.30418353346246
 20
-56.28232984490421
 10
147.30512287052485
 20
-56.28006208587546
 10
147.307401186792
 20
-56.27436499102636
 10
147.30953900324403
 20
-56.26861369938446
 10
147.39351348473997
 20
-56.03392090977347
 10
147.39550951382856
 20
-56.02811888511991
 10
147.39736255300238
 20
-56.02226962294223
 10
147.39807508776056
 20
-56.019920712695814
 10
147.39978402065628
 20
-56.01402773695622
 10
147.40134781806933
 20
-56.00809459677917
 10
147.4619140352902
 20
-55.76630098154087
 10
147.46333175538146
 20
-55.760331250231836
 10
147.4646025440083
 20
-55.754328524315625
 10
147.46508141437005
 20
-55.75192108411885
 10
147.46620450595438
 20
-55.74588898000454
 10
147.46717922412083
 20
-55.73983113061315
 10
147.50375389186976
 20
-55.49326529210953
 10
147.50457964955922
 20
-55.487185345858855
 10
147.5052559492632
 20
-55.481086965673654
 10
147.5054965434499
 20
-55.4786441804672
 10
147.50602297774654
 20
-55.472531040384496
 10
147.50639922960602
 20
-55.466406822126
 10
147.51863011419195
 20
-55.21744332178816
 10
147.5188559581895
 20
-55.21131166485501
 10
147.5188860873017
 20
-55.21008435012328
 10
147.51896138375312
 20
-55.203948997422096
 10
147.5189613837471
 20
-42.50394900233199
 10
147.51888608729567
 20
-42.49781364963101
 10
147.51885595818348
 20
-42.49658633489929
 10
147.51863011418533
 20
-42.49045467795409
 10
147.5063992295874
 20
-42.24149117761789
 10
147.50602297768316
 20
-42.235366958756345
 10
147.50549654331215
 20
-42.22925381807315
 10
147.50525594911343
 20
-42.226811032867275
 10
147.5045796494537
 20
-42.22071265328554
 10
147.503753891838
 20
-42.214632707635054
 10
147.46717922407709
 20
-41.968066869133004
 10
147.46620450580622
 20
-41.96200901914157
 10
147.46508141408808
 20
-41.95597691443269
 10
147.4646025437142
 20
-41.953569474236815
 10
147.46333175519126
 20
-41.94756674892112
 10
147.46191403523312
 20
-41.941597018206416
 10
147.4013478180009
 20
-41.69980340297238
 10
147.3997840204252
 20
-41.69387026220855
 10
147.39807508733807
 20
-41.68797728589051
 10
147.39736255256818
 20
-41.68562837564709
 10
147.39550951355656
 20
-41.67977911405671
 10
147.39351348465868
 20
-41.67397708998142
 10
147.30953900315163
 20
-41.439284300375206
 10
147.30740118647998
 20
-41.433533008164744
 10
147.3051228699654
 20
-41.42783591275821
 10
147.30418353289144
 20
-41.42556815373312
 10
147.3017660891535
 20
-41.419928687404266
 10
147.29921097414788
 20
-41.4143502465819
 10
147.19263694771746
 20
-41.189018500198095
 10
147.1899457002741
 20
-41.183504444577856
 10
147.18711994174546
 20
-41.17805809617527
 10
147.18596284868914
 20
-41.175893328108245
 10
147.1830042815045
 20
-41.1705179681257
 10
147.17991468751893
 20
-41.165216833932696
 10
147.05176748127082
 20
-40.951416196494435
 10
147.04854872121464
 20
-40.94619248078161
 10
147.04520273424487
 20
-40.94104933064327
 10
147.0438390286329
 20
-40.93900840141142
 10
147.0403678305916
 20
-40.933948915378004
 10
147.03677351207446
 20
-40.928976140583025
 10
146.8882872524219
 20
-40.72876562704281
 10
146.88457197813676
 20
-40.723882558418815
 10
146.88073798637288
 20
-40.71909213783657
 10
146.87918080142134
 20
-40.71719470268308
 10
146.8752304020285
 20
-40.712499816172276
 10
146.87116597420152
 20
-40.70790329127281
 10
146.70377066356218
 20
-40.52321103638937
 10
146.6995946551384
 20
-40.5187156414325
 10
146.69530958198405
 20
-40.514324084734056
 10
146.6935739142226
 20
-40.51258841698112
 10
146.68918235794206
 20
-40.508303344266096
 10
146.68468696342384
 20
-40.50412733626036
 10
146.49999470853228
 20
-40.33673202562994
 10
146.4953981831718
 20
-40.332667597405674
 10
146.49070329618075
 20
-40.32871719763842
 10
146.48880586102027
 20
-40.32716001269675
 10
146.48401544089896
 20
-40.32332602133086
 10
146.47913237275458
 20
-40.31961074742039
 10
146.27892185920686
 20
-40.17112448777722
 10
146.27394908391742
 20
-40.16753016891221
 10
146.26888959737275
 20
-40.164058970547494
 10
146.2668486681339
 20
-40.16269526494526
 10
146.26170551848995
 20
-40.159349278324044
 10
146.25648180328773
 20
-40.15613051859156
 10
146.0426811658435
 20
-40.02798331235394
 10
146.03738003112176
 20
-40.02489371806918
 10
146.0320046705961
 20
-40.02193515061148
 10
146.02983990252287
 20
-40.0207780575655
 10
146.02439355464907
 20
-40.017952299336756
 10
146.01887949957137
 20
-40.0152610521668
 10
145.79354775318234
 20
-39.90868702574722
 10
145.78796931180273
 20
-39.906131910494956
 10
145.78232984490487
 20
-39.9037144665378
 10
145.7800620858764
 20
-39.90277512947553
 10
145.7743649910272
 20
-39.90049681320832
 10
145.76861369938518
 20
-39.89835899675625
 10
145.53392090977388
 20
-39.81438451526017
 10
145.52811888512176
 20
-39.81238848617206
 10
145.52226962294554
 20
-39.81053544699863
 10
145.51992071269848
 20
-39.80982291224022
 10
145.51402773695747
 20
-39.80811397934403
 10
145.50809459677896
 20
-39.806550181930604
 10
145.2663009815417
 20
-39.74598396470996
 10
145.26033125023096
 20
-39.744566244618284
 10
145.25432852431302
 20
-39.743295455991145
 10
145.2519210841154
 20
-39.742816585629264
 10
145.24588898000277
 20
-39.74169349404531
 10
145.23983113061308
 20
-39.74071877587916
 10
144.99326529210936
 20
-39.704144108130194
 10
144.9871853458581
 20
-39.703318350440675
 10
144.98108696567232
 20
-39.702642050736664
 10
144.9786441804659
 20
-39.70240145654996
 10
144.97253104038376
 20
-39.7018750222534
 10
144.96640682212586
 20
-39.70149877039396
 10
144.7174433217885
 20
-39.68926788580804
 10
144.7113116648571
 20
-39.68904204181053
 10
144.71008435012544
 20
-39.689011912698334
 10
144.70394899742251
 20
-39.68893661624687
 10
124.38394900233226
 20
-39.68893661625289
 10
124.37781364962964
 20
-39.68901191270435
 10
124.37658633489795
 20
-39.68904204181655
 10
124.37045467795436
 20
-39.68926788581466
 10
124.12149117761766
 20
-39.70149877041259
 10
124.11536695875462
 20
-39.701875022316955
 10
124.10925381806993
 20
-39.70240145668813
 10
124.10681103286436
 20
-39.702642050886844
 10
124.1007126532841
 20
-39.703318350546475
 10
124.09463270763511
 20
-39.70414410816201
 10
123.84806686913329
 20
-39.74071877592287
 10
123.84200901914522
 20
-39.74169349419315
 10
123.83597691443967
 20
-39.742816585910546
 10
123.83356947424406
 20
-39.74329545628431
 10
123.82756674892498
 20
-39.74456624480782
 10
123.82159701820693
 20
-39.74598396476671
 10
123.57980340297266
 20
-39.80655018199903
 10
123.57387026220839
 20
-39.80811397957487
 10
123.56797728588991
 20
-39.80982291266213
 10
123.56562837564664
 20
-39.81053544743198
 10
123.55977911405672
 20
-39.81238848644347
 10
123.5539770899819
 20
-39.814384515341175
 10
123.31928430037497
 20
-39.89835899684846
 10
123.3135330081669
 20
-39.90049681351919
 10
123.30783591276271
 20
-39.902775130032715
 10
123.30556815373846
 20
-39.90371446710627
 10
123.29992868740722
 20
-39.906131910845176
 10
123.2943502465825
 20
-39.9086870258518
 10
123.06901850019891
 20
-40.0152610522821
 10
123.06350444457897
 20
-40.01795229972532
 10
123.05805809617667
 20
-40.020778058253796
 10
123.05589332810891
 20
-40.0219351513105
 10
123.05051796812607
 20
-40.02489371849528
 10
123.0452168339328
 20
-40.027983312481005
 10
122.83141619649498
 20
-40.1561305187288
 10
122.82619248077991
 20
-40.159349278786394
 10
122.82104933063938
 20
-40.16269526575771
 10
122.81900840140662
 20
-40.16405897137035
 10
122.81394891537543
 20
-40.16753016941025
 10
122.8089761405826
 20
-40.17112448792588
 10
122.60876562704219
 20
-40.31961074757864
 10
122.60388255841983
 20
-40.32332602186249
 10
122.59909213783914
 20
-40.32716001362502
 10
122.5971947026865
 20
-40.32871719857581
 10
122.59249981617408
 20
-40.3326675979699
 10
122.58790329127308
 20
-40.33673202579822
 10
122.40321103638978
 20
-40.50412733643739
 10
122.39871564143196
 20
-40.50830334486207
 10
122.39432408473263
 20
-40.51258841801737
 10
122.39258841697915
 20
-40.514324085779386
 10
122.38830334426505
 20
-40.51871564205905
 10
122.3841273362602
 20
-40.52321103657633
 10
122.21673202562982
 20
-40.70790329146784
 10
122.21266759740497
 20
-40.712499816829
 10
122.20871719763716
 20
-40.71719470382075
 10
122.20716001269568
 20
-40.71909213898103
 10
122.20332602133037
 20
-40.723882559101675
 10
122.19961074742046
 20
-40.72876562724536
 10
122.05112448777741
 20
-40.92897614079292
 10
122.04753016891307
 20
-40.9339489160814
 10
122.04405897054899
 20
-40.939008402625056
 10
122.04269526494643
 20
-40.94104933186436
 10
122.03934927832452
 20
-40.94619248150927
 10
122.0361305185914
 20
-40.95141619671249
 10
121.90798331235399
 20
-41.165216834156396
 10
121.90489371806935
 20
-41.17051796887794
 10
121.90193515061176
 20
-41.17589332940338
 10
121.90077805756574
 20
-41.17805809747668
 10
121.89795229933688
 20
-41.18350444535069
 10
121.89526105216682
 20
-41.18901850042862
 10
121.78868702574717
 20
-41.414350246817854
 10
121.78613191049489
 20
-41.41992868819751
 10
121.7837144665377
 20
-41.425568155095405
 10
121.78277512947527
 20
-41.42783591412426
 10
121.78049681320809
 20
-41.433533008973406
 10
121.77835899675605
 20
-41.43928430061536
 10
121.69438451526013
 20
-41.67397709022624
 10
121.69238848617184
 20
-41.6797791148789
 10
121.69053544699824
 20
-41.68562837705566
 10
121.68982291223996
 20
-41.68797728730234
 10
121.68811397934395
 20
-41.69387026304282
 10
121.68655018193068
 20
-41.69980340322076
 10
121.62598396470999
 20
-41.94159701845816
 10
121.62456624461839
 20
-41.9475667497685
 10
121.62329545599133
 20
-41.95356947568603
 10
121.62281658562945
 20
-41.95597691588358
 10
121.62169349404542
 20
-41.962009019996614
 10
121.6207187758792
 20
-41.9680668693867
 10
121.58414410813023
 20
-42.21463270789041
 10
121.58331835044076
 20
-42.22071265414126
 10
121.58264205073678
 20
-42.22681103432663
 10
121.58240145655004
 20
-42.22925381953326
 10
121.58187502225343
 20
-42.2353669596158
 10
121.58149877039396
 20
-42.24149117787413
 10
121.56926788580803
 20
-42.49045467821198
 10
121.56904204181048
 20
-42.496586335145096
 10
121.56901191269829
 20
-42.49781364987682
 10
121.56893661624687
 20
-42.50394900257804
 10
121.5689366162529
 20
-55.20394899766786
 10
121.56901191136116
 20
-55.21008429565465
 10
121.56903450877907
 20
-55.21069782026756
  0
ENDSEC
  0
SECTION
  2
OBJECTS
  0
DICTIONARY
  5
A
330
0
100
AcDbDictionary
281
1
  3
ACAD_COLOR
350
B
  3
ACAD_GROUP
350
C
  3
ACAD_LAYOUT
350
D
  3
ACAD_MATERIAL
350
E
  3
ACAD_MLEADERSTYLE
350
F
  3
ACAD_MLINESTYLE
350
10
  3
ACAD_PLOTSETTINGS
350
11
  3
ACAD_PLOTSTYLENAME
350
12
  3
ACAD_SCALELIST
350
14
  3
ACAD_TABLESTYLE
350
15
  3
ACAD_VISUALSTYLE
350
16
  0
DICTIONARY
  5
B
330
A
100
AcDbDictionary
281
1
  0
DICTIONARY
  5
C
330
A
100
AcDbDictionary
281
1
  0
DICTIONARY
  5
D
330
A
100
AcDbDictionary
281
1
  3
Model
350
1A
  3
Layout1
350
1E
  0
DICTIONARY
  5
E
330
A
100
AcDbDictionary
281
1
  3
ByBlock
350
1F
  3
ByLayer
350
20
  3
Global
350
21
  0
DICTIONARY
  5
F
330
A
100
AcDbDictionary
281
1
  3
Standard
350
2C
  0
DICTIONARY
  5
10
330
A
100
AcDbDictionary
281
1
  3
Standard
350
22
  0
DICTIONARY
  5
11
330
A
100
AcDbDictionary
281
1
  0
ACDBDICTIONARYWDFLT
  5
12
330
A
100
AcDbDictionary
281
1
  3
Normal
350
13
100
AcDbDictionaryWithDefault
340
13
  0
ACDBPLACEHOLDER
  5
13
330
12
  0
DICTIONARY
  5
14
330
A
100
AcDbDictionary
281
1
  0
DICTIONARY
  5
15
330
A
100
AcDbDictionary
281
1
  0
DICTIONARY
  5
16
330
A
100
AcDbDictionary
281
1
  0
LAYOUT
  5
1A
330
D
100
AcDbPlotSettings
  1

  2
Adobe PDF
  4
A4
  6

 40
3.175
 41
3.175
 42
3.175
 43
3.175
 44
209.91
 45
297.03
 46
0.0
 47
0.0
 48
0.0
 49
0.0
140
0.0
141
0.0
142
1.0
143
1.0
 70
1024
 72
0
 73
1
 74
5
  7

 75
16
 76
0
 77
2
 78
300
147
1.0
148
0.0
149
0.0
100
AcDbLayout
  1
Model
 70
1
 71
0
 10
-3.175
 20
-3.175
 11
293.857
 21
206.735
 12
0.0
 22
0.0
 32
0.0
 14
29.068
 24
20.356
 34
0.0
 15
261.614
 25
183.204
 35
0.0
146
0.0
 13
0.0
 23
0.0
 33
0.0
 16
1.0
 26
0.0
 36
0.0
 17
0.0
 27
1.0
 37
0.0
 76
1
330
17
  0
LAYOUT
  5
1E
330
D
100
AcDbPlotSettings
  1

  2
Adobe PDF
  4
A4
  6

 40
3.175
 41
3.175
 42
3.175
 43
3.175
 44
209.91
 45
297.03
 46
0.0
 47
0.0
 48
0.0
 49
0.0
140
0.0
141
0.0
142
1.0
143
1.0
 70
0
 72
0
 73
1
 74
5
  7

 75
16
 76
0
 77
2
 78
300
147
1.0
148
0.0
149
0.0
100
AcDbLayout
  1
Layout1
 70
1
 71
1
 10
-3.175
 20
-3.175
 11
293.857
 21
206.735
 12
0.0
 22
0.0
 32
0.0
 14
29.068
 24
20.356
 34
0.0
 15
261.614
 25
183.204
 35
0.0
146
0.0
 13
0.0
 23
0.0
 33
0.0
 16
1.0
 26
0.0
 36
0.0
 17
0.0
 27
1.0
 37
0.0
 76
1
330
1B
  0
MATERIAL
  5
1F
102
{ACAD_REACTORS
330
E
102
}
330
E
100
AcDbMaterial
  1
ByBlock
  2

 70
0
 40
1.0
 71
1
 41
1.0
 91
-1023410177
 42
1.0
 72
1
  3

 73
1
 74
1
 75
1
 44
0.5
 73
0
 45
1.0
 46
1.0
 77
1
  4

 78
1
 79
1
170
1
 48
1.0
171
1
  6

172
1
173
1
174
1
140
1.0
141
1.0
175
1
  7

176
1
177
1
178
1
143
1.0
179
1
  8

270
1
271
1
272
1
145
1.0
146
1.0
273
1
  9

274
1
275
1
276
1
 42
1.0
 72
1
  3

 73
1
 74
1
 75
1
 94
63
  0
MATERIAL
  5
20
102
{ACAD_REACTORS
330
E
102
}
330
E
100
AcDbMaterial
  1
ByLayer
  2

 70
0
 40
1.0
 71
1
 41
1.0
 91
-1023410177
 42
1.0
 72
1
  3

 73
1
 74
1
 75
1
 44
0.5
 73
0
 45
1.0
 46
1.0
 77
1
  4

 78
1
 79
1
170
1
 48
1.0
171
1
  6

172
1
173
1
174
1
140
1.0
141
1.0
175
1
  7

176
1
177
1
178
1
143
1.0
179
1
  8

270
1
271
1
272
1
145
1.0
146
1.0
273
1
  9

274
1
275
1
276
1
 42
1.0
 72
1
  3

 73
1
 74
1
 75
1
 94
63
  0
MATERIAL
  5
21
102
{ACAD_REACTORS
330
E
102
}
330
E
100
AcDbMaterial
  1
Global
  2

 70
0
 40
1.0
 71
1
 41
1.0
 91
-1023410177
 42
1.0
 72
1
  3

 73
1
 74
1
 75
1
 44
0.5
 73
0
 45
1.0
 46
1.0
 77
1
  4

 78
1
 79
1
170
1
 48
1.0
171
1
  6

172
1
173
1
174
1
140
1.0
141
1.0
175
1
  7

176
1
177
1
178
1
143
1.0
179
1
  8

270
1
271
1
272
1
145
1.0
146
1.0
273
1
  9

274
1
275
1
276
1
 42
1.0
 72
1
  3

 73
1
 74
1
 75
1
 94
63
  0
MLINESTYLE
  5
22
102
{ACAD_REACTORS
330
10
102
}
330
10
100
AcDbMlineStyle
  2
Standard
 70
0
  3

 62
256
 51
90.0
 52
90.0
 71
2
 49
0.5
 62
256
  6
BYLAYER
 49
-0.5
 62
256
  6
BYLAYER
  0
MLEADERSTYLE
  5
2C
102
{ACAD_REACTORS
330
F
102
}
330
F
100
AcDbMLeaderStyle
179
2
170
2
171
1
172
0
 90
2
 40
0.0
 41
0.0
173
1
 91
-1056964608
 92
-2
290
1
 42
2.0
291
1
 43
8.0
  3
Standard
 44
4.0
300

342
29
174
1
175
1
176
0
178
1
 93
-1056964608
 45
4.0
292
0
297
0
 46
4.0
 94
-1056964608
 47
1.0
 49
0.0
140
1.0
294
1
141
0.0
177
0
142
1.0
295
0
296
0
143
3.75
271
0
272
9
272
9
  0
ENDSEC
  0
EOF
