  0
SECTION
  2
HEADER
  9
$ACADVER
  1
AC1024
  9
$ACADMAINTVER
 70
6
  9
$DWGCODEPAGE
  3
ANSI_1252
  9
$LASTSAVEDBY
  1
ezdxf
  9
$INSBASE
 10
0.0
 20
0.0
 30
0.0
  9
$EXTMIN
 10
-100
 20
-100
 30
-100
  9
$EXTMAX
 10
100
 20
100
 30
100
  9
$LIMMIN
 10
0.0
 20
0.0
  9
$LIMMAX
 10
420.0
 20
297.0
  9
$ORTHOMODE
 70
0
  9
$REGENMODE
 70
1
  9
$FILLMODE
 70
1
  9
$QTEXTMODE
 70
0
  9
$MIRRTEXT
 70
1
  9
$LTSCALE
 40
1.0
  9
$ATTMODE
 70
1
  9
$TEXTSIZE
 40
2.5
  9
$TRACEWID
 40
1.0
  9
$TEXTSTYLE
  7
Standard
  9
$CLAYER
  8
0
  9
$CELTYPE
  6
ByLayer
  9
$CECOLOR
 62
256
  9
$CELTSCALE
 40
1.0
  9
$DISPSILH
 70
0
  9
$DIMSCALE
 40
1.0
  9
$DIMASZ
 40
2.5
  9
$DIMEXO
 40
0.625
  9
$DIMDLI
 40
3.75
  9
$DIMRND
 40
0.0
  9
$DIMDLE
 40
0.0
  9
$DIMEXE
 40
1.25
  9
$DIMTP
 40
0.0
  9
$DIMTM
 40
0.0
  9
$DIMTXT
 40
2.5
  9
$DIMCEN
 40
2.5
  9
$DIMTSZ
 40
0.0
  9
$DIMTOL
 70
0
  9
$DIMLIM
 70
0
  9
$DIMTIH
 70
0
  9
$DIMTOH
 70
0
  9
$DIMSE1
 70
0
  9
$DIMSE2
 70
0
  9
$DIMTAD
 70
1
  9
$DIMZIN
 70
8
  9
$DIMBLK
  1

  9
$DIMASO
 70
1
  9
$DIMSHO
 70
1
  9
$DIMPOST
  1

  9
$DIMAPOST
  1

  9
$DIMALT
 70
0
  9
$DIMALTD
 70
3
  9
$DIMALTF
 40
0.03937007874
  9
$DIMLFAC
 40
1.0
  9
$DIMTOFL
 70
1
  9
$DIMTVP
 40
0.0
  9
$DIMTIX
 70
0
  9
$DIMSOXD
 70
0
  9
$DIMSAH
 70
0
  9
$DIMBLK1
  1

  9
$DIMBLK2
  1

  9
$DIMSTYLE
  2
ISO-25
  9
$DIMCLRD
 70
0
  9
$DIMCLRE
 70
0
  9
$DIMCLRT
 70
0
  9
$DIMTFAC
 40
1.0
  9
$DIMGAP
 40
0.625
  9
$DIMJUST
 70
0
  9
$DIMSD1
 70
0
  9
$DIMSD2
 70
0
  9
$DIMTOLJ
 70
0
  9
$DIMTZIN
 70
8
  9
$DIMALTZ
 70
0
  9
$DIMALTTZ
 70
0
  9
$DIMUPT
 70
0
  9
$DIMDEC
 70
2
  9
$DIMTDEC
 70
2
  9
$DIMALTU
 70
2
  9
$DIMALTTD
 70
3
  9
$DIMTXSTY
  7
Standard
  9
$DIMAUNIT
 70
0
  9
$DIMADEC
 70
0
  9
$DIMALTRND
 40
0.0
  9
$DIMAZIN
 70
0
  9
$DIMDSEP
 70
44
  9
$DIMATFIT
 70
3
  9
$DIMFRAC
 70
0
  9
$DIMLDRBLK
  1

  9
$DIMLUNIT
 70
2
  9
$DIMLWD
 70
-2
  9
$DIMLWE
 70
-2
  9
$DIMTMOVE
 70
0
  9
$DIMFXL
 40
1.0
  9
$DIMFXLON
 70
0
  9
$DIMJOGANG
 40
0.785398163397
  9
$DIMTFILL
 70
0
  9
$DIMTFILLCLR
 70
0
  9
$DIMARCSYM
 70
0
  9
$DIMLTYPE
  6

  9
$DIMLTEX1
  6

  9
$DIMLTEX2
  6

  9
$DIMTXTDIRECTION
 70
0
  9
$LUNITS
 70
2
  9
$LUPREC
 70
4
  9
$SKETCHINC
 40
1.0
  9
$FILLETRAD
 40
10.0
  9
$AUNITS
 70
0
  9
$AUPREC
 70
2
  9
$MENU
  1
.
  9
$ELEVATION
 40
0.0
  9
$PELEVATION
 40
0.0
  9
$THICKNESS
 40
0.0
  9
$LIMCHECK
 70
0
  9
$CHAMFERA
 40
0.0
  9
$CHAMFERB
 40
0.0
  9
$CHAMFERC
 40
0.0
  9
$CHAMFERD
 40
0.0
  9
$SKPOLY
 70
0
  9
$TDCREATE
 40
2461298.568553241
  9
$TDUCREATE
 40
2458532.153996898
  9
$TDUPDATE
 40
2461298.568553241
  9
$TDUUPDATE
 40
2458532.1544311
  9
$TDINDWG
 40
0.0
  9
$TDUSRTIMER
 40
0.0
  9
$USRTIMER
 70
1
  9
$ANGBASE
 50
0.0
  9
$ANGDIR
 70
0
  9
$PDMODE
 70
0
  9
$PDSIZE
 40
0.0
  9
$PLINEWID
 40
0.0
  9
$SPLFRAME
 70
0
  9
$SPLINETYPE
 70
6
  9
$SPLINESEGS
 70
8
  9
$HANDSEED
  5
38
  9
$SURFTAB1
 70
6
  9
$SURFTAB2
 70
6
  9
$SURFTYPE
 70
6
  9
$SURFU
 70
6
  9
$SURFV
 70
6
  9
$UCSBASE
  2

  9
$UCSNAME
  2

  9
$UCSORG
 10
0.0
 20
0.0
 30
0.0
  9
$UCSXDIR
 10
1.0
 20
0.0
 30
0.0
  9
$UCSYDIR
 10
0.0
 20
1.0
 30
0.0
  9
$UCSORTHOREF
  2

  9
$UCSORTHOVIEW
 70
0
  9
$UCSORGTOP
 10
0.0
 20
0.0
 30
0.0
  9
$UCSORGBOTTOM
 10
0.0
 20
0.0
 30
0.0
  9
$UCSORGLEFT
 10
0.0
 20
0.0
 30
0.0
  9
$UCSORGRIGHT
 10
0.0
 20
0.0
 30
0.0
  9
$UCSORGFRONT
 10
0.0
 20
0.0
 30
0.0
  9
$UCSORGBACK
 10
0.0
 20
0.0
 30
0.0
  9
$PUCSBASE
  2

  9
$PUCSNAME
  2

  9
$PUCSORG
 10
0.0
 20
0.0
 30
0.0
  9
$PUCSXDIR
 10
1.0
 20
0.0
 30
0.0
  9
$PUCSYDIR
 10
0.0
 20
1.0
 30
0.0
  9
$PUCSORTHOREF
  2

  9
$PUCSORTHOVIEW
 70
0
  9
$PUCSORGTOP
 10
0.0
 20
0.0
 30
0.0
  9
$PUCSORGBOTTOM
 10
0.0
 20
0.0
 30
0.0
  9
$PUCSORGLEFT
 10
0.0
 20
0.0
 30
0.0
  9
$PUCSORGRIGHT
 10
0.0
 20
0.0
 30
0.0
  9
$PUCSORGFRONT
 10
0.0
 20
0.0
 30
0.0
  9
$PUCSORGBACK
 10
0.0
 20
0.0
 30
0.0
  9
$USERI1
 70
0
  9
$USERI2
 70
0
  9
$USERI3
 70
0
  9
$USERI4
 70
0
  9
$USERI5
 70
0
  9
$USERR1
 40
0.0
  9
$USERR2
 40
0.0
  9
$USERR3
 40
0.0
  9
$USERR4
 40
0.0
  9
$USERR5
 40
0.0
  9
$WORLDVIEW
 70
1
  9
$SHADEDGE
 70
3
  9
$SHADEDIF
 70
70
  9
$TILEMODE
 70
1
  9
$MAXACTVP
 70
64
  9
$PINSBASE
 10
0.0
 20
0.0
 30
0.0
  9
$PLIMCHECK
 70
0
  9
$PEXTMIN
 10
1e+20
 20
1e+20
 30
1e+20
  9
$PEXTMAX
 10
-1e+20
 20
-1e+20
 30
-1e+20
  9
$PLIMMIN
 10
0.0
 20
0.0
  9
$PLIMMAX
 10
420.0
 20
297.0
  9
$UNITMODE
 70
0
  9
$VISRETAIN
 70
1
  9
$PLINEGEN
 70
0
  9
$PSLTSCALE
 70
1
  9
$TREEDEPTH
 70
3020
  9
$CMLSTYLE
  2
Standard
  9
$CMLJUST
 70
0
  9
$CMLSCALE
 40
20.0
  9
$PROXYGRAPHICS
 70
1
  9
$MEASUREMENT
 70
1
  9
$CELWEIGHT
370
-1
  9
$ENDCAPS
280
0
  9
$JOINSTYLE
280
0
  9
$LWDISPLAY
290
0
  9
$INSUNITS
 70
6
  9
$HYPERLINKBASE
  1

  9
$STYLESHEET
  1

  9
$XEDIT
290
1
  9
$CEPSNTYPE
380
0
  9
$PSTYLEMODE
290
1
  9
$FINGERPRINTGUID
  2
835E5CED-B06B-11F1-AC1D-BCEE7B8C4939
  9
$VERSIONGUID
  2
8361EE53-B06B-11F1-B474-BCEE7B8C4939
  9
$EXTNAMES
290
1
  9
$PSVPSCALE
 40
0.0
  9
$OLESTARTUP
290
0
  9
$SORTENTS
280
127
  9
$INDEXCTL
280
0
  9
$HIDETEXT
280
1
  9
$XCLIPFRAME
280
2
  9
$HALOGAP
280
0
  9
$OBSCOLOR
 70
257
  9
$OBSLTYPE
280
0
  9
$INTERSECTIONDISPLAY
280
0
  9
$INTERSECTIONCOLOR
 70
257
  9
$DIMASSOC
280
2
  9
$PROJECTNAME
  1

  9
$CAMERADISPLAY
290
0
  9
$LENSLENGTH
 40
50.0
  9
$CAMERAHEIGHT
 40
0.0
  9
$STEPSPERSEC
 40
24.0
  9
$STEPSIZE
 40
100.0
  9
$3DDWFPREC
 40
2.0
  9
$PSOLWIDTH
 40
0.005
  9
$PSOLHEIGHT
 40
0.08
  9
$LOFTANG1
 40
1.570796326795
  9
$LOFTANG2
 40
1.570796326795
  9
$LOFTMAG1
 40
0.0
  9
$LOFTMAG2
 40
0.0
  9
$LOFTPARAM
 70
7
  9
$LOFTNORMALS
280
1
  9
$LATITUDE
 40
37.795
  9
$LONGITUDE
 40
-122.394
  9
$NORTHDIRECTION
 40
0.0
  9
$TIMEZONE
 70
-8000
  9
$LIGHTGLYPHDISPLAY
280
1
  9
$TILEMODELIGHTSYNCH
280
1
  9
$CMATERIAL
347
20
  9
$SOLIDHIST
280
0
  9
$SHOWHIST
280
1
  9
$DWFFRAME
280
2
  9
$DGNFRAME
280
2
  9
$REALWORLDSCALE
290
1
  9
$INTERFERECOLOR
 62
256
  9
$CSHADOW
280
0
  9
$SHADOWPLANELOCATION
 40
0.0
  0
ENDSEC
  0
SECTION
  2
CLASSES
  0
CLASS
  1
ACDBDICTIONARYWDFLT
  2
AcDbDictionaryWithDefault
  3
ObjectDBX Classes
 90
0
 91
0
280
0
281
0
  0
CLASS
  1
SUN
  2
AcDbSun
  3
SCENEOE
 90
1153
 91
0
280
0
281
0
  0
CLASS
  1
VISUALSTYLE
  2
AcDbVisualStyle
  3
ObjectDBX Classes
 90
4095
 91
0
280
0
281
0
  0
CLASS
  1
MATERIAL
  2
AcDbMaterial
  3
ObjectDBX Classes
 90
1153
 91
0
280
0
281
0
  0
CLASS
  1
SCALE
  2
AcDbScale
  3
ObjectDBX Classes
 90
1153
 91
0
280
0
281
0
  0
CLASS
  1
TABLESTYLE
  2
AcDbTableStyle
  3
ObjectDBX Classes
 90
4095
 91
0
280
0
281
0
  0
CLASS
  1
MLEADERSTYLE
  2
AcDbMLeaderStyle
  3
ACDB_MLEADERSTYLE_CLASS
 90
4095
 91
0
280
0
281
0
  0
CLASS
  1
DICTIONARYVAR
  2
AcDbDictionaryVar
  3
ObjectDBX Classes
 90
0
 91
0
280
0
281
0
  0
CLASS
  1
CELLSTYLEMAP
  2
AcDbCellStyleMap
  3
ObjectDBX Classes
 90
1152
 91
0
280
0
281
0
  0
CLASS
  1
MENTALRAYRENDERSETTINGS
  2
AcDbMentalRayRenderSettings
  3
SCENEOE
 90
1024
 91
0
280
0
281
0
  0
CLASS
  1
ACDBDETAILVIEWSTYLE
  2
AcDbDetailViewStyle
  3
ObjectDBX Classes
 90
1025
 91
0
280
0
281
0
  0
CLASS
  1
ACDBSECTIONVIEWSTYLE
  2
AcDbSectionViewStyle
  3
ObjectDBX Classes
 90
1025
 91
0
280
0
281
0
  0
CLASS
  1
RASTERVARIABLES
  2
AcDbRasterVariables
  3
ISM
 90
0
 91
0
280
0
281
0
  0
CLASS
  1
LAYOUT
  2
AcDbLayout
  3
ObjectDBX Classes
 90
0
 91
0
280
0
281
0
  0
CLASS
  1
ACDBPLACEHOLDER
  2
AcDbPlaceHolder
  3
ObjectDBX Classes
 90
0
 91
0
280
0
281
0
  0
ENDSEC
  0
SECTION
  2
TABLES
  0
TABLE
  2
VPORT
  5
8
330
0
100
AcDbSymbolTable
 70
1
  0
VPORT
  5
23
330
8
100
AcDbSymbolTableRecord
100
AcDbViewportTableRecord
  2
*Active
 70
0
 10
0.0
 20
0.0
 11
1.0
 21
1.0
 12
70.0
 22
50.0
 13
0.0
 23
0.0
 14
0.5
 24
0.5
 15
0.5
 25
0.5
 16
0.0
 26
0.0
 36
1.0
 17
0.0
 27
0.0
 37
0.0
 40
1.0
 41
1.34
 42
50.0
 43
0.0
 44
0.0
 50
0.0
 51
0.0
 71
0
 72
1000
 73
1
 74
3
 75
0
 76
0
 77
0
 78
0
281
0
 65
0
146
0.0
  0
ENDTAB
  0
TABLE
  2
LTYPE
  5
2
330
0
100
AcDbSymbolTable
 70
3
  0
LTYPE
  5
24
330
2
100
AcDbSymbolTableRecord
100
AcDbLinetypeTableRecord
  2
ByBlock
 70
0
  3

 72
65
 73
0
 40
0.0
  0
LTYPE
  5
25
330
2
100
AcDbSymbolTableRecord
100
AcDbLinetypeTableRecord
  2
ByLayer
 70
0
  3

 72
65
 73
0
 40
0.0
  0
LTYPE
  5
26
330
2
100
AcDbSymbolTableRecord
100
AcDbLinetypeTableRecord
  2
Continuous
 70
0
  3

 72
65
 73
0
 40
0.0
  0
ENDTAB
  0
TABLE
  2
LAYER
  5
1
330
0
100
AcDbSymbolTable
 70
2
  0
LAYER
  5
27
330
1
100
AcDbSymbolTableRecord
100
AcDbLayerTableRecord
  2
0
 70
0
 62
7
  6
Continuous
370
-3
390
13
347
21
  0
LAYER
  5
28
330
1
100
AcDbSymbolTableRecord
100
AcDbLayerTableRecord
  2
Defpoints
 70
0
 62
7
  6
Continuous
290
0
370
-3
390
13
347
21
  0
ENDTAB
  0
TABLE
  2
STYLE
  5
5
330
0
100
AcDbSymbolTable
 70
1
  0
STYLE
  5
29
330
5
100
AcDbSymbolTableRecord
100
AcDbTextStyleTableRecord
  2
Standard
 70
0
 40
0.0
 41
1.0
 50
0.0
 71
0
 42
2.5
  3
txt
  4

  0
ENDTAB
  0
TABLE
  2
VIEW
  5
7
330
0
100
AcDbSymbolTable
 70
0
  0
ENDTAB
  0
TABLE
  2
UCS
  5
6
330
0
100
AcDbSymbolTable
 70
0
  0
ENDTAB
  0
TABLE
  2
APPID
  5
3
330
0
100
AcDbSymbolTable
 70
2
  0
APPID
  5
2A
330
3
100
AcDbSymbolTableRecord
100
AcDbRegAppTableRecord
  2
ACAD
 70
0
  0
APPID
  5
37
330
3
100
AcDbSymbolTableRecord
100
AcDbRegAppTableRecord
  2
HATCHBACKGROUNDCOLOR
 70
0
  0
ENDTAB
  0
TABLE
  2
DIMSTYLE
  5
4
330
0
100
AcDbSymbolTable
 70
1
100
AcDbDimStyleTable
  0
DIMSTYLE
105
2B
330
4
100
AcDbSymbolTableRecord
100
AcDbDimStyleTableRecord
  2
Standard
 70
0
 40
1.0
 41
2.5
 42
0.625
 43
3.75
 44
1.25
 45
0.0
 46
0.0
 47
0.0
 48
0.0
 49
2.5
140
2.5
141
2.5
142
0.0
143
0.03937007874
144
1.0
145
0.0
146
1.0
147
0.625
148
0.0
 69
0
 70
0
 71
0
 72
0
 73
0
 74
0
 75
0
 76
0
 77
1
 78
8
 79
0
170
0
171
3
172
1
173
0
174
0
175
0
176
0
177
0
178
0
179
0
271
0
272
2
273
2
274
3
275
0
276
0
277
2
278
44
279
0
280
0
281
0
282
0
283
0
284
8
285
0
286
0
288
0
289
3
290
0
371
-2
372
-2
  0
ENDTAB
  0
TABLE
  2
BLOCK_RECORD
  5
9
330
0
100
AcDbSymbolTable
 70
2
  0
BLOCK_RECORD
  5
17
330
9
100
AcDbSymbolTableRecord
100
AcDbBlockTableRecord
  2
*Model_Space
340
1A
 70
0
280
1
281
0
  0
BLOCK_RECORD
  5
1B
330
9
100
AcDbSymbolTableRecord
100
AcDbBlockTableRecord
  2
*Paper_Space
340
1E
 70
0
280
1
281
0
  0
ENDTAB
  0
ENDSEC
  0
SECTION
  2
BLOCKS
  0
BLOCK
  5
18
330
17
100
AcDbEntity
  8
0
100
AcDbBlockBegin
  2
*Model_Space
 70
0
 10
0.0
 20
0.0
 30
0.0
  3
*Model_Space
  1

  0
ENDBLK
  5
19
330
17
100
AcDbEntity
  8
0
100
AcDbBlockEnd
  0
BLOCK
  5
1C
330
1B
100
AcDbEntity
  8
0
100
AcDbBlockBegin
  2
*Paper_Space
 70
0
 10
0.0
 20
0.0
 30
0.0
  3
*Paper_Space
  1

  0
ENDBLK
  5
1D
330
1B
100
AcDbEntity
  8
0
100
AcDbBlockEnd
  0
ENDSEC
  0
SECTION
  2
ENTITIES
  0
LWPOLYLINE
  5
2D
330
17
100
AcDbEntity
  8
0
100
AcDbPolyline
 90
401
 70
0
 10
-0.04996234255708894
 20
2.56317186514028
 10
-0.04995480885840595
 20
2.5625580137937956
 10
-0.04990964028946224
 20
2.561331691826277
 10
-0.03767875569156445
 20
2.3123681914900818
 10
-0.037603505307679475
 20
2.3111433476684513
 10
-0.03749821842922983
 20
2.3099207194825797
 10
-0.03725762423047228
 20
2.307477934276601
 10
-0.03712236429313748
 20
2.3062582583117917
 10
-0.03695721276342709
 20
2.3050422691333794
 10
-0.0003825450024962096
 20
2.05847643063113
 10
-0.00018760134065917006
 20
2.05726486058515
 10
3.701701178265848e-05
 20
2.0560584395958785
 10
0.0005158873853240986
 20
2.053650999401326
 10
0.0007700451002107603
 20
2.0524504542893913
 10
0.0010535891033514946
 20
2.0512565080979286
 10
0.061619806335913775
 20
1.809462892862712
 10
0.061932565863517273
 20
1.8082762646626598
 10
0.06227435249455409
 20
1.8070976693520844
 10
0.06298688726418716
 20
1.8047487591094462
 10
0.06335749508138283
 20
1.8035789067444
 10
0.06375670087698017
 20
1.8024185018827537
 10
0.14773118238451932
 20
1.5677257122751753
 10
0.14815874573582438
 20
1.5665754537874081
 10
0.14861440905681889
 20
1.565436034660853
 10
0.149553746130195
 20
1.5631682756370724
 10
0.15003723489725873
 20
1.5620403823258535
 10
0.15054825791896093
 20
1.5609246941164243
 10
0.2571222843492555
 20
1.335592947732843
 10
0.257660533859413
 20
1.3344901365647759
 10
0.25822568558769454
 20
1.3334008668407777
 10
0.25938277864462655
 20
1.3312360987725869
 10
0.2599744921052673
 20
1.330161026732985
 10
0.26059241092714835
 20
1.3291007998518873
 10
0.38873961717469563
 20
1.1153001624144716
 10
0.3893833692121254
 20
1.1142554192294134
 10
0.39005256663332905
 20
1.1132267891599155
 10
0.3914162722460613
 20
1.1111858599270674
 10
0.39211051188164947
 20
1.1101739626806082
 10
0.3928293756133566
 20
1.1091794076825066
 10
0.5413156352661982
 20
0.9089688941419592
 10
0.5420586901527293
 20
0.9079922803783727
 10
0.5428254885359469
 20
0.9070341962238646
 10
0.5443826734867163
 20
0.9051367610712577
 10
0.5451727533971008
 20
0.9041977837312646
 10
0.5459856389952406
 20
0.9032784787143355
 10
0.713380949634434
 20
0.7185862238310263
 10
0.7142161513526021
 20
0.7176871448036872
 10
0.7150731660177563
 20
0.7168088334288649
 10
0.716808833779492
 20
0.7150731656756273
 10
0.7176871450707345
 20
0.714216151098343
 10
0.7185862240103379
 20
0.7133809494637882
 10
0.9032784789018397
 20
0.5459856388334197
 10
0.9041977840107998
 20
0.5451727531559717
 10
0.9051367614466622
 20
0.5443826731708428
 10
0.9070341966070637
 20
0.5428254882292607
 10
0.9079922806695596
 20
0.5420586899254892
 10
0.9089688943374066
 20
0.5413156351137491
 10
1.1091794078851658
 20
0.3928293754705354
 10
1.110173962982775
 20
0.3921105116688198
 10
1.1111858603321187
 20
0.3914162719681485
 10
1.1132267895713475
 20
0.39005256636566227
 10
1.1142554195413432
 20
0.38938336901460596
 10
1.1153001626236416
 20
0.38873961704231835
 10
1.329100800067367
 20
0.2605924108050029
 10
1.3301610270540054
 20
0.25997449192340166
 10
1.331236099202017
 20
0.25938277840825635
 10
1.3334008672756434
 20
0.25822568536205354
 10
1.3344901368940942
 20
0.2576605336936296
 10
1.3355929479538717
 20
0.2571222842380469
 10
1.5609246943428177
 20
0.15054825781852416
 10
1.5620403826635298
 20
0.15003723474755837
 10
1.563168276088384
 20
0.14955374593672216
 10
1.5654360351171952
 20
0.14861440887432392
 10
1.566575454132448
 20
0.14815874560272935
 10
1.567725712506693
 20
0.14773118229527818
 10
1.802418502117682
 20
0.06375670079931375
 10
1.8035789070945305
 20
0.06335749496572113
 10
1.804748759576576
 20
0.06298688711620698
 10
1.8070976698234562
 20
0.06227435235785734
 10
1.8082762650187965
 20
0.06193256576494973
 10
1.8094628931019536
 20
0.061619806269757035
 10
2.0512565083392382
 20
0.0010535890491105565
 10
2.052450454649019
 20
0.0007700450194613809
 10
2.053650999880503
 20
0.0005158872838892797
 10
2.056058440078104
 20
3.701692200074047e-05
 10
2.0572648609490076
 20
-0.00018760140380190415
 10
2.05847643087553
 20
-0.0003825450448507947
 10
2.3050422693791295
 20
-0.03695721279380903
 10
2.3062582586780596
 20
-0.037122364338324214
 10
2.3074779347640426
 20
-0.03725762428453975
 10
2.309920719970796
 20
-0.037498218471274915
 10
2.311143348036088
 20
-0.03760350533479467
 10
2.312368191736626
 20
-0.03767875570968795
 10
2.5613316920738516
 20
-0.04990964029559888
 10
2.5625580088923483
 20
-0.04995480873807979
 10
2.563171867043152
 20
-0.04996234261510746
 10
2.5637853477106862
 20
-0.049984938441575845
 10
2.5650124088305692
 20
-0.04999999750000013
 10
22.885012403920825
 20
-0.04999999749398183
 10
22.886239459892657
 20
-0.04998493856193416
 10
22.8868529482867
 20
-0.049962342545786576
 10
22.887466798712115
 20
-0.04995480885841304
 10
22.888693120679925
 20
-0.04990964028946209
 10
23.137656621016525
 20
-0.03767875569152878
 10
23.138881464838246
 20
-0.03760350530763707
 10
23.14010409302421
 20
-0.03749821842917623
 10
23.142546878230096
 20
-0.03725762423041868
 10
23.143766554194816
 20
-0.03712236429309049
 10
23.144982543373136
 20
-0.03695721276339147
 10
23.391548381874788
 20
-0.0003825450025458574
 10
23.392759951920837
 20
-0.00018760134069676498
 10
23.393966372910175
 20
3.7017011759926666e-05
 10
23.39637381310587
 20
0.0005158873855358459
 10
23.397574358217735
 20
0.0007700451004108225
 10
23.39876830440913
 20
0.0010535891035361802
 10
23.64056191964319
 20
0.06161980633580714
 10
23.641748547843385
 20
0.06193256586345069
 10
23.642927143154104
 20
0.06227435249453473
 10
23.64527605339702
 20
0.06298688726426727
 10
23.64644590576192
 20
0.06335749508142186
 10
23.64760631062342
 20
0.0637567008769708
 10
23.8822991002308
 20
0.1477311823844034
 10
23.883449358718376
 20
0.14815874573563578
 10
23.884588777844748
 20
0.1486144090565474
 10
23.88685653686877
 20
0.1495537461300017
 10
23.887984430180182
 20
0.15003723489714027
 10
23.8891001183898
 20
0.15054825791892595
 10
24.114431864773515
 20
0.2571222843492916
 10
24.1155346759415
 20
0.2576605338594076
 10
24.116623945665417
 20
0.25822568558764414
 10
24.118788713732975
 20
0.259382778644228
 10
24.11986378577266
 20
0.25997449210490986
 10
24.120924012653838
 20
0.26059241092683727
 10
24.33472465009215
 20
0.38873961717493877
 10
24.335769393277094
 20
0.38938336921229594
 10
24.336798023346482
 20
0.3900525666334217
 10
24.338838952578833
 20
0.3914162722458058
 10
24.339850849825407
 20
0.39211051188146684
 10
24.340845404823618
 20
0.3928293756132518
 10
24.541055918364513
 20
0.5413156352663705
 10
24.542032532128104
 20
0.5420586901529051
 10
24.542990616282616
 20
0.5428254885361272
 10
24.54488805143483
 20
0.5443826734865769
 10
24.54582702877482
 20
0.5451727533969565
 10
24.546746333791745
 20
0.5459856389950912
 10
24.73143858867512
 20
0.7133809496343415
 10
24.73233766770264
 20
0.7142161513526868
 10
24.73321597907764
 20
0.7150731660180257
 10
24.734951646831433
 20
0.7168088337803512
 10
24.735808661408534
 20
0.7176871450714201
 10
24.736643863042914
 20
0.71858622401084
 10
24.904039173672814
 20
0.9032784789018728
 10
24.9048520593497
 20
0.9041977840101837
 10
24.9056421393343
 20
0.9051367614453701
 10
24.907199324275577
 20
0.9070341966052672
 10
24.907966122579907
 20
0.9079922806684093
 10
24.908709177392172
 20
0.90896889433693
 10
25.057195437035933
 20
1.1091794078854211
 10
25.05791430083795
 20
1.110173962983455
 10
25.0586085405389
 20
1.1111858603332396
 10
25.059972246141257
 20
1.1132267895723689
 10
25.060641443492017
 20
1.1142554195419412
 10
25.061285195464027
 20
1.1153001626238022
 10
25.189432401701428
 20
1.3291008000677194
 10
25.19005032058307
 20
1.3301610270544315
 10
25.190642034098254
 20
1.3312360992025185
 10
25.19179912714454
 20
1.3334008672763227
 10
25.192364278812924
 20
1.3344901368947013
 10
25.19290252826847
 20
1.3355929479544042
 10
25.299476554687864
 20
1.5609246943431654
 10
25.299987577758767
 20
1.5620403826637326
 10
25.300471066569543
 20
1.5631682760884391
 10
25.301410403631934
 20
1.5654360351171934
 10
25.301866066903592
 20
1.5665754541325891
 10
25.3022936302111
 20
1.567725712506981
 10
25.386268111707043
 20
1.80241850211797
 10
25.386667317540727
 20
1.803578907095098
 10
25.38703792539032
 20
1.8047487595774279
 10
25.3877504601485
 20
1.8070976698238461
 10
25.388092246741316
 20
1.8082762650189075
 10
25.38840500623643
 20
1.8094628931017824
 10
25.448971223457296
 20
2.0512565083400833
 10
25.4492547674869
 20
2.052450454649648
 10
25.449508925222432
 20
2.0536509998809134
 10
25.44998779558418
 20
2.05605844007769
 10
25.45021241391003
 20
2.057264860948809
 10
25.450407357551114
 20
2.058476430875549
 10
25.48698202530005
 20
2.30504226937917
 10
25.487147176844548
 20
2.306258258677945
 10
25.487282436790753
 20
2.3074779347637717
 10
25.487523030977474
 20
2.3099207199702265
 10
25.48762831784101
 20
2.3111433480356722
 10
25.487703568215917
 20
2.3123681917363648
 10
25.49993445280185
 20
2.5613316920742015
 10
25.49997962124433
 20
2.5625580088926974
 10
25.49998715512136
 20
2.563171867043755
 10
25.500009750947825
 20
2.5637853477113346
 10
25.50002481000624
 20
2.5650124088309334
 10
25.500024810000216
 20
15.265012403921036
 10
25.500009751068156
 20
15.266239459893404
 10
25.499987155052036
 20
15.266852948286388
 10
25.49997962136465
 20
15.267466798712608
 10
25.499934452795706
 20
15.26869312068013
 10
25.48770356819778
 20
15.517656621016332
 10
25.48762831781392
 20
15.518881464837635
 10
25.48752303093551
 20
15.52010409302318
 10
25.487282436736795
 20
15.522546878229052
 10
25.487147176799436
 20
15.523766554194188
 10
25.486982025269683
 20
15.524982543372923
 10
25.45040735750878
 20
15.771548381874974
 10
25.45021241384681
 20
15.772759951921723
 10
25.4499877954942
 20
15.773966372911756
 10
25.449508925120316
 20
15.77637381310763
 10
25.449254767405563
 20
15.777574358218793
 10
25.448971223402594
 20
15.77876830440949
 10
25.38840500617036
 20
16.020561919643526
 10
25.388092246642707
 20
16.02174854784376
 10
25.38775046001161
 20
16.02292714315451
 10
25.38703792524172
 20
16.02527605339793
 10
25.386667317424575
 20
16.026445905762802
 10
25.386268111629036
 20
16.027606310624275
 10
25.30229363012198
 20
16.26229910023049
 10
25.301866066770543
 20
16.263449358718592
 10
25.301410403449406
 20
16.264588777845475
 10
25.300471066375447
 20
16.26685653687057
 10
25.299987577608512
 20
16.267984430181453
 10
25.299476554586953
 20
16.269100118390558
 10
25.19290252815653
 20
16.49443186477436
 10
25.192364278646327
 20
16.49553467594252
 10
25.191799126917992
 20
16.496623945666606
 10
25.19064203386167
 20
16.49878871373363
 10
25.190050320401077
 20
16.499863785773144
 10
25.189432401579246
 20
16.500924012654153
 10
25.06128519533113
 20
16.714724650092414
 10
25.06064144329415
 20
16.715769393276766
 10
25.059972245873425
 20
16.716798023345582
 10
25.05860854026146
 20
16.71883895257743
 10
25.057914300625427
 20
16.719850849824585
 10
25.057195436893245
 20
16.720845404823365
 10
24.908709177240674
 20
16.921055918363578
 10
24.907966122353926
 20
16.922032532127442
 10
24.907199323970477
 20
16.922990616282217
 10
24.90564213901894
 20
16.924888051435705
 10
24.90485205910877
 20
16.925827028775423
 10
24.904039173510856
 20
16.92674633379209
 10
24.73664386287152
 20
17.111438588675526
 10
24.735808661153357
 20
17.112337667702864
 10
24.734951646488202
 20
17.113215979077687
 10
24.733215978726765
 20
17.114951646830626
 10
24.732337667435523
 20
17.11580866140791
 10
24.73143858849592
 20
17.116643863042466
 10
24.54674633360436
 20
17.284039173672884
 10
24.54582702849549
 20
17.28485205935025
 10
24.544888051059726
 20
17.285642139335305
 10
24.54299061589924
 20
17.287199324276973
 10
24.54203253183665
 20
17.287966122580823
 10
24.541055918168706
 20
17.28870917739264
 10
24.34084540462099
 20
17.43719543703581
 10
24.33985084952332
 20
17.43791430083757
 10
24.338838952173912
 20
17.43860854053828
 10
24.336798022935053
 20
17.43997224614051
 10
24.33576939296512
 20
17.440641443491522
 10
24.334724649882887
 20
17.44128519546377
 10
24.120924012438664
 20
17.56943240170139
 10
24.119863785451905
 20
17.57005032058306
 10
24.118788713303772
 20
17.570642034098267
 10
24.11662394523053
 20
17.57179912714425
 10
24.1155346756122
 20
17.572364278812607
 10
24.114431864552543
 20
17.572902528268127
 10
23.889100118163512
 20
17.679476554687707
 10
23.887984429842962
 20
17.6799875777586
 10
23.88685653641828
 20
17.68047106656937
 10
23.884588777389823
 20
17.68141040363164
 10
23.883449358374403
 20
17.681866066903307
 10
23.88229909999999
 20
17.682293630210825
 10
23.64760631038869
 20
17.766268111706903
 10
23.64644590541185
 20
17.76666731754049
 10
23.64527605292981
 20
17.767037925390007
 10
23.642927142682744
 20
17.767750460148413
 10
23.6417485474874
 20
17.768092246741322
 10
23.640561919404234
 20
17.768405006236517
 10
23.398768304166964
 20
17.828971223457163
 10
23.397574357857057
 20
17.82925476748684
 10
23.39637381262545
 20
17.829508925222434
 10
23.39396637242782
 20
17.829987795584316
 10
23.39275995155704
 20
17.83021241391009
 10
23.39154838163064
 20
17.830407357551117
 10
23.14498254312691
 20
17.866982025300082
 10
23.14376655382802
 20
17.867147176844593
 10
23.142546877742078
 20
17.867282436790806
 10
23.14010409253565
 20
17.867523030977512
 10
23.13888146447032
 20
17.86762831784104
 10
23.137656620769743
 20
17.867703568215934
 10
22.888693120432375
 20
17.87993445280185
 10
22.88746680361388
 20
17.87997962124433
 10
22.886852945463197
 20
17.87998715512136
 10
22.886239464795626
 20
17.880009750947828
 10
22.885012403675717
 20
17.88002481000625
 10
2.5650124085854453
 20
17.880024810000233
 10
2.5637853526136154
 20
17.880009751068187
 10
2.5631718642195587
 20
17.87998715505204
 10
2.5625580137941832
 20
17.879979621364665
 10
2.5613316918263744
 20
17.879934452795716
 10
2.3123681914896745
 20
17.867703568197783
 10
2.311143347668073
 20
17.8676283178139
 10
2.30992071948223
 20
17.867523030935452
 10
2.3074779342766565
 20
17.867282436736737
 10
2.30625825831182
 20
17.8671471767994
 10
2.305042269133381
 20
17.866982025269685
 10
2.058476430631558
 20
17.830407357508825
 10
2.0572648605854815
 20
17.830212413846972
 10
2.0560584395961152
 20
17.82998779549451
 10
2.053650999400504
 20
17.82950892512075
 10
2.0524504542886652
 20
17.829254767405878
 10
2.051256508097297
 20
17.82897122340276
 10
1.8094628928630254
 20
17.76840500617044
 10
1.808276264662706
 20
17.768092246642762
 10
1.8070976693518666
 20
17.767750460011637
 10
1.804748759108596
 20
17.767037925241784
 10
1.803578906743819
 20
17.766667317424663
 10
1.802418501882438
 20
17.766268111629152
 10
1.5677257122755133
 20
17.68229363012187
 10
1.56657545378789
 20
17.68186606677062
 10
1.5654360346614755
 20
17.68141040344969
 10
1.563168275637226
 20
17.680471066376136
 10
1.5620403823258615
 20
17.679987577609015
 10
1.5609246941162886
 20
17.67947655458725
 10
1.3355929477327002
 20
17.57290252815695
 10
1.3344901365645991
 20
17.572364278646774
 10
1.3334008668405677
 20
17.57179912691847
 10
1.3312360987728102
 20
17.570642033861766
 10
1.330161026733242
 20
17.570050320401144
 10
1.329100799852177
 20
17.56943240157928
 10
1.1153001624143635
 20
17.441285195331485
 10
1.1142554192295593
 20
17.440641443294215
 10
1.1132267891603074
 20
17.439972245873186
 10
1.1111858599275446
 20
17.438608540260546
 10
1.1101739626808305
 20
17.437914300624797
 10
1.1091794076824824
 20
17.437195436892914
 10
0.90896889414207
 20
17.28870917724015
 10
0.9079922803785334
 20
17.28796612235366
 10
0.9070341962240738
 20
17.287199323970484
 10
0.9051367610714314
 20
17.285642139019693
 10
0.90419778373139
 20
17.28485205910927
 10
0.9032784787144154
 20
17.28403917351109
 10
0.7185862238311133
 20
17.116643862871918
 10
0.7176871448035875
 20
17.115808661153572
 10
0.7168088334285884
 20
17.114951646488233
 10
0.7150731656751091
 20
17.11321597872622
 10
0.7142161510980105
 20
17.112337667435156
 10
0.7133809494636326
 20
17.111438588495737
 10
0.5459856388332499
 20
16.92674633360423
 10
0.5451727531557634
 20
16.925827028495224
 10
0.5443826731705979
 20
16.924888051059316
 10
0.5428254882291224
 20
16.922990615899035
 10
0.5420586899253885
 20
16.92203253183658
 10
0.5413156351136836
 20
16.92105591816878
 10
0.39282937547063335
 20
16.72084540462122
 10
0.39211051166900995
 20
16.71985084952374
 10
0.39141627196842516
 20
16.718838952174533
 10
0.3900525663658679
 20
16.716798022935226
 10
0.38938336901471887
 20
16.7157693929651
 10
0.38873961704234616
 20
16.714724649882665
 10
0.26059241080493123
 20
16.500924012438762
 10
0.25997449192328564
 20
16.499863785452046
 10
0.2593827784081003
 20
16.498788713303956
 10
0.25822568536208224
 20
16.496623945230656
 10
0.2576605336937023
 20
16.495534675612284
 10
0.2571222842381598
 20
16.494431864552585
 10
0.1505482578185092
 20
16.269100118163347
 10
0.1500372347476117
 20
16.26798442984279
 10
0.14955374593683662
 20
16.266856536418093
 10
0.14861440887440286
 20
16.26458877738924
 10
0.14815874560274
 20
16.263449358373833
 10
0.14773118229522877
 20
16.26229909999943
 10
0.06375670079929988
 20
16.027606310388556
 10
0.06335749496567436
 20
16.02644590541161
 10
0.0629868871161322
 20
16.025276052929463
 10
0.06227435235785362
 20
16.022927142682782
 10
0.061932565764979644
 20
16.021748547487544
 10
0.06161980626981489
 20
16.02056191940449
 10
0.001053589049118675
 20
15.77876830416709
 10
0.0007700450194594172
 20
15.777574357857263
 10
0.0005158872838795583
 20
15.776373812625735
 10
3.7016922005229935e-05
 20
15.773966372428184
 10
-0.00018760140378813045
 20
15.772759951557322
 10
-0.00038254504482973517
 20
15.771548381630842
 10
-0.036957212793795075
 20
15.524982543127136
 10
-0.03712236433829534
 20
15.523766553828326
 10
-0.03725762428450188
 20
15.522546877742464
 10
-0.03749821847123705
 20
15.520104092535831
 10
-0.03760350533477166
 20
15.518881464470418
 10
-0.037678755709673835
 20
15.51765662076976
 10
-0.04990964029560608
 20
15.268693120431909
 10
-0.049954808738101104
 20
15.267466803612836
 10
-0.04996234261511017
 20
15.266852945462679
 10
-0.04998493844159708
 20
15.26623946479421
 10
-0.049999997500000136
 20
15.265012403675184
 10
-0.049999997493974734
 20
2.5650124085853654
 10
-0.04998493847172042
 20
2.5637853489389233
 10
-0.04996234255708894
 20
2.56317186514028
  0
LWPOLYLINE
  5
2E
330
17
100
AcDbEntity
  8
0
100
AcDbPolyline
 90
394
 70
0
 10
-0.06995631379906354
 20
2.5626810372984052
 10
-0.06994878005025942
 20
2.5620671818680134
 10
-0.06988554405735173
 20
2.5603503312115934
 10
-0.057654659459453944
 20
2.311386830875398
 10
-0.057549308928035
 20
2.309672049623103
 10
-0.05740190730662845
 20
2.307960370260693
 10
-0.0571613131078709
 20
2.305517585054714
 10
-0.05697194920642297
 20
2.303810038801555
 10
-0.056740737078040546
 20
2.302107654049057
 10
-0.020166069317109667
 20
2.0555418155468077
 10
-0.01989314820613329
 20
2.0538456175793605
 10
-0.019578682530684205
 20
2.0521566282908945
 10
-0.019099812157142765
 20
2.049749188096342
 10
-0.018743991376634045
 20
2.0480684250356775
 10
-0.018347029794920547
 20
2.0463969004631455
 10
0.042219187437641734
 20
1.8046032852279286
 10
0.042657050751265885
 20
1.8029420058427859
 10
0.043135552007374484
 20
1.801291972502268
 10
0.04384808677700755
 20
1.7989430622596299
 10
0.044366937691432864
 20
1.7973052690421534
 10
0.044925825773332664
 20
1.795680702328681
 10
0.12890030728087182
 20
1.5609879127211026
 10
0.12949889593849387
 20
1.5593775509302492
 10
0.13013682455143305
 20
1.5577823642442252
 10
0.13107616162480917
 20
1.5555146052204447
 10
0.13175304586001932
 20
1.5539355546749698
 10
0.13246847804952055
 20
1.5523735912710241
 10
0.23904250447981512
 20
1.3270418448874428
 10
0.23979605375097562
 20
1.3254979093403736
 10
0.24058726612535772
 20
1.323972931813918
 10
0.24174435918228973
 20
1.321808163745727
 10
0.24257275797984967
 20
1.3203030629762902
 10
0.24343784428104967
 20
1.3188187454275715
 10
0.3715850505285969
 20
1.1050181079901558
 10
0.37248630332949845
 20
1.1035554676146537
 10
0.3734231796656477
 20
1.102115385599647
 10
0.37478688527837994
 20
1.100074456366799
 10
0.37575882071266425
 20
1.098657800302708
 10
0.37676522987954514
 20
1.09726542338493
 10
0.5252514895323868
 20
0.8970549098443827
 10
0.5262917663140858
 20
0.8956876506534905
 10
0.5273652839892466
 20
0.894346332913826
 10
0.528922468940016
 20
0.8924488977612192
 10
0.5300285807513481
 20
0.8911343295603469
 10
0.5311666205237128
 20
0.8898473026101906
 10
0.6985619311629062
 20
0.7051550477268814
 10
0.6997312135015253
 20
0.7038963371605331
 10
0.70093103396418
 20
0.7026667013060467
 10
0.7026667017259157
 20
0.7009310335528091
 10
0.7038963374633903
 20
0.6997312132131723
 10
0.7051550479069089
 20
0.6985619309916116
 10
0.8898473027984106
 20
0.5311666203612431
 10
0.8911343298774104
 20
0.5300285804778467
 10
0.8924488982124996
 20
0.5289224685618727
 10
0.8943463333729011
 20
0.5273652836202907
 10
0.8956876509837487
 20
0.5262917660563543
 10
0.8970549100406053
 20
0.5252514893793627
 10
1.0972654235883645
 20
0.37676522973614895
 10
1.0986578006454528
 20
0.3757588204712562
 10
1.1000744568535823
 20
0.37478688494585555
 10
1.102115386092811
 20
0.3734231793433693
 10
1.103555467968515
 20
0.3724863031054263
 10
1.1050181082001531
 20
0.3715850503957238
 10
1.3188187456438785
 20
0.24343784415840836
 10
1.320303063340354
 20
0.24257275777360016
 10
1.3218081642615644
 20
0.24174435889973378
 10
1.323972932335191
 20
0.24058726585353096
 10
1.3254979097138806
 20
0.2397960535629496
 10
1.3270418451093442
 20
0.23904250436819377
 10
1.5523735914982901
 20
0.13246847794867103
 10
1.553935555058032
 20
0.1317530456902008
 10
1.5555146057625964
 20
0.1310761613937092
 10
1.5577823647914075
 20
0.13013682433131096
 10
1.559377551321608
 20
0.12949889578753163
 10
1.5609879129535305
 20
0.12890030719130502
 10
1.7956807025645194
 20
0.04492582569534061
 10
1.797305269439275
 20
0.0443669375602474
 10
1.7989430628205505
 20
0.043848086600576236
 10
1.8012919730674306
 20
0.04313555184222659
 10
1.8029420062466193
 20
0.04265705063949887
 10
1.804603285468109
 20
0.042219187371249856
 10
2.046396900705394
 20
-0.018347029849396623
 10
2.0480684254435717
 20
-0.01874399146822199
 10
2.0497491886716053
 20
-0.01909981227769028
 10
2.052156628869206
 20
-0.01957868263957882
 10
2.053845617991958
 20
-0.019893148277733058
 10
2.0555418157921634
 20
-0.020166069359606006
 10
2.302107654295763
 20
-0.05674073710856424
 10
2.303810039216986
 20
-0.05697194925767338
 10
2.305517585639788
 20
-0.05716131317155432
 10
2.307960370846541
 20
-0.05740190735828948
 10
2.3096720500401395
 20
-0.057549308958794204
 10
2.3113868311229058
 20
-0.05765465947762477
 10
2.5603503314601315
 20
-0.0698855440635357
 10
2.5620671953715695
 20
-0.06994878038175664
 10
2.563294510103291
 20
-0.06997890949395377
 10
2.5650124088305755
 20
-0.06999999250000036
 10
22.885012403920832
 20
-0.06999999249398206
 10
22.886730302648076
 20
-0.06997890948793548
 10
22.887957617379797
 20
-0.06994878037573835
 10
22.889674481294612
 20
-0.0698855440573515
 10
23.138637981631213
 20
-0.057654659459418195
 10
23.140352762883634
 20
-0.057549308927989734
 10
23.14206444224617
 20
-0.05740190730656762
 10
23.144507227452056
 20
-0.05716131310781007
 10
23.146214773705086
 20
-0.05697194920637154
 10
23.147917158457457
 20
-0.05674073707800488
 10
23.39448299695911
 20
-0.020166069317159266
 10
23.396179194926653
 20
-0.019893148206166264
 10
23.397868184215213
 20
-0.01957868253069614
 10
23.40027562441091
 20
-0.01909981215692022
 10
23.401956387471476
 20
-0.018743991376428126
 10
23.403627912043913
 20
-0.01834702979473589
 10
23.64542152727797
 20
0.04221918743753507
 10
23.647082806663317
 20
0.04265705075121526
 10
23.648732840004037
 20
0.04313555200739001
 10
23.651081750246952
 20
0.043848086777122555
 10
23.652719543464222
 20
0.044366937691490554
 10
23.65434411017749
 20
0.04492582577332241
 10
23.88903689978487
 20
0.128900307280755
 10
23.890647261575456
 20
0.12949889593827485
 10
23.89224244826122
 20
0.13013682455109848
 10
23.894510207285244
 20
0.13107616162455277
 10
23.89608925783099
 20
0.13175304585986752
 10
23.8976512212352
 20
0.1324684780494858
 10
24.122982967618917
 20
0.23904250447985143
 10
24.12452690316587
 20
0.23979605375095442
 10
24.126051880692213
 20
0.2405872661252729
 10
24.12821664875977
 20
0.24174435918185674
 10
24.129721749529324
 20
0.24257275797947522
 10
24.131206067078157
 20
0.2434378442807392
 10
24.345006704516468
 20
0.3715850505288407
 10
24.34646934489181
 20
0.37248630332964106
 10
24.34790942690666
 20
0.3734231796656808
 10
24.34995035613901
 20
0.37478688527806486
 10
24.351367012203262
 20
0.3757588207124512
 10
24.352759389121196
 20
0.3767652298794411
 10
24.552969902662092
 20
0.5252514895325597
 10
24.55433716185299
 20
0.5262917663142647
 10
24.55567847959266
 20
0.5273652839894308
 10
24.557575914744877
 20
0.5289224689398805
 10
24.55889048294574
 20
0.5300285807512054
 10
24.560177509895887
 20
0.5311666205235634
 10
24.74486976477926
 20
0.6985619311628137
 10
24.74612847534587
 20
0.6997312135016798
 10
24.747358111200604
 20
0.7009310339645942
 10
24.749093778954396
 20
0.7026667017269197
 10
24.750293599293776
 20
0.7038963374641508
 10
24.751462881515092
 20
0.705155047907413
 10
24.91885819214499
 20
0.8898473027984458
 10
24.919996232027604
 20
0.8911343298765366
 10
24.921102343942838
 20
0.8924488982106793
 10
24.922659528884115
 20
0.8943463333705763
 10
24.92373304644883
 20
0.895687650982329
 10
24.92477332312656
 20
0.8970549100401284
 10
25.07325958277032
 20
1.0972654235886194
 10
25.074265992035635
 20
1.0986578006463035
 10
25.075237927561425
 20
1.1000744568550493
 10
25.076601633163783
 20
1.1021153860941786
 10
25.077538509401307
 20
1.1035554679692898
 10
25.078439762110623
 20
1.1050181082003154
 10
25.206586968348024
 20
1.3188187456442326
 10
25.20745205473289
 20
1.3203030633408113
 10
25.208280453606807
 20
1.3218081642621273
 10
25.209437546653096
 20
1.3239729323359315
 10
25.21022875894362
 20
1.3254979097145196
 10
25.210982308138323
 20
1.3270418451098793
 10
25.317556334557718
 20
1.5523735914986405
 10
25.3182717668161
 20
1.55393555505818
 10
25.31894865111251
 20
1.5555146057625373
 10
25.3198879881749
 20
1.5577823647912916
 10
25.32052591671877
 20
1.559377551321693
 10
25.321124505315076
 20
1.56098791295382
 10
25.40509898681102
 20
1.795680702564809
 10
25.40565787494624
 20
1.7973052694399565
 10
25.406176725906022
 20
1.7989430628216294
 10
25.4068892606642
 20
1.8012919730680477
 10
25.407367761866798
 20
1.8029420062468464
 10
25.407805625134937
 20
1.8046032854679406
 10
25.468371842355804
 20
2.0463969007062413
 10
25.468768803974562
 20
2.048068425444116
 10
25.469124624783976
 20
2.049749188671844
 10
25.469603495145723
 20
2.052156628868621
 10
25.469917960783945
 20
2.053845617991674
 10
25.47019088186587
 20
2.0555418157921843
 10
25.50676554961481
 20
2.302107654295805
 10
25.50699676176389
 20
2.303810039216811
 10
25.507186125677755
 20
2.3055175856393944
 10
25.507426719864476
 20
2.307960370845849
 10
25.50757412146501
 20
2.309672050039663
 10
25.507679471983852
 20
2.311386831122645
 10
25.519910356569785
 20
2.560350331460482
 10
25.519973592888018
 20
2.5620671953723324
 10
25.520003722000208
 20
2.563294510104061
 10
25.520024805006244
 20
2.565012408830943
 10
25.52002480500022
 20
15.265012403921046
 10
25.520003721994183
 20
15.26673030264787
 10
25.519973592881993
 20
15.267957617379592
 10
25.519910356563592
 20
15.269674481294816
 10
25.507679471965666
 20
15.518637981631018
 10
25.50757412143428
 20
15.520352762882855
 10
25.507426719812933
 20
15.522064442244808
 10
25.50718612561422
 20
15.52450722745068
 10
25.506996761712735
 20
15.526214773704295
 10
25.506765549584298
 20
15.527917158457246
 10
25.470190881823395
 20
15.774482996959296
 10
25.46991796071223
 20
15.77617919492782
 10
25.469603495036544
 20
15.777868184217352
 10
25.469124624662662
 20
15.780275624413227
 10
25.46876880388234
 20
15.781956387472809
 10
25.46837184230087
 20
15.78362791204427
 10
25.407805625068633
 20
16.025421527278308
 10
25.407367761754937
 20
16.0270828066637
 10
25.406889260498748
 20
16.028732840004466
 10
25.40617672572886
 20
16.031081750247886
 10
25.4056578748145
 20
16.032719543465117
 10
25.405098986732682
 20
16.034344110178345
 10
25.321124505225626
 20
16.26903689978456
 10
25.320525916567824
 20
16.270647261575885
 10
25.31988798795468
 20
16.272242448262368
 10
25.31894865088072
 20
16.274510207287463
 10
25.31827176664569
 20
16.27608925783247
 10
25.31755633445639
 20
16.27765122123596
 10
25.21098230802597
 20
16.50298296761976
 10
25.210228758754745
 20
16.50452690316696
 10
25.20943754638029
 20
16.50605188069354
 10
25.20828045332397
 20
16.508216648760566
 10
25.207452054526474
 20
16.509721749529877
 10
25.20658696822534
 20
16.511206067078472
 10
25.078439761977226
 20
16.725006704516733
 10
25.07753850917695
 20
16.72646934489125
 10
25.076601632841474
 20
16.7279094269053
 10
25.07523792722951
 20
16.729950356137145
 10
25.074265991794604
 20
16.731367012202217
 10
25.073259582627056
 20
16.732759389120943
 10
24.924773322974485
 20
16.932969902661156
 10
24.92373304619248
 20
16.934337161852437
 10
24.922659528517002
 20
16.93567847959247
 10
24.921102343565465
 20
16.93757591474596
 10
24.919996231754432
 20
16.938890482946448
 10
24.918858191982384
 20
16.940177509896237
 10
24.75146288134305
 20
17.124869764779675
 10
24.75029359900443
 20
17.12612847534602
 10
24.749093778541777
 20
17.127358111200504
 10
24.74735811078034
 20
17.129093778953443
 10
24.746128475042866
 20
17.13029359929308
 10
24.744869764599347
 20
17.13146288151464
 10
24.56017750970779
 20
17.298858192145058
 10
24.558890482628918
 20
17.299996232028345
 10
24.55757591429396
 20
17.301102343944216
 10
24.555678479133473
 20
17.302659528885883
 10
24.554337161522497
 20
17.30373304644993
 10
24.552969902465506
 20
17.304773323127026
 10
24.35275938891779
 20
17.453259582770198
 10
24.351367011860617
 20
17.45426599203515
 10
24.3499503556524
 20
17.455237927560606
 10
24.34790942641354
 20
17.456601633162837
 10
24.346469344537923
 20
17.45753850940072
 10
24.345006704306375
 20
17.458439762110363
 10
24.131206066862152
 20
17.586586968347984
 10
24.12972174916551
 20
17.58745205473289
 10
24.128216648244127
 20
17.588280453606842
 10
24.126051880170884
 20
17.589437546652825
 10
24.12452690279236
 20
17.59022875894331
 10
24.12298296739707
 20
17.590982308137978
 10
23.89765122100804
 20
17.697556334557557
 10
23.89608925744853
 20
17.698271766815928
 10
23.8945102067442
 20
17.698948651112328
 10
23.892242447715745
 20
17.6998879881746
 10
23.890647261185315
 20
17.70052591671848
 10
23.889036899553155
 20
17.701124505314798
 10
23.654344109941853
 20
17.785098986810876
 10
23.652719543067107
 20
17.785657874945965
 10
23.65108174968584
 20
17.786176725905634
 10
23.648732839438775
 20
17.78688926066404
 10
23.647082806259576
 20
17.787367761866772
 10
23.645421527038078
 20
17.787805625135025
 10
23.403627911800807
 20
17.84837184235567
 10
23.401956387062455
 20
17.848768803974536
 10
23.400275623834244
 20
17.849124624784032
 10
23.397868183636614
 20
17.849603495145914
 10
23.396179194514037
 20
17.84991796078403
 10
23.394482996714004
 20
17.850190881865874
 10
23.147917158210277
 20
17.88676554961484
 10
23.14621477328911
 20
17.886996761763942
 10
23.144507226866363
 20
17.887186125677818
 10
23.142064441659937
 20
17.887426719864525
 10
23.140352762466286
 20
17.887574121465036
 10
23.138637981383464
 20
17.88767947198387
 10
22.889674481046097
 20
17.899910356569787
 10
22.887957617134738
 20
17.899973592888006
 10
22.886730302403073
 20
17.900003722000204
 10
22.88501240367571
 20
17.900024805006254
 10
2.565012408585439
 20
17.900024805000236
 10
2.563294509858157
 20
17.900003721994185
 10
2.5620671951264637
 20
17.899973592881988
 10
2.5603503312116898
 20
17.899910356563606
 10
2.31138683087499
 20
17.887679471965672
 10
2.309672049622735
 20
17.887574121434255
 10
2.3079603702603655
 20
17.887426719812854
 10
2.3055175850547918
 20
17.88718612561414
 10
2.303810038801595
 20
17.886996761712687
 10
2.3021076540490593
 20
17.8867655495843
 10
2.0555418155472363
 20
17.85019088182344
 10
2.0538456175796544
 20
17.849917960712443
 10
2.0521566282910553
 20
17.849603495036963
 10
2.049749188095444
 20
17.8491246246632
 10
2.0480684250349137
 20
17.848768803882713
 10
2.0463969004625144
 20
17.84837184230103
 10
1.8046032852282425
 20
17.78780562506871
 10
1.8029420058427255
 20
17.787367761754982
 10
1.8012919725018381
 20
17.786889260498754
 10
1.7989430622585676
 20
17.7861767257289
 10
1.7973052690414684
 20
17.78565787481458
 10
1.7956807023283667
 20
17.7850989867328
 10
1.560987912721442
 20
17.70112450522552
 10
1.5593775509307903
 20
17.700525916567972
 10
1.5577823642449635
 20
17.699887987955123
 10
1.555514605220714
 20
17.69894865088157
 10
1.5539355546750346
 20
17.69827176664628
 10
1.5523735912708883
 20
17.69755633445669
 10
1.3270418448872998
 20
17.590982308026387
 10
1.3254979093401826
 20
17.590228758755202
 10
1.3239729318136806
 20
17.589437546380793
 10
1.3218081637459231
 20
17.58828045332409
 10
1.3203030629765333
 20
17.587452054526555
 10
1.3188187454278608
 20
17.58658696822538
 10
1.1050181079900472
 20
17.458439761977584
 10
1.1035554676149006
 20
17.457538509176906
 10
1.1021153856002384
 20
17.456601632841
 10
1.1000744563674756
 20
17.45523792722836
 10
1.0986578003030276
 20
17.45426599179385
 10
1.0972654233849046
 20
17.453259582626725
 10
0.8970549098444924
 20
17.30477332297396
 10
0.8956876506536701
 20
17.303733046192317
 10
0.8943463329140733
 20
17.302659528517214
 10
0.8924488977614309
 20
17.301102343566424
 10
0.8911343295604918
 20
17.29999623175504
 10
0.8898473026102711
 20
17.29885819198262
 10
0.705155047726969
 20
17.13146288134345
 10
0.7038963371603606
 20
17.13029359900458
 10
0.7026667013056254
 20
17.129093778541666
 10
0.7009310335521461
 20
17.127358110779653
 10
0.6997312132127701
 20
17.126128475042425
 10
0.6985619309914564
 20
17.12486976459917
 10
0.5311666203610736
 20
16.94017750970766
 10
0.5300285804776231
 20
16.938890482628597
 10
0.5289224685615981
 20
16.93757591429344
 10
0.5273652836201226
 20
16.93567847913316
 10
0.5262917660562383
 20
16.93433716152237
 10
0.5252514893792966
 20
16.93296990246558
 10
0.3767652297362463
 20
16.73275938891802
 10
0.3757588204714831
 20
16.731367011861117
 10
0.3747868849462031
 20
16.729950355653177
 10
0.37342317934364583
 20
16.72790942641387
 10
0.37248630310557357
 20
16.726469344537982
 10
0.37158505039575135
 20
16.725006704306153
 10
0.24343784415833641
 20
16.51120606686225
 10
0.2425727577734666
 20
16.509721749165667
 10
0.24174435889954374
 20
16.508216648244346
 10
0.24058726585352566
 20
16.506051880171047
 10
0.2397960535630065
 20
16.504526902792463
 10
0.23904250436830637
 20
16.502982967397113
 10
0.13246847794865574
 20
16.277651221007876
 10
0.13175304569028137
 20
16.276089257448348
 10
0.13107616139387512
 20
16.274510206744004
 10
0.13013682433144136
 20
16.27224244771515
 10
0.1294988957875667
 20
16.270647261184738
 10
0.12890030719125578
 20
16.269036899552596
 10
0.04492582569532687
 20
16.03434410994172
 10
0.04436693756018782
 20
16.032719543066825
 10
0.04384808660047723
 20
16.03108174968541
 10
0.04313555184219864
 20
16.028732839438728
 10
0.042657050639517524
 20
16.02708280625968
 10
0.0422191873713081
 20
16.025421527038333
 10
-0.018347029849388116
 20
15.783627911800936
 10
-0.01874399146822739
 20
15.781956387062696
 10
-0.019099812277706726
 20
15.7802756238346
 10
-0.019578682639581055
 20
15.777868183637048
 10
-0.019893148277722317
 20
15.776179194514354
 10
-0.02016606935958505
 20
15.774482996714207
 10
-0.05674073710855039
 20
15.527917158210501
 10
-0.056971949257638654
 20
15.526214773289446
 10
-0.05716131317150701
 20
15.524507226866815
 10
-0.057401907358242174
 20
15.522064441660183
 10
-0.057549308958767656
 20
15.520352762466414
 10
-0.0576546594776107
 20
15.51863798138348
 10
-0.06988554406354294
 20
15.269674481045628
 10
-0.06994878038177368
 20
15.267957617133787
 10
-0.06997890949396371
 20
15.266730302402065
 10
-0.06999999250000036
 20
15.265012403675174
 10
-0.06999999249397496
 20
2.5650124085853556
 10
-0.06997890986402364
 20
2.5632945251785015
 10
-0.06995631379906354
 20
2.5626810372984052
  0
LWPOLYLINE
  5
2F
330
17
100
AcDbEntity
  8
0
100
AcDbPolyline
 90
394
 70
0
 10
-0.08995028504103822
 20
2.5621902094565305
 10
-0.08994275124211296
 20
2.5615763499422313
 10
-0.08986144782524126
 20
2.5593689705969096
 10
-0.07763056322734348
 20
2.310405470260714
 10
-0.07749511254839056
 20
2.308200751577754
 10
-0.0773055961840271
 20
2.306000021038806
 10
-0.07706500198526955
 20
2.303557235832827
 10
-0.0768215341197085
 20
2.3013618192913183
 10
-0.07652426139265404
 20
2.2991730389647347
 10
-0.039949593631723165
 20
2.0526072004624853
 10
-0.03959869507160747
 20
2.0504263745735716
 10
-0.03919438207315111
 20
2.048254816985911
 10
-0.03871551169960967
 20
2.0458473767913583
 10
-0.038258027853478954
 20
2.0436863957819638
 10
-0.03774764869319264
 20
2.0415372928283624
 10
0.022818568539369644
 20
1.7997436775931455
 10
0.02338153563901442
 20
1.7976077470229122
 10
0.02399675152019483
 20
1.7954862756524517
 10
0.024709286289827895
 20
1.7931373654098135
 10
0.025376380301482857
 20
1.7910316313399066
 10
0.02609495066968512
 20
1.7889429027746082
 10
0.11006943217722429
 20
1.5542501131670299
 10
0.11083904614116326
 20
1.5521796480730903
 10
0.11165924004604721
 20
1.5501286938275978
 10
0.11259857711942334
 20
1.5478609348038173
 10
0.11346885682277985
 20
1.5458307270240863
 10
0.11438869818008011
 20
1.5438224884256238
 10
0.2209627246103747
 20
1.3184907420420424
 10
0.22193157364253824
 20
1.3165056821159713
 10
0.22294884666302084
 20
1.3145449967870582
 10
0.22410593971995285
 20
1.3123802287188673
 10
0.2251710238544319
 20
1.3104450992195955
 10
0.2262832776349509
 20
1.3085366910032559
 10
0.3544304838824982
 20
1.0947360535658401
 10
0.35558923744687143
 20
1.092855515999894
 10
0.35679379269796635
 20
1.0910039820393787
 10
0.3581574983106986
 20
1.0889630528065306
 10
0.35940712954367904
 20
1.0871416379248078
 10
0.36070108414573365
 20
1.0853514390873533
 10
0.5091873437985752
 20
0.8851409255468061
 10
0.5105248424754424
 20
0.8833830209286084
 10
0.5119050794425464
 20
0.8816584696037875
 10
0.5134622643933158
 20
0.8797610344511806
 10
0.5148844081055952
 20
0.8780708753894292
 10
0.516347602052185
 20
0.8764161265060457
 10
0.6837429126913784
 20
0.6917238716227365
 10
0.6852462756504486
 20
0.6901055295173789
 10
0.6867889019106038
 20
0.6885245691832285
 10
0.6885245696723395
 20
0.6867889014299908
 10
0.6901055298560462
 20
0.6852462753280016
 10
0.6917238718034797
 20
0.683742912519435
 10
0.8764161266949815
 20
0.5163476018890665
 10
0.8780708757440208
 20
0.5148844077997219
 10
0.8797610349783369
 20
0.5134622639529027
 10
0.8816584701387384
 20
0.5119050790113207
 10
0.8833830212979376
 20
0.5105248421872195
 10
0.885140925743804
 20
0.5091873436449762
 10
1.085351439291563
 20
0.3607010840017625
 10
1.0871416383081307
 20
0.35940712927369256
 10
1.088963053375046
 20
0.3581574979235626
 10
1.0910039826142748
 20
0.3567937923210764
 10
1.0928555163956863
 20
0.3555892371962467
 10
1.0947360537766644
 20
0.3544304837491292
 10
1.3085366912203897
 20
0.22628327751181376
 10
1.3104450996267027
 20
0.22517102362379865
 10
1.312380229321112
 20
0.22410593939121118
 10
1.3145449973947385
 20
0.22294884634500836
 10
1.316505682533667
 20
0.22193157343226955
 10
1.3184907422648167
 20
0.2209627244983406
 10
1.5438224886537626
 20
0.11438869807881787
 10
1.5458307274525342
 20
0.11346885663284315
 10
1.5478609354368087
 20
0.11259857685069619
 10
1.5501286944656198
 20
0.11165923978829795
 10
1.5521796485107677
 20
0.11083904597233384
 10
1.554250113400368
 20
0.11006943208733184
 10
1.7889429030113568
 20
0.02609495059136742
 10
1.7910316317840196
 20
0.0253763801547736
 10
1.793137366064525
 20
0.024709286084945437
 10
1.795486276311405
 20
0.02399675132659579
 10
1.797607747474442
 20
0.023381535514047938
 10
1.7997436778342646
 20
0.02281856847274262
 10
2.041537293071549
 20
-0.03774764874790386
 10
2.0436863962381238
 20
-0.03825802795590531
 10
2.045847377462707
 20
-0.038715511839269884
 10
2.048254817660308
 20
-0.03919438220115842
 10
2.0504263750349074
 20
-0.03959869515166424
 10
2.0526072007087968
 20
-0.03994959367436128
 10
2.299173039212396
 20
-0.07652426142331951
 10
2.301361819755912
 20
-0.07682153417702257
 10
2.303557236515533
 20
-0.07706500205856896
 10
2.3060000217222862
 20
-0.07730559624530413
 10
2.3082007520441916
 20
-0.07749511258279378
 10
2.310405470509185
 20
-0.07763056324556164
 10
2.559368970846411
 20
-0.08986144783147257
 10
2.5615763672338985
 20
-0.08994275166660413
 10
2.56280368196562
 20
-0.08997288077880126
 10
2.5650124088305812
 20
-0.08999998750000063
 10
22.88501240392084
 20
-0.08999998749398233
 10
22.887221130785747
 20
-0.08997288077278297
 10
22.88844844551747
 20
-0.08994275166058584
 10
22.890655841909297
 20
-0.08986144782524098
 10
23.139619342245897
 20
-0.07763056322730767
 10
23.141824060929018
 20
-0.07749511254834258
 10
23.14402479146813
 20
-0.07730559618395905
 10
23.146467576674016
 20
-0.0770650019852015
 10
23.14866299321536
 20
-0.07682153411965265
 10
23.150851773541778
 20
-0.07652426139261834
 10
23.39741761204343
 20
-0.03994959363177272
 10
23.399598437932468
 20
-0.0395986950716358
 10
23.40176999552025
 20
-0.039194382073152234
 10
23.404177435715948
 20
-0.038715511699376315
 10
23.40633841672522
 20
-0.038258027853266735
 10
23.408487519678697
 20
-0.03774764869300801
 10
23.650281134912756
 20
0.02281856853926295
 10
23.65241706548325
 20
0.023381535638979795
 10
23.654538536853966
 20
0.023996751520245246
 10
23.65688744709688
 20
0.02470928628997779
 10
23.658993181166522
 20
0.02537638030155867
 10
23.66108190973156
 20
0.02609495066967396
 10
23.89577469933894
 20
0.11006943217710655
 10
23.89784516443254
 20
0.11083904614091389
 10
23.899896118677695
 20
0.1116592400456495
 10
23.902163877701717
 20
0.11259857711910379
 10
23.904194085481798
 20
0.11346885682259411
 10
23.9062023240806
 20
0.1143886981800456
 10
24.131534070464316
 20
0.22096272461041122
 10
24.13351913039024
 20
0.22193157364250043
 10
24.13547981571901
 20
0.2229488466629016
 10
24.137644583786567
 20
0.22410593971948545
 10
24.13957971328599
 20
0.22517102385403975
 10
24.141488121502473
 20
0.22628327763464107
 10
24.355288758940784
 20
0.35443048388274256
 10
24.357169296506523
 20
0.35558923744698534
 10
24.35902083046684
 20
0.35679379269793987
 10
24.36106175969919
 20
0.35815749831032395
 10
24.362883174581118
 20
0.3594071295434347
 10
24.36467337341877
 20
0.3607010841456303
 10
24.564883886959667
 20
0.509187343798749
 10
24.566641791577872
 20
0.5105248424756225
 10
24.568366342902703
 20
0.5119050794427344
 10
24.57026377805492
 20
0.5134622643931841
 10
24.57195393711666
 20
0.5148844081054542
 10
24.573608686000032
 20
0.5163476020520356
 10
24.758300940883405
 20
0.6837429126912858
 10
24.7599192829891
 20
0.6852462756506736
 10
24.761500243323567
 20
0.6867889019111627
 10
24.76323591107736
 20
0.6885245696734882
 10
24.76477853717902
 20
0.6901055298568816
 10
24.76628189998727
 20
0.6917238718039859
 10
24.93367721061717
 20
0.8764161266950187
 10
24.935140404705507
 20
0.8780708757428894
 10
24.936562548551375
 20
0.8797610349759885
 10
24.938119733492652
 20
0.8816584701358855
 10
24.93949997031776
 20
0.8833830212962488
 10
24.940837468860945
 20
0.8851409257433269
 10
25.089323728504706
 20
1.085351439291818
 10
25.090617683233315
 20
1.087141638309151
 10
25.091867314583947
 20
1.0889630533768588
 10
25.093231020186305
 20
1.091003982615988
 10
25.094435575310598
 20
1.0928555163966378
 10
25.09559432875722
 20
1.0947360537768287
 10
25.22374153499462
 20
1.308536691220746
 10
25.224853788882708
 20
1.3104450996271917
 10
25.225918873115365
 20
1.3123802293217361
 10
25.227075966161653
 20
1.3145449973955403
 10
25.228093239074315
 20
1.3165056825343386
 10
25.229062088008178
 20
1.3184907422653545
 10
25.335636114427572
 20
1.5438224886541156
 10
25.336555955873433
 20
1.5458307274526266
 10
25.337426235655474
 20
1.5478609354366353
 10
25.338365572717866
 20
1.5501286944653896
 10
25.339185766533944
 20
1.5521796485107955
 10
25.33995538041905
 20
1.554250113400659
 10
25.423929861914992
 20
1.788942903011648
 10
25.424648432351752
 20
1.791031631784814
 10
25.42531552642172
 20
1.793137366065831
 10
25.4260280611799
 20
1.7954862763122492
 10
25.426643276992284
 20
1.7976077474747847
 10
25.427206244033446
 20
1.7997436778340987
 10
25.487772461254313
 20
2.041537293072399
 10
25.488282840462226
 20
2.0436863962385843
 10
25.48874032434552
 20
2.045847377462775
 10
25.489219194707267
 20
2.0482548176595516
 10
25.48962350765786
 20
2.050426375034539
 10
25.489974406180625
 20
2.05260720070882
 10
25.526549073929562
 20
2.2991730392124405
 10
25.526846346683232
 20
2.301361819755677
 10
25.527089814564757
 20
2.3035572365150174
 10
25.527330408751478
 20
2.3060000217214722
 10
25.527519925089003
 20
2.308200752043654
 10
25.52765537575179
 20
2.3104054705089254
 10
25.539886260337724
 20
2.559368970846762
 10
25.539967564172866
 20
2.56157636723478
 10
25.539997693285056
 20
2.5628036819665088
 10
25.540024800006243
 20
2.5650124088309525
 10
25.540024800000218
 20
15.265012403921055
 10
25.53999769327903
 20
15.267221130785426
 10
25.53996756416684
 20
15.268448445517148
 10
25.539886260331482
 20
15.270655841909502
 10
25.527655375733556
 20
15.519619342245704
 10
25.527519925054648
 20
15.521824060928076
 10
25.527330408690357
 20
15.524024791466436
 10
25.527089814491642
 20
15.526467576672308
 10
25.526846346626037
 20
15.528662993214402
 10
25.52654907389891
 20
15.530851773541567
 10
25.489974406138007
 20
15.777417612043617
 10
25.48962350757765
 20
15.779598437933917
 10
25.489219194578887
 20
15.78176999552295
 10
25.488740324205004
 20
15.784177435718824
 10
25.488282840359116
 20
15.786338416726828
 10
25.48777246119914
 20
15.788487519679052
 10
25.427206243966904
 20
16.03028113491309
 10
25.42664327686717
 20
16.032417065483642
 10
25.426028060985885
 20
16.03453853685442
 10
25.425315526215996
 20
16.03688744709784
 10
25.424648432204428
 20
16.03899318116743
 10
25.423929861836328
 20
16.04108190973242
 10
25.339955380329272
 20
16.275774699338633
 10
25.3391857663651
 20
16.277845164433174
 10
25.338365572459956
 20
16.279896118679257
 10
25.337426235385998
 20
16.282163877704352
 10
25.336555955682872
 20
16.284194085483485
 10
25.335636114325833
 20
16.286202324081362
 10
25.22906208789541
 20
16.511534070465164
 10
25.228093238863163
 20
16.5135191303914
 10
25.227075965842587
 20
16.515479815720475
 10
25.225918872786266
 20
16.5176445837875
 10
25.22485378865187
 20
16.51957971328661
 10
25.22374153487144
 20
16.52148812150279
 10
25.095594328623324
 20
16.735288758941053
 10
25.09443557505975
 20
16.73716929650573
 10
25.093231019809522
 20
16.739020830465016
 10
25.091867314197557
 20
16.741061759696862
 10
25.09061768296378
 20
16.742883174579845
 10
25.089323728360867
 20
16.744673373418518
 10
24.940837468708295
 20
16.94488388695873
 10
24.93949997003104
 20
16.946641791577427
 10
24.938119733063523
 20
16.948366342902727
 10
24.936562548111986
 20
16.950263778056215
 10
24.93514040440009
 20
16.951953937117473
 10
24.93367721045391
 20
16.953608686000383
 10
24.766281899814576
 20
17.13830094088382
 10
24.76477853685551
 20
17.139919282989172
 10
24.763235910595355
 20
17.14150024332332
 10
24.761500242833918
 20
17.14323591107626
 10
24.759919282650213
 20
17.14477853717825
 10
24.758300940702778
 20
17.146281899986818
 10
24.57360868581122
 20
17.313677210617236
 10
24.57195393676234
 20
17.31514040470644
 10
24.570263777528197
 20
17.316562548553126
 10
24.56836634236771
 20
17.318119733494793
 10
24.566641791208347
 20
17.319499970319036
 10
24.56488388676231
 20
17.320837468861413
 10
24.364673373214593
 20
17.469323728504584
 10
24.362883174197915
 20
17.47061768323273
 10
24.361061759130884
 20
17.471867314582934
 10
24.359020829892025
 20
17.473231020185164
 10
24.357169296110726
 20
17.474435575309915
 10
24.355288758729863
 20
17.47559432875696
 10
24.14148812128564
 20
17.60374153499458
 10
24.139579712879115
 20
17.604853788882718
 10
24.137644583184485
 20
17.605918873115414
 10
24.135479815111243
 20
17.607075966161396
 10
24.13351912997253
 20
17.608093239074012
 10
24.131534070241603
 20
17.609062088007832
 10
23.906202323852572
 20
17.71563611442741
 10
23.904194085054094
 20
17.716555955873254
 10
23.902163877070123
 20
17.717426235655285
 10
23.899896118041667
 20
17.718365572717556
 10
23.89784516399622
 20
17.719185766533652
 10
23.895774699106315
 20
17.71995538041877
 10
23.661081909495014
 20
17.80392986191485
 10
23.658993180722362
 20
17.80464843235144
 10
23.65688744644187
 20
17.805315526421264
 10
23.654538536194806
 20
17.80602806117967
 10
23.652417065031756
 20
17.806643276992222
 10
23.65028113467192
 20
17.80720624403353
 10
23.40848751943465
 20
17.867772461254177
 10
23.406338416267854
 20
17.86828284046223
 10
23.404177435043042
 20
17.868740324345634
 10
23.401769994845413
 20
17.869219194707515
 10
23.399598437471035
 20
17.86962350765797
 10
23.39741761179737
 20
17.869974406180628
 10
23.150851773293642
 20
17.906549073929593
 10
23.148662992750197
 20
17.906846346683288
 10
23.14646757599065
 20
17.90708981456483
 10
23.144024790784222
 20
17.907330408751537
 10
23.14182406046225
 20
17.907519925089034
 10
23.139619341997186
 20
17.90765537575181
 10
22.890655841659818
 20
17.919886260337726
 10
22.88844844527243
 20
17.919967564172854
 10
22.887221130540766
 20
17.91999769328505
 10
22.885012403675702
 20
17.920024800006253
 10
2.5650124085854333
 20
17.920024800000235
 10
2.5628036817204745
 20
17.919997693279033
 10
2.561576366988781
 20
17.919967564166836
 10
2.559368970597005
 20
17.919886260331495
 10
2.310405470260305
 20
17.90765537573356
 10
2.3082007515773975
 20
17.90751992505461
 10
2.3060000210385008
 20
17.907330408690253
 10
2.303557235832927
 20
17.90708981449154
 10
2.30136181929137
 20
17.906846346625976
 10
2.2991730389647373
 20
17.906549073898915
 10
2.0526072004629143
 20
17.869974406138056
 10
2.050426374573828
 20
17.86962350757791
 10
2.0482548169859958
 20
17.869219194579415
 10
2.0458473767903844
 20
17.868740324205653
 10
2.043686395781163
 20
17.86828284035955
 10
2.0415372928277318
 20
17.867772461199305
 10
1.7997436775934597
 20
17.807206243966984
 10
1.7976077470227447
 20
17.806643276867206
 10
1.7954862756518095
 20
17.806028060985867
 10
1.793137365408539
 20
17.805315526216013
 10
1.7910316313391166
 20
17.804648432204495
 10
1.7889429027742956
 20
17.803929861836448
 10
1.554250113167371
 20
17.719955380329164
 10
1.55217964807369
 20
17.719185766365328
 10
1.5501286938284515
 20
17.718365572460556
 10
1.547860934804202
 20
17.717426235387002
 10
1.5458307270242082
 20
17.716555955683543
 10
1.5438224884254876
 20
17.71563611432613
 10
1.3184907420418992
 20
17.60906208789583
 10
1.3165056821157668
 20
17.60809323886363
 10
1.3145449967867935
 20
17.607075965843116
 10
1.312380228719036
 20
17.60591887278641
 10
1.3104450992198249
 20
17.604853788651962
 10
1.3085366910035445
 20
17.603741534871478
 10
1.094736053565731
 20
17.475594328623682
 10
1.092855516000242
 20
17.474435575059598
 10
1.0910039820401694
 20
17.473231019808814
 10
1.0889630528074066
 20
17.471867314196174
 10
1.0871416379252248
 20
17.470617682962903
 10
1.085351439087327
 20
17.469323728360536
 10
0.8851409255469147
 20
17.320837468707772
 10
0.8833830209288067
 20
17.319499970030975
 10
0.8816584696040729
 20
17.318119733063945
 10
0.8797610344514305
 20
17.316562548113154
 10
0.8780708753895927
 20
17.315140404400807
 10
0.8764161265061268
 20
17.31367721045415
 10
0.6917238716228247
 20
17.146281899814976
 10
0.6901055295171317
 20
17.144778536855586
 10
0.6885245691826624
 20
17.143235910595095
 10
0.6867889014291831
 20
17.141500242833082
 10
0.6852462753275279
 20
17.139919282649696
 10
0.68374291251928
 20
17.138300940702596
 10
0.5163476018888973
 20
16.953608685811087
 10
0.5148844077994829
 20
16.951953936761967
 10
0.5134622639525982
 20
16.950263777527567
 10
0.5119050790111227
 20
16.948366342367287
 10
0.5105248421870889
 20
16.946641791208165
 10
0.5091873436449095
 20
16.94488388676238
 10
0.36070108400185924
 20
16.74467337321482
 10
0.35940712927395546
 20
16.74288317419849
 10
0.358157497923981
 20
16.741061759131817
 10
0.3567937923214237
 20
16.73902082989251
 10
0.3555892371964274
 20
16.737169296110864
 10
0.35443048374915653
 20
16.73528875872964
 10
0.2262832775117416
 20
16.52148812128574
 10
0.2251710236236467
 20
16.519579712879285
 10
0.22410593939098714
 20
16.517644583184733
 10
0.22294884634496906
 20
16.515479815111433
 10
0.22193157343230924
 20
16.513519129972643
 10
0.22096272449845292
 20
16.511534070241638
 10
0.11438869807880228
 20
16.2862023238524
 10
0.11346885663295037
 20
16.284194085053908
 10
0.1125985768509136
 20
16.282163877069916
 10
0.11165923978847983
 20
16.279896118041062
 10
0.11083904597239279
 20
16.27784516399564
 10
0.11006943208728272
 20
16.275774699105757
 10
0.02609495059135382
 20
16.04108190949488
 10
0.0253763801547007
 20
16.03899318072204
 10
0.024709286084822216
 20
16.036887446441355
 10
0.023996751326543622
 20
16.034538536194674
 10
0.023381535514055835
 20
16.03241706503182
 10
0.02281856847280128
 20
16.03028113467218
 10
-0.037747648747894935
 20
15.788487519434781
 10
-0.03825802795591442
 20
15.786338416268128
 10
-0.038715511839293074
 20
15.784177435043464
 10
-0.0391943822011674
 20
15.781769994845913
 10
-0.03959869515165654
 20
15.779598437471387
 10
-0.03994959367434042
 20
15.777417611797572
 10
-0.07652426142330576
 20
15.530851773293866
 10
-0.07682153417698201
 20
15.528662992750569
 10
-0.07706500205851217
 20
15.526467575991166
 10
-0.07730559624524734
 20
15.524024790784534
 10
-0.07749511258276369
 20
15.52182406046241
 10
-0.0776305632455476
 20
15.519619341997199
 10
-0.08986144783147984
 20
15.270655841659348
 10
-0.08994275166662402
 20
15.268448445271343
 10
-0.08997288077881405
 20
15.267221130539621
 10
-0.08999998750000063
 20
15.265012403675165
 10
-0.08999998749397523
 20
2.5650124085853463
 10
-0.08997288125632691
 20
2.56280370141808
 10
-0.08995028504103822
 20
2.5621902094565305
  0
LWPOLYLINE
  5
30
330
17
100
AcDbEntity
  8
0
100
AcDbPolyline
 90
394
 70
0
 10
-0.10994425628301285
 20
2.561699381614656
 10
-0.10993672243396645
 20
2.561085518016449
 10
-0.10983735159313077
 20
2.558387609982226
 10
-0.09760646699523298
 20
2.3094241096460304
 10
-0.0974409161687461
 20
2.3067294535324057
 10
-0.09720928506142573
 20
2.304039671816919
 10
-0.09696869086266818
 20
2.30159688661094
 10
-0.09667111903299401
 20
2.298913599781082
 10
-0.09630778570726752
 20
2.2962384238804123
 10
-0.059733117946336636
 20
2.049672585378163
 10
-0.05930424193708159
 20
2.0470071315677827
 10
-0.058810081615618
 20
2.044353005680927
 10
-0.05833121124207656
 20
2.0419455654863743
 10
-0.057772064330323766
 20
2.03930436652825
 10
-0.0571482675914647
 20
2.0366776851935793
 10
0.0034179496410975813
 20
1.7948840699583621
 10
0.00410602052676301
 20
1.7922734882030382
 10
0.004857951033015201
 20
1.7896805788026353
 10
0.005570485802648267
 20
1.7873316685599971
 10
0.006385822911532835
 20
1.78475799363766
 10
0.007264075566037614
 20
1.7822051032205355
 10
0.09123855707357678
 20
1.5475123136129572
 10
0.0921791963438327
 20
1.5449817452159313
 10
0.09318165554066138
 20
1.54247502341097
 10
0.0941209926140375
 20
1.5402072643871896
 10
0.09518466778554042
 20
1.5377258993732026
 10
0.0963089183106397
 20
1.5352713855802236
 10
0.20288294474093427
 20
1.3099396391966422
 10
0.20406709353410085
 20
1.3075134548915692
 10
0.20531042720068393
 20
1.3051170617601984
 10
0.20646752025761594
 20
1.3029522936920075
 10
0.20776928972901426
 20
1.3005871354629006
 10
0.20912871098885216
 20
1.29825463657894
 10
0.33727591723639944
 20
1.0844539991415243
 10
0.33869217156424436
 20
1.0821555643851344
 10
0.340164405730285
 20
1.0798925784791105
 10
0.34152811134301725
 20
1.0778516492462624
 10
0.34305543837469377
 20
1.0756254755469075
 10
0.34463693841192217
 20
1.0734374547897767
 10
0.49312319806476373
 20
0.8732269412492295
 10
0.494757918636799
 20
0.8710783912037263
 10
0.49644487489584616
 20
0.8689706062937488
 10
0.49800205984661555
 20
0.8670731711411419
 10
0.49974023545984236
 20
0.8650074212185115
 10
0.5015285835806572
 20
0.8629849504019008
 10
0.6689238942198507
 20
0.6782926955185916
 10
0.6707613377993719
 20
0.6763147218742247
 10
0.6726467698570275
 20
0.6743824370604102
 10
0.6743824376187633
 20
0.6726467693071726
 10
0.6763147222487021
 20
0.6707613374428308
 10
0.6782926957000507
 20
0.6689238940472584
 10
0.8629849505915524
 20
0.5015285834168899
 10
0.8650074216106314
 20
0.49974023512159693
 10
0.8670731717441743
 20
0.49800205934393266
 10
0.8689706069045758
 20
0.4964448744023506
 10
0.8710783916121265
 20
0.49475791831808474
 10
0.8732269414470026
 20
0.4931231979105898
 10
1.0734374549947618
 20
0.34463693826737607
 10
1.0756254759708086
 20
0.34305543807612904
 10
1.0778516498965096
 20
0.34152811090126967
 10
1.0798925791357383
 20
0.34016440529878345
 10
1.082155564822858
 20
0.33869217128706697
 10
1.0844539993531759
 20
0.3372759171025347
 10
1.2982546367969012
 20
0.20912871086521923
 10
1.3005871359130514
 20
0.2077692894739971
 10
1.3029522943806595
 20
0.20646751988268858
 10
1.305117062454286
 20
0.20531042683648576
 10
1.3075134553534533
 20
0.2040670933015895
 10
1.3099396394202891
 20
0.20288294462848747
 10
1.535271385809235
 20
0.09630891820896473
 10
1.5377258998470367
 20
0.09518466757548552
 10
1.540207265111021
 20
0.09412099230768319
 10
1.5424750241398322
 20
0.09318165524528495
 10
1.5449817456999277
 20
0.09217919615713607
 10
1.5475123138472053
 20
0.09123855698335868
 10
1.7822051034581943
 20
0.007264075487394259
 10
1.7847579941287641
 20
0.006385822749299802
 10
1.7873316693084995
 20
0.005570485569314665
 10
1.7896805795553796
 20
0.004857950810965017
 10
1.792273488702265
 20
0.0041060203885970314
 10
1.79488407020042
 20
0.0034179495742354127
 10
2.036677685437705
 20
-0.057148267646411066
 10
2.039304367032676
 20
-0.057772064443588705
 10
2.0419455662538093
 20
-0.05833121140084947
 10
2.04435300645141
 20
-0.05881008176273801
 10
2.047007132077858
 20
-0.05930424202559542
 10
2.04967258562543
 20
-0.0597331179891165
 10
2.2962384241290295
 20
-0.09630778573807473
 10
2.2989136002948385
 20
-0.09667111909637176
 10
2.301596887391278
 20
-0.09696869094558355
 10
2.3040396725980314
 20
-0.09720928513231872
 10
2.3067294540482433
 20
-0.09744091620679333
 10
2.309424109895465
 20
-0.09760646701349847
 10
2.558387610232691
 20
-0.1098373515994094
 10
2.561085539096227
 20
-0.10993672295145161
 10
2.5623128538279487
 20
-0.10996685206364874
 10
2.565012408830587
 20
-0.10999998250000087
 10
22.885012403920843
 20
-0.10999998249398257
 10
22.88771195892342
 20
-0.10996685205763045
 10
22.88893927365514
 20
-0.10993672294543332
 10
22.89163720252398
 20
-0.10983735159313043
 10
23.14060070286058
 20
-0.09760646699519712
 10
23.143295358974406
 20
-0.09744091616869541
 10
23.14598514069009
 20
-0.09720928506135045
 10
23.148427925895977
 20
-0.0969686908625929
 10
23.151111212725635
 20
-0.09667111903293352
 10
23.153786388626102
 20
-0.0963077857072318
 10
23.400352227127755
 20
-0.05973311794638618
 10
23.403017680938284
 20
-0.05930424193710501
 10
23.40567180682529
 20
-0.05881008161560834
 10
23.408079247020986
 20
-0.05833121124183242
 10
23.41072044597896
 20
-0.057772064330105705
 10
23.41334712731348
 20
-0.0571482675912801
 10
23.655140742547538
 20
0.003417949640990861
 10
23.65775132430318
 20
0.004106020526744358
 10
23.6603442337039
 20
0.004857951033100494
 10
23.662693143946814
 20
0.005570485802833036
 10
23.665266818868826
 20
0.00638582291162737
 10
23.66781970928563
 20
0.007264075566025555
 10
23.90251249889301
 20
0.09123855707345814
 10
23.90504306728962
 20
0.09217919634355354
 10
23.907549789094173
 20
0.09318165554020057
 10
23.909817548118195
 20
0.09412099261365485
 10
23.912298913132606
 20
0.09518466778532202
 10
23.914753426926
 20
0.09630891831060542
 10
24.140085173309718
 20
0.20288294474097104
 10
24.14251135761461
 20
0.20406709353404717
 10
24.144907750745805
 20
0.20531042720053036
 10
24.147072518813363
 20
0.2064675202571142
 10
24.149437677042652
 20
0.2077692897286043
 10
24.15177017592679
 20
0.20912871098854294
 10
24.3655708133651
 20
0.3372759172366444
 10
24.367869248121238
 20
0.3386921715643296
 10
24.370132234027018
 20
0.3401644057301989
 10
24.37217316325937
 20
0.341528111342583
 10
24.374399336958977
 20
0.343055438374419
 10
24.37658735771635
 20
0.3446369384118195
 10
24.576797871257245
 20
0.4931231980649382
 10
24.57894642130276
 20
0.49475791863698193
 10
24.581054206212748
 20
0.4964448748960381
 10
24.582951641364964
 20
0.49800205984648777
 10
24.58501739128758
 20
0.49974023545970403
 10
24.587039862104177
 20
0.5015285835805077
 10
24.77173211698755
 20
0.668923894219758
 10
24.773710090632328
 20
0.6707613377996676
 10
24.77564237544653
 20
0.6726467698577313
 10
24.777378043200322
 20
0.6743824376200568
 10
24.77926347506426
 20
0.6763147222496124
 10
24.781100918459448
 20
0.6782926957005587
 10
24.948496229089347
 20
0.8629849505915915
 10
24.95028457738341
 20
0.8650074216092423
 10
24.952022753159913
 20
0.8670731717412976
 10
24.95357993810119
 20
0.8689706069011947
 10
24.955266894186682
 20
0.8710783916101685
 10
24.95690161459533
 20
0.8732269414465254
 10
25.105387874239092
 20
1.0734374549950163
 10
25.106969374431
 20
1.0756254759719994
 10
25.108496701606473
 20
1.0778516498986686
 10
25.10986040720883
 20
1.0798925791377978
 10
25.111332641219892
 20
1.0821555648239867
 10
25.112748895403815
 20
1.084453999353342
 10
25.240896101641216
 20
1.2982546367972592
 10
25.24225552303253
 20
1.3005871359135712
 10
25.24355729262392
 20
1.3029522943813452
 10
25.244714385670207
 20
1.3051170624551494
 10
25.245957719205013
 20
1.307513455354157
 10
25.24714186787803
 20
1.3099396394208294
 10
25.353715894297427
 20
1.5352713858095905
 10
25.354840144930765
 20
1.537725899847074
 10
25.355903820198442
 20
1.5402072651107332
 10
25.356843157260833
 20
1.5424750241394876
 10
25.35784561634912
 20
1.5449817456998987
 10
25.35878625552302
 20
1.5475123138474978
 10
25.442760737018965
 20
1.7822051034584867
 10
25.44363898975726
 20
1.7847579941296718
 10
25.44445432693742
 20
1.7873316693100323
 10
25.4451668616956
 20
1.7896805795564505
 10
25.445918792117766
 20
1.7922734887027234
 10
25.446606862931954
 20
1.7948840702002566
 10
25.50717308015282
 20
2.0366776854385575
 10
25.507796876949893
 20
2.0393043670330533
 10
25.50835602390707
 20
2.0419455662537063
 10
25.508834894268816
 20
2.044353006450483
 10
25.50932905453178
 20
2.0470071320774044
 10
25.509757930495383
 20
2.049672585625455
 10
25.54633259824432
 20
2.2962384241290756
 10
25.546695931602574
 20
2.298913600294543
 10
25.54699350345176
 20
2.30159688739064
 10
25.54723409763848
 20
2.304039672597095
 10
25.547465728712996
 20
2.306729454047645
 10
25.547631279519727
 20
2.309424109895206
 10
25.55986216410566
 20
2.558387610233043
 10
25.559961535457717
 20
2.561085539097227
 10
25.559991664569907
 20
2.562312853828956
 10
25.560024795006242
 20
2.5650124088309623
 10
25.560024795000217
 20
15.265012403921064
 10
25.55999166456388
 20
15.267711958922982
 10
25.55996153545169
 20
15.268939273654704
 10
25.55986216409937
 20
15.271637202524188
 10
25.547631279501445
 20
15.52060070286039
 10
25.547465728675014
 20
15.523295358973295
 10
25.54723409756778
 20
15.525985140688064
 10
25.546993503369066
 20
15.528427925893936
 10
25.54669593153934
 20
15.53111121272451
 10
25.546332598213525
 20
15.53378638862589
 10
25.509757930452622
 20
15.78035222712794
 10
25.50932905444307
 20
15.783017680940013
 10
25.508834894121232
 20
15.785671806828546
 10
25.50835602374735
 20
15.78807924702442
 10
25.507796876835894
 20
15.790720445980844
 10
25.507173080097413
 20
15.793347127313833
 10
25.446606862865178
 20
16.03514074254787
 10
25.445918791979402
 20
16.03775132430359
 10
25.445166861473023
 20
16.040344233704378
 10
25.444454326703134
 20
16.042693143947798
 10
25.443638989594355
 20
16.04526681886975
 10
25.442760736939977
 20
16.047819709286493
 10
25.35878625543292
 20
16.282512498892707
 10
25.357845616162383
 20
16.28504306729047
 10
25.356843156965233
 20
16.28754978909615
 10
25.355903819891275
 20
16.289817548121245
 10
25.354840144720054
 20
16.2922989131345
 10
25.353715894195272
 20
16.29475342692676
 10
25.24714186776485
 20
16.520085173310562
 10
25.24595771897158
 20
16.52251135761584
 10
25.244714385304885
 20
16.52490775074741
 10
25.243557292248564
 20
16.527072518814435
 10
25.242255522777263
 20
16.529437677043344
 10
25.240896101517535
 20
16.53177017592711
 10
25.11274889526942
 20
16.745570813365372
 10
25.111332640942557
 20
16.74786924812021
 10
25.109860406777575
 20
16.750132234024733
 10
25.10849670116561
 20
16.75217316325658
 10
25.10696937413296
 20
16.754399336957473
 10
25.10538787409468
 20
16.756587357716093
 10
24.95690161444211
 20
16.956797871256306
 10
24.9552668938696
 20
16.958946421302418
 10
24.953579937610048
 20
16.961054206212978
 10
24.95202275265851
 20
16.962951641366466
 10
24.950284577045753
 20
16.965017391288495
 10
24.94849622892544
 20
16.967039862104528
 10
24.781100918286104
 20
17.151732116987965
 10
24.779263474706582
 20
17.15371009063233
 10
24.77737804264893
 20
17.155642375446142
 10
24.775642374887493
 20
17.15737804319908
 10
24.773710090257556
 20
17.159263475063423
 10
24.771732116806206
 20
17.161100918458995
 10
24.587039861914647
 20
17.328496229089414
 10
24.585017390895768
 20
17.330284577384532
 10
24.582951640762435
 20
17.332022753162033
 10
24.581054205601948
 20
17.3335799381037
 10
24.578946420894194
 20
17.33526689418814
 10
24.57679787105911
 20
17.3369016145958
 10
24.376587357511394
 20
17.48538787423897
 10
24.374399336535213
 20
17.486969374430313
 10
24.37217316260937
 20
17.48849670160526
 10
24.370132233370512
 20
17.48986040720749
 10
24.36786924768353
 20
17.49133264121911
 10
24.365570813153354
 20
17.492748895403555
 10
24.15177017570913
 20
17.620896101641176
 10
24.14943767659272
 20
17.622255523032546
 10
24.14707251812484
 20
17.62355729262399
 10
24.144907750051598
 20
17.62471438566997
 10
24.142511357152696
 20
17.625957719204717
 10
24.14008517308613
 20
17.627141867877683
 10
23.9147534266971
 20
17.733715894297262
 10
23.91229891265966
 20
17.734840144930583
 10
23.909817547396045
 20
17.735903820198242
 10
23.90754978836759
 20
17.736843157260513
 10
23.905043066807128
 20
17.737845616348825
 10
23.90251249865948
 20
17.738786255522744
 10
23.667819709048178
 20
17.82276073701882
 10
23.665266818377624
 20
17.823638989756912
 10
23.662693143197902
 20
17.82445432693689
 10
23.660344232950838
 20
17.825166861695298
 10
23.65775132380394
 20
17.825918792117672
 10
23.65514074230577
 20
17.82660686293204
 10
23.413347127068498
 20
17.887173080152685
 10
23.410720445473252
 20
17.887796876949924
 10
23.40807924625184
 20
17.88835602390723
 10
23.40567180605421
 20
17.888834894269113
 10
23.403017680428036
 20
17.88932905453191
 10
23.400352226880738
 20
17.889757930495385
 10
23.15378638837701
 20
17.92633259824435
 10
23.151111212211287
 20
17.926695931602634
 10
23.148427925114934
 20
17.92699350345184
 10
23.145985139908507
 20
17.927234097638546
 10
23.14329535845821
 20
17.92746572871303
 10
23.140600702610907
 20
17.927631279519744
 10
22.89163720227354
 20
17.939862164105662
 10
22.888939273410127
 20
17.9399615354577
 10
22.887711958678462
 20
17.9399916645699
 10
22.8850124036757
 20
17.940024795006252
 10
2.5650124085854276
 20
17.940024795000234
 10
2.562312853582792
 20
17.93999166456388
 10
2.5610855388510987
 20
17.939961535451683
 10
2.5583876099823204
 20
17.939862164099385
 10
2.3094241096456205
 20
17.92763127950145
 10
2.3067294535320593
 20
17.927465728674967
 10
2.3040396718166356
 20
17.927234097567656
 10
2.301596886611062
 20
17.92699350336894
 10
2.2989135997811445
 20
17.92669593153926
 10
2.296238423880416
 20
17.926332598213527
 10
2.049672585378593
 20
17.889757930452667
 10
2.047007131568001
 20
17.889329054443376
 10
2.0443530056809363
 20
17.888834894121864
 10
2.041945565485325
 20
17.888356023748102
 10
2.039304366527411
 20
17.887796876836386
 10
2.0366776851929487
 20
17.887173080097575
 10
1.7948840699586768
 20
17.826606862865255
 10
1.7922734882027642
 20
17.825918791979426
 10
1.7896805788017809
 20
17.825166861472983
 10
1.7873316685585103
 20
17.82445432670313
 10
1.7847579936367657
 20
17.823638989594407
 10
1.7822051032202244
 20
17.822760736940097
 10
1.5475123136132998
 20
17.738786255432814
 10
1.5449817452165904
 20
17.73784561616268
 10
1.5424750234119395
 20
17.73684315696599
 10
1.54020726438769
 20
17.735903819892435
 10
1.5377258993733813
 20
17.73484014472081
 10
1.5352713855800872
 20
17.73371589419557
 10
1.3099396391964988
 20
17.627141867765268
 10
1.3075134548913505
 20
17.625957718972064
 10
1.3051170617599064
 20
17.624714385305438
 10
1.302952293692149
 20
17.623557292248734
 10
1.3005871354631164
 20
17.622255522777373
 10
1.298254636579228
 20
17.620896101517577
 10
1.0844539991414144
 20
17.49274889526978
 10
1.0821555643855834
 20
17.49133264094229
 10
1.0798925784801006
 20
17.48986040677663
 10
1.0778516492473378
 20
17.48849670116399
 10
1.0756254755474222
 20
17.486969374131956
 10
1.0734374547897492
 20
17.485387874094346
 10
0.873226941249337
 20
17.336901614441583
 10
0.8710783912039441
 20
17.335266893869633
 10
0.8689706062940724
 20
17.33357993761068
 10
0.86707317114143
 20
17.33202275265989
 10
0.8650074212186946
 20
17.33028457704658
 10
0.8629849504019826
 20
17.328496228925676
 10
0.6782926955186805
 20
17.161100918286504
 10
0.6763147218739038
 20
17.159263474706595
 10
0.6743824370596995
 20
17.157378042648528
 10
0.6726467693062202
 20
17.155642374886515
 10
0.6707613374422875
 20
17.153710090256965
 10
0.6689238940471037
 20
17.151732116806027
 10
0.501528583416721
 20
16.967039861914518
 10
0.4997402351213434
 20
16.96501739089534
 10
0.49800205934359837
 20
16.962951640761695
 10
0.49644487440212287
 20
16.961054205601414
 10
0.4947579183179396
 20
16.95894642089396
 10
0.49312319791052245
 20
16.95679787105918
 10
0.34463693826747216
 20
16.75658735751162
 10
0.3430554380764286
 20
16.75439933653586
 10
0.34152811090175894
 20
16.75217316261046
 10
0.34016440529920167
 20
16.750132233371154
 10
0.338692171287282
 20
16.747869247683745
 10
0.3372759171025617
 20
16.74557081315313
 10
0.20912871086514678
 20
16.531770175709227
 10
0.20776928947382764
 20
16.529437676592906
 10
0.20646751988243056
 20
16.527072518125124
 10
0.20531042683641249
 20
16.524907750051824
 10
0.20406709330161343
 20
16.522511357152826
 10
0.20288294462859946
 20
16.520085173086166
 10
0.09630891820894882
 20
16.29475342669693
 10
0.0951846675756207
 20
16.29229891265947
 10
0.09412099230795207
 20
16.28981754739583
 10
0.0931816552455183
 20
16.287549788366977
 10
0.09217919615722006
 20
16.285043066806544
 10
0.09123855698330968
 20
16.28251249865892
 10
0.007264075487380783
 20
16.047819709048046
 10
0.006385822749214148
 20
16.045266818377257
 10
0.005570485569167213
 20
16.0426931431973
 10
0.00485795081088862
 20
16.04034423295062
 10
0.004106020388594173
 20
16.037751323803956
 10
0.0034179495742944765
 20
16.035140742306027
 10
-0.05714826764640174
 20
15.793347127068628
 10
-0.05777206444360124
 20
15.79072044547356
 10
-0.05833121140087938
 20
15.788079246252329
 10
-0.05881008176275371
 20
15.785671806054777
 10
-0.05930424202559059
 20
15.78301768042842
 10
-0.05973311798909575
 20
15.78035222688094
 10
-0.09630778573806109
 20
15.533786388377234
 10
-0.09667111909632535
 20
15.53111121221169
 10
-0.09696869094551733
 20
15.528427925115516
 10
-0.0972092851322525
 20
15.525985139908883
 10
-0.09744091620675976
 20
15.523295358458407
 10
-0.09760646701348448
 20
15.520600702610919
 10
-0.10983735159941672
 20
15.271637202273068
 10
-0.10993672295147433
 20
15.268939273408899
 10
-0.10996685206366436
 20
15.267711958677177
 10
-0.10999998250000087
 20
15.265012403675156
 10
-0.10999998249397547
 20
2.5650124085853365
 10
-0.10996685264863014
 20
2.562312877657658
 10
-0.10994425628301285
 20
2.561699381614656
  0
LWPOLYLINE
  5
31
330
17
100
AcDbEntity
  8
0
100
AcDbPolyline
 90
394
 70
0
 10
-0.12993822752498752
 20
2.561208553772781
 10
-0.12993069362581997
 20
2.560594686090667
 10
-0.12981325536102029
 20
2.557406249367542
 10
-0.1175823707631225
 20
2.3084427490313466
 10
-0.11738671978910167
 20
2.3052581554870573
 10
-0.11711297393882439
 20
2.302079322595032
 10
-0.11687237974006684
 20
2.2996365373890533
 10
-0.11652070394627956
 20
2.2964653802708455
 10
-0.11609131002188103
 20
2.29330380879609
 10
-0.07951664226095015
 20
2.0467379702938406
 10
-0.07900978880255577
 20
2.043587888561994
 10
-0.0784257811580849
 20
2.0404511943759434
 10
-0.07794691078454347
 20
2.0380437541813907
 10
-0.07728610080716863
 20
2.034922337274536
 10
-0.07654888648973679
 20
2.0318180775587957
 10
-0.01598266925717451
 20
1.7900244623235788
 10
-0.015169494585488441
 20
1.7869392293831643
 10
-0.014280849454164482
 20
1.783874881952819
 10
-0.013568314684531416
 20
1.7815259717101808
 10
-0.012604734478417173
 20
1.7784843559354133
 10
-0.011566799537609931
 20
1.7754673036664628
 10
0.07240768196992924
 20
1.5407745140588844
 10
0.0735193465465021
 20
1.5377838423587722
 10
0.07470407103527552
 20
1.5348213529943426
 10
0.07564340810865164
 20
1.5325535939705621
 10
0.07690047874830097
 20
1.5296210717223189
 10
0.07822913844119929
 20
1.5267202827348232
 10
0.18480316487149384
 20
1.3013885363512419
 10
0.1862026134256635
 20
1.298521227667167
 10
0.18767200773834702
 20
1.2956891267333386
 10
0.18882910079527904
 20
1.2935243586651477
 10
0.19036755560359658
 20
1.2907291717062057
 10
0.1919741443427534
 20
1.2879725821546242
 10
0.32012135059030067
 20
1.0741719447172084
 10
0.3217951056816174
 20
1.0714556127703747
 10
0.3235350187626036
 20
1.068781174918842
 10
0.32489872437533585
 20
1.066740245685994
 10
0.3267037472057085
 20
1.0641093131690074
 10
0.3285727926781106
 20
1.0615234704922
 10
0.4770590523309522
 20
0.861312956951653
 10
0.47899099479815554
 20
0.8587737614788442
 10
0.4809846703491459
 20
0.8562827429837102
 10
0.4825418552999153
 20
0.8543853078311033
 10
0.4845960628140895
 20
0.8519439670475938
 10
0.4867095651091294
 20
0.8495537742977559
 10
0.6541048757483228
 20
0.6648615194144467
 10
0.6562763999482951
 20
0.6625239142310705
 10
0.6585046378034514
 20
0.660240304937592
 10
0.6602403055651871
 20
0.6585046371843544
 10
0.662523914641358
 20
0.6562763995576602
 10
0.6648615195966217
 20
0.6541048755750818
 10
0.8495537744881234
 20
0.4867095649447133
 10
0.851943967477242
 20
0.484596062443472
 10
0.8543853085100117
 20
0.4825418547349626
 10
0.8562827436704132
 20
0.4809846697933805
 10
0.8587737619263156
 20
0.4789909944489499
 10
0.8613129571502013
 20
0.4770590521762033
 10
1.0615234706979606
 20
0.3285727925329896
 10
1.0641093136334865
 20
0.32670374687856535
 10
1.0667402464179732
 20
0.32489872387897667
 10
1.0687811756572019
 20
0.32353501827649045
 10
1.0714556132500295
 20
0.3217951053778873
 10
1.0741719449296874
 20
0.3201213504559401
 10
1.2879725823734127
 20
0.19197414421862463
 10
1.2907291721994
 20
0.1903675553241955
 10
1.293524359440207
 20
0.18882910037416598
 10
1.2956891275138336
 20
0.18767200732796316
 10
1.2985212281732397
 20
0.18620261317090953
 10
1.3013885365757614
 20
0.1848031647586343
 10
1.5267202829647073
 20
0.07822913833911155
 10
1.5296210722415389
 20
0.07690047851812788
 10
1.5325535947852336
 20
0.07564340776467017
 10
1.5348213538140447
 20
0.07470407070227193
 10
1.5377838428890878
 20
0.0735193463419383
 10
1.5407745142940426
 20
0.07240768187938551
 10
1.7754673039050315
 20
-0.011566799616578916
 10
1.7784843564735084
 20
-0.012604734656173955
 10
1.781525972552474
 20
-0.013568314946316135
 10
1.783874882799354
 20
-0.014280849704665782
 10
1.786939229930088
 20
-0.015169494736853889
 10
1.7900244625665755
 20
-0.01598266932427181
 10
2.03181807780386
 20
-0.07654888654491829
 10
2.034922337827228
 20
-0.07728610093127203
 10
2.038043755044911
 20
-0.07794691096242906
 10
2.040451195242512
 20
-0.0784257813243176
 10
2.0435878891208077
 20
-0.07900978889952659
 10
2.0467379705420634
 20
-0.07951664230387179
 10
2.2933038090456628
 20
-0.11609131005283002
 10
2.296465380833765
 20
-0.11652070401572098
 10
2.299636538267024
 20
-0.11687237983259818
 10
2.302079323473777
 20
-0.11711297401933335
 10
2.3052581560522953
 20
-0.11738671983079291
 10
2.3084427492817445
 20
-0.11758237078143535
 10
2.5574062496189702
 20
-0.12981325536734628
 10
2.560594710958556
 20
-0.1299306942362991
 10
2.5618220256902777
 20
-0.12996082334849623
 10
2.5650124088305932
 20
-0.12999997750000114
 10
22.88501240392085
 20
-0.12999997749398284
 10
22.88820278706109
 20
-0.12996082334247794
 10
22.88943010179281
 20
-0.1299306942302808
 10
22.892618563138665
 20
-0.1298132553610199
 10
23.141582063475266
 20
-0.11758237076308659
 10
23.14476665701979
 20
-0.11738671978904824
 10
23.14794548991205
 20
-0.1171129739387419
 10
23.150388275117937
 20
-0.11687237973998435
 10
23.153559432235905
 20
-0.11652070394621464
 10
23.156721003710423
 20
-0.11609131002184525
 10
23.403286842212076
 20
-0.07951664226099964
 10
23.4064369239441
 20
-0.07900978880257487
 10
23.409573618130324
 20
-0.07842578115806442
 10
23.41198105832602
 20
-0.0779469107842885
 10
23.415102475232697
 20
-0.07728610080694467
 10
23.418206734948264
 20
-0.07654888648955221
 10
23.660000350182322
 20
-0.015982669257281257
 10
23.663085583123113
 20
-0.015169494585491106
 10
23.66614993055383
 20
-0.014280849454044273
 10
23.668498840796744
 20
-0.01356831468431173
 10
23.67154045657113
 20
-0.012604734478304527
 10
23.6745575088397
 20
-0.011566799537622907
 10
23.90925029844708
 20
0.07240768196980968
 10
23.9122409701467
 20
0.07351934654619256
 10
23.915203459510646
 20
0.0747040710347516
 10
23.91747121853467
 20
0.07564340810820588
 10
23.920403740783414
 20
0.07690047874804862
 10
23.9233045297714
 20
0.0782291384411652
 10
24.148636276155116
 20
0.1848031648715308
 10
24.15150358483898
 20
0.1862026134255932
 10
24.1543356857726
 20
0.18767200773815906
 10
24.15650045384016
 20
0.1888291007947429
 10
24.159295640799318
 20
0.19036755560316962
 10
24.162052230351108
 20
0.1919741443424448
 10
24.37585286778942
 20
0.3201213505905463
 10
24.378569199735953
 20
0.32179510568167474
 10
24.381243637587197
 20
0.323535018762458
 10
24.383284566819547
 20
0.3248987243748421
 10
24.385915499336832
 20
0.3267037472054033
 10
24.388501342013928
 20
0.32857279267800876
 10
24.588711855554823
 20
0.47705905233112744
 10
24.591251051027644
 20
0.4789909947983406
 10
24.59374206952279
 20
0.4809846703493417
 10
24.595639504675006
 20
0.4825418552997914
 10
24.5980808454585
 20
0.48459606281395284
 10
24.600471038208322
 20
0.4867095651089799
 10
24.785163293091696
 20
0.6541048757482302
 10
24.787500898275553
 20
0.6562763999486615
 10
24.789784507569493
 20
0.6585046378042998
 10
24.791520175323285
 20
0.6602403055666253
 10
24.7937484129495
 20
0.6625239146423441
 10
24.79591993693163
 20
0.6648615195971316
 10
24.96331524756153
 20
0.8495537744881644
 10
24.965428750061314
 20
0.851943967475596
 10
24.96748295776845
 20
0.8543853085066068
 10
24.969040142709726
 20
0.8562827436665038
 10
24.971033818055606
 20
0.8587737619240883
 10
24.972965760329718
 20
0.8613129571497238
 10
25.12145201997348
 20
1.0615234706982148
 10
25.123321065628684
 20
1.064109313634847
 10
25.125126088628996
 20
1.0667402464204783
 10
25.126489794231354
 20
1.0687811756596075
 10
25.128229707129183
 20
1.0714556132513338
 10
25.129903462050407
 20
1.074171944929855
 10
25.258050668287808
 20
1.2879725823737722
 10
25.259657257182347
 20
1.2907291721999508
 10
25.261195712132476
 20
1.293524359440954
 10
25.262352805178764
 20
1.2956891275147582
 10
25.26382219933571
 20
1.2985212281739762
 10
25.265221647747886
 20
1.3013885365763045
 10
25.37179567416728
 20
1.5267202829650657
 10
25.3731243339881
 20
1.5296210722415207
 10
25.374381404741406
 20
1.5325535947848314
 10
25.375320741803797
 20
1.5348213538135858
 10
25.376505466164296
 20
1.5377838428890014
 10
25.377617130626994
 20
1.5407745142943368
 10
25.461591612122938
 20
1.7754673039053257
 10
25.462629547162773
 20
1.7784843564745294
 10
25.46359312745312
 20
1.7815259725542338
 10
25.4643056622113
 20
1.783874882800652
 10
25.465194307243248
 20
1.786939229930662
 10
25.466007481830463
 20
1.7900244625664148
 10
25.52657369905133
 20
2.0318180778047155
 10
25.527310913437557
 20
2.034922337827522
 10
25.527971723468614
 20
2.038043755044637
 10
25.52845059383036
 20
2.0404511952414137
 10
25.529034601405694
 20
2.043587889120269
 10
25.529541454810136
 20
2.04673797054209
 10
25.566116122559073
 20
2.2933038090457107
 10
25.566545516521916
 20
2.2964653808334092
 10
25.56689719233876
 20
2.2996365382662627
 10
25.567137786525482
 20
2.3020793234727175
 10
25.56741153233699
 20
2.3052581560516354
 10
25.567607183287663
 20
2.3084427492814865
 10
25.579838067873595
 20
2.5574062496193233
 10
25.579955506742568
 20
2.5605947109596747
 10
25.579985635854758
 20
2.5618220256914035
 10
25.580024790006245
 20
2.5650124088309716
 10
25.58002479000022
 20
15.265012403921075
 10
25.579985635848733
 20
15.268202787060538
 10
25.579955506736543
 20
15.26943010179226
 10
25.57983806786726
 20
15.272618563138874
 10
25.567607183269335
 20
15.521582063475076
 10
25.567411532295377
 20
15.524766657018514
 10
25.567137786445205
 20
15.52794548990969
 10
25.56689719224649
 20
15.530388275115563
 10
25.56654551645264
 20
15.533559432234616
 10
25.566116122528136
 20
15.536721003710213
 10
25.529541454767234
 20
15.783286842212263
 10
25.529034601308496
 20
15.78643692394611
 10
25.528450593663578
 20
15.789573618134142
 10
25.527971723289696
 20
15.791981058330016
 10
25.527310913312668
 20
15.795102475234863
 10
25.526573698995684
 20
15.798206734948614
 10
25.466007481763448
 20
16.040000350182652
 10
25.465194307091636
 20
16.04308558312353
 10
25.46430566196016
 20
16.046149930554332
 10
25.463593127190272
 20
16.048498840797752
 10
25.462629546984285
 20
16.051540456572063
 10
25.461591612043623
 20
16.054557508840567
 10
25.377617130536567
 20
16.28925029844678
 10
25.37650546595966
 20
16.292240970147763
 10
25.37532074147051
 20
16.295203459513043
 10
25.37438140439655
 20
16.29747121853814
 10
25.373124333757236
 20
16.300403740785516
 10
25.37179567406471
 20
16.303304529772163
 10
25.265221647634288
 20
16.528636276155964
 10
25.26382219908
 20
16.53150358484028
 10
25.262352804767183
 20
16.534335685774344
 10
25.26119571171086
 20
16.53650045384137
 10
25.25965725690266
 20
16.539295640800077
 10
25.25805066816363
 20
16.54205223035143
 10
25.129903461915514
 20
16.75585286778969
 10
25.12822970682536
 20
16.758569199734694
 10
25.126489793745623
 20
16.76124363758445
 10
25.12512608813366
 20
16.763284566816296
 10
25.123321065302132
 20
16.7659154993351
 10
25.121452019828492
 20
16.768501342013668
 10
24.97296576017592
 20
16.96871185555388
 10
24.971033817708157
 20
16.97125105102741
 10
24.969040142156572
 20
16.973742069523233
 10
24.967482957205036
 20
16.97563950467672
 10
24.965428749691416
 20
16.97808084545952
 10
24.963315247396963
 20
16.980471038208673
 10
24.795919936757628
 20
17.16516329309211
 10
24.79374841255766
 20
17.167500898275485
 10
24.79152017470251
 20
17.16978450756896
 10
24.78978450694107
 20
17.1715201753219
 10
24.7875008978649
 20
17.17374841294859
 10
24.785163292909633
 20
17.17591993693117
 10
24.600471038018075
 20
17.343315247561588
 10
24.598080845029195
 20
17.345428750062627
 10
24.595639503996672
 20
17.347482957770943
 10
24.593742068836185
 20
17.34904014271261
 10
24.591251050580045
 20
17.351033818057246
 10
24.58871185535591
 20
17.352965760330186
 10
24.388501341808194
 20
17.501452019973357
 10
24.38591549887251
 20
17.503321065627894
 10
24.38328456608786
 20
17.505126088627588
 10
24.381243636849
 20
17.506489794229818
 10
24.378569199256333
 20
17.508229707128304
 10
24.375852867576842
 20
17.509903462050147
 10
24.16205223013262
 20
17.638050668287768
 10
24.159295640306322
 20
17.63965725718237
 10
24.1565004530652
 20
17.641195712132564
 10
24.154335684991956
 20
17.642352805178547
 10
24.15150358433286
 20
17.64382219933542
 10
24.14863627593066
 20
17.645221647747537
 10
23.92330452954163
 20
17.751795674167116
 10
23.920403740265222
 20
17.75312433398791
 10
23.917471217721964
 20
17.7543814047412
 10
23.915203458693508
 20
17.75532074180347
 10
23.912240969618036
 20
17.756505466163997
 10
23.90925029821264
 20
17.757617130626716
 10
23.67455750860134
 20
17.841591612122794
 10
23.671540456032883
 20
17.842629547162385
 10
23.668498839953937
 20
17.84359312745252
 10
23.666149929706872
 20
17.844305662210928
 10
23.66308558257612
 20
17.845194307243123
 10
23.66000034993961
 20
17.846007481830544
 10
23.41820673470234
 20
17.90657369905119
 10
23.41510247467865
 20
17.90731091343762
 10
23.41198105746064
 20
17.907971723468833
 10
23.40957361726301
 20
17.908450593830715
 10
23.406436923385037
 20
17.90903460140585
 10
23.403286841964103
 20
17.90954145481014
 10
23.156721003460376
 20
17.946116122559104
 10
23.153559431672377
 20
17.946545516521983
 10
23.15038827423922
 20
17.946897192338852
 10
23.147945489032793
 20
17.94713778652556
 10
23.144766656454173
 20
17.947411532337032
 10
23.141582063224625
 20
17.94760718328768
 10
22.892618562887257
 20
17.959838067873598
 10
22.88943010154782
 20
17.95995550674255
 10
22.888202786816155
 20
17.959985635854746
 10
22.88501240367569
 20
17.960024790006255
 10
2.5650124085854213
 20
17.960024790000237
 10
2.5618220254451094
 20
17.959985635848728
 10
2.560594710713416
 20
17.95995550673653
 10
2.5574062493676357
 20
17.959838067867274
 10
2.308442749030936
 20
17.94760718326934
 10
2.3052581554867215
 20
17.947411532295323
 10
2.302079322594771
 20
17.947137786445055
 10
2.299636537389197
 20
17.94689719224634
 10
2.296465380270919
 20
17.94654551645255
 10
2.293303808796094
 20
17.946116122528142
 10
2.046737970294271
 20
17.909541454767282
 10
2.0435878885621745
 20
17.909034601308843
 10
2.0404511943758767
 20
17.908450593664316
 10
2.0380437541802654
 20
17.907971723290554
 10
2.0349223372736596
 20
17.907310913313225
 10
2.031818077558166
 20
17.906573698995846
 10
1.790024462323894
 20
17.846007481763525
 10
1.7869392293827837
 20
17.84519430709165
 10
1.7838748819517525
 20
17.8443056619601
 10
1.781525971708482
 20
17.843593127190246
 10
1.778484355934415
 20
17.842629546984323
 10
1.7754673036661532
 20
17.841591612043747
 10
1.5407745140592286
 20
17.757617130536463
 10
1.5377838423594907
 20
17.756505465960032
 10
1.5348213529954275
 20
17.755320741471422
 10
1.532553593971178
 20
17.75438140439787
 10
1.529621071722555
 20
17.753124333758073
 10
1.5267202827346866
 20
17.75179567406501
 10
1.3013885363510982
 20
17.64522164763471
 10
1.2985212276669347
 20
17.643822199080493
 10
1.2956891267330193
 20
17.64235280476776
 10
1.2935243586652618
 20
17.641195711711056
 10
1.290729171706408
 20
17.639657256902783
 10
1.2879725821549117
 20
17.638050668163675
 10
1.074171944717098
 20
17.50990346191588
 10
1.0714556127709247
 20
17.50822970682498
 10
1.0687811749200316
 20
17.506489793744443
 10
1.0667402456872688
 20
17.505126088131803
 10
1.0641093131696193
 20
17.503321065301012
 10
1.0615234704921714
 20
17.501452019828157
 10
0.8613129569517592
 20
17.352965760175394
 10
0.8587737614790808
 20
17.35103381770829
 10
0.856282742984072
 20
17.34904014215741
 10
0.8543853078314296
 20
17.34748295720662
 10
0.8519439670477954
 20
17.34542874969235
 10
0.8495537742978383
 20
17.343315247397204
 10
0.6648615194145362
 20
17.17591993675803
 10
0.662523914230676
 20
17.1737484125576
 10
0.6602403049367365
 20
17.17152017470196
 10
0.6585046371832572
 20
17.169784506939948
 10
0.6562763995570462
 20
17.167500897864237
 10
0.6541048755749275
 20
17.165163292909455
 10
0.48670956494454476
 20
16.980471038017946
 10
0.48459606244320225
 20
16.97808084502871
 10
0.48254185473459854
 20
16.97563950399582
 10
0.48098466979312304
 20
16.973742068835538
 10
0.47899099444878934
 20
16.97125105057975
 10
0.47705905217613537
 20
16.96871185535598
 10
0.3285727925330851
 20
16.76850134180842
 10
0.3267037468789017
 20
16.765915498873238
 10
0.32489872387953683
 20
16.763284566089105
 10
0.32353501827697956
 20
16.761243636849798
 10
0.32179510537813666
 20
16.758569199256627
 10
0.3201213504559669
 20
16.755852867576618
 10
0.19197414421855197
 20
16.542052230132715
 10
0.19036755532400773
 20
16.539295640306527
 10
0.18882910037387396
 20
16.53650045306551
 10
0.18767200732785588
 20
16.53433568499221
 10
0.1862026131709169
 20
16.53150358433301
 10
0.184803164758746
 20
16.528636275930694
 10
0.07822913833909537
 20
16.303304529541457
 10
0.07690047851829034
 20
16.300403740265025
 10
0.07564340776499053
 20
16.297471217721743
 10
0.07470407070255676
 20
16.29520345869289
 10
0.07351934634204672
 20
16.292240969617446
 10
0.07240768187933662
 20
16.289250298212085
 10
-0.01156679961659228
 20
16.05455750860121
 10
-0.012604734656272445
 20
16.051540456032473
 10
-0.013568314946487817
 20
16.048498839953247
 10
-0.01428084970476641
 20
16.046149929706566
 10
-0.015169494736867517
 20
16.043085582576094
 10
-0.015982669324212356
 20
16.040000349939874
 10
-0.07654888654490857
 20
15.798206734702473
 10
-0.07728610093128829
 20
15.795102474678991
 10
-0.07794691096246573
 20
15.791981057461193
 10
-0.07842578132434005
 20
15.789573617263642
 10
-0.07900978889952481
 20
15.786436923385454
 10
-0.07951664230385114
 20
15.783286841964305
 10
-0.11609131005281648
 20
15.536721003460599
 10
-0.11652070401566869
 20
15.53355943167281
 10
-0.1168723798325225
 20
15.530388274239867
 10
-0.11711297401925766
 20
15.527945489033234
 10
-0.1173867198307558
 20
15.524766656454402
 10
-0.11758237078142136
 20
15.521582063224638
 10
-0.1298132553673536
 20
15.272618562886787
 10
-0.12993069423632467
 20
15.269430101546455
 10
-0.1299608233485147
 20
15.268202786814733
 10
-0.12999997750000114
 20
15.265012403675145
 10
-0.12999997749397574
 20
2.565012408585327
 10
-0.12996082404093343
 20
2.5618220538972367
 10
-0.12993822752498752
 20
2.561208553772781
  0
LWPOLYLINE
  5
32
330
17
100
AcDbEntity
  8
0
100
AcDbPolyline
 90
394
 70
0
 10
-0.1499321987669622
 20
2.5607177259309077
 10
-0.1499246648176735
 20
2.560103854164885
 10
-0.14978915912890983
 20
2.5564248887528582
 10
-0.13755827453101205
 20
2.307461388416663
 10
-0.13733252340945726
 20
2.3037868574417084
 10
-0.13701666281622307
 20
2.300118973373145
 10
-0.13677606861746552
 20
2.2976761881671663
 10
-0.1363702888595651
 20
2.2940171607606086
 10
-0.13587483433649453
 20
2.2903691937117676
 10
-0.09930016657556365
 20
2.0438033552095183
 10
-0.09871533566802992
 20
2.0401686455562045
 10
-0.09804148070055183
 20
2.0365493830709593
 10
-0.09756261032701039
 20
2.0341419428764067
 10
-0.09680013728401346
 20
2.0305403080208224
 10
-0.0959495053880089
 20
2.0269584699240126
 10
-0.03538328815544661
 20
1.7851648546887957
 10
-0.03444500969773992
 20
1.7816049705632906
 10
-0.03341964994134414
 20
1.7780691851030026
 10
-0.03270711517171107
 20
1.7757202748603644
 10
-0.03159529186836721
 20
1.7722107182331668
 10
-0.030397674641257477
 20
1.76872950411239
 10
0.05357680686628169
 20
1.5340367145048117
 10
0.05485949674917151
 20
1.5305859395016133
 10
0.05622648652988965
 20
1.527167682577715
 10
0.057165823603265775
 20
1.5248999235539344
 10
0.0586162897110615
 20
1.5215162440714354
 10
0.06014935857175885
 20
1.518169179889423
 10
0.16672338500205341
 20
1.2928374335058417
 10
0.16833813331722608
 20
1.2895290004427649
 10
0.17003358827601014
 20
1.2862611917064788
 10
0.17119068133294216
 20
1.284096423638288
 10
0.17296582147817882
 20
1.280871207949511
 10
0.17481957769665463
 20
1.2776905277303086
 10
0.3029667839442019
 20
1.0638898902928928
 10
0.30489803979899033
 20
1.060755661155615
 10
0.30690563179492225
 20
1.0576697713585737
 10
0.3082693374076545
 20
1.0556288421257256
 10
0.31035205603672317
 20
1.052593150791107
 10
0.31250864694429914
 20
1.0496094861946237
 10
0.4609949065971407
 20
0.8493989726540764
 10
0.4632240709595121
 20
0.8464691317539621
 10
0.4655244658024456
 20
0.8435948796736716
 10
0.467081650753215
 20
0.8416974445210648
 10
0.46945189016833666
 20
0.8388805128766761
 10
0.47189054663760155
 20
0.836122598193611
 10
0.639285857276795
 20
0.6514303433103018
 10
0.6417914620972185
 20
0.6487331065879163
 10
0.6443625057498752
 20
0.6460981728147738
 10
0.6460981735116109
 20
0.6443625050615361
 10
0.6487331070340139
 20
0.6417914616724893
 10
0.6514303434931925
 20
0.6392858571029052
 10
0.8361225983846943
 20
0.47189054647253664
 10
0.8388805133438524
 20
0.4694518897653471
 10
0.841697445275849
 20
0.4670816501259925
 10
0.8435948804362505
 20
0.46552446518441043
 10
0.8464691322405045
 20
0.4632240705798151
 10
0.8493989728533999
 20
0.46099490644181684
 10
1.0496094864011591
 20
0.31250864679860313
 10
1.0525931512961644
 20
0.31035205568100177
 10
1.055628842939437
 20
0.30826933685668373
 10
1.0576697721786656
 20
0.3069056312541975
 10
1.0607556616772011
 20
0.30489803946870764
 10
1.0638898905061989
 20
0.3029667838093455
 10
1.2776905279499242
 20
0.17481957757203004
 10
1.2808712084857488
 20
0.17296582117439402
 10
1.2840964244997544
 20
0.17119068086564337
 10
1.286261192573381
 20
0.17003358781944056
 10
1.2895290009930258
 20
0.16833813304022952
 10
1.2928374337312338
 20
0.16672338488878113
 10
1.5181691801201798
 20
0.060149358469258396
 10
1.521516244636041
 20
0.05861628946077024
 10
1.5248999244594459
 20
0.05716582322165717
 10
1.527167683488257
 20
0.05622648615925893
 10
1.5305859400782478
 20
0.05485949652674052
 10
1.53403671474088
 20
0.05357680677541232
 10
1.768729504351869
 20
-0.030397674720552104
 10
1.7722107188182528
 20
-0.03159529206164774
 10
1.7757202757964483
 20
-0.032707115461946934
 10
1.7780691860433284
 20
-0.03341965022029658
 10
1.781604971157911
 20
-0.03444500986230484
 10
1.7851648549327312
 20
-0.03538328822277906
 10
2.026958470170016
 20
-0.09594950544342554
 10
2.0305403086217804
 20
-0.09680013741895546
 10
2.0341419438360133
 20
-0.09756261052400869
 10
2.036549384033614
 20
-0.09804148088589723
 10
2.0401686461637576
 20
-0.09871533577345779
 10
2.0438033554586967
 20
-0.09930016661862703
 10
2.290369193962296
 20
-0.13587483436758527
 10
2.294017161372691
 20
-0.1363702889350702
 10
2.297676189142769
 20
-0.13677606871961281
 10
2.3001189743495223
 20
-0.13701666290634798
 10
2.3037868580563474
 20
-0.1373325234547925
 10
2.3074613886680244
 20
-0.13755827454937222
 10
2.55642488900525
 20
-0.14978915913528315
 10
2.5601038828208846
 20
-0.14992466552114658
 10
2.5613311975526063
 20
-0.1499547946333437
 10
2.565012408830599
 20
-0.1499999725000014
 10
22.885012403920857
 20
-0.1499999724939831
 10
22.888693615198758
 20
-0.14995479462732542
 10
22.88992092993048
 20
-0.14992466551512829
 10
22.893599923753353
 20
-0.14978915912890936
 10
23.142563424089953
 20
-0.13755827453097605
 10
23.14623795506518
 20
-0.13733252340940097
 10
23.14990583913401
 20
-0.1370166628161333
 10
23.152348624339897
 20
-0.13677606861737576
 10
23.15600765174618
 20
-0.1363702888594955
 10
23.159655618794748
 20
-0.13587483433645872
 10
23.4062214572964
 20
-0.09930016657561311
 10
23.409856166949915
 20
-0.09871533566804411
 10
23.413475429435362
 20
-0.09804148070052054
 10
23.41588286963106
 20
-0.09756261032674463
 10
23.419484504486437
 20
-0.09680013728378367
 10
23.423066342583045
 20
-0.09594950538782435
 10
23.664859957817104
 20
-0.03538328815555339
 10
23.668419841943045
 20
-0.0344450096977266
 10
23.67195562740376
 20
-0.03341964994118904
 10
23.674304537646677
 20
-0.0327071151714565
 10
23.67781409427343
 20
-0.03159529186823587
 10
23.68129530839377
 20
-0.030397674641271355
 10
23.91598809800115
 20
0.05357680686616123
 10
23.91943887300378
 20
0.05485949674883217
 10
23.922857129927124
 20
0.05622648652930262
 10
23.925124888951146
 20
0.057165823602756904
 10
23.928508568434225
 20
0.05861628971077648
 10
23.931855632616802
 20
0.060149358571725015
 10
24.15718737900052
 20
0.16672338500209063
 10
24.16049581206335
 20
0.1683381333171392
 10
24.163763620799394
 20
0.1700335882757878
 10
24.165928388866952
 20
0.17119068133237164
 10
24.16915360455598
 20
0.1729658214777334
 10
24.172334284775424
 20
0.17481957769634668
 10
24.386134922213735
 20
0.3029667839444482
 10
24.389269151350668
 20
0.304898039799019
 10
24.392355041147376
 20
0.306905631794717
 10
24.394395970379726
 20
0.3082693374071011
 10
24.39743166171469
 20
0.31035205603638755
 10
24.400415326311506
 20
0.312508646944198
 10
24.600625839852402
 20
0.4609949065973167
 10
24.60355568075253
 20
0.4632240709597001
 10
24.606429932832835
 20
0.46552446580264534
 10
24.60832736798505
 20
0.467081650753095
 10
24.61114429962942
 20
0.46945189016820255
 10
24.613902214312468
 20
0.471890546637452
 10
24.79859446919584
 20
0.6392858572767023
 10
24.801291705918782
 20
0.6417914620976554
 10
24.803926639692456
 20
0.6443625057508683
 10
24.805662307446248
 20
0.6460981735131938
 10
24.808233350834744
 20
0.6487331070350748
 10
24.810738955403806
 20
0.6514303434937044
 10
24.978134266033706
 20
0.8361225983847372
 10
24.980572922739213
 20
0.838880513341948
 10
24.982943162376984
 20
0.8416974452719159
 10
24.98450034731826
 20
0.843594880431813
 10
24.98680074192453
 20
0.8464691322380071
 10
24.989029906064104
 20
0.8493989728529222
 10
25.137516165707865
 20
1.0496094864014134
 10
25.139672756826368
 20
1.0525931512976954
 10
25.14175547565152
 20
1.055628842942288
 10
25.14311918125388
 20
1.0576697721814172
 10
25.145126773038474
 20
1.0607556616786824
 10
25.147058028697003
 20
1.0638898905063683
 10
25.275205234934404
 20
1.2776905279502855
 10
25.277058991332165
 20
1.2808712084863303
 10
25.27883413164103
 20
1.2840964245005628
 10
25.27999122468732
 20
1.286261192574367
 10
25.281686679466404
 20
1.2895290009937945
 10
25.28330142761774
 20
1.2928374337317796
 10
25.389875454037135
 20
1.5181691801205408
 10
25.39140852304543
 20
1.521516244635968
 10
25.392858989284374
 20
1.5248999244589294
 10
25.393798326346765
 20
1.5271676834876837
 10
25.395165315979472
 20
1.530585940078105
 10
25.39644800573097
 20
1.5340367147411755
 10
25.480422487226914
 20
1.7687295043521645
 10
25.481620104568286
 20
1.7722107188193879
 10
25.48273192796882
 20
1.7757202757984352
 10
25.483444462727
 20
1.7780691860448534
 10
25.48446982236873
 20
1.7816049711586006
 10
25.48540810072897
 20
1.785164854932573
 10
25.545974317949838
 20
2.0269584701708734
 10
25.54682494992522
 20
2.03054030862199
 10
25.54758742303016
 20
2.034141943835568
 10
25.548066293391905
 20
2.0365493840323445
 10
25.54874014827961
 20
2.040168646163134
 10
25.549324979124894
 20
2.0438033554587256
 10
25.58589964687383
 20
2.2903691939623463
 10
25.58639510144126
 20
2.2940171613722757
 10
25.586800881225766
 20
2.2976761891418858
 10
25.587041475412487
 20
2.3001189743483406
 10
25.587357335960988
 20
2.3037868580556267
 10
25.587583087055602
 20
2.307461388667767
 10
25.599813971641534
 20
2.5564248890056036
 10
25.59994947802742
 20
2.560103882822122
 10
25.59997960713961
 20
2.5613311975538506
 10
25.600024785006244
 20
2.565012408830981
 10
25.60002478500022
 20
15.265012403921084
 10
25.599979607133584
 20
15.268693615198092
 10
25.599949478021394
 20
15.269920929929814
 10
25.59981397163515
 20
15.27359992375356
 10
25.587583087037224
 20
15.522563424089762
 10
25.587357335915744
 20
15.526237955063733
 10
25.58704147532263
 20
15.529905839131319
 10
25.586800881123914
 20
15.53234862433719
 10
25.58639510136594
 20
15.536007651744724
 10
25.58589964684275
 20
15.539655618794535
 10
25.54932497908185
 20
15.786221457296586
 10
25.548740148173916
 20
15.789856166952207
 10
25.548066293205924
 20
15.79347542943974
 10
25.54758742283204
 20
15.795882869635614
 10
25.546824949789446
 20
15.799484504488879
 10
25.545974317893958
 20
15.803066342583394
 10
25.485408100661722
 20
16.044859957817433
 10
25.484469822203867
 20
16.048419841943474
 10
25.4834444624473
 20
16.05195562740429
 10
25.48273192767741
 20
16.05430453764771
 10
25.481620104374212
 20
16.05781409427438
 10
25.480422487147273
 20
16.06129530839464
 10
25.396448005640217
 20
16.295988098000855
 10
25.395165315756937
 20
16.299438873005055
 10
25.393798325975784
 20
16.302857129929937
 10
25.392858988901825
 20
16.30512488895503
 10
25.391408522794414
 20
16.308508568436533
 10
25.389875453934152
 20
16.311855632617565
 10
25.28330142750373
 20
16.537187379001367
 10
25.281686679188415
 20
16.540495812064723
 10
25.279991224229477
 20
16.54376362080128
 10
25.278834131173156
 20
16.545928388868305
 10
25.277058991028056
 20
16.54915360455681
 10
25.27520523480973
 20
16.55233428477575
 10
25.147058028561613
 20
16.76613492221401
 10
25.145126772708164
 20
16.769269151349175
 10
25.143119180713672
 20
16.772355041144166
 10
25.141755475101707
 20
16.774395970376013
 10
25.13967275647131
 20
16.77743166171273
 10
25.137516165562307
 20
16.780415326311243
 10
24.989029905909735
 20
16.980625839851456
 10
24.986800741546716
 20
16.9835556807524
 10
24.984500346703093
 20
16.986429932833488
 10
24.982943161751557
 20
16.988327367986976
 10
24.980572922337075
 20
16.991144299630545
 10
24.97813426586849
 20
16.993902214312822
 10
24.810738955229155
 20
17.17859446919626
 10
24.808233350408734
 20
17.18129170591864
 10
24.805662306756084
 20
17.183926639691776
 10
24.803926638994646
 20
17.185662307444716
 10
24.801291705472245
 20
17.188233350833762
 10
24.798594469013064
 20
17.190738955403347
 10
24.613902214121506
 20
17.358134266033765
 10
24.61114429916262
 20
17.36057292274072
 10
24.60832736723091
 20
17.362943162379853
 10
24.606429932070423
 20
17.36450034732152
 10
24.60355568026589
 20
17.36680074192635
 10
24.60062583965271
 20
17.369029906064572
 10
24.400415326104994
 20
17.517516165707743
 10
24.397431661209808
 20
17.519672756825475
 10
24.394395969566343
 20
17.52175547564991
 10
24.392355040327484
 20
17.52311918125214
 10
24.389269150829136
 20
17.525126773037503
 10
24.38613492200033
 20
17.527058028696743
 10
24.172334284556108
 20
17.655205234934364
 10
24.169153604019925
 20
17.657058991332203
 10
24.165928388005554
 20
17.658834131641136
 10
24.16376361993231
 20
17.65999122468712
 10
24.160495811513027
 20
17.661686679466126
 10
24.157187378775188
 20
17.66330142761739
 10
23.931855632386156
 20
17.76987545403697
 10
23.92850856787079
 20
17.77140852304524
 10
23.925124888047886
 20
17.772858989284156
 10
23.92285712901943
 20
17.773798326346427
 10
23.919438872428945
 20
17.775165315979166
 10
23.915988097765805
 20
17.77644800573069
 10
23.681295308154503
 20
17.860422487226767
 10
23.67781409368814
 20
17.861620104567855
 10
23.67430453670997
 20
17.86273192796815
 10
23.671955626462903
 20
17.863444462726555
 10
23.6684198413483
 20
17.864469822368573
 10
23.664859957573455
 20
17.865408100729052
 10
23.423066342336185
 20
17.9259743179497
 10
23.419484503884046
 20
17.92682494992531
 10
23.41588286866944
 20
17.92758742303043
 10
23.41347542847181
 20
17.928066293392313
 10
23.409856166342035
 20
17.92874014827979
 10
23.40622145704747
 20
17.929324979124896
 10
23.15965561854374
 20
17.96589964687386
 10
23.156007651133464
 20
17.96639510144133
 10
23.152348623363505
 20
17.966800881225865
 10
23.14990583815708
 20
17.96704147541257
 10
23.14623795445014
 20
17.96735733596103
 10
23.142563423838347
 20
17.96758308705562
 10
22.89359992350098
 20
17.979813971641537
 10
22.889920929685513
 20
17.979949478027393
 10
22.888693614953848
 20
17.97997960713959
 10
22.885012403675685
 20
17.980024785006254
 10
2.5650124085854156
 20
17.980024785000236
 10
2.561331197307427
 20
17.979979607133576
 10
2.5601038825757336
 20
17.97994947802138
 10
2.556424888752951
 20
17.979813971635163
 10
2.307461388416251
 20
17.96758308703723
 10
2.303786857441384
 20
17.96735733591568
 10
2.300118973372906
 20
17.967041475322457
 10
2.2976761881673324
 20
17.966800881123742
 10
2.294017160760694
 20
17.966395101365833
 10
2.2903691937117725
 20
17.965899646842754
 10
2.0438033552099495
 20
17.929324979081894
 10
2.0401686455563475
 20
17.92874014817431
 10
2.036549383070817
 20
17.92806629320677
 10
2.0341419428752054
 20
17.927587422833007
 10
2.030540308019908
 20
17.92682494979006
 10
2.026958469923383
 20
17.92597431789412
 10
1.785164854689111
 20
17.8654081006618
 10
1.781604970562803
 20
17.86446982220387
 10
1.7780691851017238
 20
17.863444462447212
 10
1.7757202748584533
 20
17.86273192767736
 10
1.7722107182320632
 20
17.86162010437424
 10
1.768729504112082
 20
17.860422487147392
 10
1.5340367145051574
 20
17.77644800564011
 10
1.5305859395023904
 20
17.775165315757388
 10
1.5271676825789156
 20
17.773798325976855
 10
1.524899923554666
 20
17.7728589889033
 10
1.521516244071728
 20
17.771408522795337
 10
1.5181691798892862
 20
17.76987545393445
 10
1.2928374335056978
 20
17.663301427504148
 10
1.2895290004425182
 20
17.661686679188925
 10
1.2862611917061322
 20
17.659991224230083
 10
1.2840964236383747
 20
17.65883413117338
 10
1.2808712079496993
 20
17.657058991028194
 10
1.2776905277305952
 20
17.655205234809774
 10
1.0638898902927816
 20
17.527058028561978
 10
1.060755661156266
 20
17.525126772707672
 10
1.0576697713599625
 20
17.523119180712257
 10
1.0556288421271998
 20
17.521755475099617
 10
1.0525931507918165
 20
17.519672756470065
 10
1.0496094861945937
 20
17.517516165561968
 10
0.8493989726541815
 20
17.369029905909205
 10
0.8464691317542175
 20
17.36680074154695
 10
0.8435948796740715
 20
17.36450034670414
 10
0.8416974445214291
 20
17.36294316175335
 10
0.8388805128768972
 20
17.360572922338118
 10
0.836122598193694
 20
17.358134265868735
 10
0.651430343310392
 20
17.190738955229563
 10
0.6487331065874481
 20
17.188233350408606
 10
0.6460981728137735
 20
17.18566230675539
 10
0.6443625050602942
 20
17.183926638993377
 10
0.6417914616718048
 20
17.181291705471505
 10
0.6392858571027511
 20
17.178594469012886
 10
0.47189054647236844
 20
16.993902214121377
 10
0.4694518897650628
 20
16.991144299162084
 10
0.4670816501255987
 20
16.988327367229946
 10
0.4655244651841232
 20
16.986429932069665
 10
0.46322407057964
 20
16.983555680265543
 10
0.46099490644174834
 20
16.98062583965278
 10
0.31250864679869805
 20
16.78041532610522
 10
0.31035205568137403
 20
16.77743166121061
 10
0.3082693368573147
 20
16.774395969567745
 10
0.30690563125475745
 20
16.77235504032844
 10
0.3048980394689905
 20
16.76926915082951
 10
0.30296678380937203
 20
16.766134922000106
 10
0.17481957757195712
 20
16.552334284556203
 10
0.17296582117418866
 20
16.549153604020145
 10
0.17119068086531736
 20
16.5459283880059
 10
0.17003358781929928
 20
16.5437636199326
 10
0.16833813304022033
 20
16.54049581151319
 10
0.16672338488889252
 20
16.53718737877522
 10
0.06014935846924188
 20
16.31185563238598
 10
0.058616289460959314
 20
16.308508567870586
 10
0.05716582322202898
 20
16.305124888047654
 10
0.05622648615959522
 20
16.3028571290188
 10
0.0548594965268728
 20
16.29943887242835
 10
0.053576806775363556
 20
16.295988097765246
 10
-0.030397674720565343
 20
16.06129530815437
 10
-0.031595292061760066
 20
16.05781409368769
 10
-0.03270711546214283
 20
16.05430453670919
 10
-0.033419650220421426
 20
16.051955626462508
 10
-0.03444500986233012
 20
16.04841984134823
 10
-0.03538328822271922
 20
16.044859957573717
 10
-0.09594950544341543
 20
15.80306634233632
 10
-0.09680013741897533
 20
15.799484503884424
 10
-0.09756261052405205
 20
15.795882868670056
 10
-0.09804148088592637
 20
15.793475428472505
 10
-0.09871533577345903
 20
15.789856166342485
 10
-0.09930016661860647
 20
15.786221457047672
 10
-0.1358748343675718
 20
15.539655618543966
 10
-0.13637028893501196
 20
15.536007651133932
 10
-0.13677606871952766
 20
15.532348623364218
 10
-0.13701666290626283
 20
15.529905838157585
 10
-0.13733252345475186
 20
15.526237954450398
 10
-0.1375582745493583
 20
15.522563423838358
 10
-0.14978915913529053
 20
15.273599923500507
 10
-0.14992466552117498
 20
15.269920929684009
 10
-0.149954794633365
 20
15.268693614952287
 10
-0.1499999725000014
 20
15.265012403675136
 10
-0.149999972493976
 20
2.565012408585318
 10
-0.14995479543323667
 20
2.5613312301368154
 10
-0.1499321987669622
 20
2.5607177259309077
  0
LWPOLYLINE
  5
33
330
17
100
AcDbEntity
  8
0
100
AcDbPolyline
 90
394
 70
0
 10
-0.16992617000893676
 20
2.560226898089033
 10
-0.16991863600952692
 20
2.5596130222391027
 10
-0.16976506289679924
 20
2.5554435281381744
 10
-0.15753417829890146
 20
2.306480027801979
 10
-0.1572783270298127
 20
2.30231555939636
 10
-0.15692035169362162
 20
2.298158624151258
 10
-0.15667975749486407
 20
2.2957158389452794
 10
-0.15621987377285051
 20
2.291568941250372
 10
-0.15565835865110791
 20
2.2874345786274453
 10
-0.11908369089017704
 20
2.040868740125196
 10
-0.11842088253350402
 20
2.0367494025504156
 10
-0.11765718024301863
 20
2.0326475717659758
 10
-0.11717830986947719
 20
2.030240131571423
 10
-0.11631417376085826
 20
2.0261582787671086
 10
-0.11535012428628089
 20
2.0220988622892295
 10
-0.054783907053718606
 20
1.7803052470540124
 10
-0.053720524809991205
 20
1.7762707117434167
 10
-0.052558450428523695
 20
1.7722634882531862
 10
-0.05184591565889063
 20
1.769914578010548
 10
-0.050585849258317106
 20
1.7659370805309202
 10
-0.049228549744904926
 20
1.7619917045583173
 10
0.03474593176263424
 20
1.527298914950739
 10
0.036199646951841
 20
1.5233880366444543
 10
0.0377489020245039
 20
1.5195140121610875
 10
0.03868823909788002
 20
1.517246253137307
 10
0.04033210067382212
 20
1.5134114164205519
 10
0.042069578702318505
 20
1.5096180770440228
 10
0.14864360513261307
 20
1.2842863306604415
 10
0.15047365320878878
 20
1.2805367732183626
 10
0.15239516881367332
 20
1.276833256679619
 10
0.15355226187060533
 20
1.2746684886114281
 10
0.15556408735276123
 20
1.2710132441928161
 10
0.15766501105055597
 20
1.2674084733059927
 10
0.28581221729810324
 20
1.053607835868577
 10
0.2880009739163634
 20
1.0500557095408556
 10
0.290276244827241
 20
1.0465583677983052
 10
0.29163995043997326
 20
1.0445174385654572
 10
0.29400036486773806
 20
1.0410769884132067
 10
0.2964445012104877
 20
1.037695501897047
 10
0.4449307608633293
 20
0.8374849883564999
 10
0.4474571471208687
 20
0.83416450202908
 10
0.4500642612557454
 20
0.8309070163636331
 10
0.4516214462065148
 20
0.8290095812110262
 10
0.4543077175225839
 20
0.8258170587057585
 10
0.4570715281660738
 20
0.8226914220894662
 10
0.6244668388052672
 20
0.637999167206157
 10
0.6273065242461418
 20
0.6349422989447622
 10
0.630220373696299
 20
0.6319560406919555
 10
0.6319560414580347
 20
0.6302203729387179
 10
0.6349422994266698
 20
0.6273065237873187
 10
0.6379991673897635
 20
0.6244668386307286
 10
0.8226914222812652
 20
0.4570715280003601
 10
0.8258170592104631
 20
0.4543077170872222
 10
0.8290095820416865
 20
0.45162144551702255
 10
0.830907017202088
 20
0.45006426057544047
 10
0.8341645025546935
 20
0.44745714671068026
 10
0.8374849885565987
 20
0.44493076070743043
 10
1.037695502104358
 20
0.2964445010642167
 10
1.0410769889588423
 20
0.29400036448343825
 10
1.0445174394609005
 20
0.2916399498343909
 10
1.0465583687001292
 20
0.2902762442319047
 10
1.0500557101043728
 20
0.28800097355952803
 10
1.0536078360827104
 20
0.28581221716275107
 10
1.2674084735264357
 20
0.15766501092543558
 10
1.2710132447720977
 20
0.1555640870245925
 10
1.2746684895593021
 20
0.15355226135712088
 10
1.2768332576329287
 20
0.15239516831091807
 10
1.2805367738128124
 20
0.15047365290954953
 10
1.2842863308867063
 20
0.14864360501892807
 10
1.5096180772756522
 20
0.04206957859940533
 10
1.5134114170305433
 20
0.04033210040341273
 10
1.5172462541336582
 20
0.03868823867864424
 10
1.5195140131624694
 20
0.037748901616246
 10
1.5233880372674076
 20
0.03619964671154283
 10
1.5272989151877174
 20
0.034745931671439245
 10
1.7619917047987064
 20
-0.04922854982452518
 10
1.7659370811629973
 20
-0.05058584946712141
 10
1.7699145790404227
 20
-0.05184591597757765
 10
1.7722634892873028
 20
-0.0525584507359273
 10
1.7762707123857338
 20
-0.05372052498775565
 10
1.7803052472988867
 20
-0.054783907121286196
 10
2.022098862536171
 20
-0.11535012434193267
 10
2.0261582794163324
 20
-0.11631417390663873
 10
2.0302401326271156
 20
-0.11717831008558818
 10
2.0326475728247164
 20
-0.11765718044747672
 10
2.0367494032067075
 20
-0.1184208826473889
 10
2.04086874037533
 20
-0.11908369093338217
 10
2.2874345788789294
 20
-0.1556583586823404
 10
2.2915689419116174
 20
-0.15621987385441927
 10
2.2957158400185143
 20
-0.15667975760662733
 10
2.2981586252252675
 20
-0.1569203517933625
 10
2.302315560060399
 20
-0.157278327078792
 10
2.3064800280543043
 20
-0.15753417831730895
 10
2.55544352839153
 20
-0.16976506290321988
 10
2.5596130546832137
 20
-0.16991863680599398
 10
2.5608403694149353
 20
-0.1699487659181911
 10
2.5650124088306048
 20
-0.16999996750000157
 10
22.88501240392086
 20
-0.16999996749398327
 10
22.88918444333643
 20
-0.1699487659121728
 10
22.89041175806815
 20
-0.16991863679997568
 10
22.894581284368037
 20
-0.16976506289679874
 10
23.143544784704638
 20
-0.15753417829886543
 10
23.147709253110563
 20
-0.1572783270297537
 10
23.15186618835597
 20
-0.15692035169352464
 10
23.154308973561857
 20
-0.1566797574947671
 10
23.158455871256454
 20
-0.15621987377277652
 10
23.16259023387907
 20
-0.15565835865107205
 10
23.40915607238072
 20
-0.11908369089022644
 10
23.41327540995573
 20
-0.11842088253351354
 10
23.4173772407404
 20
-0.11765718024297656
 10
23.419784680936097
 20
-0.11717830986920064
 10
23.42386653374018
 20
-0.1163141737606222
 10
23.42792595021783
 20
-0.11535012428609631
 10
23.66971956545189
 20
-0.054783907053825354
 10
23.673754100762977
 20
-0.05372052480996148
 10
23.677761324253694
 20
-0.05255845042833371
 10
23.68011023449661
 20
-0.051845915658601166
 10
23.684087731975733
 20
-0.05058584925816709
 10
23.68803310794784
 20
-0.04922854974491969
 10
23.92272589755522
 20
0.034745931762512894
 10
23.92663677586086
 20
0.03619964695147132
 10
23.930510800343598
 20
0.03774890202385375
 10
23.93277855936762
 20
0.038688239097308036
 10
23.936613396085033
 20
0.04033210067350382
 10
23.940406735462204
 20
0.04206957870228489
 10
24.16573848184592
 20
0.1486436051326505
 10
24.169488039287717
 20
0.15047365320868605
 10
24.17319155582619
 20
0.15239516881341658
 10
24.175356323893748
 20
0.15355226187000043
 10
24.179011568312642
 20
0.15556408735229804
 10
24.18261633919974
 20
0.15766501105024863
 10
24.39641697663805
 20
0.28581221729835016
 10
24.399969102965382
 20
0.2880009739163642
 10
24.403466444707558
 20
0.29027624482697617
 10
24.40550737393991
 20
0.29163995043936025
 10
24.408947824092547
 20
0.2940003648673728
 10
24.412329310609085
 20
0.2964445012103873
 10
24.61253982414998
 20
0.44493076086350597
 10
24.615860310477416
 20
0.4474571471210589
 10
24.619117796142877
 20
0.45006426125594906
 10
24.621015231295093
 20
0.4516214462063987
 10
24.62420775380034
 20
0.45430771752245147
 10
24.627333390416613
 20
0.4570715281659242
 10
24.812025645299986
 20
0.6244668388051745
 10
24.81508251356201
 20
0.6273065242466493
 10
24.81806877181542
 20
0.6302203736974369
 10
24.81980443956921
 20
0.6319560414597624
 10
24.822718288719987
 20
0.6349422994278056
 10
24.825557973875984
 20
0.6379991673902773
 10
24.992953284505884
 20
0.8226914222813101
 10
24.995717095417117
 20
0.825817059208301
 10
24.99840336698552
 20
0.8290095820372252
 10
24.999960551926797
 20
0.8309070171971222
 10
25.002567665793457
 20
0.8341645025519269
 10
25.00509405179849
 20
0.8374849885561207
 10
25.15358031144225
 20
1.0376955021046117
 10
25.15602444802405
 20
1.041076988960543
 10
25.158384862674044
 20
1.0445174394640977
 10
25.159748568276402
 20
1.046558368703227
 10
25.162023838947764
 20
1.0500557101060304
 10
25.1642125953436
 20
1.0536078360828816
 10
25.292359801581
 20
1.2674084735267988
 10
25.294460725481986
 20
1.27101324477271
 10
25.296472551149584
 20
1.2746684895601719
 10
25.297629644195872
 20
1.276833257633976
 10
25.2995511595971
 20
1.280536773813613
 10
25.301381207487594
 20
1.2842863308872547
 10
25.40795523390699
 20
1.509618077276016
 10
25.409692712102764
 20
1.5134114170304147
 10
25.411336573827338
 20
1.5172462541330274
 10
25.41227591088973
 20
1.5195140131617817
 10
25.41382516579465
 20
1.5233880372672075
 10
25.415278880834943
 20
1.5272989151880145
 10
25.499253362330887
 20
1.7619917047990035
 10
25.500610661973795
 20
1.7659370811642454
 10
25.50187072848452
 20
1.7699145790426367
 10
25.5025832632427
 20
1.772263489289055
 10
25.503745337494212
 20
1.7762707123865387
 10
25.504808719627476
 20
1.780305247298731
 10
25.565374936848343
 20
2.0220988625370317
 10
25.566338986412884
 20
2.026158279416458
 10
25.567203122591703
 20
2.0302401326264987
 10
25.56768199295345
 20
2.0326475728232754
 10
25.568445695153528
 20
2.0367494032059987
 10
25.569108503439647
 20
2.0408687403753607
 10
25.605683171188584
 20
2.2874345788789814
 10
25.6062446863606
 20
2.291568941911142
 10
25.60670457011277
 20
2.2957158400175084
 10
25.60694516429949
 20
2.298158625223963
 10
25.60730313958498
 20
2.3023155600596175
 10
25.607558990823538
 20
2.306480028054047
 10
25.61978987540947
 20
2.555443528391884
 10
25.61994344931227
 20
2.559613054684569
 10
25.61997357842446
 20
2.560840369416298
 10
25.620024780006244
 20
2.5650124088309907
 10
25.620024780000218
 20
15.265012403921093
 10
25.61997357841843
 20
15.269184443335648
 10
25.61994344930624
 20
15.27041175806737
 10
25.61978987540304
 20
15.274581284368246
 10
25.607558990805114
 20
15.523544784704448
 10
25.607303139536107
 20
15.527709253108954
 10
25.606945164200052
 20
15.531866188352947
 10
25.606704570001337
 20
15.534308973558819
 10
25.606244686279243
 20
15.53845587125483
 10
25.605683171157366
 20
15.542590233878858
 10
25.569108503396464
 20
15.789156072380909
 10
25.568445695039337
 20
15.793275409958303
 10
25.56768199274827
 20
15.797377240745336
 10
25.567203122374387
 20
15.79978468094121
 10
25.566338986266224
 20
15.803866533742896
 10
25.56537493679223
 20
15.807925950218175
 10
25.504808719559996
 20
16.04971956545221
 10
25.5037453373161
 20
16.053754100763413
 10
25.502583262934436
 20
16.057761324254244
 10
25.501870728164548
 20
16.060110234497664
 10
25.50061066176414
 20
16.064087731976695
 10
25.49925336225092
 20
16.06803310794871
 10
25.415278880743863
 20
16.302725897554925
 10
25.41382516555422
 20
16.306636775862348
 10
25.41227591048106
 20
16.31051080034683
 10
25.4113365734071
 20
16.312778559371925
 10
25.409692711831596
 20
16.316613396087547
 10
25.40795523380359
 20
16.320406735462967
 10
25.30138120737317
 20
16.54573848184677
 10
25.299551159296833
 20
16.549488039289162
 10
25.297629643691774
 20
16.553191555828214
 10
25.296472550635453
 20
16.55535632389524
 10
25.294460725153453
 20
16.559011568313544
 10
25.292359801455824
 20
16.56261633920007
 10
25.164212595207708
 20
16.77641697663833
 10
25.162023838590965
 20
16.779969102963655
 10
25.159748567681724
 20
16.783466444703883
 10
25.15838486206976
 20
16.78550737393573
 10
25.156024447640487
 20
16.788947824090357
 10
25.153580311296118
 20
16.792329310608817
 10
25.005094051643546
 20
16.99253982414903
 10
25.002567665385275
 20
16.99586031047739
 10
24.999960551249618
 20
16.999117796143743
 10
24.99840336629808
 20
17.00101523129723
 10
24.995717094982737
 20
17.004207753801566
 10
24.992953284340018
 20
17.007333390416967
 10
24.825557973700683
 20
17.192025645300404
 10
24.82271828825981
 20
17.195082513561793
 10
24.81980443880966
 20
17.198068771814594
 10
24.81806877104822
 20
17.199804439567533
 10
24.815082513079588
 20
17.202718288718934
 10
24.812025645116492
 20
17.205557973875525
 10
24.627333390224933
 20
17.372953284505943
 10
24.624207753296048
 20
17.375717095418814
 10
24.621015230465147
 20
17.37840336698876
 10
24.61911779530466
 20
17.379960551930427
 10
24.615860309951742
 20
17.382567665795456
 10
24.61253982394951
 20
17.385094051798962
 10
24.412329310401795
 20
17.533580311442133
 10
24.408947823547102
 20
17.536024448023056
 10
24.40550737304483
 20
17.53838486267224
 10
24.40346644380597
 20
17.53974856827447
 10
24.39996910240194
 20
17.542023838946697
 10
24.39641697642382
 20
17.544212595343335
 10
24.182616338979596
 20
17.672359801580956
 10
24.17901156773353
 20
17.67446072548203
 10
24.17535632294591
 20
17.67647255114971
 10
24.173191554872666
 20
17.677629644195694
 10
24.169488038693192
 20
17.67955115959683
 10
24.165738481619716
 20
17.68138120748724
 10
23.940406735230685
 20
17.78795523390682
 10
23.936613395476353
 20
17.789692712102568
 10
23.93277855837381
 20
17.791336573827117
 10
23.930510799345353
 20
17.792275910889387
 10
23.92663677523985
 20
17.79382516579434
 10
23.922725897318966
 20
17.795278880834662
 10
23.688033107707664
 20
17.87925336233074
 10
23.6840877313434
 20
17.88061066197333
 10
23.680110233466
 20
17.88187072848378
 10
23.677761323218935
 20
17.882583263242186
 10
23.67375410012048
 20
17.883745337494023
 10
23.669719565207302
 20
17.88480871962756
 10
23.42792594997003
 20
17.945374936848207
 10
23.423866533089445
 20
17.946338986413007
 10
23.419784679878234
 20
17.947203122592033
 10
23.417377239680604
 20
17.947681992953914
 10
23.413275409299033
 20
17.94844569515373
 10
23.409156072130834
 20
17.94910850343965
 10
23.162590233627107
 20
17.985683171188615
 10
23.15845587059455
 20
17.986244686360678
 10
23.154308972487787
 20
17.986704570112874
 10
23.15186618728136
 20
17.98694516429958
 10
23.147709252446102
 20
17.987303139585027
 10
23.143544784452068
 20
17.987558990823555
 10
22.8945812841147
 20
17.999789875409473
 10
22.89041175782321
 20
17.99994344931224
 10
22.889184443091544
 20
17.999973578424438
 10
22.88501240367568
 20
18.000024780006253
 10
2.56501240858541
 20
18.000024780000235
 10
2.560840369169744
 20
17.999973578418423
 10
2.5596130544380506
 20
17.999943449306226
 10
2.5554435281382664
 20
17.999789875403053
 10
2.3064800278015665
 20
17.98755899080512
 10
2.3023155593960456
 20
17.987303139536035
 10
2.2981586241510414
 20
17.986945164199856
 10
2.2957158389454677
 20
17.98670457000114
 10
2.2915689412504685
 20
17.98624468627912
 10
2.2874345786274506
 20
17.98568317115737
 10
2.0408687401256276
 20
17.94910850339651
 10
2.036749402550521
 20
17.94844569503978
 10
2.0326475717657573
 20
17.94768199274922
 10
2.030240131570146
 20
17.94720312237546
 10
2.026158278766157
 20
17.9463389862669
 10
2.0220988622886003
 20
17.94537493679239
 10
1.7803052470543281
 20
17.88480871956007
 10
1.7762707117428227
 20
17.883745337316093
 10
1.7722634882516954
 20
17.88258326293433
 10
1.7699145780084249
 20
17.881870728164476
 10
1.7659370805297125
 20
17.880610661764155
 10
1.761991704558011
 20
17.879253362251042
 10
1.5272989149510863
 20
17.79527888074376
 10
1.5233880366452908
 20
17.79382516555474
 10
1.5195140121624036
 20
17.79227591048229
 10
1.517246253138154
 20
17.791336573408735
 10
1.5134114164209016
 20
17.789692711832604
 10
1.5096180770438856
 20
17.787955233803892
 10
1.2842863306602972
 20
17.68138120737359
 10
1.2805367732181026
 20
17.679551159297354
 10
1.276833256679245
 20
17.677629643692406
 10
1.2746684886114876
 20
17.6764725506357
 10
1.2710132441929909
 20
17.6744607251536
 10
1.267408473306279
 20
17.672359801455872
 10
1.0536078358684653
 20
17.544212595208077
 10
1.0500557095416074
 20
17.54202383859036
 10
1.0465583677998935
 20
17.53974856768007
 10
1.0445174385671308
 20
17.53838486206743
 10
1.0410769884140136
 20
17.536024447639118
 10
1.0376955018970162
 20
17.53358031129578
 10
0.8374849883566039
 20
17.385094051643016
 10
0.8341645020293541
 20
17.382567665385608
 10
0.8309070163640712
 20
17.37996055125087
 10
0.8290095812114288
 20
17.37840336630008
 10
0.8258170587059982
 20
17.375717094983887
 10
0.8226914220895499
 20
17.372953284340262
 10
0.6379991672062478
 20
17.20555797370109
 10
0.6349422989442203
 20
17.202718288259614
 10
0.6319560406908106
 20
17.199804438808822
 10
0.6302203729373314
 20
17.19806877104681
 10
0.6273065237865636
 20
17.195082513078777
 10
0.624466838630575
 20
17.192025645116313
 10
0.45707152800019224
 20
17.007333390224805
 10
0.45430771708692264
 20
17.004207753295454
 10
0.45162144551659894
 20
17.001015230464073
 10
0.45006426057512344
 20
16.999117795303793
 10
0.4474571467104907
 20
16.995860309951333
 10
0.4449307607073613
 20
16.99253982394958
 10
0.29644450106431103
 20
16.79232931040202
 10
0.29400036448384725
 20
16.788947823547986
 10
0.2916399498350928
 20
16.78550737304639
 10
0.2902762442325355
 20
16.783466443807082
 10
0.2880009735598453
 20
16.779969102402394
 10
0.2858122171627774
 20
16.776416976423594
 10
0.15766501092536242
 20
16.56261633897969
 10
0.15556408702436886
 20
16.559011567733766
 10
0.15355226135676084
 20
16.555356322946288
 10
0.15239516831074276
 20
16.55319155487299
 10
0.15047365290952391
 20
16.54948803869337
 10
0.14864360501903917
 20
16.545738481619747
 10
0.042069578599388535
 20
16.32040673523051
 10
0.040332100403629084
 20
16.316613395476143
 10
0.03868823867906754
 20
16.312778558373566
 10
0.03774890161663377
 20
16.310510799344712
 10
0.03619964671169956
 20
16.30663677523925
 10
0.03474593167139062
 20
16.30272589731841
 10
-0.04922854982453828
 20
16.068033107707535
 10
-0.05058584946724656
 20
16.064087731342905
 10
-0.05184591597779775
 20
16.060110233465135
 10
-0.052558450736076345
 20
16.057761323218454
 10
-0.05372052498779176
 20
16.05375410012037
 10
-0.05478390712122591
 20
16.049719565207564
 10
-0.11535012434192213
 20
15.807925949970166
 10
-0.11631417390666227
 20
15.803866533089854
 10
-0.11717831008563828
 20
15.79978467987892
 10
-0.11765718044751261
 20
15.797377239681369
 10
-0.11842088264739314
 20
15.793275409299518
 10
-0.11908369093336174
 20
15.789156072131037
 10
-0.15565835868232708
 20
15.542590233627331
 10
-0.1562198738543552
 20
15.538455870595053
 10
-0.15667975760653272
 20
15.534308972488569
 10
-0.15692035179326788
 20
15.531866187281937
 10
-0.15727832707874778
 20
15.527709252446394
 10
-0.15753417831729508
 20
15.523544784452078
 10
-0.16976506290322732
 20
15.274581284114227
 10
-0.1699186368060252
 20
15.270411757821565
 10
-0.16994876591821523
 20
15.269184443089843
 10
-0.16999996750000157
 20
15.265012403675128
 10
-0.16999996749397617
 20
2.565012408585308
 10
-0.16994876682553983
 20
2.5608404063763937
 10
-0.16992617000893676
 20
2.560226898089033
  0
LWPOLYLINE
  5
34
330
17
100
AcDbEntity
  8
0
100
AcDbPolyline
 90
394
 70
0
 10
-0.18992014125091153
 20
2.5597360702471588
 10
-0.18991260720138056
 20
2.55912219031332
 10
-0.1897409666646889
 20
2.55446216752349
 10
-0.17751008206679111
 20
2.305498667187295
 10
-0.17722413065016837
 20
2.300844261351011
 10
-0.17682404057102039
 20
2.2961982749293712
 10
-0.17658344637226284
 20
2.2937554897233925
 10
-0.17606945868613616
 20
2.2891207217401357
 10
-0.17544188296572152
 20
2.284499963543123
 10
-0.13886721520479064
 20
2.0379341250408736
 10
-0.13812642939897832
 20
2.0333301595446267
 10
-0.13727287978548566
 20
2.028745760460992
 10
-0.13679400941194422
 20
2.0263383202664396
 10
-0.13582821023770325
 20
2.021776249513395
 10
-0.13475074318455307
 20
2.017239254654446
 10
-0.07418452595199079
 20
1.7754456394192293
 10
-0.07299603992224282
 20
1.770936452923543
 10
-0.07169725091570345
 20
1.76645779140337
 10
-0.07098471614607038
 20
1.7641088811607317
 10
-0.06957640664826725
 20
1.7596634428286735
 10
-0.06805942484855257
 20
1.7552539050042446
 10
0.0159150566589866
 20
1.5205611153966663
 10
0.017539797154510345
 20
1.5161901337872954
 10
0.019271317519117925
 20
1.5118603417444598
 10
0.02021065459249405
 20
1.5095925827206793
 10
0.022047911636582568
 20
1.505306588769668
 10
0.023989798832877968
 20
1.5010669741986225
 10
0.13056382526317253
 20
1.2757352278150411
 10
0.13260917310035128
 20
1.2715445459939603
 10
0.13475674935133636
 20
1.267405321652759
 10
0.13591384240826837
 20
1.265240553584568
 10
0.1381623532273435
 20
1.2611552804361212
 10
0.14051044440445712
 20
1.2571264188816769
 10
0.2686576506520044
 20
1.0433257814442611
 10
0.2711039080337363
 20
1.0393557579260957
 10
0.2736468578595595
 20
1.0354469642380368
 10
0.27501056347229175
 20
1.0334060350051888
 10
0.27764867369875273
 20
1.0295608260353064
 10
0.28038035547667617
 20
1.0257815175994704
 10
0.42886661512951774
 20
0.8255710040589233
 10
0.43169022328222517
 20
0.8218598723041979
 10
0.434604056709045
 20
0.8182191530535944
 10
0.4361612416598144
 20
0.8163217179009875
 10
0.43916354487683096
 20
0.8127536045348407
 10
0.44225250969454594
 20
0.8092602459853212
 10
0.6096478203337394
 20
0.624567991102012
 10
0.612821586395065
 20
0.621151491301608
 10
0.6160782416427226
 20
0.6178139085691372
 10
0.6178139094044584
 20
0.6160782408158996
 10
0.6211514918193256
 20
0.6128215859021479
 10
0.6245679912863343
 20
0.609647820158552
 10
0.8092602461778361
 20
0.44225250952818346
 10
0.8127536050770735
 20
0.4391635444090972
 10
0.8163217188075237
 20
0.4361612409080523
 10
0.8182191539679252
 20
0.4346040559664702
 10
0.8218598728688824
 20
0.4316902228415454
 10
0.8255710042597973
 20
0.4288666149730439
 10
1.0257815178075564
 20
0.2803803553298302
 10
1.0295608266215202
 20
0.27764867328587456
 10
1.033406035982364
 20
0.2750105628120978
 10
1.0354469652215927
 20
0.27364685720961157
 10
1.0393557585315443
 20
0.2711039076503483
 10
1.0433257816592216
 20
0.2686576505161563
 10
1.257126419102947
 20
0.14051044427884088
 10
1.261155281058446
 20
0.13816235287479092
 10
1.2652405546188494
 20
0.13591384184859817
 10
1.267405322692476
 20
0.13475674880239535
 10
1.2715445466325985
 20
0.13260917277886944
 10
1.2757352280421785
 20
0.1305638251490748
 10
1.5010669744311245
 20
0.023989798729552064
 10
1.5053065894250452
 20
0.02204791134605502
 10
1.5095925838078705
 20
0.02021065413563114
 10
1.5118603428366817
 20
0.019271317073232902
 10
1.5161901344565676
 20
0.017539796896344967
 10
1.5205611156345546
 20
0.015915056567465946
 10
1.7552539052455436
 20
-0.06805942492849848
 10
1.7596634435077416
 20
-0.06957640687259528
 10
1.764108882284397
 20
-0.07098471649320853
 10
1.7664577925312772
 20
-0.07169725125155818
 10
1.7709364536135568
 20
-0.07299604011320668
 10
1.7754456396650422
 20
-0.07418452601979353
 10
2.017239254902327
 20
-0.13475074324044
 10
2.0217762502108845
 20
-0.13582821039432222
 10
2.0263383214182173
 20
-0.13679400964716787
 10
2.028745761615818
 20
-0.1372728800090564
 10
2.0333301602496574
 20
-0.13812642952132018
 10
2.0379341252919634
 20
-0.13886721524813758
 10
2.2844999637955627
 20
-0.17544188299709582
 10
2.2891207224505434
 20
-0.1760694587737686
 10
2.2937554908942595
 20
-0.17658344649364208
 10
2.2961982761010127
 20
-0.17682404068037724
 10
2.300844262064451
 20
-0.17722413070279167
 10
2.3054986674405837
 20
-0.17751008208524593
 10
2.5544621677778094
 20
-0.18974096667115686
 10
2.5591222265455422
 20
-0.18991260809084157
 10
2.560349541277264
 20
-0.1899427372030387
 10
2.565012408830611
 20
-0.18999996250000195
 10
22.885012403920868
 20
-0.18999996249398365
 10
22.8896752714741
 20
-0.1899427371970204
 10
22.890902586205822
 20
-0.18991260808482327
 10
22.89556264498272
 20
-0.18974096666468832
 10
23.144526145319322
 20
-0.177510082066755
 10
23.14918055115595
 20
-0.17722413065010667
 10
23.15382653757793
 20
-0.1768240405709162
 10
23.156269322783817
 20
-0.17658344637215864
 10
23.160904090766728
 20
-0.17606945868605753
 10
23.165524848963393
 20
-0.17544188296568564
 10
23.412090687465046
 20
-0.13886721520484002
 10
23.41669465296155
 20
-0.13812642939898287
 10
23.42127905204544
 20
-0.13727287978543276
 10
23.423686492241135
 20
-0.13679400941165684
 10
23.428248562993918
 20
-0.1358282102374613
 10
23.43278555785261
 20
-0.13475074318436855
 10
23.67457917308667
 20
-0.0741845259520976
 10
23.679088359582906
 20
-0.07299603992219753
 10
23.683567021103624
 20
-0.07169725091547857
 10
23.68591593134654
 20
-0.07098471614574603
 10
23.690361369678037
 20
-0.06957640664809908
 10
23.694770907501912
 20
-0.06805942484856822
 10
23.92946369710929
 20
0.015915056658864363
 10
23.933834678717943
 20
0.01753979715411022
 10
23.93816447076007
 20
0.01927131751840469
 10
23.940432229784093
 20
0.020210654591858973
 10
23.94471822373584
 20
0.022047911636230294
 10
23.948957838307603
 20
0.023989798832844605
 10
24.17428958469132
 20
0.13056382526321023
 10
24.17848026651209
 20
0.13260917310023193
 10
24.182619490852986
 20
0.13475674935104523
 10
24.184784258920544
 20
0.13591384240762908
 10
24.188869532069305
 20
0.13816235322686243
 10
24.192898393624056
 20
0.14051044440415036
 10
24.406699031062367
 20
0.2686576506522519
 10
24.410669054580097
 20
0.2711039080337083
 10
24.414577848267736
 20
0.27364685785923515
 10
24.416618777500087
 20
0.27501056347161923
 10
24.420463986470402
 20
0.27764867369835616
 10
24.42424329490666
 20
0.2803803554765764
 10
24.624453808447555
 20
0.4288666151296951
 10
24.6281649402023
 20
0.43169022328241735
 10
24.631805659452922
 20
0.4346040567092526
 10
24.63370309460514
 20
0.43616124165970227
 10
24.63727120797126
 20
0.4391635448767011
 10
24.640764566520758
 20
0.4422525096943963
 10
24.82545682140413
 20
0.6096478203336466
 10
24.82887332120524
 20
0.6128215863956431
 10
24.832210903938382
 20
0.6160782416440054
 10
24.833946571692174
 20
0.6178139094063309
 10
24.83720322660523
 20
0.6211514918205363
 10
24.840376992348162
 20
0.6245679912868501
 10
25.00777230297806
 20
0.809260246177883
 10
25.01086126809502
 20
0.8127536050746537
 10
25.013863571594058
 20
0.8163217188025342
 10
25.015420756535335
 20
0.8182191539624313
 10
25.01833458966238
 20
0.8218598728658465
 10
25.021158197532877
 20
0.8255710042593191
 10
25.169644457176638
 20
1.0257815178078102
 10
25.172376139221733
 20
1.029560826623391
 10
25.17501424969657
 20
1.0334060359859072
 10
25.17637795529893
 20
1.0354469652250364
 10
25.17892090485706
 20
1.039355758533379
 10
25.181367161990195
 20
1.0433257816593946
 10
25.309514368227596
 20
1.2571264191033118
 10
25.311862459631804
 20
1.2611552810590902
 10
25.31411097065814
 20
1.2652405546197807
 10
25.31526806370443
 20
1.2674053226935849
 10
25.3174156397278
 20
1.2715445466334319
 10
25.31946098735745
 20
1.2757352280427297
 10
25.426035013776843
 20
1.5010669744314908
 10
25.427976901160097
 20
1.5053065894248612
 10
25.429814158370302
 20
1.5095925838071254
 10
25.430753495432693
 20
1.5118603428358797
 10
25.432485015609824
 20
1.51619013445631
 10
25.434109755938916
 20
1.5205611156348533
 10
25.51808423743486
 20
1.7552539052458422
 10
25.519601219379307
 20
1.7596634435091034
 10
25.52100952900022
 20
1.7641088822868383
 10
25.5217220637584
 20
1.7664577925332565
 10
25.523020852619698
 20
1.7709364536144776
 10
25.524209338525985
 20
1.775445639664889
 10
25.58477555574685
 20
2.0172392549031897
 10
25.58585302290055
 20
2.0217762502109267
 10
25.58681882215325
 20
2.0263383214174295
 10
25.587297692514998
 20
2.028745761614206
 10
25.588151242027443
 20
2.0333301602488643
 10
25.588892027754405
 20
2.0379341252919962
 10
25.62546669550334
 20
2.284499963795617
 10
25.62609427127994
 20
2.289120722450008
 10
25.62660825899977
 20
2.293755490893131
 10
25.62684885318649
 20
2.296198276099586
 10
25.627248943208976
 20
2.3008442620636083
 10
25.627534894591474
 20
2.3054986674403275
 10
25.639765779177406
 20
2.5544621677781643
 10
25.639937420597118
 20
2.5591222265470166
 10
25.639967549709308
 20
2.5603495412787454
 10
25.640024775006246
 20
2.565012408831
 10
25.64002477500022
 20
15.265012403921103
 10
25.639967549703282
 20
15.269675271473204
 10
25.639937420591092
 20
15.270902586204926
 10
25.63976577917093
 20
15.275562644982932
 10
25.627534894573003
 20
15.524526145319134
 10
25.627248943156474
 20
15.529180551154173
 10
25.626848853077476
 20
15.533826537574575
 10
25.62660825887876
 20
15.536269322780447
 10
25.626094271192546
 20
15.540904090764938
 10
25.625466695471978
 20
15.54552484896318
 10
25.588892027711076
 20
15.79209068746523
 10
25.588151241904757
 20
15.7966946529644
 10
25.587297692290612
 20
15.801279052050932
 10
25.58681882191673
 20
15.803686492246806
 10
25.585853022743
 20
15.808248562996914
 10
25.584775555690502
 20
15.812785557852957
 10
25.524209338458267
 20
16.054579173086992
 10
25.52302085242833
 20
16.05908835958336
 10
25.52172206342157
 20
16.063567021104202
 10
25.521009528651682
 20
16.06591593134762
 10
25.519601219154065
 20
16.070361369679013
 10
25.518084237354568
 20
16.074770907502785
 10
25.434109755847512
 20
16.309463697109
 10
25.432485015351496
 20
16.31383467871964
 10
25.430753494986337
 20
16.318164470763723
 10
25.42981415791238
 20
16.320432229788818
 10
25.427976900868778
 20
16.324718223738564
 10
25.42603501367303
 20
16.32895783830837
 10
25.319460987242607
 20
16.55428958469217
 10
25.31741563940525
 20
16.558480266513605
 10
25.315268063154072
 20
16.56261949085515
 10
25.31411097009775
 20
16.564784258922174
 10
25.31186245927885
 20
16.568869532070277
 10
25.309514368101922
 20
16.57289839362439
 10
25.181367161853807
 20
16.78669903106265
 10
25.17892090447377
 20
16.790669054578135
 10
25.176377954649773
 20
16.7945778482636
 10
25.175014249037808
 20
16.796618777495446
 10
25.172376138809664
 20
16.80046398646799
 10
25.16964445702993
 20
16.804243294906396
 10
25.021158197377357
 20
17.00445380844661
 10
25.01833458922383
 20
17.008164940202384
 10
25.015420755796143
 20
17.011805659453998
 10
25.013863570844606
 20
17.013703094607486
 10
25.0108612676284
 20
17.01727120797259
 10
25.007772302811546
 20
17.020764566521112
 10
24.84037699217221
 20
17.20545682140455
 10
24.837203226110887
 20
17.208873321204948
 10
24.833946570863237
 20
17.212210903937414
 10
24.8322109031018
 20
17.213946571690354
 10
24.82887332068693
 20
17.217203226604106
 10
24.825456821219923
 20
17.220376992347703
 10
24.640764566328365
 20
17.38777230297812
 10
24.63727120742947
 20
17.390861268096906
 10
24.633703093699385
 20
17.39386357159767
 10
24.631805658538898
 20
17.395420756539338
 10
24.62816493963759
 20
17.398334589664564
 10
24.62445380824631
 20
17.40115819753335
 10
24.424243294698595
 20
17.54964445717652
 10
24.4204639858844
 20
17.552376139220637
 10
24.416618776523315
 20
17.555014249694565
 10
24.414577847284455
 20
17.556377955296796
 10
24.410669053974743
 20
17.558920904855892
 10
24.40669903084731
 20
17.56136716198993
 10
24.192898393403087
 20
17.689514368227552
 10
24.188869531447136
 20
17.691862459631857
 10
24.184784257886268
 20
17.694110970658286
 10
24.182619489813025
 20
17.69526806370427
 10
24.178480265873358
 20
17.697415639727534
 10
24.174289584464244
 20
17.699460987357096
 10
23.948957838075213
 20
17.806035013776675
 10
23.944718223081917
 20
17.807976901159893
 10
23.94043222869973
 20
17.809814158370074
 10
23.938164469671275
 20
17.810753495432344
 10
23.933834678050758
 20
17.81248501560951
 10
23.92946369687213
 20
17.814109755938638
 10
23.69477090726083
 20
17.898084237434716
 10
23.69036136899866
 20
17.899601219378802
 10
23.68591593022203
 20
17.90100952899941
 10
23.683567019974966
 20
17.901722063757816
 10
23.67908835889266
 20
17.903020852619473
 10
23.674579172841145
 20
17.904209338526066
 10
23.432785557603875
 20
17.964775555746712
 10
23.428248562294844
 20
17.965853022900703
 10
23.423686491087032
 20
17.96681882215363
 10
23.421279050889403
 20
17.967297692515512
 10
23.416694652256034
 20
17.96815124202767
 10
23.4120906872142
 20
17.968892027754407
 10
23.165524848710472
 20
18.005466695503372
 10
23.160904090055638
 20
18.006094271280027
 10
23.156269321612072
 20
18.006608258999886
 10
23.153826536405646
 20
18.006848853186593
 10
23.149180550442065
 20
18.007248943209028
 10
23.144526145065786
 20
18.00753489459149
 10
22.895562644728418
 20
18.01976577917741
 10
22.8909025859609
 20
18.01993742059709
 10
22.889675271229237
 20
18.019967549709285
 10
22.885012403675674
 20
18.020024775006256
 10
2.5650124085854036
 20
18.020024775000238
 10
2.5603495410320614
 20
18.01996754970327
 10
2.559122226300368
 20
18.019937420591074
 10
2.5544621675235817
 20
18.019765779170942
 10
2.305498667186882
 20
18.00753489457301
 10
2.300844261350708
 20
18.007248943156394
 10
2.2961982749291767
 20
18.00684885307726
 10
2.293755489723603
 20
18.006608258878543
 10
2.2891207217402436
 20
18.00609427119241
 10
2.284499963543129
 20
18.00546669547198
 10
2.037934125041306
 20
17.96889202771112
 10
2.033330159544694
 20
17.968151241905247
 10
2.0287457604606978
 20
17.967297692291673
 10
2.0263383202650864
 20
17.96681882191791
 10
2.021776249512406
 20
17.965853022743733
 10
2.017239254653817
 20
17.964775555690665
 10
1.7754456394195453
 20
17.904209338458344
 10
1.7709364529228424
 20
17.903020852428313
 10
1.7664577914016668
 20
17.901722063421445
 10
1.7641088811583963
 20
17.901009528651592
 10
1.759663442827361
 20
17.89960121915407
 10
1.7552539050039395
 20
17.898084237354688
 10
1.5205611153970149
 20
17.814109755847404
 10
1.516190133788191
 20
17.812485015352095
 10
1.5118603417458913
 20
17.810753494987726
 10
1.5095925827216419
 20
17.80981415791417
 10
1.5053065887700752
 20
17.807976900869868
 10
1.5010669741984852
 20
17.80603501367333
 10
1.2757352278148968
 20
17.69946098724303
 10
1.271544545993686
 20
17.697415639405786
 10
1.267405321652358
 20
17.695268063154728
 10
1.2652405535846005
 20
17.694110970098023
 10
1.2611552804362824
 20
17.69186245927901
 10
1.2571264188819626
 20
17.68951436810197
 10
1.043325781444149
 20
17.561367161854175
 10
1.0393557579269497
 20
17.55892090447305
 10
1.0354469642398245
 20
17.55637795464789
 10
1.0334060350070617
 20
17.55501424903525
 10
1.0295608260362115
 20
17.552376138808174
 10
1.0257815175994383
 20
17.54964445702959
 10
0.8255710040590261
 20
17.401158197376827
 10
0.8218598723044915
 20
17.398334589224266
 10
0.8182191530540707
 20
17.395420755797605
 10
0.8163217179014283
 20
17.393863570846815
 10
0.8127536045350998
 20
17.390861267629656
 10
0.8092602459854056
 20
17.38777230281179
 10
0.6245679911021035
 20
17.220376992172618
 10
0.6211514913009923
 20
17.21720322611062
 10
0.6178139085678476
 20
17.213946570862255
 10
0.6160782408143683
 20
17.212210903100242
 10
0.6128215859013231
 20
17.208873320686045
 10
0.6096478201583986
 20
17.205456821219745
 10
0.44225250952801587
 20
17.020764566328236
 10
0.43916354440878314
 20
17.017271207428827
 10
0.436161240907599
 20
17.0137030936982
 10
0.4346040559661235
 20
17.01180565853792
 10
0.4316902228413412
 20
17.008164939637126
 10
0.4288666149729742
 20
17.00445380824638
 10
0.2803803553299239
 20
16.80424329469882
 10
0.27764867328631937
 20
16.800463985885358
 10
0.27501056281287056
 20
16.79661877652503
 10
0.2736468572103133
 20
16.794577847285723
 10
0.2711039076506989
 20
16.790669053975275
 10
0.2686576505161824
 20
16.786699030847082
 10
0.14051044427876747
 20
16.57289839340318
 10
0.1381623528745497
 20
16.568869531447387
 10
0.13591384184820413
 20
16.56478425788668
 10
0.13475674880218605
 20
16.56261948981338
 10
0.13260917277882797
 20
16.558480265873552
 10
0.13056382514918558
 20
16.554289584464275
 10
0.02398979872953494
 20
16.328957838075038
 10
0.022047911346298632
 20
16.324718223081703
 10
0.02021065413610587
 20
16.320432228699477
 10
0.019271317073672106
 20
16.318164469670624
 10
0.017539796896526128
 20
16.313834678050156
 10
0.01591505656741743
 20
16.309463696871575
 10
-0.06805942492851147
 20
16.0747709072607
 10
-0.06957640687273325
 20
16.07036136899812
 10
-0.07098471649345289
 20
16.06591593022108
 10
-0.07169725125173149
 20
16.0635670199744
 10
-0.07299604011325353
 20
16.059088358892506
 10
-0.07418452601973285
 20
16.05457917284141
 10
-0.13475074324042907
 20
15.812785557604013
 10
-0.13582821039434922
 20
15.808248562295287
 10
-0.13679400964722474
 20
15.803686491087785
 10
-0.13727288000909907
 20
15.801279050890233
 10
-0.1381264295213275
 20
15.796694652256551
 10
-0.1388672152481172
 20
15.792090687214403
 10
-0.17544188299708255
 20
15.545524848710697
 10
-0.17606945877369878
 20
15.540904090056173
 10
-0.176583446493538
 20
15.536269321612918
 10
-0.17682404068027316
 20
15.533826536406286
 10
-0.17722413070274406
 20
15.529180550442389
 10
-0.17751008208523208
 20
15.524526145065796
 10
-0.18974096667116433
 20
15.275562644727945
 10
-0.18991260809087565
 20
15.27090258595912
 10
-0.18994273720306568
 20
15.269675271227399
 10
-0.18999996250000195
 20
15.265012403675117
 10
-0.18999996249397655
 20
2.5650124085852988
 10
-0.18994273821784322
 20
2.560349582615972
 10
-0.18992014125091153
 20
2.5597360702471588
  0
LWPOLYLINE
  5
35
330
17
100
AcDbEntity
  8
0
100
AcDbPolyline
 90
394
 70
0
 10
-0.2099141124928861
 20
2.5592452424052845
 10
-0.20990657839323398
 20
2.558631358387538
 10
-0.2097168704325783
 20
2.5534808069088064
 10
-0.19748598583468052
 20
2.304517306572611
 10
-0.19716993427052387
 20
2.299372963305663
 10
-0.19672772944841896
 20
2.2942379257074847
 10
-0.1964871352496614
 20
2.291795140501506
 10
-0.1959190435994216
 20
2.2866725022298993
 10
-0.1952254072803349
 20
2.2815653484588005
 10
-0.15865073951940403
 20
2.034999509956551
 10
-0.15783197626445236
 20
2.029910916538838
 10
-0.15688857932795247
 20
2.024843949156008
 10
-0.15640970895441103
 20
2.0224365089614555
 10
-0.15534224671454797
 20
2.017394220259681
 10
-0.15415136208282507
 20
2.012379647019663
 10
-0.09358514485026279
 20
1.770586031784446
 10
-0.09227155503449411
 20
1.765602194103669
 10
-0.090836051402883
 20
1.7606520945535535
 10
-0.09012351663324994
 20
1.7583031843109154
 10
-0.08856696403821715
 20
1.753389805126427
 10
-0.08689029995220002
 20
1.7485161054501719
 10
-0.0029158184446608504
 20
1.5138233158425936
 10
-0.0011200526428201962
 20
1.5089922309301365
 10
0.0007937330137322007
 20
1.5042066713278324
 10
0.0017330700871083238
 20
1.5019389123040519
 10
0.0037637225993431833
 20
1.4972017611187844
 10
0.00591001896343768
 20
1.4925158713532223
 10
0.11248404539373225
 20
1.267184124969641
 10
0.11474469299191398
 20
1.2625523187695582
 10
0.11711832988899953
 20
1.2579773866258992
 10
0.11827542294593155
 20
1.2558126185577083
 10
0.12076061910192587
 20
1.2512973166794266
 10
0.12335587775835843
 20
1.2468443644573612
 10
0.2515030840059057
 20
1.0330437270199455
 10
0.25420684215110934
 20
1.0286558063113362
 10
0.2570174708918782
 20
1.0243355606777684
 10
0.25838117650461045
 20
1.0222946314449204
 10
0.2612969825297676
 20
1.0180446636574063
 10
0.2643162097428647
 20
1.0138675333018938
 10
0.41280246939570625
 20
0.8136570197613467
 10
0.41592329944358175
 20
0.8095552425793159
 10
0.41914385216234484
 20
0.8055312897435558
 10
0.42070103711311424
 20
0.8036338545909489
 10
0.4240193722310782
 20
0.7996901503639231
 10
0.4274334912230182
 20
0.7958290698811763
 10
0.5948288018622117
 20
0.6111368149978671
 10
0.5983366485439883
 20
0.6073606836584537
 10
0.6019361095891466
 20
0.6036717764463191
 10
0.6036717773508823
 20
0.6019361086930815
 10
0.6073606842119815
 20
0.5983366480169772
 10
0.6111368151829053
 20
0.5948288016863754
 10
0.7958290700744071
 20
0.4274334910560069
 10
0.7996901509436841
 20
0.42401937173097237
 10
0.8036338555733611
 20
0.42070103629908234
 10
0.8055312907337626
 20
0.41914385135750026
 10
0.8095552431830715
 20
0.41592329897241065
 10
0.813657019962996
 20
0.4128024692386575
 10
1.0138675335107552
 20
0.2643162095954438
 10
1.018044664284198
 20
0.261296982088311
 10
1.0222946325038278
 20
0.2583811757898049
 10
1.0243355617430565
 20
0.2570174701873187
 10
1.028655806958716
 20
0.2542068417411687
 10
1.0330437272357331
 20
0.2515030838695619
 10
1.2468443646794585
 20
0.1233558776322464
 10
1.2512973173447948
 20
0.12076061872498947
 10
1.255812619678397
 20
0.11827542234007565
 10
1.2579773877520235
 20
0.11711832929387284
 10
1.2625523194523849
 20
0.11474469264818948
 10
1.267184125197651
 20
0.1124840452792217
 10
1.492515871586597
 20
0.005910018859698968
 10
1.4972017618195474
 20
0.0037637222886975075
 10
1.5019389134820829
 20
0.0017330695926182083
 10
1.504206672510894
 20
0.0007937325302199705
 10
1.5089922316457276
 20
-0.0011200529188526986
 10
1.513823316081392
 20
-0.002915818536507131
 10
1.748516105692381
 20
-0.08689030003247156
 10
1.753389805852486
 20
-0.08856696427806895
 10
1.7583031855283715
 20
-0.09012351700883925
 10
1.7606520957752516
 20
-0.0908360517671889
 10
1.7656021948413796
 20
-0.09227155523865746
 10
1.7705860320311977
 20
-0.09358514491830064
 10
2.012379647268482
 20
-0.15415136213894712
 10
2.017394221005437
 20
-0.15534224688200546
 10
2.0224365102093196
 20
-0.1564097092087474
 10
2.0248439504069204
 20
-0.15688857957063593
 10
2.0299109172926073
 20
-0.15783197639525126
 10
2.0349995102085967
 20
-0.15865073956289272
 10
2.281565348712196
 20
-0.19522540731185095
 10
2.28667250298947
 20
-0.1959190436931177
 10
2.2917951417700047
 20
-0.19648713538065657
 10
2.294237926976758
 20
-0.19672772956739173
 10
2.299372964068503
 20
-0.19716993432679114
 10
2.3045173068268636
 20
-0.1974859858531827
 10
2.5534808071640893
 20
-0.20971687043909362
 10
2.5586313984078712
 20
-0.20990657937568893
 10
2.559858713139593
 20
-0.20993670848788606
 10
2.5650124088306168
 20
-0.20999995750000208
 10
22.885012403920875
 20
-0.20999995749398379
 10
22.890166099611772
 20
-0.20993670848186777
 10
22.891393414343494
 20
-0.20990657936967064
 10
22.896544005597406
 20
-0.20971687043257764
 10
23.145507505934006
 20
-0.19748598583464433
 10
23.150651849201335
 20
-0.1971699342704594
 10
23.15578688679989
 20
-0.1967277294483075
 10
23.158229672005778
 20
-0.19648713524954994
 10
23.163352310277
 20
-0.19591904359933854
 10
23.168459464047714
 20
-0.195225407280299
 10
23.415025302549367
 20
-0.15865073951945338
 10
23.420113895967365
 20
-0.15783197626445233
 10
23.425180863350477
 20
-0.1568885793278888
 10
23.427588303546173
 20
-0.15640970895411288
 10
23.432630592247662
 20
-0.1553422467142998
 10
23.437645165487396
 20
-0.15415136208264058
 10
23.679438780721455
 20
-0.09358514485036962
 10
23.68442261840284
 20
-0.0922715550344324
 10
23.689372717953557
 20
-0.09083605140262327
 10
23.691721628196472
 20
-0.09012351663289073
 10
23.69663500738034
 20
-0.08856696403803033
 10
23.701508707055982
 20
-0.08689029995221659
 10
23.93620149666336
 20
-0.002915818444784002
 10
23.941032581575023
 20
-0.0011200526432500468
 10
23.94581814117655
 20
0.0007937330129558218
 10
23.94808590020057
 20
0.0017330700864101045
 10
23.95282305138665
 20
0.0037637225989582968
 10
23.957508941153005
 20
0.005910018963404484
 10
24.18284068753672
 20
0.1124840453937701
 10
24.187472493736458
 20
0.11474469299177881
 10
24.19204742587978
 20
0.11711832988867404
 10
24.19421219394734
 20
0.11827542294525789
 10
24.19872749582597
 20
0.12076061910142788
 10
24.203180448048375
 20
0.12335587775805232
 10
24.416981085486686
 20
0.25150308400615384
 10
24.421369006194812
 20
0.2542068421510536
 10
24.425689251827915
 20
0.2570174708914943
 10
24.427730181060266
 20
0.2583811765038784
 10
24.43198014884826
 20
0.2612969825293405
 10
24.436157279204238
 20
0.2643162097427657
 10
24.636367792745133
 20
0.4128024693958844
 10
24.640469569927184
 20
0.41592329944377615
 10
24.644493522762964
 20
0.41914385216255634
 10
24.64639095791518
 20
0.420701037113006
 10
24.650334662142182
 20
0.4240193722309501
 10
24.654195742624903
 20
0.42743349122286856
 10
24.838887997508277
 20
0.5948288018621188
 10
24.84266412884847
 20
0.5983366485446371
 10
24.846353036061345
 20
0.6019361095905739
 10
24.848088703815137
 20
0.6036717773528993
 10
24.851688164490472
 20
0.607360684213267
 10
24.85519601082034
 20
0.611136815183423
 10
25.02259132145024
 20
0.7958290700744558
 10
25.026005440772924
 20
0.7996901509410066
 10
25.029323776202595
 20
0.8036338555678435
 10
25.030880961143872
 20
0.8055312907277405
 10
25.034101513531304
 20
0.8095552431797663
 10
25.037222343267263
 20
0.8136570199625176
 10
25.185708602911024
 20
1.0138675335110086
 10
25.188727830419417
 20
1.0180446642862389
 10
25.191643636719093
 20
1.022294632507717
 10
25.19300734232145
 20
1.0243355617468461
 10
25.19581797076635
 20
1.028655806960727
 10
25.19852172863679
 20
1.0330437272359079
 10
25.326668934874192
 20
1.246844364679825
 10
25.329264193781622
 20
1.25129731734547
 10
25.331749390166696
 20
1.2558126196793895
 10
25.332906483212984
 20
1.2579773877531937
 10
25.335280119858496
 20
1.2625523194532504
 10
25.337540767227303
 20
1.2671841251982048
 10
25.444114793646698
 20
1.492515871586966
 10
25.44626109021743
 20
1.4972017618193085
 10
25.44829174291327
 20
1.5019389134812235
 10
25.44923107997566
 20
1.5042066725099779
 10
25.451144865425
 20
1.5089922316454134
 10
25.45294063104289
 20
1.5138233160816923
 10
25.536915112538832
 20
1.7485161056926812
 10
25.53859177678482
 20
1.7533898058539608
 10
25.54014832951592
 20
1.7583031855310396
 10
25.540860864274098
 20
1.7606520957774578
 10
25.54229636774518
 20
1.7656021948424159
 10
25.543609957424493
 20
1.7705860320310471
 10
25.60417617464536
 20
2.012379647269348
 10
25.605367059388215
 20
2.0173942210053952
 10
25.606434521714796
 20
2.022436510208361
 10
25.606913392076542
 20
2.0248439504051374
 10
25.607856788901362
 20
2.029910917291729
 10
25.60867555206916
 20
2.0349995102086313
 10
25.645250219818095
 20
2.281565348712252
 10
25.64594385619928
 20
2.286672502988874
 10
25.646511947886772
 20
2.291795141768754
 10
25.646752542073493
 20
2.294237926975209
 10
25.647194746832973
 20
2.299372964067599
 10
25.647510798359413
 20
2.304517306826608
 10
25.659741682945345
 20
2.5534808071644446
 10
25.65993139188197
 20
2.5586313984094637
 10
25.65996152099416
 20
2.5598587131411925
 10
25.660024770006245
 20
2.5650124088310093
 10
25.66002477000022
 20
15.265012403921112
 10
25.659961520988134
 20
15.27016609961076
 10
25.659931391875944
 20
15.271393414342482
 10
25.65974168293882
 20
15.276544005597618
 10
25.647510798340893
 20
15.52550750593382
 10
25.647194746776837
 20
15.530651849199392
 10
25.6467525419549
 20
15.5357868867962
 10
25.646511947756185
 20
15.538229672002073
 10
25.645943856105845
 20
15.543352310275045
 10
25.645250219786593
 20
15.548459464047502
 10
25.60867555202569
 20
15.795025302549552
 10
25.607856788770178
 20
15.800113895970497
 10
25.606913391832958
 20
15.80518086335653
 10
25.606434521459075
 20
15.807588303552404
 10
25.605367059219777
 20
15.812630592250931
 10
25.604176174588776
 20
15.817645165487736
 10
25.54360995735654
 20
16.059438780721774
 10
25.542296367540565
 20
16.064422618403302
 10
25.54086086390871
 20
16.069372717954156
 10
25.54014832913882
 20
16.071721628197576
 10
25.538591776543992
 20
16.076635007381327
 10
25.536915112458214
 20
16.08150870705686
 10
25.452940630951158
 20
16.316201496663073
 10
25.451144865148777
 20
16.321032581576933
 10
25.44923107949161
 20
16.325818141180616
 10
25.448291742417652
 20
16.32808590020571
 10
25.44626108990596
 20
16.33282305138958
 10
25.44411479354247
 20
16.33750894115377
 10
25.33754076711205
 20
16.562840687537573
 10
25.33528011951367
 20
16.567472493738045
 10
25.33290648261637
 20
16.572047425882083
 10
25.33174938956005
 20
16.57421219394911
 10
25.329264193404242
 20
16.57872749582701
 10
25.326668934748017
 20
16.583180448048708
 10
25.1985217284999
 20
16.79698108548697
 10
25.195817970356575
 20
16.801369006192616
 10
25.193007341617825
 20
16.805689251823313
 10
25.19164363600586
 20
16.80773018105516
 10
25.18872782997884
 20
16.811980148845613
 10
25.185708602763743
 20
16.81615727920397
 10
25.03722234311117
 20
17.016367792744184
 10
25.03410151306239
 20
17.020469569927375
 10
25.030880960342664
 20
17.024493522764253
 10
25.029323775391127
 20
17.02639095791774
 10
25.02600544027406
 20
17.030334662143616
 10
25.02259132128307
 20
17.034195742625258
 10
24.855196010643734
 20
17.218887997508695
 10
24.851688163961963
 20
17.222664128848102
 10
24.84808870291681
 20
17.22635303606023
 10
24.846353035155374
 20
17.22808870381317
 10
24.842664128294274
 20
17.231688164489274
 10
24.83888799732335
 20
17.235196010819877
 10
24.654195742431792
 20
17.402591321450295
 10
24.650334661562898
 20
17.406005440775
 10
24.64639095693362
 20
17.409323776206577
 10
24.644493521773132
 20
17.410880961148244
 10
24.64046956932344
 20
17.41410151353367
 10
24.636367792543112
 20
17.417222343267735
 10
24.436157278995395
 20
17.565708602910906
 10
24.431980148221697
 20
17.56872783041822
 10
24.427730180001802
 20
17.571643636716892
 10
24.425689250762943
 20
17.573007342319123
 10
24.421369005547547
 20
17.575817970765087
 10
24.4169810852708
 20
17.578521728636524
 10
24.203180447826576
 20
17.706668934874145
 10
24.19872749516074
 20
17.709264193781685
 10
24.194212192826622
 20
17.711749390166858
 10
24.19204742475338
 20
17.71290648321284
 10
24.187472493053523
 20
17.71528011985824
 10
24.182840687308772
 20
17.717540767226946
 10
23.95750894091974
 20
17.824114793646526
 10
23.95282305068748
 20
17.826261090217223
 10
23.948085899025653
 20
17.82829174291303
 10
23.945818139997197
 20
17.8292310799753
 10
23.941032580861666
 20
17.83114486542468
 10
23.936201496425294
 20
17.83294063104261
 10
23.701508706813993
 20
17.91691511253869
 10
23.696635006653917
 20
17.918591776784275
 10
23.69172162697806
 20
17.920148329515037
 10
23.689372716730997
 20
17.920860864273443
 10
23.68442261766484
 20
17.922296367744924
 10
23.679438780474992
 20
17.923609957424574
 10
23.437645165237722
 20
17.98417617464522
 10
23.432630591500242
 20
17.985367059388395
 10
23.42758830229583
 20
17.98643452171523
 10
23.425180862098202
 20
17.98691339207711
 10
23.42011389521303
 20
17.98785678890161
 10
23.415025302297565
 20
17.98867555206916
 10
23.168459463793837
 20
18.025250219818126
 10
23.16335230951673
 20
18.025943856199373
 10
23.158229670736358
 20
18.0265119478869
 10
23.15578688552993
 20
18.026752542073606
 10
23.150651848438027
 20
18.027194746833025
 10
23.145507505679507
 20
18.02751079835943
 10
22.89654400534214
 20
18.039741682945348
 10
22.891393414098594
 20
18.039931391881936
 10
22.89016609936693
 20
18.039961520994133
 10
22.885012403675667
 20
18.040024770006255
 10
2.565012408585398
 20
18.040024770000237
 10
2.559858712894379
 20
18.03996152098812
 10
2.5586313981626856
 20
18.03993139187592
 10
2.553480806908897
 20
18.039741682938832
 10
2.304517306572197
 20
18.0275107983409
 10
2.29937296330537
 20
18.02719474677675
 10
2.294237925707312
 20
18.026752541954657
 10
2.2917951405017383
 20
18.026511947755942
 10
2.2866725022300183
 20
18.025943856105695
 10
2.281565348458807
 20
18.025250219786596
 10
2.034999509956984
 20
17.988675552025736
 10
2.0299109165388676
 20
17.987856788770713
 10
2.0248439491556383
 20
17.986913391834126
 10
2.022436508960027
 20
17.986434521460364
 10
2.0173942202586543
 20
17.985367059220568
 10
2.0123796470190345
 20
17.984176174588935
 10
1.7705860317847626
 20
17.923609957356614
 10
1.7656021941028617
 20
17.922296367540536
 10
1.7606520945516384
 20
17.92086086390856
 10
1.7583031843083679
 20
17.920148329138705
 10
1.7533898051250099
 20
17.918591776543987
 10
1.7485161054498684
 20
17.916915112458337
 10
1.5138233158429437
 20
17.832940630951054
 10
1.508992230931091
 20
17.831144865149447
 10
1.5042066713293794
 20
17.82923107949316
 10
1.5019389123051299
 20
17.828291742419605
 10
1.497201761119248
 20
17.82626108990713
 10
1.4925158713530846
 20
17.82411479354277
 10
1.2671841249694962
 20
17.717540767112467
 10
1.2625523187692698
 20
17.715280119514215
 10
1.257977386625471
 20
17.71290648261705
 10
1.2558126185577136
 20
17.711749389560346
 10
1.2512973166795731
 20
17.709264193404422
 10
1.2468443644576461
 20
17.706668934748066
 10
1.0330437270198325
 20
17.57852172850027
 10
1.0286558063122901
 20
17.575817970355743
 10
1.0243355606797557
 20
17.573007341615703
 10
1.022294631446993
 20
17.571643636003063
 10
1.0180446636584088
 20
17.568727829977227
 10
1.0138675333018607
 20
17.5657086027634
 10
0.8136570197614484
 20
17.417222343110637
 10
0.8095552425796282
 20
17.414101513062924
 10
0.8055312897440703
 20
17.410880960344336
 10
0.8036338545914279
 20
17.409323775393545
 10
0.7996901503642009
 20
17.406005440275425
 10
0.7958290698812613
 20
17.402591321283317
 10
0.6111368149979592
 20
17.235196010644145
 10
0.6073606836577636
 20
17.231688163961625
 10
0.6036717764448847
 20
17.228088702915684
 10
0.6019361086914055
 20
17.22635303515367
 10
0.598336648016081
 20
17.222664128293317
 10
0.5948288016862223
 20
17.218887997323172
 10
0.4274334910558396
 20
17.034195742431663
 10
0.4240193717306421
 20
17.030334661562197
 10
0.42070103629859923
 20
17.026390956932325
 10
0.41914385135712373
 20
17.024493521772044
 10
0.41592329897219205
 20
17.02046956932292
 10
0.41280246923858716
 20
17.016367792543186
 10
0.26431620959553687
 20
16.816157278995625
 10
0.2612969820887935
 20
16.811980148222734
 10
0.25838117579064857
 20
16.807730180003674
 10
0.2570174701880913
 20
16.805689250764367
 10
0.2542068417415545
 20
16.801369005548157
 10
0.2515030838695877
 20
16.796981085270573
 10
0.12335587763217276
 20
16.58318044782667
 10
0.12076061872473065
 20
16.578727495161004
 10
0.11827542233964763
 20
16.574212192827066
 10
0.11711832929362956
 20
16.572047424753766
 10
0.11474469264813081
 20
16.56747249305373
 10
0.1124840452793322
 20
16.5628406873088
 10
0.005910018859681565
 20
16.337508940919562
 10
0.0037637222889676802
 20
16.33282305068726
 10
0.001733069593144454
 20
16.32808589902539
 10
0.0007937325307106891
 20
16.325818139996535
 10
-0.0011200529186477237
 20
16.321032580861058
 10
-0.002915818536555509
 20
16.316201496424735
 10
-0.08689030003248441
 20
16.08150870681386
 10
-0.08856696427822028
 20
16.076635006653337
 10
-0.09012351700910781
 20
16.071721626977027
 10
-0.0908360517673864
 20
16.069372716730346
 10
-0.09227155523871514
 20
16.064422617664643
 10
-0.09358514491823958
 20
16.059438780475258
 10
-0.1541513621389358
 20
15.817645165237858
 10
-0.15534224688203613
 20
15.812630591500719
 10
-0.15640970920881095
 20
15.807588302296649
 10
-0.15688857957068528
 20
15.805180862099098
 10
-0.15783197639526145
 20
15.800113895213585
 10
-0.15865073956287246
 20
15.79502530229777
 10
-0.1952254073118378
 20
15.548459463794064
 10
-0.19591904369304194
 20
15.543352309517296
 10
-0.19648713538054308
 20
15.53822967073727
 10
-0.19672772956727824
 20
15.535786885530637
 10
-0.19716993432674
 20
15.530651848438385
 10
-0.1974859858531689
 20
15.525507505679515
 10
-0.20971687043910114
 20
15.276544005341664
 10
-0.20990657937572585
 20
15.271393414096677
 10
-0.20993670848791587
 20
15.270166099364955
 10
-0.2099999575000021
 20
15.265012403675108
 10
-0.2099999574939767
 20
2.5650124085852894
 10
-0.20993670961014638
 20
2.5598587588555506
 10
-0.2099141124928861
 20
2.5592452424052845
  0
LWPOLYLINE
  5
36
330
17
100
AcDbEntity
  8
0
100
AcDbPolyline
 90
394
 70
0
 10
-0.22990808373486077
 20
2.55875441456341
 10
-0.22990054958508752
 20
2.558140526461756
 10
-0.22969277420046785
 20
2.5524994462941226
 10
-0.21746188960257007
 20
2.303535945957927
 10
-0.21711573789087943
 20
2.297901665260315
 10
-0.2166314183258176
 20
2.292277576485598
 10
-0.21639082412706004
 20
2.289834791279619
 10
-0.21576862851270717
 20
2.284224282719663
 10
-0.2150089315949484
 20
2.2786307333744786
 10
-0.17843426383401753
 20
2.0320648948722293
 10
-0.17753752312992657
 20
2.026491673533049
 10
-0.17650427887041936
 20
2.0209421378510246
 10
-0.17602540849687792
 20
2.018534697656472
 10
-0.17485628319139288
 20
2.0130121910059673
 10
-0.17355198098109717
 20
2.0075200393848798
 10
-0.11298576374853489
 20
1.7657264241496629
 10
-0.11154707014674559
 20
1.7602679352837953
 10
-0.10997485189006267
 20
1.7548463977037372
 10
-0.10926231712042961
 20
1.752497487461099
 10
-0.10755752142816716
 20
1.7471161674241802
 10
-0.10572117505584755
 20
1.7417783058960992
 10
-0.021746693548308382
 20
1.5070855162885208
 10
-0.019779902440150737
 20
1.5017943280729775
 10
-0.01768385149165369
 20
1.4965530009112047
 10
-0.016744514418277567
 20
1.4942852418874242
 10
-0.014520466437896284
 20
1.489096933467901
 10
-0.012169760906002774
 20
1.483964768507822
 10
0.09440426552429179
 20
1.2586330221242408
 10
0.09688021288347659
 20
1.253560091545156
 10
0.09947991042666265
 20
1.2485494515990394
 10
0.10063700348359467
 20
1.2463846835308485
 10
0.10335888497650816
 20
1.2414393529227317
 10
0.1062013111122597
 20
1.2365623100330454
 10
0.23434851735980697
 20
1.0227616725956297
 10
0.23730977626848235
 20
1.0179558546965766
 10
0.24038808392419686
 20
1.0132241571175
 10
0.2417517895369291
 20
1.011183227884652
 10
0.2449452913607823
 20
1.006528501279506
 10
0.24825206400905317
 20
1.0019535490043174
 10
0.39673832366189477
 20
0.8017430354637701
 10
0.4001563756049384
 20
0.7972506128544337
 10
0.40368364761564457
 20
0.7928434264335172
 10
0.40524083256641397
 20
0.7909459912809104
 10
0.40887519958532537
 20
0.7866266961930054
 10
0.41261447275149044
 20
0.7823978937770314
 10
0.5800097833906839
 20
0.5977056388937222
 10
0.5838517106929115
 20
0.5935698760152996
 10
0.5877939775355703
 20
0.5895296443235009
 10
0.589529645297306
 20
0.5877939765702632
 10
0.5935698766046373
 20
0.5838517101318064
 10
0.5977056390794763
 20
0.5800097832141988
 10
0.782397893970978
 20
0.4126144725838303
 10
0.7866266968102946
 20
0.40887519905284747
 10
0.7909459923391985
 20
0.40524083169011227
 10
0.7928434274996
 20
0.4036836467485302
 10
0.7972506134972605
 20
0.40015637510327584
 10
0.8017430356661948
 20
0.3967383235042711
 10
1.001953549213954
 20
0.24825206386105733
 10
1.006528501946876
 20
0.24494529089074735
 10
1.0111832290252916
 20
0.241751788767512
 10
1.0132241582645203
 20
0.24038808316502577
 10
1.0179558553858874
 20
0.237309775831989
 10
1.0227616728122446
 20
0.2343485172229673
 10
1.23656231025597
 20
0.10620131098565183
 10
1.2414393536311434
 20
0.10335888457518791
 10
1.2463846847379445
 20
0.10063700283155305
 10
1.248549452811571
 20
0.09947990978535023
 10
1.253560092272171
 20
0.09688021251750945
 10
1.2586330223531235
 20
0.09440426540936855
 10
1.4839647687420694
 20
-0.012169761010154184
 10
1.4890969342140499
 20
-0.0145204667686602
 10
1.4942852431562954
 20
-0.016744514950394807
 10
1.4965530021851066
 20
-0.017683852012793044
 10
1.5017943288348876
 20
-0.01977990273405053
 10
1.5070855165282295
 20
-0.02174669364048032
 10
1.7417783061392185
 20
-0.10572117513644474
 10
1.7471161681972305
 20
-0.10755752168354274
 10
1.752497488772346
 20
-0.10926231752447005
 10
1.754846399019226
 20
-0.1099748522828197
 10
1.7602679360692024
 20
-0.11154707036410838
 10
1.7657264243973532
 20
-0.11298576381680789
 10
2.0075200396346378
 20
-0.17355198103745437
 10
2.013012191799989
 20
-0.1748562833696889
 10
2.018534699000422
 20
-0.17602540877032702
 10
2.0209421391980227
 20
-0.17650427913221556
 10
2.0264916743355577
 20
-0.1775375232691825
 10
2.0320648951252305
 20
-0.17843426387764796
 10
2.27863073362883
 20
-0.2150089316266062
 10
2.2842242835283963
 20
-0.21576862861246696
 10
2.2898347926457503
 20
-0.2163908242676712
 10
2.2922775778525035
 20
-0.21663141845440637
 10
2.297901666072555
 20
-0.21711573795079073
 10
2.303535946213143
 20
-0.21746188962111956
 10
2.5524994465503688
 20
-0.2296927742070305
 10
2.5581405702702
 20
-0.22990055066053644
 10
2.5593678850019215
 20
-0.22993067977273357
 10
2.5650124088306225
 20
-0.22999995250000238
 10
22.88501240392088
 20
-0.22999995249398408
 10
22.890656927749443
 20
-0.22993067976671527
 10
22.891884242481165
 20
-0.22990055065451814
 10
22.897525366212093
 20
-0.22969277420046713
 10
23.146488866548694
 20
-0.21746188960253382
 10
23.152123147246723
 20
-0.21711573789081212
 10
23.15774723602185
 20
-0.21663141832569896
 10
23.160190021227738
 20
-0.2163908241269414
 10
23.165800529787273
 20
-0.2157686285126194
 10
23.17139407913204
 20
-0.21500893159491247
 10
23.41795991763369
 20
-0.17843426383406685
 10
23.423533138973184
 20
-0.17753752312992155
 10
23.429082674655515
 20
-0.17650427887034487
 10
23.43149011485121
 20
-0.17602540849656895
 10
23.437012621501403
 20
-0.17485628319113877
 10
23.442504773122177
 20
-0.17355198098091268
 10
23.684298388356236
 20
-0.11298576374864172
 10
23.68975687722277
 20
-0.11154707014666834
 10
23.695178414803486
 20
-0.109974851889768
 10
23.6975273250464
 20
-0.10926231712003545
 10
23.70290864508264
 20
-0.10755752142796274
 10
23.70824650661005
 20
-0.10572117505586504
 10
23.94293929621743
 20
-0.02174669354843245
 10
23.948230484432102
 20
-0.019779902440611646
 10
23.953471811593023
 20
-0.01768385149249313
 10
23.955739570617045
 20
-0.016744514419038847
 10
23.960927879037456
 20
-0.014520466438315144
 10
23.966060043998404
 20
-0.01216976090603572
 10
24.19139179038212
 20
0.0944042655243299
 10
24.19646472096083
 20
0.0968802128833248
 10
24.201475360906578
 20
0.09947991042630272
 10
24.203640128974136
 20
0.10063700348288657
 10
24.208585459582633
 20
0.10335888497599241
 10
24.21346250247269
 20
0.10620131111195419
 10
24.427263139911002
 20
0.23434851736005569
 10
24.432068957809527
 20
0.2373097762683979
 10
24.436800655388094
 20
0.24038808392375335
 10
24.438841584620445
 20
0.24175178953613743
 10
24.443496311226117
 20
0.2449452913603249
 10
24.448071263501816
 20
0.24825206400895494
 10
24.648281777042712
 20
0.3967383236620736
 10
24.652774199652068
 20
0.40015637560513473
 10
24.657181386073006
 20
0.40368364761585995
 10
24.659078821225222
 20
0.4052408325663096
 10
24.6633981163131
 20
0.4088751995851989
 10
24.66762691872905
 20
0.41261447275134067
 10
24.852319173612422
 20
0.580009783390591
 10
24.856454936491698
 20
0.583851710693631
 10
24.860495168184308
 20
0.5877939775371424
 10
24.8622308359381
 20
0.5895296452994678
 10
24.86617310237571
 20
0.5935698766059978
 10
24.870015029292517
 20
0.5977056390799959
 10
25.037410339922417
 20
0.7823978939710287
 10
25.041149613450823
 20
0.7866266968073594
 10
25.044783980811133
 20
0.7909459923331527
 10
25.04634116575241
 20
0.7928434274930497
 10
25.049868437400228
 20
0.7972506134936861
 10
25.05328648900165
 20
0.801743035665716
 10
25.20177274864541
 20
1.001953549214207
 10
25.2050795216171
 20
1.0065285019490873
 10
25.20827302374162
 20
1.0111832290295266
 10
25.209636729343977
 20
1.0132241582686559
 10
25.21271503667564
 20
1.0179558553880759
 10
25.215676295283387
 20
1.0227616728124211
 10
25.343823501520788
 20
1.2365623102563383
 10
25.346665927931443
 20
1.2414393536318504
 10
25.349387809675253
 20
1.2463846847389983
 10
25.35054490272154
 20
1.2485494528128025
 10
25.35314459998919
 20
1.2535600922730694
 10
25.355620547097157
 20
1.25863302235368
 10
25.462194573516552
 20
1.483964768742441
 10
25.464545279274763
 20
1.4890969342137552
 10
25.466769327456234
 20
1.4942852431553215
 10
25.467708664518625
 20
1.4965530021840758
 10
25.469804715240176
 20
1.5017943288345164
 10
25.471771506146865
 20
1.507085516528531
 10
25.55574598764281
 20
1.74177830613952
 10
25.55758233419033
 20
1.7471161681988188
 10
25.559287130031617
 20
1.7524974887752411
 10
25.559999664789796
 20
1.7548463990216594
 10
25.561571882870663
 20
1.7602679360703544
 10
25.563010576323002
 20
1.7657264243972053
 10
25.62357679354387
 20
2.007520039635506
 10
25.624881095875878
 20
2.0130121917998633
 10
25.62605022127634
 20
2.0185346989992916
 10
25.626529091638087
 20
2.0209421391960682
 10
25.627562335775277
 20
2.026491674334594
 10
25.628459076383916
 20
2.0320648951252664
 10
25.665033744132852
 20
2.278630733628887
 10
25.665793441118623
 20
2.28422428352774
 10
25.666415636773774
 20
2.2898347926443767
 10
25.666656230960495
 20
2.2922775778508315
 10
25.667140550456967
 20
2.29790166607159
 10
25.66748670212735
 20
2.303535946212888
 10
25.67971758671328
 20
2.552499446550725
 10
25.67992536316682
 20
2.5581405702719113
 10
25.67995549227901
 20
2.55936788500364
 10
25.680024765006245
 20
2.565012408831019
 10
25.68002476500022
 20
15.265012403921121
 10
25.679955492272985
 20
15.270656927748314
 10
25.679925363160795
 20
15.271884242480036
 10
25.67971758670671
 20
15.277525366212304
 10
25.667486702108782
 20
15.526488866548506
 10
25.667140550397203
 20
15.532123147244612
 10
25.666656230832327
 20
15.537747236017829
 10
25.666415636633612
 20
15.540190021223701
 10
25.665793441019147
 20
15.545800529785152
 10
25.665033744101205
 20
15.551394079131825
 10
25.628459076340302
 20
15.797959917633875
 10
25.6275623356356
 20
15.803533138976594
 10
25.626529091375303
 20
15.809082674662125
 10
25.62605022100142
 20
15.811490114858
 10
25.62488109569655
 20
15.817012621504949
 10
25.623576793487047
 20
15.822504773122517
 10
25.56301057625481
 20
16.064298388356555
 10
25.561571882652796
 20
16.069756877223245
 10
25.559999664395846
 20
16.075178414804114
 10
25.559287129625957
 20
16.077527325047534
 10
25.55758233393392
 20
16.082908645083645
 10
25.55574598756186
 20
16.088246506610933
 10
25.471771506054804
 20
16.322939296217147
 10
25.469804714946054
 20
16.32823048443423
 10
25.467708663996888
 20
16.33347181159751
 10
25.46676932692293
 20
16.335739570622604
 10
25.464545278943138
 20
16.340927879040596
 10
25.46219457341191
 20
16.346060043999174
 10
25.355620546981488
 20
16.571391790382975
 10
25.353144599622087
 20
16.576464720962484
 10
25.350544902078667
 20
16.581475360909018
 10
25.349387809022346
 20
16.583640128976043
 10
25.34666592752964
 20
16.588585459583744
 10
25.343823501394116
 20
16.593462502473027
 10
25.215676295146
 20
16.80726313991129
 10
25.212715036239377
 20
16.812068957807096
 10
25.209636728585874
 20
16.81680065538303
 10
25.20827302297391
 20
16.818841584614876
 10
25.20507952114802
 20
16.82349631122324
 10
25.201772748497554
 20
16.828071263501545
 10
25.053286488844982
 20
17.02828177704176
 10
25.049868436900947
 20
17.032774199652366
 10
25.04634116488919
 20
17.037181386074504
 10
25.04478397993765
 20
17.039078821227992
 10
25.04114961291972
 20
17.043398116314638
 10
25.037410339754597
 20
17.047626918729406
 10
24.87001502911526
 20
17.232319173612844
 10
24.86617310181304
 20
17.23645493649126
 10
24.862230834970386
 20
17.24049516818305
 10
24.86049516720895
 20
17.242230835935988
 10
24.856454935901617
 20
17.246173102374446
 10
24.85231917342678
 20
17.250015029292054
 10
24.66762691853522
 20
17.417410339922473
 10
24.663398115696324
 20
17.421149613453093
 10
24.659078820167856
 20
17.424783980815487
 10
24.65718138500737
 20
17.426341165757155
 10
24.652774199009286
 20
17.429868437402774
 10
24.648281776839912
 20
17.43328648900212
 10
24.448071263292196
 20
17.581772748645292
 10
24.443496310558995
 20
17.5850795216158
 10
24.43884158348029
 20
17.58827302373922
 10
24.43680065424143
 20
17.58963672934145
 10
24.432068957120347
 20
17.592715036674285
 10
24.427263139694286
 20
17.59567629528312
 10
24.213462502250064
 20
17.72382350152074
 10
24.208585458874342
 20
17.726665927931514
 10
24.203640127766977
 20
17.729387809675433
 10
24.201475359693735
 20
17.730544902721416
 10
24.19646472023369
 20
17.733144599988943
 10
24.191391790153304
 20
17.7356205470968
 10
23.966060043764273
 20
17.84219457351638
 10
23.960927878293045
 20
17.844545279274552
 10
23.95573956935157
 20
17.846769327455988
 10
23.953471810323116
 20
17.847708664518258
 10
23.948230483672575
 20
17.849804715239852
 10
23.942939295978455
 20
17.851771506146584
 10
23.708246506367153
 20
17.93574598764266
 10
23.702908644309176
 20
17.93758233418975
 10
23.697527323734093
 20
17.939287130030667
 10
23.695178413487028
 20
17.939999664789074
 10
23.68975687643702
 20
17.941571882870374
 10
23.684298388108836
 20
17.94301057632308
 10
23.442504772871565
 20
18.003576793543726
 10
23.43701262070564
 20
18.00488109587609
 10
23.43149011350463
 20
18.00605022127683
 10
23.429082673307
 20
18.00652909163871
 10
23.423533138170033
 20
18.00756233577555
 10
23.41795991738093
 20
18.008459076383915
 10
23.171394078877203
 20
18.04503374413288
 10
23.165800528977815
 20
18.045793441118718
 10
23.160190019860643
 20
18.04641563677391
 10
23.157747234654217
 20
18.046656230960618
 10
23.15212314643399
 20
18.047140550457023
 10
23.14648886629323
 20
18.047486702127365
 10
22.89752536595586
 20
18.059717586713283
 10
22.89188424223629
 20
18.059925363166784
 10
22.890656927504626
 20
18.05995549227898
 10
22.885012403675663
 20
18.060024765006254
 10
2.565012408585392
 20
18.060024765000236
 10
2.5593678847566963
 20
18.059955492272966
 10
2.558140570025003
 20
18.05992536316077
 10
2.5524994462942123
 20
18.05971758670672
 10
2.3035359459575124
 20
18.047486702108788
 10
2.2979016652600324
 20
18.047140550397106
 10
2.2922775764854473
 20
18.04665623083206
 10
2.2898347912798735
 20
18.046415636633345
 10
2.284224282719793
 20
18.045793441018983
 10
2.2786307333744853
 20
18.045033744101207
 10
2.0320648948726623
 20
18.008459076340348
 10
2.0264916735330405
 20
18.00756233563618
 10
2.0209421378505783
 20
18.006529091376578
 10
2.018534697654967
 20
18.006050221002816
 10
2.013012191004903
 20
18.004881095697407
 10
2.0075200393842514
 20
18.00357679348721
 10
1.7657264241499797
 20
17.94301057625489
 10
1.7602679352828814
 20
17.94157188265276
 10
1.7548463977016098
 20
17.939999664395675
 10
1.7524974874583392
 20
17.93928712962582
 10
1.7471161674226592
 20
17.937582333933904
 10
1.7417783058957972
 20
17.935745987561987
 10
1.5070855162888726
 20
17.851771506054703
 10
1.5017943280739914
 20
17.8498047149468
 10
1.4965530009128674
 20
17.847708663998592
 10
1.4942852418886179
 20
17.84676932692504
 10
1.4890969334684219
 20
17.8445452789444
 10
1.4839647685076842
 20
17.84219457341221
 10
1.2586330221240958
 20
17.73562054698191
 10
1.253560091544854
 20
17.733144599622644
 10
1.248549451598584
 20
17.730544902079373
 10
1.2463846835308265
 20
17.72938780902267
 10
1.2414393529228647
 20
17.726665927529833
 10
1.2365623100333298
 20
17.723823501394165
 10
1.0227616725955162
 20
17.59567629514637
 10
1.0179558546976315
 20
17.592715036238435
 10
1.0132241571196867
 20
17.589636728583518
 10
1.011183227886924
 20
17.588273022970878
 10
1.006528501280606
 20
17.58507952114628
 10
1.001953549004283
 20
17.58177274849721
 10
0.8017430354638707
 20
17.43328648884445
 10
0.7972506128547648
 20
17.429868436901582
 10
0.7928434264340699
 20
17.426341164891067
 10
0.7909459912814275
 20
17.424783979940276
 10
0.7866266961933026
 20
17.421149612921194
 10
0.7823978937771171
 20
17.41741033975485
 10
0.597705638893815
 20
17.250015029115676
 10
0.5935698760145365
 20
17.246173101812634
 10
0.5895296443219217
 20
17.242230834969117
 10
0.5877939765684425
 20
17.240495167207104
 10
0.5838517101308406
 20
17.236454935900586
 10
0.5800097832140461
 20
17.232319173426603
 10
0.41261447258366335
 20
17.047626918535094
 10
0.4088751990525026
 20
17.04339811569557
 10
0.40524083168959946
 20
17.039078820166452
 10
0.40368364674812396
 20
17.03718138500617
 10
0.4001563751030426
 20
17.03277419900871
 10
0.3967383235042001
 20
17.028281776839986
 10
0.24825206386114979
 20
16.828071263292426
 10
0.2449452908912666
 20
16.823496310560106
 10
0.24175178876842648
 20
16.818841583482318
 10
0.2403880831658692
 20
16.81680065424301
 10
0.23730977583240917
 20
16.812068957121042
 10
0.23434851722299285
 20
16.80726313969406
 10
0.10620131098557792
 20
16.59346250225016
 10
0.10335888457491155
 20
16.588585458874626
 10
0.10063700283109103
 20
16.583640127767456
 10
0.09947990978507296
 20
16.581475359694156
 10
0.09688021251743498
 20
16.576464720233915
 10
0.09440426540947872
 20
16.571391790153328
 10
-0.01216976101017192
 20
16.34606004376409
 10
-0.014520466768362661
 20
16.34092787829282
 10
-0.016744514949817102
 20
16.3357395693513
 10
-0.017683852012250867
 20
16.333471810322447
 10
-0.019779902733821048
 20
16.328230483671963
 10
-0.021746693640528558
 20
16.3229392959779
 10
-0.10572117513645746
 20
16.088246506367025
 10
-0.10755752168370686
 20
16.082908644308553
 10
-0.10926231752476284
 20
16.077527323732973
 10
-0.10997485228304144
 20
16.07517841348629
 10
-0.1115470703641773
 20
16.06975687643678
 10
-0.11298576381674641
 20
16.0642983881091
 10
-0.17355198103744263
 20
15.822504772871705
 10
-0.174856283369723
 20
15.817012620706151
 10
-0.1760254087703973
 20
15.811490113505513
 10
-0.17650427913227162
 20
15.809082673307962
 10
-0.1775375232691957
 20
15.803533138170616
 10
-0.17843426387762784
 20
15.797959917381135
 10
-0.21500893162659318
 20
15.55139407887743
 10
-0.2157686286123853
 20
15.545800528978416
 10
-0.21639082426754824
 20
15.54019001986162
 10
-0.2166314184542834
 20
15.537747234654988
 10
-0.21711573795073602
 20
15.532123146434381
 10
-0.2174618896211058
 20
15.526488866293235
 10
-0.22969277420703804
 20
15.277525365955384
 10
-0.22990055066057621
 20
15.271884242234231
 10
-0.22993067977276624
 20
15.27065692750251
 10
-0.22999995250000238
 20
15.2650124036751
 10
-0.22999995249397698
 20
2.5650124085852797
 10
-0.22993068100244965
 20
2.559367935095129
 10
-0.22990808373486077
 20
2.55875441456341
  0
ENDSEC
  0
SECTION
  2
OBJECTS
  0
DICTIONARY
  5
A
330
0
100
AcDbDictionary
281
1
  3
ACAD_COLOR
350
B
  3
ACAD_GROUP
350
C
  3
ACAD_LAYOUT
350
D
  3
ACAD_MATERIAL
350
E
  3
ACAD_MLEADERSTYLE
350
F
  3
ACAD_MLINESTYLE
350
10
  3
ACAD_PLOTSETTINGS
350
11
  3
ACAD_PLOTSTYLENAME
350
12
  3
ACAD_SCALELIST
350
14
  3
ACAD_TABLESTYLE
350
15
  3
ACAD_VISUALSTYLE
350
16
  0
DICTIONARY
  5
B
330
A
100
AcDbDictionary
281
1
  0
DICTIONARY
  5
C
330
A
100
AcDbDictionary
281
1
  0
DICTIONARY
  5
D
330
A
100
AcDbDictionary
281
1
  3
Model
350
1A
  3
Layout1
350
1E
  0
DICTIONARY
  5
E
330
A
100
AcDbDictionary
281
1
  3
ByBlock
350
1F
  3
ByLayer
350
20
  3
Global
350
21
  0
DICTIONARY
  5
F
330
A
100
AcDbDictionary
281
1
  3
Standard
350
2C
  0
DICTIONARY
  5
10
330
A
100
AcDbDictionary
281
1
  3
Standard
350
22
  0
DICTIONARY
  5
11
330
A
100
AcDbDictionary
281
1
  0
ACDBDICTIONARYWDFLT
  5
12
330
A
100
AcDbDictionary
281
1
  3
Normal
350
13
100
AcDbDictionaryWithDefault
340
13
  0
ACDBPLACEHOLDER
  5
13
330
12
  0
DICTIONARY
  5
14
330
A
100
AcDbDictionary
281
1
  0
DICTIONARY
  5
15
330
A
100
AcDbDictionary
281
1
  0
DICTIONARY
  5
16
330
A
100
AcDbDictionary
281
1
  0
LAYOUT
  5
1A
330
D
100
AcDbPlotSettings
  1

  2
Adobe PDF
  4
A4
  6

 40
3.175
 41
3.175
 42
3.175
 43
3.175
 44
209.91
 45
297.03
 46
0.0
 47
0.0
 48
0.0
 49
0.0
140
0.0
141
0.0
142
1.0
143
1.0
 70
1024
 72
0
 73
1
 74
5
  7

 75
16
 76
0
 77
2
 78
300
147
1.0
148
0.0
149
0.0
100
AcDbLayout
  1
Model
 70
1
 71
0
 10
-3.175
 20
-3.175
 11
293.857
 21
206.735
 12
0.0
 22
0.0
 32
0.0
 14
29.068
 24
20.356
 34
0.0
 15
261.614
 25
183.204
 35
0.0
146
0.0
 13
0.0
 23
0.0
 33
0.0
 16
1.0
 26
0.0
 36
0.0
 17
0.0
 27
1.0
 37
0.0
 76
1
330
17
  0
LAYOUT
  5
1E
330
D
100
AcDbPlotSettings
  1

  2
Adobe PDF
  4
A4
  6

 40
3.175
 41
3.175
 42
3.175
 43
3.175
 44
209.91
 45
297.03
 46
0.0
 47
0.0
 48
0.0
 49
0.0
140
0.0
141
0.0
142
1.0
143
1.0
 70
0
 72
0
 73
1
 74
5
  7

 75
16
 76
0
 77
2
 78
300
147
1.0
148
0.0
149
0.0
100
AcDbLayout
  1
Layout1
 70
1
 71
1
 10
-3.175
 20
-3.175
 11
293.857
 21
206.735
 12
0.0
 22
0.0
 32
0.0
 14
29.068
 24
20.356
 34
0.0
 15
261.614
 25
183.204
 35
0.0
146
0.0
 13
0.0
 23
0.0
 33
0.0
 16
1.0
 26
0.0
 36
0.0
 17
0.0
 27
1.0
 37
0.0
 76
1
330
1B
  0
MATERIAL
  5
1F
102
{ACAD_REACTORS
330
E
102
}
330
E
100
AcDbMaterial
  1
ByBlock
  2

 70
0
 40
1.0
 71
1
 41
1.0
 91
-1023410177
 42
1.0
 72
1
  3

 73
1
 74
1
 75
1
 44
0.5
 73
0
 45
1.0
 46
1.0
 77
1
  4

 78
1
 79
1
170
1
 48
1.0
171
1
  6

172
1
173
1
174
1
140
1.0
141
1.0
175
1
  7

176
1
177
1
178
1
143
1.0
179
1
  8

270
1
271
1
272
1
145
1.0
146
1.0
273
1
  9

274
1
275
1
276
1
 42
1.0
 72
1
  3

 73
1
 74
1
 75
1
 94
63
  0
MATERIAL
  5
20
102
{ACAD_REACTORS
330
E
102
}
330
E
100
AcDbMaterial
  1
ByLayer
  2

 70
0
 40
1.0
 71
1
 41
1.0
 91
-1023410177
 42
1.0
 72
1
  3

 73
1
 74
1
 75
1
 44
0.5
 73
0
 45
1.0
 46
1.0
 77
1
  4

 78
1
 79
1
170
1
 48
1.0
171
1
  6

172
1
173
1
174
1
140
1.0
141
1.0
175
1
  7

176
1
177
1
178
1
143
1.0
179
1
  8

270
1
271
1
272
1
145
1.0
146
1.0
273
1
  9

274
1
275
1
276
1
 42
1.0
 72
1
  3

 73
1
 74
1
 75
1
 94
63
  0
MATERIAL
  5
21
102
{ACAD_REACTORS
330
E
102
}
330
E
100
AcDbMaterial
  1
Global
  2

 70
0
 40
1.0
 71
1
 41
1.0
 91
-1023410177
 42
1.0
 72
1
  3

 73
1
 74
1
 75
1
 44
0.5
 73
0
 45
1.0
 46
1.0
 77
1
  4

 78
1
 79
1
170
1
 48
1.0
171
1
  6

172
1
173
1
174
1
140
1.0
141
1.0
175
1
  7

176
1
177
1
178
1
143
1.0
179
1
  8

270
1
271
1
272
1
145
1.0
146
1.0
273
1
  9

274
1
275
1
276
1
 42
1.0
 72
1
  3

 73
1
 74
1
 75
1
 94
63
  0
MLINESTYLE
  5
22
102
{ACAD_REACTORS
330
10
102
}
330
10
100
AcDbMlineStyle
  2
Standard
 70
0
  3

 62
256
 51
90.0
 52
90.0
 71
2
 49
0.5
 62
256
  6
BYLAYER
 49
-0.5
 62
256
  6
BYLAYER
  0
MLEADERSTYLE
  5
2C
102
{ACAD_REACTORS
330
F
102
}
330
F
100
AcDbMLeaderStyle
179
2
170
2
171
1
172
0
 90
2
 40
0.0
 41
0.0
173
1
 91
-1056964608
 92
-2
290
1
 42
2.0
291
1
 43
8.0
  3
Standard
 44
4.0
300

342
29
174
1
175
1
176
0
178
1
 93
-1056964608
 45
4.0
292
0
297
0
 46
4.0
 94
-1056964608
 47
1.0
 49
0.0
140
1.0
294
1
141
0.0
177
0
142
1.0
295
0
296
0
143
3.75
271
0
272
9
272
9
  0
ENDSEC
  0
EOF
