G04 #@! TF.GenerationSoftware,KiCad,Pcbnew,10.0.6*
G04 #@! TF.CreationDate,2026-09-14T12:34:14-05:00*
G04 #@! TF.ProjectId,LED_EXCITATOR,4c45445f-4558-4434-9954-41544f522e6b,rev?*
G04 #@! TF.SameCoordinates,Original*
G04 #@! TF.FileFunction,Copper,L2,Bot*
G04 #@! TF.FilePolarity,Positive*
%FSLAX46Y46*%
G04 Gerber Fmt 4.6, Leading zero omitted, Abs format (unit mm)*
G04 Created by KiCad (PCBNEW 10.0.6) date 2026-09-14 12:34:14*
%MOMM*%
%LPD*%
G01*
G04 APERTURE LIST*
G04 #@! TA.AperFunction,ComponentPad*
%ADD10R,1.700000X1.700000*%
G04 #@! TD*
G04 #@! TA.AperFunction,ComponentPad*
%ADD11C,1.700000*%
G04 #@! TD*
G04 #@! TA.AperFunction,ComponentPad*
%ADD12R,1.800000X1.800000*%
G04 #@! TD*
G04 #@! TA.AperFunction,ComponentPad*
%ADD13C,1.800000*%
G04 #@! TD*
G04 #@! TA.AperFunction,Conductor*
%ADD14C,1.500000*%
G04 #@! TD*
G04 APERTURE END LIST*
D10*
X128500000Y-50000000D03*
D11*
X128500000Y-47460000D03*
D12*
X133273949Y-48853949D03*
D13*
X135813949Y-48853949D03*
D14*
X137500000Y-50540000D02*
X135813949Y-48853949D01*
X135500000Y-53000000D02*
X137500000Y-51000000D01*
X137500000Y-51000000D02*
X137500000Y-50540000D01*
X131500000Y-53000000D02*
X135500000Y-53000000D01*
X128500000Y-50000000D02*
X131500000Y-53000000D01*
X131880000Y-47460000D02*
X133273949Y-48853949D01*
X128500000Y-47460000D02*
X131880000Y-47460000D01*
G04 #@! TA.AperFunction,Conductor*
G36*
X144712081Y-40464982D02*
G01*
X144953875Y-40480829D01*
X144986162Y-40485081D01*
X145215809Y-40530761D01*
X145247259Y-40539187D01*
X145468994Y-40614456D01*
X145499052Y-40626906D01*
X145709075Y-40730478D01*
X145737257Y-40746749D01*
X145931953Y-40876841D01*
X145957790Y-40896667D01*
X146133823Y-41051045D01*
X146156852Y-41074074D01*
X146311230Y-41250107D01*
X146331057Y-41275946D01*
X146461145Y-41470635D01*
X146477422Y-41498827D01*
X146580987Y-41708838D01*
X146593444Y-41738911D01*
X146667302Y-41956489D01*
X146668707Y-41960628D01*
X146677136Y-41992088D01*
X146722816Y-42221735D01*
X146727068Y-42254027D01*
X146742916Y-42495815D01*
X146743449Y-42512101D01*
X146743449Y-55195796D01*
X146742916Y-55212082D01*
X146727068Y-55453870D01*
X146722816Y-55486162D01*
X146677136Y-55715809D01*
X146668707Y-55747269D01*
X146593448Y-55968976D01*
X146580984Y-55999067D01*
X146477428Y-56209059D01*
X146461142Y-56237267D01*
X146331059Y-56431949D01*
X146311230Y-56457790D01*
X146156852Y-56633823D01*
X146133823Y-56656852D01*
X145957790Y-56811230D01*
X145931949Y-56831059D01*
X145737267Y-56961142D01*
X145709063Y-56977425D01*
X145499067Y-57080984D01*
X145468980Y-57093445D01*
X145390685Y-57120024D01*
X145247269Y-57168707D01*
X145215809Y-57177136D01*
X144986162Y-57222816D01*
X144953870Y-57227068D01*
X144737875Y-57241225D01*
X144712080Y-57242916D01*
X144695796Y-57243449D01*
X124392102Y-57243449D01*
X124375817Y-57242916D01*
X124346558Y-57240998D01*
X124134027Y-57227068D01*
X124101735Y-57222816D01*
X123872088Y-57177136D01*
X123840628Y-57168707D01*
X123836489Y-57167302D01*
X123618911Y-57093444D01*
X123588838Y-57080987D01*
X123378827Y-56977422D01*
X123350635Y-56961145D01*
X123155946Y-56831057D01*
X123130107Y-56811230D01*
X122954074Y-56656852D01*
X122931045Y-56633823D01*
X122776667Y-56457790D01*
X122756838Y-56431949D01*
X122665373Y-56295062D01*
X122626749Y-56237257D01*
X122610478Y-56209075D01*
X122506906Y-55999052D01*
X122494456Y-55968994D01*
X122419187Y-55747259D01*
X122410761Y-55715809D01*
X122365081Y-55486162D01*
X122360829Y-55453875D01*
X122344982Y-55212081D01*
X122344449Y-55195796D01*
X122344449Y-49075904D01*
X126449500Y-49075904D01*
X126449500Y-50924095D01*
X126455917Y-51016558D01*
X126455920Y-51016572D01*
X126506857Y-51233145D01*
X126572290Y-51381336D01*
X126596723Y-51436671D01*
X126722458Y-51620221D01*
X126879779Y-51777542D01*
X127063329Y-51903277D01*
X127180620Y-51955066D01*
X127266854Y-51993142D01*
X127266855Y-51993142D01*
X127266857Y-51993143D01*
X127483433Y-52044081D01*
X127483437Y-52044081D01*
X127483441Y-52044082D01*
X127575904Y-52050500D01*
X127575908Y-52050500D01*
X127688937Y-52050500D01*
X127784225Y-52069454D01*
X127865006Y-52123429D01*
X130211187Y-54469611D01*
X130325961Y-54557679D01*
X130325964Y-54557682D01*
X130401666Y-54615769D01*
X130414035Y-54625261D01*
X130608537Y-54737557D01*
X130635465Y-54753104D01*
X130871687Y-54850951D01*
X130871688Y-54850951D01*
X130871690Y-54850952D01*
X130920135Y-54863932D01*
X131118660Y-54917127D01*
X131372157Y-54950500D01*
X135627843Y-54950500D01*
X135881340Y-54917126D01*
X136128313Y-54850950D01*
X136364535Y-54753104D01*
X136585965Y-54625261D01*
X136585971Y-54625257D01*
X136788804Y-54469617D01*
X136788804Y-54469616D01*
X136788813Y-54469610D01*
X138969610Y-52288813D01*
X139125261Y-52085965D01*
X139253104Y-51864535D01*
X139350950Y-51628313D01*
X139417126Y-51381340D01*
X139450500Y-51127843D01*
X139450500Y-50872157D01*
X139450500Y-50412157D01*
X139417126Y-50158660D01*
X139350950Y-49911687D01*
X139330090Y-49861327D01*
X139253106Y-49675470D01*
X139253101Y-49675459D01*
X139125260Y-49454034D01*
X139125259Y-49454031D01*
X138969615Y-49251192D01*
X138969613Y-49251190D01*
X138788813Y-49070389D01*
X138788813Y-49070390D01*
X137779688Y-48061265D01*
X137725712Y-47980483D01*
X137701872Y-47922928D01*
X137649989Y-47833065D01*
X137564203Y-47684479D01*
X137564198Y-47684470D01*
X137396577Y-47466021D01*
X137201877Y-47271321D01*
X136983428Y-47103700D01*
X136983418Y-47103694D01*
X136983418Y-47103693D01*
X136744978Y-46966030D01*
X136744974Y-46966028D01*
X136744970Y-46966026D01*
X136490581Y-46860654D01*
X136490582Y-46860654D01*
X136490579Y-46860653D01*
X136375409Y-46829794D01*
X136224615Y-46789389D01*
X136224610Y-46789388D01*
X136224611Y-46789388D01*
X135951623Y-46753449D01*
X135676275Y-46753449D01*
X135403287Y-46789388D01*
X135137319Y-46860653D01*
X135137318Y-46860653D01*
X134963599Y-46932610D01*
X134882928Y-46966026D01*
X134882926Y-46966026D01*
X134882919Y-46966030D01*
X134644479Y-47103693D01*
X134644479Y-47103694D01*
X134644474Y-47103697D01*
X134644470Y-47103700D01*
X134441539Y-47259413D01*
X134426017Y-47271324D01*
X134316322Y-47381019D01*
X134235540Y-47434995D01*
X134140253Y-47453949D01*
X133523950Y-47453949D01*
X133523949Y-47453950D01*
X133523949Y-48478671D01*
X133447643Y-48434616D01*
X133333193Y-48403949D01*
X133214705Y-48403949D01*
X133100255Y-48434616D01*
X133023949Y-48478671D01*
X133023949Y-47453950D01*
X133023948Y-47453949D01*
X132326116Y-47453949D01*
X132266577Y-47460350D01*
X132266570Y-47460352D01*
X132131861Y-47510595D01*
X132016761Y-47596759D01*
X132016759Y-47596761D01*
X131930595Y-47711861D01*
X131880352Y-47846570D01*
X131880350Y-47846577D01*
X131873949Y-47906116D01*
X131873949Y-48603948D01*
X131873950Y-48603949D01*
X132898671Y-48603949D01*
X132854616Y-48680255D01*
X132823949Y-48794705D01*
X132823949Y-48913193D01*
X132854616Y-49027643D01*
X132898671Y-49103949D01*
X131873950Y-49103949D01*
X131873949Y-49103950D01*
X131873949Y-49801781D01*
X131880350Y-49861320D01*
X131880352Y-49861327D01*
X131913853Y-49951149D01*
X132176747Y-50214043D01*
X132266571Y-50247546D01*
X132266577Y-50247547D01*
X132326116Y-50253948D01*
X132326124Y-50253949D01*
X133023948Y-50253949D01*
X133023949Y-50253948D01*
X133023949Y-49229226D01*
X133100255Y-49273282D01*
X133214705Y-49303949D01*
X133333193Y-49303949D01*
X133447643Y-49273282D01*
X133523949Y-49229226D01*
X133523949Y-50253948D01*
X133523950Y-50253949D01*
X134140253Y-50253949D01*
X134235541Y-50272903D01*
X134316323Y-50326879D01*
X134426017Y-50436573D01*
X134426027Y-50436582D01*
X134642850Y-50602955D01*
X134706909Y-50675999D01*
X134738139Y-50767998D01*
X134731785Y-50864945D01*
X134688814Y-50952081D01*
X134615770Y-51016140D01*
X134523771Y-51047370D01*
X134491269Y-51049500D01*
X132411064Y-51049500D01*
X132315776Y-51030546D01*
X132234994Y-50976570D01*
X130623430Y-49365006D01*
X130569454Y-49284224D01*
X130550500Y-49188936D01*
X130550500Y-49075904D01*
X130544082Y-48983441D01*
X130544081Y-48983437D01*
X130544081Y-48983433D01*
X130493143Y-48766857D01*
X130403277Y-48563329D01*
X130277542Y-48379779D01*
X130120221Y-48222458D01*
X129936671Y-48096723D01*
X129930583Y-48094035D01*
X129915848Y-48084903D01*
X129892748Y-48063333D01*
X129866883Y-48045164D01*
X129857554Y-48030472D01*
X129844837Y-48018597D01*
X129831748Y-47989826D01*
X129814807Y-47963144D01*
X129811811Y-47946003D01*
X129804605Y-47930163D01*
X129803522Y-47898572D01*
X129798082Y-47867440D01*
X129801723Y-47846065D01*
X129801278Y-47833065D01*
X129806157Y-47820041D01*
X129810201Y-47796305D01*
X129816759Y-47776121D01*
X129849999Y-47566256D01*
X129850000Y-47566244D01*
X129850000Y-47353755D01*
X129849999Y-47353743D01*
X129816758Y-47143876D01*
X129751095Y-46941784D01*
X129751091Y-46941774D01*
X129654624Y-46752448D01*
X129615270Y-46698282D01*
X128982962Y-47330590D01*
X128965925Y-47267007D01*
X128900099Y-47152993D01*
X128807007Y-47059901D01*
X128692993Y-46994075D01*
X128629407Y-46977036D01*
X129261717Y-46344729D01*
X129207551Y-46305375D01*
X129207545Y-46305371D01*
X129018225Y-46208908D01*
X129018215Y-46208904D01*
X128816123Y-46143241D01*
X128606256Y-46110000D01*
X128393743Y-46110000D01*
X128183876Y-46143241D01*
X127981784Y-46208904D01*
X127981774Y-46208908D01*
X127792454Y-46305372D01*
X127792441Y-46305380D01*
X127738281Y-46344728D01*
X128370590Y-46977037D01*
X128307007Y-46994075D01*
X128192993Y-47059901D01*
X128099901Y-47152993D01*
X128034075Y-47267007D01*
X128017037Y-47330591D01*
X127384728Y-46698281D01*
X127345380Y-46752441D01*
X127345372Y-46752454D01*
X127248908Y-46941774D01*
X127248904Y-46941784D01*
X127183241Y-47143876D01*
X127150000Y-47353743D01*
X127150000Y-47566256D01*
X127183241Y-47776122D01*
X127189800Y-47796309D01*
X127201218Y-47892790D01*
X127174846Y-47986297D01*
X127114697Y-48062594D01*
X127072332Y-48089240D01*
X127073382Y-48091124D01*
X127063329Y-48096723D01*
X126879778Y-48222459D01*
X126722459Y-48379778D01*
X126596723Y-48563329D01*
X126596722Y-48563330D01*
X126506857Y-48766854D01*
X126455920Y-48983427D01*
X126455917Y-48983441D01*
X126449500Y-49075904D01*
X122344449Y-49075904D01*
X122344449Y-42512101D01*
X122344982Y-42495816D01*
X122354893Y-42344603D01*
X122360830Y-42254020D01*
X122365081Y-42221735D01*
X122410761Y-41992088D01*
X122419186Y-41960641D01*
X122494458Y-41738898D01*
X122506904Y-41708850D01*
X122610481Y-41498815D01*
X122626745Y-41470646D01*
X122756846Y-41275936D01*
X122776658Y-41250117D01*
X122931047Y-41074071D01*
X122954074Y-41051045D01*
X123130117Y-40896658D01*
X123155936Y-40876846D01*
X123350646Y-40746745D01*
X123378815Y-40730481D01*
X123588850Y-40626904D01*
X123618898Y-40614458D01*
X123840641Y-40539186D01*
X123872088Y-40530761D01*
X124101735Y-40485081D01*
X124134020Y-40480830D01*
X124375817Y-40464982D01*
X124392102Y-40464449D01*
X124449841Y-40464449D01*
X144638057Y-40464449D01*
X144695796Y-40464449D01*
X144712081Y-40464982D01*
G37*
G04 #@! TD.AperFunction*
M02*
