  0
SECTION
  2
HEADER
  9
$ACADVER
  1
AC1024
  9
$ACADMAINTVER
 70
6
  9
$DWGCODEPAGE
  3
ANSI_1252
  9
$LASTSAVEDBY
  1
ezdxf
  9
$INSBASE
 10
0.0
 20
0.0
 30
0.0
  9
$EXTMIN
 10
-100
 20
-100
 30
-100
  9
$EXTMAX
 10
100
 20
100
 30
100
  9
$LIMMIN
 10
0.0
 20
0.0
  9
$LIMMAX
 10
420.0
 20
297.0
  9
$ORTHOMODE
 70
0
  9
$REGENMODE
 70
1
  9
$FILLMODE
 70
1
  9
$QTEXTMODE
 70
0
  9
$MIRRTEXT
 70
1
  9
$LTSCALE
 40
1.0
  9
$ATTMODE
 70
1
  9
$TEXTSIZE
 40
2.5
  9
$TRACEWID
 40
1.0
  9
$TEXTSTYLE
  7
Standard
  9
$CLAYER
  8
0
  9
$CELTYPE
  6
ByLayer
  9
$CECOLOR
 62
256
  9
$CELTSCALE
 40
1.0
  9
$DISPSILH
 70
0
  9
$DIMSCALE
 40
1.0
  9
$DIMASZ
 40
2.5
  9
$DIMEXO
 40
0.625
  9
$DIMDLI
 40
3.75
  9
$DIMRND
 40
0.0
  9
$DIMDLE
 40
0.0
  9
$DIMEXE
 40
1.25
  9
$DIMTP
 40
0.0
  9
$DIMTM
 40
0.0
  9
$DIMTXT
 40
2.5
  9
$DIMCEN
 40
2.5
  9
$DIMTSZ
 40
0.0
  9
$DIMTOL
 70
0
  9
$DIMLIM
 70
0
  9
$DIMTIH
 70
0
  9
$DIMTOH
 70
0
  9
$DIMSE1
 70
0
  9
$DIMSE2
 70
0
  9
$DIMTAD
 70
1
  9
$DIMZIN
 70
8
  9
$DIMBLK
  1

  9
$DIMASO
 70
1
  9
$DIMSHO
 70
1
  9
$DIMPOST
  1

  9
$DIMAPOST
  1

  9
$DIMALT
 70
0
  9
$DIMALTD
 70
3
  9
$DIMALTF
 40
0.03937007874
  9
$DIMLFAC
 40
1.0
  9
$DIMTOFL
 70
1
  9
$DIMTVP
 40
0.0
  9
$DIMTIX
 70
0
  9
$DIMSOXD
 70
0
  9
$DIMSAH
 70
0
  9
$DIMBLK1
  1

  9
$DIMBLK2
  1

  9
$DIMSTYLE
  2
ISO-25
  9
$DIMCLRD
 70
0
  9
$DIMCLRE
 70
0
  9
$DIMCLRT
 70
0
  9
$DIMTFAC
 40
1.0
  9
$DIMGAP
 40
0.625
  9
$DIMJUST
 70
0
  9
$DIMSD1
 70
0
  9
$DIMSD2
 70
0
  9
$DIMTOLJ
 70
0
  9
$DIMTZIN
 70
8
  9
$DIMALTZ
 70
0
  9
$DIMALTTZ
 70
0
  9
$DIMUPT
 70
0
  9
$DIMDEC
 70
2
  9
$DIMTDEC
 70
2
  9
$DIMALTU
 70
2
  9
$DIMALTTD
 70
3
  9
$DIMTXSTY
  7
Standard
  9
$DIMAUNIT
 70
0
  9
$DIMADEC
 70
0
  9
$DIMALTRND
 40
0.0
  9
$DIMAZIN
 70
0
  9
$DIMDSEP
 70
44
  9
$DIMATFIT
 70
3
  9
$DIMFRAC
 70
0
  9
$DIMLDRBLK
  1

  9
$DIMLUNIT
 70
2
  9
$DIMLWD
 70
-2
  9
$DIMLWE
 70
-2
  9
$DIMTMOVE
 70
0
  9
$DIMFXL
 40
1.0
  9
$DIMFXLON
 70
0
  9
$DIMJOGANG
 40
0.785398163397
  9
$DIMTFILL
 70
0
  9
$DIMTFILLCLR
 70
0
  9
$DIMARCSYM
 70
0
  9
$DIMLTYPE
  6

  9
$DIMLTEX1
  6

  9
$DIMLTEX2
  6

  9
$DIMTXTDIRECTION
 70
0
  9
$LUNITS
 70
2
  9
$LUPREC
 70
4
  9
$SKETCHINC
 40
1.0
  9
$FILLETRAD
 40
10.0
  9
$AUNITS
 70
0
  9
$AUPREC
 70
2
  9
$MENU
  1
.
  9
$ELEVATION
 40
0.0
  9
$PELEVATION
 40
0.0
  9
$THICKNESS
 40
0.0
  9
$LIMCHECK
 70
0
  9
$CHAMFERA
 40
0.0
  9
$CHAMFERB
 40
0.0
  9
$CHAMFERC
 40
0.0
  9
$CHAMFERD
 40
0.0
  9
$SKPOLY
 70
0
  9
$TDCREATE
 40
2461298.561226852
  9
$TDUCREATE
 40
2458532.153996898
  9
$TDUPDATE
 40
2461298.561226852
  9
$TDUUPDATE
 40
2458532.1544311
  9
$TDINDWG
 40
0.0
  9
$TDUSRTIMER
 40
0.0
  9
$USRTIMER
 70
1
  9
$ANGBASE
 50
0.0
  9
$ANGDIR
 70
0
  9
$PDMODE
 70
0
  9
$PDSIZE
 40
0.0
  9
$PLINEWID
 40
0.0
  9
$SPLFRAME
 70
0
  9
$SPLINETYPE
 70
6
  9
$SPLINESEGS
 70
8
  9
$HANDSEED
  5
33
  9
$SURFTAB1
 70
6
  9
$SURFTAB2
 70
6
  9
$SURFTYPE
 70
6
  9
$SURFU
 70
6
  9
$SURFV
 70
6
  9
$UCSBASE
  2

  9
$UCSNAME
  2

  9
$UCSORG
 10
0.0
 20
0.0
 30
0.0
  9
$UCSXDIR
 10
1.0
 20
0.0
 30
0.0
  9
$UCSYDIR
 10
0.0
 20
1.0
 30
0.0
  9
$UCSORTHOREF
  2

  9
$UCSORTHOVIEW
 70
0
  9
$UCSORGTOP
 10
0.0
 20
0.0
 30
0.0
  9
$UCSORGBOTTOM
 10
0.0
 20
0.0
 30
0.0
  9
$UCSORGLEFT
 10
0.0
 20
0.0
 30
0.0
  9
$UCSORGRIGHT
 10
0.0
 20
0.0
 30
0.0
  9
$UCSORGFRONT
 10
0.0
 20
0.0
 30
0.0
  9
$UCSORGBACK
 10
0.0
 20
0.0
 30
0.0
  9
$PUCSBASE
  2

  9
$PUCSNAME
  2

  9
$PUCSORG
 10
0.0
 20
0.0
 30
0.0
  9
$PUCSXDIR
 10
1.0
 20
0.0
 30
0.0
  9
$PUCSYDIR
 10
0.0
 20
1.0
 30
0.0
  9
$PUCSORTHOREF
  2

  9
$PUCSORTHOVIEW
 70
0
  9
$PUCSORGTOP
 10
0.0
 20
0.0
 30
0.0
  9
$PUCSORGBOTTOM
 10
0.0
 20
0.0
 30
0.0
  9
$PUCSORGLEFT
 10
0.0
 20
0.0
 30
0.0
  9
$PUCSORGRIGHT
 10
0.0
 20
0.0
 30
0.0
  9
$PUCSORGFRONT
 10
0.0
 20
0.0
 30
0.0
  9
$PUCSORGBACK
 10
0.0
 20
0.0
 30
0.0
  9
$USERI1
 70
0
  9
$USERI2
 70
0
  9
$USERI3
 70
0
  9
$USERI4
 70
0
  9
$USERI5
 70
0
  9
$USERR1
 40
0.0
  9
$USERR2
 40
0.0
  9
$USERR3
 40
0.0
  9
$USERR4
 40
0.0
  9
$USERR5
 40
0.0
  9
$WORLDVIEW
 70
1
  9
$SHADEDGE
 70
3
  9
$SHADEDIF
 70
70
  9
$TILEMODE
 70
1
  9
$MAXACTVP
 70
64
  9
$PINSBASE
 10
0.0
 20
0.0
 30
0.0
  9
$PLIMCHECK
 70
0
  9
$PEXTMIN
 10
1e+20
 20
1e+20
 30
1e+20
  9
$PEXTMAX
 10
-1e+20
 20
-1e+20
 30
-1e+20
  9
$PLIMMIN
 10
0.0
 20
0.0
  9
$PLIMMAX
 10
420.0
 20
297.0
  9
$UNITMODE
 70
0
  9
$VISRETAIN
 70
1
  9
$PLINEGEN
 70
0
  9
$PSLTSCALE
 70
1
  9
$TREEDEPTH
 70
3020
  9
$CMLSTYLE
  2
Standard
  9
$CMLJUST
 70
0
  9
$CMLSCALE
 40
20.0
  9
$PROXYGRAPHICS
 70
1
  9
$MEASUREMENT
 70
1
  9
$CELWEIGHT
370
-1
  9
$ENDCAPS
280
0
  9
$JOINSTYLE
280
0
  9
$LWDISPLAY
290
0
  9
$INSUNITS
 70
6
  9
$HYPERLINKBASE
  1

  9
$STYLESHEET
  1

  9
$XEDIT
290
1
  9
$CEPSNTYPE
380
0
  9
$PSTYLEMODE
290
1
  9
$FINGERPRINTGUID
  2
09AA75F4-B06A-11F1-A3F0-BCEE7B8C4939
  9
$VERSIONGUID
  2
09AC54DF-B06A-11F1-9CA5-BCEE7B8C4939
  9
$EXTNAMES
290
1
  9
$PSVPSCALE
 40
0.0
  9
$OLESTARTUP
290
0
  9
$SORTENTS
280
127
  9
$INDEXCTL
280
0
  9
$HIDETEXT
280
1
  9
$XCLIPFRAME
280
2
  9
$HALOGAP
280
0
  9
$OBSCOLOR
 70
257
  9
$OBSLTYPE
280
0
  9
$INTERSECTIONDISPLAY
280
0
  9
$INTERSECTIONCOLOR
 70
257
  9
$DIMASSOC
280
2
  9
$PROJECTNAME
  1

  9
$CAMERADISPLAY
290
0
  9
$LENSLENGTH
 40
50.0
  9
$CAMERAHEIGHT
 40
0.0
  9
$STEPSPERSEC
 40
24.0
  9
$STEPSIZE
 40
100.0
  9
$3DDWFPREC
 40
2.0
  9
$PSOLWIDTH
 40
0.005
  9
$PSOLHEIGHT
 40
0.08
  9
$LOFTANG1
 40
1.570796326795
  9
$LOFTANG2
 40
1.570796326795
  9
$LOFTMAG1
 40
0.0
  9
$LOFTMAG2
 40
0.0
  9
$LOFTPARAM
 70
7
  9
$LOFTNORMALS
280
1
  9
$LATITUDE
 40
37.795
  9
$LONGITUDE
 40
-122.394
  9
$NORTHDIRECTION
 40
0.0
  9
$TIMEZONE
 70
-8000
  9
$LIGHTGLYPHDISPLAY
280
1
  9
$TILEMODELIGHTSYNCH
280
1
  9
$CMATERIAL
347
20
  9
$SOLIDHIST
280
0
  9
$SHOWHIST
280
1
  9
$DWFFRAME
280
2
  9
$DGNFRAME
280
2
  9
$REALWORLDSCALE
290
1
  9
$INTERFERECOLOR
 62
256
  9
$CSHADOW
280
0
  9
$SHADOWPLANELOCATION
 40
0.0
  0
ENDSEC
  0
SECTION
  2
CLASSES
  0
CLASS
  1
ACDBDICTIONARYWDFLT
  2
AcDbDictionaryWithDefault
  3
ObjectDBX Classes
 90
0
 91
0
280
0
281
0
  0
CLASS
  1
SUN
  2
AcDbSun
  3
SCENEOE
 90
1153
 91
0
280
0
281
0
  0
CLASS
  1
VISUALSTYLE
  2
AcDbVisualStyle
  3
ObjectDBX Classes
 90
4095
 91
0
280
0
281
0
  0
CLASS
  1
MATERIAL
  2
AcDbMaterial
  3
ObjectDBX Classes
 90
1153
 91
0
280
0
281
0
  0
CLASS
  1
SCALE
  2
AcDbScale
  3
ObjectDBX Classes
 90
1153
 91
0
280
0
281
0
  0
CLASS
  1
TABLESTYLE
  2
AcDbTableStyle
  3
ObjectDBX Classes
 90
4095
 91
0
280
0
281
0
  0
CLASS
  1
MLEADERSTYLE
  2
AcDbMLeaderStyle
  3
ACDB_MLEADERSTYLE_CLASS
 90
4095
 91
0
280
0
281
0
  0
CLASS
  1
DICTIONARYVAR
  2
AcDbDictionaryVar
  3
ObjectDBX Classes
 90
0
 91
0
280
0
281
0
  0
CLASS
  1
CELLSTYLEMAP
  2
AcDbCellStyleMap
  3
ObjectDBX Classes
 90
1152
 91
0
280
0
281
0
  0
CLASS
  1
MENTALRAYRENDERSETTINGS
  2
AcDbMentalRayRenderSettings
  3
SCENEOE
 90
1024
 91
0
280
0
281
0
  0
CLASS
  1
ACDBDETAILVIEWSTYLE
  2
AcDbDetailViewStyle
  3
ObjectDBX Classes
 90
1025
 91
0
280
0
281
0
  0
CLASS
  1
ACDBSECTIONVIEWSTYLE
  2
AcDbSectionViewStyle
  3
ObjectDBX Classes
 90
1025
 91
0
280
0
281
0
  0
CLASS
  1
RASTERVARIABLES
  2
AcDbRasterVariables
  3
ISM
 90
0
 91
0
280
0
281
0
  0
CLASS
  1
LAYOUT
  2
AcDbLayout
  3
ObjectDBX Classes
 90
0
 91
0
280
0
281
0
  0
CLASS
  1
ACDBPLACEHOLDER
  2
AcDbPlaceHolder
  3
ObjectDBX Classes
 90
0
 91
0
280
0
281
0
  0
ENDSEC
  0
SECTION
  2
TABLES
  0
TABLE
  2
VPORT
  5
8
330
0
100
AcDbSymbolTable
 70
1
  0
VPORT
  5
23
330
8
100
AcDbSymbolTableRecord
100
AcDbViewportTableRecord
  2
*Active
 70
0
 10
0.0
 20
0.0
 11
1.0
 21
1.0
 12
70.0
 22
50.0
 13
0.0
 23
0.0
 14
0.5
 24
0.5
 15
0.5
 25
0.5
 16
0.0
 26
0.0
 36
1.0
 17
0.0
 27
0.0
 37
0.0
 40
1.0
 41
1.34
 42
50.0
 43
0.0
 44
0.0
 50
0.0
 51
0.0
 71
0
 72
1000
 73
1
 74
3
 75
0
 76
0
 77
0
 78
0
281
0
 65
0
146
0.0
  0
ENDTAB
  0
TABLE
  2
LTYPE
  5
2
330
0
100
AcDbSymbolTable
 70
3
  0
LTYPE
  5
24
330
2
100
AcDbSymbolTableRecord
100
AcDbLinetypeTableRecord
  2
ByBlock
 70
0
  3

 72
65
 73
0
 40
0.0
  0
LTYPE
  5
25
330
2
100
AcDbSymbolTableRecord
100
AcDbLinetypeTableRecord
  2
ByLayer
 70
0
  3

 72
65
 73
0
 40
0.0
  0
LTYPE
  5
26
330
2
100
AcDbSymbolTableRecord
100
AcDbLinetypeTableRecord
  2
Continuous
 70
0
  3

 72
65
 73
0
 40
0.0
  0
ENDTAB
  0
TABLE
  2
LAYER
  5
1
330
0
100
AcDbSymbolTable
 70
2
  0
LAYER
  5
27
330
1
100
AcDbSymbolTableRecord
100
AcDbLayerTableRecord
  2
0
 70
0
 62
7
  6
Continuous
370
-3
390
13
347
21
  0
LAYER
  5
28
330
1
100
AcDbSymbolTableRecord
100
AcDbLayerTableRecord
  2
Defpoints
 70
0
 62
7
  6
Continuous
290
0
370
-3
390
13
347
21
  0
ENDTAB
  0
TABLE
  2
STYLE
  5
5
330
0
100
AcDbSymbolTable
 70
1
  0
STYLE
  5
29
330
5
100
AcDbSymbolTableRecord
100
AcDbTextStyleTableRecord
  2
Standard
 70
0
 40
0.0
 41
1.0
 50
0.0
 71
0
 42
2.5
  3
txt
  4

  0
ENDTAB
  0
TABLE
  2
VIEW
  5
7
330
0
100
AcDbSymbolTable
 70
0
  0
ENDTAB
  0
TABLE
  2
UCS
  5
6
330
0
100
AcDbSymbolTable
 70
0
  0
ENDTAB
  0
TABLE
  2
APPID
  5
3
330
0
100
AcDbSymbolTable
 70
2
  0
APPID
  5
2A
330
3
100
AcDbSymbolTableRecord
100
AcDbRegAppTableRecord
  2
ACAD
 70
0
  0
APPID
  5
32
330
3
100
AcDbSymbolTableRecord
100
AcDbRegAppTableRecord
  2
HATCHBACKGROUNDCOLOR
 70
0
  0
ENDTAB
  0
TABLE
  2
DIMSTYLE
  5
4
330
0
100
AcDbSymbolTable
 70
1
100
AcDbDimStyleTable
  0
DIMSTYLE
105
2B
330
4
100
AcDbSymbolTableRecord
100
AcDbDimStyleTableRecord
  2
Standard
 70
0
 40
1.0
 41
2.5
 42
0.625
 43
3.75
 44
1.25
 45
0.0
 46
0.0
 47
0.0
 48
0.0
 49
2.5
140
2.5
141
2.5
142
0.0
143
0.03937007874
144
1.0
145
0.0
146
1.0
147
0.625
148
0.0
 69
0
 70
0
 71
0
 72
0
 73
0
 74
0
 75
0
 76
0
 77
1
 78
8
 79
0
170
0
171
3
172
1
173
0
174
0
175
0
176
0
177
0
178
0
179
0
271
0
272
2
273
2
274
3
275
0
276
0
277
2
278
44
279
0
280
0
281
0
282
0
283
0
284
8
285
0
286
0
288
0
289
3
290
0
371
-2
372
-2
  0
ENDTAB
  0
TABLE
  2
BLOCK_RECORD
  5
9
330
0
100
AcDbSymbolTable
 70
2
  0
BLOCK_RECORD
  5
17
330
9
100
AcDbSymbolTableRecord
100
AcDbBlockTableRecord
  2
*Model_Space
340
1A
 70
0
280
1
281
0
  0
BLOCK_RECORD
  5
1B
330
9
100
AcDbSymbolTableRecord
100
AcDbBlockTableRecord
  2
*Paper_Space
340
1E
 70
0
280
1
281
0
  0
ENDTAB
  0
ENDSEC
  0
SECTION
  2
BLOCKS
  0
BLOCK
  5
18
330
17
100
AcDbEntity
  8
0
100
AcDbBlockBegin
  2
*Model_Space
 70
0
 10
0.0
 20
0.0
 30
0.0
  3
*Model_Space
  1

  0
ENDBLK
  5
19
330
17
100
AcDbEntity
  8
0
100
AcDbBlockEnd
  0
BLOCK
  5
1C
330
1B
100
AcDbEntity
  8
0
100
AcDbBlockBegin
  2
*Paper_Space
 70
0
 10
0.0
 20
0.0
 30
0.0
  3
*Paper_Space
  1

  0
ENDBLK
  5
1D
330
1B
100
AcDbEntity
  8
0
100
AcDbBlockEnd
  0
ENDSEC
  0
SECTION
  2
ENTITIES
  0
LWPOLYLINE
  5
2D
330
17
100
AcDbEntity
  8
0
100
AcDbPolyline
 90
401
 70
0
 10
-12.799962365057084
 20
-6.186828157359997
 10
-12.799954831358406
 20
-6.187442008706206
 10
-12.79990966278946
 20
-6.188668330673721
 10
-12.787678778191562
 20
-6.4376318310099165
 10
-12.78760352780769
 20
-6.438856674831548
 10
-12.787498240929239
 20
-6.44007930301742
 10
-12.787257646730481
 20
-6.442522088223399
 10
-12.787122386793143
 20
-6.4437417641882035
 10
-12.78695723526343
 20
-6.444957753366616
 10
-12.750382567502498
 20
-6.691523591868865
 10
-12.75018762384066
 20
-6.692735161914847
 10
-12.749963005488226
 20
-6.693941582904117
 10
-12.749484135114685
 20
-6.696349023098669
 10
-12.749229977399793
 20
-6.697549568210604
 10
-12.748946433396654
 20
-6.698743514402068
 10
-12.688380216164092
 20
-6.940537129637285
 10
-12.688067456636489
 20
-6.941723757837337
 10
-12.687725670005449
 20
-6.942902353147915
 10
-12.687013135235816
 20
-6.945251263390553
 10
-12.686642527418627
 20
-6.946421115755598
 10
-12.686243321623024
 20
-6.947581520617241
 10
-12.602268840115485
 20
-7.18227431022482
 10
-12.601841276764176
 20
-7.183424568712589
 10
-12.601385613443185
 20
-7.184563987839141
 10
-12.600446276369809
 20
-7.1868317468629215
 10
-12.599962787602749
 20
-7.187959640174142
 10
-12.599451764581048
 20
-7.1890753283835735
 10
-12.492877738150753
 20
-7.414407074767155
 10
-12.492339488640596
 20
-7.415509885935222
 10
-12.491774336912314
 20
-7.41659915565922
 10
-12.490617243855382
 20
-7.418763923727411
 10
-12.490025530394732
 20
-7.419838995767009
 10
-12.489407611572858
 20
-7.42089922264811
 10
-12.36126040532531
 20
-7.634699860085526
 10
-12.360616653287877
 20
-7.635744603270581
 10
-12.359947455866674
 20
-7.6367732333400795
 10
-12.358583750253942
 20
-7.638814162572928
 10
-12.35788951061835
 20
-7.6398260598193914
 10
-12.357170646886644
 20
-7.640820614817493
 10
-12.208684387233802
 20
-7.84103112835804
 10
-12.207941332347275
 20
-7.8420077421216305
 10
-12.20717453396405
 20
-7.842965826276135
 10
-12.20561734901328
 20
-7.844863261428742
 10
-12.204827269102907
 20
-7.845802238768734
 10
-12.20401438350477
 20
-7.846721543785662
 10
-12.036619072865577
 20
-8.031413798668972
 10
-12.035783871147402
 20
-8.032312877696306
 10
-12.034926856482244
 20
-8.033191189071132
 10
-12.033191188720508
 20
-8.03492685682437
 10
-12.032312877429263
 20
-8.035783871401655
 10
-12.031413798489666
 20
-8.036619073036206
 10
-11.846721543598164
 20
-8.204014383666575
 10
-11.845802238489213
 20
-8.204827269344023
 10
-11.844863261053348
 20
-8.205617349329152
 10
-11.842965825892946
 20
-8.207174534270735
 10
-11.842007741830443
 20
-8.207941332574507
 10
-11.841031128162598
 20
-8.20868438738625
 10
-11.640820614614839
 20
-8.357170647029463
 10
-11.639826059517233
 20
-8.357889510831178
 10
-11.63881416216789
 20
-8.35858375053185
 10
-11.636773232928661
 20
-8.359947456134336
 10
-11.635744602958667
 20
-8.360616653485387
 10
-11.634699859876363
 20
-8.361260405457678
 10
-11.420899222432638
 20
-8.489407611694993
 10
-11.419838995446
 20
-8.490025530576595
 10
-11.418763923297988
 20
-8.490617244091737
 10
-11.416599155224361
 20
-8.49177433713794
 10
-11.415509885605914
 20
-8.492339488806365
 10
-11.414407074546133
 20
-8.492877738261953
 10
-11.189075328157188
 20
-8.599451764681476
 10
-11.187959639836464
 20
-8.599962787752439
 10
-11.186831746411613
 20
-8.600446276563275
 10
-11.184563987382802
 20
-8.601385613625673
 10
-11.183424568367556
 20
-8.601841276897268
 10
-11.182274309993304
 20
-8.602268840204715
 10
-10.947581520382315
 20
-8.68624332170068
 10
-10.946421115405471
 20
-8.686642527534275
 10
-10.94525126292342
 20
-8.687013135383786
 10
-10.94290235267654
 20
-8.687725670142136
 10
-10.9417237574812
 20
-8.688067456735048
 10
-10.940537129398052
 20
-8.688380216230243
 10
-10.698743514160768
 20
-8.74894643345089
 10
-10.697549567850984
 20
-8.749229977480532
 10
-10.6963490226195
 20
-8.749484135216107
 10
-10.6939415824219
 20
-8.749963005577996
 10
-10.692735161551
 20
-8.750187623903798
 10
-10.691523591624474
 20
-8.750382567544847
 10
-10.444957753120875
 20
-8.786957235293805
 10
-10.443741763821947
 20
-8.78712238683832
 10
-10.442522087735966
 20
-8.78725764678454
 10
-10.440079302529213
 20
-8.787498240971274
 10
-10.43885667446392
 20
-8.78760352783479
 10
-10.43763183076338
 20
-8.787678778209681
 10
-10.188668330426154
 20
-8.799909662795592
 10
-10.187442013607665
 20
-8.799954831238075
 10
-10.186828155456894
 20
-8.7999623651151
 10
-10.186214674789312
 20
-8.799984960941572
 10
-10.184987613669435
 20
-8.800000019999999
 10
10.135012381420836
 20
-8.80000001999398
 10
10.136239437392675
 20
-8.79998496106193
 10
10.136852925786712
 20
-8.799962365045786
 10
10.137466776212108
 20
-8.799954831358413
 10
10.138693098179914
 20
-8.79990966278946
 10
10.387656598516514
 20
-8.787678778191527
 10
10.388881442338231
 20
-8.787603527807633
 10
10.390104070524217
 20
-8.787498240929175
 10
10.392546855730103
 20
-8.787257646730417
 10
10.393766531694808
 20
-8.787122386793087
 10
10.394982520873128
 20
-8.786957235263387
 10
10.64154835937478
 20
-8.750382567502541
 10
10.642759929420833
 20
-8.750187623840695
 10
10.643966350410182
 20
-8.749963005488233
 10
10.646373790605878
 20
-8.749484135114457
 10
10.647574335717735
 20
-8.749229977399587
 10
10.648768281909128
 20
-8.748946433396462
 10
10.890561897143186
 20
-8.688380216164191
 10
10.891748525343388
 20
-8.688067456636546
 10
10.892927120654093
 20
-8.687725670005463
 10
10.895276030897008
 20
-8.68701313523573
 10
10.896445883261919
 20
-8.686642527418577
 10
10.897606288123427
 20
-8.686243321623024
 10
11.132299077730806
 20
-8.602268840115592
 10
11.133449336218376
 20
-8.601841276764361
 10
11.134588755344737
 20
-8.601385613443448
 10
11.136856514368759
 20
-8.600446276369993
 10
11.137984407680165
 20
-8.599962787602855
 10
11.139100095889802
 20
-8.599451764581069
 10
11.364431842273518
 20
-8.492877738150703
 10
11.3655346534415
 20
-8.492339488640589
 10
11.366623923165406
 20
-8.49177433691235
 10
11.368788691232965
 20
-8.490617243855766
 10
11.369863763272662
 20
-8.490025530395087
 10
11.370923990153841
 20
-8.489407611573156
 10
11.584724627592152
 20
-8.361260405325055
 10
11.585769370777086
 20
-8.3606166532877
 10
11.586798000846471
 20
-8.359947455866575
 10
11.588838930078822
 20
-8.35858375025419
 10
11.589850827325392
 20
-8.357889510618534
 10
11.590845382323607
 20
-8.357170646886743
 10
11.791055895864503
 20
-8.208684387233625
 10
11.792032509628086
 20
-8.207941332347097
 10
11.792990593782605
 20
-8.207174533963872
 10
11.794888028934821
 20
-8.205617349013423
 10
11.795827006274806
 20
-8.204827269103042
 10
11.796746311291741
 20
-8.204014383504905
 10
11.981438566175115
 20
-8.036619072865655
 10
11.982337645202648
 20
-8.035783871147316
 10
11.983215956577624
 20
-8.034926856481974
 10
11.984951624331416
 20
-8.033191188719648
 10
11.985808638908537
 20
-8.03231287742858
 10
11.98664384054291
 20
-8.031413798489154
 10
12.15403915117281
 20
-7.846721543598122
 10
12.15485203684969
 20
-7.845802238489817
 10
12.155642116834287
 20
-7.844863261054627
 10
12.157199301775563
 20
-7.84296582589473
 10
12.157966100079904
 20
-7.842007741831594
 10
12.158709154892165
 20
-7.841031128163067
 10
12.307195414535926
 20
-7.640820614614576
 10
12.307914278337933
 20
-7.639826059516537
 10
12.308608518038909
 20
-7.63881416216676
 10
12.309972223641267
 20
-7.636773232927631
 10
12.310641420992027
 20
-7.635744602958049
 10
12.311285172964034
 20
-7.634699859876193
 10
12.439432379201435
 20
-7.420899222432276
 10
12.440050298083065
 20
-7.419838995445559
 10
12.440642011598243
 20
-7.418763923297476
 10
12.44179910464453
 20
-7.416599155223672
 10
12.442364256312914
 20
-7.415509885605296
 10
12.442902505768473
 20
-7.4144070745455934
 10
12.549476532187867
 20
-7.189075328156832
 10
12.549987555258753
 20
-7.187959639836258
 10
12.550471044069553
 20
-7.186831746411556
 10
12.551410381131944
 20
-7.184563987382802
 10
12.551866044403596
 20
-7.1834245683674
 10
12.552293607711107
 20
-7.182274309993012
 10
12.63626808920705
 20
-6.947581520382023
 10
12.636667295040724
 20
-6.946421115404895
 10
12.637037902890313
 20
-6.945251262922568
 10
12.637750437648492
 20
-6.94290235267615
 10
12.63809222424132
 20
-6.941723757481093
 10
12.638404983736422
 20
-6.940537129398216
 10
12.698971200957288
 20
-6.698743514159915
 10
12.699254744986888
 20
-6.697549567850352
 10
12.699508902722414
 20
-6.696349022619081
 10
12.69998777308416
 20
-6.693941582422305
 10
12.70021239141002
 20
-6.692735161551184
 10
12.700407335051125
 20
-6.6915235916244455
 10
12.736982002800062
 20
-6.444957753120825
 10
12.737147154344541
 20
-6.443741763822047
 10
12.737282414290746
 20
-6.442522087736222
 10
12.737523008477467
 20
-6.440079302529767
 10
12.737628295341011
 20
-6.4388566744643185
 10
12.737703545715902
 20
-6.437631830763628
 10
12.749934430301835
 20
-6.1886683304257915
 10
12.749979598744318
 20
-6.187442013607296
 10
12.749987132621328
 20
-6.186828155456752
 10
12.750009728447822
 20
-6.1862146747886655
 10
12.750024787506248
 20
-6.184987613669065
 10
12.750024787500223
 20
6.5150123814210374
 10
12.750009728568159
 20
6.516239437393409
 10
12.749987132552036
 20
6.516852925786317
 10
12.749979598864655
 20
6.517466776212615
 10
12.749934430295696
 20
6.518693098180137
 10
12.73770354569777
 20
6.767656598516339
 10
12.737628295313925
 20
6.768881442337637
 10
12.737523008435517
 20
6.770104070523182
 10
12.737282414236802
 20
6.772546855729054
 10
12.737147154299436
 20
6.773766531694186
 10
12.736982002769679
 20
6.774982520872925
 10
12.700407335008776
 20
7.021548359374975
 10
12.70021239134681
 20
7.022759929421724
 10
12.699987772994206
 20
7.0239663504117615
 10
12.699508902620323
 20
7.026373790607636
 10
12.699254744905545
 20
7.027574335718796
 10
12.698971200902577
 20
7.0287682819094925
 10
12.638404983670341
 20
7.27056189714353
 10
12.638092224142696
 20
7.27174852534376
 10
12.637750437511613
 20
7.272927120654515
 10
12.637037902741724
 20
7.275276030897935
 10
12.636667294924564
 20
7.276445883262802
 10
12.636268089129032
 20
7.277606288124275
 10
12.552293607621976
 20
7.512299077730489
 10
12.551866044270554
 20
7.513449336218592
 10
12.551410380949392
 20
7.514588755345478
 10
12.550471043875433
 20
7.5168565143705734
 10
12.549987555108515
 20
7.51798440768146
 10
12.549476532086942
 20
7.519100095890558
 10
12.44290250565652
 20
7.744431842274359
 10
12.442364256146334
 20
7.745534653442526
 10
12.441799104417981
 20
7.746623923166609
 10
12.44064201136166
 20
7.748788691233635
 10
12.440050297901081
 20
7.749863763273147
 10
12.43943237907925
 20
7.750923990154156
 10
12.311285172831134
 20
7.9647246275924175
 10
12.310641420794155
 20
7.965769370776769
 10
12.309972223373421
 20
7.966798000845586
 10
12.308608517761456
 20
7.968838930077432
 10
12.307914278125423
 20
7.969850827324585
 10
12.307195414393249
 20
7.970845382323368
 10
12.158709154740677
 20
8.171055895863581
 10
12.157966099853923
 20
8.172032509627442
 10
12.157199301470484
 20
8.172990593782217
 10
12.155642116518948
 20
8.174888028935705
 10
12.154852036608759
 20
8.17582700627542
 10
12.154039151010863
 20
8.176746311292092
 10
11.986643840371528
 20
8.36143856617553
 10
11.985808638653367
 20
8.362337645202864
 10
11.984951623988195
 20
8.36321595657769
 10
11.983215956226758
 20
8.36495162433063
 10
11.982337644935512
 20
8.365808638907914
 10
11.981438565995916
 20
8.366643840542466
 10
11.796746311104357
 20
8.534039151172884
 10
11.795827005995477
 20
8.53485203685026
 10
11.794888028559711
 20
8.535642116835312
 10
11.792990593399225
 20
8.53719930177698
 10
11.79203250933665
 20
8.53796610008083
 10
11.791055895668705
 20
8.538709154892643
 10
11.590845382120989
 20
8.687195414535815
 10
11.589850827023326
 20
8.687914278337573
 10
11.588838929673898
 20
8.688608518038286
 10
11.586798000435039
 20
8.689972223640517
 10
11.585769370465101
 20
8.690641420991533
 10
11.584724627382883
 20
8.691285172963774
 10
11.37092398993866
 20
8.819432379201395
 10
11.369863762951894
 20
8.82005029808306
 10
11.368788690803768
 20
8.820642011598267
 10
11.366623922730525
 20
8.82179910464425
 10
11.365534653112206
 20
8.82236425631261
 10
11.36443184205254
 20
8.822902505768127
 10
11.139100095663508
 20
8.929476532187707
 10
11.13798440734297
 20
8.929987555258599
 10
11.136856513918275
 20
8.930471044069371
 10
11.134588754889819
 20
8.931410381131641
 10
11.133449335874417
 20
8.931866044403307
 10
11.132299077499994
 20
8.932293607710825
 10
10.897606287888692
 20
9.016268089206903
 10
10.896445882911848
 20
9.016667295040492
 10
10.895276030429812
 20
9.01703790289001
 10
10.892927120182748
 20
9.017750437648417
 10
10.891748524987378
 20
9.018092224241329
 10
10.890561896904217
 20
9.018404983736517
 10
10.648768281666946
 20
9.078971200957163
 10
10.647574335357035
 20
9.079254744986848
 10
10.646373790125438
 20
9.079508902722438
 10
10.643966349927808
 20
9.07998777308432
 10
10.642759929057036
 20
9.080212391410093
 10
10.641548359130638
 20
9.08040733505112
 10
10.394982520626911
 20
9.116982002800086
 10
10.393766531328026
 20
9.117147154344593
 10
10.392546855242074
 20
9.117282414290813
 10
10.390104070035648
 20
9.11752300847752
 10
10.388881441970312
 20
9.117628295341042
 10
10.387656598269729
 20
9.117703545715933
 10
10.13869309793236
 20
9.129934430301851
 10
10.137466781113858
 20
9.129979598744335
 10
10.136852922963271
 20
9.129987132621359
 10
10.136239442295619
 20
9.130009728447831
 10
10.135012381175699
 20
9.130024787506258
 10
-10.184987613914558
 20
9.13002478750024
 10
-10.186214669886397
 20
9.13000972856819
 10
-10.186828158280449
 20
9.129987132552046
 10
-10.18744200870583
 20
9.129979598864672
 10
-10.188668330673636
 20
9.12993443029572
 10
-10.437631831010336
 20
9.117703545697786
 10
-10.438856674831925
 20
9.1176282953139
 10
-10.440079303017768
 20
9.117523008435455
 10
-10.442522088223342
 20
9.11728241423674
 10
-10.443741764188175
 20
9.117147154299403
 10
-10.444957753366623
 20
9.116982002769689
 10
-10.691523591868446
 20
9.080407335008829
 10
-10.692735161914527
 20
9.080212391346976
 10
-10.69394158290389
 20
9.079987772994514
 10
-10.6963490230995
 20
9.079508902620752
 10
-10.697549568211343
 20
9.079254744905882
 10
-10.698743514402707
 20
9.078971200902764
 10
-10.94053712963698
 20
9.018404983670443
 10
-10.941723757837295
 20
9.018092224142762
 10
-10.942902353148142
 20
9.017750437511637
 10
-10.945251263391413
 20
9.017037902741784
 10
-10.94642111575618
 20
9.016667294924666
 10
-10.947581520617561
 20
9.016268089129156
 10
-11.182274310224486
 20
8.932293607621872
 10
-11.183424568712113
 20
8.931866044270627
 10
-11.18456398783853
 20
8.931410380949693
 10
-11.18683174686278
 20
8.930471043876139
 10
-11.187959640174142
 20
8.929987555109015
 10
-11.189075328383709
 20
8.92947653208725
 10
-11.414407074767297
 20
8.822902505656948
 10
-11.415509885935407
 20
8.822364256146777
 10
-11.41659915565944
 20
8.821799104418474
 10
-11.418763923727198
 20
8.82064201136177
 10
-11.419838995766767
 20
8.82005029790114
 10
-11.420899222647833
 20
8.81943237907928
 10
-11.634699860085647
 20
8.691285172831485
 10
-11.635744603270453
 20
8.690641420794215
 10
-11.636773233339696
 20
8.68997222337319
 10
-11.638814162572459
 20
8.68860851776055
 10
-11.639826059819171
 20
8.6879142781248
 10
-11.640820614817528
 20
8.687195414392917
 10
-11.84103112835794
 20
8.538709154740154
 10
-11.842007742121467
 20
8.537966099853662
 10
-11.842965826275929
 20
8.537199301470487
 10
-11.844863261428571
 20
8.535642116519696
 10
-11.845802238768613
 20
8.534852036609273
 10
-11.846721543785591
 20
8.534039151011093
 10
-12.031413798668893
 20
8.366643840371921
 10
-12.032312877696413
 20
8.365808638653576
 10
-12.033191189071417
 20
8.36495162398824
 10
-12.034926856824896
 20
8.363215956226227
 10
-12.03578387140199
 20
8.36233764493516
 10
-12.036619073036377
 20
8.36143856599574
 10
-12.20401438366676
 20
8.176746311104232
 10
-12.204827269344236
 20
8.175827005995224
 10
-12.205617349329401
 20
8.174888028559316
 10
-12.207174534270877
 20
8.172990593399035
 10
-12.207941332574606
 20
8.172032509336589
 10
-12.208684387386313
 20
8.171055895668786
 10
-12.357170647029363
 20
7.970845382121226
 10
-12.357889510830987
 20
7.969850827023748
 10
-12.35858375053158
 20
7.96883892967454
 10
-12.359947456134137
 20
7.966798000435233
 10
-12.36061665348528
 20
7.965769370465104
 10
-12.361260405457656
 20
7.964724627382672
 10
-12.489407611695071
 20
7.750923989938769
 10
-12.490025530576716
 20
7.749863762952053
 10
-12.490617244091908
 20
7.748788690803956
 10
-12.491774337137926
 20
7.746623922730656
 10
-12.492339488806294
 20
7.745534653112287
 10
-12.49287773826184
 20
7.744431842052592
 10
-12.59945176468149
 20
7.5191000956633545
 10
-12.59996278775239
 20
7.517984407342794
 10
-12.600446276563162
 20
7.5168565139181
 10
-12.601385613625595
 20
7.514588754889246
 10
-12.601841276897261
 20
7.513449335873837
 10
-12.602268840204772
 20
7.512299077499435
 10
-12.686243321700701
 20
7.27760628788856
 10
-12.686642527534332
 20
7.2764458829116165
 10
-12.687013135383864
 20
7.275276030429467
 10
-12.687725670142143
 20
7.272927120182786
 10
-12.688067456735027
 20
7.271748524987544
 10
-12.688380216230186
 20
7.270561896904489
 10
-12.748946433450882
 20
7.028768281667091
 10
-12.749229977480539
 20
7.027574335357265
 10
-12.749484135216122
 20
7.026373790125739
 10
-12.749963005577996
 20
7.0239663499281875
 10
-12.750187623903798
 20
7.0227599290573295
 10
-12.750382567544833
 20
7.021548359130847
 10
-12.786957235293798
 20
6.774982520627141
 10
-12.787122386838305
 20
6.773766531328327
 10
-12.78725764678451
 20
6.772546855242467
 10
-12.787498240971246
 20
6.770104070035835
 10
-12.787603527834776
 20
6.7688814419704215
 10
-12.787678778209681
 20
6.76765659826976
 10
-12.799909662795613
 20
6.518693097931909
 10
-12.79995483123811
 20
6.517466781112837
 10
-12.799962365115121
 20
6.516852922962606
 10
-12.7999849609416
 20
6.516239442294214
 10
-12.800000019999999
 20
6.51501238117519
 10
-12.800000019993973
 20
-6.184987613914629
 10
-12.799984960971727
 20
-6.186214673561075
 10
-12.799962365057084
 20
-6.186828157359997
  0
LWPOLYLINE
  5
2E
330
17
100
AcDbEntity
  8
0
100
AcDbPolyline
 90
394
 70
0
 10
-12.849947300659778
 20
-6.1880552271484675
 10
-12.849939766835789
 20
-6.188669088704721
 10
-12.849849429700157
 20
-6.191121732578438
 10
-12.83761854510226
 20
-6.440085232914633
 10
-12.837468044338252
 20
-6.442534920496648
 10
-12.837257470586621
 20
-6.444980176807263
 10
-12.837016876387864
 20
-6.447422962013242
 10
-12.836746356519953
 20
-6.44986231388188
 10
-12.836416053468781
 20
-6.452294292177903
 10
-12.79984138570785
 20
-6.698860130680153
 10
-12.799451498393935
 20
-6.701283270711535
 10
-12.79900226170028
 20
-6.703696112629757
 10
-12.79852339132674
 20
-6.70610355282431
 10
-12.798015075909674
 20
-6.708504642988153
 10
-12.797447987917565
 20
-6.71089253531138
 10
-12.736881770685002
 20
-6.952686150546597
 10
-12.736256251645429
 20
-6.955059406887372
 10
-12.735572678400445
 20
-6.957416597449587
 10
-12.734860143630812
 20
-6.959765507692225
 10
-12.73411892801495
 20
-6.962105212363831
 10
-12.733320516443726
 20
-6.964426022029102
 10
-12.649346034936187
 20
-7.19911881163668
 10
-12.648490908254956
 20
-7.2014193285546995
 10
-12.647579581635739
 20
-7.20369816675084
 10
-12.646640244562363
 20
-7.2059659257746205
 10
-12.645673267052416
 20
-7.208221712340666
 10
-12.644651221034565
 20
-7.210453088703737
 10
-12.53807719460427
 20
-7.435784835087318
 10
-12.537000695610871
 20
-7.437990457368315
 10
-12.53587039218256
 20
-7.440168996761848
 10
-12.534713299125627
 20
-7.442333764830039
 10
-12.533529872233927
 20
-7.444483908855489
 10
-12.53229403462106
 20
-7.4466043625646705
 10
-12.404146828373513
 20
-7.660405000002086
 10
-12.402859324330848
 20
-7.6624944863199715
 10
-12.401520929521894
 20
-7.664551746407533
 10
-12.400157223909162
 20
-7.666592675640381
 10
-12.398768744672708
 20
-7.6686164700827035
 10
-12.397331017245236
 20
-7.670605580029175
 10
-12.248844757592394
 20
-7.870816093569722
 10
-12.247358647856487
 20
-7.872769321048061
 10
-12.245825051128392
 20
-7.874685489309179
 10
-12.244267866177623
 20
-7.876582924461786
 10
-12.242687706396353
 20
-7.878460879094817
 10
-12.241061935240722
 20
-7.8802994890827165
 10
-12.073666624601529
 20
-8.064991743966026
 10
-12.071996221206945
 20
-8.066789901975746
 10
-12.070282191919489
 20
-8.06854652468148
 10
-12.068546524157753
 20
-8.070282192434718
 10
-12.066789901619188
 20
-8.071996221546435
 10
-12.06499174378493
 20
-8.073666624773786
 10
-11.880299488893428
 20
-8.241061935404154
 10
-11.87846087872147
 20
-8.242687706718407
 10
-11.876582923896692
 20
-8.24426786664916
 10
-11.87468548873629
 20
-8.245825051590742
 10
-11.872769320659202
 20
-8.247358648159945
 10
-11.87081609337234
 20
-8.24884475774627
 10
-11.670605579824581
 20
-8.397331017389483
 10
-11.668616469679094
 20
-8.398768744956975
 10
-11.666592675030998
 20
-8.4001572243236
 10
-11.66455174579177
 20
-8.401520929926086
 10
-11.66249448590321
 20
-8.402859324594743
 10
-11.660404999790856
 20
-8.40414682850713
 10
-11.44660436234713
 20
-8.532294034744446
 10
-11.44448390842686
 20
-8.533529872476748
 10
-11.442333764184596
 20
-8.534713299477453
 10
-11.44016899611097
 20
-8.535870392523655
 10
-11.437990456928532
 20
-8.537000695832248
 10
-11.435784834864108
 20
-8.5380771947165
 10
-11.210453088475163
 20
-8.644651221136023
 10
-11.208221711889536
 20
-8.645673267252405
 10
-11.205965925096223
 20
-8.646640244849905
 10
-11.203698166067412
 20
-8.647579581912304
 10
-11.201419328093877
 20
-8.648490908432706
 10
-11.199118811402897
 20
-8.649346035026234
 10
-10.964426021791908
 20
-8.733320516522198
 10
-10.96210521189623
 20
-8.734118928169416
 10
-10.959765506990635
 20
-8.734860143849922
 10
-10.957416596743755
 20
-8.735572678608271
 10
-10.955059406412005
 20
-8.736256251776993
 10
-10.952686150305013
 20
-8.736881770751744
 10
-10.710892535067728
 20
-8.79744798797239
 10
-10.708504642507862
 20
-8.798015076017506
 10
-10.70610355210492
 20
-8.798523391475946
 10
-10.70369611190732
 20
-8.799002261837835
 10
-10.70128327022583
 20
-8.799451498478206
 10
-10.698860130433374
 20
-8.799841385750561
 10
-10.452294291929775
 20
-8.83641605349952
 10
-10.449862313392714
 20
-8.836746356580292
 10
-10.447422961281731
 20
-8.83701687646596
 10
-10.444980176074978
 20
-8.837257470652695
 10
-10.442534920005528
 20
-8.837468044374468
 10
-10.440085232665695
 20
-8.837618545120492
 10
-10.191121732328469
 20
-8.849849429706403
 10
-10.188669069519008
 20
-8.849939767306765
 10
-10.187441754787287
 20
-8.849969896418962
 10
-10.18498761366942
 20
-8.850000014999999
 10
10.135012381420836
 20
-8.85000001499398
 10
10.137466522538631
 20
-8.849969896412944
 10
10.138693837270353
 20
-8.849939767300746
 10
10.141146500084659
 20
-8.84984942970015
 10
10.39011000042126
 20
-8.837618545102217
 10
10.392559688003445
 20
-8.837468044338195
 10
10.395004944314223
 20
-8.837257470586536
 10
10.39744772952011
 20
-8.837016876387779
 10
10.399887081388584
 20
-8.836746356519889
 10
10.40231905968443
 20
-8.836416053468746
 10
10.648884898186083
 20
-8.7998413857079
 10
10.651308038217593
 20
-8.79945149839395
 10
10.65372088013595
 20
-8.799002261700267
 10
10.656128320331646
 20
-8.79852339132649
 10
10.658529410495333
 20
-8.798015075909447
 10
10.660917302818433
 20
-8.797447987917373
 10
10.902710918052492
 20
-8.736881770685102
 10
10.90508417439355
 20
-8.736256251645457
 10
10.907441364956071
 20
-8.735572678400374
 10
10.909790275198986
 20
-8.734860143630641
 10
10.912129979870286
 20
-8.734118928014865
 10
10.914450789535266
 20
-8.733320516443726
 10
11.149143579142645
 20
-8.649346034936293
 10
11.151444096060288
 20
-8.648490908255212
 10
11.153722934256052
 20
-8.647579581636165
 10
11.155990693280074
 20
-8.646640244562711
 10
11.158246479846497
 20
-8.645673267052615
 10
11.160477856209951
 20
-8.644651221034593
 10
11.385809602593667
 20
-8.538077194604227
 10
11.388015224874493
 20
-8.537000695610907
 10
11.390193764267877
 20
-8.535870392182687
 10
11.392358532335436
 20
-8.534713299126103
 10
11.394508676361056
 20
-8.533529872234325
 10
11.396629130070409
 20
-8.532294034621366
 10
11.61042976750872
 20
-8.404146828373264
 10
11.612519253826378
 20
-8.402859324330734
 10
11.614576513913704
 20
-8.40152092952195
 10
11.616617443146055
 20
-8.400157223909567
 10
11.618641237588605
 20
-8.398768744672957
 10
11.620630347535297
 20
-8.397331017245328
 10
11.820840861076192
 20
-8.24884475759221
 10
11.82279408855456
 20
-8.247358647856295
 10
11.824710256815678
 20
-8.245825051128186
 10
11.826607691967894
 20
-8.244267866177736
 10
11.82848564660091
 20
-8.242687706396481
 10
11.830324256588796
 20
-8.241061935240857
 10
12.015016511472169
 20
-8.073666624601607
 10
12.016814669482272
 20
-8.071996221206682
 10
12.01857129218834
 20
-8.07028219191885
 10
12.020306959942133
 20
-8.068546524156524
 10
12.022020989053487
 20
-8.066789901618307
 10
12.023691392280483
 20
-8.064991743784418
 10
12.191086702910383
 20
-7.880299488893385
 10
12.192712474223526
 20
-7.878460878722727
 10
12.194292634153214
 20
-7.876582923899306
 10
12.19584981909449
 20
-7.874685488739409
 10
12.197383415664802
 20
-7.872769320661028
 10
12.198869525252178
 20
-7.870816093372817
 10
12.347355784895939
 20
-7.670605579824326
 10
12.348793512464027
 20
-7.6686164696779855
 10
12.35018199183122
 20
-7.666592675029008
 10
12.351545697433579
 20
-7.664551745789879
 10
12.352884092101647
 20
-7.662494485902165
 10
12.354171596013487
 20
-7.660404999790686
 10
12.482318802250887
 20
-7.446604362346768
 10
12.483554639983254
 20
-7.444483908426349
 10
12.48473806698405
 20
-7.442333764183935
 10
12.485895160030339
 20
-7.440168996110131
 10
12.487025463338853
 20
-7.437990456927835
 10
12.488101962223027
 20
-7.4357848348635684
 10
12.594675988642422
 20
-7.210453088474807
 10
12.59569803475867
 20
-7.2082217118894505
 10
12.596665012356056
 20
-7.205965925096436
 10
12.597604349418447
 20
-7.2036981660676815
 10
12.598515675938984
 20
-7.201419328093863
 10
12.599370802532604
 20
-7.199118811402592
 10
12.683345284028547
 20
-6.964426021791603
 10
12.68414369567597
 20
-6.96210521189537
 10
12.684884911356619
 20
-6.9597655069892
 10
12.685597446114798
 20
-6.957416596742782
 10
12.686281019283342
 20
-6.955059406411586
 10
12.686906538257944
 20
-6.952686150305169
 10
12.74747275547881
 20
-6.7108925350668684
 10
12.748039843523827
 20
-6.708504642507435
 10
12.748548158982175
 20
-6.706103552104935
 10
12.749027029343921
 20
-6.703696111908158
 10
12.749476265984384
 20
-6.7012832702262415
 10
12.749866153256818
 20
-6.698860130433339
 10
12.786440821005755
 20
-6.452294291929718
 10
12.7867711240865
 20
-6.44986231339297
 10
12.787041643972145
 20
-6.4474229612822995
 10
12.787282238158866
 20
-6.444980176075845
 10
12.787492811880668
 20
-6.442534920006082
 10
12.787643312626727
 20
-6.440085232665943
 10
12.79987419721266
 20
-6.1911217323281065
 10
12.799964534813029
 20
-6.188669069518056
 10
12.799994663925219
 20
-6.187441754786327
 10
12.800024782506227
 20
-6.184987613669037
 10
12.800024782500202
 20
6.515012381421066
 10
12.799994663919193
 20
6.517466522538271
 10
12.799964534807003
 20
6.518693837269993
 10
12.799874197206378
 20
6.5211465000848605
 10
12.787643312608452
 20
6.770110000421063
 10
12.787492811844515
 20
6.772559688002424
 10
12.787282238092956
 20
6.775004944312386
 10
12.787041643894241
 20
6.777447729518258
 10
12.786771124026274
 20
6.7798870813875425
 10
12.78644082097503
 20
6.7823190596842124
 10
12.749866153214128
 20
7.028884898186263
 10
12.749476265899943
 20
7.031308038219187
 10
12.749027029205934
 20
7.0337208801389295
 10
12.748548158832051
 20
7.036128320334804
 10
12.748039843415256
 20
7.038529410497098
 10
12.747472755423502
 20
7.040917302818798
 10
12.686906538191266
 20
7.282710918052835
 10
12.686281019151608
 20
7.285084174393965
 10
12.685597445906495
 20
7.287441364956543
 10
12.684884911136606
 20
7.289790275199962
 10
12.684143695520845
 20
7.292129979871213
 10
12.683345283949734
 20
7.2944507895361355
 10
12.599370802442678
 20
7.5291435791423496
 10
12.598515675761178
 20
7.531444096061044
 10
12.597604349141676
 20
7.533722934257838
 10
12.596665012067717
 20
7.535990693282933
 10
12.59569803455804
 20
7.538246479848311
 10
12.594675988540473
 20
7.540477856210728
 10
12.48810196211005
 20
7.76580960259453
 10
12.487025463116538
 20
7.768015224875711
 10
12.485895159688141
 20
7.770193764269422
 10
12.48473806663182
 20
7.7723585323364475
 10
12.48355463974022
 20
7.774508676361712
 10
12.482318802127452
 20
7.776629130070724
 10
12.354171595879336
 20
7.990429767508985
 10
12.352884091837552
 20
7.992519253825456
 10
12.351545697029565
 20
7.994576513911653
 10
12.3501819914176
 20
7.996617443143499
 10
12.348793512180265
 20
7.998641237587222
 10
12.34735578475184
 20
8.00063034753505
 10
12.19886952509927
 20
8.200840861075264
 10
12.197383415362907
 20
8.202794088554157
 10
12.195849818634372
 20
8.204710256815808
 10
12.194292633682835
 20
8.206607691969296
 10
12.192712473901992
 20
8.20848564660178
 10
12.191086702746816
 20
8.210324256589153
 10
12.02369139210748
 20
8.39501651147259
 10
12.022020988712882
 20
8.39681466948231
 10
12.020306959425426
 20
8.398571292188038
 10
12.018571291663989
 20
8.400306959940977
 10
12.016814669125438
 20
8.402020989052694
 10
12.01501651129118
 20
8.403691392280045
 10
11.83032425639962
 20
8.571086702910463
 10
11.828485646227847
 20
8.572712474224552
 10
11.826607691403268
 20
8.574292634155164
 10
11.824710256242781
 20
8.575849819096831
 10
11.822794088165523
 20
8.577383415666183
 10
11.820840860878462
 20
8.578869525252664
 10
11.620630347330746
 20
8.727355784895835
 10
11.61864123718513
 20
8.728793512463412
 10
11.616617442536892
 20
8.730181991830122
 10
11.614576513298033
 20
8.731545697432352
 10
11.612519253409602
 20
8.732884092100917
 10
11.610429767297376
 20
8.734171596013226
 10
11.396629129853153
 20
8.862318802250847
 10
11.394508675932656
 20
8.863554639983285
 10
11.39235853169015
 20
8.864738066984117
 10
11.390193763616907
 20
8.8658951600301
 10
11.388015224434696
 20
8.86702546333855
 10
11.385809602370529
 20
8.868101962222681
 10
11.160477855981497
 20
8.974675988642261
 10
11.158246479396183
 20
8.975698034758494
 10
11.155990692603211
 20
8.976665012355866
 10
11.153722933574755
 20
8.977604349418137
 10
11.15144409560088
 20
8.978515675938688
 10
11.149143578909559
 20
8.979370802532344
 10
10.914450789298257
 20
9.063345284028422
 10
10.912129979402607
 20
9.06414369567564
 10
10.909790274497027
 20
9.064884911356131
 10
10.907441364249962
 20
9.065597446114538
 10
10.905084173918198
 20
9.066281019283267
 10
10.902710917811191
 20
9.066906538258024
 10
10.660917302573921
 20
9.12747275547867
 10
10.658529410013813
 20
9.128039843523844
 10
10.656128319610616
 20
9.128548158982326
 10
10.653720879412987
 20
9.129027029344208
 10
10.651308037731752
 20
9.129476265984529
 10
10.648884897939524
 20
9.129866153256835
 10
10.402319059435797
 20
9.1664408210058
 10
10.399887080898822
 20
9.166771124086559
 10
10.39744772878791
 20
9.167041643972226
 10
10.395004943581483
 20
9.167282238158933
 10
10.392559687511948
 20
9.167492811880713
 10
10.390110000172058
 20
9.167643312626744
 10
10.14114649983469
 20
9.179874197212662
 10
10.138693837025329
 20
9.179964534813024
 10
10.137466522293664
 20
9.179994663925221
 10
10.135012381175699
 20
9.180024782506258
 10
-10.184987613914572
 20
9.18002478250024
 10
-10.187441755032438
 20
9.179994663919203
 10
-10.188669069764131
 20
9.179964534807006
 10
-10.191121732578353
 20
9.17987419720641
 10
-10.440085232915052
 20
9.167643312608476
 10
-10.44253492049701
 20
9.167492811844468
 10
-10.444980176807562
 20
9.167282238092845
 10
-10.447422962013135
 20
9.16704164389413
 10
-10.449862313881823
 20
9.16677112402622
 10
-10.45229429217791
 20
9.166440820975048
 10
-10.698860130679734
 20
9.129866153214188
 10
-10.7012832707113
 20
9.12947626590023
 10
-10.703696112629714
 20
9.129027029206533
 10
-10.706103552825326
 20
9.128548158832771
 10
-10.70850464298897
 20
9.128039843415742
 10
-10.710892535312013
 20
9.127472755423675
 10
-10.952686150546285
 20
9.066906538191354
 10
-10.9550594068876
 20
9.066281019151639
 10
-10.957416597450347
 20
9.065597445906484
 10
-10.959765507693618
 20
9.06488491113663
 10
-10.962105212364676
 20
9.064143695520919
 10
-10.964426022029414
 20
9.063345283949857
 10
-11.199118811636339
 20
8.979370802442574
 10
-11.201419328554067
 20
8.978515675761457
 10
-11.20369816674993
 20
8.977604349142375
 10
-11.20596592577418
 20
8.976665012068821
 10
-11.208221712340517
 20
8.975698034558754
 10
-11.210453088703886
 20
8.974675988540774
 10
-11.435784835087475
 20
8.868101962110472
 10
-11.437990457368528
 20
8.86702546311703
 10
-11.440168996762125
 20
8.86589515968869
 10
-11.442333764829883
 20
8.864738066631986
 10
-11.444483908855261
 20
8.863554639740322
 10
-11.446604362564386
 20
8.862318802127497
 10
-11.6604050000022
 20
8.734171595879701
 10
-11.662494486319574
 20
8.732884091837349
 10
-11.664551746406644
 20
8.73154569702875
 10
-11.666592675639407
 20
8.73018199141611
 10
-11.668616470082242
 20
8.728793512179315
 10
-11.670605580029218
 20
8.727355784751502
 10
-11.87081609356963
 20
8.578869525098739
 10
-11.872769321047869
 20
8.577383415362902
 10
-11.874685489308874
 20
8.575849818634893
 10
-11.876582924461516
 20
8.574292633684102
 10
-11.87846087909466
 20
8.572712473902762
 10
-11.880299489082645
 20
8.571086702747046
 10
-12.064991743965948
 20
8.403691392107874
 10
-12.066789901976037
 20
8.402020988712948
 10
-12.06854652468212
 20
8.400306959425116
 10
-12.070282192435599
 20
8.398571291663103
 10
-12.071996221546954
 20
8.396814669124886
 10
-12.07366662477395
 20
8.395016511291004
 10
-12.241061935404332
 20
8.210324256399495
 10
-12.242687706718655
 20
8.208485646227452
 10
-12.24426786664948
 20
8.206607691402581
 10
-12.245825051590955
 20
8.2047102562423
 10
-12.247358648160088
 20
8.202794088165305
 10
-12.24884475774634
 20
8.200840860878529
 10
-12.39733101738939
 20
8.000630347330969
 10
-12.398768744956698
 20
7.998641237185744
 10
-12.400157224323152
 20
7.996617442537918
 10
-12.40152092992571
 20
7.994576513298611
 10
-12.402859324594544
 20
7.992519253409796
 10
-12.404146828507109
 20
7.990429767297165
 10
-12.532294034744524
 20
7.776629129853262
 10
-12.533529872476919
 20
7.774508675932836
 10
-12.534713299477701
 20
7.772358531690408
 10
-12.53587039252372
 20
7.770193763617108
 10
-12.53700069583222
 20
7.768015224434826
 10
-12.538077194716394
 20
7.765809602370567
 10
-12.644651221136044
 20
7.5404778559813295
 10
-12.645673267252292
 20
7.538246479396001
 10
-12.646640244849664
 20
7.535990692603001
 10
-12.647579581912098
 20
7.533722933574147
 10
-12.648490908432635
 20
7.531444095600307
 10
-12.649346035026284
 20
7.5291435789090215
 10
-12.733320516522213
 20
7.294450789298146
 10
-12.734118928169508
 20
7.292129979402269
 10
-12.734860143850057
 20
7.289790274496468
 10
-12.735572678608335
 20
7.287441364249787
 10
-12.736256251776993
 20
7.285084173918236
 10
-12.736881770751694
 20
7.282710917811457
 10
-12.79744798797239
 20
7.040917302574059
 10
-12.79801507601752
 20
7.038529410014107
 10
-12.798523391475982
 20
7.03612831961108
 10
-12.799002261837856
 20
7.033720879413529
 10
-12.799451498478206
 20
7.031308037732124
 10
-12.79984138575054
 20
7.02888489793974
 10
-12.836416053499505
 20
6.782319059436034
 10
-12.83674635658025
 20
6.779887080899215
 10
-12.83701687646591
 20
6.777447728788474
 10
-12.837257470652645
 20
6.775004943581841
 10
-12.837468044374447
 20
6.77255968751215
 10
-12.837618545120492
 20
6.770110000172075
 10
-12.849849429706424
 20
6.521146499834224
 10
-12.849939767306793
 20
6.518693837024188
 10
-12.849969896418983
 20
6.517466522292466
 10
-12.850000015000006
 20
6.515012381175161
 10
-12.85000001499398
 20
-6.184987613914657
 10
-12.849969896950228
 20
-6.187441733146187
 10
-12.849947300659778
 20
-6.1880552271484675
  0
LWPOLYLINE
  5
2F
330
17
100
AcDbEntity
  8
0
100
AcDbPolyline
 90
394
 70
0
 10
-12.899932236262444
 20
-6.189282296937414
 10
-12.899924702313157
 20
-6.1898961687032354
 10
-12.89978919661084
 20
-6.1935751344831615
 10
-12.887558312012942
 20
-6.442538634819357
 10
-12.887332560868813
 20
-6.446213166161762
 10
-12.88701670024399
 20
-6.449881050597114
 10
-12.886776106045232
 20
-6.452323835803092
 10
-12.886370326246762
 20
-6.4559828635755565
 10
-12.885874871674147
 20
-6.459630830989191
 10
-12.849300203913216
 20
-6.70619666949144
 10
-12.848715372947197
 20
-6.709831379508223
 10
-12.848041517912336
 20
-6.713450642355397
 10
-12.847562647538794
 20
-6.71585808254995
 10
-12.846800174419542
 20
-6.719459717765702
 10
-12.845949542438476
 20
-6.723041556220693
 10
-12.785383325205913
 20
-6.96483517145591
 10
-12.784445046654383
 20
-6.9683950559374
 10
-12.783419686795455
 20
-6.971930841751266
 10
-12.782707152025822
 20
-6.974279751993905
 10
-12.781595328611289
 20
-6.977789308972056
 10
-12.780397711264413
 20
-6.981270523440955
 10
-12.696423229756874
 20
-7.215963313048533
 10
-12.695140539745722
 20
-7.21941408839681
 10
-12.693773549828308
 20
-7.222832345662539
 10
-12.692834212754931
 20
-7.2251001046863195
 10
-12.691383746502083
 20
-7.228483784507183
 10
-12.689850677488081
 20
-7.2318308490239005
 10
-12.583276651057787
 20
-7.457162595407482
 10
-12.581661902581146
 20
-7.4604710288014005
 10
-12.579966447452804
 20
-7.463738837864469
 10
-12.578809354395872
 20
-7.46590360593266
 10
-12.577034214073123
 20
-7.469128821943961
 10
-12.575180457669276
 20
-7.472309502481231
 10
-12.447033251421729
 20
-7.686110139918647
 10
-12.445101995373818
 20
-7.689244369369348
 10
-12.443094403177128
 20
-7.6923302594749785
 10
-12.441730697564395
 20
-7.6943711887078265
 10
-12.439647978727052
 20
-7.697406880346016
 10
-12.437491387603814
 20
-7.7003905452408645
 10
-12.289005127950972
 20
-7.900601058781412
 10
-12.286775963365685
 20
-7.9035308999745055
 10
-12.28447556829272
 20
-7.906405152342224
 10
-12.28291838334195
 20
-7.9083025874948305
 10
-12.2805481436898
 20
-7.911119519420907
 10
-12.278109486976675
 20
-7.913877434379771
 10
-12.110714176337481
 20
-8.09856968926308
 10
-12.108208571266488
 20
-8.101266926255185
 10
-12.105637527356734
 20
-8.10390186029182
 10
-12.103901859594998
 20
-8.105637528045058
 10
-12.1012669258091
 20
-8.108208571691215
 10
-12.098569689080193
 20
-8.110714176511358
 10
-11.913877434188691
 20
-8.278109487141727
 10
-11.91111951895374
 20
-8.280548144092784
 10
-11.90830258674005
 20
-8.282918383969161
 10
-11.906405151579648
 20
-8.284475568910743
 10
-11.903530899487976
 20
-8.286775963745377
 10
-11.900601058582097
 20
-8.28900512810629
 10
-11.700390545034338
 20
-8.437491387749503
 10
-11.697406879840969
 20
-8.439647979082764
 10
-11.69437118789412
 20
-8.441730698115357
 10
-11.692330258654891
 20
-8.443094403717843
 10
-11.689244368847767
 20
-8.445101995704093
 10
-11.686110139705349
 20
-8.447033251556576
 10
-11.472309502261623
 20
-8.575180457793891
 10
-11.469128821407736
 20
-8.577034214376901
 10
-11.465903605071205
 20
-8.578809354863168
 10
-11.463738836997578
 20
-8.57996644790937
 10
-11.460471028251149
 20
-8.58166190285813
 10
-11.457162595182098
 20
-8.583276651171055
 10
-11.231830848793152
 20
-8.689850677590577
 10
-11.228483783942593
 20
-8.691383746752372
 10
-11.225100103780818
 20
-8.692834213136528
 10
-11.222832344752007
 20
-8.693773550198927
 10
-11.219414087820184
 20
-8.695140539968143
 10
-11.215963312812477
 20
-8.696423229847746
 10
-10.981270523201488
 20
-8.78039771134371
 10
-10.977789308386988
 20
-8.781595328804563
 10
-10.974279751057836
 20
-8.78270715231605
 10
-10.971930840810955
 20
-8.7834196870744
 10
-10.968395055342782
 20
-8.784445046818938
 10
-10.964835171211973
 20
-8.785383325273244
 10
-10.723041555974689
 20
-8.84594954249389
 10
-10.719459717164739
 20
-8.846800174554481
 10
-10.715858081590355
 20
-8.847562647735785
 10
-10.713450641392754
 20
-8.848041518097673
 10
-10.709831378900688
 20
-8.848715373052613
 10
-10.706196669242274
 20
-8.849300203956268
 10
-10.459630830738675
 20
-8.885874871705226
 10
-10.45598286296348
 20
-8.886370326322258
 10
-10.452323834827496
 20
-8.88677610614738
 10
-10.449881049620743
 20
-8.887016700334115
 10
-10.446213165547121
 20
-8.887332560914146
 10
-10.442538634567995
 20
-8.887558312031302
 10
-10.19357513423077
 20
-8.899789196617213
 10
-10.189896140047239
 20
-8.899924703016623
 10
-10.188668825315517
 20
-8.89995483212882
 10
-10.184987613669406
 20
-8.90000001
 10
10.135012381420864
 20
-8.900000009993981
 10
10.138693593066876
 20
-8.899954832122802
 10
10.139920907798597
 20
-8.899924703010605
 10
10.143599901989376
 20
-8.89978919661084
 10
10.392563402325976
 20
-8.887558312012906
 10
10.396237933668658
 20
-8.887332560868757
 10
10.399905818104259
 20
-8.887016700243898
 10
10.402348603310145
 20
-8.88677610604514
 10
10.406007631082332
 20
-8.886370326246684
 10
10.409655598495704
 20
-8.885874871674105
 10
10.656221436997356
 20
-8.849300203913259
 10
10.659856147014352
 20
-8.848715372947204
 10
10.663475409861718
 20
-8.848041517912293
 10
10.665882850057415
 20
-8.847562647538517
 10
10.66948448527296
 20
-8.846800174419315
 10
10.673066323727738
 20
-8.84594954243829
 10
10.914859938961797
 20
-8.78538332520602
 10
10.918419823443713
 20
-8.784445046654362
 10
10.92195560925802
 20
-8.783419686795291
 10
10.924304519500936
 20
-8.782707152025559
 10
10.927814076478654
 20
-8.781595328611154
 10
10.931295290947105
 20
-8.780397711264428
 10
11.165988080554484
 20
-8.696423229756995
 10
11.1694388559022
 20
-8.695140539746056
 10
11.172857113167368
 20
-8.693773549828883
 10
11.17512487219139
 20
-8.692834212755429
 10
11.17850855201283
 20
-8.691383746502368
 10
11.181855616530129
 20
-8.68985067748811
 10
11.407187362913845
 20
-8.583276651057744
 10
11.410495796307515
 20
-8.581661902581217
 10
11.413763605370349
 20
-8.579966447453025
 10
11.415928373437907
 20
-8.57880935439644
 10
11.41915358944945
 20
-8.577034214073564
 10
11.422334269986976
 20
-8.575180457669575
 10
11.636134907425287
 20
-8.447033251421473
 10
11.63926913687564
 20
-8.445101995373776
 10
11.642355026980937
 20
-8.44309440317732
 10
11.644395956213287
 20
-8.441730697564935
 10
11.647431647851818
 20
-8.439647978727379
 10
11.650415312746986
 20
-8.437491387603913
 10
11.850625826287882
 20
-8.289005127950794
 10
11.853555667481004
 20
-8.286775963365493
 10
11.856429919848722
 20
-8.284475568292507
 10
11.858327355000938
 20
-8.282918383342057
 10
11.861144286927015
 20
-8.280548143689927
 10
11.86390220188585
 20
-8.27810948697681
 10
12.048594456769223
 20
-8.11071417633756
 10
12.051291693761897
 20
-8.108208571266047
 10
12.053926627799058
 20
-8.105637527355732
 10
12.05566229555285
 20
-8.103901859593407
 10
12.058233339198438
 20
-8.101266925808034
 10
12.060738944018055
 20
-8.098569689079675
 10
12.228134254647955
 20
-7.913877434188642
 10
12.230572911597335
 20
-7.911119518955644
 10
12.232943151472142
 20
-7.908302586743979
 10
12.234500336413419
 20
-7.906405151584082
 10
12.23680073124973
 20
-7.9035308994904625
 10
12.23902989561222
 20
-7.900601058582566
 10
12.38751615525598
 20
-7.700390545034075
 10
12.389672746590122
 20
-7.697406879839427
 10
12.391755465623561
 20
-7.694371187891264
 10
12.39311917122592
 20
-7.6923302586521345
 10
12.395126763211266
 20
-7.689244368846275
 10
12.39705801906294
 20
-7.686110139705171
 10
12.52520522530034
 20
-7.472309502261254
 10
12.52705898188347
 20
-7.469128821407139
 10
12.52883412236983
 20
-7.4659036050703875
 10
12.529991215416118
 20
-7.463738836996583
 10
12.531686670364763
 20
-7.460471028250375
 10
12.533301418677581
 20
-7.4571625951815435
 10
12.639875445096976
 20
-7.231830848792782
 10
12.641408514258586
 20
-7.22848378394265
 10
12.642858980642558
 20
-7.2251001037813225
 10
12.643798317704949
 20
-7.222832344752568
 10
12.645165307474372
 20
-7.219414087820319
 10
12.64644799735413
 20
-7.215963312812171
 10
12.730422478850073
 20
-6.981270523201182
 10
12.73162009631119
 20
-6.977789308385837
 10
12.732731919822925
 20
-6.974279751055832
 10
12.733444454581104
 20
-6.971930840809414
 10
12.734469814325365
 20
-6.968395055342086
 10
12.735408092779437
 20
-6.96483517121213
 10
12.795974310000304
 20
-6.723041555973829
 10
12.796824942060738
 20
-6.719459717164526
 10
12.797587415241935
 20
-6.715858081590788
 10
12.798066285603682
 20
-6.713450641394012
 10
12.798740140558778
 20
-6.709831378901292
 10
12.79932497146254
 20
-6.706196669242232
 10
12.835899639211476
 20
-6.459630830738611
 10
12.836395093828457
 20
-6.455982862963886
 10
12.836800873653544
 20
-6.45232383482837
 10
12.837041467840265
 20
-6.449881049621915
 10
12.837357328420353
 20
-6.446213165547839
 10
12.837583079537524
 20
-6.442538634568251
 10
12.849813964123456
 20
-6.193575134230414
 10
12.849949470522887
 20
-6.189896140045995
 10
12.849979599635077
 20
-6.1886688253142665
 10
12.850024777506235
 20
-6.184987613669016
 10
12.85002477750021
 20
6.515012381421087
 10
12.849979599629052
 20
6.518693593066217
 10
12.849949470516862
 20
6.519920907797939
 10
12.84981396411709
 20
6.523599901989584
 10
12.837583079519163
 20
6.772563402325787
 10
12.837357328375106
 20
6.776237933667211
 10
12.837041467750396
 20
6.779905818101582
 10
12.836800873551681
 20
6.7823486033074545
 10
12.83639509375314
 20
6.786007631080892
 10
12.835899639180383
 20
6.7896555984955
 10
12.79932497141948
 20
7.03622143699755
 10
12.798740140453077
 20
7.039856147016643
 10
12.79806628541769
 20
7.0434754098661045
 10
12.797587415043807
 20
7.045882850061979
 10
12.796824941924967
 20
7.049484485275407
 10
12.795974309944427
 20
7.053066323728103
 10
12.735408092712191
 20
7.294859938962141
 10
12.73446981416049
 20
7.298419823444171
 10
12.733444454301406
 20
7.301955609258563
 10
12.732731919531517
 20
7.304304519501983
 10
12.731620096117126
 20
7.307814076479609
 10
12.730422478770436
 20
7.311295290947996
 10
12.64644799726338
 20
7.54598808055421
 10
12.64516530725183
 20
7.549438855903489
 10
12.64379831733396
 20
7.552857113170198
 10
12.642858980260002
 20
7.555124872195293
 10
12.641408514007566
 20
7.558508552015162
 10
12.639875444993976
 20
7.561855616530899
 10
12.533301418563553
 20
7.7871873629147
 10
12.53168667008677
 20
7.790495796308896
 10
12.5299912149583
 20
7.793763605372234
 10
12.52883412190198
 20
7.79592837343926
 10
12.527058981579358
 20
7.799153589450285
 10
12.525205225175654
 20
7.802334269987298
 10
12.397058018927538
 20
8.01613490742556
 10
12.395126762880949
 20
8.019269136874144
 10
12.393119170685708
 20
8.02235502697772
 10
12.391755465073743
 20
8.024395956209567
 10
12.389672746235078
 20
8.027431647849859
 10
12.387516155110404
 20
8.03041531274674
 10
12.239029895457833
 20
8.230625826286953
 10
12.23680073087192
 20
8.233555667480879
 10
12.23450033579826
 20
8.236429919849392
 10
12.232943150846722
 20
8.23832735500288
 10
12.230572911195196
 20
8.24114428692814
 10
12.22813425448274
 20
8.243902201886208
 10
12.060738943843404
 20
8.428594456769645
 10
12.058233338772425
 20
8.43129169376175
 10
12.055662294862685
 20
8.433926627798378
 10
12.053926627101248
 20
8.435662295551317
 10
12.051291693315335
 20
8.438233339197474
 10
12.048594456586443
 20
8.440738944017617
 10
11.863902201694884
 20
8.608134254648036
 10
11.861144286460217
 20
8.610572911598858
 10
11.858327354246796
 20
8.612943151475008
 10
11.85642991908631
 20
8.614500336416675
 10
11.853555666994367
 20
8.616800731251551
 10
11.85062582608819
 20
8.619029895612691
 10
11.650415312540474
 20
8.767516155255862
 10
11.647431647346934
 20
8.76967274658925
 10
11.644395955399887
 20
8.771755465621958
 10
11.642355026161027
 20
8.773119171224188
 10
11.639269136354102
 20
8.77512676321031
 10
11.636134907211868
 20
8.777058019062672
 10
11.422334269767646
 20
8.905205225300293
 10
11.419153588913389
 20
8.907058981883509
 10
11.415928372576502
 20
8.90883412236996
 10
11.41376360450326
 20
8.909991215415943
 10
11.410495795757186
 20
8.911686670364489
 10
11.407187362688518
 20
8.913301418677229
 10
11.181855616299487
 20
9.019875445096808
 10
11.178508551449426
 20
9.021408514258383
 10
11.175124871288148
 20
9.022858980642354
 10
11.172857112259692
 20
9.023798317704625
 10
11.169438855327371
 20
9.025165307474062
 10
11.165988080319153
 20
9.026447997353856
 10
10.931295290707851
 20
9.110422478849934
 10
10.927814075893366
 20
9.11162009631078
 10
10.924304518564242
 20
9.11273191982226
 10
10.921955608317177
 20
9.113444454580666
 10
10.918419822848989
 20
9.114469814325211
 10
10.914859938718166
 20
9.115408092779525
 10
10.673066323480896
 20
9.175974310000171
 10
10.669484484670562
 20
9.176824942060847
 10
10.665882849095794
 20
9.177587415242215
 10
10.663475408898165
 20
9.178066285604096
 10
10.659856146406469
 20
9.178740140558958
 10
10.656221436748439
 20
9.179324971462542
 10
10.409655598244711
 20
9.215899639211507
 10
10.406007630469645
 20
9.216395093828524
 10
10.402348602333774
 20
9.21680087365364
 10
10.399905817127348
 20
9.217041467840346
 10
10.396237933053612
 20
9.217357328420391
 10
10.392563402074359
 20
9.217583079537555
 10
10.14359990173699
 20
9.229813964123473
 10
10.13992090755363
 20
9.229949470522882
 10
10.138693592821966
 20
9.22997959963508
 10
10.13501238117567
 20
9.230024777506259
 10
-10.184987613914586
 20
9.23002477750024
 10
-10.188668825560697
 20
9.229979599629061
 10
-10.18989614029239
 20
9.229949470516864
 10
-10.19357513448307
 20
9.229813964117099
 10
-10.442538634819769
 20
9.217583079519166
 10
-10.446213166162096
 20
9.217357328375037
 10
-10.449881050597355
 20
9.217041467750228
 10
-10.452323835802929
 20
9.216800873551513
 10
-10.455982863575471
 20
9.216395093753029
 10
-10.459630830989198
 20
9.215899639180407
 10
-10.706196669491021
 20
9.179324971419547
 10
-10.709831379508088
 20
9.178740140453478
 10
-10.71345064235554
 20
9.178066285418552
 10
-10.71585808255115
 20
9.17758741504479
 10
-10.719459717766611
 20
9.176824941925595
 10
-10.723041556221332
 20
9.175974309944593
 10
-10.964835171455604
 20
9.115408092712272
 10
-10.96839505593789
 20
9.114469814160515
 10
-10.971930841752553
 20
9.113444454301323
 10
-10.974279751995823
 20
9.11273191953147
 10
-10.977789308973172
 20
9.111620096117164
 10
-10.981270523441268
 20
9.110422478770559
 10
-11.215963313048192
 20
9.026447997263276
 10
-11.219414088396036
 20
9.02516530725228
 10
-11.222832345661345
 20
9.02379831733505
 10
-11.225100104685595
 20
9.022858980261496
 10
-11.228483784506906
 20
9.021408514008485
 10
-11.23183084902405
 20
9.019875444994291
 10
-11.457162595407638
 20
8.91330141856399
 10
-11.460471028801663
 20
8.911686670087292
 10
-11.463738837864824
 20
8.909991214958907
 10
-11.465903605932581
 20
8.908834121902203
 10
-11.469128821943784
 20
8.907058981579496
 10
-11.472309502480954
 20
8.905205225175706
 10
-11.686110139918767
 20
8.77705801892791
 10
-11.689244369368708
 20
8.775126762880475
 10
-11.692330259473593
 20
8.773119170684303
 10
-11.694371188706356
 20
8.771755465071664
 10
-11.697406880345312
 20
8.769672746233844
 10
-11.700390545240893
 20
8.76751615511008
 10
-11.900601058781305
 20
8.619029895457317
 10
-11.903530899974257
 20
8.61680073087215
 10
-11.906405152341833
 20
8.614500335799299
 10
-11.908302587494475
 20
8.612943150848508
 10
-11.911119519420694
 20
8.61057291119625
 10
-11.9138774343797
 20
8.608134254483005
 10
-12.098569689263002
 20
8.440738943843833
 10
-12.101266926255661
 20
8.438233338772314
 10
-12.103901860292837
 20
8.435662294861999
 10
-12.105637528046316
 20
8.433926627099986
 10
-12.108208571691904
 20
8.43129169331462
 10
-12.110714176511522
 20
8.428594456586275
 10
-12.278109487141904
 20
8.243902201694766
 10
-12.280548144093075
 20
8.24114428645968
 10
-12.282918383969559
 20
8.238327354245847
 10
-12.284475568911034
 20
8.236429919085566
 10
-12.286775963745555
 20
8.233555666994022
 10
-12.289005128106368
 20
8.230625826088279
 10
-12.437491387749418
 20
8.030415312540718
 10
-12.439647979082395
 20
8.02743164734774
 10
-12.441730698114725
 20
8.024395955401303
 10
-12.443094403717282
 20
8.022355026161996
 10
-12.445101995703808
 20
8.019269136354481
 10
-12.447033251556562
 20
8.01613490721165
 10
-12.575180457793977
 20
7.802334269767748
 10
-12.577034214377122
 20
7.799153588913619
 10
-12.578809354863509
 20
7.795928372576853
 10
-12.579966447909527
 20
7.793763604503553
 10
-12.581661902858144
 20
7.790495795757359
 10
-12.583276651170948
 20
7.787187362688549
 10
-12.689850677590599
 20
7.561855616299312
 10
-12.691383746752194
 20
7.558508551449208
 10
-12.692834213136166
 20
7.555124871287909
 10
-12.6937735501986
 20
7.552857112259055
 10
-12.695140539968023
 20
7.549438855326777
 10
-12.696423229847795
 20
7.545988080318601
 10
-12.780397711343724
 20
7.311295290707726
 10
-12.781595328804684
 20
7.307814075892921
 10
-12.782707152316249
 20
7.30430451856347
 10
-12.783419687074527
 20
7.3019556083167885
 10
-12.784445046818973
 20
7.298419822848928
 10
-12.785383325273187
 20
7.2948599387184245
 10
-12.845949542493884
 20
7.053066323481026
 10
-12.846800174554502
 20
7.049484484670948
 10
-12.847562647735828
 20
7.045882849096422
 10
-12.848041518097702
 20
7.043475408898871
 10
-12.848715373052627
 20
7.039856146406919
 10
-12.849300203956261
 20
7.036221436748633
 10
-12.885874871705226
 20
6.789655598244927
 10
-12.886370326322208
 20
6.786007630470095
 10
-12.886776106147295
 20
6.78234860233448
 10
-12.88701670033403
 20
6.7799058171278475
 10
-12.887332560914118
 20
6.776237933053878
 10
-12.887558312031288
 20
6.772563402074383
 10
-12.89978919661722
 20
6.523599901736532
 10
-12.899924703016666
 20
6.519920907552134
 10
-12.899954832128856
 20
6.518693592820412
 10
-12.90000001
 20
6.51501238117514
 10
-12.900000009993974
 20
-6.184987613914679
 10
-12.899954832928728
 20
-6.188668792731299
 10
-12.899932236262444
 20
-6.189282296937414
  0
LWPOLYLINE
  5
30
330
17
100
AcDbEntity
  8
0
100
AcDbPolyline
 90
394
 70
0
 10
-12.949917171865124
 20
-6.190509366725969
 10
-12.949909637790526
 20
-6.191123248701757
 10
-12.949728963521537
 20
-6.196028536387878
 10
-12.937498078923639
 20
-6.444992036724074
 10
-12.93719707739939
 20
-6.449891411826869
 10
-12.936775929901373
 20
-6.454781924386964
 10
-12.936535335702615
 20
-6.457224709592943
 10
-12.935994295973572
 20
-6.462103413269226
 10
-12.9353336898795
 20
-6.466967369800479
 10
-12.898759022118568
 20
-6.713533208302728
 10
-12.897979247500459
 20
-6.718379488304912
 10
-12.89708077412439
 20
-6.7232051720810375
 10
-12.896601903750849
 20
-6.72561261227559
 10
-12.895585272929424
 20
-6.730414792543243
 10
-12.894451096959386
 20
-6.735190577129998
 10
-12.833884879726824
 20
-6.976984192365215
 10
-12.832633841663338
 20
-6.981730704987434
 10
-12.83126669519045
 20
-6.986445086052946
 10
-12.830554160420817
 20
-6.988793996295584
 10
-12.829071729207627
 20
-6.993473405580289
 10
-12.827474906085115
 20
-6.998115024852815
 10
-12.743500424577576
 20
-7.232807814460394
 10
-12.741790171236488
 20
-7.237408848238921
 10
-12.739967518020862
 20
-7.241966524574231
 10
-12.739028180947486
 20
-7.244234283598011
 10
-12.73709422595175
 20
-7.2487458566737
 10
-12.735050133941598
 20
-7.253208609344064
 10
-12.628476107511304
 20
-7.478540355727645
 10
-12.626323109551421
 20
-7.482951600234493
 10
-12.624062502723064
 20
-7.487308678967096
 10
-12.622905409666132
 20
-7.489473447035287
 10
-12.620538555912319
 20
-7.493773735032434
 10
-12.618066880717492
 20
-7.498014642397791
 10
-12.489919674469945
 20
-7.711815279835207
 10
-12.487344666416789
 20
-7.715994252418724
 10
-12.484667876832347
 20
-7.7201087725424244
 10
-12.483304171219615
 20
-7.7221497017752725
 10
-12.480527212781396
 20
-7.726197290609321
 10
-12.477651757962406
 20
-7.730175510452547
 10
-12.329165498309564
 20
-7.930386023993094
 10
-12.326193278874896
 20
-7.93429247890095
 10
-12.323126085457048
 20
-7.938124815375268
 10
-12.321568900506279
 20
-7.940022250527875
 10
-12.318408580983245
 20
-7.943778159746998
 10
-12.315157038712627
 20
-7.947455379676825
 10
-12.147761728073434
 20
-8.132147634560134
 10
-12.14442092132603
 20
-8.135743950534625
 10
-12.140992862793965
 20
-8.139257195902168
 10
-12.13925719503223
 20
-8.140992863655406
 10
-12.13574394999901
 20
-8.144420921835994
 10
-12.132147634375457
 20
-8.14776172824893
 10
-11.947455379483955
 20
-8.315157038879299
 10
-11.94377815918601
 20
-8.31840858146716
 10
-11.940022249583407
 20
-8.321568901289162
 10
-11.938124814423006
 20
-8.323126086230744
 10
-11.934292478316735
 20
-8.326193279330816
 10
-11.93038602379184
 20
-8.329165498466317
 10
-11.73017551024408
 20
-8.47765175810953
 10
-11.72619729000283
 20
-8.48052721320856
 10
-11.722149700757242
 20
-8.483304171907108
 10
-11.720108771518014
 20
-8.484667877509594
 10
-11.715994251792324
 20
-8.487344666813442
 10
-11.711815279619842
 20
-8.489919674606028
 10
-11.498014642176116
 20
-8.618066880843344
 10
-11.493773734388597
 20
-8.620538556277062
 10
-11.489473445957813
 20
-8.622905410248883
 10
-11.487308677884187
 20
-8.624062503295086
 10
-11.48295159957378
 20
-8.626323109884012
 10
-11.478540355500087
 20
-8.628476107625602
 10
-11.253208609111141
 20
-8.735050134045125
 10
-11.24874585599565
 20
-8.737094226252331
 10
-11.244234282465413
 20
-8.739028181423159
 10
-11.241966523436602
 20
-8.739967518485557
 10
-11.237408847546504
 20
-8.741790171503588
 10
-11.232807814222056
 20
-8.743500424669257
 10
-10.998115024611067
 20
-8.827474906165222
 10
-10.993473404877733
 20
-8.829071729439711
 10
-10.988793995125036
 20
-8.830554160782178
 10
-10.986445084878156
 20
-8.831266695540528
 10
-10.981730704273588
 20
-8.832633841860883
 10
-10.976984192118948
 20
-8.833884879794745
 10
-10.735190576881664
 20
-8.894451097015391
 10
-10.73041479182163
 20
-8.895585273091456
 10
-10.725612611075775
 20
-8.896601903995624
 10
-10.723205170878174
 20
-8.897080774357512
 10
-10.718379487575518
 20
-8.897979247627028
 10
-10.71353320805116
 20
-8.898759022161983
 10
-10.466967369547561
 20
-8.93533368991094
 10
-10.462103412534233
 20
-8.93599429606423
 10
-10.45722470837326
 20
-8.9365353358288
 10
-10.454781923166507
 20
-8.936775930015536
 10
-10.449891411088728
 20
-8.937197077453824
 10
-10.44499203647031
 20
-8.937498078942106
 10
-10.196028536133085
 20
-8.949728963528017
 10
-10.191123210575483
 20
-8.949909638726481
 10
-10.189895895843762
 20
-8.949939767838679
 10
-10.184987613669392
 20
-8.950000005
 10
10.135012381420864
 20
-8.950000004993981
 10
10.13992066359512
 20
-8.94993976783266
 10
10.141147978326842
 20
-8.949909638720463
 10
10.146053303894092
 20
-8.949728963521522
 10
10.395016804230693
 20
-8.93749807892359
 10
10.399916179333843
 20
-8.937197077399311
 10
10.404806691894294
 20
-8.936775929901266
 10
10.40724947710018
 20
-8.936535335702509
 10
10.412128180776108
 20
-8.93599429597348
 10
10.416992137307005
 20
-8.935333689879457
 10
10.663557975808658
 20
-8.898759022118611
 10
10.668404255811112
 20
-8.897979247500459
 10
10.673229939587486
 20
-8.897080774124326
 10
10.675637379783183
 20
-8.89660190375055
 10
10.680439560050587
 20
-8.895585272929175
 10
10.685215344637072
 20
-8.894451096959202
 10
10.92700895987113
 20
-8.83388487972693
 10
10.931755472493933
 20
-8.832633841663267
 10
10.936469853559998
 20
-8.831266695190202
 10
10.938818763802914
 20
-8.83055416042047
 10
10.943498173087022
 20
-8.829071729207442
 10
10.948139792358972
 20
-8.82747490608513
 10
11.182832581966352
 20
-8.743500424577697
 10
11.187433615744112
 20
-8.7417901712369
 10
11.191991292078683
 20
-8.7399675180216
 10
11.194259051102705
 20
-8.739028180948146
 10
11.19877062417919
 20
-8.73709422595212
 10
11.203233376850307
 20
-8.735050133941627
 10
11.428565123234023
 20
-8.628476107511261
 10
11.432976367740537
 20
-8.626323109551528
 10
11.43733344647282
 20
-8.624062502723362
 10
11.439498214540379
 20
-8.622905409666778
 10
11.443798502537845
 20
-8.620538555912809
 10
11.448039409903515
 20
-8.618066880717784
 10
11.661840047341826
 20
-8.489919674469682
 10
11.666019019924903
 20
-8.487344666416824
 10
11.670133540048141
 20
-8.484667876832695
 10
11.672174469280492
 20
-8.483304171220311
 10
11.676222058115002
 20
-8.480527212781809
 10
11.680200277958676
 20
-8.47765175796249
 10
11.880410791499571
 20
-8.329165498309372
 10
11.884317246407448
 20
-8.32619327887469
 10
11.888149582881795
 20
-8.323126085456828
 10
11.89004701803401
 20
-8.321568900506378
 10
11.89380292725312
 20
-8.318408580983366
 10
11.897480147182904
 20
-8.315157038712762
 10
12.082172402066277
 20
-8.147761728073512
 10
12.085768718041521
 20
-8.144420921325413
 10
12.089281963409775
 20
-8.140992862792608
 10
12.091017631163567
 20
-8.139257195030282
 10
12.094445689343416
 20
-8.135743949997753
 10
12.097786495755656
 20
-8.132147634374938
 10
12.265181806385556
 20
-7.947455379483905
 10
12.268433348971172
 20
-7.943778159188554
 10
12.27159366879107
 20
-7.940022249588658
 10
12.273150853732346
 20
-7.938124814428761
 10
12.276218046834629
 20
-7.934292478319897
 10
12.279190265972233
 20
-7.930386023792316
 10
12.427676525615993
 20
-7.730175510243825
 10
12.430551980716217
 20
-7.726197290000869
 10
12.433328939415901
 20
-7.722149700753519
 10
12.43469264501826
 20
-7.72010877151439
 10
12.437369434320914
 20
-7.715994251790384
 10
12.439944442112392
 20
-7.711815279619657
 10
12.568091648349792
 20
-7.49801464217574
 10
12.57056332378366
 20
-7.493773734387922
 10
12.572930177755637
 20
-7.48947344595684
 10
12.574087270801925
 20
-7.487308677883036
 10
12.576347877390674
 20
-7.482951599572914
 10
12.578500875132136
 20
-7.4785403554995185
 10
12.68507490155153
 20
-7.253208609110757
 10
12.687118993758475
 20
-7.248745855995843
 10
12.68905294892906
 20
-7.244234282466202
 10
12.689992285991451
 20
-7.241966523437448
 10
12.691814939009731
 20
-7.2374088475467815
 10
12.693525192175628
 20
-7.232807814221751
 10
12.77749967367157
 20
-6.998115024610762
 10
12.779096496946437
 20
-6.993473404876312
 10
12.78057892828923
 20
-6.988793995122471
 10
12.78129146304741
 20
-6.986445084876053
 10
12.782658609367388
 20
-6.981730704272593
 10
12.78390964730093
 20
-6.97698419211909
 10
12.844475864521797
 20
-6.73519057688079
 10
12.845610040597677
 20
-6.730414791821623
 10
12.846626671501696
 20
-6.725612611076642
 10
12.847105541863442
 20
-6.723205170879865
 10
12.848004015133142
 20
-6.71837948757635
 10
12.84878378966826
 20
-6.713533208051125
 10
12.885358457417198
 20
-6.466967369547504
 10
12.886019063570387
 20
-6.462103412534802
 10
12.886560103334915
 20
-6.457224708374447
 10
12.886800697521636
 20
-6.454781923167992
 10
12.88722184496001
 20
-6.449891411089602
 10
12.887522846448348
 20
-6.444992036470559
 10
12.89975373103428
 20
-6.196028536132722
 10
12.899934406232774
 20
-6.1911232105739415
 10
12.899964535344964
 20
-6.189895895842213
 10
12.900024772506242
 20
-6.184987613668994
 10
12.900024772500217
 20
6.5150123814211085
 10
12.899964535338938
 20
6.519920663594171
 10
12.899934406226748
 20
6.521147978325892
 10
12.899753731027772
 20
6.526053303894308
 10
12.887522846429846
 20
6.775016804230511
 10
12.887221844905696
 20
6.779916179331998
 10
12.886800697407836
 20
6.784806691890786
 10
12.88656010320912
 20
6.787249477096658
 10
12.886019063479978
 20
6.792128180774242
 10
12.885358457385763
 20
6.796992137306788
 10
12.84878378962486
 20
7.043557975808838
 10
12.848004015006211
 20
7.0484042558140985
 10
12.847105541629446
 20
7.0532299395932725
 10
12.846626671255564
 20
7.055637379789147
 10
12.845610040434678
 20
7.060439560053709
 10
12.844475864465323
 20
7.065215344637409
 10
12.783909647233088
 20
7.307008959871446
 10
12.782658609169403
 20
7.311755472494376
 10
12.781291462696288
 20
7.316469853560591
 10
12.780578927926399
 20
7.3188187638040105
 10
12.779096496713407
 20
7.323498173088012
 10
12.777499673591137
 20
7.328139792359849
 10
12.693525192084081
 20
7.562832581966063
 10
12.691814938742453
 20
7.567433615745934
 10
12.689992285526245
 20
7.571991292082558
 10
12.689052948452286
 20
7.574259051107653
 10
12.68711899345709
 20
7.578770624182013
 10
12.685074901447507
 20
7.583233376851069
 10
12.578500875017085
 20
7.808565123234871
 10
12.576347877057003
 20
7.812976367742088
 10
12.574087270228432
 20
7.817333446475047
 10
12.572930177172111
 20
7.819498214542072
 10
12.570563323418497
 20
7.823798502538864
 10
12.568091648223856
 20
7.828039409903866
 10
12.43994444197574
 20
8.041840047342127
 10
12.437369433924374
 20
8.04601901992283
 10
12.434692644341851
 20
8.050133540043795
 10
12.433328938729886
 20
8.052174469275641
 10
12.430551980289891
 20
8.056222058112496
 10
12.427676525468996
 20
8.060200277958423
 10
12.279190265816425
 20
8.260410791498636
 10
12.276218046380905
 20
8.264317246407593
 10
12.273150852962146
 20
8.268149582882977
 10
12.27159366801061
 20
8.270047018036465
 10
12.26843334848843
 20
8.273802927254494
 10
12.265181806218692
 20
8.277480147183262
 10
12.097786495579356
 20
8.462172402066699
 10
12.094445688831968
 20
8.465768718041197
 10
12.091017630299916
 20
8.469281963408726
 10
12.089281962538479
 20
8.471017631161665
 10
12.08576871750526
 20
8.474445689342254
 10
12.082172401881706
 20
8.47778649575519
 10
11.897480146990148
 20
8.645181806385608
 10
11.893802926692587
 20
8.64843334897315
 10
11.890047017090353
 20
8.65159366879486
 10
11.888149581929866
 20
8.653150853736527
 10
11.884317245823212
 20
8.656218046836912
 10
11.880410791297948
 20
8.659190265972711
 10
11.680200277750231
 20
8.807676525615882
 10
11.676222057508738
 20
8.81055198071509
 10
11.672174468262881
 20
8.813328939413793
 10
11.670133539024022
 20
8.814692645016024
 10
11.666019019298574
 20
8.817369434319701
 10
11.661840047126361
 20
8.819944442112124
 10
11.448039409682139
 20
8.948091648349745
 10
11.44379850189415
 20
8.950563323783726
 10
11.439498213462883
 20
8.952930177755803
 10
11.43733344538964
 20
8.954087270801786
 10
11.432976367079704
 20
8.956347877390428
 10
11.428565123006507
 20
8.958500875131783
 10
11.203233376617476
 20
9.065074901551363
 10
11.19877062350264
 20
9.067118993758278
 10
11.194259049973056
 20
9.069052948928842
 10
11.1919912909446
 20
9.069992285991113
 10
11.187433615053862
 20
9.071814939009435
 10
11.182832581728746
 20
9.073525192175367
 10
10.948139792117445
 20
9.157499673671445
 10
10.943498172384125
 20
9.15909649694592
 10
10.938818762631456
 20
9.16057892828838
 10
10.936469852384391
 20
9.161291463046787
 10
10.93175547177978
 20
9.162658609367163
 10
10.927008959625113
 20
9.163909647301026
 10
10.685215344387842
 20
9.224475864521672
 10
10.680439559327311
 20
9.22561004059785
 10
10.675637378580973
 20
9.226626671502103
 10
10.673229938383344
 20
9.227105541863985
 10
10.668404255081185
 20
9.228004015133386
 10
10.663557975557325
 20
9.228783789668256
 10
10.416992137053597
 20
9.265358457417221
 10
10.41212818004044
 20
9.26601906357049
 10
10.40724947587961
 20
9.266560103335053
 10
10.404806690673183
 20
9.26680069752176
 10
10.399916178595248
 20
9.267221844960062
 10
10.395016803976688
 20
9.267522846448358
 10
10.14605330363932
 20
9.279753731034276
 10
10.141147978081932
 20
9.27993440623274
 10
10.139920663350267
 20
9.279964535344938
 10
10.13501238117567
 20
9.280024772506259
 10
-10.1849876139146
 20
9.28002477250024
 10
-10.18989589608897
 20
9.27996453533892
 10
-10.191123210820663
 20
9.279934406226722
 10
-10.1960285363878
 20
9.279753731027782
 10
-10.4449920367245
 20
9.267522846429848
 10
-10.449891411827181
 20
9.267221844905606
 10
-10.454781924387149
 20
9.266800697407618
 10
-10.457224709592722
 20
9.266560103208903
 10
-10.46210341326912
 20
9.266019063479845
 10
-10.466967369800471
 20
9.265358457385759
 10
-10.713533208302294
 20
9.228783789624899
 10
-10.718379488304876
 20
9.228004015006725
 10
-10.723205172081379
 20
9.227105541630571
 10
-10.72561261227699
 20
9.22662667125681
 10
-10.730414792544266
 20
9.225610040435448
 10
-10.735190577130638
 20
9.224475864465504
 10
-10.97698419236491
 20
9.163909647233183
 10
-10.981730704988195
 20
9.162658609169391
 10
-10.986445086054758
 20
9.161291462696163
 10
-10.988793996298028
 20
9.16057892792631
 10
-10.993473405581653
 20
9.159096496713417
 10
-10.99811502485312
 20
9.157499673591253
 10
-11.232807814460045
 20
9.07352519208397
 10
-11.237408848238005
 20
9.07181493874311
 10
-11.241966524572746
 20
9.069992285527732
 10
-11.244234283596995
 20
9.069052948454178
 10
-11.248745856673281
 20
9.067118993458223
 10
-11.253208609344213
 20
9.065074901447808
 10
-11.478540355727802
 20
8.958500875017506
 10
-11.482951600234784
 20
8.956347877057546
 10
-11.487308678967523
 20
8.954087270229117
 10
-11.48947344703528
 20
8.952930177172412
 10
-11.493773735032292
 20
8.950563323418677
 10
-11.498014642397507
 20
8.948091648223915
 10
-11.71181527983532
 20
8.81994444197612
 10
-11.715994252417829
 20
8.81736943392361
 10
-11.720108772540542
 20
8.814692644339864
 10
-11.722149701773304
 20
8.813328938727224
 10
-11.726197290608383
 20
8.81055198028836
 10
-11.730175510452582
 20
8.807676525468665
 10
-11.930386023992995
 20
8.659190265815901
 10
-11.934292478900659
 20
8.656218046381397
 10
-11.938124815374778
 20
8.653150852963705
 10
-11.94002225052742
 20
8.651593668012914
 10
-11.943778159746742
 20
8.648433348489746
 10
-11.94745537967674
 20
8.645181806218957
 10
-12.132147634560042
 20
8.477786495579785
 10
-12.135743950535286
 20
8.474445688831686
 10
-12.13925719590354
 20
8.471017630298874
 10
-12.140992863657019
 20
8.469281962536861
 10
-12.144420921836854
 20
8.465768717504346
 10
-12.147761728249094
 20
8.462172401881539
 10
-12.315157038879477
 20
8.27748014699003
 10
-12.318408581467494
 20
8.273802926691907
 10
-12.321568901289638
 20
8.270047017089112
 10
-12.323126086231113
 20
8.268149581928832
 10
-12.326193279331036
 20
8.264317245822738
 10
-12.329165498466395
 20
8.260410791298021
 10
-12.477651758109445
 20
8.06020027775046
 10
-12.480527213208106
 20
8.056222057509736
 10
-12.483304171906312
 20
8.052174468264688
 10
-12.484667877508869
 20
8.050133539025381
 10
-12.487344666813087
 20
8.046019019299166
 10
-12.489919674606014
 20
8.041840047126144
 10
-12.618066880843429
 20
7.8280394096822405
 10
-12.620538556277324
 20
7.823798501894409
 10
-12.622905410249302
 20
7.819498213463305
 10
-12.62406250329532
 20
7.817333445390005
 10
-12.62632310988407
 20
7.812976367079905
 10
-12.628476107625502
 20
7.808565123006531
 10
-12.735050134045153
 20
7.583233376617294
 10
-12.737094226252083
 20
7.578770623502415
 10
-12.739028181422668
 20
7.574259049972817
 10
-12.739967518485102
 20
7.571991290943963
 10
-12.741790171503396
 20
7.567433615053254
 10
-12.743500424669307
 20
7.562832581728188
 10
-12.827474906165236
 20
7.328139792117312
 10
-12.82907172943986
 20
7.32349817238358
 10
-12.830554160782441
 20
7.318818762630471
 10
-12.83126669554072
 20
7.31646985238379
 10
-12.83263384186094
 20
7.31175547177962
 10
-12.833884879794695
 20
7.307008959625399
 10
-12.894451097015391
 20
7.065215344388001
 10
-12.895585273091498
 20
7.06043955932779
 10
-12.896601903995688
 20
7.055637378581757
 10
-12.897080774357562
 20
7.053229938384206
 10
-12.897979247627049
 20
7.048404255081721
 10
-12.898759022161968
 20
7.043557975557533
 10
-12.935333689910934
 20
6.796992137053827
 10
-12.935994296064166
 20
6.79212818004099
 10
-12.936535335828694
 20
6.787249475880493
 10
-12.936775930015429
 20
6.784806690673861
 10
-12.937197077453774
 20
6.779916178595606
 10
-12.937498078942099
 20
6.7750168039766905
 10
-12.949728963528031
 20
6.5260533036388395
 10
-12.949909638726524
 20
6.521147978080087
 10
-12.949939767838714
 20
6.5199206633483655
 10
-12.950000005000007
 20
6.515012381175119
 10
-12.950000004993981
 20
-6.1849876139147
 10
-12.949939768907214
 20
-6.189895852316411
 10
-12.949917171865124
 20
-6.190509366725969
  0
LWPOLYLINE
  5
31
330
17
100
AcDbEntity
  8
0
100
AcDbPolyline
 90
394
 70
0
 10
-12.999902107467804
 20
-6.191736436514432
 10
-12.999894573267909
 20
-6.192350328700272
 10
-12.99966873043222
 20
-6.198481938292602
 10
-12.987437845834322
 20
-6.447445438628797
 10
-12.987061593929951
 20
-6.453569657491975
 10
-12.986535159558755
 20
-6.459682798176807
 10
-12.986294565359998
 20
-6.462125583382786
 10
-12.985618265700381
 20
-6.468223962962902
 10
-12.984792508084851
 20
-6.474303908611766
 10
-12.94821784032392
 20
-6.7208697471140155
 10
-12.947243122053735
 20
-6.7269275971016
 10
-12.946120030336445
 20
-6.732959701806671
 10
-12.945641159962904
 20
-6.735367142001223
 10
-12.944370371439305
 20
-6.741369867320785
 10
-12.942952651480311
 20
-6.747339598039311
 10
-12.88238643424775
 20
-6.989133213274528
 10
-12.880822636672278
 20
-6.995066354037462
 10
-12.879113703585446
 20
-7.000959330354625
 10
-12.878401168815813
 20
-7.0033082405972635
 10
-12.876548129803965
 20
-7.009157502188522
 10
-12.874552100905817
 20
-7.0149595262646685
 10
-12.790577619398277
 20
-7.249652315872247
 10
-12.788439802727268
 20
-7.255403608081032
 10
-12.78616148621343
 20
-7.26110070348593
 10
-12.785222149140054
 20
-7.26336846250971
 10
-12.782804705401432
 20
-7.2690079288402245
 10
-12.780249590395115
 20
-7.2745863696642346
 10
-12.67367556396482
 20
-7.499918116047816
 10
-12.670984316521682
 20
-7.505432171667593
 10
-12.668158557993308
 20
-7.510878520069724
 10
-12.667001464936376
 20
-7.513043288137915
 10
-12.664042897751514
 20
-7.518418648120914
 10
-12.660953303765694
 20
-7.523719782314352
 10
-12.532806097518147
 20
-7.7375204197517675
 10
-12.529587337459745
 20
-7.742744135468115
 10
-12.526241350487567
 20
-7.74788728560987
 10
-12.524877644874834
 20
-7.749928214842718
 10
-12.52140644683574
 20
-7.75498770087264
 10
-12.517812128320983
 20
-7.759960475664236
 10
-12.369325868668142
 20
-7.960170989204784
 10
-12.365610594384094
 20
-7.965054057827395
 10
-12.361776602621376
 20
-7.969844478408319
 10
-12.360219417670606
 20
-7.971741913560926
 10
-12.356269018276691
 20
-7.976436800073095
 10
-12.35220459044858
 20
-7.981033324973879
 10
-12.184809279809386
 20
-8.165725579857188
 10
-12.180633271385574
 20
-8.170220974814065
 10
-12.17634819823121
 20
-8.174612531512516
 10
-12.174612530469474
 20
-8.176348199265753
 10
-12.170220974188922
 20
-8.180633271980774
 10
-12.16572557967072
 20
-8.18480927998651
 10
-11.981033324779219
 20
-8.352204590616878
 10
-11.97643679941828
 20
-8.356269018841537
 10
-11.971741912426765
 20
-8.36021941860917
 10
-11.969844477266363
 20
-8.361776603550751
 10
-11.965054057145508
 20
-8.365610594916248
 10
-11.960170989001597
 20
-8.369325868826337
 10
-11.759960475453838
 20
-8.51781212846955
 10
-11.75498770016469
 20
-8.521406447334357
 10
-11.74992821362035
 20
-8.524877645698865
 10
-11.747887284381122
 20
-8.526241351301351
 10
-11.742744134736867
 20
-8.529587337922791
 10
-11.737520419534334
 20
-8.532806097655481
 10
-11.523719782090609
 20
-8.660953303892796
 10
-11.518418647369458
 20
-8.664042898177215
 10
-11.513043286844422
 20
-8.667001465634598
 10
-11.510878518770795
 20
-8.668158558680801
 10
-11.505432170896384
 20
-8.670984316909895
 10
-11.499918115818062
 20
-8.673675564080156
 10
-11.274586369429116
 20
-8.780249590499679
 10
-11.269007928048694
 20
-8.782804705752305
 10
-11.263368461150009
 20
-8.785222149709789
 10
-11.261100702121198
 20
-8.786161486772187
 10
-11.255403607272811
 20
-8.788439803039026
 10
-11.249652315631636
 20
-8.790577619490769
 10
-11.014959526020647
 20
-8.874552100986733
 10
-11.009157501368492
 20
-8.876548130074852
 10
-11.003308239192236
 20
-8.878401169248306
 10
-11.000959328945356
 20
-8.879113704006656
 10
-10.995066353204365
 20
-8.880822636902835
 10
-10.989133213025909
 20
-8.882386434316246
 10
-10.747339597788624
 20
-8.942952651536892
 10
-10.741369866478507
 20
-8.94437037162843
 10
-10.735367140561195
 20
-8.945641160255455
 10
-10.732959700363594
 20
-8.946120030617344
 10
-10.726927596250363
 20
-8.947243122201435
 10
-10.72086974686006
 20
-8.94821784036769
 10
-10.474303908356461
 20
-8.984792508116648
 10
-10.468223962105014
 20
-8.985618265806195
 10
-10.46212558191904
 20
-8.98629456551022
 10
-10.459682796712286
 20
-8.986535159696956
 10
-10.45356965663035
 20
-8.987061593993495
 10
-10.447445438372625
 20
-8.987437845852916
 10
-10.1984819380354
 20
-8.999668730438827
 10
-10.192350281103714
 20
-8.999894574436347
 10
-10.191122966371992
 20
-8.999924703548544
 10
-10.184987613669378
 20
-9.0
 10
10.135012381420893
 20
-8.999999999993982
 10
10.141147734123365
 20
-8.999924703542526
 10
10.142375048855087
 20
-8.999894574430328
 10
10.148506705798809
 20
-8.999668730432212
 10
10.39747020613541
 20
-8.987437845834279
 10
10.403594424999056
 20
-8.987061593929873
 10
10.409707565684329
 20
-8.986535159558628
 10
10.412150350890215
 20
-8.98629456535987
 10
10.418248730469855
 20
-8.985618265700282
 10
10.424328676118279
 20
-8.984792508084816
 10
10.670894514619931
 20
-8.94821784032397
 10
10.676952364607843
 20
-8.947243122053713
 10
10.682984469313254
 20
-8.946120030336353
 10
10.685391909508951
 20
-8.945641159962577
 10
10.691394634828185
 20
-8.944370371439035
 10
10.697364365546377
 20
-8.942952651480113
 10
10.939157980780436
 20
-8.882386434247842
 10
10.945091121544095
 20
-8.880822636672178
 10
10.950984097861948
 20
-8.87911370358512
 10
10.953333008104863
 20
-8.878401168815387
 10
10.95918226969539
 20
-8.876548129803737
 10
10.964984293770812
 20
-8.87455210090583
 10
11.199677083378191
 20
-8.790577619398398
 10
11.205428375586024
 20
-8.788439802727751
 10
11.211125470989998
 20
-8.786161486214318
 10
11.21339323001402
 20
-8.785222149140864
 10
11.219032696345494
 20
-8.782804705401873
 10
11.224611137170456
 20
-8.780249590395151
 10
11.449942883554172
 20
-8.673675563964785
 10
11.45545693917353
 20
-8.670984316521853
 10
11.460903287575263
 20
-8.6681585579937
 10
11.463068055642822
 20
-8.667001464937115
 10
11.46844341562624
 20
-8.664042897752047
 10
11.473744549820083
 20
-8.660953303765993
 10
11.687545187258394
 20
-8.532806097517891
 10
11.692768902974166
 20
-8.529587337459859
 10
11.697912053115374
 20
-8.526241350488071
 10
11.699952982347725
 20
-8.524877644875687
 10
11.705012468378214
 20
-8.521406446836231
 10
11.709985243170365
 20
-8.517812128321076
 10
11.91019575671126
 20
-8.369325868667957
 10
11.915078825333893
 20
-8.365610594383895
 10
11.919869245914839
 20
-8.361776602621141
 10
11.921766681067055
 20
-8.360219417670692
 10
11.926461567579196
 20
-8.356269018276812
 10
11.931058092479958
 20
-8.352204590448714
 10
12.115750347363331
 20
-8.184809279809464
 10
12.120245742321146
 20
-8.180633271384785
 10
12.124637299020463
 20
-8.17634819822949
 10
12.126372966774255
 20
-8.174612530467165
 10
12.130658039488367
 20
-8.170220974187487
 10
12.134834047493229
 20
-8.165725579670195
 10
12.302229358123128
 20
-7.981033324779162
 10
12.30629378634498
 20
-7.976436799421471
 10
12.31024418610997
 20
-7.97174191243333
 10
12.311801371051246
 20
-7.969844477273433
 10
12.315635362419528
 20
-7.965054057149345
 10
12.319350636332246
 20
-7.960170989002059
 10
12.467836895976006
 20
-7.759960475453568
 10
12.471431214842312
 20
-7.75498770016231
 10
12.474902413208213
 20
-7.7499282136157674
 10
12.476266118810571
 20
-7.747887284376638
 10
12.479612105430533
 20
-7.742744134734501
 10
12.482830865161844
 20
-7.73752041953415
 10
12.610978071399245
 20
-7.523719782090232
 10
12.614067665683876
 20
-7.518418647368712
 10
12.617026233141445
 20
-7.513043286843292
 10
12.618183326187733
 20
-7.510878518769488
 10
12.621009084416613
 20
-7.505432170895446
 10
12.62370033158669
 20
-7.499918115817501
 10
12.730274358006085
 20
-7.274586369428739
 10
12.732829473258391
 20
-7.269007928049035
 10
12.73524691721559
 20
-7.263368461151082
 10
12.736186254277982
 20
-7.261100702122327
 10
12.73846457054512
 20
-7.25540360727323
 10
12.740602386997153
 20
-7.24965231563133
 10
12.824576868493097
 20
-7.014959526020341
 10
12.826572897581684
 20
-7.009157501366779
 10
12.828425936755508
 20
-7.003308239189103
 10
12.829138471513687
 20
-7.000959328942685
 10
12.830847404409411
 20
-6.995066353203093
 10
12.832411201822453
 20
-6.989133213026044
 10
12.89297741904332
 20
-6.747339597787743
 10
12.894395139134588
 20
-6.741369866478706
 10
12.895665927761428
 20
-6.735367140562495
 10
12.896144798123174
 20
-6.7329597003657184
 10
12.897267889707507
 20
-6.726927596251407
 10
12.898242607873954
 20
-6.720869746860018
 10
12.93481727562289
 20
-6.474303908356397
 10
12.935643033312346
 20
-6.468223962105725
 10
12.936319333016314
 20
-6.4621255819205246
 10
12.936559927203035
 20
-6.45968279671407
 10
12.937086361499667
 20
-6.453569656631366
 10
12.937462613359145
 20
-6.447445438372867
 10
12.949693497945077
 20
-6.19848193803503
 10
12.949919341942632
 20
-6.192350281101881
 10
12.949949471054822
 20
-6.191122966370152
 10
12.95002476750625
 20
-6.184987613668966
 10
12.950024767500224
 20
6.515012381421137
 10
12.949949471048797
 20
6.521147734122117
 10
12.949919341936607
 20
6.522375048853839
 10
12.949693497938455
 20
6.528506705799039
 10
12.937462613340529
 20
6.777470206135241
 10
12.937086361436286
 20
6.783594424996785
 10
12.936559927065275
 20
6.789707565679983
 10
12.93631933286656
 20
6.792150350885855
 10
12.935643033206816
 20
6.798248730467591
 10
12.934817275591115
 20
6.804328676118075
 10
12.898242607830213
 20
7.050894514620126
 10
12.897267889559345
 20
7.056952364611561
 10
12.896144797841202
 20
7.06298446932044
 10
12.89566592746732
 20
7.065391909516315
 10
12.89439513894439
 20
7.071394634832011
 10
12.892977418986248
 20
7.077364365546714
 10
12.832411201754013
 20
7.319157980780751
 10
12.830847404178314
 20
7.325091121544581
 10
12.829138471091198
 20
7.330984097862618
 10
12.82842593632131
 20
7.333333008106038
 10
12.826572897309688
 20
7.339182269696423
 10
12.82457686841181
 20
7.344984293771709
 10
12.740602386904754
 20
7.5796770833779235
 10
12.738464570233106
 20
7.585428375588386
 10
12.736186253718529
 20
7.591125470994918
 10
12.73524691664457
 20
7.593393230020013
 10
12.732829472906616
 20
7.599032696348864
 10
12.73027435790101
 20
7.604611137171233
 10
12.623700331470587
 20
7.829942883555034
 10
12.621009084027236
 20
7.835456939175273
 10
12.618183325498592
 20
7.840903287577859
 10
12.61702623244227
 20
7.843068055644885
 10
12.614067665257636
 20
7.848443415627429
 10
12.610978071272058
 20
7.8537445498204335
 10
12.482830865023942
 20
8.067545187258695
 10
12.47961210496777
 20
8.072768902971518
 10
12.476266117997994
 20
8.077912053109863
 10
12.47490241238603
 20
8.079952982341709
 10
12.471431214344733
 20
8.085012468375126
 10
12.467836895827588
 20
8.089985243170105
 10
12.319350636175017
 20
8.290195756710318
 10
12.315635361889889
 20
8.295078825334315
 10
12.311801370126005
 20
8.299869245916561
 10
12.310244185174469
 20
8.301766681070049
 10
12.306293785781634
 20
8.306461567580854
 10
12.302229357954644
 20
8.311058092480323
 10
12.134834047315309
 20
8.49575034736376
 10
12.13065803889154
 20
8.50024574232063
 10
12.126372965737175
 20
8.504637299019073
 10
12.124637297975738
 20
8.506372966772012
 10
12.120245741695186
 20
8.510658039487033
 10
12.11575034717697
 20
8.51483404749277
 10
11.931058092285411
 20
8.682229358123188
 10
11.926461566924928
 20
8.686293786347456
 10
11.921766679933882
 20
8.690244186114711
 10
11.919869244773395
 20
8.691801371056378
 10
11.915078824652085
 20
8.695635362422273
 10
11.910195756507704
 20
8.699350636332738
 10
11.709985242959988
 20
8.84783689597591
 10
11.705012467670542
 20
8.851431214840922
 10
11.699952981125875
 20
8.854902413205636
 10
11.697912051887016
 20
8.856266118807866
 10
11.692768902243074
 20
8.859612105429086
 10
11.687545187040854
 20
8.86283086516157
 10
11.473744549596631
 20
8.99097807139919
 10
11.468443414874884
 20
8.99406766568395
 10
11.463068054349236
 20
8.997026233141646
 10
11.460903286275993
 20
8.998183326187629
 10
11.455456938402193
 20
9.001009084416374
 10
11.449942883324496
 20
9.00370033158633
 10
11.224611136935465
 20
9.11027435800591
 10
11.219032695555853
 20
9.112829473258174
 10
11.213393228657992
 20
9.11524691721533
 10
11.211125469629536
 20
9.1161862542776
 10
11.205428374780325
 20
9.118464570544809
 10
11.199677083138312
 20
9.120602386996879
 10
10.96498429352701
 20
9.204576868492957
 10
10.959182268874883
 20
9.206572897581069
 10
10.95333300669867
 20
9.208425936754502
 10
10.950984096451606
 20
9.209138471512908
 10
10.9450911207106
 20
9.210847404409101
 10
10.939157980532087
 20
9.212411201822526
 10
10.697364365294817
 20
9.272977419043173
 10
10.691394633984089
 20
9.274395139134846
 10
10.685391908066151
 20
9.275665927761985
 10
10.682984467868522
 20
9.276144798123866
 10
10.676952363755902
 20
9.277267889707822
 10
10.67089451436621
 20
9.27824260787397
 10
10.424328675862483
 20
9.314817275622936
 10
10.418248729611236
 20
9.315643033312455
 10
10.412150349425445
 20
9.316319333016466
 10
10.409707564219019
 20
9.316559927203173
 10
10.403594424136884
 20
9.317086361499733
 10
10.397470205878989
 20
9.317462613359169
 10
10.148506705541621
 20
9.329693497945087
 10
10.142375048610234
 20
9.329919341942599
 10
10.141147733878569
 20
9.329949471054796
 10
10.135012381175642
 20
9.33002476750626
 10
-10.184987613914615
 20
9.330024767500241
 10
-10.191122966617229
 20
9.329949471048778
 10
-10.192350281348922
 20
9.32991934193658
 10
-10.198481938292517
 20
9.329693497938472
 10
-10.447445438629217
 20
9.317462613340538
 10
-10.453569657492253
 20
9.317086361436175
 10
-10.459682798176942
 20
9.316559927065
 10
-10.462125583382516
 20
9.316319332866286
 10
-10.468223962962767
 20
9.315643033206655
 10
-10.474303908611759
 20
9.314817275591118
 10
-10.720869747113582
 20
9.278242607830258
 10
-10.72692759710165
 20
9.27726788955998
 10
-10.732959701807204
 20
9.276144797842584
 10
-10.735367142002815
 20
9.275665927468822
 10
-10.741369867321893
 20
9.274395138945309
 10
-10.747339598039943
 20
9.272977418986422
 10
-10.989133213274215
 20
9.2124112017541
 10
-10.995066354038485
 20
9.21084740417826
 10
-11.000959330356963
 20
9.209138471091002
 10
-11.003308240600234
 20
9.208425936321149
 10
-11.009157502190149
 20
9.206572897309663
 10
-11.014959526264974
 20
9.204576868411955
 10
-11.249652315871899
 20
9.120602386904672
 10
-11.255403608079973
 20
9.11846457023394
 10
-11.26110070348416
 20
9.116186253720414
 10
-11.26336846250841
 20
9.11524691664686
 10
-11.269007928839656
 20
9.112829472907954
 10
-11.274586369664377
 20
9.110274357901332
 10
-11.499918116047965
 20
9.00370033147103
 10
-11.505432171667906
 20
9.001009084027807
 10
-11.510878520070207
 20
8.998183325499333
 10
-11.513043288137965
 20
8.997026232442629
 10
-11.5184186481208
 20
8.994067665257852
 10
-11.523719782314075
 20
8.990978071272124
 10
-11.737520419751888
 20
8.862830865024328
 10
-11.742744135466964
 20
8.859612104966736
 10
-11.74788728560749
 20
8.856266117995418
 10
-11.749928214840253
 20
8.854902412382778
 10
-11.754987700871439
 20
8.851431214342881
 10
-11.759960475664272
 20
8.84783689582725
 10
-11.960170989204684
 20
8.699350636174486
 10
-11.965054057827047
 20
8.695635361890638
 10
-11.969844478407737
 20
8.691801370128111
 10
-11.971741913560379
 20
8.69024418517732
 10
-11.97643680007279
 20
8.686293785783228
 10
-11.981033324973794
 20
8.68222935795491
 10
-12.165725579857096
 20
8.514834047315738
 10
-12.17022097481491
 20
8.510658038891059
 10
-12.174612531514242
 20
8.506372965735757
 10
-12.176348199267721
 20
8.504637297973744
 10
-12.180633271981819
 20
8.50024574169408
 10
-12.184809279986666
 20
8.495750347176802
 10
-12.352204590617049
 20
8.311058092285293
 10
-12.3562690188419
 20
8.306461566924128
 10
-12.360219418609717
 20
8.301766679932378
 10
-12.361776603551192
 20
8.299869244772097
 10
-12.365610594916504
 20
8.295078824651455
 10
-12.369325868826408
 20
8.29019575650777
 10
-12.517812128469458
 20
8.08998524296021
 10
-12.521406447333803
 20
8.085012467671731
 10
-12.524877645697885
 20
8.079952981128073
 10
-12.526241351300442
 20
8.077912051888767
 10
-12.52958733792235
 20
8.072768902243858
 10
-12.532806097655467
 20
8.067545187040636
 10
-12.660953303892882
 20
7.853744549596733
 10
-12.664042898177527
 20
7.848443414875192
 10
-12.66700146563511
 20
7.84306805434975
 10
-12.668158558681128
 20
7.8409032862764505
 10
-12.670984316909994
 20
7.835456938402437
 10
-12.673675564080057
 20
7.829942883324513
 10
-12.780249590499707
 20
7.604611136935276
 10
-12.782804705751985
 20
7.599032695555621
 10
-12.78522214970917
 20
7.593393228657725
 10
-12.786161486771604
 20
7.591125469628871
 10
-12.788439803038784
 20
7.585428374779724
 10
-12.790577619490819
 20
7.579677083137767
 10
-12.874552100986747
 20
7.344984293526892
 10
-12.876548130075037
 20
7.339182268874232
 10
-12.878401169248633
 20
7.3333330066974725
 10
-12.879113704006912
 20
7.330984096450791
 10
-12.88082263690292
 20
7.3250911207103115
 10
-12.882386434316189
 20
7.319157980532367
 10
-12.942952651536885
 20
7.077364365294969
 10
-12.94437037162848
 20
7.071394633984632
 10
-12.945641160255548
 20
7.065391908067099
 10
-12.946120030617422
 20
7.062984467869548
 10
-12.947243122201456
 20
7.0569523637565155
 10
-12.948217840367676
 20
7.050894514366426
 10
-12.98479250811664
 20
6.80432867586272
 10
-12.98561826580611
 20
6.7982487296118705
 10
-12.986294565510093
 20
6.7921503494265
 10
-12.986535159696828
 20
6.789707564219867
 10
-12.987061593993445
 20
6.783594424137327
 10
-12.98743784585291
 20
6.777470205878998
 10
-12.999668730438842
 20
6.528506705541147
 10
-12.999894574436397
 20
6.522375048608033
 10
-12.999924703548587
 20
6.521147733876312
 10
-13.0
 20
6.51501238117509
 10
-12.999999999993975
 20
-6.184987613914728
 10
-12.999924704885714
 20
-6.191122911901523
 10
-12.999902107467804
 20
-6.191736436514432
  0
ENDSEC
  0
SECTION
  2
OBJECTS
  0
DICTIONARY
  5
A
330
0
100
AcDbDictionary
281
1
  3
ACAD_COLOR
350
B
  3
ACAD_GROUP
350
C
  3
ACAD_LAYOUT
350
D
  3
ACAD_MATERIAL
350
E
  3
ACAD_MLEADERSTYLE
350
F
  3
ACAD_MLINESTYLE
350
10
  3
ACAD_PLOTSETTINGS
350
11
  3
ACAD_PLOTSTYLENAME
350
12
  3
ACAD_SCALELIST
350
14
  3
ACAD_TABLESTYLE
350
15
  3
ACAD_VISUALSTYLE
350
16
  0
DICTIONARY
  5
B
330
A
100
AcDbDictionary
281
1
  0
DICTIONARY
  5
C
330
A
100
AcDbDictionary
281
1
  0
DICTIONARY
  5
D
330
A
100
AcDbDictionary
281
1
  3
Model
350
1A
  3
Layout1
350
1E
  0
DICTIONARY
  5
E
330
A
100
AcDbDictionary
281
1
  3
ByBlock
350
1F
  3
ByLayer
350
20
  3
Global
350
21
  0
DICTIONARY
  5
F
330
A
100
AcDbDictionary
281
1
  3
Standard
350
2C
  0
DICTIONARY
  5
10
330
A
100
AcDbDictionary
281
1
  3
Standard
350
22
  0
DICTIONARY
  5
11
330
A
100
AcDbDictionary
281
1
  0
ACDBDICTIONARYWDFLT
  5
12
330
A
100
AcDbDictionary
281
1
  3
Normal
350
13
100
AcDbDictionaryWithDefault
340
13
  0
ACDBPLACEHOLDER
  5
13
330
12
  0
DICTIONARY
  5
14
330
A
100
AcDbDictionary
281
1
  0
DICTIONARY
  5
15
330
A
100
AcDbDictionary
281
1
  0
DICTIONARY
  5
16
330
A
100
AcDbDictionary
281
1
  0
LAYOUT
  5
1A
330
D
100
AcDbPlotSettings
  1

  2
Adobe PDF
  4
A4
  6

 40
3.175
 41
3.175
 42
3.175
 43
3.175
 44
209.91
 45
297.03
 46
0.0
 47
0.0
 48
0.0
 49
0.0
140
0.0
141
0.0
142
1.0
143
1.0
 70
1024
 72
0
 73
1
 74
5
  7

 75
16
 76
0
 77
2
 78
300
147
1.0
148
0.0
149
0.0
100
AcDbLayout
  1
Model
 70
1
 71
0
 10
-3.175
 20
-3.175
 11
293.857
 21
206.735
 12
0.0
 22
0.0
 32
0.0
 14
29.068
 24
20.356
 34
0.0
 15
261.614
 25
183.204
 35
0.0
146
0.0
 13
0.0
 23
0.0
 33
0.0
 16
1.0
 26
0.0
 36
0.0
 17
0.0
 27
1.0
 37
0.0
 76
1
330
17
  0
LAYOUT
  5
1E
330
D
100
AcDbPlotSettings
  1

  2
Adobe PDF
  4
A4
  6

 40
3.175
 41
3.175
 42
3.175
 43
3.175
 44
209.91
 45
297.03
 46
0.0
 47
0.0
 48
0.0
 49
0.0
140
0.0
141
0.0
142
1.0
143
1.0
 70
0
 72
0
 73
1
 74
5
  7

 75
16
 76
0
 77
2
 78
300
147
1.0
148
0.0
149
0.0
100
AcDbLayout
  1
Layout1
 70
1
 71
1
 10
-3.175
 20
-3.175
 11
293.857
 21
206.735
 12
0.0
 22
0.0
 32
0.0
 14
29.068
 24
20.356
 34
0.0
 15
261.614
 25
183.204
 35
0.0
146
0.0
 13
0.0
 23
0.0
 33
0.0
 16
1.0
 26
0.0
 36
0.0
 17
0.0
 27
1.0
 37
0.0
 76
1
330
1B
  0
MATERIAL
  5
1F
102
{ACAD_REACTORS
330
E
102
}
330
E
100
AcDbMaterial
  1
ByBlock
  2

 70
0
 40
1.0
 71
1
 41
1.0
 91
-1023410177
 42
1.0
 72
1
  3

 73
1
 74
1
 75
1
 44
0.5
 73
0
 45
1.0
 46
1.0
 77
1
  4

 78
1
 79
1
170
1
 48
1.0
171
1
  6

172
1
173
1
174
1
140
1.0
141
1.0
175
1
  7

176
1
177
1
178
1
143
1.0
179
1
  8

270
1
271
1
272
1
145
1.0
146
1.0
273
1
  9

274
1
275
1
276
1
 42
1.0
 72
1
  3

 73
1
 74
1
 75
1
 94
63
  0
MATERIAL
  5
20
102
{ACAD_REACTORS
330
E
102
}
330
E
100
AcDbMaterial
  1
ByLayer
  2

 70
0
 40
1.0
 71
1
 41
1.0
 91
-1023410177
 42
1.0
 72
1
  3

 73
1
 74
1
 75
1
 44
0.5
 73
0
 45
1.0
 46
1.0
 77
1
  4

 78
1
 79
1
170
1
 48
1.0
171
1
  6

172
1
173
1
174
1
140
1.0
141
1.0
175
1
  7

176
1
177
1
178
1
143
1.0
179
1
  8

270
1
271
1
272
1
145
1.0
146
1.0
273
1
  9

274
1
275
1
276
1
 42
1.0
 72
1
  3

 73
1
 74
1
 75
1
 94
63
  0
MATERIAL
  5
21
102
{ACAD_REACTORS
330
E
102
}
330
E
100
AcDbMaterial
  1
Global
  2

 70
0
 40
1.0
 71
1
 41
1.0
 91
-1023410177
 42
1.0
 72
1
  3

 73
1
 74
1
 75
1
 44
0.5
 73
0
 45
1.0
 46
1.0
 77
1
  4

 78
1
 79
1
170
1
 48
1.0
171
1
  6

172
1
173
1
174
1
140
1.0
141
1.0
175
1
  7

176
1
177
1
178
1
143
1.0
179
1
  8

270
1
271
1
272
1
145
1.0
146
1.0
273
1
  9

274
1
275
1
276
1
 42
1.0
 72
1
  3

 73
1
 74
1
 75
1
 94
63
  0
MLINESTYLE
  5
22
102
{ACAD_REACTORS
330
10
102
}
330
10
100
AcDbMlineStyle
  2
Standard
 70
0
  3

 62
256
 51
90.0
 52
90.0
 71
2
 49
0.5
 62
256
  6
BYLAYER
 49
-0.5
 62
256
  6
BYLAYER
  0
MLEADERSTYLE
  5
2C
102
{ACAD_REACTORS
330
F
102
}
330
F
100
AcDbMLeaderStyle
179
2
170
2
171
1
172
0
 90
2
 40
0.0
 41
0.0
173
1
 91
-1056964608
 92
-2
290
1
 42
2.0
291
1
 43
8.0
  3
Standard
 44
4.0
300

342
29
174
1
175
1
176
0
178
1
 93
-1056964608
 45
4.0
292
0
297
0
 46
4.0
 94
-1056964608
 47
1.0
 49
0.0
140
1.0
294
1
141
0.0
177
0
142
1.0
295
0
296
0
143
3.75
271
0
272
9
272
9
  0
ENDSEC
  0
EOF
