  0
SECTION
  2
HEADER
  9
$ACADVER
  1
AC1024
  9
$ACADMAINTVER
 70
6
  9
$DWGCODEPAGE
  3
ANSI_1252
  9
$LASTSAVEDBY
  1
ezdxf
  9
$INSBASE
 10
0.0
 20
0.0
 30
0.0
  9
$EXTMIN
 10
-100
 20
-100
 30
-100
  9
$EXTMAX
 10
100
 20
100
 30
100
  9
$LIMMIN
 10
0.0
 20
0.0
  9
$LIMMAX
 10
420.0
 20
297.0
  9
$ORTHOMODE
 70
0
  9
$REGENMODE
 70
1
  9
$FILLMODE
 70
1
  9
$QTEXTMODE
 70
0
  9
$MIRRTEXT
 70
1
  9
$LTSCALE
 40
1.0
  9
$ATTMODE
 70
1
  9
$TEXTSIZE
 40
2.5
  9
$TRACEWID
 40
1.0
  9
$TEXTSTYLE
  7
Standard
  9
$CLAYER
  8
0
  9
$CELTYPE
  6
ByLayer
  9
$CECOLOR
 62
256
  9
$CELTSCALE
 40
1.0
  9
$DISPSILH
 70
0
  9
$DIMSCALE
 40
1.0
  9
$DIMASZ
 40
2.5
  9
$DIMEXO
 40
0.625
  9
$DIMDLI
 40
3.75
  9
$DIMRND
 40
0.0
  9
$DIMDLE
 40
0.0
  9
$DIMEXE
 40
1.25
  9
$DIMTP
 40
0.0
  9
$DIMTM
 40
0.0
  9
$DIMTXT
 40
2.5
  9
$DIMCEN
 40
2.5
  9
$DIMTSZ
 40
0.0
  9
$DIMTOL
 70
0
  9
$DIMLIM
 70
0
  9
$DIMTIH
 70
0
  9
$DIMTOH
 70
0
  9
$DIMSE1
 70
0
  9
$DIMSE2
 70
0
  9
$DIMTAD
 70
1
  9
$DIMZIN
 70
8
  9
$DIMBLK
  1

  9
$DIMASO
 70
1
  9
$DIMSHO
 70
1
  9
$DIMPOST
  1

  9
$DIMAPOST
  1

  9
$DIMALT
 70
0
  9
$DIMALTD
 70
3
  9
$DIMALTF
 40
0.03937007874
  9
$DIMLFAC
 40
1.0
  9
$DIMTOFL
 70
1
  9
$DIMTVP
 40
0.0
  9
$DIMTIX
 70
0
  9
$DIMSOXD
 70
0
  9
$DIMSAH
 70
0
  9
$DIMBLK1
  1

  9
$DIMBLK2
  1

  9
$DIMSTYLE
  2
ISO-25
  9
$DIMCLRD
 70
0
  9
$DIMCLRE
 70
0
  9
$DIMCLRT
 70
0
  9
$DIMTFAC
 40
1.0
  9
$DIMGAP
 40
0.625
  9
$DIMJUST
 70
0
  9
$DIMSD1
 70
0
  9
$DIMSD2
 70
0
  9
$DIMTOLJ
 70
0
  9
$DIMTZIN
 70
8
  9
$DIMALTZ
 70
0
  9
$DIMALTTZ
 70
0
  9
$DIMUPT
 70
0
  9
$DIMDEC
 70
2
  9
$DIMTDEC
 70
2
  9
$DIMALTU
 70
2
  9
$DIMALTTD
 70
3
  9
$DIMTXSTY
  7
Standard
  9
$DIMAUNIT
 70
0
  9
$DIMADEC
 70
0
  9
$DIMALTRND
 40
0.0
  9
$DIMAZIN
 70
0
  9
$DIMDSEP
 70
44
  9
$DIMATFIT
 70
3
  9
$DIMFRAC
 70
0
  9
$DIMLDRBLK
  1

  9
$DIMLUNIT
 70
2
  9
$DIMLWD
 70
-2
  9
$DIMLWE
 70
-2
  9
$DIMTMOVE
 70
0
  9
$DIMFXL
 40
1.0
  9
$DIMFXLON
 70
0
  9
$DIMJOGANG
 40
0.785398163397
  9
$DIMTFILL
 70
0
  9
$DIMTFILLCLR
 70
0
  9
$DIMARCSYM
 70
0
  9
$DIMLTYPE
  6

  9
$DIMLTEX1
  6

  9
$DIMLTEX2
  6

  9
$DIMTXTDIRECTION
 70
0
  9
$LUNITS
 70
2
  9
$LUPREC
 70
4
  9
$SKETCHINC
 40
1.0
  9
$FILLETRAD
 40
10.0
  9
$AUNITS
 70
0
  9
$AUPREC
 70
2
  9
$MENU
  1
.
  9
$ELEVATION
 40
0.0
  9
$PELEVATION
 40
0.0
  9
$THICKNESS
 40
0.0
  9
$LIMCHECK
 70
0
  9
$CHAMFERA
 40
0.0
  9
$CHAMFERB
 40
0.0
  9
$CHAMFERC
 40
0.0
  9
$CHAMFERD
 40
0.0
  9
$SKPOLY
 70
0
  9
$TDCREATE
 40
2461298.563657407
  9
$TDUCREATE
 40
2458532.153996898
  9
$TDUPDATE
 40
2461298.563657407
  9
$TDUUPDATE
 40
2458532.1544311
  9
$TDINDWG
 40
0.0
  9
$TDUSRTIMER
 40
0.0
  9
$USRTIMER
 70
1
  9
$ANGBASE
 50
0.0
  9
$ANGDIR
 70
0
  9
$PDMODE
 70
0
  9
$PDSIZE
 40
0.0
  9
$PLINEWID
 40
0.0
  9
$SPLFRAME
 70
0
  9
$SPLINETYPE
 70
6
  9
$SPLINESEGS
 70
8
  9
$HANDSEED
  5
33
  9
$SURFTAB1
 70
6
  9
$SURFTAB2
 70
6
  9
$SURFTYPE
 70
6
  9
$SURFU
 70
6
  9
$SURFV
 70
6
  9
$UCSBASE
  2

  9
$UCSNAME
  2

  9
$UCSORG
 10
0.0
 20
0.0
 30
0.0
  9
$UCSXDIR
 10
1.0
 20
0.0
 30
0.0
  9
$UCSYDIR
 10
0.0
 20
1.0
 30
0.0
  9
$UCSORTHOREF
  2

  9
$UCSORTHOVIEW
 70
0
  9
$UCSORGTOP
 10
0.0
 20
0.0
 30
0.0
  9
$UCSORGBOTTOM
 10
0.0
 20
0.0
 30
0.0
  9
$UCSORGLEFT
 10
0.0
 20
0.0
 30
0.0
  9
$UCSORGRIGHT
 10
0.0
 20
0.0
 30
0.0
  9
$UCSORGFRONT
 10
0.0
 20
0.0
 30
0.0
  9
$UCSORGBACK
 10
0.0
 20
0.0
 30
0.0
  9
$PUCSBASE
  2

  9
$PUCSNAME
  2

  9
$PUCSORG
 10
0.0
 20
0.0
 30
0.0
  9
$PUCSXDIR
 10
1.0
 20
0.0
 30
0.0
  9
$PUCSYDIR
 10
0.0
 20
1.0
 30
0.0
  9
$PUCSORTHOREF
  2

  9
$PUCSORTHOVIEW
 70
0
  9
$PUCSORGTOP
 10
0.0
 20
0.0
 30
0.0
  9
$PUCSORGBOTTOM
 10
0.0
 20
0.0
 30
0.0
  9
$PUCSORGLEFT
 10
0.0
 20
0.0
 30
0.0
  9
$PUCSORGRIGHT
 10
0.0
 20
0.0
 30
0.0
  9
$PUCSORGFRONT
 10
0.0
 20
0.0
 30
0.0
  9
$PUCSORGBACK
 10
0.0
 20
0.0
 30
0.0
  9
$USERI1
 70
0
  9
$USERI2
 70
0
  9
$USERI3
 70
0
  9
$USERI4
 70
0
  9
$USERI5
 70
0
  9
$USERR1
 40
0.0
  9
$USERR2
 40
0.0
  9
$USERR3
 40
0.0
  9
$USERR4
 40
0.0
  9
$USERR5
 40
0.0
  9
$WORLDVIEW
 70
1
  9
$SHADEDGE
 70
3
  9
$SHADEDIF
 70
70
  9
$TILEMODE
 70
1
  9
$MAXACTVP
 70
64
  9
$PINSBASE
 10
0.0
 20
0.0
 30
0.0
  9
$PLIMCHECK
 70
0
  9
$PEXTMIN
 10
1e+20
 20
1e+20
 30
1e+20
  9
$PEXTMAX
 10
-1e+20
 20
-1e+20
 30
-1e+20
  9
$PLIMMIN
 10
0.0
 20
0.0
  9
$PLIMMAX
 10
420.0
 20
297.0
  9
$UNITMODE
 70
0
  9
$VISRETAIN
 70
1
  9
$PLINEGEN
 70
0
  9
$PSLTSCALE
 70
1
  9
$TREEDEPTH
 70
3020
  9
$CMLSTYLE
  2
Standard
  9
$CMLJUST
 70
0
  9
$CMLSCALE
 40
20.0
  9
$PROXYGRAPHICS
 70
1
  9
$MEASUREMENT
 70
1
  9
$CELWEIGHT
370
-1
  9
$ENDCAPS
280
0
  9
$JOINSTYLE
280
0
  9
$LWDISPLAY
290
0
  9
$INSUNITS
 70
6
  9
$HYPERLINKBASE
  1

  9
$STYLESHEET
  1

  9
$XEDIT
290
1
  9
$CEPSNTYPE
380
0
  9
$PSTYLEMODE
290
1
  9
$FINGERPRINTGUID
  2
875BAA8A-B06A-11F1-A041-BCEE7B8C4939
  9
$VERSIONGUID
  2
875DAEE4-B06A-11F1-80D1-BCEE7B8C4939
  9
$EXTNAMES
290
1
  9
$PSVPSCALE
 40
0.0
  9
$OLESTARTUP
290
0
  9
$SORTENTS
280
127
  9
$INDEXCTL
280
0
  9
$HIDETEXT
280
1
  9
$XCLIPFRAME
280
2
  9
$HALOGAP
280
0
  9
$OBSCOLOR
 70
257
  9
$OBSLTYPE
280
0
  9
$INTERSECTIONDISPLAY
280
0
  9
$INTERSECTIONCOLOR
 70
257
  9
$DIMASSOC
280
2
  9
$PROJECTNAME
  1

  9
$CAMERADISPLAY
290
0
  9
$LENSLENGTH
 40
50.0
  9
$CAMERAHEIGHT
 40
0.0
  9
$STEPSPERSEC
 40
24.0
  9
$STEPSIZE
 40
100.0
  9
$3DDWFPREC
 40
2.0
  9
$PSOLWIDTH
 40
0.005
  9
$PSOLHEIGHT
 40
0.08
  9
$LOFTANG1
 40
1.570796326795
  9
$LOFTANG2
 40
1.570796326795
  9
$LOFTMAG1
 40
0.0
  9
$LOFTMAG2
 40
0.0
  9
$LOFTPARAM
 70
7
  9
$LOFTNORMALS
280
1
  9
$LATITUDE
 40
37.795
  9
$LONGITUDE
 40
-122.394
  9
$NORTHDIRECTION
 40
0.0
  9
$TIMEZONE
 70
-8000
  9
$LIGHTGLYPHDISPLAY
280
1
  9
$TILEMODELIGHTSYNCH
280
1
  9
$CMATERIAL
347
20
  9
$SOLIDHIST
280
0
  9
$SHOWHIST
280
1
  9
$DWFFRAME
280
2
  9
$DGNFRAME
280
2
  9
$REALWORLDSCALE
290
1
  9
$INTERFERECOLOR
 62
256
  9
$CSHADOW
280
0
  9
$SHADOWPLANELOCATION
 40
0.0
  0
ENDSEC
  0
SECTION
  2
CLASSES
  0
CLASS
  1
ACDBDICTIONARYWDFLT
  2
AcDbDictionaryWithDefault
  3
ObjectDBX Classes
 90
0
 91
0
280
0
281
0
  0
CLASS
  1
SUN
  2
AcDbSun
  3
SCENEOE
 90
1153
 91
0
280
0
281
0
  0
CLASS
  1
VISUALSTYLE
  2
AcDbVisualStyle
  3
ObjectDBX Classes
 90
4095
 91
0
280
0
281
0
  0
CLASS
  1
MATERIAL
  2
AcDbMaterial
  3
ObjectDBX Classes
 90
1153
 91
0
280
0
281
0
  0
CLASS
  1
SCALE
  2
AcDbScale
  3
ObjectDBX Classes
 90
1153
 91
0
280
0
281
0
  0
CLASS
  1
TABLESTYLE
  2
AcDbTableStyle
  3
ObjectDBX Classes
 90
4095
 91
0
280
0
281
0
  0
CLASS
  1
MLEADERSTYLE
  2
AcDbMLeaderStyle
  3
ACDB_MLEADERSTYLE_CLASS
 90
4095
 91
0
280
0
281
0
  0
CLASS
  1
DICTIONARYVAR
  2
AcDbDictionaryVar
  3
ObjectDBX Classes
 90
0
 91
0
280
0
281
0
  0
CLASS
  1
CELLSTYLEMAP
  2
AcDbCellStyleMap
  3
ObjectDBX Classes
 90
1152
 91
0
280
0
281
0
  0
CLASS
  1
MENTALRAYRENDERSETTINGS
  2
AcDbMentalRayRenderSettings
  3
SCENEOE
 90
1024
 91
0
280
0
281
0
  0
CLASS
  1
ACDBDETAILVIEWSTYLE
  2
AcDbDetailViewStyle
  3
ObjectDBX Classes
 90
1025
 91
0
280
0
281
0
  0
CLASS
  1
ACDBSECTIONVIEWSTYLE
  2
AcDbSectionViewStyle
  3
ObjectDBX Classes
 90
1025
 91
0
280
0
281
0
  0
CLASS
  1
RASTERVARIABLES
  2
AcDbRasterVariables
  3
ISM
 90
0
 91
0
280
0
281
0
  0
CLASS
  1
LAYOUT
  2
AcDbLayout
  3
ObjectDBX Classes
 90
0
 91
0
280
0
281
0
  0
CLASS
  1
ACDBPLACEHOLDER
  2
AcDbPlaceHolder
  3
ObjectDBX Classes
 90
0
 91
0
280
0
281
0
  0
ENDSEC
  0
SECTION
  2
TABLES
  0
TABLE
  2
VPORT
  5
8
330
0
100
AcDbSymbolTable
 70
1
  0
VPORT
  5
23
330
8
100
AcDbSymbolTableRecord
100
AcDbViewportTableRecord
  2
*Active
 70
0
 10
0.0
 20
0.0
 11
1.0
 21
1.0
 12
70.0
 22
50.0
 13
0.0
 23
0.0
 14
0.5
 24
0.5
 15
0.5
 25
0.5
 16
0.0
 26
0.0
 36
1.0
 17
0.0
 27
0.0
 37
0.0
 40
1.0
 41
1.34
 42
50.0
 43
0.0
 44
0.0
 50
0.0
 51
0.0
 71
0
 72
1000
 73
1
 74
3
 75
0
 76
0
 77
0
 78
0
281
0
 65
0
146
0.0
  0
ENDTAB
  0
TABLE
  2
LTYPE
  5
2
330
0
100
AcDbSymbolTable
 70
3
  0
LTYPE
  5
24
330
2
100
AcDbSymbolTableRecord
100
AcDbLinetypeTableRecord
  2
ByBlock
 70
0
  3

 72
65
 73
0
 40
0.0
  0
LTYPE
  5
25
330
2
100
AcDbSymbolTableRecord
100
AcDbLinetypeTableRecord
  2
ByLayer
 70
0
  3

 72
65
 73
0
 40
0.0
  0
LTYPE
  5
26
330
2
100
AcDbSymbolTableRecord
100
AcDbLinetypeTableRecord
  2
Continuous
 70
0
  3

 72
65
 73
0
 40
0.0
  0
ENDTAB
  0
TABLE
  2
LAYER
  5
1
330
0
100
AcDbSymbolTable
 70
2
  0
LAYER
  5
27
330
1
100
AcDbSymbolTableRecord
100
AcDbLayerTableRecord
  2
0
 70
0
 62
7
  6
Continuous
370
-3
390
13
347
21
  0
LAYER
  5
28
330
1
100
AcDbSymbolTableRecord
100
AcDbLayerTableRecord
  2
Defpoints
 70
0
 62
7
  6
Continuous
290
0
370
-3
390
13
347
21
  0
ENDTAB
  0
TABLE
  2
STYLE
  5
5
330
0
100
AcDbSymbolTable
 70
1
  0
STYLE
  5
29
330
5
100
AcDbSymbolTableRecord
100
AcDbTextStyleTableRecord
  2
Standard
 70
0
 40
0.0
 41
1.0
 50
0.0
 71
0
 42
2.5
  3
txt
  4

  0
ENDTAB
  0
TABLE
  2
VIEW
  5
7
330
0
100
AcDbSymbolTable
 70
0
  0
ENDTAB
  0
TABLE
  2
UCS
  5
6
330
0
100
AcDbSymbolTable
 70
0
  0
ENDTAB
  0
TABLE
  2
APPID
  5
3
330
0
100
AcDbSymbolTable
 70
2
  0
APPID
  5
2A
330
3
100
AcDbSymbolTableRecord
100
AcDbRegAppTableRecord
  2
ACAD
 70
0
  0
APPID
  5
32
330
3
100
AcDbSymbolTableRecord
100
AcDbRegAppTableRecord
  2
HATCHBACKGROUNDCOLOR
 70
0
  0
ENDTAB
  0
TABLE
  2
DIMSTYLE
  5
4
330
0
100
AcDbSymbolTable
 70
1
100
AcDbDimStyleTable
  0
DIMSTYLE
105
2B
330
4
100
AcDbSymbolTableRecord
100
AcDbDimStyleTableRecord
  2
Standard
 70
0
 40
1.0
 41
2.5
 42
0.625
 43
3.75
 44
1.25
 45
0.0
 46
0.0
 47
0.0
 48
0.0
 49
2.5
140
2.5
141
2.5
142
0.0
143
0.03937007874
144
1.0
145
0.0
146
1.0
147
0.625
148
0.0
 69
0
 70
0
 71
0
 72
0
 73
0
 74
0
 75
0
 76
0
 77
1
 78
8
 79
0
170
0
171
3
172
1
173
0
174
0
175
0
176
0
177
0
178
0
179
0
271
0
272
2
273
2
274
3
275
0
276
0
277
2
278
44
279
0
280
0
281
0
282
0
283
0
284
8
285
0
286
0
288
0
289
3
290
0
371
-2
372
-2
  0
ENDTAB
  0
TABLE
  2
BLOCK_RECORD
  5
9
330
0
100
AcDbSymbolTable
 70
2
  0
BLOCK_RECORD
  5
17
330
9
100
AcDbSymbolTableRecord
100
AcDbBlockTableRecord
  2
*Model_Space
340
1A
 70
0
280
1
281
0
  0
BLOCK_RECORD
  5
1B
330
9
100
AcDbSymbolTableRecord
100
AcDbBlockTableRecord
  2
*Paper_Space
340
1E
 70
0
280
1
281
0
  0
ENDTAB
  0
ENDSEC
  0
SECTION
  2
BLOCKS
  0
BLOCK
  5
18
330
17
100
AcDbEntity
  8
0
100
AcDbBlockBegin
  2
*Model_Space
 70
0
 10
0.0
 20
0.0
 30
0.0
  3
*Model_Space
  1

  0
ENDBLK
  5
19
330
17
100
AcDbEntity
  8
0
100
AcDbBlockEnd
  0
BLOCK
  5
1C
330
1B
100
AcDbEntity
  8
0
100
AcDbBlockBegin
  2
*Paper_Space
 70
0
 10
0.0
 20
0.0
 30
0.0
  3
*Paper_Space
  1

  0
ENDBLK
  5
1D
330
1B
100
AcDbEntity
  8
0
100
AcDbBlockEnd
  0
ENDSEC
  0
SECTION
  2
ENTITIES
  0
LWPOLYLINE
  5
2D
330
17
100
AcDbEntity
  8
0
100
AcDbPolyline
 90
401
 70
0
 10
0.20003763494291604
 20
2.8131718426400028
 10
0.20004516864159427
 20
2.8125579912937937
 10
0.20009033721053981
 20
2.811331669326279
 10
0.2123212218084376
 20
2.5623681689900835
 10
0.21239647219231017
 20
2.5611433251684517
 10
0.2125017590707614
 20
2.55992069698258
 10
0.21274235326951896
 20
2.5574779117766013
 10
0.2128776132068566
 20
2.5562582358117965
 10
0.2130427647365707
 20
2.555042246633384
 10
0.24961743249750157
 20
2.308476408131135
 10
0.2498123761593405
 20
2.3072648380851533
 10
0.25003699451177397
 20
2.3060584170958833
 10
0.2505158648853154
 20
2.3036509769013307
 10
0.2507700226002072
 20
2.3024504317893957
 10
0.2510535666033462
 20
2.301256485597932
 10
0.3116197838359085
 20
2.059462870362715
 10
0.31193254336351117
 20
2.0582762421626626
 10
0.3122743299945512
 20
2.0570976468520854
 10
0.31298686476418425
 20
2.0547487366094472
 10
0.31335747258137303
 20
2.053578884244402
 10
0.31375667837697563
 20
2.0524184793827587
 10
0.3977311598845148
 20
1.8177256897751803
 10
0.3981587232358237
 20
1.8165754312874114
 10
0.39861438655681525
 20
1.815436012160859
 10
0.39955372363019137
 20
1.8131682531370785
 10
0.4000372123972511
 20
1.8120403598258576
 10
0.40054823541895246
 20
1.8109246716164265
 10
0.507122261849247
 20
1.5855929252328451
 10
0.5076605113594042
 20
1.5844901140647778
 10
0.5082256630876856
 20
1.5834008443407797
 10
0.5093827561446176
 20
1.5812360762725888
 10
0.5099744696052682
 20
1.5801610042329912
 10
0.5105923884271419
 20
1.57910077735189
 10
0.6387395946746892
 20
1.3653001399144742
 10
0.6393833467121226
 20
1.364255396729419
 10
0.6400525441333258
 20
1.3632267666599205
 10
0.641416249746058
 20
1.3611858374270724
 10
0.6421104893816505
 20
1.3601739401806086
 10
0.6428293531133562
 20
1.3591793851825074
 10
0.7913156127661978
 20
1.1589688716419602
 10
0.792058667652725
 20
1.1579922578783695
 10
0.7928254660359499
 20
1.157034173723865
 10
0.7943826509867193
 20
1.155136738571258
 10
0.7951727308970931
 20
1.1541977612312664
 10
0.7959856164952299
 20
1.1532784562143377
 10
0.9633809271344234
 20
0.9685862013310285
 10
0.9642161288525983
 20
0.967687122303694
 10
0.9650731435177562
 20
0.9668088109288675
 10
0.9668088112794919
 20
0.9650731431756299
 10
0.9676871225707373
 20
0.9642161285983448
 10
0.9685862015103339
 20
0.9633809269637936
 10
1.1532784564018357
 20
0.7959856163334251
 10
1.1541977615107868
 20
0.7951727306559775
 10
1.155136738946652
 20
0.7943826506708476
 10
1.1570341741070536
 20
0.7928254657292655
 10
1.157992258169557
 20
0.7920586674254935
 10
1.158968871837402
 20
0.7913156126137508
 10
1.3591793853851613
 20
0.6428293529705371
 10
1.3601739404827669
 20
0.6421104891688216
 10
1.3611858378321102
 20
0.6414162494681506
 10
1.363226767071339
 20
0.6400525438656643
 10
1.3642553970413331
 20
0.639383346514613
 10
1.3653001401236367
 20
0.6387395945423222
 10
1.579100777567362
 20
0.5105923883050068
 10
1.5801610045540002
 20
0.5099744694234047
 10
1.5812360767020124
 20
0.5093827559082627
 10
1.583400844775639
 20
0.5082256628620598
 10
1.584490114394086
 20
0.5076605111936345
 10
1.5855929254538665
 20
0.5071222617380471
 10
1.8109246718428125
 20
0.40054823531852435
 10
1.812040360163536
 20
0.40003721224756106
 10
1.8131682535883868
 20
0.3995537234367248
 10
1.815436012617198
 20
0.39861438637432656
 10
1.8165754316324438
 20
0.3981587231027319
 10
1.8177256900066965
 20
0.39773115979528484
 10
2.0524184796176854
 20
0.3137566782993204
 10
2.053578884594529
 20
0.3133574724657251
 10
2.0547487370765793
 20
0.3129868646162137
 10
2.0570976473234595
 20
0.3122743298578641
 10
2.058276242518801
 20
0.3119325432649518
 10
2.0594628706019478
 20
0.31161978376975696
 10
2.3012564858392324
 20
0.2510535665491105
 10
2.3024504321490156
 20
0.2507700225194682
 10
2.3036509773804994
 20
0.25051586478389254
 10
2.3060584175781003
 20
0.250036994422004
 10
2.307264838449001
 20
0.24981237609620166
 10
2.308476408375526
 20
0.24961743245515322
 10
2.5550422468791254
 20
0.213042764706195
 10
2.556258236178053
 20
0.2128776131616803
 10
2.5574779122640336
 20
0.21274235321546087
 10
2.559920697470787
 20
0.2125017590287257
 10
2.5611433255360794
 20
0.21239647216521007
 10
2.5623681692366205
 20
0.21232122179031876
 10
2.811331669573846
 20
0.20009033720440783
 10
2.812557986392335
 20
0.20004516876192469
 10
2.813171844543106
 20
0.20003763488490023
 10
2.813785325210688
 20
0.2000150390584281
 10
2.815012386330565
 20
0.1999999800000012
 10
23.135012381420836
 20
0.19999998000601948
 10
23.136239437392675
 20
0.20001503893806927
 10
23.136852925786712
 20
0.20003763495421367
 10
23.137466776212108
 20
0.20004516864158717
 10
23.138693098179914
 20
0.20009033721053981
 10
23.387656598516514
 20
0.21232122180847313
 10
23.38888144233823
 20
0.21239647219236701
 10
23.390104070524217
 20
0.21250175907082536
 10
23.392546855730103
 20
0.2127423532695829
 10
23.39376653169481
 20
0.21287761320691345
 10
23.39498252087313
 20
0.21304276473661332
 10
23.64154835937478
 20
0.24961743249745894
 10
23.642759929420833
 20
0.24981237615930496
 10
23.64396635041018
 20
0.25003699451176686
 10
23.646373790605878
 20
0.2505158648855428
 10
23.647574335717735
 20
0.25077002260041326
 10
23.648768281909128
 20
0.25105356660353806
 10
23.890561897143186
 20
0.311619783835809
 10
23.891748525343388
 20
0.31193254336345433
 10
23.892927120654093
 20
0.31227432999453697
 10
23.89527603089701
 20
0.3129868647642695
 10
23.89644588326192
 20
0.31335747258142277
 10
23.897606288123427
 20
0.31375667837697563
 10
24.132299077730806
 20
0.3977311598844082
 10
24.133449336218376
 20
0.39815872323563894
 10
24.134588755344737
 20
0.39861438655655235
 10
24.13685651436876
 20
0.39955372363000663
 10
24.137984407680165
 20
0.4000372123971445
 10
24.139100095889802
 20
0.40054823541893114
 10
24.364431842273518
 20
0.5071222618492968
 10
24.3655346534415
 20
0.5076605113594113
 10
24.366623923165406
 20
0.50822566308765
 10
24.368788691232965
 20
0.5093827561442339
 10
24.36986376327266
 20
0.5099744696049129
 10
24.37092399015384
 20
0.5105923884268435
 10
24.584724627592152
 20
0.638739594674945
 10
24.585769370777086
 20
0.6393833467123002
 10
24.58679800084647
 20
0.6400525441334253
 10
24.588838930078822
 20
0.6414162497458094
 10
24.589850827325392
 20
0.6421104893814658
 10
24.590845382323607
 20
0.6428293531132567
 10
24.791055895864503
 20
0.7913156127663754
 10
24.792032509628086
 20
0.7920586676529027
 10
24.792990593782605
 20
0.7928254660361276
 10
24.79488802893482
 20
0.7943826509865772
 10
24.795827006274806
 20
0.7951727308969581
 10
24.79674631129174
 20
0.7959856164950949
 10
24.981438566175115
 20
0.9633809271343452
 10
24.982337645202648
 20
0.9642161288526836
 10
24.983215956577624
 20
0.9650731435180262
 10
24.984951624331416
 20
0.9668088112803517
 10
24.985808638908537
 20
0.9676871225714194
 10
24.98664384054291
 20
0.9685862015108455
 10
25.15403915117281
 20
1.1532784564018783
 10
25.15485203684969
 20
1.1541977615101828
 10
25.155642116834287
 20
1.155136738945373
 10
25.157199301775563
 20
1.15703417410527
 10
25.157966100079904
 20
1.157992258168406
 10
25.158709154892165
 20
1.158968871836933
 10
25.307195414535926
 20
1.3591793853854242
 10
25.307914278337933
 20
1.3601739404834632
 10
25.30860851803891
 20
1.36118583783324
 10
25.309972223641267
 20
1.3632267670723692
 10
25.310641420992027
 20
1.3642553970419513
 10
25.311285172964034
 20
1.3653001401238072
 10
25.439432379201435
 20
1.5791007775677244
 10
25.440050298083065
 20
1.5801610045544408
 10
25.440642011598243
 20
1.581236076702524
 10
25.44179910464453
 20
1.5834008447763281
 10
25.442364256312914
 20
1.584490114394704
 10
25.442902505768473
 20
1.5855929254544066
 10
25.549476532187867
 20
1.8109246718431677
 10
25.549987555258753
 20
1.812040360163742
 10
25.550471044069553
 20
1.8131682535884437
 10
25.551410381131944
 20
1.815436012617198
 10
25.551866044403596
 20
1.8165754316326002
 10
25.552293607711107
 20
1.8177256900069878
 10
25.63626808920705
 20
2.0524184796179767
 10
25.636667295040724
 20
2.0535788845951046
 10
25.637037902890313
 20
2.054748737077432
 10
25.637750437648492
 20
2.0570976473238503
 10
25.63809222424132
 20
2.0582762425189074
 10
25.63840498373642
 20
2.0594628706017843
 10
25.69897120095729
 20
2.301256485840085
 10
25.699254744986888
 20
2.302450432149648
 10
25.699508902722414
 20
2.3036509773809186
 10
25.69998777308416
 20
2.3060584175776953
 10
25.70021239141002
 20
2.307264838448816
 10
25.700407335051125
 20
2.3084764083755545
 10
25.73698200280006
 20
2.555042246879175
 10
25.73714715434454
 20
2.5562582361779533
 10
25.737282414290746
 20
2.557477912263778
 10
25.737523008477467
 20
2.5599206974702327
 10
25.73762829534101
 20
2.5611433255356815
 10
25.737703545715902
 20
2.562368169236372
 10
25.749934430301835
 20
2.8113316695742085
 10
25.749979598744318
 20
2.8125579863927044
 10
25.749987132621328
 20
2.8131718445432483
 10
25.75000972844782
 20
2.8137853252113345
 10
25.75002478750625
 20
2.8150123863309346
 10
25.750024787500223
 20
15.515012381421037
 10
25.75000972856816
 20
15.51623943739341
 10
25.749987132552036
 20
15.516852925786317
 10
25.749979598864655
 20
15.517466776212615
 10
25.749934430295696
 20
15.518693098180137
 10
25.73770354569777
 20
15.76765659851634
 10
25.737628295313925
 20
15.768881442337637
 10
25.737523008435517
 20
15.770104070523182
 10
25.7372824142368
 20
15.772546855729054
 10
25.737147154299436
 20
15.773766531694186
 10
25.73698200276968
 20
15.774982520872925
 10
25.700407335008776
 20
16.021548359374975
 10
25.70021239134681
 20
16.022759929421724
 10
25.699987772994206
 20
16.02396635041176
 10
25.699508902620323
 20
16.026373790607636
 10
25.699254744905545
 20
16.027574335718796
 10
25.698971200902577
 20
16.028768281909493
 10
25.63840498367034
 20
16.27056189714353
 10
25.638092224142696
 20
16.27174852534376
 10
25.637750437511613
 20
16.272927120654515
 10
25.637037902741724
 20
16.275276030897935
 10
25.636667294924564
 20
16.276445883262802
 10
25.636268089129032
 20
16.277606288124275
 10
25.552293607621976
 20
16.51229907773049
 10
25.551866044270554
 20
16.513449336218592
 10
25.55141038094939
 20
16.51458875534548
 10
25.550471043875433
 20
16.516856514370573
 10
25.549987555108515
 20
16.51798440768146
 10
25.549476532086942
 20
16.519100095890558
 10
25.44290250565652
 20
16.74443184227436
 10
25.442364256146334
 20
16.745534653442526
 10
25.44179910441798
 20
16.74662392316661
 10
25.44064201136166
 20
16.748788691233635
 10
25.44005029790108
 20
16.749863763273147
 10
25.43943237907925
 20
16.750923990154156
 10
25.311285172831134
 20
16.964724627592418
 10
25.310641420794155
 20
16.96576937077677
 10
25.30997222337342
 20
16.966798000845586
 10
25.308608517761456
 20
16.968838930077432
 10
25.307914278125423
 20
16.969850827324585
 10
25.30719541439325
 20
16.97084538232337
 10
25.158709154740677
 20
17.17105589586358
 10
25.157966099853923
 20
17.172032509627442
 10
25.157199301470484
 20
17.172990593782217
 10
25.155642116518948
 20
17.174888028935705
 10
25.15485203660876
 20
17.17582700627542
 10
25.154039151010863
 20
17.176746311292092
 10
24.986643840371528
 20
17.36143856617553
 10
24.985808638653367
 20
17.362337645202864
 10
24.984951623988195
 20
17.36321595657769
 10
24.983215956226758
 20
17.36495162433063
 10
24.982337644935512
 20
17.365808638907914
 10
24.981438565995916
 20
17.366643840542466
 10
24.796746311104357
 20
17.534039151172884
 10
24.795827005995477
 20
17.53485203685026
 10
24.79488802855971
 20
17.535642116835312
 10
24.792990593399225
 20
17.53719930177698
 10
24.79203250933665
 20
17.53796610008083
 10
24.791055895668705
 20
17.538709154892643
 10
24.59084538212099
 20
17.687195414535815
 10
24.589850827023326
 20
17.687914278337573
 10
24.588838929673898
 20
17.688608518038286
 10
24.58679800043504
 20
17.689972223640517
 10
24.5857693704651
 20
17.690641420991533
 10
24.584724627382883
 20
17.691285172963774
 10
24.37092398993866
 20
17.819432379201395
 10
24.369863762951894
 20
17.82005029808306
 10
24.36878869080377
 20
17.820642011598267
 10
24.366623922730525
 20
17.82179910464425
 10
24.365534653112206
 20
17.82236425631261
 10
24.36443184205254
 20
17.822902505768127
 10
24.13910009566351
 20
17.929476532187707
 10
24.13798440734297
 20
17.9299875552586
 10
24.136856513918275
 20
17.93047104406937
 10
24.13458875488982
 20
17.93141038113164
 10
24.133449335874417
 20
17.931866044403307
 10
24.132299077499994
 20
17.932293607710825
 10
23.897606287888692
 20
18.016268089206903
 10
23.89644588291185
 20
18.01666729504049
 10
23.895276030429812
 20
18.01703790289001
 10
23.892927120182748
 20
18.017750437648417
 10
23.891748524987378
 20
18.01809222424133
 10
23.890561896904217
 20
18.018404983736517
 10
23.648768281666946
 20
18.078971200957163
 10
23.647574335357035
 20
18.079254744986848
 10
23.646373790125438
 20
18.079508902722438
 10
23.64396634992781
 20
18.07998777308432
 10
23.642759929057036
 20
18.080212391410093
 10
23.64154835913064
 20
18.08040733505112
 10
23.39498252062691
 20
18.116982002800086
 10
23.393766531328026
 20
18.117147154344593
 10
23.392546855242074
 20
18.117282414290813
 10
23.390104070035648
 20
18.11752300847752
 10
23.388881441970312
 20
18.117628295341042
 10
23.38765659826973
 20
18.117703545715933
 10
23.13869309793236
 20
18.12993443030185
 10
23.137466781113858
 20
18.129979598744335
 10
23.13685292296327
 20
18.12998713262136
 10
23.13623944229562
 20
18.13000972844783
 10
23.1350123811757
 20
18.130024787506258
 10
2.815012386085442
 20
18.13002478750024
 10
2.8137853301136033
 20
18.13000972856819
 10
2.8131718417195515
 20
18.129987132552046
 10
2.8125579912941703
 20
18.129979598864672
 10
2.811331669326364
 20
18.12993443029572
 10
2.5623681689896642
 20
18.117703545697786
 10
2.561143325168075
 20
18.1176282953139
 10
2.559920696982232
 20
18.117523008435455
 10
2.557477911776658
 20
18.11728241423674
 10
2.556258235811825
 20
18.117147154299403
 10
2.555042246633377
 20
18.11698200276969
 10
2.308476408131554
 20
18.08040733500883
 10
2.307264838085473
 20
18.080212391346976
 10
2.3060584170961107
 20
18.079987772994514
 10
2.3036509769004994
 20
18.079508902620752
 10
2.3024504317886567
 20
18.07925474490588
 10
2.3012564855972926
 20
18.078971200902764
 10
2.0594628703630207
 20
18.018404983670443
 10
2.058276242162705
 20
18.018092224142762
 10
2.057097646851858
 20
18.017750437511637
 10
2.0547487366085875
 20
18.017037902741784
 10
2.0535788842438194
 20
18.016667294924666
 10
2.052418479382439
 20
18.016268089129156
 10
1.8177256897755143
 20
17.932293607621872
 10
1.8165754312878875
 20
17.931866044270627
 10
1.81543601216147
 20
17.931410380949693
 10
1.8131682531372206
 20
17.93047104387614
 10
1.8120403598258576
 20
17.929987555109015
 10
1.8109246716162914
 20
17.92947653208725
 10
1.585592925232703
 20
17.82290250565695
 10
1.584490114064593
 20
17.822364256146777
 10
1.5834008443405594
 20
17.821799104418474
 10
1.581236076272802
 20
17.82064201136177
 10
1.5801610042332328
 20
17.82005029790114
 10
1.579100777352167
 20
17.81943237907928
 10
1.3653001399143534
 20
17.691285172831485
 10
1.364255396729547
 20
17.690641420794215
 10
1.3632267666603042
 20
17.68997222337319
 10
1.3611858374275414
 20
17.68860851776055
 10
1.3601739401808288
 20
17.6879142781248
 10
1.3591793851824718
 20
17.687195414392917
 10
1.1589688716420596
 20
17.538709154740154
 10
1.1579922578785329
 20
17.537966099853662
 10
1.157034173724071
 20
17.537199301470487
 10
1.1551367385714286
 20
17.535642116519696
 10
1.1541977612313872
 20
17.534852036609273
 10
1.1532784562144087
 20
17.534039151011093
 10
0.9685862013311066
 20
17.36664384037192
 10
0.9676871223035874
 20
17.365808638653576
 10
0.9668088109285833
 20
17.36495162398824
 10
0.9650731431751041
 20
17.363215956226227
 10
0.9642161285980109
 20
17.36233764493516
 10
0.9633809269636231
 20
17.36143856599574
 10
0.7959856163332404
 20
17.176746311104232
 10
0.7951727306557643
 20
17.175827005995224
 10
0.7943826506705989
 20
17.174888028559316
 10
0.7928254657291234
 20
17.172990593399035
 10
0.792058667425394
 20
17.17203250933659
 10
0.7913156126136869
 20
17.171055895668786
 10
0.6428293529706366
 20
16.970845382121226
 10
0.6421104891690135
 20
16.96985082702375
 10
0.6414162494684206
 20
16.96883892967454
 10
0.6400525438658633
 20
16.966798000435233
 10
0.6393833465147196
 20
16.965769370465104
 10
0.6387395945423435
 20
16.964724627382672
 10
0.5105923883049286
 20
16.75092398993877
 10
0.509974469423284
 20
16.749863762952053
 10
0.5093827559080921
 20
16.748788690803956
 10
0.508225662862074
 20
16.746623922730656
 10
0.5076605111937056
 20
16.745534653112287
 10
0.5071222617381608
 20
16.74443184205259
 10
0.40054823531851014
 20
16.519100095663354
 10
0.4000372122476108
 20
16.517984407342794
 10
0.3995537234368385
 20
16.5168565139181
 10
0.3986143863744047
 20
16.514588754889246
 10
0.39815872310273903
 20
16.513449335873837
 10
0.397731159795228
 20
16.512299077499435
 10
0.3137566782992991
 20
16.27760628788856
 10
0.31335747246566825
 20
16.276445882911617
 10
0.31298686461613556
 20
16.275276030429467
 10
0.31227432985785697
 20
16.272927120182786
 10
0.3119325432649731
 20
16.271748524987544
 10
0.3116197837698138
 20
16.27056189690449
 10
0.2510535665491176
 20
16.02876828166709
 10
0.2507700225194611
 20
16.027574335357265
 10
0.25051586478387833
 20
16.02637379012574
 10
0.250036994422004
 20
16.023966349928187
 10
0.24981237609620166
 20
16.02275992905733
 10
0.24961743245516743
 20
16.021548359130847
 10
0.2130427647062021
 20
15.774982520627141
 10
0.2128776131616945
 20
15.773766531328327
 10
0.2127423532154893
 20
15.772546855242467
 10
0.21250175902875412
 20
15.770104070035835
 10
0.21239647216522428
 20
15.768881441970422
 10
0.21232122179031876
 20
15.76765659826976
 10
0.20009033720438651
 20
15.518693097931909
 10
0.20004516876188916
 20
15.517466781112837
 10
0.2000376348848789
 20
15.516852922962606
 10
0.20001503905839968
 20
15.516239442294214
 10
0.1999999800000012
 20
15.51501238117519
 10
0.1999999800060266
 20
2.815012386085371
 10
0.20001503902827267
 20
2.813785326438925
 10
0.20003763494291604
 20
2.8131718426400028
  0
LWPOLYLINE
  5
2E
330
17
100
AcDbEntity
  8
0
100
AcDbPolyline
 90
394
 70
0
 10
0.1500526993402218
 20
2.8119447728515325
 10
0.15006023316421135
 20
2.811330911295279
 10
0.1501505702998429
 20
2.808878267421562
 10
0.1623814548977407
 20
2.559914767085367
 10
0.16253195566174838
 20
2.557465079503352
 10
0.16274252941337863
 20
2.555019823192737
 10
0.16298312361213618
 20
2.552577037986758
 10
0.16325364348004712
 20
2.55013768611812
 10
0.16358394653121877
 20
2.5477057078220966
 10
0.20015861429214965
 20
2.3011398693198473
 10
0.20054850160606463
 20
2.298716729288465
 10
0.20099773829971923
 20
2.296303887370243
 10
0.20147660867326067
 20
2.2938964471756904
 10
0.20198492409032553
 20
2.291495357011847
 10
0.20255201208243534
 20
2.2891074646886196
 10
0.2631182293149976
 20
2.0473138494534027
 10
0.26374374835457104
 20
2.044940593112628
 10
0.2644273215995554
 20
2.042583402550413
 10
0.26513985636918846
 20
2.040234492307775
 10
0.2658810719850493
 20
2.0378947876361693
 10
0.266679483556274
 20
2.0355739779708983
 10
0.3506539650638132
 20
1.80088118836332
 10
0.35150909174504363
 20
1.7985806714453005
 10
0.35242041836426097
 20
1.79630183324916
 10
0.3533597554376371
 20
1.7940340742253795
 10
0.3543267329475839
 20
1.7917782876593336
 10
0.3553487789654355
 20
1.789546911296263
 10
0.46192280539573005
 20
1.5642151649126816
 10
0.46299930438912895
 20
1.5620095426316851
 10
0.4641296078174406
 20
1.559831003238152
 10
0.4652867008743726
 20
1.557666235169961
 10
0.46647012776607255
 20
1.5555160911445114
 10
0.46770596537893994
 20
1.5533956374353295
 10
0.5958531716264872
 20
1.3395949999979138
 10
0.5971406756691522
 20
1.3375055136800285
 10
0.5984790704781062
 20
1.3354482535924674
 10
0.5998427760908385
 20
1.3334073243596194
 10
0.601231255327292
 20
1.3313835299172965
 10
0.6026689827547642
 20
1.329394419970825
 10
0.7511552424076058
 20
1.1291839064302778
 10
0.7526413521435131
 20
1.127230678951939
 10
0.7541749488716079
 20
1.1253145106908207
 10
0.7557321338223772
 20
1.1234170755382138
 10
0.7573122936036469
 20
1.121539120905183
 10
0.7589380647592776
 20
1.1197005109172835
 10
0.926333375398471
 20
0.9350082560339743
 10
0.9280037787930553
 20
0.9332100980242544
 10
0.9297178080805111
 20
0.93145347531852
 10
0.9314534758422468
 20
0.9297178075652823
 10
0.9332100983808118
 20
0.9280037784535651
 10
0.9350082562150703
 20
0.9263333752262142
 10
1.119700511106572
 20
0.7589380645958457
 10
1.1215391212785306
 20
0.7573122932815934
 10
1.1234170761033084
 20
0.7557321333508398
 10
1.12531451126371
 20
0.7541749484092577
 10
1.1272306793407978
 20
0.7526413518400545
 10
1.1291839066276594
 20
0.7511552422537306
 10
1.3293944201754186
 20
0.6026689826105169
 10
1.331383530320906
 20
0.6012312550430252
 10
1.3334073249690022
 20
0.5998427756764002
 10
1.3354482542082309
 20
0.598479070073914
 10
1.3375055140967902
 20
0.5971406754052566
 10
1.339595000209144
 20
0.5958531714928696
 10
1.5533956376528693
 20
0.4677059652555542
 10
1.5555160915731392
 20
0.4664701275232517
 10
1.5576662358154039
 20
0.4652867005225474
 10
1.5598310038890304
 20
0.4641296074763446
 10
1.5620095430714684
 20
0.46299930416775226
 10
1.5642151651358915
 20
0.4619228052834998
 10
1.7895469115248375
 20
0.3553487788639771
 10
1.7917782881104642
 20
0.3543267327475945
 10
1.7940340749037773
 20
0.35335975515009466
 10
1.7963018339325885
 20
0.3524204180876964
 10
1.798580671906123
 20
0.35150909156729426
 10
1.8008811885971028
 20
0.3506539649737661
 10
2.0355739782080917
 20
0.2666794834778017
 10
2.0378947881037703
 20
0.2658810718305844
 10
2.0402344930093648
 20
0.2651398561500784
 10
2.042583403256245
 20
0.26442732139172875
 10
2.044940593587995
 20
0.26374374822300695
 10
2.047313849694987
 20
0.26311822924825634
 10
2.289107464932272
 20
0.20255201202760986
 10
2.2914953574921384
 20
0.20198492398249357
 10
2.2938964478950794
 20
0.2014766085240538
 10
2.2963038880926803
 20
0.20099773816216526
 10
2.2987167297741706
 20
0.20054850152179426
 10
2.301139869566626
 20
0.20015861424943893
 10
2.5477057080702252
 20
0.1635839465004807
 10
2.550137686607286
 20
0.16325364341970783
 10
2.552577038718269
 20
0.16298312353404043
 10
2.555019823925022
 20
0.16274252934730526
 10
2.557465079994472
 20
0.16253195562553202
 10
2.5599147673343055
 20
0.16238145487950817
 10
2.808878267671531
 20
0.15015057029359724
 10
2.8113309304809917
 20
0.1500602326932352
 10
2.8125582452127134
 20
0.15003010358103808
 10
2.8150123863305794
 20
0.1499999850000009
 10
23.135012381420836
 20
0.1499999850060192
 10
23.13746652253863
 20
0.15003010358705637
 10
23.138693837270353
 20
0.1500602326992535
 10
23.14114650008466
 20
0.15015057029985002
 10
23.39011000042126
 20
0.16238145489778333
 10
23.392559688003445
 20
0.16253195566180523
 10
23.395004944314223
 20
0.1627425294134639
 10
23.39744772952011
 20
0.16298312361222145
 10
23.399887081388584
 20
0.16325364348011107
 10
23.40231905968443
 20
0.1635839465312543
 10
23.648884898186083
 20
0.2001586142920999
 10
23.651308038217593
 20
0.20054850160605042
 10
23.65372088013595
 20
0.20099773829973344
 10
23.656128320331646
 20
0.20147660867350936
 10
23.658529410495333
 20
0.2019849240905529
 10
23.660917302818433
 20
0.2025520120826272
 10
23.90271091805249
 20
0.26311822931489814
 10
23.90508417439355
 20
0.2637437483545426
 10
23.90744136495607
 20
0.26442732159962645
 10
23.909790275198986
 20
0.265139856369359
 10
23.912129979870286
 20
0.26588107198513455
 10
23.914450789535266
 20
0.266679483556274
 10
24.149143579142645
 20
0.3506539650637066
 10
24.15144409606029
 20
0.35150909174478784
 10
24.153722934256052
 20
0.35242041836383464
 10
24.155990693280074
 20
0.3533597554372889
 10
24.158246479846497
 20
0.3543267329473849
 10
24.16047785620995
 20
0.35534877896540706
 10
24.385809602593667
 20
0.4619228053957727
 10
24.388015224874493
 20
0.4629993043890934
 10
24.390193764267877
 20
0.4641296078173127
 10
24.392358532335436
 20
0.46528670087389656
 10
24.394508676361056
 20
0.46647012776567465
 10
24.39662913007041
 20
0.4677059653786344
 10
24.61042976750872
 20
0.5958531716267359
 10
24.612519253826378
 20
0.5971406756692659
 10
24.614576513913704
 20
0.5984790704780494
 10
24.616617443146055
 20
0.5998427760904335
 10
24.618641237588605
 20
0.6012312553270434
 10
24.620630347535297
 20
0.6026689827546718
 10
24.820840861076192
 20
0.7511552424077905
 10
24.82279408855456
 20
0.752641352143705
 10
24.824710256815678
 20
0.7541749488718139
 10
24.826607691967894
 20
0.7557321338222636
 10
24.82848564660091
 20
0.757312293603519
 10
24.830324256588796
 20
0.7589380647591426
 10
25.01501651147217
 20
0.9263333753983929
 10
25.016814669482272
 20
0.9280037787933182
 10
25.01857129218834
 20
0.9297178080811506
 10
25.020306959942133
 20
0.931453475843476
 10
25.022020989053487
 20
0.9332100983816929
 10
25.023691392280483
 20
0.9350082562155819
 10
25.191086702910383
 20
1.1197005111066147
 10
25.192712474223526
 20
1.121539121277273
 10
25.194292634153214
 20
1.1234170761006936
 10
25.19584981909449
 20
1.1253145112605907
 10
25.197383415664802
 20
1.1272306793389717
 10
25.198869525252178
 20
1.1291839066271834
 10
25.34735578489594
 20
1.3293944201756744
 10
25.348793512464027
 20
1.3313835303220145
 10
25.35018199183122
 20
1.3334073249709917
 10
25.35154569743358
 20
1.335448254210121
 10
25.352884092101647
 20
1.3375055140978347
 10
25.354171596013487
 20
1.3395950002093144
 10
25.482318802250887
 20
1.5533956376532316
 10
25.483554639983254
 20
1.5555160915736508
 10
25.48473806698405
 20
1.5576662358160647
 10
25.48589516003034
 20
1.5598310038898688
 10
25.487025463338853
 20
1.5620095430721648
 10
25.488101962223027
 20
1.5642151651364316
 10
25.59467598864242
 20
1.7895469115251927
 10
25.59569803475867
 20
1.7917782881105495
 10
25.596665012356056
 20
1.7940340749035641
 10
25.597604349418447
 20
1.7963018339323185
 10
25.598515675938984
 20
1.7985806719061372
 10
25.599370802532604
 20
1.8008811885974083
 10
25.683345284028547
 20
2.0355739782083973
 10
25.68414369567597
 20
2.03789478810463
 10
25.68488491135662
 20
2.0402344930108
 10
25.685597446114798
 20
2.0425834032572183
 10
25.686281019283342
 20
2.0449405935884144
 10
25.686906538257944
 20
2.047313849694831
 10
25.74747275547881
 20
2.2891074649331316
 10
25.748039843523827
 20
2.2914953574925647
 10
25.748548158982175
 20
2.293896447895065
 10
25.74902702934392
 20
2.296303888091842
 10
25.749476265984384
 20
2.2987167297737585
 10
25.749866153256818
 20
2.3011398695666614
 10
25.786440821005755
 20
2.547705708070282
 10
25.7867711240865
 20
2.55013768660703
 10
25.787041643972145
 20
2.5525770387177005
 10
25.787282238158866
 20
2.5550198239241553
 10
25.787492811880668
 20
2.557465079993918
 10
25.787643312626727
 20
2.5599147673340568
 10
25.79987419721266
 20
2.8088782676718935
 10
25.79996453481303
 20
2.811330930481944
 10
25.79999466392522
 20
2.8125582452136726
 10
25.800024782506227
 20
2.815012386330963
 10
25.800024782500202
 20
15.515012381421066
 10
25.799994663919193
 20
15.517466522538271
 10
25.799964534807003
 20
15.518693837269993
 10
25.79987419720638
 20
15.52114650008486
 10
25.787643312608452
 20
15.770110000421063
 10
25.787492811844515
 20
15.772559688002424
 10
25.787282238092956
 20
15.775004944312386
 10
25.78704164389424
 20
15.777447729518258
 10
25.786771124026274
 20
15.779887081387542
 10
25.78644082097503
 20
15.782319059684212
 10
25.74986615321413
 20
16.028884898186263
 10
25.749476265899943
 20
16.031308038219187
 10
25.749027029205934
 20
16.03372088013893
 10
25.74854815883205
 20
16.036128320334804
 10
25.748039843415256
 20
16.038529410497098
 10
25.7474727554235
 20
16.040917302818798
 10
25.686906538191266
 20
16.282710918052835
 10
25.686281019151608
 20
16.285084174393965
 10
25.685597445906495
 20
16.287441364956543
 10
25.684884911136606
 20
16.289790275199962
 10
25.684143695520845
 20
16.292129979871213
 10
25.683345283949734
 20
16.294450789536135
 10
25.599370802442678
 20
16.52914357914235
 10
25.598515675761178
 20
16.531444096061044
 10
25.597604349141676
 20
16.53372293425784
 10
25.596665012067717
 20
16.535990693282933
 10
25.59569803455804
 20
16.53824647984831
 10
25.594675988540473
 20
16.540477856210728
 10
25.48810196211005
 20
16.76580960259453
 10
25.487025463116538
 20
16.76801522487571
 10
25.48589515968814
 20
16.770193764269422
 10
25.48473806663182
 20
16.772358532336447
 10
25.48355463974022
 20
16.774508676361712
 10
25.482318802127452
 20
16.776629130070724
 10
25.354171595879336
 20
16.990429767508985
 10
25.352884091837552
 20
16.992519253825456
 10
25.351545697029565
 20
16.994576513911653
 10
25.3501819914176
 20
16.9966174431435
 10
25.348793512180265
 20
16.998641237587222
 10
25.34735578475184
 20
17.00063034753505
 10
25.19886952509927
 20
17.200840861075264
 10
25.197383415362907
 20
17.202794088554157
 10
25.195849818634372
 20
17.204710256815808
 10
25.194292633682835
 20
17.206607691969296
 10
25.19271247390199
 20
17.20848564660178
 10
25.191086702746816
 20
17.210324256589153
 10
25.02369139210748
 20
17.39501651147259
 10
25.02202098871288
 20
17.39681466948231
 10
25.020306959425426
 20
17.398571292188038
 10
25.01857129166399
 20
17.400306959940977
 10
25.016814669125438
 20
17.402020989052694
 10
25.01501651129118
 20
17.403691392280045
 10
24.83032425639962
 20
17.571086702910463
 10
24.828485646227847
 20
17.572712474224552
 10
24.826607691403268
 20
17.574292634155164
 10
24.82471025624278
 20
17.57584981909683
 10
24.822794088165523
 20
17.577383415666183
 10
24.820840860878462
 20
17.578869525252664
 10
24.620630347330746
 20
17.727355784895835
 10
24.61864123718513
 20
17.72879351246341
 10
24.616617442536892
 20
17.730181991830122
 10
24.614576513298033
 20
17.731545697432352
 10
24.6125192534096
 20
17.732884092100917
 10
24.610429767297376
 20
17.734171596013226
 10
24.396629129853153
 20
17.862318802250847
 10
24.394508675932656
 20
17.863554639983285
 10
24.39235853169015
 20
17.864738066984117
 10
24.390193763616907
 20
17.8658951600301
 10
24.388015224434696
 20
17.86702546333855
 10
24.38580960237053
 20
17.86810196222268
 10
24.160477855981497
 20
17.97467598864226
 10
24.158246479396183
 20
17.975698034758494
 10
24.15599069260321
 20
17.976665012355866
 10
24.153722933574755
 20
17.977604349418137
 10
24.15144409560088
 20
17.978515675938688
 10
24.14914357890956
 20
17.979370802532344
 10
23.914450789298257
 20
18.063345284028422
 10
23.912129979402607
 20
18.06414369567564
 10
23.909790274497027
 20
18.06488491135613
 10
23.907441364249962
 20
18.065597446114538
 10
23.905084173918198
 20
18.066281019283267
 10
23.90271091781119
 20
18.066906538258024
 10
23.66091730257392
 20
18.12747275547867
 10
23.658529410013813
 20
18.128039843523844
 10
23.656128319610616
 20
18.128548158982326
 10
23.653720879412987
 20
18.129027029344208
 10
23.651308037731752
 20
18.12947626598453
 10
23.648884897939524
 20
18.129866153256835
 10
23.402319059435797
 20
18.1664408210058
 10
23.39988708089882
 20
18.16677112408656
 10
23.39744772878791
 20
18.167041643972226
 10
23.395004943581483
 20
18.167282238158933
 10
23.392559687511948
 20
18.167492811880713
 10
23.390110000172058
 20
18.167643312626744
 10
23.14114649983469
 20
18.179874197212662
 10
23.13869383702533
 20
18.179964534813024
 10
23.137466522293664
 20
18.17999466392522
 10
23.1350123811757
 20
18.18002478250626
 10
2.815012386085428
 20
18.18002478250024
 10
2.812558244967562
 20
18.179994663919203
 10
2.8113309302358687
 20
18.179964534807006
 10
2.8088782674216475
 20
18.17987419720641
 10
2.5599147670849476
 20
18.167643312608476
 10
2.5574650795029896
 20
18.16749281184447
 10
2.5550198231924384
 20
18.167282238092845
 10
2.5525770379868646
 20
18.16704164389413
 10
2.550137686118177
 20
18.16677112402622
 10
2.5477057078220895
 20
18.166440820975048
 10
2.3011398693202665
 20
18.129866153214188
 10
2.2987167292886994
 20
18.12947626590023
 10
2.2963038873702857
 20
18.129027029206533
 10
2.2938964471746743
 20
18.12854815883277
 10
2.29149535701103
 20
18.128039843415742
 10
2.289107464687987
 20
18.127472755423675
 10
2.0473138494537153
 20
18.066906538191354
 10
2.0449405931124005
 20
18.06628101915164
 10
2.0425834025496528
 20
18.065597445906484
 10
2.040234492306382
 20
18.06488491113663
 10
2.0378947876353237
 20
18.06414369552092
 10
2.0355739779705857
 20
18.063345283949857
 10
1.800881188363661
 20
17.979370802442574
 10
1.798580671445933
 20
17.978515675761457
 10
1.7963018332500695
 20
17.977604349142375
 10
1.79403407422582
 20
17.97666501206882
 10
1.7917782876594828
 20
17.975698034558754
 10
1.7895469112961138
 20
17.974675988540774
 10
1.5642151649125253
 20
17.868101962110472
 10
1.562009542631472
 20
17.86702546311703
 10
1.5598310032378748
 20
17.86589515968869
 10
1.5576662351701174
 20
17.864738066631986
 10
1.5555160911447388
 20
17.86355463974032
 10
1.5533956374356137
 20
17.862318802127497
 10
1.3395949999978
 20
17.7341715958797
 10
1.3375055136804264
 20
17.73288409183735
 10
1.3354482535933556
 20
17.73154569702875
 10
1.3334073243605928
 20
17.73018199141611
 10
1.3313835299177583
 20
17.728793512179315
 10
1.3293944199707823
 20
17.727355784751502
 10
1.1291839064303701
 20
17.57886952509874
 10
1.127230678952131
 20
17.577383415362902
 10
1.1253145106911262
 20
17.575849818634893
 10
1.1234170755384838
 20
17.574292633684102
 10
1.1215391209053394
 20
17.57271247390276
 10
1.1197005109173546
 20
17.571086702747046
 10
0.9350082560340525
 20
17.403691392107874
 10
0.933210098023963
 20
17.40202098871295
 10
0.9314534753178805
 20
17.400306959425116
 10
0.9297178075644013
 20
17.398571291663103
 10
0.9280037784530464
 20
17.396814669124886
 10
0.9263333752260507
 20
17.395016511291004
 10
0.758938064595668
 20
17.210324256399495
 10
0.7573122932813448
 20
17.20848564622745
 10
0.75573213335052
 20
17.20660769140258
 10
0.7541749484090445
 20
17.2047102562423
 10
0.7526413518399124
 20
17.202794088165305
 10
0.7511552422536596
 20
17.20084086087853
 10
0.6026689826106093
 20
17.00063034733097
 10
0.6012312550433023
 20
16.998641237185744
 10
0.5998427756768479
 20
16.996617442537918
 10
0.5984790700742906
 20
16.99457651329861
 10
0.5971406754054556
 20
16.992519253409796
 10
0.595853171492891
 20
16.990429767297165
 10
0.46770596525547603
 20
16.776629129853262
 10
0.46647012752308115
 20
16.774508675932836
 10
0.4652867005222987
 20
16.772358531690408
 10
0.4641296074762806
 20
16.770193763617108
 10
0.4629993041677807
 20
16.768015224434826
 10
0.4619228052836064
 20
16.765809602370567
 10
0.35534877886395577
 20
16.54047785598133
 10
0.3543267327477082
 20
16.538246479396
 10
0.35335975515033624
 20
16.535990692603
 10
0.3524204180879025
 20
16.533722933574147
 10
0.3515090915673653
 20
16.531444095600307
 10
0.35065396497371637
 20
16.52914357890902
 10
0.26667948347778747
 20
16.294450789298146
 10
0.26588107183049203
 20
16.29212997940227
 10
0.2651398561499434
 20
16.289790274496468
 10
0.2644273213916648
 20
16.287441364249787
 10
0.26374374822300695
 20
16.285084173918236
 10
0.2631182292483061
 20
16.282710917811457
 10
0.20255201202760986
 20
16.04091730257406
 10
0.20198492398247936
 20
16.038529410014107
 10
0.20147660852401827
 20
16.03612831961108
 10
0.20099773816214395
 20
16.03372087941353
 10
0.20054850152179426
 20
16.031308037732124
 10
0.20015861424946024
 20
16.02888489793974
 10
0.1635839465004949
 20
15.782319059436034
 10
0.16325364341975046
 20
15.779887080899215
 10
0.16298312353409017
 20
15.777447728788474
 10
0.162742529347355
 20
15.775004943581841
 10
0.16253195562555334
 20
15.77255968751215
 10
0.16238145487950817
 20
15.770110000172075
 10
0.15015057029357592
 20
15.521146499834224
 10
0.15006023269320679
 20
15.518693837024188
 10
0.15003010358101676
 20
15.517466522292466
 10
0.14999998499999379
 20
15.515012381175161
 10
0.1499999850060192
 20
2.8150123860853427
 10
0.15003010304977238
 20
2.812558266853813
 10
0.1500526993402218
 20
2.8119447728515325
  0
LWPOLYLINE
  5
2F
330
17
100
AcDbEntity
  8
0
100
AcDbPolyline
 90
394
 70
0
 10
0.10006776373755599
 20
2.8107177030625863
 10
0.10007529768684265
 20
2.8101038312967646
 10
0.10021080338916022
 20
2.8064248655168385
 10
0.112441687987058
 20
2.557461365180643
 10
0.1126674391311866
 20
2.553786833838238
 10
0.11298329975601007
 20
2.5501189494028864
 10
0.11322389395476762
 20
2.5476761641969077
 10
0.11362967375323763
 20
2.5440171364244435
 10
0.11412512832585264
 20
2.540369169010809
 10
0.15069979608678352
 20
2.2938033305085597
 10
0.151284627052803
 20
2.2901686204917766
 10
0.1519584820876645
 20
2.2865493576446028
 10
0.15243735246120593
 20
2.28414191745005
 10
0.15319982558045808
 20
2.2805402822342984
 10
0.15405045756152447
 20
2.276958443779307
 10
0.21461667479408675
 20
2.03516482854409
 10
0.2155549533456167
 20
2.0316049440626003
 10
0.2165803132045454
 20
2.0280691582487336
 10
0.21729284797417847
 20
2.0257202480060954
 10
0.21840467138871134
 20
2.0222106910279436
 10
0.21960228873558663
 20
2.018729476559045
 10
0.3035767702431258
 20
1.7840366869514668
 10
0.3048594602542778
 20
1.7805859116031897
 10
0.3062264501716925
 20
1.777167654337461
 10
0.3071657872450686
 20
1.7748998953136805
 10
0.30861625349791666
 20
1.7715162154928166
 10
0.3101493225119185
 20
1.7681691509760995
 10
0.4167233489422131
 20
1.5428374045925182
 10
0.41833809741885375
 20
1.5395289711985995
 10
0.42003355254719565
 20
1.5362611621355313
 10
0.42119064560412767
 20
1.5340963940673404
 10
0.42296578592687695
 20
1.5308711780560387
 10
0.4248195423307237
 20
1.527690497518769
 10
0.552966748578271
 20
1.3138898600813533
 10
0.5548980046261818
 20
1.310755630630652
 10
0.5569055968228724
 20
1.3076697405250215
 10
0.5582693024356047
 20
1.3056288112921735
 10
0.5603520212729478
 20
1.3025931196539844
 10
0.5625086123961864
 20
1.2996094547591355
 10
0.710994872049028
 20
1.0993989412185883
 10
0.7132240366343154
 20
1.0964691000254945
 10
0.71552443170728
 20
1.0935948476577764
 10
0.7170816166580494
 20
1.0916974125051695
 10
0.7194518563102008
 20
1.0888804805790926
 10
0.7218905130233253
 20
1.0861225656202294
 10
0.8892858236625187
 20
0.9014303107369201
 10
0.8917914287335122
 20
0.8987330737448147
 10
0.894362472643266
 20
0.8960981397081795
 10
0.8960981404050017
 20
0.8943624719549419
 10
0.8987330741909005
 20
0.8917914283087853
 10
0.9014303109198067
 20
0.8892858234886418
 10
1.0861225658113085
 20
0.7218905128582733
 10
1.0888804810462602
 20
0.7194518559072165
 10
1.0916974132599506
 20
0.7170816160308391
 10
1.0935948484203522
 20
0.715524431089257
 10
1.0964691005120244
 20
0.7132240362546227
 10
1.0993989414179026
 20
0.7109948718937105
 10
1.2996094549656618
 20
0.5625086122504968
 10
1.302593120159031
 20
0.5603520209172359
 10
1.3056288121058799
 20
0.5582693018846427
 10
1.3076697413451086
 20
0.5569055962821565
 10
1.310755631152233
 20
0.5548980042959073
 10
1.3138898602946512
 20
0.5529667484434242
 10
1.5276904977383765
 20
0.42481954220610874
 10
1.530871178592264
 20
0.4229657856230986
 10
1.5340963949287953
 20
0.42119064513683213
 10
1.5362611630024219
 20
0.4200335520906293
 10
1.539528971748851
 20
0.41833809714187
 10
1.5428374048179023
 20
0.41672334882894546
 10
1.7681691512068483
 20
0.3101493224094227
 10
1.7715162160574067
 20
0.308616253247628
 10
1.774899896219182
 20
0.3071657868634716
 10
1.7771676552479931
 20
0.3062264498010734
 10
1.7805859121798164
 20
0.3048594600318566
 10
1.7840366871875233
 20
0.3035767701522545
 10
2.0187294767985122
 20
0.21960228865629006
 10
2.0222106916130116
 20
0.2184046711954366
 10
2.0257202489421644
 20
0.21729284768395019
 10
2.0280691591890445
 20
0.21658031292560054
 10
2.031604944657218
 20
0.2155549531810621
 10
2.0351648287880266
 20
0.21461667472675572
 10
2.2769584440253112
 20
0.15405045750610924
 10
2.2805402828352612
 20
0.1531998254455189
 10
2.284141918409645
 20
0.15243735226421506
 10
2.286549358607246
 20
0.15195848190232653
 10
2.290168621099312
 20
0.15128462694738687
 10
2.2938033307577257
 20
0.15069979604373174
 10
2.540369169261325
 20
0.1141251282947735
 10
2.544017137036519
 20
0.11362967367774246
 10
2.547676165172504
 20
0.11322389385262
 10
2.5501189503792574
 20
0.11298329966588483
 10
2.553786834452879
 20
0.11266743908585397
 10
2.5574613654320046
 20
0.11244168796869758
 10
2.8064248657692303
 20
0.10021080338278665
 10
2.8101038599527612
 20
0.10007529698337692
 10
2.811331174684483
 20
0.10004516787117979
 10
2.8150123863305936
 20
0.0999999900000006
 10
23.135012381420864
 20
0.09999999000601889
 10
23.138693593066876
 20
0.10004516787719808
 10
23.139920907798597
 20
0.10007529698939521
 10
23.143599901989376
 20
0.10021080338916022
 10
23.392563402325976
 20
0.11244168798709353
 10
23.396237933668658
 20
0.11266743913124344
 10
23.39990581810426
 20
0.11298329975610244
 10
23.402348603310145
 20
0.11322389395485999
 10
23.406007631082332
 20
0.11362967375331579
 10
23.409655598495704
 20
0.11412512832589528
 10
23.656221436997356
 20
0.1506997960867409
 10
23.659856147014352
 20
0.15128462705279588
 10
23.663475409861718
 20
0.15195848208770713
 10
23.665882850057415
 20
0.15243735246148304
 10
23.66948448527296
 20
0.15319982558068546
 10
23.67306632372774
 20
0.1540504575617092
 10
23.914859938961797
 20
0.21461667479398017
 10
23.918419823443713
 20
0.215554953345638
 10
23.92195560925802
 20
0.21658031320470883
 10
23.924304519500936
 20
0.21729284797444137
 10
23.927814076478654
 20
0.21840467138884634
 10
23.931295290947105
 20
0.21960228873557242
 10
24.165988080554484
 20
0.303576770243005
 10
24.1694388559022
 20
0.30485946025394384
 10
24.172857113167368
 20
0.30622645017111694
 10
24.17512487219139
 20
0.3071657872445712
 10
24.17850855201283
 20
0.30861625349763244
 10
24.18185561653013
 20
0.3101493225118901
 10
24.407187362913845
 20
0.4167233489422557
 10
24.410495796307515
 20
0.4183380974187827
 10
24.41376360537035
 20
0.4200335525469754
 10
24.415928373437907
 20
0.42119064560355923
 10
24.41915358944945
 20
0.4229657859264364
 10
24.422334269986976
 20
0.4248195423304253
 10
24.636134907425287
 20
0.5529667485785268
 10
24.63926913687564
 20
0.5548980046262244
 10
24.642355026980937
 20
0.5569055968226806
 10
24.644395956213287
 20
0.5582693024350647
 10
24.647431647851818
 20
0.560352021272621
 10
24.650415312746986
 20
0.562508612396087
 10
24.85062582628788
 20
0.7109948720492056
 10
24.853555667481004
 20
0.7132240366345073
 10
24.856429919848722
 20
0.7155244317074931
 10
24.858327355000938
 20
0.7170816166579428
 10
24.861144286927015
 20
0.7194518563100729
 10
24.86390220188585
 20
0.7218905130231903
 10
25.048594456769223
 20
0.8892858236624406
 10
25.051291693761897
 20
0.8917914287339528
 10
25.053926627799058
 20
0.8943624726442678
 10
25.05566229555285
 20
0.8960981404065933
 10
25.058233339198438
 20
0.8987330741919664
 10
25.060738944018055
 20
0.9014303109203254
 10
25.228134254647955
 20
1.0861225658113582
 10
25.230572911597335
 20
1.088880481044356
 10
25.232943151472142
 20
1.0916974132560213
 10
25.23450033641342
 20
1.0935948484159184
 10
25.23680073124973
 20
1.0964691005095375
 10
25.23902989561222
 20
1.0993989414174337
 10
25.38751615525598
 20
1.2996094549659247
 10
25.389672746590122
 20
1.302593120160573
 10
25.39175546562356
 20
1.3056288121087363
 10
25.39311917122592
 20
1.3076697413478655
 10
25.395126763211266
 20
1.3107556311537252
 10
25.39705801906294
 20
1.3138898602948288
 10
25.52520522530034
 20
1.527690497738746
 10
25.52705898188347
 20
1.5308711785928608
 10
25.52883412236983
 20
1.5340963949296125
 10
25.529991215416118
 20
1.5362611630034166
 10
25.531686670364763
 20
1.5395289717496254
 10
25.53330141867758
 20
1.5428374048184565
 10
25.639875445096976
 20
1.7681691512072177
 10
25.641408514258586
 20
1.7715162160573499
 10
25.642858980642558
 20
1.7748998962186775
 10
25.64379831770495
 20
1.7771676552474318
 10
25.64516530747437
 20
1.7805859121796814
 10
25.64644799735413
 20
1.7840366871878288
 10
25.730422478850073
 20
2.0187294767988178
 10
25.73162009631119
 20
2.0222106916141627
 10
25.732731919822925
 20
2.025720248944168
 10
25.733444454581104
 20
2.0280691591905864
 10
25.734469814325365
 20
2.0316049446579143
 10
25.735408092779437
 20
2.0351648287878703
 10
25.795974310000304
 20
2.276958444026171
 10
25.796824942060738
 20
2.2805402828354744
 10
25.797587415241935
 20
2.2841419184092118
 10
25.79806628560368
 20
2.2865493586059884
 10
25.798740140558778
 20
2.290168621098708
 10
25.79932497146254
 20
2.2938033307577683
 10
25.835899639211476
 20
2.540369169261389
 10
25.836395093828457
 20
2.544017137036114
 10
25.836800873653544
 20
2.54767616517163
 10
25.837041467840265
 20
2.550118950378085
 10
25.837357328420353
 20
2.5537868344521613
 10
25.837583079537524
 20
2.557461365431749
 10
25.849813964123456
 20
2.8064248657695856
 10
25.849949470522887
 20
2.8101038599540047
 10
25.849979599635077
 20
2.8113311746857335
 10
25.850024777506235
 20
2.8150123863309844
 10
25.85002477750021
 20
15.515012381421087
 10
25.84997959962905
 20
15.518693593066217
 10
25.84994947051686
 20
15.519920907797939
 10
25.84981396411709
 20
15.523599901989584
 10
25.837583079519163
 20
15.772563402325787
 10
25.837357328375106
 20
15.776237933667211
 10
25.837041467750396
 20
15.779905818101582
 10
25.83680087355168
 20
15.782348603307454
 10
25.83639509375314
 20
15.786007631080892
 10
25.835899639180383
 20
15.7896555984955
 10
25.79932497141948
 20
16.03622143699755
 10
25.798740140453077
 20
16.039856147016643
 10
25.79806628541769
 20
16.043475409866105
 10
25.797587415043807
 20
16.04588285006198
 10
25.796824941924967
 20
16.049484485275407
 10
25.795974309944427
 20
16.053066323728103
 10
25.73540809271219
 20
16.29485993896214
 10
25.73446981416049
 20
16.29841982344417
 10
25.733444454301406
 20
16.301955609258563
 10
25.732731919531517
 20
16.304304519501983
 10
25.731620096117126
 20
16.30781407647961
 10
25.730422478770436
 20
16.311295290947996
 10
25.64644799726338
 20
16.54598808055421
 10
25.64516530725183
 20
16.54943885590349
 10
25.64379831733396
 20
16.552857113170198
 10
25.64285898026
 20
16.555124872195293
 10
25.641408514007566
 20
16.558508552015162
 10
25.639875444993976
 20
16.5618556165309
 10
25.533301418563553
 20
16.7871873629147
 10
25.53168667008677
 20
16.790495796308896
 10
25.5299912149583
 20
16.793763605372234
 10
25.52883412190198
 20
16.79592837343926
 10
25.52705898157936
 20
16.799153589450285
 10
25.525205225175654
 20
16.8023342699873
 10
25.397058018927538
 20
17.01613490742556
 10
25.39512676288095
 20
17.019269136874144
 10
25.393119170685708
 20
17.02235502697772
 10
25.391755465073743
 20
17.024395956209567
 10
25.389672746235078
 20
17.02743164784986
 10
25.387516155110404
 20
17.03041531274674
 10
25.239029895457833
 20
17.230625826286953
 10
25.23680073087192
 20
17.23355566748088
 10
25.23450033579826
 20
17.236429919849392
 10
25.232943150846722
 20
17.23832735500288
 10
25.230572911195196
 20
17.24114428692814
 10
25.22813425448274
 20
17.243902201886208
 10
25.060738943843404
 20
17.428594456769645
 10
25.058233338772425
 20
17.43129169376175
 10
25.055662294862685
 20
17.433926627798378
 10
25.053926627101248
 20
17.435662295551317
 10
25.051291693315335
 20
17.438233339197474
 10
25.048594456586443
 20
17.440738944017617
 10
24.863902201694884
 20
17.608134254648036
 10
24.861144286460217
 20
17.610572911598858
 10
24.858327354246796
 20
17.612943151475008
 10
24.85642991908631
 20
17.614500336416675
 10
24.853555666994367
 20
17.61680073125155
 10
24.85062582608819
 20
17.61902989561269
 10
24.650415312540474
 20
17.767516155255862
 10
24.647431647346934
 20
17.76967274658925
 10
24.644395955399887
 20
17.771755465621958
 10
24.642355026161027
 20
17.773119171224188
 10
24.639269136354102
 20
17.77512676321031
 10
24.63613490721187
 20
17.77705801906267
 10
24.422334269767646
 20
17.905205225300293
 10
24.41915358891339
 20
17.90705898188351
 10
24.415928372576502
 20
17.90883412236996
 10
24.41376360450326
 20
17.909991215415943
 10
24.410495795757186
 20
17.91168667036449
 10
24.407187362688518
 20
17.91330141867723
 10
24.181855616299487
 20
18.019875445096808
 10
24.178508551449426
 20
18.021408514258383
 10
24.175124871288148
 20
18.022858980642354
 10
24.172857112259692
 20
18.023798317704625
 10
24.16943885532737
 20
18.02516530747406
 10
24.165988080319153
 20
18.026447997353856
 10
23.93129529070785
 20
18.110422478849934
 10
23.927814075893366
 20
18.11162009631078
 10
23.92430451856424
 20
18.11273191982226
 10
23.921955608317177
 20
18.113444454580666
 10
23.91841982284899
 20
18.11446981432521
 10
23.914859938718166
 20
18.115408092779525
 10
23.673066323480896
 20
18.17597431000017
 10
23.669484484670562
 20
18.176824942060847
 10
23.665882849095794
 20
18.177587415242215
 10
23.663475408898165
 20
18.178066285604096
 10
23.65985614640647
 20
18.178740140558958
 10
23.65622143674844
 20
18.179324971462542
 10
23.40965559824471
 20
18.215899639211507
 10
23.406007630469645
 20
18.216395093828524
 10
23.402348602333774
 20
18.21680087365364
 10
23.399905817127348
 20
18.217041467840346
 10
23.396237933053612
 20
18.21735732842039
 10
23.39256340207436
 20
18.217583079537555
 10
23.14359990173699
 20
18.229813964123473
 10
23.13992090755363
 20
18.229949470522882
 10
23.138693592821966
 20
18.22997959963508
 10
23.13501238117567
 20
18.23002477750626
 10
2.8150123860854137
 20
18.23002477750024
 10
2.811331174439303
 20
18.22997959962906
 10
2.81010385970761
 20
18.229949470516864
 10
2.806424865516931
 20
18.2298139641171
 10
2.557461365180231
 20
18.217583079519166
 10
2.553786833837904
 20
18.217357328375037
 10
2.550118949402645
 20
18.217041467750228
 10
2.547676164197071
 20
18.216800873551513
 10
2.5440171364245288
 20
18.21639509375303
 10
2.540369169010802
 20
18.215899639180407
 10
2.293803330508979
 20
18.179324971419547
 10
2.2901686204919116
 20
18.178740140453478
 10
2.2865493576444607
 20
18.178066285418552
 10
2.2841419174488493
 20
18.17758741504479
 10
2.280540282233389
 20
18.176824941925595
 10
2.2769584437786676
 20
18.175974309944593
 10
2.0351648285443957
 20
18.115408092712272
 10
2.03160494406211
 20
18.114469814160515
 10
2.0280691582474475
 20
18.113444454301323
 10
2.025720248004177
 20
18.11273191953147
 10
2.022210691026828
 20
18.111620096117164
 10
2.0187294765587325
 20
18.11042247877056
 10
1.7840366869518078
 20
18.026447997263276
 10
1.7805859116039642
 20
18.02516530725228
 10
1.7771676543386548
 20
18.02379831733505
 10
1.7748998953144053
 20
18.022858980261496
 10
1.7715162154930937
 20
18.021408514008485
 10
1.7681691509759503
 20
18.01987544499429
 10
1.5428374045923618
 20
17.91330141856399
 10
1.5395289711983366
 20
17.911686670087292
 10
1.536261162135176
 20
17.909991214958907
 10
1.5340963940674186
 20
17.908834121902203
 10
1.5308711780562163
 20
17.907058981579496
 10
1.5276904975190462
 20
17.905205225175706
 10
1.3138898600812325
 20
17.77705801892791
 10
1.3107556306312915
 20
17.775126762880475
 10
1.307669740526407
 20
17.773119170684303
 10
1.3056288112936443
 20
17.771755465071664
 10
1.3025931196546878
 20
17.769672746233844
 10
1.299609454759107
 20
17.76751615511008
 10
1.0993989412186949
 20
17.619029895457317
 10
1.0964691000257432
 20
17.61680073087215
 10
1.0935948476581672
 20
17.6145003357993
 10
1.0916974125055248
 20
17.61294315084851
 10
1.0888804805793058
 20
17.61057291119625
 10
1.0861225656203004
 20
17.608134254483005
 10
0.9014303107369983
 20
17.440738943843833
 10
0.8987330737443386
 20
17.438233338772314
 10
0.8960981397071635
 20
17.435662294862
 10
0.8943624719536842
 20
17.433926627099986
 10
0.8917914283080961
 20
17.43129169331462
 10
0.8892858234884784
 20
17.428594456586275
 10
0.7218905128580957
 20
17.243902201694766
 10
0.7194518559069252
 20
17.24114428645968
 10
0.7170816160304412
 20
17.238327354245847
 10
0.7155244310889657
 20
17.236429919085566
 10
0.7132240362544451
 20
17.23355566699402
 10
0.7109948718936323
 20
17.23062582608828
 10
0.562508612250582
 20
17.03041531254072
 10
0.5603520209176054
 20
17.02743164734774
 10
0.5582693018852751
 20
17.024395955401303
 10
0.5569055962827179
 20
17.022355026161996
 10
0.5548980042961915
 20
17.01926913635448
 10
0.5529667484434384
 20
17.01613490721165
 10
0.42481954220602347
 20
16.802334269767748
 10
0.42296578562287834
 20
16.79915358891362
 10
0.42119064513649107
 20
16.795928372576853
 10
0.420033552090473
 20
16.793763604503553
 10
0.41833809714185577
 20
16.79049579575736
 10
0.41672334882905204
 20
16.78718736268855
 10
0.3101493224094014
 20
16.56185561629931
 10
0.3086162532478056
 20
16.558508551449208
 10
0.307165786863834
 20
16.55512487128791
 10
0.30622644980140024
 20
16.552857112259055
 10
0.3048594600319774
 20
16.549438855326777
 10
0.30357677015220474
 20
16.5459880803186
 10
0.21960228865627585
 20
16.311295290707726
 10
0.2184046711953158
 20
16.30781407589292
 10
0.21729284768375123
 20
16.30430451856347
 10
0.21658031292547264
 20
16.30195560831679
 10
0.21555495318102658
 20
16.298419822848928
 10
0.21461667472681256
 20
16.294859938718425
 10
0.15405045750611635
 20
16.053066323481026
 10
0.1531998254454976
 20
16.04948448467095
 10
0.15243735226417243
 20
16.045882849096422
 10
0.1519584819022981
 20
16.04347540889887
 10
0.15128462694737266
 20
16.03985614640692
 10
0.15069979604373884
 20
16.036221436748633
 10
0.1141251282947735
 20
15.789655598244927
 10
0.1136296736777922
 20
15.786007630470095
 10
0.11322389385270526
 20
15.78234860233448
 10
0.1129832996659701
 20
15.779905817127847
 10
0.11266743908588239
 20
15.776237933053878
 10
0.11244168796871179
 20
15.772563402074383
 10
0.10021080338277955
 20
15.523599901736532
 10
0.10007529698333428
 20
15.519920907552134
 10
0.10004516787114426
 20
15.518693592820412
 10
0.0999999900000006
 20
15.51501238117514
 10
0.099999990006026
 20
2.8150123860853213
 10
0.10004516707127209
 20
2.811331207268701
 10
0.10006776373755599
 20
2.8107177030625863
  0
LWPOLYLINE
  5
30
330
17
100
AcDbEntity
  8
0
100
AcDbPolyline
 90
394
 70
0
 10
0.05008282813487597
 20
2.809490633274031
 10
0.05009036220947394
 20
2.808876751298243
 10
0.050271036478463316
 20
2.803971463612122
 10
0.0625019210763611
 20
2.5550079632759264
 10
0.0628029226006106
 20
2.5501085881731314
 10
0.0632240700986273
 20
2.545218075613036
 10
0.06346466429738484
 20
2.5427752904070573
 10
0.06400570402642813
 20
2.537896586730774
 10
0.06466631012050073
 20
2.5330326301995214
 10
0.1012409778814316
 20
2.286466791697272
 10
0.10202075249954135
 20
2.2816205116950883
 10
0.10291922587560975
 20
2.2767948279189625
 10
0.1033980962491512
 20
2.27438738772441
 10
0.10441472707057642
 20
2.269585207456757
 10
0.1055489030406136
 20
2.2648094228700018
 10
0.16611512027317588
 20
2.023015807634785
 10
0.16736615833666235
 20
2.0182692950125656
 10
0.16873330480954962
 20
2.013554913947054
 10
0.1694458395791827
 20
2.011206003704416
 10
0.17092827079237338
 20
2.006526594419711
 10
0.17252509391488502
 20
2.0018849751471848
 10
0.2564995754224242
 20
1.7671921855396064
 10
0.25820982876351195
 20
1.7625911517610788
 10
0.2600324819791382
 20
1.7580334754257692
 10
0.2609718190525143
 20
1.7557657164019886
 10
0.26290577404824944
 20
1.7512541433262996
 10
0.26494986605840154
 20
1.746791390655936
 10
0.3715238924886961
 20
1.5214596442723547
 10
0.37367689044857855
 20
1.5170483997655069
 10
0.3759374972769365
 20
1.5126913210329036
 10
0.3770945903338685
 20
1.5105265529647127
 10
0.37946144408768134
 20
1.506226264967566
 10
0.3819331192825075
 20
1.5019853576022086
 10
0.5100803255300548
 20
1.288184720164793
 10
0.5126553335832114
 20
1.2840057475812756
 10
0.5153321231676529
 20
1.2798912274575756
 10
0.5166958287803851
 20
1.2778502982247275
 10
0.5194727872186036
 20
1.2738027093906794
 10
0.5223482420375944
 20
1.269824489547453
 10
0.670834501690436
 20
1.0696139760069059
 10
0.6738067211251035
 20
1.0657075210990499
 10
0.6768739145429521
 20
1.061875184624732
 10
0.6784310994937215
 20
1.0599777494721252
 10
0.6815914190167547
 20
1.0562218402530021
 10
0.684842961287373
 20
1.0525446203231752
 10
0.8522382719265664
 20
0.867852365439866
 10
0.8555790786739692
 20
0.864256049465375
 10
0.859007137206035
 20
0.860742804097832
 10
0.8607428049677708
 20
0.8590071363445944
 10
0.8642560500009893
 20
0.8555790781640056
 10
0.8678523656245432
 20
0.8522382717510695
 10
1.052544620516045
 20
0.684842961120701
 10
1.0562218408139898
 20
0.6815914185328396
 10
1.0599777504165928
 20
0.6784310987108384
 10
1.0618751855769943
 20
0.6768739137692563
 10
1.0657075216832652
 20
0.6738067206691838
 10
1.06961397620816
 20
0.6708345015336832
 10
1.2698244897559192
 20
0.5223482418904695
 10
1.2738027099971703
 20
0.5194727867914395
 10
1.2778502992427576
 20
0.5166958280928924
 10
1.2798912284819863
 20
0.5153321224904062
 10
1.2840057482076759
 20
0.512655333186558
 10
1.2881847203801584
 20
0.5100803253939716
 10
1.5019853578238838
 20
0.3819331191566562
 10
1.506226265611403
 20
0.37946144372293844
 10
1.5105265540421868
 20
0.37709458975111687
 10
1.5126913221158134
 20
0.37593749670491405
 10
1.5170484004262192
 20
0.3736768901159877
 10
1.521459644499913
 20
0.3715238923743982
 10
1.746791390888859
 20
0.26494986595487546
 10
1.7512541440043492
 20
0.26290577374766855
 10
1.7557657175345867
 20
0.2609718185768415
 10
1.7580334765633978
 20
0.26003248151444325
 10
1.7625911524534956
 20
0.25820982849641183
 10
1.7671921857779438
 20
0.25649957533074286
 10
2.0018849753889327
 20
0.17252509383477843
 10
2.006526595122267
 20
0.1709282705602888
 10
2.011206004874964
 20
0.16944583921782197
 10
2.013554915121844
 20
0.16873330445947232
 10
2.0182692957264123
 20
0.16736615813911726
 10
2.023015807881052
 20
0.1661151202052551
 10
2.2648094231183364
 20
0.10554890298460862
 10
2.26958520817837
 20
0.10441472690854425
 10
2.274387388924225
 20
0.10339809600437633
 10
2.276794829121826
 20
0.10291922564248779
 10
2.2816205124244817
 20
0.10202075237297237
 10
2.2864667919488397
 20
0.10124097783801744
 10
2.533032630452439
 20
0.06466631008905921
 10
2.5378965874657666
 20
0.06400570393576999
 10
2.5427752916267394
 20
0.06346466417119956
 10
2.5452180768334927
 20
0.06322406998446439
 10
2.5501085889112716
 20
0.06280292254617592
 10
2.5550079635296896
 20
0.0625019210578941
 10
2.8039714638669153
 20
0.050271036471983166
 10
2.8088767894245166
 20
0.050090361273518624
 10
2.8101041041562382
 20
0.050060232161321494
 10
2.815012386330608
 20
0.0499999950000003
 10
23.135012381420864
 20
0.049999995006018594
 10
23.13992066359512
 20
0.05006023216733979
 10
23.141147978326842
 20
0.05009036127953692
 10
23.146053303894092
 20
0.05027103647847753
 10
23.395016804230693
 20
0.06250192107641084
 10
23.399916179333843
 20
0.06280292260068876
 10
23.404806691894294
 20
0.06322407009873388
 10
23.40724947710018
 20
0.06346466429749142
 10
23.412128180776108
 20
0.0640057040265205
 10
23.416992137307005
 20
0.06466631012054336
 10
23.663557975808658
 20
0.10124097788138897
 10
23.66840425581111
 20
0.10202075249954135
 10
23.673229939587486
 20
0.1029192258756737
 10
23.675637379783183
 20
0.10339809624944962
 10
23.680439560050587
 20
0.10441472707082511
 10
23.685215344637072
 20
0.10554890304079834
 10
23.92700895987113
 20
0.1661151202730693
 10
23.931755472493933
 20
0.1673661583367334
 10
23.93646985356
 20
0.1687333048097983
 10
23.938818763802914
 20
0.16944583957953085
 10
23.943498173087022
 20
0.17092827079255812
 10
23.948139792358972
 20
0.1725250939148708
 10
24.182832581966352
 20
0.2564995754223034
 10
24.187433615744112
 20
0.25820982876309984
 10
24.191991292078683
 20
0.26003248197839923
 10
24.194259051102705
 20
0.2609718190518535
 10
24.19877062417919
 20
0.26290577404787996
 10
24.203233376850307
 20
0.2649498660583731
 10
24.428565123234023
 20
0.37152389248873874
 10
24.432976367740537
 20
0.37367689044847197
 10
24.43733344647282
 20
0.37593749727663806
 10
24.43949821454038
 20
0.3770945903332219
 10
24.443798502537845
 20
0.37946144408719107
 10
24.448039409903515
 20
0.3819331192822162
 10
24.661840047341826
 20
0.5100803255303177
 10
24.666019019924903
 20
0.5126553335831758
 10
24.67013354004814
 20
0.5153321231673047
 10
24.672174469280492
 20
0.5166958287796888
 10
24.676222058115002
 20
0.5194727872181915
 10
24.680200277958676
 20
0.5223482420375092
 10
24.88041079149957
 20
0.6708345016906279
 10
24.88431724640745
 20
0.6738067211253096
 10
24.888149582881795
 20
0.6768739145431724
 10
24.89004701803401
 20
0.678431099493622
 10
24.89380292725312
 20
0.6815914190166339
 10
24.897480147182904
 20
0.684842961287238
 10
25.082172402066277
 20
0.8522382719264883
 10
25.08576871804152
 20
0.8555790786745874
 10
25.089281963409775
 20
0.8590071372073922
 10
25.091017631163567
 20
0.8607428049697177
 10
25.094445689343416
 20
0.8642560500022469
 10
25.097786495755656
 20
0.8678523656250619
 10
25.265181806385556
 20
1.0525446205160947
 10
25.268433348971172
 20
1.056221840811446
 10
25.27159366879107
 20
1.059977750411342
 10
25.273150853732346
 20
1.061875185571239
 10
25.27621804683463
 20
1.0657075216801033
 10
25.279190265972233
 20
1.069613976207684
 10
25.427676525615993
 20
1.269824489756175
 10
25.430551980716217
 20
1.2738027099991314
 10
25.4333289394159
 20
1.2778502992464809
 10
25.43469264501826
 20
1.27989122848561
 10
25.437369434320914
 20
1.2840057482096157
 10
25.43994444211239
 20
1.2881847203803432
 10
25.568091648349792
 20
1.5019853578242603
 10
25.57056332378366
 20
1.506226265612078
 10
25.572930177755637
 20
1.5105265540431603
 10
25.574087270801925
 20
1.5126913221169644
 10
25.576347877390674
 20
1.517048400427086
 10
25.578500875132136
 20
1.5214596445004815
 10
25.68507490155153
 20
1.7467913908892427
 10
25.687118993758475
 20
1.7512541440041574
 10
25.68905294892906
 20
1.755765717533798
 10
25.68999228599145
 20
1.7580334765625523
 10
25.69181493900973
 20
1.7625911524532185
 10
25.693525192175628
 20
1.7671921857782493
 10
25.77749967367157
 20
2.0018849753892383
 10
25.779096496946437
 20
2.006526595123688
 10
25.78057892828923
 20
2.011206004877529
 10
25.78129146304741
 20
2.0135549151239474
 10
25.782658609367388
 20
2.018269295727407
 10
25.78390964730093
 20
2.0230158078809097
 10
25.844475864521797
 20
2.2648094231192104
 10
25.845610040597677
 20
2.269585208178377
 10
25.846626671501696
 20
2.2743873889233583
 10
25.847105541863442
 20
2.276794829120135
 10
25.848004015133142
 20
2.2816205124236504
 10
25.84878378966826
 20
2.2864667919488753
 10
25.885358457417198
 20
2.533032630452496
 10
25.886019063570387
 20
2.537896587465198
 10
25.886560103334915
 20
2.542775291625553
 10
25.886800697521636
 20
2.5452180768320076
 10
25.88722184496001
 20
2.5501085889103976
 10
25.88752284644835
 20
2.555007963529441
 10
25.89975373103428
 20
2.8039714638672777
 10
25.899934406232774
 20
2.8088767894260585
 10
25.899964535344964
 20
2.810104104157787
 10
25.900024772506242
 20
2.8150123863310057
 10
25.900024772500217
 20
15.515012381421109
 10
25.89996453533894
 20
15.51992066359417
 10
25.89993440622675
 20
15.521147978325892
 10
25.899753731027772
 20
15.526053303894308
 10
25.887522846429846
 20
15.77501680423051
 10
25.887221844905696
 20
15.779916179331998
 10
25.886800697407836
 20
15.784806691890786
 10
25.88656010320912
 20
15.787249477096658
 10
25.886019063479978
 20
15.792128180774242
 10
25.885358457385763
 20
15.796992137306788
 10
25.84878378962486
 20
16.043557975808838
 10
25.84800401500621
 20
16.0484042558141
 10
25.847105541629446
 20
16.053229939593272
 10
25.846626671255564
 20
16.055637379789147
 10
25.84561004043468
 20
16.06043956005371
 10
25.844475864465323
 20
16.06521534463741
 10
25.783909647233088
 20
16.307008959871446
 10
25.782658609169403
 20
16.311755472494376
 10
25.781291462696288
 20
16.31646985356059
 10
25.7805789279264
 20
16.31881876380401
 10
25.779096496713407
 20
16.323498173088012
 10
25.777499673591137
 20
16.32813979235985
 10
25.69352519208408
 20
16.562832581966063
 10
25.691814938742453
 20
16.567433615745934
 10
25.689992285526245
 20
16.571991292082558
 10
25.689052948452286
 20
16.574259051107653
 10
25.68711899345709
 20
16.578770624182013
 10
25.685074901447507
 20
16.58323337685107
 10
25.578500875017085
 20
16.80856512323487
 10
25.576347877057003
 20
16.81297636774209
 10
25.574087270228432
 20
16.817333446475047
 10
25.57293017717211
 20
16.819498214542072
 10
25.570563323418497
 20
16.823798502538864
 10
25.568091648223856
 20
16.828039409903866
 10
25.43994444197574
 20
17.041840047342127
 10
25.437369433924374
 20
17.04601901992283
 10
25.43469264434185
 20
17.050133540043795
 10
25.433328938729886
 20
17.05217446927564
 10
25.43055198028989
 20
17.056222058112496
 10
25.427676525468996
 20
17.060200277958423
 10
25.279190265816425
 20
17.260410791498636
 10
25.276218046380905
 20
17.264317246407593
 10
25.273150852962146
 20
17.268149582882977
 10
25.27159366801061
 20
17.270047018036465
 10
25.26843334848843
 20
17.273802927254494
 10
25.265181806218692
 20
17.27748014718326
 10
25.097786495579356
 20
17.4621724020667
 10
25.094445688831968
 20
17.465768718041197
 10
25.091017630299916
 20
17.469281963408726
 10
25.08928196253848
 20
17.471017631161665
 10
25.08576871750526
 20
17.474445689342254
 10
25.082172401881706
 20
17.47778649575519
 10
24.897480146990148
 20
17.645181806385608
 10
24.893802926692587
 20
17.64843334897315
 10
24.890047017090353
 20
17.65159366879486
 10
24.888149581929866
 20
17.653150853736527
 10
24.884317245823212
 20
17.656218046836912
 10
24.880410791297948
 20
17.65919026597271
 10
24.68020027775023
 20
17.807676525615882
 10
24.67622205750874
 20
17.81055198071509
 10
24.67217446826288
 20
17.813328939413793
 10
24.67013353902402
 20
17.814692645016024
 10
24.666019019298574
 20
17.8173694343197
 10
24.66184004712636
 20
17.819944442112124
 10
24.44803940968214
 20
17.948091648349745
 10
24.44379850189415
 20
17.950563323783726
 10
24.439498213462883
 20
17.952930177755803
 10
24.43733344538964
 20
17.954087270801786
 10
24.432976367079704
 20
17.956347877390428
 10
24.428565123006507
 20
17.958500875131783
 10
24.203233376617476
 20
18.065074901551363
 10
24.19877062350264
 20
18.067118993758278
 10
24.194259049973056
 20
18.069052948928842
 10
24.1919912909446
 20
18.069992285991113
 10
24.187433615053862
 20
18.071814939009435
 10
24.182832581728746
 20
18.073525192175367
 10
23.948139792117445
 20
18.157499673671445
 10
23.943498172384125
 20
18.15909649694592
 10
23.938818762631456
 20
18.16057892828838
 10
23.93646985238439
 20
18.161291463046787
 10
23.93175547177978
 20
18.162658609367163
 10
23.927008959625113
 20
18.163909647301026
 10
23.685215344387842
 20
18.224475864521672
 10
23.68043955932731
 20
18.22561004059785
 10
23.675637378580973
 20
18.226626671502103
 10
23.673229938383344
 20
18.227105541863985
 10
23.668404255081185
 20
18.228004015133386
 10
23.663557975557325
 20
18.228783789668256
 10
23.416992137053597
 20
18.26535845741722
 10
23.41212818004044
 20
18.26601906357049
 10
23.40724947587961
 20
18.266560103335053
 10
23.404806690673183
 20
18.26680069752176
 10
23.399916178595248
 20
18.267221844960062
 10
23.395016803976688
 20
18.267522846448358
 10
23.14605330363932
 20
18.279753731034276
 10
23.141147978081932
 20
18.27993440623274
 10
23.139920663350267
 20
18.279964535344938
 10
23.13501238117567
 20
18.28002477250626
 10
2.8150123860853995
 20
18.28002477250024
 10
2.81010410391103
 20
18.27996453533892
 10
2.8088767891793367
 20
18.279934406226722
 10
2.8039714636122
 20
18.279753731027782
 10
2.5550079632755
 20
18.26752284642985
 10
2.5501085881728187
 20
18.267221844905606
 10
2.5452180756128513
 20
18.266800697407618
 10
2.5427752904072776
 20
18.266560103208903
 10
2.5378965867308807
 20
18.266019063479845
 10
2.5330326301995285
 20
18.26535845738576
 10
2.2864667916977055
 20
18.2287837896249
 10
2.281620511695124
 20
18.228004015006725
 10
2.2767948279186214
 20
18.22710554163057
 10
2.27438738772301
 20
18.22662667125681
 10
2.2695852074557337
 20
18.22561004043545
 10
2.2648094228693623
 20
18.224475864465504
 10
2.0230158076350904
 20
18.163909647233183
 10
2.0182692950118053
 20
18.16265860916939
 10
2.013554913945242
 20
18.161291462696163
 10
2.0112060037019717
 20
18.16057892792631
 10
2.0065265944183466
 20
18.159096496713417
 10
2.0018849751468792
 20
18.157499673591253
 10
1.7671921855399546
 20
18.07352519208397
 10
1.7625911517619954
 20
18.07181493874311
 10
1.7580334754272542
 20
18.069992285527732
 10
1.7557657164030047
 20
18.06905294845418
 10
1.7512541433267188
 20
18.067118993458223
 10
1.7467913906557868
 20
18.065074901447808
 10
1.5214596442721984
 20
17.958500875017506
 10
1.5170483997652155
 20
17.956347877057546
 10
1.5126913210324773
 20
17.954087270229117
 10
1.5105265529647198
 20
17.952930177172412
 10
1.506226264967708
 20
17.950563323418677
 10
1.5019853576024929
 20
17.948091648223915
 10
1.2881847201646792
 20
17.81994444197612
 10
1.284005747582171
 20
17.81736943392361
 10
1.2798912274594585
 20
17.814692644339864
 10
1.2778502982266957
 20
17.813328938727224
 10
1.2738027093916173
 20
17.81055198028836
 10
1.2698244895474176
 20
17.807676525468665
 10
1.0696139760070054
 20
17.6591902658159
 10
1.0657075210993412
 20
17.656218046381397
 10
1.0618751846252223
 20
17.653150852963705
 10
1.05997774947258
 20
17.651593668012914
 10
1.056221840253258
 20
17.648433348489746
 10
1.0525446203232605
 20
17.645181806218957
 10
0.8678523654399584
 20
17.477786495579785
 10
0.8642560494647142
 20
17.474445688831686
 10
0.8607428040964606
 20
17.471017630298874
 10
0.8590071363429814
 20
17.46928196253686
 10
0.8555790781631458
 20
17.465768717504346
 10
0.852238271750906
 20
17.46217240188154
 10
0.6848429611205233
 20
17.27748014699003
 10
0.6815914185325056
 20
17.273802926691907
 10
0.6784310987103623
 20
17.270047017089112
 10
0.6768739137688868
 20
17.26814958192883
 10
0.6738067206689635
 20
17.26431724582274
 10
0.670834501533605
 20
17.26041079129802
 10
0.5223482418905547
 20
17.06020027775046
 10
0.5194727867918942
 20
17.056222057509736
 10
0.5166958280936882
 20
17.05217446826469
 10
0.5153321224911309
 20
17.05013353902538
 10
0.5126553331869133
 20
17.046019019299166
 10
0.5100803253939858
 20
17.041840047126144
 10
0.3819331191565709
 20
16.82803940968224
 10
0.37946144372267554
 20
16.82379850189441
 10
0.37709458975069765
 20
16.819498213463305
 10
0.3759374967046796
 20
16.817333445390005
 10
0.37367689011593086
 20
16.812976367079905
 10
0.3715238923744977
 20
16.80856512300653
 10
0.26494986595484704
 20
16.583233376617294
 10
0.26290577374791724
 20
16.578770623502415
 10
0.26097181857733176
 20
16.574259049972817
 10
0.260032481514898
 20
16.571991290943963
 10
0.2582098284966037
 20
16.567433615053254
 10
0.2564995753306931
 20
16.562832581728188
 10
0.17252509383476422
 20
16.328139792117312
 10
0.1709282705601396
 20
16.32349817238358
 10
0.16944583921755907
 20
16.31881876263047
 10
0.16873330445928048
 20
16.31646985238379
 10
0.16736615813906042
 20
16.31175547177962
 10
0.16611512020530483
 20
16.3070089596254
 10
0.10554890298460862
 20
16.065215344388
 10
0.10441472690850162
 20
16.06043955932779
 10
0.10339809600431238
 20
16.055637378581757
 10
0.10291922564243805
 20
16.053229938384206
 10
0.10202075237295105
 20
16.04840425508172
 10
0.10124097783803165
 20
16.043557975557533
 10
0.06466631008906631
 20
15.796992137053827
 10
0.06400570393583394
 20
15.79212818004099
 10
0.06346466417130614
 20
15.787249475880493
 10
0.06322406998457097
 20
15.78480669067386
 10
0.06280292254622566
 20
15.779916178595606
 10
0.0625019210579012
 20
15.77501680397669
 10
0.050271036471968955
 20
15.52605330363884
 10
0.05009036127347599
 20
15.521147978080087
 10
0.05006023216128597
 20
15.519920663348366
 10
0.04999999499999319
 20
15.515012381175119
 10
0.049999995006018594
 20
2.8150123860853
 10
0.05006023109278601
 20
2.810104147683589
 10
0.05008282813487597
 20
2.809490633274031
  0
LWPOLYLINE
  5
31
330
17
100
AcDbEntity
  8
0
100
AcDbPolyline
 90
394
 70
0
 10
9.78925321959423e-05
 20
2.8082635634855677
 10
0.0001054267320910185
 20
2.8076496712997283
 10
0.0003312695677806232
 20
2.801518061707398
 10
0.012562154165678407
 20
2.5525545613712026
 10
0.012938406070048813
 20
2.5464303425080246
 10
0.013464840441244519
 20
2.5403172018231928
 10
0.013705434640002068
 20
2.537874416617214
 10
0.014381734299618643
 20
2.5317760370370976
 10
0.015207491915148807
 20
2.525696091388234
 10
0.051782159676079687
 20
2.2791302528859845
 10
0.05275687794626549
 20
2.2730724028984
 10
0.053879969663555016
 20
2.2670402981933293
 10
0.054358840037096456
 20
2.2646328579987767
 10
0.055629628560694755
 20
2.2586301326792153
 10
0.05704734851968851
 20
2.2526604019606893
 10
0.11761356575225079
 20
2.0108667867254724
 10
0.11917736332772222
 20
2.004933645962538
 10
0.12088629641455384
 20
1.9990406696453746
 10
0.1215988311841869
 20
1.9966917594027365
 10
0.12345187019603543
 20
1.990842497811478
 10
0.1254478990941834
 20
1.9850404737353315
 10
0.20942238060172258
 20
1.7503476841277532
 10
0.2115601972727319
 20
1.744596391918968
 10
0.2138385137865697
 20
1.7388992965140702
 10
0.21477785085994583
 20
1.7366315374902896
 10
0.217195294598568
 20
1.7309920711597755
 10
0.21975040960488457
 20
1.7254136303357654
 10
0.32632443603517913
 20
1.5000818839521841
 10
0.32901568347831756
 20
1.494567828332407
 10
0.3318414420066915
 20
1.4891214799302759
 10
0.33299853506362354
 20
1.486956711862085
 10
0.33595710224848574
 20
1.4815813518790861
 10
0.3390466962343055
 20
1.4762802176856482
 10
0.4671939024818528
 20
1.2624795802482325
 10
0.47041266254025516
 20
1.257255864531885
 10
0.4737586495124333
 20
1.2521127143901296
 10
0.47512235512516554
 20
1.2500717851572816
 10
0.47859355316425933
 20
1.2450122991273602
 10
0.48218787167901667
 20
1.2400395243357636
 10
0.6306741313318582
 20
1.0398290107952164
 10
0.6343894056159058
 20
1.0349459421726053
 10
0.6382233973786242
 20
1.0301555215916807
 10
0.6397805823293936
 20
1.0282580864390738
 10
0.6437309817233086
 20
1.0235631999269046
 10
0.6477954095514207
 20
1.018966675026121
 10
0.8151907201906141
 20
0.8342744201428118
 10
0.8193667286144262
 20
0.8297790251859354
 10
0.8236518017687899
 20
0.8253874684874845
 10
0.8253874695305257
 20
0.8236518007342468
 10
0.829779025811078
 20
0.8193667280192258
 10
0.8342744203292796
 20
0.81519072001349
 10
1.0189666752207813
 20
0.6477954093831215
 10
1.0235632005817195
 20
0.6437309811584626
 10
1.028258087573235
 20
0.6397805813908306
 10
1.0301555227336365
 20
0.6382233964492485
 10
1.0349459428544918
 20
0.634389405083752
 10
1.0398290109984032
 20
0.630674131173663
 10
1.2400395245461624
 20
0.4821878715304493
 10
1.2450122998353095
 20
0.4785935526656431
 10
1.2500717863796496
 20
0.4751223543011349
 10
1.2521127156188783
 20
0.4737586486986487
 10
1.257255865263133
 20
0.47041266207720867
 10
1.2624795804656657
 20
0.4671939023445191
 10
1.476280217909391
 20
0.3390466961072036
 10
1.481581352630542
 20
0.3359571018227854
 10
1.4869567131555783
 20
0.3329985343654016
 10
1.4891214812292048
 20
0.3318414413191988
 10
1.494567829103616
 20
0.3290156830901054
 10
1.500081884181938
 20
0.32632443591984384
 10
1.725413630570884
 20
0.2197504095003211
 10
1.7309920719513059
 20
0.2171952942476949
 10
1.7366315388499913
 20
0.21477785029021135
 10
1.7388992978788025
 20
0.2138385132278131
 10
1.744596392727189
 20
0.21156019696097417
 10
1.7503476843683643
 20
0.20942238050923123
 10
1.9850404739793532
 20
0.1254478990132668
 10
1.9908424986315083
 20
0.12345186992514812
 10
1.9966917608077637
 20
0.12159883075169375
 10
1.9990406710546438
 20
0.1208862959933441
 10
2.004933646795635
 20
0.11917736309716531
 10
2.0108667869740913
 20
0.11761356568375447
 10
2.252660402211376
 20
0.057047348463107994
 10
2.2586301335214927
 20
0.055629628371569595
 10
2.264632859438805
 20
0.054358839744544696
 10
2.267040299636406
 20
0.05387996938265616
 10
2.2730724037496373
 20
0.05275687779856497
 10
2.2791302531399396
 20
0.051782159632310254
 10
2.525696091643539
 20
0.01520749188335202
 10
2.5317760378949856
 20
0.014381734193804618
 10
2.5378744180809605
 20
0.013705434489779122
 10
2.5403172032877137
 20
0.013464840303043957
 10
2.54643034336965
 20
0.012938406006504977
 10
2.5525545616273746
 20
0.012562154147083504
 10
2.8015180619646003
 20
0.0003312695611725758
 10
2.807649718896286
 20
0.00010542556365322753
 10
2.808877033628008
 20
7.52964514560972e-05
 10
2.815012386330622
 20
0.0
 10
23.135012381420893
 20
6.0182969718880486e-12
 10
23.141147734123365
 20
7.529645747439417e-05
 10
23.142375048855087
 20
0.0001054255696715245
 10
23.14850670579881
 20
0.00033126956778772865
 10
23.39747020613541
 20
0.01256215416572104
 10
23.403594424999056
 20
0.012938406070126973
 10
23.40970756568433
 20
0.013464840441372417
 10
23.412150350890215
 20
0.013705434640129965
 10
23.418248730469855
 20
0.014381734299718119
 10
23.42432867611828
 20
0.015207491915184335
 10
23.67089451461993
 20
0.05178215967602995
 10
23.676952364607843
 20
0.052756877946286806
 10
23.682984469313254
 20
0.05387996966364739
 10
23.68539190950895
 20
0.054358840037423306
 10
23.691394634828185
 20
0.05562962856096476
 10
23.697364365546377
 20
0.057047348519887464
 10
23.939157980780436
 20
0.11761356575215842
 10
23.945091121544095
 20
0.1191773633278217
 10
23.950984097861948
 20
0.12088629641488069
 10
23.953333008104863
 20
0.12159883118461323
 10
23.95918226969539
 20
0.1234518701962628
 10
23.96498429377081
 20
0.1254478990941692
 10
24.19967708337819
 20
0.2094223806016018
 10
24.205428375586024
 20
0.21156019727224873
 10
24.211125470989998
 20
0.21383851378568153
 10
24.21339323001402
 20
0.2147778508591358
 10
24.219032696345494
 20
0.21719529459812748
 10
24.224611137170456
 20
0.21975040960484904
 10
24.449942883554172
 20
0.32632443603521466
 10
24.45545693917353
 20
0.329015683478147
 10
24.460903287575263
 20
0.3318414420063007
 10
24.46306805564282
 20
0.33299853506288457
 10
24.46844341562624
 20
0.33595710224795283
 10
24.473744549820083
 20
0.33904669623400707
 10
24.687545187258394
 20
0.46719390248210857
 10
24.692768902974166
 20
0.47041266254014147
 10
24.697912053115374
 20
0.4737586495119288
 10
24.699952982347725
 20
0.4751223551243129
 10
24.705012468378214
 20
0.47859355316376906
 10
24.709985243170365
 20
0.4821878716789243
 10
24.91019575671126
 20
0.630674131332043
 10
24.915078825333893
 20
0.6343894056161048
 10
24.91986924591484
 20
0.6382233973788587
 10
24.921766681067055
 20
0.6397805823293083
 10
24.926461567579196
 20
0.6437309817231878
 10
24.931058092479958
 20
0.6477954095512857
 10
25.11575034736333
 20
0.815190720190536
 10
25.120245742321146
 20
0.8193667286152149
 10
25.124637299020463
 20
0.8236518017705095
 10
25.126372966774255
 20
0.8253874695328349
 10
25.130658039488367
 20
0.8297790258125133
 10
25.13483404749323
 20
0.8342744203298054
 10
25.302229358123128
 20
1.0189666752208382
 10
25.30629378634498
 20
1.0235632005785291
 10
25.31024418610997
 20
1.0282580875666696
 10
25.311801371051246
 20
1.0301555227265666
 10
25.315635362419528
 20
1.0349459428506549
 10
25.319350636332246
 20
1.0398290109979413
 10
25.467836895976006
 20
1.2400395245464324
 10
25.471431214842312
 20
1.2450122998376898
 10
25.474902413208213
 20
1.2500717863842326
 10
25.47626611881057
 20
1.2521127156233618
 10
25.479612105430533
 20
1.257255865265499
 10
25.482830865161844
 20
1.2624795804658504
 10
25.610978071399245
 20
1.4762802179097676
 10
25.614067665683876
 20
1.481581352631288
 10
25.617026233141445
 20
1.486956713156708
 10
25.618183326187733
 20
1.4891214812305122
 10
25.621009084416613
 20
1.4945678291045539
 10
25.62370033158669
 20
1.5000818841824994
 10
25.730274358006085
 20
1.7254136305712606
 10
25.73282947325839
 20
1.7309920719509648
 10
25.73524691721559
 20
1.7366315388489184
 10
25.736186254277982
 20
1.7388992978776727
 10
25.73846457054512
 20
1.7445963927267698
 10
25.740602386997153
 20
1.7503476843686698
 10
25.824576868493097
 20
1.9850404739796588
 10
25.826572897581684
 20
1.9908424986332207
 10
25.828425936755508
 20
1.9966917608108972
 10
25.829138471513687
 20
1.9990406710573154
 10
25.83084740440941
 20
2.004933646796907
 10
25.832411201822453
 20
2.0108667869739563
 10
25.89297741904332
 20
2.252660402212257
 10
25.894395139134588
 20
2.2586301335212937
 10
25.895665927761428
 20
2.264632859437505
 10
25.896144798123174
 20
2.2670402996342816
 10
25.897267889707507
 20
2.2730724037485928
 10
25.898242607873954
 20
2.279130253139982
 10
25.93481727562289
 20
2.525696091643603
 10
25.935643033312346
 20
2.531776037894275
 10
25.936319333016314
 20
2.5378744180794754
 10
25.936559927203035
 20
2.5403172032859302
 10
25.937086361499667
 20
2.546430343368634
 10
25.937462613359145
 20
2.552554561627133
 10
25.949693497945077
 20
2.8015180619649698
 10
25.949919341942632
 20
2.8076497188981193
 10
25.949949471054822
 20
2.808877033629848
 10
25.95002476750625
 20
2.815012386331034
 10
25.950024767500224
 20
15.515012381421137
 10
25.949949471048797
 20
15.521147734122117
 10
25.949919341936607
 20
15.522375048853839
 10
25.949693497938455
 20
15.528506705799039
 10
25.93746261334053
 20
15.777470206135241
 10
25.937086361436286
 20
15.783594424996785
 10
25.936559927065275
 20
15.789707565679983
 10
25.93631933286656
 20
15.792150350885855
 10
25.935643033206816
 20
15.798248730467591
 10
25.934817275591115
 20
15.804328676118075
 10
25.898242607830213
 20
16.050894514620126
 10
25.897267889559345
 20
16.05695236461156
 10
25.896144797841202
 20
16.06298446932044
 10
25.89566592746732
 20
16.065391909516315
 10
25.89439513894439
 20
16.07139463483201
 10
25.89297741898625
 20
16.077364365546714
 10
25.832411201754013
 20
16.31915798078075
 10
25.830847404178314
 20
16.32509112154458
 10
25.8291384710912
 20
16.33098409786262
 10
25.82842593632131
 20
16.333333008106038
 10
25.82657289730969
 20
16.339182269696423
 10
25.82457686841181
 20
16.34498429377171
 10
25.740602386904754
 20
16.579677083377923
 10
25.738464570233106
 20
16.585428375588386
 10
25.73618625371853
 20
16.591125470994918
 10
25.73524691664457
 20
16.593393230020013
 10
25.732829472906616
 20
16.599032696348864
 10
25.73027435790101
 20
16.604611137171233
 10
25.623700331470587
 20
16.829942883555034
 10
25.621009084027236
 20
16.835456939175273
 10
25.618183325498592
 20
16.84090328757786
 10
25.61702623244227
 20
16.843068055644885
 10
25.614067665257636
 20
16.84844341562743
 10
25.610978071272058
 20
16.853744549820433
 10
25.482830865023942
 20
17.067545187258695
 10
25.47961210496777
 20
17.072768902971518
 10
25.476266117997994
 20
17.077912053109863
 10
25.47490241238603
 20
17.07995298234171
 10
25.471431214344733
 20
17.085012468375126
 10
25.46783689582759
 20
17.089985243170105
 10
25.319350636175017
 20
17.290195756710318
 10
25.31563536188989
 20
17.295078825334315
 10
25.311801370126005
 20
17.29986924591656
 10
25.31024418517447
 20
17.30176668107005
 10
25.306293785781634
 20
17.306461567580854
 10
25.302229357954644
 20
17.311058092480323
 10
25.13483404731531
 20
17.49575034736376
 10
25.13065803889154
 20
17.50024574232063
 10
25.126372965737175
 20
17.504637299019073
 10
25.124637297975738
 20
17.506372966772012
 10
25.120245741695186
 20
17.510658039487033
 10
25.11575034717697
 20
17.51483404749277
 10
24.93105809228541
 20
17.682229358123188
 10
24.926461566924928
 20
17.686293786347456
 10
24.92176667993388
 20
17.69024418611471
 10
24.919869244773395
 20
17.69180137105638
 10
24.915078824652085
 20
17.695635362422273
 10
24.910195756507704
 20
17.69935063633274
 10
24.709985242959988
 20
17.84783689597591
 10
24.705012467670542
 20
17.85143121484092
 10
24.699952981125875
 20
17.854902413205636
 10
24.697912051887016
 20
17.856266118807866
 10
24.692768902243074
 20
17.859612105429086
 10
24.687545187040854
 20
17.86283086516157
 10
24.47374454959663
 20
17.99097807139919
 10
24.468443414874884
 20
17.99406766568395
 10
24.463068054349236
 20
17.997026233141646
 10
24.460903286275993
 20
17.99818332618763
 10
24.455456938402193
 20
18.001009084416374
 10
24.449942883324496
 20
18.00370033158633
 10
24.224611136935465
 20
18.11027435800591
 10
24.219032695555853
 20
18.112829473258174
 10
24.213393228657992
 20
18.11524691721533
 10
24.211125469629536
 20
18.1161862542776
 10
24.205428374780325
 20
18.11846457054481
 10
24.19967708313831
 20
18.12060238699688
 10
23.96498429352701
 20
18.204576868492957
 10
23.959182268874883
 20
18.20657289758107
 10
23.95333300669867
 20
18.2084259367545
 10
23.950984096451606
 20
18.209138471512908
 10
23.9450911207106
 20
18.2108474044091
 10
23.939157980532087
 20
18.212411201822526
 10
23.697364365294817
 20
18.272977419043173
 10
23.69139463398409
 20
18.274395139134846
 10
23.68539190806615
 20
18.275665927761985
 10
23.682984467868522
 20
18.276144798123866
 10
23.676952363755902
 20
18.277267889707822
 10
23.67089451436621
 20
18.27824260787397
 10
23.424328675862483
 20
18.314817275622936
 10
23.418248729611236
 20
18.315643033312455
 10
23.412150349425445
 20
18.316319333016466
 10
23.40970756421902
 20
18.316559927203173
 10
23.403594424136884
 20
18.317086361499733
 10
23.39747020587899
 20
18.31746261335917
 10
23.14850670554162
 20
18.329693497945087
 10
23.142375048610234
 20
18.3299193419426
 10
23.14114773387857
 20
18.329949471054796
 10
23.135012381175642
 20
18.33002476750626
 10
2.8150123860853853
 20
18.33002476750024
 10
2.808877033382771
 20
18.329949471048778
 10
2.807649718651078
 20
18.32991934193658
 10
2.8015180617074833
 20
18.32969349793847
 10
2.5525545613707834
 20
18.31746261334054
 10
2.5464303425077475
 20
18.317086361436175
 10
2.5403172018230578
 20
18.316559927065
 10
2.537874416617484
 20
18.316319332866286
 10
2.5317760370372326
 20
18.315643033206655
 10
2.525696091388241
 20
18.314817275591118
 10
2.279130252886418
 20
18.278242607830258
 10
2.27307240289835
 20
18.27726788955998
 10
2.2670402981927964
 20
18.276144797842584
 10
2.264632857997185
 20
18.275665927468822
 10
2.258630132678107
 20
18.27439513894531
 10
2.252660401960057
 20
18.27297741898642
 10
2.010866786725785
 20
18.2124112017541
 10
2.004933645961515
 20
18.21084740417826
 10
1.999040669643037
 20
18.209138471091002
 10
1.9966917593997664
 20
18.20842593632115
 10
1.990842497809851
 20
18.206572897309663
 10
1.985040473735026
 20
18.204576868411955
 10
1.7503476841281014
 20
18.12060238690467
 10
1.7445963919200267
 20
18.11846457023394
 10
1.7388992965158394
 20
18.116186253720414
 10
1.73663153749159
 20
18.11524691664686
 10
1.730992071160344
 20
18.112829472907954
 10
1.7254136303356233
 20
18.110274357901332
 10
1.500081883952035
 20
18.00370033147103
 10
1.4945678283320945
 20
18.001009084027807
 10
1.4891214799297927
 20
17.998183325499333
 10
1.4869567118620353
 20
17.99702623244263
 10
1.4815813518791998
 20
17.99406766525785
 10
1.4762802176859253
 20
17.990978071272124
 10
1.2624795802481117
 20
17.86283086502433
 10
1.257255864533036
 20
17.859612104966736
 10
1.25211271439251
 20
17.856266117995418
 10
1.2500717851597472
 20
17.854902412382778
 10
1.245012299128561
 20
17.85143121434288
 10
1.240039524335728
 20
17.84783689582725
 10
1.0398290107953159
 20
17.699350636174486
 10
1.0349459421729534
 20
17.695635361890638
 10
1.0301555215922633
 20
17.69180137012811
 10
1.028258086439621
 20
17.69024418517732
 10
1.0235631999272101
 20
17.686293785783228
 10
1.0189666750262063
 20
17.68222935795491
 10
0.8342744201429042
 20
17.514834047315738
 10
0.8297790251850898
 20
17.51065803889106
 10
0.8253874684857578
 20
17.506372965735757
 10
0.8236518007322786
 20
17.504637297973744
 10
0.8193667280181813
 20
17.50024574169408
 10
0.8151907200133337
 20
17.495750347176802
 10
0.647795409382951
 20
17.311058092285293
 10
0.6437309811581002
 20
17.306461566924128
 10
0.6397805813902835
 20
17.301766679932378
 10
0.638223396448808
 20
17.299869244772097
 10
0.6343894050834962
 20
17.295078824651455
 10
0.630674131173592
 20
17.29019575650777
 10
0.48218787153054166
 20
17.08998524296021
 10
0.4785935526661973
 20
17.08501246767173
 10
0.47512235430211547
 20
17.079952981128073
 10
0.4737586486995582
 20
17.077912051888767
 10
0.4704126620776492
 20
17.07276890224386
 10
0.4671939023445333
 20
17.067545187040636
 10
0.33904669610711835
 20
16.853744549596733
 10
0.33595710182247274
 20
16.84844341487519
 10
0.33299853436489
 20
16.84306805434975
 10
0.33184144131887194
 20
16.84090328627645
 10
0.32901568309000595
 20
16.835456938402437
 10
0.3263244359199433
 20
16.829942883324513
 10
0.21975040950029268
 20
16.604611136935276
 10
0.21719529424801465
 20
16.59903269555562
 10
0.21477785029082952
 20
16.593393228657725
 10
0.21383851322839575
 20
16.59112546962887
 10
0.21156019696121575
 20
16.585428374779724
 10
0.2094223805091815
 20
16.579677083137767
 10
0.1254478990132526
 20
16.344984293526892
 10
0.12345186992496338
 20
16.339182268874232
 10
0.1215988307513669
 20
16.333333006697472
 10
0.12088629599308831
 20
16.33098409645079
 10
0.11917736309708005
 20
16.32509112071031
 10
0.11761356568381132
 20
16.319157980532367
 10
0.0570473484631151
 20
16.07736436529497
 10
0.05562962837151986
 20
16.07139463398463
 10
0.054358839744452325
 20
16.0653919080671
 10
0.053879969382578
 20
16.062984467869548
 10
0.052756877798543655
 20
16.056952363756515
 10
0.051782159632324465
 20
16.050894514366426
 10
0.015207491883359125
 20
15.80432867586272
 10
0.014381734193889883
 20
15.79824872961187
 10
0.01370543448990702
 20
15.7921503494265
 10
0.013464840303171854
 20
15.789707564219867
 10
0.012938406006554715
 20
15.783594424137327
 10
0.01256215414709061
 20
15.777470205878998
 10
0.0003312695611583649
 20
15.528506705541147
 10
0.00010542556360348954
 20
15.522375048608033
 10
7.529645141346464e-05
 20
15.521147733876312
 10
0.0
 20
15.51501238117509
 10
6.0254023992456496e-12
 20
2.8150123860852716
 10
7.529511428572278e-05
 20
2.808877088098477
 10
9.78925321959423e-05
 20
2.8082635634855677
  0
ENDSEC
  0
SECTION
  2
OBJECTS
  0
DICTIONARY
  5
A
330
0
100
AcDbDictionary
281
1
  3
ACAD_COLOR
350
B
  3
ACAD_GROUP
350
C
  3
ACAD_LAYOUT
350
D
  3
ACAD_MATERIAL
350
E
  3
ACAD_MLEADERSTYLE
350
F
  3
ACAD_MLINESTYLE
350
10
  3
ACAD_PLOTSETTINGS
350
11
  3
ACAD_PLOTSTYLENAME
350
12
  3
ACAD_SCALELIST
350
14
  3
ACAD_TABLESTYLE
350
15
  3
ACAD_VISUALSTYLE
350
16
  0
DICTIONARY
  5
B
330
A
100
AcDbDictionary
281
1
  0
DICTIONARY
  5
C
330
A
100
AcDbDictionary
281
1
  0
DICTIONARY
  5
D
330
A
100
AcDbDictionary
281
1
  3
Model
350
1A
  3
Layout1
350
1E
  0
DICTIONARY
  5
E
330
A
100
AcDbDictionary
281
1
  3
ByBlock
350
1F
  3
ByLayer
350
20
  3
Global
350
21
  0
DICTIONARY
  5
F
330
A
100
AcDbDictionary
281
1
  3
Standard
350
2C
  0
DICTIONARY
  5
10
330
A
100
AcDbDictionary
281
1
  3
Standard
350
22
  0
DICTIONARY
  5
11
330
A
100
AcDbDictionary
281
1
  0
ACDBDICTIONARYWDFLT
  5
12
330
A
100
AcDbDictionary
281
1
  3
Normal
350
13
100
AcDbDictionaryWithDefault
340
13
  0
ACDBPLACEHOLDER
  5
13
330
12
  0
DICTIONARY
  5
14
330
A
100
AcDbDictionary
281
1
  0
DICTIONARY
  5
15
330
A
100
AcDbDictionary
281
1
  0
DICTIONARY
  5
16
330
A
100
AcDbDictionary
281
1
  0
LAYOUT
  5
1A
330
D
100
AcDbPlotSettings
  1

  2
Adobe PDF
  4
A4
  6

 40
3.175
 41
3.175
 42
3.175
 43
3.175
 44
209.91
 45
297.03
 46
0.0
 47
0.0
 48
0.0
 49
0.0
140
0.0
141
0.0
142
1.0
143
1.0
 70
1024
 72
0
 73
1
 74
5
  7

 75
16
 76
0
 77
2
 78
300
147
1.0
148
0.0
149
0.0
100
AcDbLayout
  1
Model
 70
1
 71
0
 10
-3.175
 20
-3.175
 11
293.857
 21
206.735
 12
0.0
 22
0.0
 32
0.0
 14
29.068
 24
20.356
 34
0.0
 15
261.614
 25
183.204
 35
0.0
146
0.0
 13
0.0
 23
0.0
 33
0.0
 16
1.0
 26
0.0
 36
0.0
 17
0.0
 27
1.0
 37
0.0
 76
1
330
17
  0
LAYOUT
  5
1E
330
D
100
AcDbPlotSettings
  1

  2
Adobe PDF
  4
A4
  6

 40
3.175
 41
3.175
 42
3.175
 43
3.175
 44
209.91
 45
297.03
 46
0.0
 47
0.0
 48
0.0
 49
0.0
140
0.0
141
0.0
142
1.0
143
1.0
 70
0
 72
0
 73
1
 74
5
  7

 75
16
 76
0
 77
2
 78
300
147
1.0
148
0.0
149
0.0
100
AcDbLayout
  1
Layout1
 70
1
 71
1
 10
-3.175
 20
-3.175
 11
293.857
 21
206.735
 12
0.0
 22
0.0
 32
0.0
 14
29.068
 24
20.356
 34
0.0
 15
261.614
 25
183.204
 35
0.0
146
0.0
 13
0.0
 23
0.0
 33
0.0
 16
1.0
 26
0.0
 36
0.0
 17
0.0
 27
1.0
 37
0.0
 76
1
330
1B
  0
MATERIAL
  5
1F
102
{ACAD_REACTORS
330
E
102
}
330
E
100
AcDbMaterial
  1
ByBlock
  2

 70
0
 40
1.0
 71
1
 41
1.0
 91
-1023410177
 42
1.0
 72
1
  3

 73
1
 74
1
 75
1
 44
0.5
 73
0
 45
1.0
 46
1.0
 77
1
  4

 78
1
 79
1
170
1
 48
1.0
171
1
  6

172
1
173
1
174
1
140
1.0
141
1.0
175
1
  7

176
1
177
1
178
1
143
1.0
179
1
  8

270
1
271
1
272
1
145
1.0
146
1.0
273
1
  9

274
1
275
1
276
1
 42
1.0
 72
1
  3

 73
1
 74
1
 75
1
 94
63
  0
MATERIAL
  5
20
102
{ACAD_REACTORS
330
E
102
}
330
E
100
AcDbMaterial
  1
ByLayer
  2

 70
0
 40
1.0
 71
1
 41
1.0
 91
-1023410177
 42
1.0
 72
1
  3

 73
1
 74
1
 75
1
 44
0.5
 73
0
 45
1.0
 46
1.0
 77
1
  4

 78
1
 79
1
170
1
 48
1.0
171
1
  6

172
1
173
1
174
1
140
1.0
141
1.0
175
1
  7

176
1
177
1
178
1
143
1.0
179
1
  8

270
1
271
1
272
1
145
1.0
146
1.0
273
1
  9

274
1
275
1
276
1
 42
1.0
 72
1
  3

 73
1
 74
1
 75
1
 94
63
  0
MATERIAL
  5
21
102
{ACAD_REACTORS
330
E
102
}
330
E
100
AcDbMaterial
  1
Global
  2

 70
0
 40
1.0
 71
1
 41
1.0
 91
-1023410177
 42
1.0
 72
1
  3

 73
1
 74
1
 75
1
 44
0.5
 73
0
 45
1.0
 46
1.0
 77
1
  4

 78
1
 79
1
170
1
 48
1.0
171
1
  6

172
1
173
1
174
1
140
1.0
141
1.0
175
1
  7

176
1
177
1
178
1
143
1.0
179
1
  8

270
1
271
1
272
1
145
1.0
146
1.0
273
1
  9

274
1
275
1
276
1
 42
1.0
 72
1
  3

 73
1
 74
1
 75
1
 94
63
  0
MLINESTYLE
  5
22
102
{ACAD_REACTORS
330
10
102
}
330
10
100
AcDbMlineStyle
  2
Standard
 70
0
  3

 62
256
 51
90.0
 52
90.0
 71
2
 49
0.5
 62
256
  6
BYLAYER
 49
-0.5
 62
256
  6
BYLAYER
  0
MLEADERSTYLE
  5
2C
102
{ACAD_REACTORS
330
F
102
}
330
F
100
AcDbMLeaderStyle
179
2
170
2
171
1
172
0
 90
2
 40
0.0
 41
0.0
173
1
 91
-1056964608
 92
-2
290
1
 42
2.0
291
1
 43
8.0
  3
Standard
 44
4.0
300

342
29
174
1
175
1
176
0
178
1
 93
-1056964608
 45
4.0
292
0
297
0
 46
4.0
 94
-1056964608
 47
1.0
 49
0.0
140
1.0
294
1
141
0.0
177
0
142
1.0
295
0
296
0
143
3.75
271
0
272
9
272
9
  0
ENDSEC
  0
EOF
